<svg width="73" height="73" viewBox="0 0 73 73" fill="none" xmlns="http://www.w3.org/2000/svg">
<circle cx="36.3525" cy="36.3911" r="36" fill="#F5F3E6"/>
<path fill-rule="evenodd" clip-rule="evenodd" d="M33.6684 0.513033C22.1947 1.41013 12.0385 7.5529 5.84973 17.3385C4.91537 18.8159 3.33831 21.9881 2.71236 23.649C1.76425 26.1649 1.06238 28.971 0.657538 31.864C0.388752 33.7849 0.390577 38.8693 0.660759 40.8307C1.37444 46.013 2.82576 50.2341 5.47839 54.8432C5.71153 55.2481 5.74729 55.2663 6.63311 55.4282C8.21758 55.7181 9.75298 55.8994 11.2772 55.9766C13.0463 56.0663 13.0308 56.0796 12.6106 54.8348C12.0815 53.2673 12.3123 52.4505 13.6104 51.2968C14.3509 50.6387 14.3852 50.5876 14.3353 50.2156C14.252 49.5942 13.4629 48.1246 12.5251 46.8443C11.4838 45.4224 11.1956 44.8767 10.9228 43.81C10.4695 42.0375 10.7901 40.2844 11.8671 38.648C12.0875 38.3128 12.688 37.6279 13.2016 37.1259C14.1351 36.2131 14.1351 36.2131 14.639 34.8708C15.6155 32.2699 16.6751 30.2806 17.7728 28.988C18.0378 28.676 18.6965 28.0263 19.2366 27.5441C19.7768 27.0618 20.2326 26.635 20.2497 26.5953C20.2668 26.5557 19.7665 26.1955 19.1378 25.7948C18.5093 25.3941 17.7705 24.8394 17.4961 24.5621C16.3123 23.3659 15.879 22.0039 16.4429 21.2509C17.1934 20.2487 18.3332 19.9225 19.5792 20.3534C19.8772 20.4563 20.6176 20.8458 21.2246 21.2189C21.8318 21.5919 22.3432 21.8806 22.3611 21.8603C22.4496 21.7606 22.8741 19.4953 23.0694 18.0805C23.4048 15.6521 23.8964 13.3839 24.8039 10.0772C25.2046 8.61741 25.5411 8.11034 26.3979 7.67564C27.7343 6.99761 30.7558 6.64571 33.5617 6.84136C39.1131 7.22838 43.9325 8.25015 46.9742 9.68504C48.5853 10.445 49.2369 11.1918 49.541 12.6265C49.7451 13.5894 49.7392 16.611 49.5288 18.9241C49.4375 19.9281 49.318 21.4261 49.2632 22.253C49.2085 23.0799 49.1329 23.8893 49.0951 24.0517C49.0092 24.4219 49.0978 24.4262 50.2049 24.1059C50.903 23.9039 51.2998 23.8647 52.6491 23.8643C54.1053 23.8638 54.3128 23.8877 54.8109 24.1132C55.6122 24.4758 55.9437 24.865 56.0063 25.5172C56.1238 26.7391 55.6997 27.3776 54.1316 28.3392C53.6334 28.6448 53.1316 29.0143 53.0167 29.1605C52.8131 29.4193 52.8128 29.4347 53.0043 29.7591C53.1123 29.9422 53.4993 30.4948 53.8643 30.9871C54.8295 32.2889 55.7144 34.1398 56.4031 36.298C57.2015 38.8001 57.3745 39.5895 57.7137 42.2804C57.9919 44.4884 58.0641 46.7558 57.9373 49.3096L57.9109 49.8421L58.4238 50.0555L58.9366 50.2689L59.5514 49.9685C60.9736 49.2736 61.6499 48.7027 64.8373 45.506C68.192 42.1415 69.0863 41.3862 70.9513 40.3418C72.0482 39.7275 72.1171 39.6688 72.1789 39.2944C72.3092 38.5065 72.2462 34.1071 72.0824 32.5469C71.2267 24.3989 67.6142 16.8369 61.779 10.9796C57.5474 6.73183 52.2422 3.58361 46.4082 1.85814C42.557 0.719213 37.6538 0.201508 33.6684 0.513033ZM19.4803 31.547C18.3761 31.8243 17.3122 32.5867 16.5614 33.6389C16.0876 34.3028 15.578 35.4741 15.7067 35.6029C15.7412 35.6374 16.1906 35.6535 16.7054 35.6388C17.9988 35.6019 19.3923 35.8683 20.3791 36.3411C21.5547 36.9043 22.772 38.144 23.3641 39.381C23.7844 40.2591 24.0494 41.2875 24.0004 41.8508C23.9793 42.0942 24.0198 42.1224 24.4323 42.1523C24.792 42.1784 24.9392 42.1333 25.1345 41.9375C25.3728 41.6985 25.3806 41.6334 25.3553 40.0892C25.3252 38.2496 25.2025 37.2739 24.8207 35.8373C24.265 33.7472 23.3279 32.2715 22.2257 31.7512C21.6507 31.4799 20.1826 31.3706 19.4803 31.547ZM37.0245 31.8606C35.2586 31.9248 35.2487 31.9266 34.1232 32.3761C32.4402 33.0484 31.3471 33.7645 30.0847 35.0224C28.5654 36.5361 27.5599 38.1507 26.7815 40.327C26.2967 41.6822 26.3874 41.8943 27.6127 42.2696C28.6818 42.5972 28.8302 42.5777 28.9649 42.0925C29.0264 41.871 29.077 41.6497 29.0773 41.6007C29.0776 41.5517 29.2064 41.1892 29.3633 40.7953C30.1916 38.7153 31.8061 37.1835 33.9103 36.4809C34.9096 36.1472 36.7156 36.0708 37.8409 36.3145C39.1478 36.5975 40.5568 37.3253 41.3674 38.1358C42.117 38.8855 42.816 39.9805 43.133 40.9018C43.5417 42.0897 43.5766 42.1076 44.7562 41.735C45.1401 41.6137 46.1463 41.3273 46.9923 41.0987C47.8383 40.87 48.5993 40.6257 48.6836 40.5557C48.9075 40.3699 48.8748 40.0704 48.513 38.9985C47.0618 34.6988 44.4255 32.3312 40.571 31.8664C40.0706 31.806 39.4665 31.7655 39.2287 31.7764C38.9909 31.7872 37.999 31.8251 37.0245 31.8606ZM15.9936 37.578C15.5831 37.7171 15.0372 38.2228 14.8958 38.5949C14.5724 39.4451 14.4464 45.3598 14.7394 45.9264C14.9496 46.3329 15.4674 46.6396 16.3063 46.8546C18.0034 47.2894 19.9223 46.592 20.9792 45.1564C22.9443 42.4869 21.8656 38.8406 18.787 37.7461C18.0697 37.4911 16.5241 37.3981 15.9936 37.578ZM34.9052 38.3581C33.9804 38.6189 33.2559 39.0485 32.5686 39.7438C31.3675 40.9588 30.7688 42.5936 31.011 43.9967C31.3 45.6715 32.6208 47.4277 34.1622 48.1865C35.8409 49.0128 38.1142 48.61 39.6395 47.2159C40.7776 46.1758 41.2147 45.1321 41.2099 43.4659C41.2054 41.8901 40.8936 41.0333 39.9564 40.0211C39.2713 39.281 38.5789 38.8169 37.7138 38.5179C36.8659 38.2248 35.6281 38.1543 34.9052 38.3581ZM70.9658 41.7442C70.4679 42.0409 69.7914 42.4852 69.4624 42.7314C68.7919 43.2332 67.3072 44.6334 67.3072 44.7639C67.3072 44.8104 67.575 45.2493 67.9023 45.7391C68.2296 46.2287 68.7975 47.2213 69.1641 47.9445C69.5307 48.6678 69.8569 49.2597 69.889 49.26C69.9786 49.2607 70.9197 46.3342 71.2185 45.1261C71.5818 43.6568 71.9475 41.6857 71.9055 41.422C71.874 41.2235 71.7929 41.2514 70.9658 41.7442ZM48.7204 42.6474C48.6958 42.6721 47.6655 42.9842 46.4311 43.341C43.7448 44.1174 43.6773 44.163 43.413 45.3802C42.7802 48.2942 40.4637 50.3732 37.2251 50.9335C35.2646 51.2727 33.515 50.8096 31.8633 49.5141C31.0847 48.9035 30.767 48.8963 30.0995 49.474C29.4118 50.0692 27.6191 51.3279 27.0376 51.6239C26.7374 51.7768 26.2901 51.8882 25.8564 51.9181C24.8353 51.9887 24.3011 51.7664 22.4856 50.5148C22.1774 50.3024 21.9353 50.2269 21.562 50.2269C20.9494 50.2269 20.4087 50.0522 20.2807 49.8129C20.2286 49.7157 20.1528 49.4137 20.112 49.1416L20.0378 48.6468L19.1618 48.9036C17.8619 49.2844 16.8292 49.3375 16.0306 49.0647C15.6096 48.9208 15.3494 48.8809 15.2798 48.9496C15.2096 49.0188 15.3711 49.4438 15.7531 50.1952C17.2653 53.1696 20.4276 55.1869 24.9565 56.0663C28.962 56.8441 32.7129 56.8959 37.2392 56.2357C39.2998 55.9351 42.0052 55.4115 42.8233 55.1548C44.1495 54.7387 44.4743 54.4695 45.9793 52.539C48.0654 49.8633 49.159 46.8656 49.159 43.8234C49.159 42.7111 49.1415 42.6025 48.9622 42.6025C48.8538 42.6025 48.7451 42.6227 48.7204 42.6474ZM27.5209 44.949C28.684 45.51 28.813 45.5504 28.8454 45.3636C28.895 45.0768 28.3992 44.5913 27.9057 44.4434C27.6803 44.376 27.2116 44.3222 26.8641 44.324L26.2322 44.3275L27.5209 44.949ZM60.4882 50.8543C59.9491 51.1838 59.8572 51.3527 59.998 51.7549C60.0827 51.9969 60.0988 52.6236 60.0496 53.7706C59.9811 55.37 59.9896 55.4729 60.2657 56.4016C60.7838 58.144 61.1294 58.5688 62.1811 58.7561C62.572 58.8257 63.7037 58.5203 64.0588 58.2496C64.3146 58.0542 64.1892 57.538 63.4357 55.6857C63.0191 54.6619 62.4598 53.2203 62.1926 52.482C61.9255 51.7437 61.637 51.031 61.5515 50.8981C61.3595 50.5997 60.9332 50.5821 60.4882 50.8543ZM14.5165 52.0341C13.4562 52.8031 13.2208 53.6919 13.8004 54.7371C13.9806 55.0619 14.1609 55.5155 14.201 55.7451C14.2637 56.1038 14.2276 56.2272 13.9442 56.6218C13.5312 57.197 13.5162 57.6568 13.8925 58.2106C14.0454 58.4356 14.1891 58.6011 14.2117 58.5784C14.2815 58.5087 14.579 57.0043 14.7476 55.8687C14.9462 54.5311 15.1449 53.9137 15.5623 53.3375C15.8039 53.004 15.8698 52.8196 15.8192 52.6181C15.7491 52.3389 15.2115 51.7303 15.0348 51.7303C14.9801 51.7303 14.7468 51.867 14.5165 52.0341ZM52.4343 53.5084C52.1734 53.6298 49.9778 54.3527 48.3489 54.8534L48.0221 54.9539L48.4217 55.7732C48.9512 56.8588 49.2169 57.8856 49.548 60.1266C49.848 62.1572 49.9653 62.5327 50.2902 62.5036C50.5731 62.4783 54.1429 61.2275 54.7048 60.9569C55.3845 60.6295 55.455 60.3532 55.2316 58.8949C54.9018 56.7428 54.1172 54.1127 53.6382 53.5532C53.4249 53.3041 52.9142 53.2851 52.4343 53.5084ZM19.987 56.321C19.594 57.2085 19.3422 58.2812 19.1287 59.9768C18.9619 61.3012 18.9586 61.5247 19.0977 62.0447C19.2338 62.5542 19.3185 62.6703 19.769 62.9651C20.459 63.4165 21.7128 63.9017 23.3662 64.3569C25.0762 64.8278 25.6381 64.915 25.6513 64.7117C25.6565 64.6299 25.6533 63.838 25.6442 62.9521C25.6278 61.3629 25.7947 59.774 26.1295 58.3349C26.2471 57.8293 26.2511 57.6646 26.1484 57.5678C26.0763 57.4999 25.1235 57.215 24.0308 56.9347C22.9382 56.6544 21.6591 56.2627 21.1883 56.0643C20.7177 55.8659 20.3164 55.7036 20.2965 55.7036C20.2767 55.7036 20.1375 55.9814 19.987 56.321ZM38.9574 57.1048C38.3373 57.2093 37.1798 57.3725 36.3851 57.4677C35.5083 57.5725 34.8378 57.7077 34.6794 57.8115L34.4183 57.9826L34.4846 60.9505C34.5586 64.2648 34.6484 65.0801 34.975 65.4068C35.1824 65.6142 35.2411 65.6193 36.029 65.4998C36.4879 65.4301 37.6124 65.2717 38.5279 65.1477C40.8207 64.8372 41.2291 64.7309 41.3957 64.4017C41.5961 64.0057 41.5784 60.8162 41.3692 59.6104C41.1846 58.5462 40.8183 57.2241 40.6512 57.019C40.5188 56.8565 40.3934 56.8628 38.9574 57.1048ZM18.5619 64.5333C18.9684 65.3497 20.7526 68.4132 21.0563 68.816C21.1278 68.9109 21.5477 69.1471 21.9893 69.341C25.9398 71.0749 30.2864 72.0706 34.8768 72.2933L36.2191 72.3584L38.6889 70.8403C41.2107 69.2903 46.2721 66.0025 46.6053 65.698C46.7619 65.5549 46.7696 65.4887 46.6563 65.2618C46.5828 65.1147 46.437 64.9778 46.3323 64.9576C46.2277 64.9375 45.4316 65.0928 44.5633 65.3029C38.8364 66.6881 32.3337 67.2068 28.2261 66.6058C25.0281 66.1379 22.1598 65.3427 19.7891 64.2667C19.1985 63.9987 18.5812 63.749 18.4174 63.712L18.1196 63.6447L18.5619 64.5333Z" fill="#5C0702"/>
<path fill-rule="evenodd" clip-rule="evenodd" d="M33.6684 0.513033C22.1947 1.41013 12.0385 7.5529 5.84973 17.3385C4.91537 18.8159 3.33831 21.9881 2.71236 23.649C1.76425 26.1649 1.06238 28.971 0.657538 31.864C0.388752 33.7849 0.390577 38.8693 0.660759 40.8307C1.37444 46.013 2.82576 50.2341 5.47839 54.8432C5.71153 55.2481 5.74729 55.2663 6.63311 55.4282C8.21758 55.7181 9.75298 55.8994 11.2772 55.9766C13.0463 56.0663 13.0308 56.0796 12.6106 54.8348C12.0815 53.2673 12.3123 52.4505 13.6104 51.2968C14.3509 50.6387 14.3852 50.5876 14.3353 50.2156C14.252 49.5942 13.4629 48.1246 12.5251 46.8443C11.4838 45.4224 11.1956 44.8767 10.9228 43.81C10.4695 42.0375 10.7901 40.2844 11.8671 38.648C12.0875 38.3128 12.688 37.6279 13.2016 37.1259C14.1351 36.2131 14.1351 36.2131 14.639 34.8708C15.6155 32.2699 16.6751 30.2806 17.7728 28.988C18.0378 28.676 18.6965 28.0263 19.2366 27.5441C19.7768 27.0618 20.2326 26.635 20.2497 26.5953C20.2668 26.5557 19.7665 26.1955 19.1378 25.7948C18.5093 25.3941 17.7705 24.8394 17.4961 24.5621C16.3123 23.3659 15.879 22.0039 16.4429 21.2509C17.1934 20.2487 18.3332 19.9225 19.5792 20.3534C19.8772 20.4563 20.6176 20.8458 21.2246 21.2189C21.8318 21.5919 22.3432 21.8806 22.3611 21.8603C22.4496 21.7606 22.8741 19.4953 23.0694 18.0805C23.4048 15.6521 23.8964 13.3839 24.8039 10.0772C25.2046 8.61741 25.5411 8.11034 26.3979 7.67564C27.7343 6.99761 30.7558 6.64571 33.5617 6.84136C39.1131 7.22838 43.9325 8.25015 46.9742 9.68504C48.5853 10.445 49.2369 11.1918 49.541 12.6265C49.7451 13.5894 49.7392 16.611 49.5288 18.9241C49.4375 19.9281 49.318 21.4261 49.2632 22.253C49.2085 23.0799 49.1329 23.8893 49.0951 24.0517C49.0092 24.4219 49.0978 24.4262 50.2049 24.1059C50.903 23.9039 51.2998 23.8647 52.6491 23.8643C54.1053 23.8638 54.3128 23.8877 54.8109 24.1132C55.6122 24.4758 55.9437 24.865 56.0063 25.5172C56.1238 26.7391 55.6997 27.3776 54.1316 28.3392C53.6334 28.6448 53.1316 29.0143 53.0167 29.1605C52.8131 29.4193 52.8128 29.4347 53.0043 29.7591C53.1123 29.9422 53.4993 30.4948 53.8643 30.9871C54.8295 32.2889 55.7144 34.1398 56.4031 36.298C57.2015 38.8001 57.3745 39.5895 57.7137 42.2804C57.9919 44.4884 58.0641 46.7558 57.9373 49.3096L57.9109 49.8421L58.4238 50.0555L58.9366 50.2689L59.5514 49.9685C60.9736 49.2736 61.6499 48.7027 64.8373 45.506C68.192 42.1415 69.0863 41.3862 70.9513 40.3418C72.0482 39.7275 72.1171 39.6688 72.1789 39.2944C72.3092 38.5065 72.2462 34.1071 72.0824 32.5469C71.2267 24.3989 67.6142 16.8369 61.779 10.9796C57.5474 6.73183 52.2422 3.58361 46.4082 1.85814C42.557 0.719213 37.6538 0.201508 33.6684 0.513033ZM19.4803 31.547C18.3761 31.8243 17.3122 32.5867 16.5614 33.6389C16.0876 34.3028 15.578 35.4741 15.7067 35.6029C15.7412 35.6374 16.1906 35.6535 16.7054 35.6388C17.9988 35.6019 19.3923 35.8683 20.3791 36.3411C21.5547 36.9043 22.772 38.144 23.3641 39.381C23.7844 40.2591 24.0494 41.2875 24.0004 41.8508C23.9793 42.0942 24.0198 42.1224 24.4323 42.1523C24.792 42.1784 24.9392 42.1333 25.1345 41.9375C25.3728 41.6985 25.3806 41.6334 25.3553 40.0892C25.3252 38.2496 25.2025 37.2739 24.8207 35.8373C24.265 33.7472 23.3279 32.2715 22.2257 31.7512C21.6507 31.4799 20.1826 31.3706 19.4803 31.547ZM37.0245 31.8606C35.2586 31.9248 35.2487 31.9266 34.1232 32.3761C32.4402 33.0484 31.3471 33.7645 30.0847 35.0224C28.5654 36.5361 27.5599 38.1507 26.7815 40.327C26.2967 41.6822 26.3874 41.8943 27.6127 42.2696C28.6818 42.5972 28.8302 42.5777 28.9649 42.0925C29.0264 41.871 29.077 41.6497 29.0773 41.6007C29.0776 41.5517 29.2064 41.1892 29.3633 40.7953C30.1916 38.7153 31.8061 37.1835 33.9103 36.4809C34.9096 36.1472 36.7156 36.0708 37.8409 36.3145C39.1478 36.5975 40.5568 37.3253 41.3674 38.1358C42.117 38.8855 42.816 39.9805 43.133 40.9018C43.5417 42.0897 43.5766 42.1076 44.7562 41.735C45.1401 41.6137 46.1463 41.3273 46.9923 41.0987C47.8383 40.87 48.5993 40.6257 48.6836 40.5557C48.9075 40.3699 48.8748 40.0704 48.513 38.9985C47.0618 34.6988 44.4255 32.3312 40.571 31.8664C40.0706 31.806 39.4665 31.7655 39.2287 31.7764C38.9909 31.7872 37.999 31.8251 37.0245 31.8606ZM15.9936 37.578C15.5831 37.7171 15.0372 38.2228 14.8958 38.5949C14.5724 39.4451 14.4464 45.3598 14.7394 45.9264C14.9496 46.3329 15.4674 46.6396 16.3063 46.8546C18.0034 47.2894 19.9223 46.592 20.9792 45.1564C22.9443 42.4869 21.8656 38.8406 18.787 37.7461C18.0697 37.4911 16.5241 37.3981 15.9936 37.578ZM34.9052 38.3581C33.9804 38.6189 33.2559 39.0485 32.5686 39.7438C31.3675 40.9588 30.7688 42.5936 31.011 43.9967C31.3 45.6715 32.6208 47.4277 34.1622 48.1865C35.8409 49.0128 38.1142 48.61 39.6395 47.2159C40.7776 46.1758 41.2147 45.1321 41.2099 43.4659C41.2054 41.8901 40.8936 41.0333 39.9564 40.0211C39.2713 39.281 38.5789 38.8169 37.7138 38.5179C36.8659 38.2248 35.6281 38.1543 34.9052 38.3581ZM70.9658 41.7442C70.4679 42.0409 69.7914 42.4852 69.4624 42.7314C68.7919 43.2332 67.3072 44.6334 67.3072 44.7639C67.3072 44.8104 67.575 45.2493 67.9023 45.7391C68.2296 46.2287 68.7975 47.2213 69.1641 47.9445C69.5307 48.6678 69.8569 49.2597 69.889 49.26C69.9786 49.2607 70.9197 46.3342 71.2185 45.1261C71.5818 43.6568 71.9475 41.6857 71.9055 41.422C71.874 41.2235 71.7929 41.2514 70.9658 41.7442ZM48.7204 42.6474C48.6958 42.6721 47.6655 42.9842 46.4311 43.341C43.7448 44.1174 43.6773 44.163 43.413 45.3802C42.7802 48.2942 40.4637 50.3732 37.2251 50.9335C35.2646 51.2727 33.515 50.8096 31.8633 49.5141C31.0847 48.9035 30.767 48.8963 30.0995 49.474C29.4118 50.0692 27.6191 51.3279 27.0376 51.6239C26.7374 51.7768 26.2901 51.8882 25.8564 51.9181C24.8353 51.9887 24.3011 51.7664 22.4856 50.5148C22.1774 50.3024 21.9353 50.2269 21.562 50.2269C20.9494 50.2269 20.4087 50.0522 20.2807 49.8129C20.2286 49.7157 20.1528 49.4137 20.112 49.1416L20.0378 48.6468L19.1618 48.9036C17.8619 49.2844 16.8292 49.3375 16.0306 49.0647C15.6096 48.9208 15.3494 48.8809 15.2798 48.9496C15.2096 49.0188 15.3711 49.4438 15.7531 50.1952C17.2653 53.1696 20.4276 55.1869 24.9565 56.0663C28.962 56.8441 32.7129 56.8959 37.2392 56.2357C39.2998 55.9351 42.0052 55.4115 42.8233 55.1548C44.1495 54.7387 44.4743 54.4695 45.9793 52.539C48.0654 49.8633 49.159 46.8656 49.159 43.8234C49.159 42.7111 49.1415 42.6025 48.9622 42.6025C48.8538 42.6025 48.7451 42.6227 48.7204 42.6474ZM27.5209 44.949C28.684 45.51 28.813 45.5504 28.8454 45.3636C28.895 45.0768 28.3992 44.5913 27.9057 44.4434C27.6803 44.376 27.2116 44.3222 26.8641 44.324L26.2322 44.3275L27.5209 44.949ZM60.4882 50.8543C59.9491 51.1838 59.8572 51.3527 59.998 51.7549C60.0827 51.9969 60.0988 52.6236 60.0496 53.7706C59.9811 55.37 59.9896 55.4729 60.2657 56.4016C60.7838 58.144 61.1294 58.5688 62.1811 58.7561C62.572 58.8257 63.7037 58.5203 64.0588 58.2496C64.3146 58.0542 64.1892 57.538 63.4357 55.6857C63.0191 54.6619 62.4598 53.2203 62.1926 52.482C61.9255 51.7437 61.637 51.031 61.5515 50.8981C61.3595 50.5997 60.9332 50.5821 60.4882 50.8543ZM14.5165 52.0341C13.4562 52.8031 13.2208 53.6919 13.8004 54.7371C13.9806 55.0619 14.1609 55.5155 14.201 55.7451C14.2637 56.1038 14.2276 56.2272 13.9442 56.6218C13.5312 57.197 13.5162 57.6568 13.8925 58.2106C14.0454 58.4356 14.1891 58.6011 14.2117 58.5784C14.2815 58.5087 14.579 57.0043 14.7476 55.8687C14.9462 54.5311 15.1449 53.9137 15.5623 53.3375C15.8039 53.004 15.8698 52.8196 15.8192 52.6181C15.7491 52.3389 15.2115 51.7303 15.0348 51.7303C14.9801 51.7303 14.7468 51.867 14.5165 52.0341ZM52.4343 53.5084C52.1734 53.6298 49.9778 54.3527 48.3489 54.8534L48.0221 54.9539L48.4217 55.7732C48.9512 56.8588 49.2169 57.8856 49.548 60.1266C49.848 62.1572 49.9653 62.5327 50.2902 62.5036C50.5731 62.4783 54.1429 61.2275 54.7048 60.9569C55.3845 60.6295 55.455 60.3532 55.2316 58.8949C54.9018 56.7428 54.1172 54.1127 53.6382 53.5532C53.4249 53.3041 52.9142 53.2851 52.4343 53.5084ZM19.987 56.321C19.594 57.2085 19.3422 58.2812 19.1287 59.9768C18.9619 61.3012 18.9586 61.5247 19.0977 62.0447C19.2338 62.5542 19.3185 62.6703 19.769 62.9651C20.459 63.4165 21.7128 63.9017 23.3662 64.3569C25.0762 64.8278 25.6381 64.915 25.6513 64.7117C25.6565 64.6299 25.6533 63.838 25.6442 62.9521C25.6278 61.3629 25.7947 59.774 26.1295 58.3349C26.2471 57.8293 26.2511 57.6646 26.1484 57.5678C26.0763 57.4999 25.1235 57.215 24.0308 56.9347C22.9382 56.6544 21.6591 56.2627 21.1883 56.0643C20.7177 55.8659 20.3164 55.7036 20.2965 55.7036C20.2767 55.7036 20.1375 55.9814 19.987 56.321ZM38.9574 57.1048C38.3373 57.2093 37.1798 57.3725 36.3851 57.4677C35.5083 57.5725 34.8378 57.7077 34.6794 57.8115L34.4183 57.9826L34.4846 60.9505C34.5586 64.2648 34.6484 65.0801 34.975 65.4068C35.1824 65.6142 35.2411 65.6193 36.029 65.4998C36.4879 65.4301 37.6124 65.2717 38.5279 65.1477C40.8207 64.8372 41.2291 64.7309 41.3957 64.4017C41.5961 64.0057 41.5784 60.8162 41.3692 59.6104C41.1846 58.5462 40.8183 57.2241 40.6512 57.019C40.5188 56.8565 40.3934 56.8628 38.9574 57.1048ZM18.5619 64.5333C18.9684 65.3497 20.7526 68.4132 21.0563 68.816C21.1278 68.9109 21.5477 69.1471 21.9893 69.341C25.9398 71.0749 30.2864 72.0706 34.8768 72.2933L36.2191 72.3584L38.6889 70.8403C41.2107 69.2903 46.2721 66.0025 46.6053 65.698C46.7619 65.5549 46.7696 65.4887 46.6563 65.2618C46.5828 65.1147 46.437 64.9778 46.3323 64.9576C46.2277 64.9375 45.4316 65.0928 44.5633 65.3029C38.8364 66.6881 32.3337 67.2068 28.2261 66.6058C25.0281 66.1379 22.1598 65.3427 19.7891 64.2667C19.1985 63.9987 18.5812 63.749 18.4174 63.712L18.1196 63.6447L18.5619 64.5333Z" fill="url(#paint0_linear_659_3020)"/>
<ellipse cx="35.043" cy="43.5258" rx="1.3096" ry="1.57757" fill="#F5F3E6"/>
<ellipse cx="19.9307" cy="42.6318" rx="1.3096" ry="1.57757" fill="#F5F3E6"/>
<defs>
<linearGradient id="paint0_linear_659_3020" x1="82.0386" y1="0.423832" x2="0.315595" y2="72.1974" gradientUnits="userSpaceOnUse">
<stop stop-color="#1F8BF7"/>
<stop offset="1" stop-color="#DC33FC"/>
</linearGradient>
</defs>
</svg>
