<svg width="206" height="214" viewBox="0 0 206 214" fill="none" xmlns="http://www.w3.org/2000/svg">
<path d="M164.898 79.2779C168.062 78.7553 170.774 78.2736 173.502 77.8644C175.781 77.5244 178.066 77.0962 180.358 77.0175C184.024 76.8916 187.647 76.3501 191.291 76.0793C193.944 75.881 196.622 75.9754 199.287 76.0006C200.577 76.0132 201.798 76.0132 203.022 75.393C204.648 74.5682 206.064 75.201 205.634 76.4162C205.16 77.7573 205.151 78.9411 205.647 80.2193C205.747 80.4806 205.772 80.8489 205.486 81.0945C204.724 81.7493 204.636 82.3538 205.521 83.0149C205.829 83.2447 205.844 83.8051 205.606 84.0255C203.995 85.5272 205.264 87.3311 205.022 88.9682C205.016 89.0186 205.047 89.1036 205.022 89.1225C203.738 90.1047 205.11 91.6694 204.231 92.7366C204.09 92.9098 203.999 93.0987 204.19 93.2844C204.755 93.8322 205.025 94.6382 204.369 95.0349C203.81 95.3717 203 95.7086 202.216 95.463C198.16 94.2006 193.991 94.0274 189.813 94.3359C187.163 94.5311 184.577 95.2237 182.003 95.9038C181.274 96.0958 181.124 96.7034 180.961 97.2355C179.262 102.836 176.098 107.606 172.4 112.001C167.343 118.014 161.168 122.61 153.955 125.777C151.443 126.879 148.938 127.984 146.305 128.749C145.482 128.989 145.291 129.313 145.47 130.157C146.079 133.015 146.33 135.927 146.653 138.83C146.945 141.434 147.347 144.028 147.551 146.634C147.783 149.597 147.623 152.55 147.353 155.528C147.03 159.108 146.364 162.59 145.394 166.012C144.5 169.166 143.611 172.393 141.593 175.05C140.591 176.366 141.323 177.49 141.496 178.661C141.762 180.465 141.853 180.44 143.297 179.332C145.473 177.66 147.664 176.017 150.398 175.331C152.476 174.808 153.744 175.809 153.898 177.881C154.039 179.798 153.459 181.529 152.837 183.236C152.329 184.634 152.928 184.791 153.996 184.599C155.16 184.388 156.293 183.998 157.492 183.979C158.55 183.963 159.743 184.017 160.242 185.021C160.779 186.104 160.676 187.373 159.963 188.449C158.792 190.215 157.461 191.862 156.001 193.389C152.938 196.603 149.83 199.78 146.703 202.931C143.461 206.199 140.033 209.253 135.977 211.494C133.211 213.024 130.308 213.761 127.278 212.329C124.35 210.94 123.464 206.693 123.797 204.326C124.403 200 123.317 196.103 121.022 192.476C120.727 192.01 120.328 191.978 119.817 192.167C117.952 192.866 116.044 193.153 114.122 192.422C112.729 191.893 111.366 192.303 110.023 192.507C102.511 193.653 94.9424 193.858 87.3771 193.697C83.7043 193.619 80.0316 193.121 76.3682 192.58C71.5403 191.868 66.7971 190.867 62.0664 189.709C61.1278 189.479 60.0856 189.624 59.0936 189.671C56.598 189.784 54.1872 189.482 51.9459 188.301C50.9571 187.782 50.3104 188.169 49.8364 189.051C47.7803 192.879 45.878 196.726 46.1825 201.3C46.3551 203.901 44.6663 206.079 42.5505 206.325C40.6231 206.549 38.7992 206.218 37.1638 205.031C34.0089 202.742 30.7913 200.542 27.6554 198.231C25.7907 196.858 23.8162 195.596 21.8323 194.491C18.9286 192.873 15.9182 191.412 12.9768 189.831C11.6804 189.136 10.5597 188.248 9.62113 187.133C7.9982 185.21 8.74531 182.965 11.2378 182.465C13.5231 182.005 15.8397 181.706 18.216 181.322C17.0985 179.527 16.072 177.685 15.6043 175.601C15.0832 173.281 15.6106 171.55 18.6241 171.666C22.3628 171.811 25.4894 173.394 28.5437 175.246C31.4349 176.999 33.9336 179.266 36.2252 181.744C36.9315 182.505 37.2234 182.471 37.7288 181.539C38.501 180.11 38.7333 179.068 37.3615 177.676C33.9367 174.197 31.7268 169.903 30.2891 165.259C29.9501 164.167 29.4007 163.613 28.4684 163.314C24.5822 162.067 20.9471 160.317 17.5788 158.003C15.7267 156.731 14.4773 153.073 14.9796 150.866C15.7455 147.497 16.7595 144.195 17.538 140.845C18.012 138.798 17.8739 136.595 18.5519 134.504C19.4466 131.737 20.63 129.146 22.4036 126.848C22.8243 126.303 23.2575 125.557 23.97 125.5C25.3858 125.384 25.9006 124.317 26.384 123.337C27.6146 120.844 29.0554 118.477 30.5873 116.175C31.2497 115.18 30.9452 114.897 30.0882 114.39C24.8835 111.299 20.0524 107.647 16.0406 103.132C11.7651 98.3216 8.26817 92.9098 5.38959 87.1044C3.44962 83.1912 1.82983 79.174 1.10156 74.883C0.59302 71.8922 0.188073 68.8037 1.03564 65.7909C1.61951 63.7162 3.57204 62.778 5.63758 63.2471C9.0655 64.0247 11.7746 66.197 14.7128 67.9065C19.9896 70.9792 25.4046 73.6615 31.2748 75.4497C34.8848 76.5516 38.5795 77.1623 42.2586 77.8833C43.464 78.1194 44.5187 77.8581 45.5954 76.731C46.7475 75.5252 46.9892 74.5776 46.556 73.1168C45.2972 68.8573 47.548 66.8046 50.5866 65.709C51.5629 65.3564 51.8109 65.0227 51.7921 64.0342C51.7575 62.0571 51.7921 60.0579 52.0463 58.1029C52.1405 57.3851 51.701 57.4921 51.4813 57.2718C50.5458 56.3462 50.6463 55.0428 51.836 54.4635C52.4858 54.1456 52.6585 53.7646 52.8374 53.0941C54.5168 46.7913 57.4739 41.1308 61.5233 36.0306C63.1431 33.9874 64.8916 32.0764 66.998 30.5181C67.6854 30.0112 67.7043 29.6806 66.9101 29.1486C65.5508 28.2419 64.2041 27.3037 63.6987 25.5407C63.1871 23.7525 64.0786 22.3452 65.9338 22.2099C68.3823 22.0304 70.7461 22.4838 73.0313 23.2425C74.1363 23.6077 74.3247 23.5384 74.5507 22.3232C75.6023 16.6658 76.77 11.0147 79.4038 5.82958C80.2545 4.15157 82.1536 4.06972 83.7106 3.69823C88.8086 2.48931 93.9944 2.52394 99.1708 3.04025C102.762 3.39915 106.265 4.22083 109.64 5.56198C112.807 6.82443 113.906 9.52876 114.669 12.529C115.679 16.4958 116.282 20.535 116.838 24.5805C116.957 25.4557 117.362 25.5312 117.971 25.2668C120.068 24.3538 122.272 24.4199 124.482 24.4042C126.013 24.3916 127.53 24.6592 128.233 26.0507C128.983 27.5304 128.468 29.0667 127.37 30.3229C126.996 30.751 126.604 31.154 126.07 31.4247C125.543 31.6955 125.502 32.0796 126.01 32.5109C129.9 35.8165 132.546 40.0289 134.743 44.5718C136.592 48.3937 137.901 52.3574 138.215 56.6327C138.256 57.1899 138.156 58.1596 139.295 58.1312C139.866 58.1155 140.058 58.5877 140.061 59.1198C140.064 59.6959 140.168 60.4483 139.433 60.5302C138.582 60.6278 138.758 61.1315 138.774 61.6195C138.859 64.4183 138.727 67.195 137.889 69.893C137.703 70.4944 138.13 70.6738 138.554 70.9194C140.34 71.952 141.634 73.2711 141.339 75.5913C141.219 76.5358 141.696 76.4193 142.374 76.0888C145.215 74.7067 147.724 72.865 149.971 70.6612C152.956 67.7333 155.625 64.5033 158.679 61.6384C161.021 59.4409 163.614 57.5992 166.404 56.0691C170.212 53.9819 174.136 52.1118 178.408 51.1642C180.195 50.7675 182.047 50.1945 183.82 50.333C185.578 50.4684 186.821 49.2406 188.45 49.2658C189.27 49.2784 189.788 49.376 189.656 50.3519C189.628 50.5534 189.643 50.9375 189.697 50.9501C191.367 51.287 190.403 52.9996 191.178 53.7993C191.291 53.9189 191.342 54.2557 191.257 54.388C190.334 55.8236 191.461 55.8047 192.352 56.0597C192.644 56.1447 193.09 56.7429 193.046 56.8027C192.243 57.9046 194.048 58.6287 193.432 59.6613C194.653 60.1241 193.721 61.7895 194.911 62.2995C195.36 62.4915 195.482 63.0771 195.278 63.3825C194.782 64.1318 195.554 64.4623 195.627 64.9566C195.818 66.3041 196.433 67.4783 196.813 68.7345C197.102 69.6947 196.003 70.466 194.795 70.0064C192.604 69.1721 190.466 69.5593 188.253 69.701C185.917 69.8521 183.654 70.2834 181.406 70.806C177.357 71.7473 173.606 73.4285 170.153 75.7676C168.539 76.8601 166.916 77.9368 164.904 79.2842L164.898 79.2779ZM96.6815 57.3001C96.2294 57.2245 95.768 57.1805 95.3254 57.064C92.2302 56.2423 89.0691 56.554 86.878 57.914C87.7664 58.2257 88.6799 57.8573 89.5714 58.0179C90.1333 58.062 90.6983 58.1564 91.2571 58.1407C93.4388 58.084 95.5702 58.2981 97.6483 59.0285C99.8363 59.7998 99.8457 59.7746 99.8551 57.4386C100.087 53.2955 102.275 50.2606 105.537 48.038C109.853 45.0944 114.527 44.704 119.406 46.6496C123.96 48.4661 126.943 51.586 127.825 56.5351C128.179 58.5153 128.189 58.4335 130.49 58.1438C131.34 58.0368 131.742 57.892 131.567 57.0042C130.515 51.7309 128.424 47.1187 124.02 43.6745C118.385 39.2733 110.026 39.415 104.617 44.1121C100.922 47.3202 99.3058 51.6522 97.7331 56.0502C97.5573 56.5414 97.7582 56.8436 98.2887 56.9034C97.8586 57.4575 97.1775 57.001 96.6815 57.3032V57.3001ZM90.5633 73.4663C88.5292 70.9257 86.9 68.0482 84.4797 65.8255C86.0744 68.7156 87.8323 71.4703 90.4032 73.5859C91.6128 75.0047 92.9867 75.2062 94.5249 74.1904C96.6438 72.8052 98.3358 70.9666 99.9179 69.0273C100.32 68.533 100.957 68.1332 100.9 67.2359C99.943 67.2485 99.1457 67.4941 98.6874 68.3882C97.8869 69.9403 96.7191 71.1901 95.498 72.4116C94.0697 73.8409 92.6194 75.0499 90.5602 73.4694H90.5633V73.4663ZM88.0018 62.2806C87.9798 62.3908 87.917 62.4663 87.8135 62.5073C87.2861 62.4412 86.9659 62.841 86.5704 63.0708C85.839 63.499 84.9851 64.1003 84.9883 64.8559C84.9883 65.5957 86.1183 65.6209 86.7556 65.8601C88.7395 66.6031 90.6606 67.7963 92.8612 67.5539C95.2186 67.2957 97.5416 66.7165 99.8928 66.3639C101.17 66.1718 100.813 65.7059 100.213 65.1203C98.5367 63.4832 96.7411 61.991 94.7729 60.7191C94.2518 60.3822 93.6805 60.0642 93.015 60.3917C91.0593 60.0863 89.6436 61.2637 88.1368 62.1862L88.0206 62.1767L88.0018 62.2838V62.2806ZM128.387 188.336C126.5 189.076 124.62 189.831 122.724 190.546C122.159 190.76 122.127 191.056 122.416 191.49C123.851 193.641 124.868 195.977 125.426 198.883C125.831 197.428 126.183 196.389 126.403 195.322C126.889 192.964 128.198 190.864 128.5 188.456C128.553 188.396 128.666 188.298 128.653 188.282C128.531 188.09 128.459 188.232 128.383 188.336H128.387ZM127.828 77.3197C129.67 77.1056 131.265 76.1423 132.998 75.5851C133.5 75.4245 133.572 74.9617 133.638 74.3509C133.883 71.9898 133.572 69.6191 133.984 67.2454C134.26 65.6524 134.498 63.8894 133.441 62.331C132.577 64.9031 132.48 67.6137 131.642 70.1732C130.782 72.802 129.579 75.1852 127.8 77.2882C127.759 77.3418 127.718 77.3921 127.674 77.4457C127.724 77.4047 127.778 77.3606 127.828 77.3197ZM156.701 85.1525C156.494 85.1651 156.249 85.1085 156.086 85.1998C152.473 87.2367 148.788 89.1004 144.704 90.0953C149.168 90.9264 153.613 91.1531 158.083 90.4416C161.369 90.2936 164.524 89.4562 167.682 88.6282C167.886 88.5999 168.093 88.5904 168.291 88.54C171.603 87.7026 174.623 85.8389 178.142 85.7381C180.323 85.7853 182.116 86.9061 182.131 88.5243C182.153 90.3944 182.486 92.2801 181.981 94.2761C184.15 93.8354 186.219 93.4104 188.29 92.9885C191.398 92.9728 194.506 92.9602 197.614 92.9444C198.188 92.9444 198.762 92.9129 199.334 92.9539C199.943 92.9979 200.15 92.8657 200.269 92.1511C200.932 88.2284 201.409 84.3088 200.913 80.3294C200.611 77.8927 200.615 77.9022 198.088 77.6408C197.689 77.5999 197.303 77.4457 196.91 77.3449C193.376 77.1812 189.898 77.8833 186.382 78.0218C183.196 78.3177 180.013 78.6168 176.826 78.9127C175.649 79.0009 174.459 79.0166 173.295 79.1961C170.699 79.5959 168.096 79.9926 165.61 80.9024C161.991 80.9528 159.41 83.1912 156.698 85.1557H156.701V85.1525ZM68.4733 45.1385C63.8306 46.8417 60.8892 50.0466 59.869 54.9452C58.6479 56.3777 59.439 57.9266 59.7058 59.3842C60.7385 65.007 64.7912 69.0839 70.9658 69.9812C76.0229 70.7147 80.3926 68.7156 83.3025 64.4781C86.2188 60.2311 86.2031 55.7134 83.8268 51.0288C81.1742 45.7996 73.8695 43.0764 68.4733 45.1385ZM101.346 54.9043C100.863 55.5402 100.571 56.2927 100.467 57.0514C99.1708 66.685 107.957 73.652 115.852 72.3896C122.655 71.3003 128.296 65.2998 127.294 57.6905C126.177 49.1902 117.572 44.6851 109.941 46.9361C105.807 48.2143 102.975 50.906 101.346 54.9011V54.9043ZM136.209 76.1454C133.632 76.6712 131.259 77.8234 128.748 78.5601C124.607 80.043 120.266 80.7324 116.022 81.8154C112.33 82.4986 108.67 83.3643 104.909 83.6068C104.303 83.6918 103.701 83.7956 103.095 83.8555C99.3623 84.2301 95.6299 84.5922 91.8943 84.9605C90.4001 84.9101 88.8808 85.0172 87.4179 84.7747C84.7497 84.3277 82.1128 83.6729 79.4665 83.1062C78.8387 82.3569 77.8656 82.4954 77.0682 82.1869C73.8883 80.9559 70.6833 79.7879 67.4877 78.5979C63.9593 76.9136 60.4309 75.2293 56.9025 73.545C55.1289 72.0275 52.762 71.3727 51.1077 69.8521C51.4248 69.0178 52.7369 70.2897 52.3822 68.9926C52.2033 68.3378 52.806 66.8518 51.2929 67.0376C48.835 67.3367 47.2623 69.8332 47.8587 72.2637C48.2323 73.7811 48.6404 75.2891 48.992 76.8129C49.0673 77.1434 49.1238 77.581 48.7 77.7825C48.3516 77.9494 48.0816 77.7321 47.9215 77.452C47.4946 76.6995 47.0991 77.0175 46.7318 77.4771C45.5358 78.9694 44.729 80.6033 45.4887 82.5395C46.9233 86.2009 49.6794 88.6534 53.01 90.5455C55.9765 93.0578 59.4201 94.7704 62.8637 96.4893C66.1096 98.287 69.6819 99.2094 73.1883 100.283C74.5036 100.686 75.8095 101.275 77.244 101.221C78.1293 101.495 79.0396 101.898 79.9029 102.002C83.8174 102.487 87.6816 103.447 91.6557 103.381C94.8702 103.397 98.0941 103.592 101.29 103.362C103.016 103.236 104.827 103.463 106.504 102.764C110.999 102.521 115.334 101.435 119.654 100.274C121.44 99.7415 123.276 99.3322 125.003 98.6459C127.542 97.6384 130.151 96.7097 132.263 94.8554C134.693 93.4072 137.107 91.9401 138.815 89.5884C140.51 88.3984 140.77 86.777 139.819 84.1955C139.439 83.166 139.05 83.2384 138.451 83.9436C137.678 83.1377 138.099 82.2751 138.331 81.4219C139.725 79.8037 139.932 77.814 140.092 75.8054C140.183 74.6437 139.891 73.6457 138.981 72.865C138.498 72.4494 138.005 71.9237 137.355 72.3896C136.69 72.865 136.225 74.2439 136.42 74.3604C137.864 75.2387 136.238 75.585 136.209 76.1549V76.1454ZM146.063 75.9817C144.795 76.1423 143.812 76.9923 142.644 77.411C141.069 77.9746 139.841 80.7513 140.51 82.3065C141.266 84.0601 141.791 85.8231 141.621 87.753C141.539 88.6912 142.142 88.921 142.905 88.8832C143.366 88.858 143.834 88.773 144.283 88.6534C146.672 88.0269 149.171 87.6774 151.148 85.9837C151.691 85.9742 152.109 85.65 152.567 85.4264C155.468 84.0129 158.161 82.2593 160.829 80.4585C164.191 78.5318 167.076 75.8841 170.473 74.0078C170.762 73.8472 170.9 73.5639 170.846 73.2144C171.298 73.1452 171.738 73.1011 172.168 72.8492C174.579 71.4325 177.203 70.5258 179.859 69.7104C181.61 69.3452 183.365 69.0052 185.107 68.6086C186.325 68.3315 187.659 68.555 188.764 67.7774C188.893 67.8561 189.012 67.9789 189.15 68.0104C192.001 68.6274 192.343 68.171 191.564 65.3312C190.478 61.3771 188.479 57.8699 186.661 54.2463C185.594 52.1181 184.279 51.5105 182.179 51.8474C178.66 52.4298 175.21 53.2357 172.042 54.9735C168.304 56.4721 164.854 58.4807 161.649 60.9206C158.265 63.5966 155.418 66.8078 152.614 70.063C150.684 72.314 148.317 74.0802 146.066 75.9786H146.063V75.9817ZM39.1634 187.728C34.2255 181.646 28.9361 176.017 21.148 173.583C20.652 173.023 19.9959 173.212 19.3901 173.221C16.7563 173.256 16.4487 173.832 17.4626 176.291C18.147 177.947 18.9883 179.489 19.9677 180.982C20.856 182.332 20.6049 182.77 19.0573 183.015C18.0779 183.173 17.0922 183.236 16.116 183.365C14.4805 183.582 12.7916 183.544 11.2221 184.218C10.296 184.618 10.1359 185.125 10.7983 185.877C11.806 187.029 12.98 187.968 14.3329 188.692C16.6245 189.916 18.8815 191.201 21.1794 192.407C26.541 195.224 31.4506 198.728 36.2691 202.365C37.4369 203.246 38.5764 204.134 40.0141 204.565C42.0608 205.179 43.464 204.581 44.3461 202.642C44.8295 201.571 44.9519 200.447 44.9425 199.276C44.9331 197.976 44.66 196.628 45.1434 195.382C46.1259 192.851 47.0677 190.285 48.6655 188.053C49.1426 187.388 49.1301 186.989 48.3579 186.589C45.6582 185.197 43.1658 183.472 40.8679 181.495C39.9544 180.711 39.7943 181.026 39.267 181.901C38.3472 183.425 38.3629 184.624 39.6939 185.843C40.1428 186.255 40.4504 186.841 40.7518 187.385C40.937 187.719 41.3639 188.125 40.9433 188.503C40.5163 188.887 40.0769 188.651 39.719 188.267C39.5432 188.078 39.3454 187.908 39.1571 187.728H39.1634ZM128.65 194.053C127.363 197.126 126.447 200.302 125.772 203.57C125.426 205.242 125.59 206.81 126.123 208.315C127.165 211.249 129.997 212.168 133.428 210.811C137.088 209.363 140.13 206.97 142.911 204.272C146.895 200.409 150.794 196.458 154.645 192.463C156.124 190.93 157.649 189.387 158.619 187.439C159.297 186.076 158.874 185.421 157.358 185.553C156.118 185.663 154.903 186.047 153.663 186.154C151.199 186.365 150.574 185.468 151.349 183.066C151.83 181.583 152.454 180.147 152.347 178.504C152.231 176.659 151.921 176.351 150.185 176.946C147.614 177.83 145.51 179.471 143.505 181.24C143.118 181.58 142.048 181.888 143.153 182.697C143.429 182.899 143.166 183.223 142.896 183.248C142.302 183.308 141.74 183.456 141.197 182.852C140.318 181.869 140.309 180.686 140.105 179.524C139.882 178.246 140.033 176.829 138.843 175.885C137.427 175.721 136.831 176.842 136.178 177.72C132.518 182.625 130.675 188.383 128.65 194.053ZM124.522 110.726C123.835 111.066 123.311 111.371 122.849 111.806C116.788 117.532 110.114 122.484 103.205 127.112C93.6491 133.513 83.494 138.78 72.6954 142.762C72.1492 142.964 71.917 143.2 71.9546 143.735C72.0802 145.511 71.6784 147.223 71.3739 148.952C70.3976 154.502 69.4747 160.052 67.3338 165.332C66.6275 167.076 65.6795 168.118 63.8369 168.357C57.455 169.195 51.1611 168.556 44.9048 167.243C42.9052 166.824 40.8962 166.418 38.8777 166.128C38.4382 166.065 37.2799 165.596 37.5593 166.903C38.3095 170.375 39.154 173.838 40.7267 177.043C41.3294 178.274 41.6558 179.738 42.7483 180.632C44.999 182.477 47.2968 184.303 50.0185 185.433C53.0289 186.686 55.9388 188.336 59.3856 188.053C62.5121 187.794 65.5288 186.919 68.602 186.365C72.821 185.606 77.0808 185.251 81.3155 184.977C87.3897 184.586 93.4325 184.98 99.4031 186.708C104.677 188.235 109.841 190.225 115.384 190.864C118.539 191.226 121.349 190.086 123.179 188.235C125.445 185.95 127.078 182.83 128.314 179.726C131.906 170.725 133.911 161.365 133.974 151.656C134.012 145.681 133.208 139.781 131.934 133.925C130.201 125.973 127.533 118.341 124.525 110.723H124.522V110.726ZM125.806 187.351C127.125 186.749 128.835 186.708 129.557 185.556C130.942 183.352 132.361 181.01 132.982 178.529C133.519 176.382 134.48 175.202 136.404 174.566C137.195 174.304 137.616 174.049 137.333 173.014C136.972 171.691 137.016 170.149 137.886 169.097C139.832 166.745 139.455 163.692 140.598 161.082C141.948 158 142.243 154.559 142.729 151.215C143.096 148.697 143.837 146.146 143.687 143.656C143.498 140.514 143.721 137.375 143.461 134.256C143.366 133.132 144.384 132.297 144.06 131.255C143.514 129.489 143.643 127.632 143.194 125.862C142.877 124.616 142.55 123.665 144.415 123.023C146.446 122.321 148.351 121.149 150.429 120.46C156.72 118.376 162.499 115.347 167.651 111.151C168.526 110.436 169.471 109.923 170.649 110.036C171.411 110.112 171.888 109.75 172.344 109.152C174.246 106.649 175.919 103.985 177.341 101.199C179.052 97.8525 180.487 94.3611 180.527 90.492C180.559 87.6995 179.56 86.925 176.748 87.5295C174.613 87.9891 172.573 88.7321 170.507 89.4499C161.63 92.5415 152.526 93.2309 143.263 91.5529C142.748 91.4585 142.243 91.3483 141.879 91.9307C140.607 93.9739 139.022 95.7904 137.437 97.5786C134.213 101.212 131.017 104.892 127.244 107.987C125.533 109.391 125.451 109.621 126.271 111.736C128.28 116.934 130.151 122.185 131.648 127.553C133.685 134.866 135.016 142.293 135.051 149.927C135.073 154.691 134.812 159.429 134.053 164.123C133.384 168.241 132.336 172.258 130.829 176.174C129.366 179.974 127.887 183.749 125.8 187.351H125.806ZM38.9436 126.048C41.9227 126.486 44.8232 126.999 47.7457 127.32C50.7907 127.654 53.776 128.299 56.7927 128.778C59.599 129.222 62.3301 130.024 65.127 130.553C67.2177 130.947 69.5344 131.51 70.1904 133.975C70.5954 135.496 71.3268 135.228 72.2936 134.86C72.6327 134.731 72.956 134.555 73.2856 134.397C81.9464 130.238 90.2117 125.359 98.2981 120.189C105.986 115.272 113.269 109.778 120.203 103.834C120.573 103.516 121.496 103.365 120.969 102.421C120.495 101.577 119.767 101.835 119.192 101.999C111.658 104.146 103.971 105.012 96.1572 105.04C92.1643 105.056 88.1745 104.968 84.2317 104.379C80.4805 103.822 76.8077 102.846 73.1255 101.92C67.9522 100.62 63.0678 98.5546 58.447 95.9825C56.7958 95.0632 55.9514 95.1702 54.9312 96.4767C54.8088 96.6341 54.7146 96.8167 54.589 96.9742C51.9678 100.217 49.5476 103.592 47.5448 107.272C44.2707 113.291 41.298 119.443 38.9468 126.051H38.9436V126.048ZM58.2084 167.315C59.3071 167.315 60.4058 167.356 61.5014 167.309C64.9042 167.164 65.5602 166.698 66.5993 163.786C68.7527 157.754 69.8043 151.48 70.6739 145.167C70.7994 144.245 70.8308 143.54 69.3962 143.924C67.5881 144.405 65.9495 143.064 65.4441 141.005C64.8916 138.745 65.5414 137.545 67.6478 136.906C68.0966 136.771 68.5236 136.566 68.963 136.409C69.6913 136.151 69.685 135.742 69.3962 135.08C68.6742 133.428 67.5442 132.414 65.7423 131.986C59.9757 130.613 54.1872 129.385 48.3171 128.538C43.69 127.871 39.0598 127.301 34.3951 126.892C32.3389 126.712 30.2546 126.914 28.1984 126.394C25.3167 125.667 23.4081 127.049 21.9704 129.54C20.4291 132.212 19.7071 135.137 18.9035 138.049C18.6681 138.906 18.9286 139.655 19.6255 140.303C22.118 142.62 25.0468 144.113 28.2455 145.183C30.2294 145.847 30.1824 145.929 30.8949 144.056C31.1555 143.373 31.4945 142.718 31.8367 142.069C32.1977 141.386 32.791 141.141 33.5506 141.282C35.2897 141.607 37.0445 141.862 38.7647 142.268C41.6747 142.954 41.9352 143.499 40.937 146.291C40.3217 148.01 40.4912 148.224 42.2774 148.438C46.0789 148.895 49.8646 148.681 53.6693 148.438C57.025 148.227 59.304 146.852 60.0009 143.373C60.1044 142.863 60.3336 142.381 60.4811 141.881C61.178 139.516 62.1543 137.259 63.1745 135.024C64.1382 132.914 66.1535 132.379 67.315 133.938C67.5755 134.287 67.993 134.699 67.6383 135.197C67.2993 135.669 66.8441 135.345 66.502 135.187C65.1992 134.592 64.5463 135.084 63.9687 136.321C62.7005 139.038 61.9942 141.944 60.9708 144.742C60.1735 146.924 58.9336 148.775 56.5761 149.257C52.3665 150.123 48.0628 150.286 43.7999 149.883C39.7504 149.502 39.7253 149.304 38.7113 153.274C38.3409 154.722 37.4369 155.094 36.1624 154.943C34.9758 154.804 33.808 154.505 32.6183 154.395C29.8088 154.13 29.0774 153.091 29.8622 150.346C29.9344 150.094 30.1227 149.824 30.0756 149.6C29.8653 148.586 30.4366 147.302 28.8702 146.764C25.5019 145.605 22.2749 144.122 19.456 141.887C18.8941 141.44 18.712 141.569 18.5425 142.233C17.9743 144.462 17.2994 146.663 16.7658 148.898C16.4048 150.415 16.2258 151.939 16.4613 153.551C17.0106 157.326 20.2941 158.296 22.8839 159.571C28.4558 162.316 34.4578 163.934 40.6011 164.995C46.443 166.006 52.2284 167.384 58.2084 167.309V167.315ZM2.5738 69.8962C2.61461 73.482 3.49671 77.7479 5.05999 81.85C5.73176 83.6162 6.43806 85.3698 8.1426 86.6133C9.46417 87.5798 10.8517 88.5936 11.8373 89.9693C13.093 91.7166 14.7724 93.0578 16.1725 94.6665C18.3039 97.1127 21.0475 98.8631 23.5149 100.925C25.2257 102.354 27.0432 103.696 28.9675 104.807C30.5371 105.717 31.9685 106.658 32.9668 108.207C33.2022 108.575 33.5695 109.17 34.0466 108.969C36.1467 108.094 35.1422 109.599 34.9695 110.216C33.6448 114.869 32.2762 119.509 30.8855 124.14C30.5999 125.088 30.7725 125.5 31.8335 125.463C33.3968 125.409 34.957 125.441 36.5045 125.758C37.5216 125.966 38.0835 125.585 38.4477 124.512C39.3486 121.852 40.215 119.15 41.4581 116.644C45.1654 109.161 48.8727 101.649 54.4948 95.3402C55.2074 94.5406 55.1886 94.1785 54.2531 93.5993C51.4468 91.8709 48.8758 89.793 46.6408 87.3815C44.9017 85.502 43.4828 83.3203 43.8595 80.5278C43.9788 79.6494 43.5173 79.5676 42.8927 79.5015C39.0504 79.1142 35.274 78.3366 31.5824 77.2347C26.6885 75.7771 21.8919 74.077 17.4783 71.4168C14.3047 69.5027 11.0902 67.6483 7.80672 65.9326C3.86712 63.8705 2.56753 64.7079 2.58008 69.8993H2.5738V69.8962ZM102.294 67.5917C100.16 70.9036 97.6483 73.6583 94.415 75.6952C93.4827 76.2808 92.4185 76.7814 91.3921 76.1077C90.4032 75.4591 89.4646 74.6595 88.6924 73.7591C86.8749 71.6403 85.1609 69.4302 83.742 67.0093C83.3057 66.2663 82.9384 66.134 82.2007 66.8267C78.7351 70.0914 74.6511 71.6623 69.8954 70.6927C66.4863 69.9969 63.6611 68.2024 61.5076 65.3942C59.8502 63.2345 58.8833 60.7883 58.4815 58.1281C58.3936 57.5394 58.2304 57.4229 57.7595 57.4921C57.4456 57.5394 56.9873 57.2749 56.8931 57.8636C56.6891 59.1387 56.3658 60.4294 56.5918 61.7108C57.0438 64.264 57.3671 66.8644 58.4564 69.2539C59.6242 71.8072 60.817 74.2911 63.7458 75.4339C67.7482 76.9955 71.5999 78.9725 75.6494 80.383C79.6926 81.7934 83.8142 83.0779 88.1588 83.3675C91.7531 83.6068 95.3097 83.3077 98.8851 83.0054C102.464 82.7064 105.992 82.0767 109.533 81.5761C113.608 81.0032 117.613 79.9328 121.672 79.2055C124.058 78.7774 125.991 77.8171 127.457 75.818C130.185 72.0968 131.403 67.8939 131.523 63.3573C131.545 62.5639 132.568 61.5597 131.545 61.0276C130.845 60.6624 129.796 61.0276 128.917 60.9332C128.179 60.8545 127.881 61.4432 127.875 61.8084C127.84 63.4108 126.996 64.6733 126.384 66.049C123.945 71.5333 116.725 74.1904 111.077 73.0539C107.505 72.3329 104.699 70.3621 102.294 67.5885V67.5917ZM84.2914 35.6276C82.3859 35.3758 80.9325 34.2928 79.1055 35.3411C77.9064 36.0306 74.6386 34.6832 74.1238 33.6348C72.9591 31.2547 69.5469 30.5873 67.6321 32.3944C65.4629 34.4376 63.3472 36.5186 61.6144 38.99C58.5192 43.4038 56.1366 48.1356 54.6832 53.327C54.3504 54.5171 54.8056 54.9169 55.9891 54.665C56.5321 54.5485 56.5949 54.1456 56.7268 53.7678C57.1066 52.6816 57.4017 51.5609 57.8411 50.4999C60.6601 43.6903 65.1521 38.5933 72.6798 37.2143C77.7589 36.2856 82.2917 37.7464 85.7197 41.8517C88.6485 45.3588 89.901 49.5019 90.1364 54.0007C90.1898 55.0491 90.4723 55.685 91.6965 55.6158C92.993 55.5434 94.2706 55.5497 95.5294 56.1352C96.2702 56.4816 96.8918 56.2549 97.1712 55.1498C98.1349 51.3594 99.8112 47.9246 102.429 44.937C106.736 40.0194 112.217 38.4201 118.326 39.777C124.29 41.1024 128.239 45.2833 130.86 50.7014C131.796 52.6344 132.282 54.728 132.612 56.8562C132.668 57.2119 132.558 58.0557 133.456 57.8384C133.968 57.7157 134.643 57.9455 134.721 57.0388C134.913 54.8067 134.75 52.5179 133.707 50.629C132.577 48.5826 131.827 46.4733 131.35 44.2444C131.111 43.1267 130.515 42.3743 129.74 41.6439C128.346 40.328 126.911 39.0466 125.646 37.6142C125.05 36.9405 124.488 36.7012 123.647 36.6886C121.757 36.6603 119.945 37.2364 118.078 37.3277C115.008 37.4788 111.966 37.9794 109.037 38.8042C106.507 39.5189 103.977 39.6794 101.415 39.8494C99.0578 40.0037 96.7568 39.5252 94.4307 39.267C91.0719 38.8955 87.7287 38.5964 84.5237 37.4032C83.4626 37.0097 82.7658 36.7138 84.2914 35.6245V35.6276ZM140.877 90.0921C140.3 90.2023 140.058 90.7186 139.687 91.0618C136.912 93.6213 134.018 96.0738 130.546 97.5755C128.048 98.6585 125.991 100.207 124.042 102.027C116.461 109.104 108.155 115.259 99.4533 120.844C89.2543 127.392 78.9454 133.79 67.5253 138.087C66.6275 138.424 66.2163 138.965 66.4455 140.02C67.0105 142.611 68.0119 143.237 70.5671 142.359C79.093 139.419 87.104 135.354 94.8985 130.871C101.374 127.147 107.508 122.89 113.369 118.24C117.582 114.897 121.672 111.421 125.63 107.773C130.986 102.836 135.949 97.5566 140.365 91.7638C140.714 91.3073 141.301 90.8445 140.88 90.0921H140.877ZM103.744 5.31012C102.253 4.89141 100.822 4.71511 99.3686 4.5514C93.715 3.91546 88.1305 4.21139 82.6119 5.59976C81.2621 5.93977 80.4616 6.72053 79.9814 8.14669C78.8324 11.572 77.8907 15.0476 76.9647 18.5327C76.6696 19.644 76.9364 20.0596 78.0351 20.3461C83.3904 21.7345 88.8525 22.4775 94.3491 22.7891C98.5712 23.0252 102.822 22.8112 107.056 22.8615C108.409 22.8773 108.563 22.3043 108.155 21.2119C107.631 19.7952 107.154 18.3785 107.059 16.8327C106.956 15.1232 106.667 13.4263 106.469 11.7199C106.29 10.1804 104.919 9.17301 103.405 9.46894C102.997 9.54765 102.586 9.62636 102.175 9.64525C96.942 9.89396 91.7625 9.41228 86.652 8.3041C85.299 8.01131 84.0183 7.37852 82.703 6.89998C82.9949 6.6009 83.199 6.55997 83.3842 6.6072C89.135 8.02705 94.9612 8.67559 100.882 8.37021C101.368 8.34502 102.134 8.63781 102.266 8.01131C102.489 6.96924 103.449 6.4246 103.744 5.31012ZM101.324 30.4519C102.925 30.6597 105.254 30.2253 107.584 30.0395C109.903 29.8538 112.22 29.4886 114.483 28.8558C115.337 28.6165 115.701 28.1632 115.585 27.2785C115.453 26.2994 115.284 25.314 115.281 24.3286C115.281 23.2991 114.844 22.9938 113.931 23.2614C111.401 24.0012 108.764 23.9603 106.193 24.0264C101.566 24.1492 96.9232 24.3538 92.2898 23.8155C88.2058 23.3432 84.1313 22.8678 80.1446 21.8321C76.3211 20.8372 76.4216 20.8404 75.6148 24.6655C75.3072 26.1326 75.8189 26.5765 77.0306 26.9668C84.6869 29.4382 92.5786 30.2567 101.324 30.4519ZM99.6636 35.3947C101.776 35.1523 103.908 35.0735 106.045 35.1113C108.585 35.1554 110.942 34.5132 113.115 33.1846C113.341 33.0461 113.586 32.917 113.564 32.6085C113.539 32.2307 113.259 32.0575 112.933 32.0292C111.181 31.8812 109.511 31.0816 107.7 31.3807C106.727 31.5412 105.76 31.7018 104.758 31.7018C98.9762 31.7018 93.2127 31.4468 87.4713 30.7353C83.1581 30.2001 78.9988 29.1108 75.0498 27.2659C74.356 26.9417 73.4896 26.6803 74.0202 25.5659C74.1897 25.207 73.9417 24.9299 73.6215 24.8481C71.2609 24.2531 68.985 23.189 66.4612 23.466C65.0862 23.6171 64.6938 24.4955 65.4849 25.6446C65.6921 25.9437 65.9683 26.1955 66.2226 26.4568C69.5438 29.8506 73.9794 31.0847 78.2548 32.5203C85.1829 34.8437 92.4091 35.2593 99.6574 35.3947H99.6636ZM74.6574 38.3099C73.8946 38.4548 72.7645 38.1714 71.6093 38.4296C68.781 39.0592 66.5177 40.5987 64.4082 42.4939C60.9771 45.5792 58.9806 49.5082 57.6183 53.8244C57.5053 54.1865 57.2133 54.7689 57.9604 54.9515C58.5569 55.0963 58.7954 54.7374 58.9367 54.2589C59.0089 54.0133 59.0215 53.752 59.0968 53.5096C59.9067 50.9847 61.1215 48.7211 63.2436 47.0431C66.3858 44.556 69.8232 43.3125 73.9417 43.8823C76.1736 44.1908 78.2077 44.7544 80.0787 45.957C83.3998 48.0915 85.4811 51.0351 86.1686 54.9956C86.2313 55.3576 85.8358 56.8782 87.0977 56.4501C87.9327 56.1667 89.5525 56.428 89.2229 54.5863C88.909 52.8327 88.7991 51.0477 88.3094 49.313C86.5076 42.9158 82.637 37.8629 74.6543 38.3099H74.6574ZM40.0266 144.761C40.0612 144.113 39.8163 143.738 39.1916 143.593C38.432 143.417 37.6817 143.184 36.9158 143.039C33.8426 142.466 31.9497 143.738 31.2371 146.852C31.2026 147.006 31.1555 147.154 31.1241 147.308C30.9577 148.149 31.3564 148.612 32.1443 148.763C33.7798 149.081 35.4121 149.402 37.057 149.666C37.6629 149.764 38.3943 149.868 38.6643 149.081C39.154 147.651 39.5777 146.2 40.0266 144.758V144.761ZM59.0905 72.7107C56.4756 68.1237 55.4837 63.5682 55.9012 58.6885C55.9514 58.1155 56.3249 57.2529 55.1917 57.1143C54.1213 56.9853 53.8733 57.5992 53.7415 58.4901C53.3051 61.4085 53.3208 64.3396 53.8137 67.2265C54.0114 68.3882 53.6002 69.8584 54.8621 70.6927C56.0675 71.4923 57.3609 72.1409 59.0936 72.7076H59.0905V72.7107ZM87.1385 67.11C88.3879 69.2414 89.5871 71.3821 91.6589 72.8335C92.1674 73.1892 92.6132 73.46 93.2065 73.0287C94.6944 71.9457 96.0191 70.6958 97.077 69.1815C97.5416 68.5173 97.3909 68.0734 96.5182 68.1363C95.6926 68.1961 94.8702 68.3347 94.0509 68.4511C91.6181 68.7943 89.4615 67.7963 87.1385 67.11ZM36.2157 153.797C37.6472 154.045 37.6974 153.035 37.8418 152.065C37.9077 151.615 38.253 151.127 37.4808 150.985C35.6444 150.648 33.808 150.296 31.9654 149.984C31.2716 149.868 30.8165 150.239 30.8384 150.938C30.8573 151.59 30.2734 152.541 31.3313 152.814C32.9385 153.23 34.5865 153.479 36.2157 153.8V153.797ZM131.978 59.9604C134.222 59.5416 136.36 59.7305 138.482 59.6676C138.815 59.6581 139.311 59.8029 139.286 59.2394C139.273 58.9183 138.918 58.7546 138.586 58.7325C138.225 58.7105 137.857 58.7011 137.496 58.7137C134.75 58.8144 132.003 58.912 129.259 59.0411C128.939 59.0568 128.321 58.7798 128.405 59.4976C128.468 60.0391 128.974 60.0957 129.385 60.0044C130.298 59.8029 131.199 59.5479 131.981 59.9604H131.978ZM39.3737 176.75C38.8055 175.154 38.2844 173.536 37.6472 171.968C37.2862 171.077 36.3915 171.383 35.7103 171.443C35.2206 171.483 35.4624 171.956 35.5722 172.182C36.4386 173.989 37.8512 175.375 39.3768 176.75H39.3737ZM30.264 119.465C29.0209 121.027 28.3617 122.55 27.6146 124.018C27.4482 124.345 26.7042 124.82 27.5016 125.091C28.0226 125.267 28.9675 125.576 29.2092 124.619C29.611 123.023 29.8779 121.395 30.264 119.465ZM100.116 63.3604C99.9148 62.5513 99.8018 61.8021 99.5349 61.1095C99.2744 60.4294 98.5806 60.2248 97.9403 60.0328C97.6923 59.9604 97.4568 59.9887 97.3752 60.3539C97.2277 61.0433 97.664 61.4117 98.0878 61.7832C98.7031 62.3247 99.221 62.9827 100.113 63.3573H100.116V63.3604ZM54.093 55.2537C53.2455 55.2537 52.7746 55.2191 52.31 55.2632C51.9333 55.2978 51.7732 55.6032 51.8768 55.9432C51.9741 56.2612 52.2504 56.173 52.5203 56.1227C54.2877 55.8078 56.0079 56.3651 57.7564 56.4564C58.1582 56.4784 58.5412 56.5823 58.6196 56.1352C58.7013 55.6725 58.2586 55.5528 57.8976 55.5465C56.4976 55.5213 55.0944 55.5528 54.093 55.2537ZM85.5376 62.3782C86.5955 61.6352 87.4587 61.0465 88.3 60.4231C88.5731 60.2217 89.0409 59.9918 88.8337 59.5889C88.6139 59.1576 88.1085 59.3559 87.7287 59.4157C86.247 59.6487 85.9017 60.8356 85.5376 62.3782ZM204.56 76.5043C203.481 76.1265 202.784 76.8853 201.968 77.2127C201.61 77.3575 201.503 77.581 201.773 77.9273C202.021 78.2485 202.247 78.2264 202.545 77.9872C203.182 77.4803 204.005 77.2221 204.56 76.5012V76.5043ZM204.495 80.2696C203.892 80.0902 203.352 80.1783 202.787 80.4617C202.181 80.767 202.077 81.318 202.319 81.743C202.737 82.4702 203.069 81.6517 203.38 81.4943C203.867 81.2519 204.363 80.9213 204.491 80.2696H204.495ZM192.28 57.5173C191.169 56.8279 190.331 56.661 189.301 56.6767C189.998 57.8636 190.88 57.914 192.28 57.5173ZM204.441 83.8649C203.816 83.1377 203.229 83.1566 202.583 83.5218C201.949 83.8775 202.278 84.3529 202.379 84.9133C203.057 84.567 203.672 84.2553 204.441 83.8649ZM194.92 68.8793C195.218 68.8195 195.837 68.9989 195.768 68.5739C195.62 67.6798 194.635 67.7019 193.997 67.3524C193.658 67.1667 193.338 67.3304 193.407 67.7302C193.542 68.533 194.258 68.6621 194.923 68.8793H194.92ZM187.251 52.8611C188.337 53.475 188.611 53.3931 189.577 52.1024C188.702 52.2314 187.892 52.2598 187.251 52.8611ZM193.608 64.9598C193.423 65.1172 192.83 64.7929 192.855 65.3533C192.883 66.0302 193.501 66.0679 194.022 66.0648C194.358 66.0648 194.892 66.1529 194.876 65.6587C194.854 64.9566 194.226 64.9944 193.611 64.9598H193.608ZM203.983 86.925C203.481 86.5629 203.057 86.0435 202.376 86.352C202.278 86.3961 202.244 86.9281 202.366 87.0509C202.897 87.583 203.44 87.3783 203.983 86.925Z" fill="url(#paint0_linear_10_4216)"/>
<path d="M125.809 187.347C127.897 183.743 129.375 179.971 130.838 176.171C132.345 172.255 133.393 168.238 134.062 164.12C134.822 159.426 135.082 154.688 135.06 149.924C135.026 142.29 133.695 134.863 131.658 127.55C130.163 122.182 128.289 116.931 126.28 111.733C125.461 109.614 125.543 109.388 127.253 107.984C131.027 104.889 134.222 101.212 137.446 97.5755C139.031 95.7873 140.617 93.9739 141.888 91.9276C142.252 91.342 142.757 91.4553 143.272 91.5498C152.536 93.2278 161.639 92.5383 170.517 89.4468C172.582 88.729 174.62 87.9828 176.757 87.5263C179.57 86.9219 180.565 87.6963 180.537 90.4888C180.496 94.358 179.058 97.8462 177.351 101.196C175.929 103.982 174.255 106.642 172.353 109.148C171.898 109.747 171.421 110.109 170.658 110.033C169.481 109.917 168.536 110.433 167.66 111.148C162.509 115.344 156.727 118.373 150.439 120.457C148.358 121.146 146.455 122.321 144.424 123.02C142.557 123.662 142.886 124.613 143.203 125.859C143.652 127.629 143.523 129.486 144.07 131.252C144.393 132.294 143.376 133.125 143.47 134.252C143.731 137.375 143.508 140.511 143.696 143.653C143.847 146.146 143.106 148.693 142.739 151.212C142.252 154.552 141.954 157.996 140.607 161.079C139.465 163.688 139.841 166.739 137.895 169.094C137.025 170.145 136.981 171.688 137.342 173.01C137.625 174.046 137.201 174.304 136.413 174.562C134.492 175.198 133.528 176.379 132.992 178.526C132.37 181.007 130.951 183.349 129.567 185.553C128.842 186.705 127.134 186.746 125.816 187.347H125.809Z" fill="url(#paint1_linear_10_4216)"/>
<path d="M58.2084 167.309C52.2284 167.388 46.4399 166.009 40.6011 164.995C34.461 163.931 28.459 162.316 22.8839 159.571C20.2941 158.296 17.0106 157.326 16.4613 153.551C16.2258 151.939 16.4048 150.415 16.7658 148.898C17.2994 146.663 17.9775 144.462 18.5425 142.233C18.712 141.569 18.8941 141.44 19.456 141.887C22.2781 144.122 25.5019 145.605 28.8702 146.764C30.4366 147.302 29.8653 148.586 30.0756 149.6C30.1227 149.824 29.9344 150.094 29.8622 150.346C29.0774 153.091 29.8088 154.13 32.6183 154.395C33.8049 154.508 34.9758 154.804 36.1624 154.943C37.4369 155.091 38.3409 154.722 38.7113 153.274C39.7253 149.304 39.7504 149.503 43.7999 149.883C48.0596 150.286 52.3665 150.123 56.5761 149.257C58.9304 148.772 60.1735 146.924 60.9708 144.742C61.9942 141.944 62.7005 139.041 63.9687 136.321C64.5463 135.084 65.1992 134.592 66.502 135.187C66.8441 135.342 67.2993 135.669 67.6383 135.197C67.9962 134.7 67.5756 134.287 67.315 133.938C66.1535 132.379 64.1382 132.914 63.1745 135.024C62.1543 137.259 61.178 139.516 60.4811 141.881C60.3336 142.381 60.1044 142.863 60.0009 143.373C59.3008 146.849 57.025 148.224 53.6693 148.438C49.8678 148.678 46.0789 148.895 42.2774 148.438C40.4944 148.224 40.3217 148.007 40.937 146.291C41.9384 143.499 41.6747 142.954 38.7647 142.268C37.0445 141.862 35.2897 141.607 33.5506 141.282C32.7941 141.141 32.1977 141.386 31.8367 142.07C31.4945 142.718 31.1555 143.373 30.8949 144.056C30.1824 145.929 30.2294 145.847 28.2455 145.183C25.0468 144.113 22.1148 142.62 19.6255 140.303C18.9286 139.655 18.6681 138.906 18.9035 138.049C19.7071 135.137 20.4291 132.212 21.9704 129.54C23.4081 127.049 25.3167 125.667 28.1984 126.394C30.2546 126.914 32.3389 126.709 34.3951 126.892C39.0567 127.301 43.69 127.871 48.3171 128.538C54.1841 129.382 59.9757 130.61 65.7423 131.986C67.5442 132.414 68.6742 133.428 69.3962 135.08C69.685 135.742 69.6913 136.151 68.963 136.409C68.5204 136.566 68.0935 136.771 67.6477 136.906C65.5414 137.546 64.8916 138.745 65.4441 141.005C65.9495 143.064 67.5881 144.406 69.3962 143.924C70.8277 143.543 70.7994 144.248 70.6739 145.167C69.8043 151.48 68.7496 157.754 66.5993 163.786C65.5602 166.698 64.9042 167.164 61.5014 167.309C60.4058 167.356 59.3071 167.315 58.2084 167.315V167.309ZM57.9133 162.69C59.7121 160.207 62.6157 146.178 61.7242 144.317C60.7699 150.642 59.5834 156.715 57.9133 162.69ZM63.4602 166.487C61.9879 165.924 60.5188 165.36 59.0466 164.793C60.1829 166.232 61.7399 166.56 63.4602 166.487Z" fill="url(#paint2_linear_10_4216)"/>
<path d="M2.57384 69.8899C2.56443 64.6985 3.86402 63.8642 7.80048 65.9231C11.0809 67.6389 14.2985 69.4964 17.4721 71.4073C21.8857 74.0676 26.6854 75.7677 31.5762 77.2253C35.2709 78.324 39.0441 79.1016 42.8864 79.492C43.5111 79.555 43.9725 79.64 43.8533 80.5183C43.4734 83.3108 44.8954 85.4926 46.6345 87.3721C48.8664 89.7836 51.4374 91.8614 54.2469 93.5898C55.1823 94.1659 55.2043 94.528 54.4886 95.3308C48.8664 101.64 45.1591 109.152 41.4518 116.635C40.2087 119.141 39.3423 121.842 38.4414 124.502C38.0773 125.576 37.5154 125.96 36.4983 125.749C34.9507 125.431 33.3906 125.4 31.8273 125.453C30.7663 125.491 30.5936 125.078 30.8793 124.131C32.2699 119.497 33.6386 114.856 34.9633 110.206C35.1391 109.592 36.1436 108.084 34.0404 108.96C33.5632 109.158 33.1959 108.566 32.9605 108.198C31.9654 106.649 30.534 105.707 28.9613 104.798C27.037 103.683 25.2194 102.342 23.5086 100.916C21.0413 98.8537 18.2977 97.1064 16.1662 94.6571C14.7662 93.0483 13.0836 91.7072 11.8311 89.9599C10.8423 88.5841 9.45793 87.5704 8.13636 86.6039C6.43496 85.3603 5.72866 83.6068 5.05375 81.8406C3.49047 77.7384 2.60837 73.4757 2.56757 69.8867H2.57384V69.8899Z" fill="url(#paint3_linear_10_4216)"/>
<path d="M138.843 175.882C140.033 176.826 139.882 178.243 140.105 179.521C140.309 180.683 140.318 181.866 141.197 182.849C141.74 183.456 142.302 183.305 142.896 183.245C143.166 183.217 143.429 182.896 143.153 182.694C142.051 181.885 143.118 181.577 143.505 181.237C145.51 179.467 147.614 177.827 150.185 176.943C151.921 176.344 152.231 176.653 152.347 178.501C152.451 180.144 151.83 181.58 151.349 183.063C150.574 185.462 151.199 186.359 153.663 186.151C154.903 186.044 156.118 185.66 157.358 185.55C158.874 185.414 159.297 186.072 158.619 187.436C157.649 189.384 156.124 190.927 154.645 192.46C150.794 196.455 146.895 200.406 142.911 204.269C140.13 206.967 137.088 209.363 133.428 210.808C129.997 212.165 127.162 211.246 126.123 208.312C125.59 206.807 125.426 205.239 125.772 203.567C126.45 200.299 127.363 197.123 128.65 194.05C129.586 194.481 130.612 194.891 131.111 193.575C133.397 187.546 135.864 181.602 138.843 175.882Z" fill="url(#paint4_linear_10_4216)"/>
<path d="M39.1633 187.725C39.3517 187.905 39.5494 188.072 39.7252 188.264C40.0831 188.648 40.5226 188.884 40.9495 188.5C41.3701 188.122 40.9432 187.713 40.758 187.382C40.4535 186.837 40.149 186.252 39.7001 185.839C38.3723 184.621 38.3534 183.422 39.2732 181.898C39.8006 181.023 39.9607 180.708 40.8742 181.492C43.172 183.469 45.6613 185.194 48.3641 186.586C49.1363 186.985 49.1489 187.385 48.6717 188.049C47.0739 190.285 46.1322 192.847 45.1496 195.379C44.6662 196.625 44.9393 197.973 44.9487 199.273C44.9581 200.444 44.8357 201.571 44.3523 202.638C43.4733 204.578 42.0702 205.176 40.0203 204.562C38.5826 204.131 37.4431 203.243 36.2753 202.361C31.4568 198.722 26.5441 195.221 21.1856 192.404C18.8878 191.195 16.6276 189.913 14.3392 188.689C12.9862 187.964 11.8122 187.023 10.8045 185.874C10.1453 185.122 10.3023 184.615 11.2283 184.215C12.7979 183.538 14.4867 183.579 16.1222 183.362C17.0985 183.233 18.0841 183.17 19.0636 183.012C20.6111 182.767 20.8591 182.329 19.9739 180.979C18.9945 179.486 18.1532 177.944 17.4689 176.288C16.4518 173.829 16.7626 173.253 19.3963 173.218C20.0021 173.212 20.6582 173.02 21.1542 173.58C21.1982 174.748 22.1242 175.277 22.9184 175.775C28.2078 179.068 33.0012 183 37.6409 187.133C38.1086 187.552 38.5763 187.738 39.1665 187.725H39.1633Z" fill="url(#paint5_linear_10_4216)"/>
<path d="M84.2913 35.6213C82.7657 36.7106 83.4626 37.0065 84.5236 37.4001C87.7287 38.5901 91.0718 38.8892 94.4307 39.2638C96.7568 39.522 99.0546 40.0005 101.415 39.8462C103.98 39.6794 106.51 39.5188 109.037 38.801C111.963 37.973 115.004 37.4725 118.078 37.3245C119.945 37.2332 121.757 36.6571 123.646 36.6854C124.488 36.698 125.05 36.9373 125.646 37.611C126.911 39.0434 128.346 40.3248 129.74 41.6407C130.512 42.3711 131.111 43.1236 131.35 44.2412C131.827 46.467 132.577 48.5763 133.707 50.6258C134.753 52.5147 134.916 54.8035 134.721 57.0356C134.643 57.9455 133.968 57.7125 133.456 57.8353C132.558 58.0525 132.668 57.2088 132.612 56.853C132.282 54.7217 131.796 52.6281 130.86 50.6982C128.239 45.2801 124.29 41.0992 118.326 39.7738C112.217 38.4169 106.736 40.0131 102.429 44.9338C99.8111 47.9215 98.1349 51.3562 97.1711 55.1467C96.8918 56.2517 96.2702 56.4784 95.5294 56.1321C94.2706 55.5433 92.993 55.5402 91.6965 55.6126C90.4723 55.6819 90.1929 55.0459 90.1364 53.9976C89.9009 49.5019 88.6484 45.3557 85.7196 41.8485C82.2886 37.7432 77.7557 36.2793 72.6797 37.2112C65.1521 38.5901 60.6601 43.6839 57.8411 50.4967C57.4016 51.5577 57.1066 52.6785 56.7267 53.7646C56.5949 54.1424 56.5321 54.5454 55.989 54.6618C54.8087 54.9137 54.3504 54.5139 54.6832 53.3238C56.1397 48.1324 58.5223 43.3975 61.6143 38.9868C63.3471 36.5154 65.4629 34.4376 67.632 32.3912C69.55 30.5841 72.9591 31.2516 74.1237 33.6316C74.6385 34.6831 77.9032 36.0274 79.1055 35.338C80.9293 34.2896 82.3828 35.3726 84.2913 35.6245V35.6213Z" fill="url(#paint6_linear_10_4216)"/>
<path d="M140.874 90.0828C141.295 90.832 140.708 91.2948 140.359 91.7545C135.946 97.5472 130.979 102.827 125.624 107.763C121.666 111.412 117.575 114.888 113.363 118.231C107.502 122.881 101.368 127.141 94.8922 130.862C87.0977 135.345 79.0867 139.409 70.5608 142.35C68.0087 143.231 67.0042 142.605 66.4392 140.011C66.21 138.959 66.6213 138.414 67.519 138.078C78.9392 133.777 89.248 127.383 99.447 120.835C108.149 115.25 116.455 109.095 124.036 102.018C125.985 100.198 128.041 98.6491 130.54 97.5661C134.012 96.0644 136.906 93.6088 139.681 91.0524C140.052 90.7093 140.293 90.1898 140.871 90.0828H140.874Z" fill="url(#paint7_linear_10_4216)"/>
<path d="M103.741 5.30381C103.446 6.41829 102.483 6.96293 102.263 8.005C102.131 8.6315 101.365 8.33871 100.878 8.3639C94.958 8.66928 89.1287 8.02074 83.381 6.60089C83.1958 6.55681 82.9917 6.59459 82.6998 6.89367C84.0151 7.3722 85.2958 8.005 86.6488 8.29778C91.7593 9.40596 96.9388 9.89079 102.172 9.63893C102.583 9.62004 102.997 9.54134 103.402 9.46263C104.912 9.1667 106.287 10.1741 106.466 11.7136C106.664 13.4168 106.953 15.1169 107.056 16.8264C107.15 18.3721 107.628 19.7888 108.152 21.2056C108.557 22.298 108.406 22.871 107.053 22.8552C102.815 22.808 98.568 23.0221 94.3459 22.7828C88.8493 22.4743 83.3873 21.7313 78.0319 20.3398C76.9332 20.0564 76.6664 19.6377 76.9615 18.5264C77.8907 15.0413 78.8324 11.5657 79.9782 8.14037C80.4585 6.71107 81.2589 5.93031 82.6088 5.59345C88.1273 4.20508 93.7118 3.90914 99.3654 4.54509C100.819 4.70879 102.25 4.8851 103.741 5.30381Z" fill="url(#paint8_linear_10_4216)"/>
<path d="M106.51 102.758C104.834 103.456 103.022 103.23 101.296 103.356C98.1003 103.589 94.8733 103.393 91.6589 103.375C91.571 97.2355 92.1611 91.1028 91.8974 84.9605C95.6298 84.5922 99.3654 84.2302 103.098 83.8555C103.704 83.7957 104.306 83.6887 104.912 83.6068C105.264 86.4812 106.055 89.2799 106.319 92.1795C106.639 95.7086 107.119 99.2189 106.507 102.758H106.51Z" fill="url(#paint9_linear_10_4216)"/>
<path d="M67.4908 78.5948C70.6864 79.7849 73.8914 80.9528 77.0714 82.1838C77.8687 82.4923 78.8418 82.357 79.4697 83.1031C77.244 88.9557 76.996 95.0538 77.2472 101.212C75.8126 101.265 74.5067 100.677 73.1914 100.274C69.685 99.2 66.1127 98.2776 62.8669 96.4799C62.3081 89.9725 63.8306 84.0035 67.4908 78.5917V78.5948Z" fill="url(#paint10_linear_10_4216)"/>
<path d="M101.321 30.4456C92.5755 30.2504 84.6837 29.4319 77.0274 26.9605C75.8157 26.5701 75.304 26.1262 75.6117 24.6592C76.4184 20.8341 76.318 20.8309 80.1414 21.8257C84.1281 22.8647 88.2027 23.3369 92.2867 23.8091C96.92 24.3475 101.563 24.1429 106.19 24.0201C108.761 23.9508 111.398 23.9949 113.928 23.255C114.841 22.9874 115.274 23.2897 115.278 24.3223C115.278 25.3046 115.45 26.2899 115.582 27.2722C115.701 28.1569 115.337 28.6102 114.48 28.8495C112.217 29.4854 109.9 29.8506 107.58 30.0332C105.251 30.2189 102.922 30.6534 101.321 30.4456Z" fill="url(#paint11_linear_10_4216)"/>
<path d="M119.657 100.264C119.65 96.461 119.663 92.658 118.778 88.9179C118.184 86.4182 117.299 84.0412 116.025 81.8123C120.266 80.7293 124.61 80.0367 128.751 78.557C128.522 79.3661 129.105 79.9328 129.388 80.5719C131.4 85.1211 132.797 89.7868 132.27 94.846C130.157 96.7003 127.548 97.629 125.009 98.6365C123.282 99.3228 121.446 99.732 119.66 100.264H119.657Z" fill="url(#paint12_linear_10_4216)"/>
<path d="M99.6605 35.3852C92.4091 35.2499 85.1829 34.8343 78.258 32.5109C73.9825 31.0753 69.5438 29.8412 66.2257 26.4474C65.9714 26.1861 65.6921 25.9342 65.488 25.6352C64.6938 24.4829 65.0862 23.6045 66.4643 23.4566C68.9881 23.1827 71.264 24.2468 73.6246 24.8387C73.9448 24.9205 74.1928 25.1944 74.0233 25.5565C73.4959 26.6709 74.3592 26.9322 75.0529 27.2565C78.9988 29.1014 83.1613 30.1907 87.4744 30.7259C93.2159 31.4374 98.9793 31.6892 104.762 31.6924C105.763 31.6924 106.73 31.5318 107.703 31.3712C109.517 31.0722 111.184 31.8718 112.936 32.0198C113.262 32.0481 113.542 32.2213 113.567 32.5991C113.586 32.9044 113.344 33.0367 113.118 33.1752C110.946 34.5037 108.588 35.146 106.049 35.1019C103.911 35.0641 101.779 35.1428 99.6668 35.3852H99.6605Z" fill="url(#paint13_linear_10_4216)"/>
<path d="M152.611 70.0662C155.414 66.8109 158.262 63.5997 161.646 60.9237C161.812 61.5848 162.399 61.8997 162.826 62.3373C166.006 65.5894 168.922 69.0336 170.846 73.2176C170.9 73.567 170.762 73.8504 170.473 74.0109C167.076 75.8873 164.191 78.5349 160.829 80.4617C159.68 77.4866 157.618 75.1223 155.596 72.7485C154.727 71.7316 153.967 70.5573 152.611 70.0693V70.0662Z" fill="url(#paint14_linear_10_4216)"/>
<path d="M179.859 69.7105C178.305 64.2357 175.759 59.293 172.039 54.9736C175.203 53.2358 178.653 52.4298 182.175 51.8474C181.887 52.3039 182.188 52.6345 182.414 52.9808C184.831 56.6548 186.689 60.6058 188.143 64.752C188.485 65.728 188.943 66.6913 188.764 67.7806C187.659 68.5582 186.328 68.3347 185.107 68.6118C183.365 69.0053 181.607 69.3485 179.859 69.7137V69.7105Z" fill="url(#paint15_linear_10_4216)"/>
<path d="M197.614 92.9413C194.506 92.9571 191.398 92.9697 188.29 92.9854C187.681 92.0157 187.998 90.9611 188.055 89.9505C188.287 85.8546 187.493 81.9162 186.385 78.0155C189.901 77.8802 193.379 77.1781 196.914 77.3387C197.001 78.302 196.979 79.2937 197.193 80.2287C198.154 84.4442 197.84 88.6912 197.614 92.9413Z" fill="url(#paint16_linear_10_4216)"/>
<path d="M56.9057 73.545C53.4809 78.4468 52.1844 83.8523 53.0854 89.7805C53.123 90.0229 53.0414 90.2842 53.0163 90.5392C49.6857 88.6471 46.9296 86.1946 45.495 82.5332C44.7385 80.6002 45.5421 78.9631 46.7381 77.4709C47.1053 77.0144 47.5009 76.6933 47.9278 77.4457C48.0879 77.729 48.3547 77.9431 48.7063 77.7762C49.1269 77.5748 49.0736 77.1372 48.9982 76.8066C48.6467 75.286 48.2386 73.7748 47.865 72.2574C47.2686 69.8269 48.8413 67.3304 51.2992 67.0313C52.8123 66.8456 52.2096 68.3315 52.3885 68.9864C52.7463 70.2866 51.4311 69.0116 51.114 69.8458C52.7683 71.3664 55.1352 72.0213 56.9088 73.5387V73.545H56.9057Z" fill="url(#paint17_linear_10_4216)"/>
<path d="M146.063 75.9818C148.417 78.9789 150.191 82.272 151.148 85.9869C149.171 87.6807 146.672 88.0301 144.283 88.6566C143.834 88.7731 143.366 88.8612 142.905 88.8864C142.142 88.9242 141.536 88.6944 141.621 87.7562C141.791 85.8263 141.266 84.0633 140.51 82.3098C139.841 80.7545 141.069 77.9778 142.644 77.4143C143.812 76.9955 144.795 76.1455 146.063 75.985V75.9818Z" fill="url(#paint18_linear_10_4216)"/>
<path d="M109.95 46.933C117.575 44.6851 126.18 49.1903 127.297 57.6905C128.299 65.2998 122.658 71.3003 115.855 72.3896C107.96 73.6521 99.1739 66.685 100.47 57.0514C100.574 56.2927 100.863 55.5403 101.349 54.9012C101.739 55.3545 102.175 55.2915 102.636 55.0271C102.203 56.9947 101.484 58.9341 101.889 61.0024C103.402 68.7156 112.167 73.8567 119.776 69.6507C127.42 65.4257 128.145 55.3262 120.975 49.9679C117.786 47.5847 114.135 47.4461 110.377 48.0286C110.902 47.4052 110.6 47.103 109.954 46.9361L109.95 46.933Z" fill="url(#paint19_linear_10_4216)"/>
<path d="M68.4733 45.1385C73.8695 43.0764 81.1742 45.7996 83.8267 51.0288C86.2031 55.7134 86.2188 60.2311 83.3025 64.4781C80.3926 68.7188 76.0229 70.7147 70.9658 69.9812C64.7911 69.084 60.7385 65.007 59.7058 59.3842C59.4389 57.9266 58.6479 56.3777 59.869 54.9452C60.0636 55.3325 59.7214 55.9212 60.2457 56.1542C60.5973 56.3116 60.7134 55.8866 60.9143 55.6945C60.9457 56.1069 61.0242 56.5225 61.0022 56.9349C60.6632 63.8925 68.2128 70.2897 75.1596 68.4071C79.9342 67.1132 83.6258 63.3636 84.0371 58.1124C84.3667 53.9189 82.3388 49.7884 77.8342 47.1628C75.0874 45.5635 72.0582 45.6989 69.0321 46.1679C68.8469 45.8248 68.6617 45.4816 68.4765 45.1385H68.4733Z" fill="url(#paint20_linear_10_4216)"/>
<path d="M176.829 78.9065C177.266 81.1827 177.702 83.4588 178.142 85.735C174.623 85.8358 171.603 87.6995 168.291 88.5369C168.093 88.5873 167.886 88.5968 167.682 88.6251C167.635 88.2694 167.588 87.9104 167.541 87.5516C167.239 85.2344 165.956 83.2007 165.613 80.8962C168.1 79.9863 170.702 79.5897 173.298 79.1898C174.463 79.0104 175.652 78.9946 176.829 78.9065Z" fill="url(#paint21_linear_10_4216)"/>
<path d="M93.0149 60.3886C93.6804 60.0643 94.2518 60.3823 94.7729 60.716C96.7411 61.9847 98.5367 63.4801 100.213 65.1172C100.813 65.7028 101.174 66.1687 99.8928 66.3608C97.5416 66.7134 95.2186 67.2926 92.8611 67.5508C90.6606 67.7932 88.7395 66.6 86.7555 65.8571C86.1183 65.6178 84.9882 65.5926 84.9882 64.8528C84.9882 64.1129 85.8389 63.499 86.5703 63.0677C86.9659 62.8347 87.2861 62.4381 87.8134 62.5042C88.0049 62.9796 88.3408 63.4203 88.074 63.9838C87.7789 64.6166 87.9264 65.0826 88.6013 65.3659C89.2323 65.6304 89.8539 65.7311 90.2714 65.0857C91.2539 63.562 92.5535 62.2177 93.0118 60.3823V60.3886H93.0149Z" fill="url(#paint22_linear_10_4216)"/>
<path d="M40.0203 144.752C39.5683 146.194 39.1477 147.648 38.658 149.074C38.388 149.861 37.6566 149.758 37.0507 149.66C35.409 149.392 33.7735 149.071 32.138 148.756C31.3501 148.602 30.9514 148.142 31.1178 147.302C31.1492 147.148 31.1963 146.997 31.2308 146.845C31.9434 143.735 33.8363 142.463 36.9095 143.033C37.6754 143.175 38.4257 143.411 39.1853 143.587C39.81 143.732 40.058 144.106 40.0203 144.755V144.752Z" fill="url(#paint23_linear_10_4216)"/>
<path d="M59.0842 72.7013C57.3514 72.1346 56.0613 71.4829 54.8527 70.6864C53.5908 69.8521 54.002 68.3819 53.8042 67.2202C53.3114 64.3333 53.2957 61.4023 53.732 58.4839C53.8639 57.5929 54.1119 56.979 55.1823 57.1081C56.3155 57.2435 55.9388 58.1092 55.8918 58.6822C55.4742 63.5588 56.4662 68.1175 59.0811 72.7044H59.0842V72.7013Z" fill="url(#paint24_linear_10_4216)"/>
<path d="M156.701 85.1526C157.514 86.1789 157.684 87.4288 157.744 88.6535C157.775 89.2894 157.891 89.8592 158.083 90.4416C153.612 91.15 149.168 90.9265 144.704 90.0953C148.791 89.1005 152.473 87.2367 156.086 85.1998C156.249 85.1085 156.494 85.1652 156.701 85.1526Z" fill="url(#paint25_linear_10_4216)"/>
<path d="M127.796 77.2851C129.576 75.1853 130.779 72.7989 131.639 70.1701C132.477 67.6106 132.574 64.9 133.437 62.3279C134.495 63.8863 134.257 65.6493 133.98 67.2423C133.569 69.6129 133.883 71.9867 133.635 74.3478C133.572 74.9586 133.497 75.4214 132.995 75.582C131.265 76.136 129.667 77.1026 127.825 77.3166L127.793 77.2851H127.796Z" fill="url(#paint26_linear_10_4216)"/>
<path d="M87.1323 67.1006C89.4552 67.7869 91.6118 68.7817 94.0446 68.4417C94.8671 68.3252 95.6864 68.1867 96.512 68.1269C97.3846 68.0639 97.5353 68.5078 97.0707 69.1721C96.0128 70.6833 94.6881 71.9363 93.2002 73.0193C92.6069 73.4506 92.1611 73.183 91.6526 72.8241C89.5808 71.3727 88.3816 69.2319 87.1323 67.1006Z" fill="url(#paint27_linear_10_4216)"/>
<path d="M128.5 188.456C128.195 190.864 126.889 192.964 126.4 195.322C126.18 196.389 125.825 197.428 125.423 198.883C124.864 195.977 123.847 193.641 122.413 191.49C122.124 191.059 122.155 190.76 122.72 190.546C124.616 189.831 126.497 189.076 128.383 188.336C128.421 188.377 128.459 188.415 128.5 188.456Z" fill="url(#paint28_linear_10_4216)"/>
<path d="M138.334 81.4156C137.625 79.6589 136.919 77.9022 136.209 76.1455C136.237 75.5725 137.86 75.2262 136.42 74.351C136.225 74.2345 136.69 72.8556 137.355 72.3802C138.005 71.9142 138.501 72.4431 138.981 72.8556C139.891 73.6395 140.186 74.6375 140.092 75.796C139.935 77.8046 139.725 79.7943 138.331 81.4125H138.334V81.4156Z" fill="url(#paint29_linear_10_4216)"/>
<path d="M36.2095 153.787C34.5803 153.466 32.9291 153.217 31.325 152.802C30.2671 152.528 30.851 151.577 30.8321 150.925C30.8133 150.227 31.2685 149.855 31.9591 149.972C33.8018 150.283 35.635 150.636 37.4745 150.973C38.2467 151.114 37.9046 151.602 37.8355 152.053C37.6911 153.022 37.6409 154.033 36.2095 153.784V153.787Z" fill="url(#paint30_linear_10_4216)"/>
<path d="M90.5665 73.4663C92.6257 75.0467 94.0729 73.8378 95.5043 72.4085C96.7223 71.187 97.89 69.9403 98.6937 68.385C99.1551 67.4941 99.9493 67.2454 100.907 67.2328C100.963 68.13 100.326 68.533 99.9242 69.0241C98.3421 70.9666 96.6501 72.802 94.5312 74.1872C92.9888 75.1968 91.6149 74.9953 90.4095 73.5828C90.4566 73.5356 90.51 73.4946 90.5728 73.4631H90.5665V73.4663Z" fill="url(#paint31_linear_10_4216)"/>
<path d="M98.2887 56.8971C98.8098 57.0765 99.334 57.256 99.8551 57.4354C99.8457 59.7683 99.8363 59.7935 97.6483 59.0253C95.5733 58.2949 93.4387 58.0777 91.2571 58.1375C90.6951 58.1532 90.1332 58.0588 89.5682 58.0147C89.518 57.2056 90.1615 57.4449 90.5445 57.4166C92.249 57.2875 93.9473 57.3378 95.611 57.8006C96.1321 57.9455 96.6469 58.1595 96.6814 57.3001C97.1743 57.001 97.8555 57.4575 98.2887 56.9002V56.8971Z" fill="url(#paint32_linear_10_4216)"/>
<path d="M131.968 59.9478C131.187 59.5385 130.289 59.7904 129.372 59.9919C128.964 60.0832 128.456 60.0234 128.393 59.485C128.308 58.7672 128.926 59.0411 129.247 59.0285C131.99 58.8995 134.737 58.8019 137.484 58.7011C137.848 58.6885 138.212 58.7011 138.573 58.72C138.906 58.742 139.26 58.9026 139.273 59.2269C139.298 59.7873 138.802 59.6456 138.469 59.655C136.344 59.718 134.21 59.5291 131.965 59.9478H131.968Z" fill="url(#paint33_linear_10_4216)"/>
<path d="M39.3674 176.741C37.8418 175.365 36.4292 173.98 35.5628 172.173C35.4529 171.946 35.2112 171.474 35.7009 171.433C36.3821 171.373 37.2767 171.071 37.6377 171.959C38.275 173.527 38.7961 175.145 39.3643 176.741H39.3674Z" fill="url(#paint34_linear_10_4216)"/>
<path d="M138.818 89.5821C138.695 87.6995 138.573 85.82 138.454 83.9373C139.053 83.2321 139.443 83.1597 139.822 84.1892C140.774 86.7707 140.513 88.3921 138.818 89.5821Z" fill="url(#paint35_linear_10_4216)"/>
<path d="M30.2576 119.453C29.8715 121.383 29.6047 123.01 29.2029 124.606C28.9612 125.567 28.0194 125.258 27.4952 125.079C26.6947 124.808 27.4387 124.332 27.6082 124.005C28.3585 122.538 29.0177 121.014 30.2576 119.453Z" fill="url(#paint36_linear_10_4216)"/>
<path d="M90.4032 73.586C87.8323 71.4735 86.0744 68.7156 84.4797 65.8256C86.9 68.0482 88.5292 70.9226 90.5633 73.4663C90.5037 73.4978 90.4503 73.5387 90.4032 73.586Z" fill="url(#paint37_linear_10_4216)"/>
<path d="M54.0867 55.2444C55.0849 55.5435 56.4881 55.5151 57.8913 55.5372C58.2523 55.5435 58.6949 55.6631 58.6133 56.1259C58.5348 56.5729 58.1519 56.469 57.7501 56.447C56.0016 56.3557 54.2813 55.7985 52.514 56.1133C52.244 56.1605 51.9678 56.2518 51.8705 55.9338C51.7669 55.5938 51.927 55.2885 52.3037 55.2538C52.7683 55.2097 53.2391 55.2444 54.0867 55.2444Z" fill="url(#paint38_linear_10_4216)"/>
<path d="M194.914 68.8699C194.248 68.6558 193.536 68.5267 193.398 67.7208C193.329 67.3178 193.649 67.1572 193.988 67.343C194.625 67.6924 195.614 67.6704 195.758 68.5645C195.827 68.9895 195.209 68.8132 194.911 68.8699H194.914Z" fill="url(#paint39_linear_10_4216)"/>
<path d="M193.599 64.9535C194.214 64.9881 194.842 64.9535 194.864 65.6524C194.879 66.1467 194.346 66.0585 194.01 66.0585C193.489 66.0585 192.873 66.0239 192.842 65.347C192.817 64.7866 193.41 65.1078 193.595 64.9535H193.599Z" fill="url(#paint40_linear_10_4216)"/>
<path d="M127.828 77.3166L127.674 77.4426C127.715 77.389 127.756 77.3387 127.8 77.2852L127.831 77.3166H127.828Z" fill="url(#paint41_linear_10_4216)"/>
<path d="M88.1368 62.1799C88.1807 62.3373 88.187 62.438 88.0018 62.2774L88.0206 62.1704L88.1368 62.1799Z" fill="url(#paint42_linear_10_4216)"/>
<path d="M128.387 188.336C128.462 188.229 128.534 188.09 128.656 188.282C128.669 188.301 128.556 188.396 128.503 188.459C128.465 188.418 128.427 188.38 128.387 188.339V188.336Z" fill="url(#paint43_linear_10_4216)"/>
<path d="M57.9133 162.69C59.5833 156.715 60.7699 150.642 61.7242 144.317C62.6157 146.178 59.712 160.207 57.9133 162.69Z" fill="url(#paint44_linear_10_4216)"/>
<path d="M63.4602 166.487C61.7399 166.56 60.1829 166.232 59.0466 164.793C60.5188 165.357 61.9879 165.921 63.4602 166.487Z" fill="url(#paint45_linear_10_4216)"/>
<path d="M102.633 55.024C103.132 53.771 103.644 52.5306 104.868 51.7813C104.887 51.9041 104.906 52.0237 104.925 52.1465C103.343 54.9862 101.82 57.8227 102.765 61.2826C103.487 63.9335 104.63 66.2883 106.937 67.916C109.834 69.9623 112.961 70.9131 116.524 70.0599C123.668 68.3504 126.902 61.4936 124.155 54.9767C121.741 49.2438 115.78 47.591 110.403 48.7495C109.373 48.9699 108.419 49.5334 107.43 49.9396C107.314 49.8608 107.197 49.7821 107.081 49.7034C108.011 48.8156 109.229 48.4977 110.371 48.0254C114.129 47.443 117.783 47.5815 120.969 49.9647C128.139 55.323 127.413 65.4226 119.77 69.6475C112.16 73.8536 103.396 68.7125 101.883 60.9993C101.478 58.9309 102.197 56.9916 102.63 55.024H102.633Z" fill="url(#paint46_linear_10_4216)"/>
<path d="M64.7283 49.2879C64.1476 48.8156 64.7126 48.5953 64.97 48.3906C66.1943 47.4147 67.5316 46.6371 69.0321 46.1648C72.0582 45.6926 75.0874 45.5604 77.8342 47.1597C82.3388 49.7853 84.3667 53.9158 84.0371 58.1092C83.6258 63.3605 79.9342 67.11 75.1596 68.404C68.2128 70.2866 60.6663 63.8862 61.0022 56.9318C61.021 56.5194 60.9457 56.1038 60.9143 55.6914C61.1905 53.3995 62.126 51.4035 63.6453 49.6877C63.9027 49.3981 64.0942 48.5795 64.7786 49.2406C64.5368 49.6216 64.3328 50.034 64.0503 50.3772C61.7713 53.1539 60.9394 56.3431 61.9816 59.7526C64.4427 67.8089 73.5995 70.6172 80.0253 64.9535C84.7967 60.7443 84.4891 52.688 78.9391 48.7558C75.1094 46.0389 70.9532 45.9381 66.706 47.9719C65.9589 48.3308 65.6732 49.2973 64.7283 49.2879Z" fill="url(#paint47_linear_10_4216)"/>
<path d="M105.823 50.7046C106.093 50.1789 106.538 49.8798 107.085 49.7003C107.201 49.779 107.317 49.8577 107.43 49.9364C107.182 50.4811 106.739 50.7644 106.174 50.8778C106.058 50.8179 105.942 50.7613 105.823 50.7015V50.7046Z" fill="url(#paint48_linear_10_4216)"/>
<path d="M105.436 51.0635C105.465 50.8368 105.612 50.7361 105.823 50.7078C105.939 50.7676 106.055 50.8242 106.174 50.8841C106.071 50.988 105.967 51.095 105.863 51.1989C105.722 51.1548 105.581 51.1076 105.44 51.0635H105.436Z" fill="url(#paint49_linear_10_4216)"/>
<path d="M105.148 51.3783C105.148 51.1831 105.251 51.0823 105.44 51.0603C105.581 51.1044 105.722 51.1516 105.863 51.1957C105.76 51.2996 105.653 51.4035 105.549 51.5105C105.418 51.4664 105.283 51.4223 105.151 51.3783H105.148Z" fill="url(#paint50_linear_10_4216)"/>
<path d="M104.878 51.7781C104.821 51.5451 104.928 51.4255 105.145 51.3751C105.276 51.4192 105.411 51.4633 105.543 51.5073C105.44 51.6144 105.336 51.7183 105.232 51.8253L104.875 51.7749H104.878V51.7781Z" fill="url(#paint51_linear_10_4216)"/>
<path d="M104.868 51.7812H104.878C104.997 51.797 105.116 51.8127 105.236 51.8316C105.132 51.9355 105.028 52.0426 104.925 52.1464C104.906 52.0237 104.887 51.904 104.868 51.7812Z" fill="url(#paint52_linear_10_4216)"/>
<path d="M115.836 61.5471C114.785 64.3144 113.014 65.4005 110.632 64.349C108.78 63.5336 107.235 61.2574 108.434 57.914C109.244 58.2414 109.354 59.6141 110.607 59.3181C111.664 59.0694 112.154 58.4209 112.358 57.4418C113.896 58.4838 114.578 60.2626 115.833 61.5439H115.836V61.5471Z" fill="url(#paint53_linear_10_4216)"/>
<path d="M115.836 61.5503C114.581 60.2658 113.9 58.4902 112.361 57.4481C112.041 56.4124 111.285 55.8929 109.991 55.7733C111.206 54.7092 112.258 54.7596 113.366 55.3231C113.523 57.212 114.848 58.2856 116.16 59.3717C116.376 60.1462 116.059 60.8419 115.836 61.5503Z" fill="url(#paint54_linear_10_4216)"/>
<path d="M116.16 59.3686C114.848 58.2824 113.52 57.2089 113.366 55.3199C115.296 55.9779 116.003 57.4828 116.16 59.3686Z" fill="url(#paint55_linear_10_4216)"/>
<path d="M77.3037 60.0045C76.2552 61.8525 74.2964 63.011 72.9654 62.4286C70.7492 61.4589 69.4245 59.6015 70.2344 55.8519C70.994 56.3966 71.4304 57.467 72.5981 57.1868C73.3547 57.0042 73.7031 56.4595 74.0515 55.874C75.5363 56.9318 76.1296 58.6979 77.3037 60.0045Z" fill="url(#paint56_linear_10_4216)"/>
<path d="M77.3037 60.0045C76.1328 58.698 75.5395 56.9318 74.0515 55.874C73.9322 54.4856 73.0031 53.9064 71.6124 53.7364C74.2744 51.8348 76.7292 53.5947 77.7023 55.7197C78.4777 57.4072 77.7463 58.6161 77.3037 60.0076V60.0045Z" fill="url(#paint57_linear_10_4216)"/>
<path d="M135.716 36.8744C135.716 36.8744 144.851 41.0962 145.693 42.9064C147.256 46.2593 145.605 65.218 140.315 69.8207C138.243 71.6215 123.891 72.44 123.891 72.44L135.713 36.8744H135.716Z" fill="#090110"/>
<path d="M93.671 53.8434L93.6585 54.0039L93.5612 53.9189L93.671 53.8434Z" fill="#090110"/>
<path d="M93.5612 53.9189L93.4544 53.9913L93.4639 53.8276L93.5612 53.9189Z" fill="#090110"/>
<path d="M61.4417 68.0765C61.4417 68.0765 47.3408 65.2715 45.5421 63.1968C43.7465 61.1315 42.8016 56.9727 42.4375 52.4896C41.8693 45.4879 42.7137 37.6898 43.9411 35.7977C45.0273 34.1228 54.6549 31.2107 54.6549 31.2107L57.9636 49.1903L61.4417 68.0765Z" fill="#090110"/>
<path d="M121.612 74.1904L134.756 34.6486L136.391 35.4041C140.001 37.0727 146.204 40.18 147.155 42.2201C148.267 44.6033 147.94 51.1044 147.168 56.1384C146.518 60.3854 144.898 67.9726 141.373 71.039C139.129 72.9909 128.465 73.7969 123.986 74.0519L121.612 74.1873V74.1904ZM136.671 39.1191L126.186 70.6675C132.106 70.2205 138.259 69.3642 139.27 68.5928C143.938 64.5285 145.47 46.4387 144.249 43.6305C143.668 42.8308 140.146 40.8222 136.671 39.1222V39.1191Z" fill="url(#paint58_linear_10_4216)"/>
<path d="M63.4602 70.126L61.1278 69.6632C56.7268 68.788 46.2766 66.5087 44.3241 64.2609C41.2572 60.7317 40.7047 52.9965 40.6482 48.696C40.5823 43.6021 41.1599 37.1168 42.5882 34.913C43.8124 33.0241 50.3826 30.8108 54.1904 29.6586L55.9137 29.136L63.4602 70.1229V70.126ZM45.269 36.7106C43.6743 39.3205 42.6855 57.4512 46.7569 62.1326C47.6453 63.0299 53.619 64.7331 59.4201 65.9987L53.3993 33.298C49.7202 34.5006 45.9564 35.9991 45.269 36.7106Z" fill="url(#paint59_linear_10_4216)"/>
<path d="M137.854 48.9762C136.181 73.0696 115.347 91.2381 91.323 89.5601C67.2993 87.8821 49.1834 66.9873 50.8566 42.8938C52.5297 18.8035 73.3641 0.631896 97.3878 2.31305C121.411 3.99106 139.527 24.8859 137.854 48.9794" fill="#090110"/>
<path d="M91.21 91.1752C66.3387 89.4373 47.5134 67.7271 49.2462 42.7836C50.9822 17.8401 72.6264 -1.03982 97.4976 0.698009C122.369 2.43583 141.194 24.1461 139.461 49.0895C137.729 74.033 116.084 92.913 91.21 91.1752ZM97.2748 3.92495C74.1771 2.30991 54.0773 19.8424 52.467 43.0071C50.8566 66.1719 68.3384 86.33 91.436 87.9451C114.534 89.5601 134.637 72.0276 136.244 48.8629C137.854 25.6981 120.372 5.54 97.2748 3.92495Z" fill="url(#paint60_linear_10_4216)"/>
<path d="M137.047 38.6405C136.577 38.609 136.153 38.3005 135.99 37.8314C130.251 21.4134 114.923 9.99472 96.9389 8.73543C78.9674 7.47928 62.2108 16.6469 54.25 32.0922C53.9581 32.6589 53.28 32.9013 52.6993 32.6494C52.1154 32.3976 51.8266 31.7364 52.0338 31.1351C58.651 12.0474 77.3351 -0.306302 97.4694 1.10096C117.616 2.50822 134.414 17.3522 138.319 37.1955C138.441 37.8188 138.061 38.4327 137.449 38.5996C137.314 38.6374 137.179 38.65 137.047 38.6405ZM97.1084 6.31759C109.828 7.20539 121.292 12.932 129.284 21.8415C122.118 11.424 110.465 4.44124 97.2999 3.52195C84.1344 2.60267 71.6407 7.89485 63.1023 17.2073C72.2528 9.50045 84.3918 5.42978 97.1053 6.31759H97.1084Z" fill="url(#paint61_linear_10_4216)"/>
<path d="M138.24 47.698C137.977 51.4727 137.245 55.109 136.106 58.5374C136.106 58.5374 136.103 58.5374 136.103 58.5405C127.542 72.6352 110.641 84.0948 92.0952 82.7977C73.5493 81.5006 58.3999 67.7995 51.8705 52.6533C51.8705 52.6502 51.8674 52.6502 51.8674 52.6502C51.2082 49.0958 50.9853 45.3935 51.249 41.6156C51.3652 39.9659 51.5692 38.3414 51.8611 36.7516C58.8614 20.8782 76.8108 10.2938 97.0331 11.7074C117.262 13.1209 133.576 26.1105 138.309 42.8056C138.378 44.4175 138.356 46.0515 138.24 47.698Z" fill="url(#paint62_linear_10_4216)"/>
<g opacity="0.5">
<path d="M119.905 47.3076C119.032 51.0634 120.526 54.6209 123.242 55.2537C125.954 55.8865 128.861 53.3553 129.733 49.5995C130.606 45.8436 129.112 42.2861 126.396 41.6534C123.684 41.0206 120.777 43.5517 119.905 47.3076Z" fill="#090110"/>
</g>
<g opacity="0.5">
<path d="M115.406 60.9742C114.772 62.627 115.406 64.4058 116.819 64.9536C118.231 65.4982 119.892 64.601 120.526 62.9513C121.16 61.2985 120.526 59.5197 119.114 58.9719C117.701 58.4273 116.04 59.3245 115.406 60.9742Z" fill="#090110"/>
</g>
<g opacity="0.5">
<path d="M61.4668 58.0966C61.4668 58.0966 55.7285 36.0054 67.8455 27.9176C79.9625 19.8266 96.7756 20.6955 96.3299 21.7596C96.3299 21.7596 77.4889 25.3581 69.4779 39.7581C63.3001 50.8619 61.4668 58.0966 61.4668 58.0966Z" fill="#090110"/>
</g>
<defs>
<linearGradient id="paint0_linear_10_4216" x1="103.158" y1="2.70056" x2="103.158" y2="213.098" gradientUnits="userSpaceOnUse">
<stop stop-color="#1F8BF7"/>
<stop offset="1" stop-color="#DC33FC"/>
</linearGradient>
<linearGradient id="paint1_linear_10_4216" x1="153.157" y1="87.3339" x2="153.157" y2="187.347" gradientUnits="userSpaceOnUse">
<stop stop-color="#1F8BF7"/>
<stop offset="1" stop-color="#DC33FC"/>
</linearGradient>
<linearGradient id="paint2_linear_10_4216" x1="43.5417" y1="126.201" x2="43.5417" y2="167.332" gradientUnits="userSpaceOnUse">
<stop stop-color="#1F8BF7"/>
<stop offset="1" stop-color="#DC33FC"/>
</linearGradient>
<linearGradient id="paint3_linear_10_4216" x1="28.7792" y1="64.8826" x2="28.7792" y2="125.805" gradientUnits="userSpaceOnUse">
<stop stop-color="#1F8BF7"/>
<stop offset="1" stop-color="#DC33FC"/>
</linearGradient>
<linearGradient id="paint4_linear_10_4216" x1="142.261" y1="175.882" x2="142.261" y2="211.422" gradientUnits="userSpaceOnUse">
<stop stop-color="#1F8BF7"/>
<stop offset="1" stop-color="#DC33FC"/>
</linearGradient>
<linearGradient id="paint5_linear_10_4216" x1="29.6981" y1="173.181" x2="29.6981" y2="204.793" gradientUnits="userSpaceOnUse">
<stop stop-color="#1F8BF7"/>
<stop offset="1" stop-color="#DC33FC"/>
</linearGradient>
<linearGradient id="paint6_linear_10_4216" x1="94.685" y1="31.3608" x2="94.685" y2="57.8705" gradientUnits="userSpaceOnUse">
<stop stop-color="#1F8BF7"/>
<stop offset="1" stop-color="#DC33FC"/>
</linearGradient>
<linearGradient id="paint7_linear_10_4216" x1="103.698" y1="90.0828" x2="103.698" y2="142.725" gradientUnits="userSpaceOnUse">
<stop stop-color="#1F8BF7"/>
<stop offset="1" stop-color="#DC33FC"/>
</linearGradient>
<linearGradient id="paint8_linear_10_4216" x1="92.5993" y1="4.22571" x2="92.5993" y2="22.8984" gradientUnits="userSpaceOnUse">
<stop stop-color="#1F8BF7"/>
<stop offset="1" stop-color="#DC33FC"/>
</linearGradient>
<linearGradient id="paint9_linear_10_4216" x1="99.2259" y1="83.6068" x2="99.2259" y2="103.469" gradientUnits="userSpaceOnUse">
<stop stop-color="#1F8BF7"/>
<stop offset="1" stop-color="#DC33FC"/>
</linearGradient>
<linearGradient id="paint10_linear_10_4216" x1="71.1121" y1="78.5917" x2="71.1121" y2="101.215" gradientUnits="userSpaceOnUse">
<stop stop-color="#1F8BF7"/>
<stop offset="1" stop-color="#DC33FC"/>
</linearGradient>
<linearGradient id="paint11_linear_10_4216" x1="95.5642" y1="21.2681" x2="95.5642" y2="30.5006" gradientUnits="userSpaceOnUse">
<stop stop-color="#1F8BF7"/>
<stop offset="1" stop-color="#DC33FC"/>
</linearGradient>
<linearGradient id="paint12_linear_10_4216" x1="124.203" y1="78.557" x2="124.203" y2="100.264" gradientUnits="userSpaceOnUse">
<stop stop-color="#1F8BF7"/>
<stop offset="1" stop-color="#DC33FC"/>
</linearGradient>
<linearGradient id="paint13_linear_10_4216" x1="89.3246" y1="23.4124" x2="89.3246" y2="35.3852" gradientUnits="userSpaceOnUse">
<stop stop-color="#1F8BF7"/>
<stop offset="1" stop-color="#DC33FC"/>
</linearGradient>
<linearGradient id="paint14_linear_10_4216" x1="161.734" y1="60.9237" x2="161.734" y2="80.4617" gradientUnits="userSpaceOnUse">
<stop stop-color="#1F8BF7"/>
<stop offset="1" stop-color="#DC33FC"/>
</linearGradient>
<linearGradient id="paint15_linear_10_4216" x1="180.422" y1="51.8474" x2="180.422" y2="69.7137" gradientUnits="userSpaceOnUse">
<stop stop-color="#1F8BF7"/>
<stop offset="1" stop-color="#DC33FC"/>
</linearGradient>
<linearGradient id="paint16_linear_10_4216" x1="192.117" y1="77.3149" x2="192.117" y2="92.9854" gradientUnits="userSpaceOnUse">
<stop stop-color="#1F8BF7"/>
<stop offset="1" stop-color="#DC33FC"/>
</linearGradient>
<linearGradient id="paint17_linear_10_4216" x1="51.0546" y1="67.0154" x2="51.0546" y2="90.5392" gradientUnits="userSpaceOnUse">
<stop stop-color="#1F8BF7"/>
<stop offset="1" stop-color="#DC33FC"/>
</linearGradient>
<linearGradient id="paint18_linear_10_4216" x1="145.736" y1="75.9818" x2="145.736" y2="88.8903" gradientUnits="userSpaceOnUse">
<stop stop-color="#1F8BF7"/>
<stop offset="1" stop-color="#DC33FC"/>
</linearGradient>
<linearGradient id="paint19_linear_10_4216" x1="113.878" y1="46.3584" x2="113.878" y2="72.5375" gradientUnits="userSpaceOnUse">
<stop stop-color="#1F8BF7"/>
<stop offset="1" stop-color="#DC33FC"/>
</linearGradient>
<linearGradient id="paint20_linear_10_4216" x1="72.3804" y1="44.4473" x2="72.3804" y2="70.1303" gradientUnits="userSpaceOnUse">
<stop stop-color="#1F8BF7"/>
<stop offset="1" stop-color="#DC33FC"/>
</linearGradient>
<linearGradient id="paint21_linear_10_4216" x1="171.877" y1="78.9065" x2="171.877" y2="88.6251" gradientUnits="userSpaceOnUse">
<stop stop-color="#1F8BF7"/>
<stop offset="1" stop-color="#DC33FC"/>
</linearGradient>
<linearGradient id="paint22_linear_10_4216" x1="92.8731" y1="60.2532" x2="92.8731" y2="67.5827" gradientUnits="userSpaceOnUse">
<stop stop-color="#1F8BF7"/>
<stop offset="1" stop-color="#DC33FC"/>
</linearGradient>
<linearGradient id="paint23_linear_10_4216" x1="35.5523" y1="142.901" x2="35.5523" y2="149.726" gradientUnits="userSpaceOnUse">
<stop stop-color="#1F8BF7"/>
<stop offset="1" stop-color="#DC33FC"/>
</linearGradient>
<linearGradient id="paint24_linear_10_4216" x1="56.2516" y1="57.0909" x2="56.2516" y2="72.7044" gradientUnits="userSpaceOnUse">
<stop stop-color="#1F8BF7"/>
<stop offset="1" stop-color="#DC33FC"/>
</linearGradient>
<linearGradient id="paint25_linear_10_4216" x1="151.393" y1="85.1466" x2="151.393" y2="90.8653" gradientUnits="userSpaceOnUse">
<stop stop-color="#1F8BF7"/>
<stop offset="1" stop-color="#DC33FC"/>
</linearGradient>
<linearGradient id="paint26_linear_10_4216" x1="131.005" y1="62.3279" x2="131.005" y2="77.3166" gradientUnits="userSpaceOnUse">
<stop stop-color="#1F8BF7"/>
<stop offset="1" stop-color="#DC33FC"/>
</linearGradient>
<linearGradient id="paint27_linear_10_4216" x1="92.2303" y1="67.1006" x2="92.2303" y2="73.2418" gradientUnits="userSpaceOnUse">
<stop stop-color="#1F8BF7"/>
<stop offset="1" stop-color="#DC33FC"/>
</linearGradient>
<linearGradient id="paint28_linear_10_4216" x1="125.367" y1="188.336" x2="125.367" y2="198.883" gradientUnits="userSpaceOnUse">
<stop stop-color="#1F8BF7"/>
<stop offset="1" stop-color="#DC33FC"/>
</linearGradient>
<linearGradient id="paint29_linear_10_4216" x1="138.159" y1="72.1984" x2="138.159" y2="81.4156" gradientUnits="userSpaceOnUse">
<stop stop-color="#1F8BF7"/>
<stop offset="1" stop-color="#DC33FC"/>
</linearGradient>
<linearGradient id="paint30_linear_10_4216" x1="34.3294" y1="149.95" x2="34.3294" y2="153.822" gradientUnits="userSpaceOnUse">
<stop stop-color="#1F8BF7"/>
<stop offset="1" stop-color="#DC33FC"/>
</linearGradient>
<linearGradient id="paint31_linear_10_4216" x1="95.6599" y1="67.2328" x2="95.6599" y2="74.8184" gradientUnits="userSpaceOnUse">
<stop stop-color="#1F8BF7"/>
<stop offset="1" stop-color="#DC33FC"/>
</linearGradient>
<linearGradient id="paint32_linear_10_4216" x1="94.7103" y1="56.8971" x2="94.7103" y2="59.4758" gradientUnits="userSpaceOnUse">
<stop stop-color="#1F8BF7"/>
<stop offset="1" stop-color="#DC33FC"/>
</linearGradient>
<linearGradient id="paint33_linear_10_4216" x1="133.829" y1="58.696" x2="133.829" y2="60.027" gradientUnits="userSpaceOnUse">
<stop stop-color="#1F8BF7"/>
<stop offset="1" stop-color="#DC33FC"/>
</linearGradient>
<linearGradient id="paint34_linear_10_4216" x1="37.3864" y1="171.335" x2="37.3864" y2="176.741" gradientUnits="userSpaceOnUse">
<stop stop-color="#1F8BF7"/>
<stop offset="1" stop-color="#DC33FC"/>
</linearGradient>
<linearGradient id="paint35_linear_10_4216" x1="139.412" y1="83.411" x2="139.412" y2="89.5821" gradientUnits="userSpaceOnUse">
<stop stop-color="#1F8BF7"/>
<stop offset="1" stop-color="#DC33FC"/>
</linearGradient>
<linearGradient id="paint36_linear_10_4216" x1="28.6943" y1="119.453" x2="28.6943" y2="125.272" gradientUnits="userSpaceOnUse">
<stop stop-color="#1F8BF7"/>
<stop offset="1" stop-color="#DC33FC"/>
</linearGradient>
<linearGradient id="paint37_linear_10_4216" x1="87.5215" y1="65.8256" x2="87.5215" y2="73.586" gradientUnits="userSpaceOnUse">
<stop stop-color="#1F8BF7"/>
<stop offset="1" stop-color="#DC33FC"/>
</linearGradient>
<linearGradient id="paint38_linear_10_4216" x1="55.2314" y1="55.2314" x2="55.2314" y2="56.4731" gradientUnits="userSpaceOnUse">
<stop stop-color="#1F8BF7"/>
<stop offset="1" stop-color="#DC33FC"/>
</linearGradient>
<linearGradient id="paint39_linear_10_4216" x1="194.576" y1="67.2661" x2="194.576" y2="68.8699" gradientUnits="userSpaceOnUse">
<stop stop-color="#1F8BF7"/>
<stop offset="1" stop-color="#DC33FC"/>
</linearGradient>
<linearGradient id="paint40_linear_10_4216" x1="193.853" y1="64.9535" x2="193.853" y2="66.0646" gradientUnits="userSpaceOnUse">
<stop stop-color="#1F8BF7"/>
<stop offset="1" stop-color="#DC33FC"/>
</linearGradient>
<linearGradient id="paint41_linear_10_4216" x1="127.752" y1="77.2852" x2="127.752" y2="77.4426" gradientUnits="userSpaceOnUse">
<stop stop-color="#1F8BF7"/>
<stop offset="1" stop-color="#DC33FC"/>
</linearGradient>
<linearGradient id="paint42_linear_10_4216" x1="88.0822" y1="62.1704" x2="88.0822" y2="62.3588" gradientUnits="userSpaceOnUse">
<stop stop-color="#1F8BF7"/>
<stop offset="1" stop-color="#DC33FC"/>
</linearGradient>
<linearGradient id="paint43_linear_10_4216" x1="128.522" y1="188.187" x2="128.522" y2="188.459" gradientUnits="userSpaceOnUse">
<stop stop-color="#1F8BF7"/>
<stop offset="1" stop-color="#DC33FC"/>
</linearGradient>
<linearGradient id="paint44_linear_10_4216" x1="59.9018" y1="144.317" x2="59.9018" y2="162.69" gradientUnits="userSpaceOnUse">
<stop stop-color="#1F8BF7"/>
<stop offset="1" stop-color="#DC33FC"/>
</linearGradient>
<linearGradient id="paint45_linear_10_4216" x1="61.2534" y1="164.793" x2="61.2534" y2="166.497" gradientUnits="userSpaceOnUse">
<stop stop-color="#1F8BF7"/>
<stop offset="1" stop-color="#DC33FC"/>
</linearGradient>
<linearGradient id="paint46_linear_10_4216" x1="113.856" y1="47.7369" x2="113.856" y2="71.1555" gradientUnits="userSpaceOnUse">
<stop stop-color="#1F8BF7"/>
<stop offset="1" stop-color="#DC33FC"/>
</linearGradient>
<linearGradient id="paint47_linear_10_4216" x1="72.4929" y1="45.85" x2="72.4929" y2="68.7372" gradientUnits="userSpaceOnUse">
<stop stop-color="#1F8BF7"/>
<stop offset="1" stop-color="#DC33FC"/>
</linearGradient>
<linearGradient id="paint48_linear_10_4216" x1="106.626" y1="49.7003" x2="106.626" y2="50.8778" gradientUnits="userSpaceOnUse">
<stop stop-color="#1F8BF7"/>
<stop offset="1" stop-color="#DC33FC"/>
</linearGradient>
<linearGradient id="paint49_linear_10_4216" x1="105.805" y1="50.7078" x2="105.805" y2="51.1989" gradientUnits="userSpaceOnUse">
<stop stop-color="#1F8BF7"/>
<stop offset="1" stop-color="#DC33FC"/>
</linearGradient>
<linearGradient id="paint50_linear_10_4216" x1="105.506" y1="51.0603" x2="105.506" y2="51.5105" gradientUnits="userSpaceOnUse">
<stop stop-color="#1F8BF7"/>
<stop offset="1" stop-color="#DC33FC"/>
</linearGradient>
<linearGradient id="paint51_linear_10_4216" x1="105.203" y1="51.3751" x2="105.203" y2="51.8253" gradientUnits="userSpaceOnUse">
<stop stop-color="#1F8BF7"/>
<stop offset="1" stop-color="#DC33FC"/>
</linearGradient>
<linearGradient id="paint52_linear_10_4216" x1="105.052" y1="51.7812" x2="105.052" y2="52.1464" gradientUnits="userSpaceOnUse">
<stop stop-color="#1F8BF7"/>
<stop offset="1" stop-color="#DC33FC"/>
</linearGradient>
<linearGradient id="paint53_linear_10_4216" x1="111.924" y1="57.4418" x2="111.924" y2="64.744" gradientUnits="userSpaceOnUse">
<stop stop-color="#1F8BF7"/>
<stop offset="1" stop-color="#DC33FC"/>
</linearGradient>
<linearGradient id="paint54_linear_10_4216" x1="113.112" y1="54.9285" x2="113.112" y2="61.5503" gradientUnits="userSpaceOnUse">
<stop stop-color="#1F8BF7"/>
<stop offset="1" stop-color="#DC33FC"/>
</linearGradient>
<linearGradient id="paint55_linear_10_4216" x1="114.763" y1="55.3199" x2="114.763" y2="59.3686" gradientUnits="userSpaceOnUse">
<stop stop-color="#1F8BF7"/>
<stop offset="1" stop-color="#DC33FC"/>
</linearGradient>
<linearGradient id="paint56_linear_10_4216" x1="73.6491" y1="55.8519" x2="73.6491" y2="62.5801" gradientUnits="userSpaceOnUse">
<stop stop-color="#1F8BF7"/>
<stop offset="1" stop-color="#DC33FC"/>
</linearGradient>
<linearGradient id="paint57_linear_10_4216" x1="74.8275" y1="52.9246" x2="74.8275" y2="60.0076" gradientUnits="userSpaceOnUse">
<stop stop-color="#1F8BF7"/>
<stop offset="1" stop-color="#DC33FC"/>
</linearGradient>
<linearGradient id="paint58_linear_10_4216" x1="134.743" y1="34.6486" x2="134.743" y2="74.1904" gradientUnits="userSpaceOnUse">
<stop stop-color="#1F8BF7"/>
<stop offset="1" stop-color="#DC33FC"/>
</linearGradient>
<linearGradient id="paint59_linear_10_4216" x1="52.0517" y1="29.136" x2="52.0517" y2="70.126" gradientUnits="userSpaceOnUse">
<stop stop-color="#1F8BF7"/>
<stop offset="1" stop-color="#DC33FC"/>
</linearGradient>
<linearGradient id="paint60_linear_10_4216" x1="94.3538" y1="0.587036" x2="94.3538" y2="91.2861" gradientUnits="userSpaceOnUse">
<stop stop-color="#1F8BF7"/>
<stop offset="1" stop-color="#DC33FC"/>
</linearGradient>
<linearGradient id="paint61_linear_10_4216" x1="95.1543" y1="0.992065" x2="95.1543" y2="38.6435" gradientUnits="userSpaceOnUse">
<stop stop-color="#1F8BF7"/>
<stop offset="1" stop-color="#DC33FC"/>
</linearGradient>
<linearGradient id="paint62_linear_10_4216" x1="94.7446" y1="11.5811" x2="94.7446" y2="82.898" gradientUnits="userSpaceOnUse">
<stop stop-color="#1F8BF7"/>
<stop offset="1" stop-color="#DC33FC"/>
</linearGradient>
</defs>
</svg>
