<svg width="762" height="562" viewBox="0 0 762 562" fill="none" xmlns="http://www.w3.org/2000/svg">
<path d="M645.938 297.389C645.938 443.502 528.48 561.95 383.588 561.95C238.696 561.95 118.49 436.414 118.49 290.302C118.49 144.189 238.696 32.8291 383.588 32.8291C528.48 32.8291 645.938 151.277 645.938 297.389Z" fill="#EAEAEA"/>
<path d="M645.938 297.389C645.938 443.502 528.48 561.95 383.588 561.95C238.696 561.95 118.49 436.414 118.49 290.302C118.49 144.189 238.696 32.8291 383.588 32.8291C528.48 32.8291 645.938 151.277 645.938 297.389Z" fill="url(#paint0_linear_83_5014)"/>
<path d="M384.014 0.383592C385.397 1.1741 392.71 13.3223 393.209 15.5427C394.244 20.0299 393.163 23.9592 392.791 28.3534L415.437 30.911C420.924 27.0398 420.459 30.9226 422.47 31.8177C427.341 33.98 444.185 35.9911 451.253 37.8976C509.832 53.696 563.563 91.8494 598.729 141.012C605.459 150.428 610.9 160.658 617.422 170.202C628.547 171.946 639.858 170.725 651.053 171.667C653.994 170.225 662.69 148.533 664.852 144.371C669.862 134.757 673.943 136.513 682.708 133.142C686.056 131.851 692.484 125.399 692.159 133.107C691.415 150.626 678.767 158.996 671.594 173.748C695.879 178.247 720.652 187.558 741.333 201.102C765.536 216.947 767.908 237.232 750.656 260.041C742.333 271.049 730.557 278.78 720.361 287.894C724.744 289.789 729.092 288.952 733.637 290.859C737.008 292.265 739.798 295.218 743.135 296.752C747.238 298.647 753.853 298.089 752.865 303.693C743.937 303.449 736.276 312.365 727.615 312.318C720.943 312.284 704.772 301.833 699.797 303.204C682.15 315.143 663.027 324.571 643.752 333.592C628.326 441.926 547.823 531.474 440.628 555.491C337.932 578.497 232.947 538.809 169.706 456.039C134.82 454.655 100.514 451.668 66.9875 441.577C22.6728 428.243 -22.258 406.725 12.7102 354.389C25.9511 334.569 44.8534 321.13 63.3605 306.704C57.3387 301.275 51.9331 294.439 45.8415 289.173C43.9699 287.557 40.9125 286.708 39.006 284.895C33.9259 280.047 34.4141 273.84 33.054 267.76C32.2054 263.947 26.7532 253.949 33.6585 255.135C37.5296 255.797 50.4334 260.354 53.5373 262.679C58.1292 266.109 58.2106 269.469 60.9657 273.212C63.0815 276.095 78.6474 295.59 80.1819 295.881L113.337 278.838L114.511 277.455C117.126 249.95 122.683 222.771 133.576 197.335C126.461 193.208 119.963 187.989 113.116 183.478C110.349 181.653 107.559 181.525 104.827 178.933C99.7004 174.062 98.4797 167.249 96.3058 160.949C95.5502 158.763 91.2141 154.206 97.7939 155.125C113.732 157.357 115.627 163.076 126.659 171.644C127.519 172.306 127.752 173.295 129.228 172.911C129.739 172.388 126.275 166.285 125.775 164.831C124.764 161.867 120.625 149.963 126.054 150.812C126.891 150.94 137.435 159.263 138.679 160.484C139.679 161.472 146.352 170.981 147.189 170.353C190.864 85.5835 282.76 30.6203 378.167 28.4348C376.621 22.7386 374.737 19.065 375.807 12.8224C376.097 11.1251 380.48 0.627718 381.282 0.325467C382.015 0.0464657 383.305 -3.45036e-05 384.014 0.395217V0.383592ZM380.84 22.3433C381.224 22.6688 386.165 22.5991 387.048 22.3201C391.117 21.0064 386.734 9.3465 383.735 7.90499C382.247 7.19587 380.259 13.485 380.085 14.5196C379.841 16.0309 380.027 21.6574 380.84 22.3317V22.3433ZM389.303 30.9923C389.954 24.1219 387.304 26.5399 382.445 26.7259C381.666 32.027 385.304 31.0853 389.303 30.9923ZM570.654 115.634C546.172 89.7686 519.248 70.2617 486.547 55.6374C466.343 46.6048 443.744 39.7576 421.807 36.9792C422.423 44.8494 418.25 51.6733 415.809 58.7762C424.179 58.7064 432.2 65.5885 421.54 70.4942C413.205 74.3305 387.025 77.0391 377.713 76.3533C362.589 75.2373 362.264 67.7623 375.993 62.5892C378.016 61.8219 381.724 62.1823 382.363 60.3804L378.539 33.515C289.351 34.6542 203.349 84.7465 157.64 160.693C156.558 162.495 150.037 173.585 149.909 174.364C149.769 175.294 152.838 179.549 153.734 179.7C154.687 179.863 168.625 168.563 169.532 179.328C170.113 186.256 156.942 204.426 151.932 209.704C149.583 212.18 144.027 217.249 140.783 217.446C128.856 218.167 140.283 201.869 139.516 201.148C137.412 199.183 135.924 204.078 135.459 205.194C112.848 258.994 115.569 322.967 134.389 377.256C139.365 391.624 144.678 406.319 152.92 419.013C183.912 419.06 215.125 417.048 245.909 413.038C257.231 411.561 268.426 408.969 279.819 408.027C279.935 406.04 280.109 406.516 278.552 406.319C274.355 405.795 264.729 407.83 264.509 402.413L266.985 316.55C275.657 316.248 284.399 316.097 293.071 315.69C309.346 314.934 325.505 314.446 341.873 314.027C349.371 313.83 361.066 311.772 368.332 313.155C369.273 313.33 371.343 314.632 371.343 315.271V387.509L472.295 358.877C473.992 357.458 474.236 332.534 476.387 327.059C479.735 318.526 486.907 318.247 491.953 312.69C493.917 310.528 496.172 302.995 496.812 302.832C497.719 302.6 499.916 302.53 500.613 303.402C502.345 305.576 506.612 323.211 506.542 326.338C506.356 334.15 497.579 342.392 497.102 350.739C511.878 347.252 526.444 341.555 540.731 336.208C575.444 323.211 609.935 308.668 642.346 290.719C641.602 284.163 642.195 277.35 641.66 270.805C641.451 268.225 640.207 264.888 639.963 262.668C633.639 204.984 610.272 157.438 570.666 115.623L570.654 115.634ZM411.542 35.2704L393.581 33.5498C395.011 37.049 394.686 57.8462 396.092 58.8227C397.29 59.6481 400.708 59.5434 401.719 58.3461C405.102 54.3005 406.346 40.0134 411.554 35.2704H411.542ZM389.257 35.3168C388.838 34.9216 385.293 35.468 384.165 35.2704C384.7 47.279 387.734 59.1249 388.466 71.1685H391.861C391.547 66.8091 390.559 36.5607 389.257 35.3168ZM417.529 36.9792C416.425 35.7354 411.007 42.4081 414.553 43.8031C417.692 45.047 417.122 39.0369 417.529 36.9792ZM407.066 69.262C407.659 68.6575 413.03 54.0797 410.252 53.2194C408.531 52.9404 408.241 53.3008 407.427 54.6609C405.253 58.2879 405.113 65.3443 402.149 69.0527C401.277 71.494 406.753 69.5875 407.066 69.262ZM421.807 64.3446C421.551 64.0772 415.018 62.6822 414.611 62.7752C412.949 63.1472 412.437 67.1346 411.542 68.5993C412.356 69.2271 419.47 66.9253 420.714 66.2395C421.493 65.8093 423.004 65.5885 421.795 64.3446H421.807ZM399.557 63.4843C394.186 62.3451 396.557 66.2278 396.139 70.3199C398.603 70.7732 397.522 69.6805 398.057 68.4366C398.394 67.6345 399.847 63.7517 399.557 63.496V63.4843ZM384.165 72.0287C386.293 61.0779 376.679 66.4952 371.331 69.9014C370.854 71.6335 375.167 71.8311 376.132 71.9241C378.806 72.1915 381.491 71.9706 384.154 72.0287H384.165ZM677.477 155.694C682.185 149.696 686.486 144.209 686.986 136.141C678.07 140.012 668.886 139.489 667.328 151.486C669.967 151.381 675.721 156.706 677.477 155.694ZM663.096 161.728C663.329 162.053 669.932 165.25 670.339 165.25C671.687 165.25 674.256 161.6 674.094 160.623C673.745 158.507 667.316 156.996 666.038 154.973C665.294 154.985 662.341 160.658 663.096 161.728ZM133.541 170.342C142.922 167.098 132.994 162.762 129.251 159.228C129.193 163.448 132.169 166.622 133.541 170.342ZM101.432 160.96C101.13 164.436 106.978 178.689 111.291 175.933C111.942 175.515 116.394 168.458 116.045 167.761C111.86 163.785 106.861 162.355 101.432 160.96ZM668.118 168.703L659.655 165.25C652.413 181.804 641.985 197.044 634.836 213.436L636.522 220.783L668.107 168.691L668.118 168.703ZM140.097 171.295C139.319 171.504 136.97 173.597 137.331 174.608C137.796 175.898 143.783 184.245 145.061 185.745C146.201 187.082 155.442 195.952 156.198 195.975C157.116 195.998 157.5 194.208 157.337 193.162C156.733 189.36 144.271 176.956 142.504 172.062C141.888 171.144 141.132 171.016 140.109 171.295H140.097ZM115.557 179.746C116.592 180.897 123.846 172.818 120.242 172.062C118.486 171.69 114.662 178.77 115.557 179.746ZM648.495 176.34L619.41 175.492C621.944 178.375 623.409 186.245 625.338 188.581C626.803 190.36 639.87 190.651 641.648 189.581C642.822 188.872 649.146 176.98 648.495 176.34ZM125.392 176.34C124.392 177.747 120.137 181.525 121.056 183.187C123.299 187.245 144.364 197.94 148.653 202.683L151.502 203.322C152.513 202.043 153.815 200.369 152.42 198.963L125.403 176.34H125.392ZM746.878 211.378C743.902 208.577 740.81 206.391 737.392 204.182C717.106 191.081 692.566 182.002 668.735 177.979C667.781 180.421 659.074 191.976 660.469 193.429C672.49 195.347 685.533 198.602 696.425 204.101C702.308 207.077 714.595 215.552 716.932 221.655C723.942 240.022 697.228 261.482 684.335 270.724C614.608 320.63 512.645 353.018 430.363 376.407C329.923 404.947 196.049 437.741 92.458 418.304C74.8925 415.002 43.935 407.458 37.0414 388.614C26.3115 359.272 61.0703 338.254 81.3212 324.687C78.845 322.827 68.3709 310.528 66.5109 310.703C46.4577 325.094 24.7653 341.683 12.4544 363.573C-13.9461 410.492 35.9254 427.581 71.9281 437.974C150.234 460.561 239.736 450.61 318.46 434.288C327.423 432.428 363.263 425.988 368.774 422.582C451.428 404.447 532.815 376.233 610.586 343.218C649.286 326.792 683.719 310.668 716.851 284.418C737.508 268.05 775.778 238.581 746.878 211.413V211.378ZM165.161 178.898C164.847 178.561 156.919 181.978 156.651 182.362C155.663 183.745 159.232 188.093 160.476 189.151L164.091 184.234L165.161 178.909V178.898ZM639.091 194.289L627.977 193.429L632.255 206.251C632.906 206.763 639.614 194.731 639.079 194.289H639.091ZM646.089 265.086L674.977 271.666C686.346 263.156 698.727 255.577 706.865 243.638C715.002 231.699 717.234 224.607 705.237 214.947C692.333 204.554 672.513 199.369 656.365 197.881L639.102 227.223C642.427 239.65 644.101 252.391 646.089 265.086ZM147.2 206.275C141.562 202.276 140.19 208.309 139.516 213.099C140.597 214.25 148.235 207.74 147.2 206.275ZM36.4136 260.994C38.448 267.446 36.9484 276.025 41.9471 281.094C42.6563 281.814 45.7602 284.104 46.5623 283.965C47.19 283.86 55.8739 276.072 56.1181 275.479C56.9435 273.514 54.0953 269.248 52.7003 267.783C48.0735 262.889 42.2494 263.156 36.4136 260.994ZM669.037 274.653C668.142 273.874 648.926 270.945 645.938 269.527C646.194 270.759 646.6 276.862 646.856 277.153C647.379 277.722 660.702 280.384 661.922 280.012C662.922 279.71 666.828 277.315 667.921 276.56C668.456 276.188 670.49 275.92 669.037 274.653ZM59.9311 278.931C58.5128 277.92 52.1307 285.906 50.5497 287.046L60.3728 296.857L67.5804 288.859C65.1507 285.627 61.4191 282.582 59.9195 278.92L59.9311 278.931ZM654.482 283.209L646.786 281.489V288.324C647.833 287.917 655.331 284.29 654.482 283.209ZM114.697 305.855V283.198L83.0417 299.45L96.4337 314.76C97.6311 315.12 114.394 306.831 114.697 305.855ZM718.641 292.602C712.596 290.917 713.119 297.462 712.666 302.007C713.584 301.856 715.479 302.333 715.99 301.914C716.362 301.6 718.269 293.997 718.641 292.614V292.602ZM90.1911 315.387C87.7963 312.702 72.8 293.765 71.3818 293.521C70.4401 293.358 63.5116 299.461 64.6044 301.147L123.241 360.144C122.788 356.563 122.125 351.262 120.219 348.205C114.394 338.893 98.1194 324.292 90.1911 315.387ZM741.74 301.995C738.578 299.229 726.337 290.196 723 294.823C722.454 295.578 719.164 304.971 719.501 305.425C728.638 309.97 733.719 305.983 741.74 302.007V301.995ZM115.545 311.412C114.964 310.749 103.56 316.294 102.118 317.224C101.305 317.747 99.8864 318.131 100.189 319.479C100.491 320.828 116.533 336.731 118.556 339.614L115.545 311.423V311.412ZM498.788 311.412C494.115 319.41 480.339 322.723 479.258 332.581C478.781 336.929 490.116 338.51 493.371 338.719C497.533 338.975 500.927 331.709 501.38 328.117C502.124 322.072 499.974 317.131 498.788 311.423V311.412ZM367.053 317.399L271.286 320.851L268.694 401.134L293.92 403.726C301.953 403.959 311.125 401.61 318.995 399.739C320.379 399.413 323.82 399.134 324.273 397.762L277.319 395.949L278.075 326.78C293.897 325.827 309.695 326.21 325.587 325.966C334.991 325.827 345.186 323.92 354.684 325.036C355.544 325.141 357.637 325.431 357.637 326.361V389.625C357.637 392.101 367.041 388.939 367.041 387.916V317.387L367.053 317.399ZM146.352 419.129C138.83 402.471 131.204 385.87 125.717 368.363L85.0644 328.593C65.7436 339.707 34.2397 359.016 40.866 385.626C45.1905 403.005 77.9848 410.806 93.1555 413.724C110.721 417.107 128.507 418.118 146.352 419.118V419.129ZM353.37 329.361L282.365 331.07C281.621 342.741 281.26 354.401 281.528 366.131C284.015 362.69 288.27 361.667 290.921 359.714C293.176 358.051 293.432 354.506 297.431 354.169C299.023 354.029 300.941 355.215 302.057 354.645C303.406 353.959 303.883 350.914 306.301 350.228C311.044 348.891 314.148 359.26 315.31 359.284C319.1 356.703 323.947 346.089 329.4 348.6L334.956 354.145C340.56 350.053 345.303 339.265 353.37 343.043V329.361ZM247.292 519.163C391.919 606.769 578.175 536.042 629.047 376.186C629.837 373.71 640.276 335.429 637.812 336.208C587.766 358.47 536.581 378.43 484.454 395.391L476.526 436.648C476.608 440.392 485.129 432.928 484.989 438.229C484.931 440.473 476.852 443.065 475.271 443.065H454.311C452.683 436.369 460.937 439.752 461.972 438.752C462.355 438.38 463.053 430.743 462.867 429.383C461.379 427.895 444.72 434.033 442.72 436.183C440.128 438.962 442.174 441.612 442.337 444.774C438.024 445.855 435.827 442.67 436.501 438.59C437.954 429.731 456.043 425.279 463.541 424.093C464.843 423.163 465.517 405.168 465.854 402.029C417.599 416.607 368.576 428.673 319.158 438.799C286.422 445.507 253.744 451.296 220.392 454.225L176.309 455.051C175.879 456.585 177.007 456.76 177.6 457.597C194.014 480.812 223.065 504.48 247.304 519.163H247.292ZM494.522 343.055C489.314 342.439 483.955 341.8 479.13 339.626L478.27 347.31C482.106 346.74 488.907 349.891 492.243 349.077C493.022 348.891 494.754 343.276 494.522 343.043V343.055ZM353.37 366.979V348.6C353.37 347.205 350.127 346.008 348.255 346.88C347.314 347.321 336.282 358.83 336.27 359.714C336.27 360.132 341.176 363.469 339.688 366.131C345.547 359.911 348.116 360.76 353.37 366.991V366.979ZM490.232 353.32C483.722 352.646 475.457 346.88 477.41 357.586L490.232 353.32ZM320.844 366.979C321.913 361.318 335.038 357.435 327.272 352.471L317.368 362.411C317.112 363.957 319.332 368.037 320.844 366.979ZM323.424 376.407C323.308 376.279 321.448 375.884 320.39 374.745C315.008 368.932 311.764 361.655 307.591 355.029L301.314 363.318C303.232 371.246 301.244 367.247 298.128 369.49C296.815 370.444 296.419 373.071 295.21 374.268C304.661 376.71 313.032 380.523 323.006 378.105C323.75 378.209 323.517 376.512 323.436 376.407H323.424ZM292.63 367.84C290.793 368.177 289.584 365.503 288.724 365.305C288.247 365.189 282.272 371.432 281.946 372.129C281.365 373.408 280.993 376.082 281.946 377.256C283.074 377.326 290.014 375.129 290.7 374.466C291.897 373.315 292.664 369.049 293.478 367.84C293.804 367.351 302.79 359.4 298.175 358.435C295.071 357.784 293.048 365.701 292.63 367.84ZM333.689 360.992C331.608 359.981 322.762 369.363 322.645 370.083C322.285 372.164 329.446 377.663 332.852 375.966C338.688 373.036 335.073 365.387 333.689 360.992ZM354.231 374.675C354.196 372.618 347.43 366.073 346.093 366.073C342.954 367.816 341.28 372.013 338.839 374.675H354.242H354.231ZM354.114 391.659C354.498 391.055 354.417 380.534 353.859 379.744C342.594 375.849 331.294 381.208 320.018 382.371C321.111 384.208 325.331 384.894 327.272 384.987C331.736 385.184 335.305 383.01 339.688 383.22C341.362 387.788 333.166 388.974 329.841 389.195C316.949 390.078 304.406 375.663 288.526 379.523C282.365 381.022 278.563 384.382 280.795 391.218C281.609 393.717 293.478 392.427 296.536 392.589C311.381 393.357 326.993 394.426 341.838 394.414C343.547 394.414 353.696 392.334 354.138 391.659H354.114ZM479.118 397.762C478.688 397.332 471.179 399.367 470.679 400.866L466.296 438.799C467.493 438.578 470.737 439.229 471.341 438.718C472.934 437.369 477.642 402.633 479.118 397.774V397.762Z" fill="#17171B"/>
<path d="M367.053 317.398V387.928C367.053 388.951 357.648 392.113 357.648 389.636V326.373C357.648 325.431 355.556 325.152 354.696 325.048C345.198 323.932 335.003 325.838 325.598 325.978C309.707 326.222 293.897 325.838 278.086 326.791L277.331 395.96L324.284 397.774C323.831 399.146 320.378 399.425 319.007 399.75C311.136 401.622 301.964 403.97 293.931 403.738L268.705 401.145L271.297 320.863L367.065 317.41L367.053 317.398Z" fill="#EAEAEA"/>
<path d="M353.37 329.36V343.043C345.303 339.253 340.559 350.053 334.956 354.145L329.399 348.6C323.947 346.077 319.1 356.702 315.31 359.283C314.147 359.272 311.043 348.89 306.3 350.227C303.882 350.913 303.406 353.971 302.057 354.645C300.941 355.214 299.012 354.029 297.431 354.168C293.443 354.505 293.176 358.051 290.921 359.713C288.282 361.666 284.015 362.689 281.528 366.13C281.26 354.412 281.632 342.752 282.365 331.069L353.37 329.36Z" fill="#4E66CC"/>
<path d="M746.878 211.378C743.902 208.577 740.81 206.391 737.392 204.182C717.106 191.081 692.566 182.002 668.734 177.979C667.781 180.421 659.074 191.964 660.469 193.418C672.489 195.336 685.532 198.591 696.425 204.089C702.307 207.065 714.595 215.54 716.932 221.643C723.942 240.011 697.227 261.471 684.335 270.712C614.608 320.619 512.645 353.006 430.363 376.396C329.922 404.935 196.048 437.729 92.4577 418.292C74.8922 414.991 43.9348 407.446 37.0411 388.602C26.3112 359.26 61.0701 338.242 81.3209 324.676C78.8448 322.816 68.3706 310.517 66.5106 310.691C46.4574 325.083 24.7651 341.672 12.4541 363.562C-13.9463 410.48 35.9251 427.569 71.9279 437.962C150.234 460.549 239.735 450.598 318.46 434.277C327.423 432.417 363.263 425.977 368.773 422.57C451.427 404.435 532.814 376.221 610.586 343.206C649.286 326.78 683.719 310.656 716.85 284.407C737.508 268.039 775.778 238.569 746.878 211.401V211.378Z" fill="url(#paint1_linear_83_5014)"/>
<path d="M354.114 391.66C353.673 392.334 343.536 394.415 341.815 394.415C326.982 394.427 311.357 393.357 296.512 392.59C293.455 392.427 281.586 393.718 280.772 391.218C278.54 384.383 282.341 381.023 288.503 379.523C304.382 375.664 316.937 390.09 329.818 389.195C333.143 388.963 341.338 387.777 339.664 383.22C335.282 382.999 331.725 385.185 327.249 384.987C325.308 384.906 321.088 384.208 319.995 382.371C331.271 381.209 342.571 375.838 353.835 379.744C354.393 380.523 354.486 391.055 354.091 391.66H354.114ZM311.45 390.916C314.496 388.033 301.255 383.987 300.337 384.941C299.977 385.313 300.232 388.01 301.174 388.788C302.278 389.695 310.613 391.695 311.45 390.916Z" fill="#8D30B7"/>
<path d="M90.191 315.387C98.1193 324.292 114.394 338.893 120.219 348.205C122.125 351.25 122.776 356.551 123.241 360.143L64.6043 301.146C63.5116 299.472 70.4401 293.369 71.3817 293.52C72.8116 293.764 87.7963 312.702 90.191 315.387Z" fill="#8D30B7"/>
<path d="M114.697 305.854C114.394 306.831 97.6428 315.12 96.4338 314.759L83.0417 299.449L114.697 283.197V305.854Z" fill="#4FB8E6"/>
<path d="M668.118 168.703L636.533 220.795L634.847 213.448C641.997 197.056 652.425 181.804 659.667 165.262L668.13 168.714L668.118 168.703Z" fill="#8D30B7"/>
<path d="M498.788 311.412C499.974 317.12 502.124 322.061 501.38 328.106C500.938 331.709 497.544 338.975 493.371 338.708C490.116 338.498 478.781 336.929 479.258 332.57C480.327 322.712 494.115 319.398 498.788 311.4V311.412Z" fill="#8D30B7"/>
<path d="M648.495 176.341C649.146 176.98 642.823 188.873 641.648 189.582C639.881 190.651 626.815 190.361 625.338 188.582C623.409 186.245 621.944 178.375 619.41 175.492L648.495 176.341Z" fill="#4E66CC"/>
<path d="M323.424 376.408C323.517 376.512 323.738 378.21 322.994 378.105C313.02 380.511 304.661 376.698 295.198 374.269C296.407 373.071 296.803 370.432 298.116 369.491C301.244 367.247 303.22 371.246 301.302 363.318L307.579 355.029C311.753 361.656 314.996 368.933 320.378 374.745C321.436 375.885 323.296 376.28 323.412 376.408H323.424Z" fill="#8D30B7"/>
<path d="M36.4138 260.994C42.2496 263.156 48.0737 262.901 52.7005 267.783C54.0955 269.26 56.9436 273.514 56.1183 275.479C55.8741 276.072 47.1902 283.861 46.5625 283.965C45.7604 284.105 42.6565 281.815 41.9473 281.094C36.9486 276.025 38.4482 267.446 36.4138 260.994Z" fill="#4E66CC"/>
<path d="M479.118 397.763C477.642 402.622 472.934 437.358 471.341 438.706C470.737 439.218 467.493 438.567 466.296 438.788L470.679 400.855C471.178 399.355 478.677 397.333 479.118 397.751V397.763Z" fill="#8D30B7"/>
<path d="M125.392 176.341L152.409 198.963C153.815 200.37 152.513 202.044 151.49 203.323L148.642 202.683C144.352 197.94 123.299 187.245 121.044 183.188C120.126 181.526 124.381 177.759 125.38 176.341H125.392Z" fill="#8D30B7"/>
<path d="M677.477 155.694C675.721 156.717 669.967 151.381 667.328 151.486C668.874 139.489 678.07 140.012 686.986 136.141C686.475 144.208 682.185 149.684 677.477 155.694Z" fill="#4E66CC"/>
<path d="M353.37 366.98C348.128 360.76 345.547 359.912 339.688 366.119C341.176 363.469 336.27 360.121 336.27 359.702C336.27 358.831 347.314 347.31 348.255 346.868C350.127 345.997 353.37 347.194 353.37 348.589V366.968V366.98Z" fill="#8D30B7"/>
<path d="M741.74 301.995C733.707 305.971 728.627 309.97 719.501 305.413C719.164 304.971 722.454 295.567 723 294.811C726.348 290.184 738.578 299.217 741.74 301.984V301.995Z" fill="#8D30B7"/>
<path d="M389.257 35.3175C390.559 36.5613 391.547 66.8097 391.861 71.1807H388.466C387.734 59.1139 384.7 47.268 384.165 35.271C385.293 35.4686 388.838 34.9222 389.257 35.3175Z" fill="#8D30B7"/>
<path d="M59.9311 278.931C61.4307 282.593 65.1507 285.639 67.592 288.871L60.3844 296.869L50.5613 287.057C52.1423 285.918 58.5244 277.931 59.9427 278.943L59.9311 278.931Z" fill="#EAEAEA"/>
<path d="M140.097 171.295C141.12 171.016 141.876 171.155 142.492 172.062C144.259 176.968 156.721 189.36 157.325 193.161C157.488 194.196 157.116 195.998 156.186 195.975C155.43 195.951 146.2 187.082 145.049 185.745C143.77 184.245 137.784 175.898 137.319 174.608C136.958 173.596 139.306 171.504 140.085 171.295H140.097Z" fill="#8D30B7"/>
<path d="M669.037 274.653C670.49 275.92 668.456 276.188 667.921 276.56C666.84 277.315 662.922 279.71 661.922 280.012C660.702 280.373 647.379 277.71 646.856 277.152C646.601 276.873 646.194 270.759 645.938 269.526C648.914 270.945 668.142 273.874 669.037 274.653Z" fill="#8D30B7"/>
<path d="M333.689 360.992C335.073 365.398 338.688 373.047 332.852 375.965C329.446 377.674 322.274 372.164 322.646 370.083C322.773 369.362 331.608 359.981 333.689 360.992Z" fill="#8D30B7"/>
<path d="M101.432 160.96C106.861 162.343 111.86 163.785 116.045 167.761C116.394 168.47 111.941 175.526 111.29 175.933C106.977 178.688 101.13 164.424 101.432 160.96Z" fill="#4E66CC"/>
<path d="M494.522 343.055C494.754 343.276 493.034 348.891 492.243 349.089C488.907 349.903 482.106 346.752 478.27 347.322L479.13 339.638C483.954 341.812 489.314 342.439 494.522 343.067V343.055Z" fill="#EAEAEA"/>
<path d="M380.84 22.3436C380.038 21.6577 379.852 16.0428 380.084 14.5316C380.247 13.497 382.247 7.2078 383.735 7.91693C386.734 9.35843 391.128 21.0184 387.048 22.332C386.176 22.611 381.224 22.6807 380.84 22.3552V22.3436Z" fill="#8D30B7"/>
<path d="M292.63 367.84H293.49C292.677 369.049 291.909 373.315 290.712 374.466C290.026 375.128 283.086 377.337 281.958 377.256C281.005 376.082 281.389 373.408 281.958 372.129C282.272 371.432 288.259 365.189 288.736 365.305C289.596 365.503 290.805 368.177 292.642 367.84H292.63Z" fill="#8D30B7"/>
<path d="M354.23 374.676H338.827C341.268 372.014 342.942 367.817 346.081 366.073C347.418 366.073 354.184 372.618 354.219 374.676H354.23Z" fill="#8D30B7"/>
<path d="M320.844 366.98C319.344 368.038 317.124 363.957 317.368 362.411L327.272 352.472C335.038 357.436 321.913 361.318 320.844 366.98Z" fill="#4E66CC"/>
<path d="M407.066 69.2623C406.752 69.5761 401.277 71.4943 402.149 69.053C405.113 65.3446 405.264 58.2999 407.426 54.6612C408.24 53.3011 408.519 52.9407 410.251 53.2197C413.03 54.08 407.659 68.6578 407.066 69.2623Z" fill="#8D30B7"/>
<path d="M663.096 161.728C662.329 160.658 665.294 154.985 666.038 154.974C667.316 156.996 673.745 158.519 674.094 160.623C674.257 161.612 671.687 165.262 670.339 165.25C669.932 165.25 663.329 162.053 663.096 161.728Z" fill="#EAEAEA"/>
<path d="M490.232 353.32L477.41 357.586C475.457 346.891 483.722 352.645 490.232 353.32Z" fill="#8D30B7"/>
<path d="M133.541 170.342C132.181 166.634 129.205 163.448 129.251 159.229C132.983 162.763 142.922 167.087 133.541 170.342Z" fill="#EAEAEA"/>
<path d="M718.641 292.603C718.269 293.986 716.362 301.6 715.99 301.903C715.479 302.321 713.584 301.844 712.666 301.996C713.119 297.462 712.596 290.917 718.641 292.591V292.603Z" fill="#EAEAEA"/>
<path d="M654.482 283.21C655.33 284.291 647.832 287.93 646.798 288.325V281.489L654.482 283.21Z" fill="#EAEAEA"/>
<path d="M389.303 30.992C385.316 31.085 381.666 32.015 382.445 26.7256C387.292 26.5396 389.954 24.1332 389.303 30.992Z" fill="#EAEAEA"/>
<path d="M293.49 367.84H292.63C293.048 365.701 295.071 357.796 298.175 358.435C302.79 359.4 293.815 367.352 293.478 367.84H293.49Z" fill="#4E66CC"/>
<path d="M115.557 179.746C114.673 178.77 118.486 171.69 120.242 172.062C123.846 172.829 116.592 180.897 115.557 179.746Z" fill="#EAEAEA"/>
<path d="M417.529 36.9791C417.111 39.0484 417.692 45.0469 414.553 43.803C411.007 42.3964 416.425 35.7352 417.529 36.9791Z" fill="#8D30B7"/>
<path d="M462.006 188.302C463.378 190.685 470.923 203.101 470.19 204.542C469.876 205.17 468.923 205.74 468.295 206.135L368.762 241.312L366.774 241.173L365.414 239.952L330.701 160.925C329.946 157.752 324.528 149.753 328.19 147.324L425.48 128.619L427.329 130.2C438.21 149.951 450.73 168.807 462.006 188.302ZM464.575 202.822L423.016 132.874L331.98 150.683L368.796 236.162L464.575 202.822Z" fill="#17171B"/>
<path d="M556.971 126.748C560.029 129.41 579.512 145.534 579.931 147.01C580.21 147.987 580.314 148.998 579.687 149.87L521.282 174.48C519.818 174.55 515.226 167.633 513.773 166.041C512.819 164.983 511.436 164.25 510.762 163.495C494.986 145.766 480.072 127.19 464.11 109.601L464.785 106.416L520.573 95.9531C532.872 105.997 544.997 116.32 556.971 126.736V126.748ZM547.846 125.597C547.148 124.981 546.811 123.644 545.904 122.865C537.162 115.332 528.211 108.02 519.573 100.359L470.574 109.647L521.631 168.679L573.223 148.091C573.525 146.592 572.444 145.987 571.526 145.092C564.249 138.071 555.413 132.177 547.846 125.585V125.597Z" fill="#17171B"/>
<path d="M201.955 341.334C202.001 347.74 201.78 354.192 201.92 360.609C202.024 365.212 206.151 379.255 197.665 376.872C187.923 374.14 173.462 364.968 163.766 360.272C161.941 359.388 159.756 359.132 158.326 358.435C150.398 354.587 142.702 350.053 134.436 346.821L132.658 345.182V276.792C132.658 275.665 135.994 275.048 137.157 275.688L200.211 300.751C201.629 302.205 201.815 304.739 201.978 306.68C202.873 317.41 201.862 330.314 201.943 341.334H201.955ZM136.947 280.628V342.613L197.677 371.246C197.491 348.774 198.339 326.245 196.677 303.855L136.936 280.628H136.947Z" fill="#17171B"/>
<path d="M321.529 55.1608C342.408 52.7893 348.976 62.7868 330.539 75.2838C318.797 83.2469 292.56 93.6862 278.528 92.5353C268.077 91.6751 264.927 84.5489 272.111 76.7369C278.772 69.4945 311.381 56.3233 321.529 55.1608ZM274.239 87.4203C276.343 88.0597 285.654 87.4203 288.782 87.4203C296.594 87.4203 322.506 75.5976 329.341 70.6686C337.665 64.6701 341.338 59.1366 327.272 59.1482C323.889 59.1482 320.146 59.9387 316.879 60.7873C305.464 63.7401 289.235 70.4012 279.203 76.9926C276.959 78.469 269.31 85.909 274.239 87.4203Z" fill="#17171B"/>
<path d="M213.079 157.519C211.847 151.277 217.927 150.451 221.24 147.301C226.913 141.884 232.319 130.421 231.052 122.47C228.459 119.889 212.394 128.096 209.383 130.317C200.687 136.711 182.912 157.252 180.925 167.749C178.983 177.991 192.794 169.9 196.746 167.273C199.094 165.703 209.406 155.578 211.359 157.519C213.091 159.251 208.65 163.285 207.534 164.378C202.873 168.935 190.98 177.305 184.412 177.259C178.937 177.224 175.821 173.748 176.333 168.307C177.437 156.473 197.107 133.525 206.813 126.887C210.94 124.062 223.437 117.413 228.064 117.471C244.595 117.669 230.842 144.639 224.623 150.672C223.216 152.032 214.347 158.775 213.079 157.508V157.519Z" fill="#17171B"/>
<path d="M279.61 109.845C285.887 109.171 290.049 111.345 287.956 118.239C285.864 125.132 270.809 133.479 263.974 133.653C260.742 133.735 257.824 133.374 257.476 129.747C256.604 120.54 271.333 110.729 279.61 109.845ZM261.847 129.306C266.915 129.41 272.553 126.934 276.657 124.028C279.424 122.063 289.212 113.217 280.33 113.949C273.797 114.484 262.811 122.458 261.847 129.306Z" fill="#17171B"/>
<path d="M157.477 360.144C162.522 364.48 171.357 366.921 176.263 370.862C178.867 372.954 178.774 375.64 175.193 375.372C168.765 371.641 162.255 368.014 155.768 364.422C151.49 362.062 153.164 360.888 157.477 360.144Z" fill="#17171B"/>
<path d="M234.377 273.014C234.807 275.467 234.563 277.408 231.691 277.071C229.215 276.781 217.695 272.63 215.067 271.387C214.01 270.887 211.022 269.875 211.382 268.271C211.545 267.574 213.184 266.26 214.196 266.272C218.218 266.318 229.389 272.572 234.377 273.014Z" fill="#17171B"/>
<path d="M519.434 89.0245C518.516 87.5365 519.272 84.5373 521.922 85.2115C525.247 86.0718 535.105 92.5702 537.686 95.1277C538.837 96.2669 540.174 96.9412 539.848 98.9407C538.802 102.87 530.536 95.1161 528.653 93.8954C526.967 92.8027 519.702 89.4663 519.423 89.0245H519.434Z" fill="#17171B"/>
<path d="M373.865 84.0495C374.295 84.7121 373.947 86.4094 373.075 87.0139C369.425 89.5597 361.554 80.9688 360.218 82.2941C363.217 89.9434 354.998 88.4321 355.916 81.9105C356.265 79.4111 359.032 77.6673 361.415 78.0161C362.101 78.1091 373.482 83.4682 373.865 84.0495Z" fill="#17171B"/>
<path d="M168.184 195.999C170.195 195.58 170.439 198.417 170.369 199.835C170.218 203.171 163.754 216.703 159.627 215.657C158.523 214.669 158.07 214.634 158.744 213.099C159.72 210.902 162.104 208.147 163.336 205.706C164.394 203.625 166.544 196.336 168.172 195.999H168.184Z" fill="#17171B"/>
<path d="M151.443 225.863C150.269 227.677 138.156 230.118 139.539 224.701C139.969 222.992 154.64 220.911 151.443 225.863Z" fill="#17171B"/>
<path d="M416.46 78.1558C421.633 77.5746 419.018 83.422 413.6 83.98C406.823 84.6891 409.811 78.8998 416.46 78.1558Z" fill="#17171B"/>
<path d="M315.74 95.9653C313.88 92.036 322.378 87.7696 323.424 91.2804C324.308 94.2448 318.123 96.7442 315.74 95.9653Z" fill="#17171B"/>
<path d="M359.02 61.8449C363.042 60.5894 363.949 64.9604 360.497 65.902C357.393 66.7507 356.579 62.6005 359.02 61.8449Z" fill="#17171B"/>
<path d="M545.847 99.383C544.045 101.196 539.755 96.965 541.58 95.1166C543.405 93.2682 547.672 97.5346 545.847 99.383Z" fill="#17171B"/>
<path d="M433.781 68.611V64.333C439.71 63.6123 439.605 69.3783 433.781 68.611Z" fill="#17171B"/>
<path d="M172.869 210.53C173.578 217.401 168.044 218.087 169.451 210.53H172.869Z" fill="#17171B"/>
<path d="M400.393 93.3835C399.533 94.6623 394.035 93.7207 396.267 90.1169C397.859 87.5594 402.184 90.7098 400.393 93.3835Z" fill="#17171B"/>
<path d="M131.39 241.312C134.297 240.534 135.32 244.114 133.088 244.719C130.181 245.497 129.158 241.917 131.39 241.312Z" fill="#17171B"/>
<path d="M431.851 227.421L409.845 235.326C409.833 234.21 408.45 231.919 409.031 231.117C409.612 230.315 425.132 224.456 427.097 223.945C430.642 223.026 434.56 222.771 431.851 227.421Z" fill="#17171B"/>
<path d="M542.463 168.691C542.986 167.9 558.855 162.088 560.18 161.948C563.563 161.565 563.935 164.599 561.191 166.459C560.564 166.889 547.974 171.667 546.916 171.888C544.44 172.387 540.778 171.283 542.463 168.702V168.691Z" fill="#17171B"/>
<path d="M302.894 457.608C323.156 457.388 343.431 457.446 363.635 458.887L381.503 514.397C380.945 515.757 379.829 515.652 378.631 515.792C360.903 517.733 336.06 515.466 317.89 514.862C313.159 514.699 299.86 515.873 296.582 514.78C295.477 514.408 295.5 513.653 295.105 512.839C293.152 508.817 291.234 496.227 290.048 490.961C288.863 485.695 283.131 462.165 284.178 459.015C284.55 457.887 285.154 457.806 286.189 457.608C290.292 456.853 298.186 457.667 302.871 457.608H302.894ZM360.984 462.828L288.363 461.886L298.628 510.607L375.609 511.467L360.984 462.828Z" fill="#17171B"/>
<path d="M599.519 372.315C618.898 369.002 619.293 384.707 613.841 398.599C612.888 401.029 608.924 410.561 606.169 409.724C602.1 408.48 608.68 399.843 609.563 397.751C613.237 389.067 616.003 374.826 601.949 376.453C583.744 378.558 554.972 413.886 551.217 430.905C545.463 456.992 575.083 439.415 585.104 432.289C586.859 431.045 592.811 425.232 593.335 425.116C595.415 424.662 595.857 427.58 595.02 429.382C591.963 435.962 567.248 448.18 559.866 448.959C541.22 450.923 544.777 431.161 550.357 419.803C558.239 403.772 581.059 375.465 599.507 372.315H599.519Z" fill="#17171B"/>
<path d="M439.559 496.297C445.325 495.576 457.88 495.181 462.03 499.9C469.54 508.456 454.311 519.686 446.662 521.348C440.152 522.767 428.038 524.138 421.598 523.208C410.217 521.581 409.485 513.815 417.518 506.747C422.958 501.97 432.386 497.192 439.559 496.285V496.297ZM442.151 500.586C427.689 502.249 400.778 520.581 429.933 519.14C437.582 518.768 450.044 516.931 455.636 511.502C466.994 500.458 450.568 499.621 442.151 500.586Z" fill="#17171B"/>
<path d="M274.669 501.214C278.412 509.514 270.693 516.768 262.486 515.559C260.8 515.315 252.36 511.607 250.721 510.619C249.535 509.898 243.955 505.317 242.979 504.248C236.039 496.622 239.259 486.613 250.303 486.857C253.418 486.927 266.973 494.03 269.821 496.238C270.751 496.959 274.367 500.54 274.669 501.225V501.214ZM249.675 491.135C245.35 491.309 242.898 493.553 244.083 498.005C245.246 502.423 258.254 510.281 262.672 511.13C271.03 512.734 274.064 504.725 267.426 499.482C266.752 498.947 253.058 491.856 252.174 491.577C251.175 491.263 250.814 491.088 249.675 491.135Z" fill="#17171B"/>
<path d="M543.056 468.931C554.437 466.966 557.576 473.104 550.984 481.974C546.602 487.868 529.129 499.97 522.317 494.378C512.749 486.531 536.348 470.093 543.056 468.931ZM550.124 473C544.23 471.953 539.906 475.104 535.314 478.289C518.539 489.891 522.945 497.598 540.126 485.671C544.509 482.625 549.868 478.801 550.124 473.011V473Z" fill="#17171B"/>
<path d="M315.729 523.429C314.461 521.441 316.74 520.197 318.67 519.977C325.447 519.198 339.932 519.465 346.93 520.035C348.337 520.151 354.719 520.93 355.056 522.174C356.428 527.103 348.29 524.336 346.116 524.266C341.862 524.127 316.728 525.022 315.717 523.429H315.729Z" fill="#17171B"/>
<path d="M565.271 421.024C577.292 418.257 574.571 435.765 564.307 435.323C554.216 434.893 558.11 422.675 565.271 421.024ZM568.933 425.128C565.051 424.349 558.575 431.231 565.097 431.196C568.48 431.173 569.073 428.046 568.933 425.128Z" fill="#17171B"/>
<path d="M490.883 441.52C493.313 441.159 495.777 442.194 494.126 444.821C493.65 445.588 487.198 448.006 485.78 448.448C482.664 449.401 466.505 452.866 465.447 449.483C464.087 445.17 472.109 446.762 474.41 446.483C476.503 446.228 478.781 445.705 480.851 445.216C484.361 444.391 488.465 441.868 490.895 441.52H490.883Z" fill="#17171B"/>
<path d="M487.802 423.535C489.151 422.675 503.682 425.43 505.24 426.79C507.437 428.697 506.856 431.231 503.729 430.94C502.252 430.801 489.814 428.162 488.872 427.755C486.71 426.814 486.233 424.535 487.802 423.524V423.535Z" fill="#17171B"/>
<path d="M601.228 400.099C600.089 401.168 597.822 401.215 596.322 401.18C595.334 397.623 599.298 396.762 598.88 393.496L593.753 394.344C593.079 389.985 596.195 388.462 600.159 389.206C604.355 389.997 603.623 397.855 601.228 400.099Z" fill="#17171B"/>
<path d="M436.838 459.363C437.931 459.119 444.325 461.433 443.185 464.002C439.396 468.687 431.886 460.479 436.838 459.363Z" fill="#17171B"/>
<path d="M496.23 450.773C497.428 453.737 491.15 458.085 490.244 454.597C489.43 451.459 493.801 450.145 496.23 450.773Z" fill="#17171B"/>
<path d="M442.197 472.012C438.814 474.081 436.152 470.129 438.861 468.234C442.22 465.885 444.452 470.628 442.197 472.012Z" fill="#17171B"/>
<path d="M501.229 437.811C500.462 438.276 498.939 437.811 497.951 437.951C497.497 427.546 505.147 435.451 501.229 437.811Z" fill="#17171B"/>
<path d="M431.212 429.395C431.735 429.895 431.2 434.184 429.096 433.661C424.539 432.522 428.945 427.232 431.212 429.395Z" fill="#17171B"/>
<path d="M584.337 306.285C584.349 307.436 584.558 308.645 583.93 309.714C583.465 310.493 568.515 317.061 567.457 317.247C563.214 317.991 562.296 315.004 566.341 312.655C568.411 311.446 583.302 305.239 584.349 306.297L584.337 306.285Z" fill="#17171B"/>
<path d="M311.451 390.915C310.614 391.706 302.279 389.706 301.174 388.788C300.233 388.009 299.965 385.312 300.337 384.94C301.256 383.987 314.497 388.032 311.451 390.915Z" fill="#17171B"/>
<path d="M464.576 202.822L368.797 236.163L331.98 150.684L423.016 132.874L464.576 202.822ZM421.668 143.127L346.024 159.182L347.233 164.936L371.32 215.249L375.644 215.272L447.347 190.755L446.975 186.628L421.656 143.116L421.668 143.127ZM454.311 195.138C453.381 194.208 437.873 197.998 440.628 202.822C441.244 203.45 452.59 199.706 453.462 198.986C454.404 198.207 454.66 195.487 454.299 195.126L454.311 195.138ZM423.423 202.903C422.295 202.078 399.557 209.262 399.58 211.808L401.882 213.831C404.928 212.494 423.842 207.588 424.26 205.717C424.353 205.31 423.563 203.008 423.423 202.903Z" fill="#EAEAEA"/>
<path d="M547.846 125.597C555.414 132.189 564.249 138.083 571.526 145.104C572.445 145.988 573.526 146.604 573.223 148.104L521.631 168.691L470.574 109.66L519.574 100.371C528.211 108.032 537.162 115.344 545.905 122.877C546.811 123.656 547.148 124.993 547.846 125.609V125.597ZM521.341 153.8C523.445 155.799 526.886 159.229 529.804 158.206C535.116 154.672 560.134 148.522 563.017 145.174C563.668 144.407 564.179 143.953 563.423 142.988L519.341 105.707C517.377 105.161 514.552 106.277 512.471 106.637C509.03 107.23 487.698 111.88 486.338 112.996C484.768 114.263 484.606 116.286 485.919 117.809C498.463 128.969 509.193 142.303 521.341 153.8Z" fill="#EAEAEA"/>
<path d="M136.947 280.629L196.688 303.856C198.339 326.257 197.502 348.787 197.688 371.246L136.959 342.614V280.629H136.947ZM140.365 287.476V340.056C142.26 341.719 144.666 342.683 146.898 343.788C157.861 349.193 175.763 358.354 186.795 362.051C188.481 362.62 189.888 362.957 191.69 362.725C191.166 349.252 192.375 335.522 191.736 322.072C191.62 319.596 190.76 308.424 189.992 307.564L140.365 287.488V287.476Z" fill="#EAEAEA"/>
<path d="M360.985 462.827L375.609 511.467L298.628 510.606L288.364 461.886L360.985 462.827ZM366.123 506.259L354.254 469.117L295.559 467.815L303.871 506.224L366.123 506.259Z" fill="#EAEAEA"/>
<path d="M371.343 69.9014C370.867 71.6335 375.18 71.8311 376.144 71.9241C378.818 72.1915 381.504 71.9706 384.166 72.0288C386.293 61.078 376.679 66.4952 371.332 69.9014H371.343Z" fill="#8D30B7"/>
<path d="M164.092 184.223L165.161 178.898C164.847 178.561 156.919 181.979 156.652 182.363C155.664 183.746 159.232 188.094 160.476 189.152L164.092 184.234V184.223Z" fill="#8D30B7"/>
<path d="M420.714 66.2392C421.493 65.8091 423.004 65.5882 421.795 64.3443C421.54 64.077 415.006 62.682 414.6 62.775C412.937 63.147 412.426 67.1343 411.531 68.5991C412.344 69.2269 419.459 66.9251 420.703 66.2392H420.714Z" fill="#8D30B7"/>
<path d="M147.2 206.275C141.562 202.276 140.19 208.309 139.516 213.099C140.597 214.25 148.235 207.74 147.2 206.275Z" fill="#8D30B7"/>
<path d="M398.057 68.4253C398.394 67.6232 399.847 63.7405 399.557 63.4847C394.186 62.3454 396.557 66.2282 396.139 70.3202C398.603 70.7736 397.522 69.6809 398.057 68.437V68.4253Z" fill="#8D30B7"/>
<path d="M274.239 87.4206C276.343 88.0599 285.654 87.4206 288.781 87.4206C296.594 87.4206 322.506 75.5979 329.341 70.6689C337.665 64.6704 341.338 59.1368 327.284 59.1485C323.901 59.1485 320.157 59.939 316.891 60.7876C305.475 63.7403 289.246 70.4015 279.214 76.9929C276.97 78.4693 269.321 85.9093 274.25 87.4206H274.239Z" fill="#8D30B7"/>
<path d="M280.331 113.949C273.797 114.484 262.812 122.459 261.847 129.306C266.915 129.411 272.553 126.934 276.657 124.028C279.424 122.063 289.212 113.217 280.331 113.949Z" fill="#8D30B7"/>
<path d="M442.151 500.586C427.69 502.249 400.778 520.581 429.933 519.14C437.583 518.768 450.045 516.931 455.636 511.502C466.994 500.459 450.568 499.621 442.151 500.586Z" fill="#8D30B7"/>
<path d="M267.415 499.482C266.74 498.947 253.046 491.856 252.163 491.577C251.163 491.263 250.803 491.088 249.663 491.135C245.339 491.309 242.886 493.553 244.072 498.005C245.234 502.423 258.243 510.281 262.66 511.13C271.018 512.734 274.053 504.725 267.415 499.482Z" fill="#8D30B7"/>
<path d="M535.314 478.277C518.539 489.879 522.945 497.586 540.127 485.659C544.51 482.613 549.869 478.789 550.124 472.999C544.231 471.953 539.906 475.104 535.314 478.289V478.277Z" fill="#8D30B7"/>
<path d="M565.097 431.184C568.48 431.161 569.073 428.034 568.933 425.116C565.051 424.337 558.576 431.219 565.097 431.184Z" fill="#8D30B7"/>
<path d="M421.668 143.128L446.987 186.64L447.359 190.767L375.656 215.285L371.331 215.261L347.244 164.948L346.035 159.194L421.679 143.14L421.668 143.128ZM419.133 147.359L351.662 161.798L364.507 192.569C366.46 192.918 365.867 192.453 366.402 191.476C371.901 181.491 370.424 175.748 383.7 185.687C387.165 183.641 391.896 184.699 395.07 183.374C396.627 182.723 402.021 177.096 403.428 175.48C409.578 168.378 413.519 157.287 425.225 159.217L419.133 147.348V147.359ZM435.49 176.329C431.444 165.099 423.76 157.148 413.67 168.633C409.02 173.934 405.393 180.921 399.568 185.734C403.23 186.315 405.346 183.478 408.392 182.165C416.936 178.491 426.097 175.841 435.49 176.329ZM438.78 180.747C437.85 180.165 428.689 180.619 426.748 180.84C420.203 181.618 414.239 184.432 408.125 186.594C409.136 189.721 417.657 187.501 418.389 188.291C418.75 191.535 418.506 192.058 415.332 192.465C405.823 193.708 393.861 186.059 386.246 189.07C382.549 190.535 374.551 202.032 372.959 205.787C371.738 208.682 373.552 211.123 376.679 210.356C398.545 202.997 420.11 194.418 442.337 188.268C442.616 187.954 439.129 180.944 438.78 180.723V180.747ZM374.435 184.943C373.087 185.164 365.065 200.277 370.052 201.962C371.378 199.347 378.423 191.279 378.934 189.419C379.48 187.431 375.621 184.746 374.435 184.943Z" fill="#17171B"/>
<path d="M423.423 202.904C423.563 203.008 424.342 205.31 424.26 205.717C423.853 207.588 404.928 212.494 401.882 213.831L399.58 211.808C399.557 209.262 422.296 202.078 423.423 202.904Z" fill="#17171B"/>
<path d="M454.311 195.138C454.671 195.499 454.415 198.207 453.474 198.998C452.602 199.719 441.244 203.45 440.639 202.834C437.884 198.01 453.392 194.22 454.322 195.15L454.311 195.138Z" fill="#17171B"/>
<path d="M521.34 153.8C509.192 142.314 498.474 128.969 485.919 117.809C484.605 116.286 484.768 114.263 486.337 112.996C487.709 111.892 509.029 107.242 512.47 106.637C514.551 106.277 517.376 105.149 519.341 105.707L563.423 142.989C564.179 143.953 563.667 144.407 563.016 145.174C560.145 148.522 535.116 154.672 529.803 158.206C526.885 159.229 523.444 155.799 521.34 153.8ZM527.874 117.355C524.072 115.949 521.596 111.845 517.934 109.846L491.103 115.635L514.633 140.419C515.528 136.862 509.89 127.26 511.738 124.284C512.959 122.319 522.119 125.539 524.049 126.725C523.723 123.458 521.201 120.796 521.898 117.344H527.874V117.355ZM544.137 131.863C541.417 126.969 535.023 128.794 530.454 127.597C531.919 132.805 539.917 131.805 544.137 131.863ZM544.09 138.641C541.754 140.931 520.608 127.678 515.911 128.469C515.365 128.957 519.457 138.548 519.98 140.21C520.503 141.873 519.829 143.744 520.619 145.558C521.247 146.976 529.024 154.997 531.338 152.916L556.111 143.43C557.39 142.396 556.878 142.64 556.064 141.768C555.25 140.896 549.636 136.665 548.624 136.374C542.509 134.63 544.579 138.164 544.079 138.652L544.09 138.641Z" fill="#17171B"/>
<path d="M140.365 287.476L189.992 307.552C190.76 308.412 191.62 319.572 191.736 322.06C192.375 335.51 191.178 349.251 191.69 362.713C189.888 362.945 188.481 362.608 186.795 362.039C175.763 358.342 157.861 349.181 146.898 343.776C144.666 342.671 142.248 341.718 140.365 340.044V287.464V287.476ZM144.643 293.462V331.081C148.479 328.059 155.722 310.633 156.628 324.246C166.056 315.585 165.522 330.86 169.439 333.232C171.334 334.383 174.682 332.976 177.135 334.092C180.913 335.801 183.54 343.543 187.412 345.624L186.563 311.853L185.738 310.121L144.655 293.474L144.643 293.462ZM161.732 326.803C160.546 326.559 160.639 326.629 159.965 327.349C159.128 328.233 155.733 332.79 156.617 333.639C160.162 333.255 162.976 333.685 165.603 336.184L161.732 326.803ZM187.4 357.575C188.772 350.379 186.156 351.332 183.087 347.786C181.308 345.729 176.031 337.579 174.019 337.196C171.846 336.777 165.394 342.52 163.894 342.195C162.313 341.846 163.034 337.672 161.209 337.114C157.698 336.033 152.664 342.171 151.048 331.941L144.643 337.498L187.388 357.586L187.4 357.575Z" fill="#17171B"/>
<path d="M366.123 506.259L303.871 506.224L295.559 467.815L354.254 469.117L366.123 506.259ZM351.534 473.128C348.5 470.651 307.208 472.674 300.326 472.581L302.058 482.404C307.626 481.509 312.683 480.3 317.031 484.962C316.88 477.847 323.099 471.907 329.865 476.417C337.619 481.591 332.818 490.972 324.296 490.112C330.818 496.168 334.003 483.451 339.06 481.347C341.536 480.312 343.675 481.102 345.919 480.498C346.954 480.219 347.93 479.021 349.093 478.522C350.151 478.068 352.417 478.243 352.534 478.126C352.743 477.929 351.778 473.314 351.546 473.128H351.534ZM328.435 485.694C332.271 477.231 319.751 476.127 322.088 485.032C322.994 486.322 326.854 485.927 328.435 485.694ZM355.08 485.811C355.417 483.381 351.453 481.846 349.627 482.474C348.5 482.858 348.558 484.764 347.651 484.985C343.827 485.938 339.758 483.311 337.119 489.228C340.42 488.926 344.466 489.786 347.628 489.054C350.36 488.426 351.627 484.939 355.08 485.811ZM356.777 489.24C355.603 488.368 350.185 492.995 348.465 493.355C345.477 493.983 339.525 493.006 335.189 493.727C332.62 494.157 322.867 497.947 322.204 497.761C319.96 497.122 321.867 494.308 320.948 493.041C320.693 492.693 315.008 488.112 314.299 487.671C310.649 485.404 307.789 485.276 303.743 486.694C305.324 490.228 305.789 497.645 307.336 500.621C307.824 501.574 308.091 502.062 309.3 502.074L361.066 502.911L356.777 489.24Z" fill="#17171B"/>
<path d="M419.133 147.358L425.225 159.228C413.507 157.286 409.578 168.388 403.428 175.491C402.021 177.119 396.627 182.733 395.07 183.384C391.896 184.71 387.165 183.663 383.7 185.698C370.424 175.758 371.901 181.501 366.402 191.487C365.867 192.464 366.449 192.929 364.507 192.58L351.662 161.808L419.133 147.37V147.358ZM378.829 160.251C368.983 161.983 368.065 178.665 380.317 179.792C395.802 181.211 392.466 157.856 378.829 160.251Z" fill="#4FB8E6"/>
<path d="M438.78 180.746C439.128 180.967 442.616 187.988 442.337 188.291C420.11 194.44 398.545 203.02 376.679 210.378C373.563 211.145 371.738 208.704 372.959 205.81C374.551 202.043 382.538 190.558 386.246 189.093C393.86 186.082 405.823 193.72 415.332 192.487C418.505 192.069 418.75 191.546 418.389 188.314C417.657 187.523 409.136 189.744 408.124 186.617C414.239 184.454 420.203 181.629 426.748 180.862C428.689 180.63 437.85 180.176 438.78 180.769V180.746Z" fill="#4E66CC"/>
<path d="M435.489 176.329C426.096 175.829 416.924 178.479 408.391 182.165C405.346 183.478 403.23 186.315 399.568 185.733C405.392 180.921 409.019 173.934 413.669 168.633C423.76 157.147 431.444 165.099 435.489 176.329Z" fill="#4E66CC"/>
<path d="M374.435 184.943C375.609 184.745 379.469 187.431 378.934 189.419C378.422 191.279 371.378 199.346 370.052 201.962C365.065 200.276 373.086 185.175 374.435 184.943Z" fill="#4E66CC"/>
<path d="M544.091 138.64C544.579 138.152 542.521 134.63 548.636 136.362C549.647 136.653 555.251 140.861 556.076 141.756C556.901 142.651 557.401 142.384 556.123 143.418L531.35 152.904C529.036 154.985 521.259 146.964 520.631 145.546C519.841 143.744 520.515 141.814 519.992 140.198C519.469 138.582 515.365 128.945 515.923 128.457C520.631 127.666 541.766 140.919 544.102 138.629L544.091 138.64Z" fill="#4E66CC"/>
<path d="M544.138 131.863C539.918 131.817 531.92 132.805 530.455 127.597C535.024 128.782 541.418 126.969 544.138 131.863Z" fill="#4E66CC"/>
<path d="M527.874 117.355H521.899C521.201 120.796 523.724 123.458 524.049 126.724C522.12 125.539 512.959 122.33 511.738 124.283C509.89 127.259 515.528 136.85 514.633 140.419L491.104 115.634L517.935 109.845C521.597 111.833 524.073 115.948 527.874 117.355Z" fill="#4FB8E6"/>
<path d="M144.642 293.463L185.725 310.11L186.551 311.842L187.399 345.613C183.54 343.532 180.901 335.79 177.123 334.081C174.67 332.976 171.322 334.371 169.427 333.22C165.509 330.837 166.033 315.574 156.616 324.234C155.71 310.621 148.467 328.047 144.631 331.07V293.451L144.642 293.463ZM152.117 300.426C144.096 301.903 145.561 316.248 156.872 312.935C163.417 311.017 159.058 299.147 152.117 300.426Z" fill="#4FB8E6"/>
<path d="M187.4 357.575L144.655 337.486L151.06 331.93C152.687 342.171 157.721 336.022 161.22 337.103C163.045 337.661 162.313 341.834 163.906 342.183C165.498 342.532 171.857 336.766 174.031 337.184C176.042 337.568 181.32 345.717 183.099 347.775C186.168 351.32 188.772 350.367 187.411 357.563L187.4 357.575Z" fill="#4E66CC"/>
<path d="M161.731 326.804L165.602 336.185C162.975 333.685 160.162 333.255 156.616 333.639C155.733 332.79 159.127 328.233 159.964 327.35C160.638 326.629 160.545 326.571 161.731 326.804Z" fill="#4E66CC"/>
<path d="M552.693 316.538C549.124 318.143 526.479 328.629 525.002 328.35C524.398 328.233 523.945 327.757 523.584 327.28L495.405 239.058C495.173 237.616 495.405 236.186 496.602 235.245L582.047 210.46C591.626 231.641 599.984 253.693 608.296 275.49C609.737 279.269 614.597 286.046 611.342 289.22C591.556 297.752 572.316 307.68 552.693 316.527V316.538ZM579.977 215.726L500.869 238.686L526.177 322.525L607.412 286.569L579.989 215.726H579.977Z" fill="#17171B"/>
<path d="M579.978 215.727L607.401 286.57L526.165 322.526L500.858 238.686L579.966 215.727H579.978ZM578.269 226.875L511.134 242.987L530.443 304.216L595.951 278.083L578.269 226.875ZM602.275 284.861C606.297 278.734 588.731 283.326 589.487 287.035C590.184 290.487 601.903 285.43 602.275 284.861Z" fill="#EAEAEA"/>
<path d="M578.269 226.875L595.951 278.083L530.443 304.216L511.134 242.987L578.269 226.875ZM583.489 253.264L574.549 231.246L515.912 245.591L522.771 268.667L526.956 250.218C530.874 242.069 541.592 255.972 545.579 256.6C547.23 256.856 548.218 253.647 550.601 253.275C553.205 252.869 559.448 255.566 560.308 254.938C561.343 254.182 562.284 246.777 565.981 246.428C568.69 246.173 582.024 254.461 583.489 253.287V253.264ZM586.906 263.529C585.151 253.926 573.235 256.17 566.818 250.706L558.692 266.54C561.494 266.47 564.284 264.959 567.004 264.587C568.608 264.366 570.097 265.552 571.736 265.133C573.131 264.773 574.235 262.343 577.165 262.111C579.141 261.959 586.116 264.122 586.895 263.529H586.906ZM526.177 280.629C529.56 280.153 529.851 275.328 533.478 274.654C534.547 274.456 535.733 274.538 536.814 274.677C540.429 275.165 543.196 275.514 547.137 275.584C551.822 275.665 552.496 269.155 555.228 265.656C552.147 264.087 549.369 263.668 546.126 261.959C543.452 260.553 532.222 251.206 530.443 252.415C529.316 258.042 528.351 263.726 527.305 269.376C526.537 273.503 524.34 275.7 526.165 280.629H526.177ZM557.809 258.437C557.588 258.17 551.276 257.251 550.973 257.553C550.88 257.646 550.88 260.018 550.973 260.111C551.206 260.367 557.576 261.215 557.82 260.971C557.913 260.878 557.902 258.542 557.82 258.437H557.809ZM532.164 294.312C530.56 292.719 537.337 282.466 538.116 280.199C534.082 276.002 530.013 283.466 528.816 287.023L533.431 299.427L589.813 276.27C592.277 275.572 589.034 268.144 588.162 266.923C587.825 266.458 578.281 266.819 576.641 266.11C575.107 267.353 581.198 269.376 579.199 271.225C577.351 272.933 570.899 268.714 568.504 268.609C564.4 268.423 557.46 272.306 554.414 275.084C554.496 277.967 559.355 275.107 560.855 277.177C564.086 281.629 553.019 280.815 550.566 280.618C548.672 280.466 544.312 278.641 543.278 279.281C541.371 280.478 536.105 298.218 532.164 294.3V294.312Z" fill="#17171B"/>
<path d="M602.274 284.861C601.902 285.43 590.184 290.487 589.487 287.034C588.731 283.326 606.297 278.734 602.274 284.861Z" fill="#17171B"/>
<path d="M583.488 253.263C582.023 254.437 568.69 246.148 565.981 246.404C562.284 246.753 561.343 254.17 560.308 254.914C559.448 255.541 553.205 252.844 550.601 253.251C548.23 253.623 547.23 256.832 545.579 256.576C541.592 255.948 530.862 242.045 526.956 250.194L522.771 268.643L515.912 245.567L574.549 231.222L583.488 253.239V253.263Z" fill="#4E66CC"/>
<path d="M532.164 294.312C536.105 298.241 541.359 280.49 543.277 279.292C544.312 278.641 548.671 280.478 550.566 280.629C553.019 280.827 564.086 281.641 560.854 277.188C559.355 275.119 554.495 277.979 554.414 275.096C557.471 272.306 564.412 268.423 568.504 268.62C570.898 268.725 577.362 272.945 579.199 271.236C581.198 269.388 575.107 267.365 576.641 266.121C578.28 266.83 587.824 266.47 588.162 266.935C589.033 268.155 592.277 275.584 589.812 276.281L533.431 299.438L528.816 287.035C530.013 283.477 534.082 276.014 538.116 280.211C537.325 282.478 530.559 292.731 532.164 294.323V294.312Z" fill="#8D30B7"/>
<path d="M526.177 280.629C524.352 275.712 526.549 273.515 527.316 269.376C528.374 263.726 529.327 258.042 530.455 252.415C532.234 251.206 543.452 260.553 546.137 261.959C549.381 263.668 552.159 264.087 555.24 265.656C552.508 269.144 551.833 275.654 547.149 275.584C543.196 275.514 540.441 275.165 536.826 274.677C535.744 274.538 534.559 274.456 533.489 274.654C529.862 275.328 529.571 280.153 526.189 280.629H526.177Z" fill="#4E66CC"/>
<path d="M557.809 258.436C557.89 258.541 557.902 260.878 557.809 260.971C557.565 261.215 551.206 260.366 550.962 260.11C550.869 260.017 550.88 257.646 550.962 257.553C551.264 257.239 557.576 258.157 557.797 258.436H557.809Z" fill="#4E66CC"/>
<path d="M586.906 263.528C586.127 264.121 579.152 261.959 577.176 262.11C574.235 262.331 573.142 264.772 571.747 265.133C570.108 265.551 568.62 264.377 567.016 264.586C564.295 264.958 561.505 266.47 558.704 266.539L566.83 250.706C573.247 256.17 585.162 253.915 586.918 263.528H586.906Z" fill="#4E66CC"/>
<path d="M356.777 489.24L361.066 502.911L309.3 502.074C308.091 502.074 307.824 501.574 307.335 500.621C305.801 497.645 305.336 490.228 303.743 486.694C307.789 485.276 310.648 485.404 314.299 487.671C315.008 488.112 320.704 492.704 320.948 493.041C321.867 494.297 319.972 497.11 322.204 497.761C322.855 497.947 332.62 494.157 335.189 493.727C339.525 493.006 345.477 493.983 348.465 493.355C350.174 492.995 355.602 488.368 356.777 489.24Z" fill="#8D30B7"/>
<path d="M351.534 473.128C351.766 473.314 352.731 477.929 352.522 478.127C352.394 478.243 350.127 478.068 349.081 478.522C347.918 479.022 346.942 480.219 345.907 480.498C343.675 481.091 341.536 480.312 339.048 481.347C333.991 483.451 330.806 496.169 324.285 490.112C332.794 490.972 337.607 481.591 329.853 476.418C323.099 471.907 316.868 477.848 317.019 484.962C312.671 480.312 307.614 481.509 302.046 482.405L300.314 472.581C307.207 472.663 348.488 470.652 351.522 473.128H351.534Z" fill="#8D30B7"/>
<path d="M355.08 485.811C351.627 484.939 350.371 488.426 347.628 489.054C344.454 489.787 340.409 488.915 337.119 489.229C339.746 483.311 343.827 485.939 347.651 484.985C348.558 484.765 348.5 482.858 349.627 482.474C351.453 481.858 355.417 483.381 355.08 485.811Z" fill="#8D30B7"/>
<path d="M328.435 485.695C326.854 485.915 323.006 486.311 322.087 485.032C319.751 476.127 332.259 477.232 328.435 485.695Z" fill="#8D30B7"/>
<path d="M378.83 160.252C392.466 157.857 395.802 181.212 380.318 179.793C368.065 178.666 368.983 161.984 378.83 160.252ZM379.667 164.495C374.854 165.413 373.645 173.4 378.992 175.085C389.56 178.422 388.06 162.902 379.667 164.495Z" fill="#17171B"/>
<path d="M152.118 300.426C159.058 299.147 163.417 311.017 156.872 312.935C145.561 316.248 144.096 301.903 152.118 300.426ZM151.49 304.576C148.502 310.679 157.791 311.144 155.349 306.274C154.664 304.902 152.978 304.321 151.49 304.576Z" fill="#17171B"/>
<path d="M379.666 164.495C388.048 162.902 389.559 178.422 378.992 175.085C373.644 173.4 374.853 165.413 379.666 164.495Z" fill="#EAEAEA"/>
<path d="M298.524 200.37L272.948 281.117L184.993 250.578C184.377 248.625 185.017 246.777 185.447 244.893C189.911 225.619 200.443 205.554 205.337 186.117L207.081 183.583L298.524 200.37ZM293.49 203.694L210.208 188.396L190.015 248.102L271.228 275.479L293.49 203.694Z" fill="#17171B"/>
<path d="M293.49 203.694L271.228 275.479L190.015 248.102L210.208 188.396L293.49 203.694ZM281.4 208.077L214.509 196.126L197.711 243.824L262.997 265.179C264.055 264.888 264.078 263.947 264.474 263.168C271.693 248.729 273.878 227.409 281.307 212.459C281.539 211.378 281.899 208.856 281.4 208.077Z" fill="#EAEAEA"/>
<path d="M281.4 208.077C281.9 208.855 281.539 211.39 281.307 212.459C273.867 227.409 271.681 248.729 264.474 263.168C264.09 263.946 264.055 264.888 262.997 265.179L197.711 243.824L214.509 196.126L281.4 208.077ZM276.355 211.425L217.02 201.078L209.662 223.352C215.695 223.119 220.368 222.724 224.658 227.595C225.681 228.757 226.762 231.803 227.343 231.943C242.061 235.488 258.975 217.876 271.251 229.339L276.366 211.425H276.355ZM236.178 243.882C239.131 246.695 237.783 250.682 233.993 248.195C226.727 243.417 223.275 228.757 216.881 227.688C204.163 225.549 207.104 232.024 202.803 240.882L260.463 260.192C264.927 251.508 262.416 254.123 256.383 251.473C249.35 248.381 244.607 242.219 236.167 243.893L236.178 243.882ZM230.192 236.186C231.621 242.824 238.224 238.79 243.921 239.976C248.768 240.999 252.709 245.335 257.243 247.183C259.487 248.102 263.637 250.194 265.113 247.578C265.532 246.834 268.752 235.616 268.74 234.872C268.438 223.631 247.792 233.745 242.2 234.93C238.283 235.767 234.225 236.36 230.203 236.186H230.192Z" fill="#17171B"/>
<path d="M276.355 211.425L271.24 229.34C258.964 217.877 242.049 235.489 227.332 231.944C226.751 231.804 225.681 228.77 224.646 227.596C220.357 222.725 215.684 223.109 209.65 223.353L217.009 201.079L276.343 211.425H276.355ZM232.156 211.972C230.924 210.96 230.145 207.961 227.867 207.275C220.113 204.939 220.124 215.018 223.821 219.028C229.541 225.236 243.584 219.528 236.492 214.064C235.272 213.123 233.365 212.972 232.168 211.972H232.156ZM244.723 218.226C244.49 218.273 244.142 219.028 243.863 219.086C243.549 219.144 241.34 217.075 239.968 219.051C237.05 223.283 245.688 229.27 251.175 223.399C252.407 222.086 252.767 220.493 253.756 219.144C254.906 217.563 258.905 217.261 255.441 213.925C251.977 210.588 242.747 212.611 244.723 218.238V218.226Z" fill="#4FB8E6"/>
<path d="M236.178 243.882C244.618 242.208 249.361 248.357 256.394 251.461C262.416 254.112 264.938 251.496 260.474 260.18L202.814 240.871C207.115 232.024 204.186 225.537 216.892 227.676C223.286 228.757 226.739 243.405 234.004 248.183C237.782 250.671 239.142 246.683 236.19 243.87L236.178 243.882Z" fill="#8D30B7"/>
<path d="M230.192 236.187C234.214 236.361 238.283 235.768 242.189 234.931C247.792 233.734 268.438 223.62 268.729 234.873C268.752 235.629 265.52 246.847 265.102 247.579C263.625 250.195 259.475 248.102 257.231 247.184C252.698 245.336 248.757 241 243.909 239.977C238.213 238.779 231.61 242.825 230.18 236.187H230.192Z" fill="#8D30B7"/>
<path d="M232.156 211.971C233.353 212.959 235.271 213.122 236.48 214.064C243.572 219.539 229.529 225.236 223.809 219.028C220.112 215.017 220.101 204.938 227.855 207.275C230.133 207.961 230.912 210.948 232.144 211.971H232.156ZM232.749 217.354L225.913 211.378C225.192 216.726 227.878 217.97 232.749 217.354Z" fill="#17171B"/>
<path d="M244.723 218.226C242.758 212.6 251.884 210.484 255.441 213.913C258.998 217.343 254.918 217.552 253.755 219.133C252.767 220.493 252.407 222.086 251.175 223.388C245.688 229.247 237.05 223.26 239.968 219.04C241.328 217.064 243.549 219.133 243.862 219.075C244.851 225.62 251.035 217.936 249.838 216.506C248.199 217.32 246.513 217.843 244.711 218.215L244.723 218.226Z" fill="#17171B"/>
<path d="M243.874 219.074C244.142 219.028 244.502 218.272 244.735 218.214C246.525 217.842 248.21 217.319 249.861 216.505C251.047 217.923 244.874 225.619 243.886 219.074H243.874Z" fill="#EAEAEA"/>
<path d="M232.749 217.353C227.878 217.969 225.181 216.725 225.914 211.378L232.749 217.353Z" fill="#EAEAEA"/>
<path d="M151.49 304.576C152.966 304.332 154.652 304.902 155.349 306.274C157.802 311.145 148.502 310.68 151.49 304.576Z" fill="#EAEAEA"/>
<defs>
<linearGradient id="paint0_linear_83_5014" x1="383.588" y1="32.8291" x2="383.588" y2="561.95" gradientUnits="userSpaceOnUse">
<stop stop-color="#1F8BF7"/>
<stop offset="1" stop-color="#DC33FC"/>
</linearGradient>
<linearGradient id="paint1_linear_83_5014" x1="5.04211" y1="377.907" x2="619.828" y2="186.094" gradientUnits="userSpaceOnUse">
<stop stop-color="#1F8BF7"/>
<stop offset="0.461538" stop-color="#CC24FF"/>
<stop offset="0.870192" stop-color="#DC33FC"/>
</linearGradient>
</defs>
</svg>
