<svg width="794" height="620" viewBox="0 0 794 620" fill="none" xmlns="http://www.w3.org/2000/svg">
<path d="M665.455 330.049C665.455 473.531 549.311 596.837 406.039 596.837C262.767 596.837 146.623 473.531 146.623 330.049C146.623 186.566 262.767 70.251 406.039 70.251C549.311 70.251 665.455 186.566 665.455 330.049Z" fill="#D9D9D9"/>
<path d="M665.455 330.049C665.455 473.531 549.311 596.837 406.039 596.837C262.767 596.837 146.623 473.531 146.623 330.049C146.623 186.566 262.767 70.251 406.039 70.251C549.311 70.251 665.455 186.566 665.455 330.049Z" fill="url(#paint0_linear_83_677)"/>
<path d="M498.355 23.7048C499.465 25.227 531.175 34.4406 533.395 37.1946C536.175 40.6197 528.805 50.2137 529.325 54.7204C532.135 55.7318 549.405 61.7807 550.125 62.9224C552.345 66.4576 545.315 73.6081 546.695 75.8013C549.175 79.7471 568.195 81.4096 564.725 90.7433C563.535 93.938 550.755 109.881 551.695 111.814C562.045 119.315 572.735 126.726 582.255 135.279C591.625 143.691 600.495 153.816 608.765 162.729C610.335 164.421 611.555 168.678 614.195 167.336C620.805 163.961 631.565 148.338 637.925 146.976C645.645 145.323 647.165 158.553 650.625 157.772C657.915 151.763 664.835 145.223 672.275 139.405C681.355 132.304 693.715 122.28 703.235 116.391C707.095 113.997 707.705 112.996 711.635 115.81C712.955 116.761 720.765 125.424 720.925 126.486C721.255 128.779 717.345 132.194 715.665 133.827C708.105 141.187 699.875 148.158 692.065 155.278C690.415 157.321 692.365 159.094 691.445 161.507C690.335 164.421 685.535 166.204 685.245 167.406C684.545 170.33 695.095 182.228 697.215 185.292C697.905 186.294 697.995 188.387 698.295 188.657C699.435 189.659 724.245 188.567 728.625 188.817C782.325 191.922 819.425 218.03 771.595 266.812C743.925 295.033 704.255 314.061 670.205 333.36C666.535 336.364 668.595 344.616 668.165 349.323C667.065 361.431 664.945 373.629 662.205 385.476L662.635 387.84C690.715 407.368 725.435 428.85 744.935 457.542C790.565 524.681 685.205 520.224 647.695 517.861C635.725 517.109 623.605 515.337 611.695 513.895C611.235 516.699 615.505 518.602 616.065 520.585C617.665 526.183 602.085 534.145 602.355 537.199C602.705 540.995 620.305 554.945 620.155 559.382C620.005 563.818 607.075 573.332 604.445 577.368C605.925 582.796 620.585 596.236 620.245 600.332C620.135 601.664 619.475 602.074 618.715 602.916C614.145 607.943 601.075 613.07 596.165 619.35C594.555 620.281 592.865 620.141 591.215 619.38C588.385 618.068 578.825 601.734 577.195 597.888C575.775 596.797 561.735 606.891 558.245 605.429C554.495 603.857 545.415 581.284 542.745 581.083C538.095 583.377 523.315 593.231 518.925 591.759C516.345 590.898 512.605 577.929 511.245 574.884C409.895 623.215 287.965 596.766 212.835 514.946L185.765 537.75C180.855 539.092 173.815 528.787 170.005 526.063C161.755 531.33 156.695 540.294 148.015 544.92C146.435 544.92 140.435 538.481 139.005 536.899C136.955 534.635 124.065 519.413 123.745 518.121C122.255 512.202 131.685 506.454 134.525 501.887C102.605 504.441 64.585 508.927 33.385 500.595C-39.965 480.986 27.495 419.706 59.575 397.354C52.795 394.87 41.955 395.17 37.745 388.21C34.935 383.563 31.305 364.826 31.505 359.338C31.865 349.353 38.305 356.514 42.615 358.336C58.235 364.956 71.215 364.976 87.955 362.793C89.985 363.364 88.655 373.358 91.085 373.859C92.985 374.25 120.155 356.303 124.525 354.35C91.075 332.068 53.745 309.234 29.795 276.156C-31.465 191.521 79.005 185.252 136.075 187.786C148.495 188.337 161.885 191.311 174.015 191.822C176.345 191.922 179.005 192.383 181.065 190.9C185.235 187.896 190.985 173.074 196.445 169.329C196.445 167.476 172.345 149.97 170.905 144.843C169.925 141.348 182.065 118.644 184.935 116.741C191.075 112.675 193.715 121.749 196.025 122.78C197.095 123.261 199.035 123.241 198.505 121.308C195.255 114.829 166.005 85.9162 166.455 81.3595C166.795 77.8944 198.275 51.1251 203.245 46.979C206.485 46.0176 208.915 49.6129 210.995 51.7861C216.655 57.7248 221.525 65.5863 227.005 71.8055C229.045 72.3062 248.925 53.7489 253.045 52.7775L255.445 53.2782C260.185 57.7849 282.075 97.7836 284.725 97.6534C287.375 97.5232 305.215 88.55 309.895 86.7875C343.055 74.3492 377.895 68.9112 413.345 68.8111L414.365 28.3316C414.655 26.2786 415.845 25.217 417.865 24.8265C421.825 24.0754 440.915 23.9552 442.835 27.7808C444.085 30.2644 439.345 60.5089 440.275 68.3504C440.515 70.3633 440.725 72.0759 443.315 71.7954L457.565 2.54374L460.005 0L500.255 5.31781C505.025 8.27215 497.555 19.2282 498.315 23.7449L498.355 23.7048ZM496.325 9.76434L462.355 4.74697L443.365 99.7665C451.675 101.209 448.985 95.5503 450.845 92.7662C451.615 91.6145 453.965 91.3942 454.345 91.7748C455.575 93.0166 451.795 99.426 454.345 101.289C455.675 102.26 473.535 105.575 474.335 104.764L496.335 9.76434H496.325ZM485.365 75.8013C485.405 79.8172 478.335 99.9868 479.745 101.83L503.355 107.368L527.885 40.7398L496.335 28.7622C495.715 29.3331 492.415 44.4553 492.505 45.3065C492.665 46.9189 502.635 47.3796 499.325 50.7646C498.425 51.6759 491.845 49.2523 491.335 49.7631C490.505 50.5943 487.925 69.8326 486.335 72.7669C492.575 73.2175 502.335 75.7012 507.605 78.986C509.515 80.1778 509.575 80.4482 509.315 82.7716C507.315 84.6443 489.795 74.4594 485.375 75.8113L485.365 75.8013ZM418.375 80.7686H434.365L437.355 30.7752L420.995 29.7036L419.335 36.2332L418.375 80.7786V80.7686ZM256.825 118.444C255.715 117.072 254.585 113.987 252.885 111.884C236.845 91.9951 221.195 71.6853 204.025 52.7775L172.725 82.2608L259.125 177.711C261.515 178.112 267.075 168.628 270.475 168.768L270.455 167.316C269.915 165.703 259.555 158.693 263.475 156.28C267.395 153.866 272.075 164.201 274.835 163.71C276.765 161.557 285.515 154.467 285.505 152.284C277.255 141.568 268.545 131.213 260.025 120.717C259.155 119.646 257.535 119.335 256.815 118.444H256.825ZM260.485 112.776C263.125 116.121 265.655 120.717 268.505 124.252C271.565 128.048 286.905 147.016 289.475 148.348C290.435 148.839 290.495 148.849 291.455 148.348C294.215 146.916 298.765 140.566 302.515 139.224L254.495 61.2399L252.855 59.898C244.965 64.2844 238.115 71.1545 230.505 76.3021L240.985 88.5801C242.905 88.5801 251.725 78.315 255.475 78.7657C257.765 81.1692 245.355 90.9636 242.495 90.7733C241.625 91.8749 248.775 97.8938 249.485 98.7651C248.925 94.4788 251.125 92.1854 255.475 92.7662C256.085 96.2113 252.595 98.5247 249.485 98.7651C250.315 99.7665 251.135 103.893 252.995 104.764C254.855 105.635 255.455 100.638 258.155 99.9268C264.345 98.2843 258.755 106.226 254.485 105.785C254.905 108.76 258.235 110.212 259.485 111.774C259.525 112.004 260.245 112.746 260.485 112.776ZM544.285 65.7766C541.165 65.4561 528.135 58.2856 526.355 59.8179L508.385 109.671L520.205 113.697L544.285 65.7766ZM413.385 75.7713C370.225 74.6096 326.985 84.1636 288.455 103.302C286.825 104.363 288.675 106.256 289.305 107.438C294.865 117.903 301.685 127.798 307.975 137.832L307.745 140.496L260.465 184.321C255.715 186.514 255.125 177.661 250.505 177.791C250.075 181.166 235.175 199.303 233.845 199.703C232.315 200.164 230.765 199.032 229.555 198.231C220.875 192.513 211.415 181.467 203.055 174.757L200.505 174.256C170.885 213.163 151.345 262.045 148.575 311.327C148.235 317.296 147.685 346.118 150.555 349.333C151.145 349.994 164.885 357.425 166.075 357.805C167.585 358.286 167.585 357.906 167.325 356.514C166.005 349.483 169.845 348.672 171.175 354.791C171.615 356.794 170.475 359.398 171.495 360.309C229.755 391.405 291.105 416.632 353.765 437.553C401.965 423.292 449.255 406.307 496.315 388.821C492.845 380.98 475.135 382.872 482.805 372.807C484.275 370.875 499.845 356.333 501.035 355.993C510.525 353.239 530.655 375.001 534.355 374.35C577.055 356.854 619.655 339.068 661.035 318.668C661.655 304.357 659.835 289.635 656.905 275.615C655.155 267.212 649.265 243.768 645.415 237.108C642.515 232.101 642.725 235.776 641.475 236.788C639.255 238.6 625.945 249.126 625.435 250.027C624.435 251.77 626.615 256.336 621.795 252.741C614.905 240.744 609.755 226.733 602.445 215.106C599.775 210.86 587.845 197.28 587.255 194.235C586.625 191.001 589.735 191.521 592.285 189.318C594.465 187.435 608.375 173.585 608.165 172.433C597.355 159.204 585.545 146.786 572.515 135.779C569.525 133.256 566.065 130.391 562.735 127.818C560.125 125.805 549.245 117.172 546.945 117.863C545.455 118.314 538.285 130.061 539.285 132.785C537.465 134.578 524.815 125.074 521.985 123.602C520.405 122.78 515.685 121.879 515.465 121.609C514.895 120.888 515.815 118.604 514.325 117.262C513.745 116.741 501.615 112.375 499.765 111.824C492.965 109.811 485.515 109.431 478.855 106.747C477.665 106.797 480.075 111.404 472.945 110.703L439.355 103.282C436.935 101.459 440.535 88.9907 441.365 85.766L412.045 84.5942C407.745 82.1707 414.985 80.0175 413.385 75.7613V75.7713ZM543.885 80.9088C541.835 81.3996 526.095 113.196 523.415 117.463C523.275 119.065 533.555 125.645 534.805 125.534C536.895 125.354 557.165 92.576 557.285 90.1824C557.465 86.7174 546.535 80.2679 543.875 80.9088H543.885ZM658.985 170.991C660.065 172.854 658.315 176.479 656.695 177.781L609.695 215.777C608.265 217.399 610.425 220.864 612.285 220.394C630.625 205.432 648.395 189.779 666.715 174.807C669.555 172.483 684.635 161.888 685.025 160.085C685.395 158.383 683.545 156.53 684.615 154.787L713.215 128.298C716.065 126.786 708.215 119.946 707.665 119.946C705.295 119.926 674.155 145.013 670.185 148.758C685.155 158.663 675.465 164.832 668.695 148.779C666.695 152.674 654.815 159.084 653.665 161.798C651.885 166.004 658.145 169.529 658.985 170.981V170.991ZM188.035 121.799C186.975 121.819 177.945 138.173 177.315 140.066C176.775 141.698 175.935 142.99 177.025 144.763L232.005 193.765C233.825 190.77 241.975 184.05 243.035 181.767C243.545 180.665 243.815 179.884 243.035 178.813L188.045 121.799H188.035ZM247.495 174.777C248.785 173.385 241.355 165.273 240.015 163.771C234.245 157.231 227.065 151.202 221.005 144.793C218.655 142.309 204.405 124.783 203.035 124.793C202.555 124.793 199.645 127.768 200.975 128.769C215.335 141.378 227.255 159.955 241.975 171.812C243.595 173.114 245.155 174.967 247.495 174.777ZM605.405 211.641C606.745 212.412 609.045 211.08 610.195 210.239L653.755 173.805C652.675 170.921 640.795 153.215 639.585 152.844C637.895 152.334 632.835 156.88 631.205 158.272C620.475 167.386 610.565 178.692 599.675 187.796C598.825 189.709 611.095 201.927 609.225 203.789C607.975 205.041 606.265 202.998 605.385 202.137C603.405 200.174 598.665 192.232 598.115 191.912C596.215 190.8 592.565 192.963 594.125 196.338C594.625 197.43 604.565 211.17 605.385 211.641H605.405ZM691.165 188.757C691.765 187.866 681.465 172.974 679.685 170.801C667.345 181.146 654.075 190.49 641.735 200.815C639.355 202.808 623.505 216.208 623.295 217.429C623.005 219.162 631.785 226.382 627.705 227.785C624.695 229.036 621.685 220.884 620.645 220.724C618.815 220.434 614.315 224.4 613.695 225.782C613.135 227.033 622.215 241.625 623.185 244.339L691.155 188.757H691.165ZM177.545 196.799C144.395 192.383 110.615 189.839 77.245 193.915C38.745 198.622 0.915031 213.253 24.135 258.82C55.005 319.399 172.735 377.775 233.825 405.005C356.185 459.545 523.525 508.276 657.665 513.885C692.705 515.347 781.705 518.401 740.365 459.114C726.305 438.955 701.685 420.017 681.505 406.006C677.705 403.362 664.825 393.888 661.565 392.947C659.565 392.366 658.045 400.328 658.295 400.688C658.765 401.359 670.275 407.759 672.335 409.201C692.135 422.991 741.295 458.163 743.185 483.36C744.465 500.515 718.215 504.471 705.675 505.833C643.325 512.613 546.385 493.585 484.325 479.354C358.095 450.411 192.165 392.526 88.305 314.632C64.395 296.696 -9.56497 233.653 43.685 209.327C68.735 197.891 101.075 199.163 128.085 198.802L172.075 202.888C175.705 203.098 176.135 199.243 177.555 196.799H177.545ZM683.185 201.776C706.785 200.705 730.825 199.833 753.955 205.462C768.595 209.027 785.835 216.268 779.305 234.474C765.715 272.33 672.095 318.918 635.895 335.983C603.965 351.036 571.105 364.315 538.295 377.314C536.665 378.536 537.625 378.306 538.295 379.307C539.865 381.701 542.525 384.124 545.535 383.643C548.515 383.163 559.015 378.336 562.805 376.823C620.095 353.95 742.995 300.491 778.555 251.7C813.055 204.36 754.605 194.215 719.725 192.733C706.625 192.172 691.485 189.979 683.215 201.766L683.185 201.776ZM170.545 206.794C136.405 204.19 99.425 200.464 65.585 207.254C54.535 209.468 32.545 215.757 29.875 228.516C24.405 254.714 66.145 291.638 84.715 306.2C91.015 311.137 137.225 343.905 141.025 342.803C144.455 341.802 141.745 329.133 141.775 326.309C142.065 297.597 146.955 268.394 156.545 241.274C160.705 229.517 166.865 218.521 170.545 206.794ZM668.205 314.812C697.105 299.119 727.585 283.576 752.145 261.314C760.715 253.542 782.765 232.552 774.115 220.294C761.845 202.898 696.705 205.021 676.895 207.004C674.975 207.425 663.515 217.199 661.185 219.282C659.245 221.015 650.925 228.105 650.145 229.227C647.495 233.022 650.565 232.381 651.125 233.573C662.085 257.038 666.735 289.095 668.205 314.812ZM662.195 337.816L546.285 387.83C549.585 392.026 551.905 392.466 548.935 397.984C546.555 402.401 527.945 418.545 523.565 419.676C522.095 420.057 521.805 419.797 520.795 418.835C517.715 415.891 514.865 401.42 508.895 401.81L382.395 446.325C392.255 450.301 403.035 453.366 413.375 456.33C458.985 469.419 505.325 479.544 551.895 488.748C556.825 492.443 564.685 478.152 567.265 480.846C569.875 483.56 560.795 489.519 562.275 490.841C566.085 489.379 575.105 493.294 577.675 492.674C578.645 492.443 582.645 485.603 585.725 485.844C589.715 488.828 583.135 490.1 584.245 493.845L599.545 495.918C628.215 461.227 649.625 419.666 657.905 375.041C660.195 362.673 661.065 350.335 662.185 337.836L662.195 337.816ZM136.575 362.803C133.385 355.332 128.515 357.926 122.915 360.65C119.005 362.552 95.035 376.253 93.525 378.266C91.365 381.14 94.245 382.822 94.625 385.817C95.335 386.347 107.865 379.147 108.595 378.326C110.005 376.753 109.095 374.45 111.165 372.878C113.605 371.035 115.945 373.028 118.585 372.407C123.455 371.265 130.805 363.584 136.565 362.803H136.575ZM503.025 359.949C501.895 360.239 486.025 375.021 486.325 376.303C499.155 383.443 509.715 392.466 518.135 404.494C520.005 407.168 522.325 414.288 525.335 413.437C528.315 412.586 546.565 396.512 546.205 394.469C542.135 386.868 509.855 358.186 503.025 359.949ZM84.615 367.81C67.705 370.704 51.835 368.681 36.655 360.82C35.435 362.192 39.845 384.154 42.175 386.798C47.495 392.837 85.625 395.561 94.605 394.82C91.805 385.847 84.855 377.805 84.615 367.82V367.81ZM144.485 364.896C142.815 364.385 141.375 365.076 139.855 365.607C137.445 366.428 123.045 374.4 121.225 375.962C119.095 377.795 118.295 381.55 116.585 382.372C114.315 383.453 112.525 381.731 110.555 382.241C107.355 383.073 102.645 388.561 98.605 388.841C105.335 402.391 91.885 397.093 84.045 400.759C72.675 406.076 42.015 432.856 33.135 442.82C27.665 448.949 13.895 465.133 18.615 473.395C28.325 490.41 84.015 487.897 101.145 487.887L144.585 483.36C146.305 482.078 144.925 481.918 144.075 480.836C141.615 477.752 135.105 473.115 137.075 468.859C140.365 464.402 168.515 445.464 168.545 442.36C168.565 440.156 160.335 423.212 158.825 419.075C152.345 401.349 147.955 383.453 144.495 364.896H144.485ZM322.435 444.843C263.795 424.684 207.155 399.076 152.575 369.823C156.025 393.458 164.235 416.021 173.595 437.793C175.005 438.234 175.965 437.482 177.125 436.912C179.075 435.96 196.575 422.981 197.065 421.829L197.515 421.329C194.595 420.367 191.515 412.876 196.025 413.828C197.405 414.118 198.955 418.545 200.105 418.815C201.695 419.186 204.275 414.849 206.505 416.281C222.745 430.492 237.925 445.634 251.175 462.72L322.435 444.853V444.843ZM507.305 397.814C507.705 397.273 501.575 390.764 499.275 392.226C459.185 408.49 418.005 421.469 376.875 434.809C372.535 436.211 367.545 437.623 363.405 439.345C362.455 439.746 361.115 439.445 361.415 440.817C369.625 443.231 371.935 444.292 380.385 442.32C400.735 437.573 425.775 427.908 445.865 420.838C465.955 413.768 486.865 405.526 507.305 397.804V397.814ZM77.615 398.836C74.125 399.887 68.545 397.053 65.685 398.325C61.685 400.088 44.875 414.509 40.635 418.314C19.195 437.563 -19.035 476.119 26.395 493.605C70.145 510.44 156.185 495.307 202.715 486.525C249.815 477.641 296.415 466.034 342.425 452.815L332.435 448.268C271.725 462.78 210.295 479.314 147.935 487.686C115.385 492.053 60.965 497.911 30.385 486.605C2.85503 476.42 13.045 459.104 27.635 442.3C42.195 425.525 60.725 412.987 77.625 398.826L77.615 398.836ZM608.245 496.84C638.295 499.564 669.415 503.75 699.665 501.837C709.375 501.226 739.095 497.941 738.835 484.512C738.455 465.313 698.075 433.437 683.085 422.44C674.695 416.281 665.795 410.713 657.225 404.835C650.105 429.661 638.165 452.755 624.265 474.367L608.255 496.84H608.245ZM213.515 431.814C214.655 430.162 206.305 423.582 205.025 421.87L142.585 471.332C144.945 472.834 150.395 482.198 152.925 481.758C153.525 481.657 159.245 475.919 159.455 475.128C160.225 472.203 155.465 470.992 156.565 467.827C160.345 466.886 160.335 471.282 163.055 472.804C163.735 471.943 167.555 468.678 167.535 468.328C167.515 467.977 161.665 465.744 165.545 463.3C168.545 461.408 169.415 466.525 171.035 465.824C174.835 464.172 168.575 459.515 172.065 458.834C174.355 458.383 175.565 461.398 177.525 460.416C188.725 449.971 200.775 440.297 213.515 431.814ZM193.785 474.517C195.565 475.548 219.895 470.852 222.755 469.58C223.935 469.049 234.375 459.535 236.035 457.862C236.815 457.081 238.455 456.13 238.115 454.788C237.085 450.712 222.675 439.515 220.045 434.748L217.495 434.208L161.565 480.345C165.875 483.69 173.725 475.759 175.055 475.779C177.505 475.819 177.085 478.773 178.125 478.873C183.775 479.414 191.155 472.534 192.995 472.794C193.495 472.864 193.465 474.337 193.775 474.517H193.785ZM485.015 492.193C439.395 481.848 394.425 469.419 349.985 454.858C317.995 465.293 285.165 472.955 252.485 480.846L253.485 485.834L246.195 482.939L217.495 509.348C217.725 513.835 253.335 542.567 259.175 546.663C314.205 585.28 380.805 600.392 447.385 588.374C468.805 584.508 488.635 577.899 508.305 568.795L497.505 541.105C497.205 539.993 497.065 538.811 497.765 537.79C498.965 536.067 513.115 532.692 515.315 529.327C515.465 528.967 511.135 528.727 514.325 525.342L546.285 504.841C529.995 501.807 513.735 498.622 497.535 495.117C493.295 494.196 488.265 492.914 485.025 492.173L485.015 492.193ZM245.495 464.823C242.175 454.748 236.405 463.05 232.505 467.827L245.495 464.823ZM200.525 517.841C212.695 507.395 225.005 497.05 235.505 484.842L201.535 490.841C199.205 493.084 215.905 501.957 210.005 505.833C208.605 506.103 200.885 497.06 199.485 495.347C198.615 494.276 198.665 492.143 198.445 491.932C197.535 491.091 190.075 493.244 188.585 494.376L167.655 513.174C172.565 519.884 177.925 526.283 184.185 531.771C184.985 531.911 191.405 526.043 192.825 524.851C193.735 524.09 193.455 522.908 193.545 522.838C192.605 523.779 190.435 522.057 189.505 521.376C188.075 520.334 178.595 510.109 178.035 508.827C177.425 507.425 177.945 506.063 179.065 505.833C181.885 505.252 184.785 512.302 186.115 513.765C187.165 514.916 195.875 520.494 193.545 522.838C195.285 521.366 198.065 519.964 200.545 517.841C198.545 519.914 189.475 510.87 191.555 508.847C193.395 507.055 202.325 515.988 200.545 517.841H200.525ZM161.555 524.841C162.105 524.25 166.585 523.609 166.565 520.354C166.555 517.921 160.655 513.614 163.035 509.849L180.545 494.847C174.295 496.87 164.695 496.469 158.955 498.652C156.735 499.494 156.905 502.007 154.975 502.748C151.255 504.18 153.355 500.165 152.035 499.774C142.375 496.94 134.305 510.72 128.605 516.338L148.105 538.821L160.135 527.865C161.285 527.344 161.305 525.121 161.565 524.841C160.865 525.562 156.905 526.243 156.575 524.33C156.385 523.208 159.525 519.974 160.085 519.854C162.755 519.273 162.775 523.599 161.565 524.851L161.555 524.841ZM599.255 572.851C600.465 573.683 602.295 572.17 603.295 571.409C603.955 570.908 613.435 560.533 613.785 559.842C614.185 559.071 614.455 558.61 613.785 557.859C598.875 542.907 585.235 526.874 572.785 509.819C566.805 506.824 559.705 507.285 553.275 505.853L591.245 561.354C592.365 563.658 596.165 563.758 597.335 565.26C598.565 566.842 598.665 572.451 599.255 572.851ZM583.635 559.492C574.705 547.053 566.965 533.724 558.095 521.536C556.575 519.453 549.955 509.668 547.975 509.979C546.875 510.159 537.225 517.019 537.395 518.181L567.375 567.253L572.265 570.368C571.595 575.435 565.935 569.206 567.495 574.133L593.235 613.431C594.405 614.412 594.895 613.511 595.775 612.91C601.945 608.664 607.495 602.976 614.225 599.36C604.105 586.101 593.355 573.012 583.645 559.492H583.635ZM586.255 510.85L579.265 509.849L583.765 515.838L586.255 510.85ZM589.255 511.852C592.335 516.699 586.015 516.759 586.345 519.193C586.535 520.534 596.495 532.532 597.875 532.782L610.215 522.277C610.605 520.625 603.865 513.424 601.985 512.603C597.985 510.87 593.645 513.775 589.255 511.852ZM561.095 568.685C562.285 566.672 558.325 560.774 557.085 558.54C549.845 545.511 540.285 533.544 533.315 520.294L521.725 526.824L546.315 575.826C547.525 576.877 560.575 569.557 561.085 568.685H561.095ZM525.295 545.842L519.285 532.843C514.355 535.697 509.025 538.811 503.315 539.853L520.315 585.85C522.955 585.35 540.165 577.308 540.375 576.206C540.535 575.365 539.605 571.219 539.195 570.939C536.665 569.196 532.465 574.894 530.305 571.329C529.715 568.315 536.285 568.114 536.315 567.333C536.515 560.293 527.975 564.529 527.315 563.838C526.415 559.962 529.265 560.273 532.305 559.832L530.295 554.845C529.505 554.244 516.845 564.409 514.325 561.835C514.145 561.645 513.885 559.562 515.015 558.831C518.115 556.838 523.565 555.005 527.055 553.082C529.565 551.69 527.205 548.626 525.815 546.853C523.495 549.467 514.875 555.035 511.835 554.845C510.975 554.795 511.135 552.862 511.345 552.361C511.925 551.009 522.795 544.86 525.305 545.832L525.295 545.842ZM573.265 593.842C573.995 593.041 563.305 575.966 562.265 575.305C560.865 574.424 550.725 579.391 550.345 579.922C549.635 580.923 558.535 598.118 559.385 598.719C561.965 600.562 569.595 592.981 573.265 593.832V593.842Z" fill="#1D1C1F"/>
<path d="M259.485 111.774C259.065 108.959 265.615 105.905 266.475 106.776C268.245 108.569 263.175 113.126 260.485 112.775C260.185 112.395 259.755 112.114 259.485 111.774Z" fill="#1D1C1F"/>
<path d="M145.255 147.086C152.245 155.008 143.265 164.372 135.625 158.223C125.645 150.191 136.635 137.322 145.255 147.086ZM142.565 155.779C143.385 153.556 140.625 147.236 138.085 147.787C134.115 148.649 138.275 157.251 142.565 155.779Z" fill="#1D1C1F"/>
<path d="M612.975 103.952C622.005 102.09 625.575 115.91 618.295 118.333C607.675 121.869 604.625 105.675 612.975 103.952ZM613.245 108.779C612.725 109.29 612.975 115.429 615.725 114.768C619.565 113.847 615.865 106.176 613.245 108.779Z" fill="#1D1C1F"/>
<path d="M177.545 196.799C176.125 199.243 175.695 203.098 172.065 202.888L128.075 198.802C101.065 199.163 68.725 197.891 43.675 209.328C-9.58504 233.653 64.375 296.696 88.295 314.632C192.155 392.527 358.085 450.412 484.315 479.354C546.375 493.585 643.315 512.613 705.665 505.833C718.205 504.471 744.455 500.515 743.175 483.36C741.295 458.163 692.125 422.991 672.325 409.201C670.265 407.769 658.765 401.36 658.285 400.689C658.035 400.328 659.555 392.366 661.555 392.947C664.815 393.889 677.695 403.373 681.495 406.006C701.685 420.007 726.295 438.945 740.355 459.114C781.685 518.401 692.695 515.347 657.655 513.885C523.515 508.277 356.185 459.545 233.815 405.005C172.725 377.775 54.995 319.399 24.125 258.82C0.904955 213.253 38.735 198.622 77.235 193.915C110.605 189.839 144.385 192.383 177.535 196.799H177.545Z" fill="url(#paint1_linear_83_677)"/>
<path d="M256.825 118.444C257.545 119.325 259.155 119.636 260.035 120.717C268.555 131.213 277.265 141.578 285.515 152.283C285.525 154.477 276.785 161.557 274.845 163.71C272.085 164.191 267.385 153.876 263.485 156.279C259.585 158.683 269.915 165.703 270.465 167.316L270.485 168.768C267.085 168.627 261.535 178.111 259.135 177.711L172.735 82.2606L204.035 52.7773C221.205 71.6751 236.855 91.9949 252.895 111.884C254.585 113.987 255.725 117.072 256.835 118.444H256.825ZM212.525 72.7767C211.665 73.628 214.755 80.6383 218.005 79.767C222.545 78.5452 214.285 71.0442 212.525 72.7767ZM207.535 77.774C204.935 80.3979 209.955 86.1664 212.005 85.7658C216.675 84.8545 209.295 76.382 207.535 77.774ZM232.505 93.7675C234.535 91.8047 226.265 82.1104 223.525 84.7743C222.035 86.2265 229.675 96.5116 232.505 93.7675ZM199.535 85.7758C197.605 87.7888 204.125 95.1596 206.015 94.769C210.435 93.8577 201.665 83.5626 199.535 85.7758ZM218.865 96.4315C219.995 97.7334 222.935 98.825 224.015 100.758C229.275 100.928 218.055 86.3166 215.525 88.7802C214.435 89.8418 217.925 95.3499 218.865 96.4315ZM197.975 96.3614C194.375 91.0536 188.855 89.4412 192.665 96.141C194.385 99.1655 199.465 104.583 199.595 98.2241C199.635 96.4815 198.305 96.8621 197.975 96.3614ZM211.035 96.782C206.545 97.7234 215.015 107.778 217.995 106.777C222.705 105.555 212.245 96.5316 211.035 96.782ZM243.495 107.768C244.835 106.426 238.825 97.4129 237.015 97.7734C232.165 98.7449 241.085 110.182 243.495 107.768ZM207.815 112.465C210.225 114.618 212.525 113.006 211.025 109.781C210.445 108.539 204.015 102.3 202.535 103.782C201.385 104.934 206.805 111.564 207.815 112.465ZM227.515 103.782C223.635 107.618 241.045 118.574 237.025 110.763C236.365 109.471 229.055 102.26 227.515 103.782ZM222.025 109.781C218.355 110.542 224.305 117.272 225.465 118.324C228.225 120.837 232.975 121.548 231.025 117.763C230.485 116.711 223.045 109.571 222.025 109.781ZM246.505 112.775C245.805 117.052 248.805 119.545 251.675 122.089C254.765 124.833 257.375 123.451 256.005 120.757C255.225 119.225 248.415 110.803 246.505 112.765V112.775ZM214.525 117.783C212.795 119.445 222.265 130.091 223.515 125.264C224.215 122.189 216.525 115.86 214.525 117.783ZM239.505 117.783C238.115 119.115 246.495 129.51 248.975 129.78C254.255 128.749 242.075 115.329 239.505 117.783ZM243.495 135.769C244.055 135.228 243.335 132.254 242.565 131.203C242.225 130.732 234.025 124.172 233.505 124.773C233.255 126.616 233.505 127.737 234.445 129.32C235.385 130.902 241.465 137.722 243.485 135.759L243.495 135.769ZM227.025 130.782C224.645 131.293 226.365 133.606 227.085 134.708C227.995 136.11 234.735 143.03 235.985 142.78C240.865 139.805 229.155 130.331 227.025 130.782Z" fill="#596DD6"/>
<path d="M496.325 9.76444L474.325 104.764C473.525 105.575 455.665 102.26 454.335 101.289C451.795 99.4261 455.565 93.0167 454.335 91.7749C453.955 91.3843 451.605 91.6146 450.835 92.7663C448.975 95.5504 451.665 101.209 443.355 99.7666L462.345 4.74707L496.315 9.76444H496.325ZM468.335 15.7532C465.265 12.7889 460.675 25.3173 468.335 22.7635C468.135 21.4115 468.665 16.0737 468.335 15.7532ZM476.325 17.7662C474.115 15.5129 470.955 21.2012 472.335 23.765H476.325C476.145 22.5232 476.635 18.0867 476.325 17.7662ZM485.325 18.7576C482.405 15.9035 480.225 24.6263 481.335 25.7579C484.115 28.5721 486.885 20.2899 485.325 18.7576ZM462.345 32.7582C464.375 34.7712 468.825 29.2731 464.825 27.7709C461.115 26.3688 462.075 32.4978 462.345 32.7582ZM474.335 29.7638C472.055 27.4805 468.025 33.8899 471.855 34.7511C474.305 35.3019 474.985 30.4048 474.335 29.7638ZM483.325 30.7653C481.295 28.7523 476.845 34.2504 480.845 35.7526C484.555 37.1547 483.595 31.0257 483.325 30.7653ZM459.355 42.7629C468.145 44.165 463.615 32.3776 460.105 39.0274C459.475 40.2192 459.195 41.4209 459.355 42.7629ZM472.335 38.767C468.555 38.1762 467.975 40.4896 468.345 43.7544H472.335V38.767ZM476.335 45.7573C479.375 48.8118 484.135 40.5797 479.815 39.7685C477.275 39.2878 475.345 44.7558 476.335 45.7573ZM462.335 46.7688H458.345C456.695 55.6118 463.165 54.8106 462.335 46.7688ZM470.335 47.7602C467.585 45.1865 464.545 53.048 467.855 53.7591C470.675 54.3599 470.805 48.2109 470.335 47.7602ZM479.325 48.7617C476.815 46.2781 474.465 52.8577 475.335 54.7605C479.085 56.5231 480.405 49.8433 479.325 48.7617ZM456.855 56.7635C455.495 57.114 453.085 62.0112 455.855 62.7523C460.635 64.0442 460.145 55.9122 456.855 56.7635ZM465.355 57.775C464.465 59.3573 463.425 65.5364 466.825 64.7652C469.295 64.2044 471.055 56.2327 465.355 57.775ZM477.365 58.7564L473.275 58.7764L473.305 65.7867L477.395 65.7667L477.365 58.7564ZM457.345 67.7696H453.355C452.465 75.8415 458.255 75.7113 457.345 67.7696ZM462.355 67.7696C461.615 68.2603 459.965 76.182 463.825 75.7614C467.835 73.7684 466.325 65.1257 462.355 67.7696ZM474.335 70.774C471.965 68.3405 468.715 75.0904 470.345 76.7628C472.715 79.1964 475.965 72.4465 474.335 70.774ZM463.335 92.7764C460.005 92.1755 457.755 97.994 460.855 98.7652C463.555 99.4361 463.635 94.2385 463.335 92.7764Z" fill="#596DD6"/>
<path d="M260.485 112.776C260.245 112.746 259.525 112.015 259.485 111.774C259.755 112.115 260.185 112.395 260.485 112.776Z" fill="#596DD6"/>
<path d="M249.495 98.7753C248.785 97.914 241.625 91.8852 242.505 90.7836C245.375 90.9738 257.775 81.1794 255.485 78.7759C251.725 78.3152 242.915 88.5903 240.995 88.5903L230.515 76.3123C238.135 71.1647 244.975 64.2946 252.865 59.9082L254.505 61.2502L302.525 139.235C298.765 140.577 294.225 146.926 291.465 148.358C290.505 148.859 290.435 148.849 289.485 148.358C286.915 147.036 271.585 128.058 268.515 124.263C265.655 120.728 263.135 116.141 260.495 112.786C263.185 113.136 268.255 108.59 266.485 106.787C265.625 105.916 259.075 108.97 259.495 111.784C258.255 110.232 254.915 108.77 254.495 105.796C258.775 106.236 264.365 98.2946 258.165 99.937C255.465 100.658 254.815 105.615 253.005 104.774C251.195 103.933 250.325 99.7868 249.495 98.7753C252.605 98.5349 256.095 96.2215 255.485 92.7765C251.125 92.1956 248.935 94.489 249.495 98.7753ZM257.495 91.765C258.875 93.0969 266.495 89.021 266.475 86.2869C265.595 82.1809 254.945 89.3114 257.495 91.765ZM271.475 92.7765C268.355 92.436 264.265 93.788 263.495 97.2531C264.285 100.979 273.795 95.0398 271.475 92.7765ZM276.475 100.778C275.215 99.6866 267.935 102.811 268.495 105.766C271.935 106.447 276.115 104.824 276.475 100.778ZM280.465 107.779C278.425 107.118 274.005 108.86 274.475 111.264C275.155 114.759 281.925 109.161 280.465 107.779ZM272.475 112.776C270.765 111.043 264.755 117.002 266.485 118.765C268.215 120.527 274.205 114.538 272.475 112.776Z" fill="#596DD6"/>
<path d="M583.635 559.492C593.345 573.012 604.095 586.101 614.215 599.36C607.485 602.976 601.945 608.664 595.765 612.91C594.885 613.511 594.395 614.412 593.225 613.431L567.485 574.133C565.925 569.196 571.585 575.435 572.255 570.368L567.365 567.253L537.385 518.181C537.215 517.019 546.865 510.149 547.965 509.979C549.945 509.668 556.575 519.453 558.085 521.536C566.965 533.724 574.695 547.053 583.625 559.492H583.635ZM558.275 534.845C556.995 534.685 555.155 533.183 553.285 533.854C553.105 537.349 554.545 540.694 558.325 538.391C560.305 537.179 558.295 535.526 558.275 534.855C559.565 535.016 560.965 534.755 562.265 534.855C561.025 528.887 558.145 526.764 558.275 534.855V534.845ZM563.275 543.849C561.435 543.558 559.075 541.145 558.285 545.331C558.985 547.103 563.335 548.786 564.275 547.845C565.025 547.083 563.375 544.57 563.285 543.849C565.465 544.189 567.695 546.142 568.275 542.366L563.285 539.853C563.385 541.155 563.115 542.557 563.285 543.849H563.275ZM573.045 548.075C572.315 547.684 569.465 547.674 569.275 547.845C568.025 548.976 573.905 558.53 575.235 553.242C575.495 552.201 573.615 548.375 573.055 548.065L573.045 548.075ZM569.055 553.082C567.965 552.491 566.495 552.942 565.285 552.852C563.545 556.297 569.255 560.723 571.275 558.841C571.925 558.23 569.705 553.423 569.065 553.072L569.055 553.082ZM577.255 567.844C579.725 565.34 572.545 558.6 571.275 563.357C570.355 566.802 576.485 568.625 577.255 567.844ZM580.775 570.858C577.065 571.67 581.245 578.369 583.745 577.849C587.105 577.148 583.105 570.348 580.775 570.858ZM575.775 576.857C572.285 578.9 575.655 583.667 578.745 582.856C582.265 581.935 578.105 576.887 575.775 576.857ZM592.245 587.853C593.425 586.642 591.215 580.963 587.775 581.854C583.365 583.006 590.515 589.626 592.245 587.853ZM586.255 592.851C588.115 590.918 583.215 584.839 581.265 586.862C579.315 588.885 584.305 594.874 586.255 592.851ZM594.255 591.859C593.835 594.433 595.205 599.791 598.735 598.849C602.805 597.758 597.705 590.467 594.255 591.859ZM588.255 596.867C587.215 599.18 590.535 604.317 592.725 603.857C596.345 603.106 591.635 595.244 588.255 596.867Z" fill="#596DD6"/>
<path d="M485.365 75.8011C489.785 74.4491 507.305 84.634 509.305 82.7613C509.565 80.4479 509.505 80.1675 507.595 78.9757C502.325 75.6909 492.565 73.2072 486.325 72.7566C487.915 69.8223 490.495 50.584 491.325 49.7528C491.835 49.242 498.415 51.6656 499.315 50.7543C502.625 47.3793 492.655 46.9086 492.495 45.2963C492.415 44.455 495.705 29.3328 496.325 28.752L527.875 40.7295L503.345 107.357L479.735 101.819C478.335 99.9766 485.395 79.8069 485.355 75.791L485.365 75.8011ZM519.295 47.7599C519.615 45.5066 519.325 45.1761 517.665 43.8942C515.425 42.1616 502.275 37.8854 499.115 37.4147C494.065 36.6736 493.885 39.0671 498.515 41.06C504.545 43.6538 512.935 45.2862 519.295 47.7599ZM504.485 53.5984C504.845 54.1793 515.745 59.6573 517.295 56.2423C517.685 54.0191 507.605 50.2836 505.685 49.863C503.445 49.3622 503.955 52.7572 504.475 53.5984H504.485ZM514.305 66.7678C514.885 66.1268 514.235 64.1339 513.315 63.2727C511.595 61.6503 493.705 55.6114 492.335 56.7731C491.955 58.726 493.245 59.1666 494.625 59.9678C495.825 60.6688 513.615 67.5389 514.305 66.7578V66.7678ZM513.285 70.8037C509.775 70.5033 494.425 62.7719 492.325 64.7648C491.795 65.2656 492.305 68.3401 494.005 68.5704C497.105 68.4503 512.025 75.06 513.295 73.7581C513.485 73.5578 513.215 71.5949 513.275 70.8037H513.285Z" fill="#596DD6"/>
<path d="M691.165 188.757L623.195 244.339C622.215 241.625 613.135 227.033 613.705 225.782C614.325 224.4 618.825 220.434 620.655 220.724C621.695 220.894 624.705 229.036 627.715 227.784C631.785 226.382 623.005 219.162 623.305 217.429C623.515 216.207 639.365 202.808 641.745 200.815C654.085 190.49 667.355 181.146 679.695 170.801C681.475 172.974 691.765 187.866 691.175 188.757H691.165ZM656.215 199.783C657.725 201.175 663.685 197.59 663.205 195.307C662.185 190.52 654.325 198.041 656.215 199.783ZM667.195 200.795C664.745 200.374 659.245 201.706 660.215 205.281C661.405 209.708 668.395 201.826 667.195 200.795ZM652.205 201.796L646.225 204.28C648.835 207.324 652.965 206.023 652.205 201.796ZM657.225 210.349C657.225 208.937 656.085 207.785 654.665 207.785C653.245 207.785 652.105 208.927 652.105 210.349C652.105 211.771 653.245 212.913 654.665 212.913C656.085 212.913 657.225 211.771 657.225 210.349ZM644.205 208.797C642.275 206.934 636.195 211.831 638.215 213.784C640.235 215.737 646.225 210.749 644.205 208.797ZM645.735 214.795C644.385 215.116 640.345 219.903 643.735 220.794C648.355 222.006 649.685 213.874 645.735 214.795Z" fill="#596DD6"/>
<path d="M188.035 121.799L243.025 178.813C243.805 179.884 243.535 180.665 243.025 181.767C241.975 184.05 233.825 190.77 231.995 193.765L177.015 144.763C175.925 143 176.765 141.708 177.305 140.066C177.935 138.173 186.965 121.819 188.025 121.799H188.035ZM200.525 146.776C202.095 145.313 195.725 138.443 194.045 138.784C189.905 139.635 197.885 149.219 200.525 146.776ZM187.545 144.783C185.535 146.715 194.645 155.398 195.535 151.262C196.255 147.917 189.295 143.1 187.545 144.783ZM200.045 153.786C197.495 154.367 198.135 159.815 202.015 158.773C205.145 157.932 202.155 153.305 200.045 153.786ZM213.515 153.786C211.225 151.492 206.765 156.169 211.035 157.772C214.475 159.064 213.945 154.216 213.515 153.786ZM209.515 163.78L206.035 158.793C202.445 161.998 205.455 164.492 209.515 163.78ZM220.515 164.782C222.615 162.559 217.675 157.702 215.525 159.795C213.815 161.457 218.895 166.484 220.515 164.782ZM215.245 166.064C213.375 164.251 209.995 164.822 210.525 167.276C211.605 172.233 219.945 170.631 215.245 166.064Z" fill="#596DD6"/>
<path d="M193.785 474.517C193.475 474.337 193.505 472.865 193.005 472.795C191.165 472.534 183.795 479.414 178.135 478.874C177.095 478.773 177.505 475.819 175.065 475.779C173.735 475.759 165.875 483.701 161.575 480.346L217.505 434.208L220.055 434.749C222.685 439.516 237.105 450.712 238.125 454.788C238.465 456.13 236.825 457.082 236.045 457.863C234.385 459.535 223.945 469.049 222.765 469.58C219.905 470.852 195.565 475.549 193.795 474.517H193.785ZM218.515 456.831C219.495 450.772 207.085 442.62 211.465 452.445C212.545 454.868 215.705 457.022 218.515 456.831ZM212.115 458.824C212.115 457.212 210.815 455.91 209.205 455.91C207.595 455.91 206.295 457.212 206.295 458.824C206.295 460.437 207.595 461.738 209.205 461.738C210.815 461.738 212.115 460.437 212.115 458.824ZM191.545 462.83L197.535 459.345C195.605 455.239 190.575 461.889 191.545 462.83ZM202.185 463.962C199.205 464.202 195.735 470.011 199.055 470.842C203.155 471.863 207.045 463.561 202.185 463.962ZM187.535 467.837C185.605 465.975 179.525 470.872 181.545 472.825C183.565 474.778 189.555 469.79 187.535 467.837Z" fill="#596DD6"/>
<path d="M605.405 211.641C604.585 211.17 594.655 197.42 594.145 196.338C592.585 192.953 596.235 190.8 598.135 191.912C598.675 192.232 603.415 200.174 605.405 202.137C606.275 202.998 607.995 205.041 609.245 203.789C611.115 201.927 598.845 189.709 599.695 187.796C610.585 178.702 620.495 167.386 631.225 158.272C632.855 156.89 637.915 152.334 639.605 152.844C640.815 153.215 652.695 170.921 653.775 173.805L610.215 210.239C609.065 211.08 606.765 212.412 605.425 211.641H605.405ZM637.215 160.786L632.225 164.271C635.335 167.636 638.505 163.861 637.215 160.786ZM640.875 165.914C638.265 166.134 635.515 169.719 638.785 170.731C643.945 172.323 644.605 165.603 640.875 165.914ZM628.225 167.786C627.925 167.476 624.425 168.227 623.825 168.698C620.255 171.442 629.565 176.269 628.225 167.786ZM643.885 171.942C641.575 172.563 640.115 176.099 642.725 176.79C646.975 177.901 649.085 170.54 643.885 171.942ZM629.895 172.944C625.855 174.046 626.905 179.163 631.615 177.691C634.475 176.8 633.525 171.952 629.895 172.944ZM637.215 178.793C633.585 178.963 631.525 181.136 632.225 184.781C637.185 185.482 637.655 183.179 637.215 178.793Z" fill="#596DD6"/>
<path d="M658.985 170.991C658.145 169.539 651.885 166.014 653.665 161.808C654.815 159.094 666.695 152.684 668.695 148.788C675.475 164.842 685.165 158.673 670.185 148.768C674.165 145.023 705.305 119.946 707.665 119.956C708.215 119.956 716.055 126.806 713.215 128.308L684.615 154.797C683.545 156.53 685.395 158.382 685.025 160.095C684.625 161.898 669.555 172.493 666.715 174.817C648.385 189.789 630.625 205.442 612.285 220.404C610.425 220.874 608.265 217.409 609.695 215.787L656.695 177.791C658.315 176.489 660.065 172.864 658.985 171.001V170.991ZM690.695 138.784C687.615 139.435 689.985 145.343 692.665 144.773C695.745 144.122 693.375 138.213 690.695 138.784ZM681.195 143.781C680.535 145.824 682.275 150.241 684.675 149.77C688.165 149.089 682.565 142.319 681.195 143.781Z" fill="#596DD6"/>
<path d="M503.025 359.949C509.855 358.186 542.135 386.868 546.205 394.47C546.575 396.513 528.325 412.586 525.335 413.437C522.325 414.289 520.005 407.168 518.135 404.494C509.715 392.467 499.145 383.433 486.325 376.303C486.025 375.031 501.895 360.249 503.025 359.949ZM501.315 374.821C498.585 383.494 503.515 379.828 507.145 375.151C510.195 371.226 511.895 364.996 506.465 370.474C503.965 372.988 503.595 373.008 501.315 374.821C501.805 373.258 507.325 365.707 503.815 365.838C502.965 365.868 491.085 378.176 497.805 378.817C499.055 377.244 499.675 376.123 501.315 374.821ZM505.315 385.817C508.085 388.16 516.335 376.894 516.905 374.891C517.415 373.108 517.205 372.968 515.785 371.836L505.315 385.827V385.817ZM515.985 388.491C516.765 387.82 522.625 381 523.115 380.129C523.705 379.087 524.905 377.184 522.775 376.824C520.645 376.463 510.895 388.321 512.305 389.813C512.835 390.374 515.245 389.112 515.975 388.491H515.985ZM529.295 382.823C527.255 380.769 524.285 386.518 523.345 387.359C522.185 388.401 515.065 392.567 517.315 394.81C519.165 396.663 531.155 384.675 529.295 382.823ZM535.285 387.83C534.375 386.768 521.825 397.124 523.305 398.816C523.585 399.136 525.745 399.587 526.795 398.926C527.215 398.656 533.955 392.697 534.265 392.306C535.165 391.205 535.885 388.541 535.275 387.83H535.285ZM527.305 404.815C529.065 406.638 539.325 397.434 539.265 395.311C539.225 393.939 537.865 394.079 536.625 394.63C534.865 395.401 525.165 402.602 527.305 404.815Z" fill="#EDF0FF"/>
<path d="M599.255 572.851C598.675 572.451 598.575 566.843 597.335 565.26C596.095 563.678 592.365 563.658 591.245 561.355L553.275 505.853C559.705 507.285 566.805 506.824 572.785 509.819C585.235 526.884 598.875 542.907 613.785 557.859C614.455 558.611 614.185 559.071 613.785 559.842C613.425 560.533 603.945 570.909 603.295 571.409C602.295 572.17 600.455 573.683 599.255 572.851ZM579.255 535.837C581.345 533.694 576.485 528.747 574.265 530.85C572.565 532.462 577.585 537.55 579.255 535.837ZM588.245 545.842C589.535 544.61 585.535 537.229 582.265 538.851C579.555 542.307 586.035 547.975 588.245 545.842ZM591.765 548.856C588.795 549.447 590.855 556.908 594.735 555.846C598.615 554.785 594.155 548.376 591.765 548.856ZM600.765 557.859C597.685 558.51 600.055 564.419 602.735 563.848C605.815 563.197 603.445 557.289 600.765 557.859Z" fill="#596DD6"/>
<path d="M193.535 522.847C193.455 522.917 193.725 524.089 192.815 524.86C191.395 526.052 184.975 531.921 184.175 531.78C177.915 526.292 172.555 519.893 167.645 513.183L188.575 494.386C190.065 493.254 197.525 491.101 198.435 491.942C198.665 492.152 198.605 494.285 199.475 495.357C200.875 497.08 208.595 506.113 209.995 505.842C215.885 501.967 199.185 493.094 201.525 490.85L235.495 484.852C225.005 497.059 212.685 507.405 200.515 517.85C202.295 515.997 193.365 507.054 191.525 508.857C189.445 510.88 198.515 519.923 200.515 517.85C198.035 519.973 195.255 521.385 193.515 522.847C195.855 520.504 187.135 514.926 186.085 513.774C184.755 512.312 181.855 505.262 179.035 505.842C177.905 506.073 177.395 507.435 178.005 508.837C178.565 510.109 188.045 520.344 189.475 521.385C190.415 522.066 192.575 523.789 193.515 522.847H193.535ZM205.525 510.84C207.285 509.157 196.005 496.459 194.055 496.849C192.465 497.16 192.815 498.291 193.355 499.513C194.235 501.546 203.245 513.033 205.535 510.84H205.525ZM191.535 506.834C193.205 505.181 188.255 500.164 186.545 501.847C184.835 503.529 189.825 508.516 191.535 506.834Z" fill="#596DD6"/>
<path d="M213.515 431.814C200.775 440.286 188.725 449.97 177.525 460.416C175.575 461.407 174.355 458.393 172.065 458.833C168.575 459.514 174.825 464.171 171.035 465.824C169.405 466.535 168.545 461.407 165.545 463.3C161.665 465.744 167.515 467.987 167.535 468.327C167.555 468.668 163.735 471.943 163.055 472.804C160.335 471.282 160.345 466.885 156.565 467.827C155.465 470.991 160.215 472.203 159.455 475.127C159.245 475.919 153.525 481.647 152.925 481.757C150.395 482.198 144.945 472.824 142.585 471.332L205.025 421.869C206.305 423.582 214.645 430.161 213.515 431.814Z" fill="#596DD6"/>
<path d="M84.6147 367.81C84.8547 377.805 91.8047 385.836 94.6047 394.809C85.6247 395.551 47.4947 392.827 42.1747 386.788C39.8447 384.144 35.4347 362.182 36.6547 360.81C51.8347 368.671 67.6947 370.694 84.6147 367.8V367.81ZM48.6347 385.816C48.3647 381.57 47.7347 375.371 46.5947 371.365C46.1147 369.663 45.8047 368.491 43.6547 368.821C44.2547 373.478 43.0647 384.144 48.6447 385.816H48.6347ZM54.6247 385.816C55.1547 385.306 53.7847 372.527 51.1347 371.836C48.2447 371.786 51.1147 385.326 51.6447 385.826C51.7547 385.926 54.5247 385.926 54.6347 385.826L54.6247 385.816ZM61.6247 387.819C62.5547 386.928 59.3247 370.614 56.6347 373.819C56.5347 375.631 58.1247 387.339 58.6347 387.819C58.7447 387.919 61.5147 387.919 61.6247 387.819ZM81.5247 373.899C78.0847 371.696 78.5147 375.621 79.1047 377.825C79.5647 379.557 84.5947 392.766 87.6047 389.812C86.9647 387.629 82.2447 374.359 81.5247 373.899ZM66.5447 374.88C66.2347 374.68 63.7347 374.72 63.6347 374.82C62.7347 375.691 67.1447 392.807 69.6247 389.812C70.2747 387.909 67.2047 375.291 66.5547 374.88H66.5447ZM78.6147 389.812C79.5347 387.859 73.8447 372.296 71.6347 374.82C72.2247 379.337 73.5147 388.25 78.6147 389.812Z" fill="#EDF0FF"/>
<path d="M161.555 524.841C161.295 525.121 161.275 527.344 160.125 527.865L148.095 538.821L128.595 516.338C134.295 510.72 142.365 496.94 152.025 499.774C153.345 500.164 151.245 504.17 154.965 502.748C156.895 502.007 156.725 499.493 158.945 498.652C164.685 496.469 174.285 496.87 180.535 494.847L163.025 509.849C160.655 513.624 166.545 517.921 166.555 520.354C166.575 523.609 162.095 524.26 161.545 524.841C162.755 523.589 162.735 519.263 160.065 519.843C159.505 519.964 156.365 523.198 156.555 524.32C156.885 526.233 160.845 525.562 161.545 524.831L161.555 524.841ZM162.565 504.831C163.385 505.763 171.645 501.196 167.035 498.833C164.325 498.482 160.965 503.029 162.565 504.831ZM144.575 509.839C145.955 509.949 147.245 509.939 148.545 509.328C154.315 506.624 145.505 500.745 144.575 509.839ZM155.555 508.847C154.095 507.375 147.575 511.371 149.565 514.836C152.275 516.098 157.065 510.359 155.555 508.847ZM159.555 514.846C158.315 513.564 153.145 516.348 152.775 518.491C151.515 525.942 162.355 517.75 159.555 514.846ZM144.565 516.849C142.395 514.756 137.485 519.653 139.575 521.836C141.205 523.539 146.265 518.491 144.565 516.849ZM147.575 531.841C149.695 533.463 155.485 526.703 151.045 525.832C147.975 525.231 145.275 530.068 147.575 531.841Z" fill="#596DD6"/>
<path d="M525.295 545.842C522.785 544.87 511.915 551.019 511.335 552.371C511.125 552.872 510.965 554.805 511.825 554.855C514.865 555.045 523.485 549.477 525.805 546.863C527.195 548.636 529.555 551.7 527.045 553.092C523.555 555.015 518.105 556.848 515.005 558.841C513.875 559.562 514.135 561.655 514.315 561.845C516.835 564.409 529.495 554.254 530.285 554.855L532.295 559.842C529.255 560.283 526.405 559.972 527.305 563.848C527.975 564.539 536.515 560.303 536.305 567.343C536.285 568.124 529.715 568.325 530.295 571.339C532.455 574.904 536.665 569.206 539.185 570.949C539.595 571.229 540.525 575.375 540.365 576.216C540.155 577.308 522.935 585.36 520.305 585.86L503.305 539.863C509.025 538.811 514.355 535.707 519.275 532.853L525.285 545.852L525.295 545.842ZM517.305 568.845C519.125 569.386 525.875 568.235 525.285 565.36C523.165 561.094 515.745 567.493 517.305 568.845ZM528.295 571.86C527.645 571.139 521.565 572.941 522.305 575.846C523.975 576.647 530.745 574.594 528.295 571.86Z" fill="#596DD6"/>
<path d="M561.095 568.685C560.585 569.556 547.535 576.867 546.325 575.826L521.735 526.824L533.325 520.294C540.295 533.543 549.855 545.511 557.095 558.54C558.335 560.773 562.305 566.672 561.105 568.685H561.095ZM545.275 548.846C547.065 541.735 538.775 540.413 541.795 546.833C542.355 548.015 543.835 549.126 545.275 548.846ZM541.285 551.84C542.135 546.162 535.095 543.137 536.755 549.897C537.445 552.692 538.605 551.86 541.285 551.84ZM550.275 556.848C550.655 553.443 549.975 551.269 546.285 551.86C545.905 555.265 546.585 557.438 550.275 556.848ZM541.295 559.852C541.785 560.343 545.685 559.932 546.265 558.35C545.105 556.377 543.885 553.433 541.285 555.345C541.485 556.377 541.005 559.552 541.295 559.842V559.852ZM556.275 564.849C556.735 561.665 554.405 559.401 551.285 559.862C551.375 563.878 551.975 565.681 556.275 564.849ZM550.125 564.008C549.225 563.467 547.455 564.008 546.295 563.858C546.905 575.465 554.425 566.602 550.125 564.008Z" fill="#596DD6"/>
<path d="M418.375 80.7684L419.335 36.2229L420.995 29.6934L437.355 30.7649L434.365 80.7584H418.375V80.7684ZM427.365 35.7623C424.755 33.1584 421.045 40.8297 424.885 41.7511C427.635 42.412 427.875 36.273 427.365 35.7623ZM434.355 36.7637C430.575 36.1729 429.995 38.4863 430.365 41.7511H434.355V36.7637ZM427.365 45.767C423.585 45.1761 423.005 47.4895 423.375 50.7543H427.365V45.767ZM423.355 54.7602V59.7775H426.375V54.7602H423.355ZM429.625 54.62L428.935 60.4085L433.105 60.9092L433.795 55.1207L429.625 54.62Z" fill="#596DD6"/>
<path d="M544.285 65.7761L520.205 113.697L508.385 109.671L526.355 59.8174C528.135 58.2751 541.165 65.4557 544.285 65.7761ZM531.025 71.0639C531.025 69.7119 529.935 68.6203 528.585 68.6203C527.235 68.6203 526.145 69.7119 526.145 71.0639C526.145 72.4159 527.235 73.5075 528.585 73.5075C529.935 73.5075 531.025 72.4159 531.025 71.0639ZM532.295 72.7764C530.005 75.0598 536.415 79.0957 537.285 75.2601C537.835 72.8065 532.945 72.1355 532.295 72.7764ZM526.175 81.6695C527.925 80.3375 526.115 76.3316 523.815 76.7723C520.785 77.3531 522.105 84.754 526.175 81.6695ZM533.285 80.7782C532.635 80.1272 527.745 80.8082 528.295 83.2618C529.165 87.0975 535.565 83.0615 533.285 80.7782ZM523.195 86.8771C522.775 86.2061 518.815 85.2047 518.305 87.2877C516.845 93.1864 526.475 92.1749 523.195 86.8771ZM528.295 88.7799C526.015 86.4966 521.985 92.906 525.815 93.7672C528.265 94.3181 528.945 89.4209 528.295 88.7799Z" fill="#596DD6"/>
<path d="M543.885 80.9087C546.545 80.2677 557.475 86.7172 557.295 90.1823C557.165 92.5758 536.895 125.364 534.815 125.534C533.565 125.644 523.275 119.065 523.425 117.462C526.105 113.186 541.845 81.3994 543.895 80.9087H543.885ZM546.555 89.2409C546.555 87.9891 545.535 86.9676 544.285 86.9676C543.035 86.9676 542.015 87.9891 542.015 89.2409C542.015 90.4928 543.035 91.5143 544.285 91.5143C545.535 91.5143 546.555 90.4928 546.555 89.2409ZM552.035 92.7761C552.035 91.5243 551.025 90.5128 549.775 90.5128C548.525 90.5128 547.515 91.5243 547.515 92.7761C547.515 94.028 548.525 95.0394 549.775 95.0394C551.025 95.0394 552.035 94.028 552.035 92.7761ZM542.285 94.7791C540.685 93.1567 536.675 97.1525 538.295 98.7649C540.375 100.838 544.365 96.8821 542.285 94.7791ZM548.045 99.7764C548.045 98.5246 547.035 97.5131 545.785 97.5131C544.535 97.5131 543.525 98.5246 543.525 99.7764C543.525 101.028 544.535 102.04 545.785 102.04C547.035 102.04 548.045 101.028 548.045 99.7764Z" fill="#596DD6"/>
<path d="M65.6751 398.335C68.5445 397.074 74.1118 399.905 77.6019 398.846C60.7053 412.992 42.1808 425.539 27.6244 442.31C13.0345 459.114 2.84509 476.439 30.3744 486.614C60.9444 497.921 115.375 492.063 147.925 487.696C210.295 479.324 271.715 462.79 332.425 448.278L342.414 452.825C296.405 466.044 249.814 477.641 202.704 486.534C156.174 495.307 70.1351 510.44 26.3851 493.615C-19.0448 476.14 19.1743 437.572 40.6244 418.324C44.8643 414.519 61.6851 400.098 65.6751 398.335ZM499.275 392.236C501.575 390.774 507.704 397.283 507.305 397.824V397.814C486.865 405.536 466.495 413.597 445.865 420.848C425.235 428.098 400.735 437.582 380.385 442.329C371.935 444.302 369.624 443.241 361.414 440.827C361.115 439.455 362.455 439.756 363.405 439.355C367.545 437.633 372.544 436.22 376.874 434.818C417.994 421.479 459.175 408.49 499.275 392.236ZM77.6048 398.846H77.6019C77.606 398.842 77.6105 398.839 77.6146 398.836L77.6048 398.846ZM122.925 360.649C128.515 357.925 133.394 355.332 136.584 362.803H136.575C130.815 363.594 123.455 371.265 118.595 372.407C115.965 373.028 113.625 371.035 111.175 372.878C109.095 374.45 110.014 376.753 108.605 378.325C107.875 379.146 95.3368 386.346 94.6351 385.816C94.255 382.832 91.3747 381.14 93.5345 378.266C95.0445 376.253 119.015 362.552 122.925 360.649ZM683.185 201.776C691.455 189.989 706.605 192.182 719.695 192.743C754.575 194.225 813.025 204.36 778.525 251.71C742.965 300.501 620.065 353.959 562.775 376.833C558.985 378.345 548.496 383.172 545.505 383.653C542.505 384.134 539.845 381.711 538.265 379.317C537.605 378.316 536.635 378.536 538.265 377.324C571.085 364.325 603.935 351.035 635.865 335.993C672.065 318.938 765.685 272.34 779.275 234.484C785.815 216.268 768.565 209.027 753.925 205.472C730.795 199.843 706.755 200.715 683.155 201.786L683.185 201.776Z" fill="url(#paint2_linear_83_677)"/>
<path d="M573.265 593.842C569.595 592.991 561.965 600.572 559.385 598.729C558.525 598.119 549.635 580.923 550.345 579.932C550.725 579.401 560.865 574.424 562.265 575.315C563.305 575.976 573.995 593.051 573.265 593.852V593.842ZM565.265 588.845C565.325 582.536 556.415 588.224 558.275 589.846L565.265 588.845Z" fill="#596DD6"/>
<path d="M589.255 511.852C593.645 513.774 597.985 510.86 601.985 512.603C603.875 513.424 610.605 520.624 610.215 522.277L597.875 532.782C596.485 532.542 586.525 520.544 586.345 519.192C586.005 516.769 592.335 516.699 589.255 511.852ZM602.085 516.008C601.885 515.667 598.595 514.485 598.255 514.846C596.905 521.866 604.955 520.955 602.085 516.008ZM597.245 524.841C597.675 522.427 597.035 518.982 593.765 519.853C590.495 520.725 593.435 527.004 597.245 524.841Z" fill="#596DD6"/>
<path d="M247.495 174.776C245.155 174.967 243.595 173.114 241.975 171.812C227.255 159.955 215.335 141.377 200.975 128.769C199.635 127.767 202.555 124.793 203.035 124.793C204.405 124.783 218.655 142.309 221.005 144.792C227.065 151.202 234.245 157.221 240.015 163.77C241.345 165.282 248.775 173.394 247.495 174.776Z" fill="#596DD6"/>
<path d="M245.495 464.823L232.505 467.827C236.395 463.06 242.175 454.748 245.495 464.823Z" fill="#596DD6"/>
<path d="M586.255 510.85L583.765 515.837L579.265 509.849L586.255 510.85Z" fill="#596DD6"/>
<path d="M142.565 155.779C138.275 157.251 134.125 148.648 138.085 147.787C140.625 147.236 143.385 153.555 142.565 155.779Z" fill="#596DD6"/>
<path d="M613.245 108.78C615.855 106.176 619.565 113.847 615.725 114.768C612.975 115.429 612.735 109.29 613.245 108.78Z" fill="#596DD6"/>
<path d="M265.215 224.039C277.215 221.976 282.725 228.185 281.015 239.852C278.815 254.934 260.355 275.775 247.405 283.226C226.385 295.324 215.995 284.638 224.745 262.546C230.365 248.355 249.605 226.733 265.215 224.039ZM266.235 228.065C252.185 230.078 234.945 249.546 229.135 261.935C220.175 281.033 227.135 291.318 246.625 279.44C258.555 272.17 278.805 249.126 277.525 234.314C276.905 227.174 272.245 227.214 266.245 228.075L266.235 228.065Z" fill="#1D1C1F"/>
<path d="M395.725 285.109C397.335 282.766 404.465 276.416 407.065 274.984C409.435 273.672 411.465 272.4 414.375 272.811C415.875 274.123 406.035 279.851 404.915 280.843C396.805 288.013 393.365 297.417 406.165 301.533C422.825 306.891 458.985 297.107 469.345 282.325C481.345 265.21 450.875 264.819 440.965 265.921C435.135 266.572 425.765 271.469 421.675 271.669C420.005 271.75 418.685 269.707 419.375 268.825C419.645 268.475 426.395 265.931 427.585 265.53C439.165 261.615 455.565 259.532 466.865 264.789C484.745 273.112 471.965 287.463 460.645 294.623C446.745 303.426 414.505 312.379 399.875 302.835C394.505 299.33 392.115 290.377 395.725 285.129V285.109Z" fill="#1D1C1F"/>
<path d="M583.255 229.788C580.645 230.269 581.495 229.287 580.805 227.795C577.745 221.235 576.245 215.046 572.075 208.487C569.245 204.03 557.655 188.707 551.515 195.017C545.375 201.326 554.005 226.523 557.735 233.834C565.715 249.467 585.895 269.106 583.265 235.797C586.295 232.342 590.615 248.635 583.305 255.335C579.345 258.961 576.125 258.149 571.745 255.816C560.985 250.078 550.595 229.177 547.965 217.61C546.115 209.468 542.605 191.712 554.245 190.2C566.495 188.617 584.405 218.241 583.265 229.778L583.255 229.788Z" fill="#1D1C1F"/>
<path d="M189.255 344.516C177.165 354.38 170.335 323.154 169.655 316.204C168.925 308.733 171.665 283.786 181.205 283.035C188.495 282.464 193.765 299.79 194.425 305.408C195.355 313.39 195.625 339.308 189.255 344.516ZM181.245 286.921C174.625 288.623 173.315 308.633 173.565 314.301C173.785 319.228 178.025 343.935 184.895 342.643C188.295 340.83 189.415 336.574 190.255 333.029C192.795 322.333 191.915 305.188 188.025 294.813C187.105 292.359 184.545 286.06 181.245 286.911V286.921Z" fill="#1D1C1F"/>
<path d="M397.885 135.779C393.105 136.631 389.355 140.737 393.475 145.193C400.665 152.955 431.585 160.546 441.395 157.331C450.145 154.457 437.905 147.577 438.355 145.293C438.915 142.429 443.875 146.195 444.695 146.936C450.035 151.783 450.505 158.302 442.915 160.846C432.495 164.331 418.055 160.486 407.865 156.8C400.055 153.976 386.355 148.538 388.415 138.303C389.915 130.832 408.515 131.283 414.425 132.224C417.555 132.725 421.525 133.256 420.375 136.781L417.375 137.772C420.355 137.923 425.185 137.943 422.855 141.798L412.385 139.775L414.375 135.779C409.365 136.39 402.625 134.938 397.885 135.779Z" fill="#1D1C1F"/>
<path d="M371.245 93.0162C374.815 92.9061 388.925 93.2065 385.945 98.7847C382.745 104.763 357.295 106.666 350.995 105.705C347.645 105.194 345.085 103.231 346.905 99.7461C348.845 96.0206 366.845 93.1564 371.255 93.0162H371.245ZM381.405 96.7717H365.915C361.965 96.7717 354.655 100.057 350.435 100.788C350.195 102.53 352.705 101.729 353.915 101.779C362.375 102.1 370.975 101.429 379.075 98.8949C380.695 98.3841 381.885 99.7161 381.405 96.7717Z" fill="#1D1C1F"/>
<path d="M318.155 200.995C322.295 200.044 324.925 200.585 324.425 205.212C323.415 214.515 302.715 220.254 307.965 208.817C308.685 207.255 316.375 201.406 318.155 200.995ZM321.445 204.801C316.335 204.481 312.525 207.395 310.455 211.781C315.035 211.651 319.105 208.516 321.445 204.801Z" fill="#1D1C1F"/>
<path d="M207.225 196.899C219.035 193.814 203.535 225.26 198.005 212.742C196.335 208.977 203.785 197.8 207.225 196.899ZM208.515 200.795C204.575 202.066 201.075 207.855 201.535 211.791C204.955 209.477 208.415 205.001 208.515 200.795Z" fill="#1D1C1F"/>
<path d="M613.485 275.555C612.065 273.051 611.035 262.025 615.665 268.865C616.035 269.406 618.295 276.937 618.265 272.28C618.245 268.935 617.265 264.929 615.555 262.065C615.195 261.464 608.875 256.557 613.755 256.757C621.225 257.057 625.025 277.207 619.595 278.739C618.355 279.09 613.795 276.105 613.475 275.555H613.485Z" fill="#1D1C1F"/>
<path d="M343.435 332.819C343.305 333.63 343.635 335.593 343.435 335.803C343.105 336.164 336.045 336.985 333.885 337.756C317.555 343.615 336.435 343.434 340.425 347.801C312.725 349.904 323.725 331.617 343.425 332.809L343.435 332.819Z" fill="#1D1C1F"/>
<path d="M562.915 147.887C568.795 145.904 576.395 156.459 572.335 159.344C566.885 163.219 556.325 150.1 562.915 147.887Z" fill="#1D1C1F"/>
<path d="M342.425 346.809C342.185 346.559 342.145 344.326 343.015 343.725C344.415 342.743 353.745 341.572 355.415 339.799C357.625 337.466 348.005 336.614 348.425 333.83C352.565 331.877 361.635 335.473 358.945 340.831C357.475 343.745 344.135 348.572 342.425 346.819V346.809Z" fill="#1D1C1F"/>
<path d="M489.175 259.672C488.015 261.594 473.615 264.699 476.475 256.447C478.045 251.91 492.765 253.713 489.175 259.672Z" fill="#1D1C1F"/>
<path d="M564.975 276.116C570.935 281.413 567.295 292.47 561.815 285.76C557.135 280.021 560.025 271.729 564.975 276.116Z" fill="#1D1C1F"/>
<path d="M282.465 258.81C284.135 260.393 273.145 275.465 270.485 272.801C269.525 271.84 271.275 269.676 271.935 268.765C273.275 266.912 277.185 261.885 278.625 260.463C279.515 259.582 281.185 257.609 282.465 258.82V258.81Z" fill="#1D1C1F"/>
<path d="M361.415 300.801C360.955 300.331 361.325 296.375 362.395 295.273C364.905 292.709 371.755 292.75 370.255 298.097C369.375 301.222 362.135 301.532 361.415 300.791V300.801Z" fill="#1D1C1F"/>
<path d="M272.475 187.795C273.605 188.837 263.385 199.683 261.495 197.79C259.605 195.897 269.145 186.373 272.475 187.795Z" fill="#1D1C1F"/>
<path d="M639.235 264.799C638.765 264.449 634.605 254.484 637.735 253.803C641.905 252.892 643.735 268.144 639.235 264.799Z" fill="#1D1C1F"/>
<path d="M428.365 257.809C431.205 260.222 417.035 263.847 416.385 264.809C413.245 260.232 425.155 257.198 428.365 257.809Z" fill="#1D1C1F"/>
<path d="M479.325 118.774C478.255 119.676 469.195 116.781 469.345 116.291C471.125 110.041 480.955 117.402 479.325 118.774Z" fill="#1D1C1F"/>
<path d="M447.345 306.811C447.835 309.345 446.865 308.574 445.405 309.325C443.745 310.176 437.555 313.06 436.365 310.286C435.645 308.614 441.245 307.482 442.305 307.252C443.995 306.901 445.605 306.581 447.335 306.801L447.345 306.811Z" fill="#1D1C1F"/>
<path d="M201.455 325.748C197.365 328.272 196.805 319.74 200.045 317.807C203.875 317.436 202.345 325.198 201.455 325.748Z" fill="#1D1C1F"/>
<path d="M368.335 139.875C371.135 144.462 360.795 142.179 360.415 141.778C360.315 141.668 360.315 138.894 360.415 138.794C360.865 138.323 367.895 139.154 368.335 139.875Z" fill="#1D1C1F"/>
<path d="M321.435 116.782C321.795 118.544 320.565 119.356 319.175 120.016C311.535 123.642 313.225 114.699 321.435 116.782Z" fill="#1D1C1F"/>
<path d="M454.345 275.795C452.625 275.114 446.315 277.467 446.365 274.313C448.385 271.819 454.505 271.739 454.345 275.795Z" fill="#1D1C1F"/>
<path d="M566.265 228.786C563.155 229.687 561.765 221.395 562.275 220.794C564.145 218.581 567.245 227.313 566.265 228.786Z" fill="#1D1C1F"/>
<path d="M559.265 255.796C556.945 256.467 552.995 251.089 554.275 249.807C556.295 247.794 560.275 253.512 559.265 255.796Z" fill="#1D1C1F"/>
<path d="M457.345 115.77H450.345V112.776C453.115 112.766 457.485 111.825 457.335 115.77H457.345Z" fill="#1D1C1F"/>
<path d="M543.285 209.788C540.335 211.05 538.725 204.28 539.295 203.8C541.825 201.636 544.505 207.245 543.285 209.788Z" fill="#1D1C1F"/>
<path d="M546.275 232.792C543.975 235.025 540.955 229.357 542.285 226.803C544.905 225.872 547.095 231.991 546.275 232.792Z" fill="#1D1C1F"/>
<path d="M334.235 546.062C344.415 545.07 375.025 556.577 375.485 568.385C375.615 571.719 374.025 573.913 370.695 574.644C358.925 577.238 337.605 567.844 329.905 558.891C324.735 552.872 325.725 546.893 334.235 546.072V546.062ZM332.095 550.008C325.735 552.051 337.815 561.214 340.115 562.676C344.585 565.51 370.545 577.167 372.335 569.256C374.125 561.344 340.615 547.284 332.095 550.018V550.008Z" fill="#1D1C1F"/>
<path d="M426.155 504.121C432.625 503.309 455.405 502.408 451.945 513.875C448.895 523.98 419.135 524.05 412.925 516.809C406.715 509.569 420.655 504.812 426.155 504.121ZM448.215 509.969C446.715 507.506 434.005 506.624 430.885 506.865C407.125 508.677 413.815 519.924 433.845 518.842C437.325 518.652 451.485 515.347 448.215 509.969Z" fill="#1D1C1F"/>
<path d="M436.355 551.85C437.095 556.007 434.155 555.506 431.565 556.587C430.095 557.198 428.845 555.986 429.375 558.841C433.965 558.811 442.635 559.371 446.365 556.347C449.765 553.593 440.765 554.314 440.365 552.331C439.415 547.574 452.545 551.059 451.245 556.137C449.665 562.336 428.165 565.651 425.085 559.572C422.695 554.855 432.785 551.37 436.365 551.85H436.355Z" fill="#1D1C1F"/>
<path d="M253.615 512.963C256.005 509.138 272.325 520.314 273.975 523.849C274.615 525.231 274.885 526.513 274.055 527.905C270.695 532.572 249.915 518.892 253.625 512.963H253.615ZM270.475 524.831C267.575 521.165 262.125 517.74 257.485 516.849C260.625 520.504 265.455 524.56 270.475 524.831Z" fill="#1D1C1F"/>
<path d="M302.455 497.831C300.165 500.205 297.265 493.124 295.835 491.973C294.735 491.091 287.015 487.696 285.995 487.837C284.455 488.047 284.625 489.018 285.485 490.33C288.785 495.388 292.045 498.102 298.465 497.841C298.735 501.246 294.775 501.537 292.445 500.355C291.195 499.724 291.015 497.751 290.185 497.13C287.855 495.378 278.425 492.984 281.195 487.116C285.125 478.793 307.185 492.934 302.465 497.831H302.455Z" fill="#1D1C1F"/>
<path d="M497.315 544.85C498.645 549.206 489.945 553.152 488.335 549.337C486.725 545.521 495.185 545.301 497.315 544.85Z" fill="#1D1C1F"/>
<path d="M467.335 564.84C466.755 565.631 458.195 567.714 457.345 566.853C453.285 562.717 470.995 559.923 467.335 564.84Z" fill="#1D1C1F"/>
<path d="M369.695 556.558C364.655 551.44 373.785 552.071 374.405 555.356C374.895 557.94 371.415 558.3 369.695 556.558Z" fill="#1D1C1F"/>
<path d="M402.385 500.835C399.715 500.995 396.165 501.346 396.395 497.841C399.065 497.68 402.615 497.33 402.385 500.835Z" fill="#1D1C1F"/>
<path d="M618.955 388.02C633.735 384.655 628.475 410.753 626.245 418.344C623.435 427.898 611.595 454.417 598.955 450.632C590.615 448.128 595.035 427.397 596.965 421.048C599.485 412.756 610.165 390.022 618.945 388.02H618.955ZM620.905 390.964C614.545 391.535 604.305 411.604 602.225 417.313C600.345 422.47 593.475 445.854 600.945 447.717C608.415 449.58 619.695 426.847 621.695 420.798C623.245 416.111 629.365 390.213 620.915 390.974L620.905 390.964Z" fill="#1D1C1F"/>
<path d="M597.245 478.844C598.655 482.239 594.275 489.589 590.775 488.848C586.575 487.957 592.585 476.831 597.245 478.844Z" fill="#1D1C1F"/>
<path d="M637.225 375.812C637.115 373.388 637.145 371.015 637.505 368.591C637.665 367.54 637.885 363.954 639.695 364.826C643.735 366.768 639.275 378.295 637.215 375.812H637.225Z" fill="#1D1C1F"/>
<path d="M591.765 409.832C596.275 408.76 592.205 419.356 589.765 418.825C586.335 418.074 590.165 410.934 591.765 409.832Z" fill="#1D1C1F"/>
<path d="M627.225 377.825C628.255 378.836 625.605 385.156 623.235 382.812C622.205 381.801 624.855 375.482 627.225 377.825Z" fill="#1D1C1F"/>
<path d="M117.315 266.952C123.165 265.38 128.615 274.343 122.585 277.317C115.055 281.033 109.835 268.965 117.315 266.952Z" fill="#1D1C1F"/>
<path d="M176.165 393.898C182.725 391.745 187.795 407.168 182.935 408.76C176.675 410.803 171.495 395.44 176.165 393.898Z" fill="#1D1C1F"/>
<path d="M253.485 442.83C251.375 444.823 238.685 431.974 244.015 430.842C245.075 430.612 254.815 441.578 253.485 442.83Z" fill="#1D1C1F"/>
<path d="M227.025 130.782C229.155 130.331 240.865 139.805 235.985 142.78C234.735 143.03 227.995 136.11 227.085 134.708C226.375 133.606 224.645 131.293 227.025 130.782Z" fill="#1D1C1F"/>
<path d="M239.505 117.783C242.075 115.319 254.265 128.749 248.975 129.78C246.495 129.51 238.105 119.125 239.505 117.783Z" fill="#1D1C1F"/>
<path d="M246.505 112.776C248.415 110.803 255.225 119.235 256.005 120.768C257.375 123.452 254.765 124.844 251.675 122.1C248.805 119.546 245.805 117.052 246.505 112.786V112.776Z" fill="#1D1C1F"/>
<path d="M222.025 109.781C223.035 109.571 230.475 116.711 231.025 117.763C232.975 121.548 228.225 120.837 225.465 118.323C224.305 117.272 218.355 110.542 222.025 109.781Z" fill="#1D1C1F"/>
<path d="M218.865 96.4312C217.925 95.3496 214.435 89.8415 215.525 88.78C218.055 86.3163 229.275 100.928 224.015 100.758C222.925 98.8347 219.985 97.7331 218.865 96.4312Z" fill="#1D1C1F"/>
<path d="M243.495 135.769C241.475 137.732 235.355 130.862 234.455 129.33C233.555 127.797 233.265 126.626 233.515 124.783C234.025 124.182 242.225 130.742 242.575 131.212C243.345 132.264 244.065 135.228 243.505 135.779L243.495 135.769Z" fill="#1D1C1F"/>
<path d="M211.035 96.7825C212.245 96.5321 222.715 105.555 217.995 106.777C215.015 107.779 206.535 97.7238 211.035 96.7825Z" fill="#1D1C1F"/>
<path d="M227.515 103.782C229.045 102.26 236.355 109.48 237.025 110.762C241.055 118.574 223.635 107.618 227.515 103.782Z" fill="#1D1C1F"/>
<path d="M232.505 93.7675C229.675 96.5116 222.035 86.2264 223.525 84.7743C226.275 82.1104 234.535 91.8046 232.505 93.7675Z" fill="#1D1C1F"/>
<path d="M214.525 117.783C216.525 115.86 224.215 122.189 223.515 125.264C222.265 130.091 212.795 119.455 214.525 117.783Z" fill="#1D1C1F"/>
<path d="M243.495 107.768C241.095 110.181 232.165 98.7547 237.015 97.7732C238.815 97.4127 244.825 106.426 243.495 107.768Z" fill="#1D1C1F"/>
<path d="M207.815 112.465C206.805 111.563 201.385 104.934 202.535 103.782C204.025 102.3 210.445 108.539 211.025 109.781C212.525 113.005 210.225 114.618 207.815 112.465Z" fill="#1D1C1F"/>
<path d="M197.975 96.3617C198.305 96.8524 199.635 96.4818 199.595 98.2244C199.465 104.584 194.385 99.1658 192.665 96.1413C188.855 89.4415 194.375 91.0539 197.975 96.3617Z" fill="#1D1C1F"/>
<path d="M199.535 85.7758C201.655 83.5626 210.435 93.8577 206.015 94.769C204.135 95.1596 197.605 87.7888 199.535 85.7758Z" fill="#1D1C1F"/>
<path d="M207.535 77.7742C209.295 76.3822 216.675 84.8546 212.005 85.766C209.945 86.1666 204.925 80.3981 207.535 77.7742Z" fill="#1D1C1F"/>
<path d="M212.525 72.777C214.285 71.0444 222.545 78.5455 218.005 79.7673C214.755 80.6385 211.665 73.6282 212.525 72.777Z" fill="#1D1C1F"/>
<path d="M462.355 67.7693C466.325 65.1255 467.845 73.7782 463.825 75.7611C459.965 76.1817 461.615 68.2601 462.355 67.7693Z" fill="#1D1C1F"/>
<path d="M465.355 57.7746C471.065 56.2323 469.305 64.2141 466.825 64.7649C463.425 65.536 464.455 59.3569 465.355 57.7746Z" fill="#1D1C1F"/>
<path d="M477.367 58.7343L473.277 58.75L473.304 65.7602L477.394 65.7445L477.367 58.7343Z" fill="#1D1C1F"/>
<path d="M468.335 15.7534C468.665 16.0739 468.135 21.4117 468.335 22.7637C460.675 25.3174 465.265 12.779 468.335 15.7534Z" fill="#1D1C1F"/>
<path d="M485.325 18.7572C486.895 20.2894 484.115 28.5716 481.335 25.7574C480.215 24.6258 482.395 15.903 485.325 18.7572Z" fill="#1D1C1F"/>
<path d="M476.335 45.7569C475.335 44.7555 477.275 39.2874 479.815 39.7681C484.135 40.5793 479.375 48.8114 476.335 45.7569Z" fill="#1D1C1F"/>
<path d="M459.355 42.7629C459.195 41.4209 459.485 40.2091 460.105 39.0274C463.605 32.3776 468.145 44.1649 459.355 42.7629Z" fill="#1D1C1F"/>
<path d="M476.325 17.7657C476.635 18.0862 476.145 22.5227 476.325 23.7645H472.335C470.955 21.1907 474.115 15.5124 476.325 17.7657Z" fill="#1D1C1F"/>
<path d="M456.855 56.7638C460.145 55.9125 460.635 64.0445 455.855 62.7526C453.085 62.0115 455.495 57.1143 456.855 56.7638Z" fill="#1D1C1F"/>
<path d="M462.335 46.7686C463.165 54.8104 456.705 55.6115 458.345 46.7686H462.335Z" fill="#1D1C1F"/>
<path d="M457.345 67.7695C458.265 75.7112 452.475 75.8414 453.355 67.7695H457.345Z" fill="#1D1C1F"/>
<path d="M474.335 70.7743C475.975 72.4468 472.715 79.1967 470.345 76.7631C468.705 75.0907 471.965 68.3408 474.335 70.7743Z" fill="#1D1C1F"/>
<path d="M479.325 48.7618C480.415 49.8434 479.085 56.5132 475.335 54.7606C474.465 52.8578 476.815 46.2782 479.325 48.7618Z" fill="#1D1C1F"/>
<path d="M470.335 47.7598C470.805 48.2004 470.675 54.3595 467.855 53.7586C464.535 53.0476 467.585 45.186 470.335 47.7598Z" fill="#1D1C1F"/>
<path d="M472.335 38.7668V43.7641H468.345C467.975 40.4893 468.555 38.1759 472.335 38.7768V38.7668Z" fill="#1D1C1F"/>
<path d="M463.335 92.7759C463.635 94.248 463.565 99.4457 460.855 98.7647C457.745 97.9935 460.005 92.175 463.335 92.7759Z" fill="#1D1C1F"/>
<path d="M483.325 30.7649C483.595 31.0252 484.555 37.1442 480.845 35.7522C476.845 34.25 481.305 28.7519 483.325 30.7649Z" fill="#1D1C1F"/>
<path d="M462.345 32.7585C462.075 32.4981 461.115 26.3791 464.825 27.7711C468.825 29.2734 464.365 34.7714 462.345 32.7585Z" fill="#1D1C1F"/>
<path d="M474.335 29.7641C474.985 30.4151 474.305 35.3123 471.855 34.7515C468.025 33.8802 472.055 27.4708 474.335 29.7641Z" fill="#1D1C1F"/>
<path d="M257.495 91.7646C254.955 89.301 265.595 82.1805 266.475 86.2865C266.485 89.0206 258.865 93.0965 257.495 91.7646Z" fill="#1D1C1F"/>
<path d="M271.475 92.7765C273.785 95.0499 264.275 100.979 263.495 97.2531C264.265 93.788 268.355 92.436 271.475 92.7765Z" fill="#1D1C1F"/>
<path d="M276.475 100.777C276.105 104.823 271.935 106.446 268.495 105.765C267.945 102.81 275.215 99.6758 276.475 100.777Z" fill="#1D1C1F"/>
<path d="M272.475 112.776C274.205 114.539 268.195 120.497 266.485 118.765C264.775 117.032 270.765 111.043 272.475 112.776Z" fill="#1D1C1F"/>
<path d="M280.465 107.778C281.925 109.15 275.165 114.748 274.475 111.263C274.005 108.86 278.415 107.117 280.465 107.778Z" fill="#1D1C1F"/>
<path d="M594.255 591.859C597.705 590.467 602.795 597.758 598.735 598.849C595.215 599.791 593.835 594.433 594.255 591.859Z" fill="#1D1C1F"/>
<path d="M588.255 596.866C591.635 595.244 596.355 603.106 592.725 603.857C590.525 604.307 587.205 599.18 588.255 596.866Z" fill="#1D1C1F"/>
<path d="M569.055 553.082C569.695 553.433 571.915 558.24 571.265 558.851C569.255 560.734 563.545 556.307 565.275 552.862C566.495 552.952 567.955 552.501 569.045 553.092L569.055 553.082Z" fill="#1D1C1F"/>
<path d="M577.255 567.844C576.485 568.625 570.345 566.803 571.275 563.357C572.555 558.59 579.735 565.34 577.255 567.844Z" fill="#1D1C1F"/>
<path d="M580.775 570.858C583.105 570.348 587.105 577.148 583.745 577.849C581.255 578.369 577.075 571.66 580.775 570.858Z" fill="#1D1C1F"/>
<path d="M573.045 548.075C573.605 548.376 575.495 552.201 575.225 553.253C573.895 558.531 568.015 548.987 569.265 547.855C569.465 547.675 572.315 547.685 573.035 548.085L573.045 548.075Z" fill="#1D1C1F"/>
<path d="M592.245 587.853C590.515 589.636 583.365 583.006 587.775 581.854C591.215 580.953 593.435 586.631 592.245 587.853Z" fill="#1D1C1F"/>
<path d="M575.775 576.857C578.105 576.887 582.255 581.925 578.745 582.856C575.655 583.667 572.295 578.9 575.775 576.857Z" fill="#1D1C1F"/>
<path d="M586.255 592.851C584.305 594.874 579.405 588.795 581.265 586.862C583.125 584.929 588.115 590.918 586.255 592.851Z" fill="#1D1C1F"/>
<path d="M558.275 534.846C558.145 526.744 561.025 528.867 562.265 534.846C560.965 534.745 559.565 535.016 558.275 534.846C558.285 535.517 560.305 537.169 558.325 538.381C554.555 540.684 553.105 537.339 553.285 533.844C555.155 533.183 556.995 534.675 558.275 534.836V534.846Z" fill="#1D1C1F"/>
<path d="M563.275 543.849C563.365 544.57 565.025 547.084 564.265 547.845C563.335 548.786 558.975 547.114 558.275 545.331C559.065 541.145 561.425 543.559 563.265 543.849C563.105 542.557 563.365 541.155 563.265 539.853L568.255 542.367C567.675 546.142 565.445 544.189 563.265 543.849H563.275Z" fill="#1D1C1F"/>
<path d="M519.295 47.7605C512.935 45.2868 504.545 43.6545 498.515 41.0606C493.885 39.0677 494.075 36.6842 499.115 37.4153C502.275 37.876 515.425 42.1623 517.665 43.8948C519.325 45.1767 519.605 45.5072 519.295 47.7605Z" fill="#1D1C1F"/>
<path d="M513.285 70.8036C513.225 71.5948 513.495 73.5577 513.305 73.7579C512.035 75.0699 497.115 68.4502 494.015 68.5703C492.315 68.34 491.805 65.2655 492.335 64.7647C494.435 62.7718 509.785 70.4931 513.295 70.8036H513.285Z" fill="#1D1C1F"/>
<path d="M514.305 66.7678C513.605 67.5389 495.825 60.6688 494.625 59.9778C493.245 59.1766 491.955 58.736 492.335 56.7831C493.705 55.6214 511.595 61.6603 513.315 63.2826C514.235 64.1539 514.885 66.1368 514.305 66.7778V66.7678Z" fill="#1D1C1F"/>
<path d="M504.485 53.5991C503.965 52.7579 503.455 49.3629 505.695 49.8636C507.615 50.2942 517.685 54.0197 517.305 56.243C515.755 59.658 504.855 54.1699 504.495 53.5991H504.485Z" fill="#1D1C1F"/>
<path d="M656.215 199.783C654.325 198.041 662.185 190.52 663.205 195.307C663.695 197.59 657.735 201.175 656.215 199.783Z" fill="#1D1C1F"/>
<path d="M667.195 200.795C668.385 201.826 661.405 209.708 660.215 205.281C659.255 201.706 664.745 200.384 667.195 200.795Z" fill="#1D1C1F"/>
<path d="M645.735 214.796C649.685 213.874 648.355 222.006 643.735 220.794C640.345 219.903 644.385 215.116 645.735 214.796Z" fill="#1D1C1F"/>
<path d="M644.205 208.796C646.225 210.749 640.155 215.646 638.215 213.784C636.275 211.921 642.265 206.934 644.205 208.796Z" fill="#1D1C1F"/>
<path d="M654.665 212.913C656.079 212.913 657.225 211.765 657.225 210.349C657.225 208.933 656.079 207.785 654.665 207.785C653.251 207.785 652.105 208.933 652.105 210.349C652.105 211.765 653.251 212.913 654.665 212.913Z" fill="#1D1C1F"/>
<path d="M652.205 201.796C652.965 206.022 648.835 207.324 646.225 204.28L652.205 201.796Z" fill="#1D1C1F"/>
<path d="M187.545 144.783C189.295 143.1 196.255 147.918 195.535 151.262C194.645 155.399 185.535 146.716 187.545 144.783Z" fill="#1D1C1F"/>
<path d="M200.525 146.775C197.895 149.219 189.915 139.635 194.045 138.784C195.725 138.443 202.095 145.313 200.525 146.775Z" fill="#1D1C1F"/>
<path d="M215.245 166.064C219.945 170.621 211.615 172.223 210.525 167.276C209.995 164.832 213.375 164.261 215.245 166.064Z" fill="#1D1C1F"/>
<path d="M220.515 164.782C218.905 166.485 213.825 161.457 215.525 159.795C217.665 157.712 222.615 162.569 220.515 164.782Z" fill="#1D1C1F"/>
<path d="M209.515 163.78C205.455 164.491 202.445 161.998 206.035 158.793L209.515 163.78Z" fill="#1D1C1F"/>
<path d="M200.045 153.786C202.165 153.305 205.145 157.932 202.015 158.773C198.125 159.825 197.495 154.367 200.045 153.786Z" fill="#1D1C1F"/>
<path d="M213.515 153.786C213.945 154.217 214.475 159.064 211.035 157.772C206.765 156.17 211.225 151.493 213.515 153.786Z" fill="#1D1C1F"/>
<path d="M218.515 456.831C215.705 457.021 212.545 454.868 211.465 452.444C207.085 442.62 219.495 450.772 218.515 456.831Z" fill="#1D1C1F"/>
<path d="M202.185 463.961C207.045 463.561 203.155 471.863 199.055 470.841C195.735 470.01 199.215 464.212 202.185 463.961Z" fill="#1D1C1F"/>
<path d="M209.195 461.738C210.802 461.738 212.105 460.433 212.105 458.823C212.105 457.214 210.802 455.909 209.195 455.909C207.588 455.909 206.285 457.214 206.285 458.823C206.285 460.433 207.588 461.738 209.195 461.738Z" fill="#1D1C1F"/>
<path d="M187.535 467.837C189.555 469.79 183.485 474.687 181.545 472.825C179.605 470.962 185.595 465.975 187.535 467.837Z" fill="#1D1C1F"/>
<path d="M191.545 462.83C190.565 461.899 195.605 455.239 197.535 459.345L191.545 462.83Z" fill="#1D1C1F"/>
<path d="M637.215 178.793C637.665 183.179 637.185 185.493 632.225 184.782C631.525 181.136 633.585 178.963 637.215 178.793Z" fill="#1D1C1F"/>
<path d="M629.895 172.944C633.525 171.952 634.475 176.799 631.615 177.691C626.915 179.163 625.865 174.035 629.895 172.944Z" fill="#1D1C1F"/>
<path d="M640.875 165.914C644.615 165.603 643.945 172.323 638.785 170.731C635.515 169.719 638.265 166.134 640.875 165.914Z" fill="#1D1C1F"/>
<path d="M643.885 171.942C649.085 170.54 646.985 177.891 642.725 176.789C640.105 176.108 641.575 172.573 643.885 171.942Z" fill="#1D1C1F"/>
<path d="M628.225 167.786C629.565 176.268 620.245 171.441 623.825 168.697C624.435 168.227 627.925 167.475 628.225 167.786Z" fill="#1D1C1F"/>
<path d="M637.215 160.786C638.505 163.851 635.345 167.636 632.225 164.271L637.215 160.786Z" fill="#1D1C1F"/>
<path d="M690.695 138.784C693.375 138.213 695.745 144.122 692.665 144.773C689.985 145.344 687.615 139.435 690.695 138.784Z" fill="#1D1C1F"/>
<path d="M681.195 143.781C682.565 142.319 688.165 149.089 684.675 149.77C682.275 150.241 680.535 145.824 681.195 143.781Z" fill="#1D1C1F"/>
<path d="M505.315 385.817L515.785 371.826C517.205 372.958 517.415 373.098 516.905 374.881C516.335 376.884 508.085 388.15 505.315 385.807V385.817Z" fill="#1D1C1F"/>
<path d="M515.985 388.49C515.255 389.121 512.845 390.383 512.315 389.812C510.905 388.32 520.735 376.473 522.785 376.823C524.835 377.174 523.705 379.086 523.125 380.128C522.635 380.989 516.775 387.819 515.995 388.49H515.985Z" fill="#1D1C1F"/>
<path d="M527.305 404.814C525.155 402.591 534.865 395.401 536.625 394.629C537.875 394.079 539.235 393.948 539.265 395.31C539.325 397.434 529.065 406.637 527.305 404.814Z" fill="#1D1C1F"/>
<path d="M535.285 387.829C535.895 388.54 535.175 391.204 534.275 392.306C533.955 392.696 527.225 398.655 526.805 398.925C525.755 399.586 523.595 399.136 523.315 398.815C521.835 397.113 534.385 386.768 535.295 387.829H535.285Z" fill="#1D1C1F"/>
<path d="M529.295 382.822C531.145 384.685 519.165 396.672 517.315 394.81C515.065 392.556 522.195 388.4 523.345 387.359C524.285 386.517 527.245 380.769 529.295 382.822Z" fill="#1D1C1F"/>
<path d="M501.315 374.821C503.595 373.008 503.965 372.988 506.465 370.474C511.895 365.006 510.185 371.226 507.145 375.151C503.525 379.828 498.585 383.494 501.315 374.821C499.675 376.123 499.055 377.254 497.805 378.817C491.085 378.176 502.965 365.868 503.815 365.838C507.335 365.707 501.815 373.248 501.315 374.821Z" fill="#1D1C1F"/>
<path d="M588.245 545.842C586.035 547.965 579.545 542.297 582.265 538.852C585.535 537.239 589.535 544.61 588.245 545.842Z" fill="#1D1C1F"/>
<path d="M591.765 548.856C594.155 548.385 598.485 554.815 594.735 555.846C590.985 556.878 588.795 549.447 591.765 548.856Z" fill="#1D1C1F"/>
<path d="M600.765 557.859C603.445 557.288 605.815 563.197 602.735 563.848C600.055 564.419 597.685 558.51 600.765 557.859Z" fill="#1D1C1F"/>
<path d="M579.255 535.837C577.595 537.549 572.565 532.462 574.265 530.85C576.485 528.746 581.335 533.694 579.255 535.837Z" fill="#1D1C1F"/>
<path d="M205.525 510.841C203.235 513.034 194.235 501.547 193.345 499.514C192.815 498.292 192.455 497.161 194.045 496.85C196.005 496.47 207.275 509.158 205.515 510.841H205.525Z" fill="#1D1C1F"/>
<path d="M191.535 506.834C189.835 508.517 184.875 503.489 186.545 501.847C188.215 500.205 193.205 505.192 191.535 506.834Z" fill="#1D1C1F"/>
<path d="M81.5246 373.899C82.2446 374.36 86.9646 387.629 87.6046 389.812C84.5946 392.767 79.5646 379.557 79.1046 377.825C78.5146 375.612 78.0746 371.686 81.5246 373.899Z" fill="#1D1C1F"/>
<path d="M48.635 385.816C43.065 384.144 44.255 373.478 43.645 368.822C45.795 368.491 46.105 369.663 46.585 371.365C47.725 375.371 48.355 381.56 48.625 385.816H48.635Z" fill="#1D1C1F"/>
<path d="M66.5446 374.88C67.1946 375.291 70.2646 387.909 69.6146 389.812C67.1446 392.806 62.7346 375.691 63.6246 374.82C63.7246 374.72 66.2246 374.68 66.5346 374.88H66.5446Z" fill="#1D1C1F"/>
<path d="M78.6148 389.813C73.5048 388.251 72.2248 379.338 71.6348 374.821C73.8448 372.297 79.5448 387.86 78.6148 389.813Z" fill="#1D1C1F"/>
<path d="M54.6249 385.817C54.5149 385.917 51.7449 385.927 51.6349 385.817C51.1149 385.316 48.2349 371.776 51.1249 371.826C53.7749 372.517 55.1449 385.296 54.6149 385.807L54.6249 385.817Z" fill="#1D1C1F"/>
<path d="M61.6249 387.82C61.5149 387.92 58.7449 387.93 58.6349 387.82C58.1249 387.339 56.5349 375.632 56.6349 373.819C59.3149 370.604 62.5549 386.928 61.6249 387.82Z" fill="#1D1C1F"/>
<path d="M159.555 514.846C162.355 517.75 151.515 525.942 152.775 518.492C153.135 516.348 158.315 513.564 159.555 514.846Z" fill="#1D1C1F"/>
<path d="M155.555 508.848C157.065 510.37 152.285 516.098 149.565 514.836C147.565 511.371 154.085 507.375 155.555 508.848Z" fill="#1D1C1F"/>
<path d="M147.575 531.841C145.265 530.079 147.975 525.232 151.045 525.832C155.485 526.704 149.695 533.464 147.575 531.841Z" fill="#1D1C1F"/>
<path d="M162.565 504.831C160.965 503.029 164.325 498.482 167.035 498.833C171.645 501.196 163.385 505.763 162.565 504.831Z" fill="#1D1C1F"/>
<path d="M144.575 509.839C145.515 500.736 154.315 506.614 148.545 509.328C147.245 509.939 145.955 509.959 144.575 509.839Z" fill="#1D1C1F"/>
<path d="M144.565 516.849C146.275 518.491 141.215 523.549 139.575 521.836C137.485 519.653 142.385 514.756 144.565 516.849Z" fill="#1D1C1F"/>
<path d="M517.305 568.845C515.755 567.504 523.165 561.094 525.285 565.36C525.865 568.225 519.115 569.386 517.305 568.845Z" fill="#1D1C1F"/>
<path d="M528.295 571.86C530.755 574.594 523.985 576.647 522.305 575.846C521.565 572.942 527.635 571.129 528.295 571.86Z" fill="#1D1C1F"/>
<path d="M550.125 564.009C554.425 566.602 546.905 575.465 546.295 563.858C547.455 563.999 549.225 563.468 550.125 564.009Z" fill="#1D1C1F"/>
<path d="M541.285 551.841C538.605 551.861 537.435 552.692 536.755 549.898C535.095 543.138 542.135 546.162 541.285 551.841Z" fill="#1D1C1F"/>
<path d="M556.275 564.849C551.985 565.671 551.375 563.878 551.285 559.862C554.405 559.401 556.725 561.675 556.275 564.849Z" fill="#1D1C1F"/>
<path d="M545.275 548.846C543.835 549.126 542.355 548.015 541.795 546.833C538.775 540.414 547.055 541.726 545.275 548.846Z" fill="#1D1C1F"/>
<path d="M541.295 559.852C541.005 559.562 541.485 556.387 541.285 555.356C543.875 553.443 545.105 556.387 546.265 558.36C545.685 559.943 541.795 560.353 541.295 559.862V559.852Z" fill="#1D1C1F"/>
<path d="M550.275 556.848C546.585 557.439 545.905 555.256 546.285 551.861C549.975 551.27 550.655 553.453 550.275 556.848Z" fill="#1D1C1F"/>
<path d="M427.365 35.7621C427.885 36.2728 427.635 42.4118 424.885 41.7509C421.045 40.8295 424.745 33.1583 427.365 35.7621Z" fill="#1D1C1F"/>
<path d="M429.639 54.6202L428.951 60.418L433.122 60.9145L433.81 55.1168L429.639 54.6202Z" fill="#1D1C1F"/>
<path d="M434.355 36.7639V41.7612H430.365C429.995 38.4864 430.575 36.173 434.355 36.7739V36.7639Z" fill="#1D1C1F"/>
<path d="M427.365 45.7668V50.7641H423.375C423.005 47.4893 423.585 45.1759 427.365 45.7768V45.7668Z" fill="#1D1C1F"/>
<path d="M426.375 54.7607H423.355V59.7781H426.375V54.7607Z" fill="#1D1C1F"/>
<path d="M523.195 86.8774C526.475 92.1752 516.835 93.1967 518.305 87.288C518.825 85.2049 522.775 86.1964 523.195 86.8774Z" fill="#1D1C1F"/>
<path d="M526.175 81.6701C522.105 84.7547 520.785 77.3638 523.815 76.7729C526.115 76.3323 527.935 80.3382 526.175 81.6701Z" fill="#1D1C1F"/>
<path d="M528.575 73.5083C529.922 73.5083 531.015 72.4142 531.015 71.0647C531.015 69.7151 529.922 68.6211 528.575 68.6211C527.227 68.6211 526.135 69.7151 526.135 71.0647C526.135 72.4142 527.227 73.5083 528.575 73.5083Z" fill="#1D1C1F"/>
<path d="M533.285 80.7782C535.575 83.0616 529.165 87.0975 528.295 83.2619C527.745 80.8083 532.635 80.1373 533.285 80.7782Z" fill="#1D1C1F"/>
<path d="M528.295 88.7807C528.945 89.4317 528.265 94.3289 525.815 93.768C521.985 92.8968 526.015 86.4874 528.295 88.7807Z" fill="#1D1C1F"/>
<path d="M532.295 72.7765C532.945 72.1255 537.835 72.8065 537.285 75.2601C536.415 79.0958 530.015 75.0598 532.295 72.7765Z" fill="#1D1C1F"/>
<path d="M549.785 95.0393C551.033 95.0393 552.045 94.026 552.045 92.776C552.045 91.526 551.033 90.5127 549.785 90.5127C548.537 90.5127 547.525 91.526 547.525 92.776C547.525 94.026 548.537 95.0393 549.785 95.0393Z" fill="#1D1C1F"/>
<path d="M544.275 91.5145C545.529 91.5145 546.545 90.4966 546.545 89.2411C546.545 87.9856 545.529 86.9678 544.275 86.9678C543.021 86.9678 542.005 87.9856 542.005 89.2411C542.005 90.4966 543.021 91.5145 544.275 91.5145Z" fill="#1D1C1F"/>
<path d="M545.785 102.04C547.033 102.04 548.045 101.027 548.045 99.777C548.045 98.527 547.033 97.5137 545.785 97.5137C544.537 97.5137 543.525 98.527 543.525 99.777C543.525 101.027 544.537 102.04 545.785 102.04Z" fill="#1D1C1F"/>
<path d="M542.285 94.7793C544.365 96.8824 540.375 100.848 538.295 98.7652C536.675 97.1428 540.685 93.1569 542.285 94.7793Z" fill="#1D1C1F"/>
<path d="M565.265 588.845L558.275 589.846C556.405 588.214 565.325 582.536 565.265 588.845Z" fill="#1D1C1F"/>
<path d="M597.245 524.841C593.425 527.014 590.575 520.705 593.765 519.854C596.955 519.002 597.675 522.427 597.245 524.841Z" fill="#1D1C1F"/>
<path d="M602.085 516.008C604.955 520.955 596.905 521.866 598.255 514.846C598.595 514.485 601.885 515.667 602.085 516.008Z" fill="#1D1C1F"/>
<path d="M620.045 98.5849C618.785 99.3059 614.965 98.3946 614.155 97.1027C612.965 95.1899 612.615 86.9979 611.275 83.2323C609.475 78.1749 604.495 75.0904 605.685 70.754C608.715 59.7078 630.545 40.9402 641.835 39.8086C647.985 39.1877 656.245 48.6015 660.235 53.2383C662.885 56.3228 668.505 62.0212 667.095 66.1272C666.685 67.309 647.775 74.2692 644.195 76.2521C636.685 80.3982 630.515 85.4957 624.715 91.7649C623.515 93.0668 620.405 98.3846 620.045 98.5949V98.5849ZM661.195 63.7537C661.845 62.8925 657.595 57.795 656.715 56.7535C655.135 54.8907 647.245 46.5785 645.765 45.7072C638.705 41.5611 621.375 56.3929 616.815 61.8509C615.745 63.1328 610.325 71.1947 610.405 72.106C610.555 73.8486 613.725 76.5826 614.745 78.7558C616.685 82.8918 616.755 87.6889 618.725 91.7649C629.255 77.9145 644.785 68.9614 661.195 63.7537Z" fill="#1D1C1F"/>
<path d="M661.195 63.7536C644.775 68.9612 629.255 77.9144 618.725 91.7647C616.755 87.6887 616.685 82.8917 614.745 78.7556C613.725 76.5824 610.555 73.8484 610.405 72.1059C610.325 71.1945 615.745 63.1327 616.815 61.8508C621.375 56.3928 638.705 41.561 645.765 45.7071C647.245 46.5784 655.135 54.8806 656.715 56.7533C657.595 57.7948 661.845 62.8923 661.195 63.7536ZM654.205 62.7621C655.815 61.1698 647.765 49.5027 644.225 49.7731C643.215 50.9248 649.755 59.6376 650.965 61.5003C651.885 62.9224 653.315 63.6535 654.215 62.7722L654.205 62.7621ZM648.205 64.7651C649.515 63.4732 641.375 47.8502 638.225 50.7745C637.415 51.5256 644.025 62.0711 644.955 63.5032C645.885 64.9353 647.315 65.6464 648.205 64.7651ZM641.215 67.7595C642.855 64.9253 636.285 51.8261 633.235 54.7704C632.675 55.3112 639.385 69.9427 641.215 67.7595ZM635.215 71.7654C636.785 70.2131 630.595 58.8464 628.725 58.7863C625.185 58.6761 631.525 70.3433 632.145 71.1545C632.885 72.1059 635.015 71.9657 635.215 71.7654ZM622.235 64.7751C622.255 69.0514 624.785 72.867 627.725 75.7512C631.725 75.9816 624.285 62.5318 622.235 64.7751ZM624.225 80.7686C625.315 79.677 618.925 67.2387 616.245 69.7724C615.725 70.2632 621.345 83.6628 624.225 80.7686Z" fill="#EDF0FF"/>
<path d="M648.205 64.7656C647.315 65.6368 645.875 64.9158 644.955 63.5037C644.035 62.0916 637.415 51.5261 638.225 50.775C641.375 47.8507 649.515 63.4737 648.205 64.7656Z" fill="#1D1C1F"/>
<path d="M641.215 67.7597C639.375 69.9429 632.665 55.3114 633.235 54.7706C636.285 51.8363 642.855 64.9255 641.215 67.7597Z" fill="#1D1C1F"/>
<path d="M635.215 71.7658C635.015 71.9561 632.895 72.1063 632.145 71.1549C631.515 70.3538 625.185 58.6866 628.725 58.7868C630.595 58.8469 636.785 70.2136 635.215 71.7658Z" fill="#1D1C1F"/>
<path d="M654.205 62.7625C653.305 63.6538 651.885 62.9227 650.955 61.4906C649.755 59.6279 643.215 50.9151 644.215 49.7634C647.755 49.493 655.805 61.1602 654.195 62.7525L654.205 62.7625Z" fill="#1D1C1F"/>
<path d="M624.225 80.7686C621.345 83.6629 615.715 70.2732 616.245 69.7725C618.935 67.2388 625.315 79.667 624.225 80.7686Z" fill="#1D1C1F"/>
<path d="M622.235 64.7749C624.285 62.5316 631.725 75.9814 627.725 75.7511C624.775 72.8668 622.245 69.0512 622.235 64.7749Z" fill="#1D1C1F"/>
<path d="M628.475 550.088C629.975 548.666 640.185 545.281 644.125 542.256C646.185 540.684 648.435 538.28 650.185 536.318C652.345 533.904 653.775 528.446 657.635 528.807C660.415 529.067 678.165 543.438 681.205 546.322C684.245 549.207 692.715 557.639 692.195 561.254C691.675 564.87 674.985 583.918 671.575 585.71C669.995 586.541 668.615 587.142 666.755 586.872C664.705 586.571 649.005 570.698 645.685 567.864C642.765 565.37 627.815 555.085 627.425 553.182C627.255 552.381 627.885 550.639 628.475 550.078V550.088ZM657.825 534.926C651.585 542.947 644.585 549.136 635.235 553.353L668.555 581.784C671.485 579.301 687.455 562.736 687.065 560.503C685.045 555.616 660.725 534.415 657.825 534.926Z" fill="#1D1C1F"/>
<path d="M657.824 534.926C660.724 534.415 685.044 555.616 687.064 560.503C687.464 562.736 671.484 579.311 668.554 581.784L635.234 553.353C644.584 549.136 651.574 542.947 657.824 534.926ZM660.194 539.853C657.994 537.63 655.184 544.209 654.174 545.331C651.814 547.955 644.544 552.531 648.724 555.846C651.074 556.307 662.324 542.006 660.194 539.853ZM665.194 544.85C664.324 544.009 662.084 545.491 661.134 546.282C660.504 546.813 652.034 557.178 651.694 557.839C650.984 559.191 651.644 560.633 652.724 560.854C654.864 561.294 666.864 546.483 665.194 544.86V544.85ZM670.194 549.858C667.704 547.374 655.634 563.247 657.214 564.85C659.354 567.023 667.724 555.626 668.734 553.893C669.244 553.012 671.214 550.879 670.194 549.858ZM665.004 569.617C665.394 569.396 669.254 563.568 670.224 562.376C671.044 561.384 679.264 554.785 674.674 553.853C672.624 553.433 660.734 568.435 662.204 569.847C662.354 569.987 664.384 569.977 664.994 569.617H665.004ZM677.844 559.982C677.094 560.183 668.194 570.868 667.684 571.83C666.974 573.182 667.644 574.624 668.714 574.844C670.204 575.145 681.154 562.266 681.174 561.344C681.194 560.423 679.194 559.612 677.844 559.982Z" fill="#EDF0FF"/>
<path d="M660.195 539.853C662.325 542.006 651.075 556.307 648.725 555.846C644.545 552.521 651.815 547.945 654.175 545.331C655.185 544.219 657.995 537.639 660.195 539.853Z" fill="#1D1C1F"/>
<path d="M665.195 544.85C666.865 546.473 654.865 561.284 652.725 560.844C651.645 560.624 650.975 559.191 651.695 557.829C652.045 557.168 660.505 546.803 661.135 546.272C662.085 545.481 664.325 543.999 665.195 544.84V544.85Z" fill="#1D1C1F"/>
<path d="M670.194 549.857C671.214 550.879 669.244 553.012 668.734 553.893C667.724 555.636 659.354 567.023 657.214 564.849C655.634 563.247 667.704 547.374 670.194 549.857Z" fill="#1D1C1F"/>
<path d="M677.844 559.983C679.194 559.612 681.184 560.463 681.174 561.345C681.164 562.226 670.204 575.145 668.714 574.844C667.634 574.624 666.964 573.192 667.684 571.83C668.194 570.869 677.094 560.183 677.844 559.983Z" fill="#1D1C1F"/>
<path d="M665.004 569.617C664.384 569.977 662.364 569.997 662.214 569.847C660.744 568.435 672.634 553.433 674.684 553.853C679.264 554.795 671.044 561.384 670.234 562.376C669.264 563.568 665.394 569.386 665.014 569.617H665.004Z" fill="#1D1C1F"/>
<path d="M106.355 77.974C108.785 77.6335 110.675 77.3931 112.045 79.8167C113.655 82.6609 115.555 91.9645 117.405 96.4511C119.575 101.699 122.655 107.437 125.405 112.455C127.285 115.89 135.605 125.464 133.145 128.849C131.845 130.641 117.625 128.338 113.325 129.029C108.335 129.83 101.045 136.019 99.1447 135.839C92.1347 135.188 80.6447 104.363 81.6347 97.3625C82.5747 90.7628 99.8547 78.8853 106.345 77.984L106.355 77.974ZM107.585 82.771C102.295 83.6724 87.4947 93.5068 86.6147 98.3139C85.1947 106.085 94.0747 123.441 99.2047 129.69C108.305 125.133 117.235 121.878 127.585 124.763C119.155 111.694 111.415 97.9934 107.585 82.761V82.771Z" fill="#1D1C1F"/>
<path d="M107.585 82.7715C111.415 97.9938 119.155 111.704 127.585 124.773C117.245 121.889 108.305 125.144 99.2048 129.7C94.0648 123.451 85.1847 106.096 86.6147 98.3243C87.4947 93.5072 102.295 83.6828 107.585 82.7815V82.7715ZM103.595 88.7803C102.205 87.3582 92.9748 94.9293 91.5948 96.2613C90.5148 97.3028 89.2647 98.0139 89.6147 99.7765C91.1047 101.128 100.495 94.0981 101.945 92.626C102.815 91.7447 104.825 90.0422 103.595 88.7803ZM105.595 95.7806C104.635 94.7591 91.1947 103.272 91.6147 105.265C91.8547 106.386 93.2047 106.917 94.6147 106.296C96.4247 105.495 107.765 98.104 105.595 95.7806ZM94.6048 111.774C95.8248 112.846 104.685 108.019 106.295 106.977C109.835 104.694 108.705 102.28 105.525 103.191C104.495 103.482 92.7348 110.132 94.6048 111.774ZM109.305 109.941C108.215 110.032 99.8047 113.607 98.6847 114.348C95.6747 116.361 96.1448 119.215 99.6448 118.334C100.255 118.183 110.085 113.597 110.565 113.236C111.575 112.465 112.255 111.804 111.105 110.763C110.435 109.881 110.315 109.861 109.315 109.941H109.305ZM116.585 116.781C113.905 115.349 96.0448 121.048 99.6048 124.773C100.135 125.324 111.705 119.305 114.165 119.846L116.585 116.781Z" fill="#EDF0FF"/>
<path d="M116.585 116.781L114.165 119.845C111.705 119.304 100.135 125.323 99.6048 124.772C96.0448 121.047 113.895 115.349 116.585 116.781Z" fill="#1D1C1F"/>
<path d="M109.305 109.941C110.305 109.861 110.425 109.891 111.095 110.762C112.245 111.804 111.565 112.465 110.555 113.236C110.075 113.597 100.255 118.183 99.6347 118.334C96.1347 119.215 95.6647 116.361 98.6747 114.348C99.7947 113.597 108.205 110.021 109.295 109.941H109.305Z" fill="#1D1C1F"/>
<path d="M105.595 95.78C107.765 98.1035 96.4251 105.494 94.6151 106.295C93.2151 106.916 91.8551 106.386 91.6151 105.264C91.1951 103.271 104.635 94.7585 105.595 95.78Z" fill="#1D1C1F"/>
<path d="M103.595 88.7796C104.825 90.0415 102.815 91.7439 101.945 92.6252C100.495 94.0974 91.0947 101.128 89.6147 99.7757C89.2647 98.0232 90.5147 97.3021 91.5947 96.2606C92.9747 94.9286 102.205 87.3575 103.595 88.7796Z" fill="#1D1C1F"/>
<path d="M94.6048 111.774C92.7448 110.131 104.505 103.482 105.525 103.191C108.705 102.29 109.835 104.693 106.295 106.977C104.685 108.018 95.8248 112.845 94.6048 111.774Z" fill="#1D1C1F"/>
<path d="M266.235 228.065C272.245 227.204 276.905 227.164 277.515 234.305C278.795 249.116 258.535 272.16 246.615 279.431C227.135 291.308 220.175 281.023 229.125 261.925C234.935 249.537 252.175 230.068 266.225 228.055L266.235 228.065ZM255.485 239.803C253.255 237.529 245.845 247.043 247.505 249.797C248.745 251.209 256.885 241.225 255.485 239.803ZM266.475 247.804C265.385 246.623 260.265 251.58 261.485 253.793C262.575 254.975 267.695 250.018 266.475 247.804ZM244.495 273.813C237.545 272.4 236.195 282.555 242.545 277.348C243.605 276.476 244.785 275.395 244.495 273.813Z" fill="#596DD6"/>
<path d="M181.245 286.921C184.545 286.07 187.105 292.379 188.025 294.823C191.925 305.188 192.795 322.333 190.255 333.039C189.415 336.584 188.295 340.84 184.895 342.653C178.025 343.945 173.785 319.239 173.565 314.311C173.315 308.633 174.625 288.634 181.245 286.931V286.921ZM182.535 320.801H179.545L181.055 327.801C184.095 328.062 181.955 322.383 182.535 320.801Z" fill="#596DD6"/>
<path d="M381.405 96.7725C381.885 99.7168 380.695 98.3848 379.075 98.8956C370.975 101.419 362.375 102.1 353.915 101.78C352.705 101.73 350.195 102.531 350.435 100.788C354.655 100.057 361.965 96.7725 365.915 96.7725H381.405Z" fill="#596DD6"/>
<path d="M321.445 204.8C319.105 208.526 315.035 211.65 310.455 211.781C312.535 207.394 316.335 204.48 321.445 204.8Z" fill="#596DD6"/>
<path d="M208.515 200.795C208.415 205.001 204.955 209.478 201.535 211.791C201.075 207.855 204.575 202.067 208.515 200.795Z" fill="#596DD6"/>
<path d="M332.095 550.008C340.615 547.274 374.205 561.014 372.335 569.246C370.465 577.478 344.585 565.511 340.115 562.666C337.825 561.204 325.735 552.041 332.095 549.998V550.008Z" fill="#596DD6"/>
<path d="M448.215 509.969C451.485 515.347 437.315 518.652 433.845 518.842C413.815 519.923 407.125 508.687 430.885 506.864C434.005 506.624 446.715 507.505 448.215 509.969ZM435.355 513.834C435.845 510.009 429.605 509.839 428.375 512.352C426.985 515.207 434.695 514.265 435.355 513.834Z" fill="#596DD6"/>
<path d="M270.475 524.831C265.455 524.56 260.625 520.504 257.485 516.849C262.125 517.74 267.575 521.165 270.475 524.831Z" fill="#596DD6"/>
<path d="M620.905 390.964C629.355 390.203 623.235 416.101 621.685 420.788C619.685 426.836 608.545 449.61 600.935 447.707C593.325 445.804 600.335 422.47 602.215 417.302C604.295 411.604 614.535 391.525 620.895 390.954L620.905 390.964Z" fill="#596DD6"/>
<path d="M255.485 239.802C256.875 241.224 248.735 251.199 247.505 249.797C245.845 247.053 253.255 237.539 255.485 239.802Z" fill="#1D1C1F"/>
<path d="M244.495 273.812C244.795 275.404 243.605 276.476 242.545 277.347C236.185 282.555 237.545 272.39 244.495 273.812Z" fill="#1D1C1F"/>
<path d="M266.475 247.804C267.705 250.017 262.575 254.985 261.485 253.793C260.255 251.58 265.385 246.612 266.475 247.804Z" fill="#1D1C1F"/>
<path d="M182.535 320.801C181.955 322.373 184.095 328.051 181.055 327.801L179.545 320.801H182.535Z" fill="#1D1C1F"/>
<path d="M435.355 513.835C434.695 514.265 426.985 515.207 428.375 512.353C429.605 509.839 435.845 510.009 435.355 513.835Z" fill="#1D1C1F"/>
<path d="M56.2747 225.932C57.2647 225.752 68.3447 232.992 71.8447 234.074C77.1847 235.726 92.8147 235.466 94.1347 236.768C94.9247 237.549 98.3047 254.584 99.5847 258.31C102.325 266.251 106.915 272.661 109.615 280.252C109.025 286.952 92.9947 282.285 88.8447 281.053C83.3947 279.441 70.6147 273.882 67.0847 269.826C62.3747 264.419 51.9447 234.735 53.8247 228.506C54.1147 227.534 55.2947 226.112 56.2647 225.932H56.2747ZM67.6247 258.8C66.4347 254.704 64.8347 248.916 64.0547 244.83C63.1947 240.333 66.0847 238.661 67.6947 244.229C68.2547 246.152 71.1547 259.211 70.6147 259.792C69.3347 260.032 68.5947 259.461 67.6247 258.8C69.1547 264.038 68.9547 265.63 73.9247 268.995C82.1347 274.553 93.8147 277.838 103.595 278.8C98.1947 266.562 92.3147 254.384 90.5047 240.904C79.5947 241.275 68.0947 239.262 59.1147 232.822C59.8547 238.46 63.3847 255.886 67.6147 258.81L67.6247 258.8Z" fill="#1D1C1F"/>
<path d="M67.625 258.801C63.385 255.886 59.855 238.451 59.125 232.812C68.105 239.252 79.605 241.265 90.515 240.894C92.315 254.374 98.195 266.562 103.605 278.79C93.825 277.839 82.145 274.544 73.935 268.986C68.965 265.621 69.155 264.028 67.635 258.791C68.605 259.462 69.355 260.032 70.625 259.782C71.165 259.201 68.265 246.142 67.705 244.219C66.095 238.651 63.205 240.324 64.065 244.82C64.845 248.906 66.445 254.695 67.635 258.791L67.625 258.801ZM74.625 254.805C74.275 254.374 73.585 241.255 71.105 245.782C69.275 249.116 74.395 266.542 77.615 263.788C77.675 262.827 74.235 256.507 77.105 256.808C80.825 260.453 79.495 268.375 84.605 269.807C86.215 267.634 78.945 253.673 79.605 249.807H76.625C75.885 250.519 78.325 255.886 74.625 254.815V254.805ZM84.595 244.8C81.985 244.39 82.565 245.271 82.575 247.314C82.615 252.451 87.615 267.083 90.745 271.159C91.675 272.371 93.535 273.803 94.605 272.791C95.675 271.78 83.825 249.106 84.605 244.79L84.595 244.8Z" fill="#EDF0FF"/>
<path d="M74.6251 254.805C78.3251 255.886 75.8851 250.508 76.6251 249.797H79.6051C78.9451 253.673 86.2251 267.633 84.6051 269.807C79.5051 268.384 80.8351 260.453 77.1051 256.807C74.2451 256.507 77.6851 262.836 77.6151 263.788C74.3951 266.542 69.2851 249.116 71.1051 245.781C73.5851 241.255 74.2651 254.364 74.6251 254.805Z" fill="#1D1C1F"/>
<path d="M84.5951 244.8C83.8151 249.116 95.6751 271.77 94.5951 272.801C93.5151 273.833 91.6651 272.38 90.7351 271.169C87.6051 267.093 82.6051 252.461 82.5651 247.324C82.5451 245.271 81.9751 244.399 84.5851 244.81L84.5951 244.8Z" fill="#1D1C1F"/>
<defs>
<linearGradient id="paint0_linear_83_677" x1="407.391" y1="70.251" x2="407.391" y2="589.847" gradientUnits="userSpaceOnUse">
<stop stop-color="#2BC3FB"/>
<stop offset="1" stop-color="#7441C3"/>
</linearGradient>
<linearGradient id="paint1_linear_83_677" x1="385.96" y1="191.864" x2="385.96" y2="514.456" gradientUnits="userSpaceOnUse">
<stop stop-color="#1F8BF7"/>
<stop offset="1" stop-color="#DC33FC"/>
</linearGradient>
<linearGradient id="paint2_linear_83_677" x1="5.10888" y1="225.291" x2="743.511" y2="307.173" gradientUnits="userSpaceOnUse">
<stop stop-color="#2BC3FB"/>
<stop offset="1" stop-color="#DC33FC"/>
</linearGradient>
</defs>
</svg>
