<svg width="814" height="771" viewBox="0 0 814 771" fill="none" xmlns="http://www.w3.org/2000/svg">
<path d="M408.091 5.37793C431.847 44.21 444.094 76.0976 448.565 101.965L448.998 104.464L451.127 103.086C459.656 97.5668 466.433 92.4643 471.081 88.7373C473.151 87.0774 474.798 85.6879 475.993 84.6572C483.187 128.193 474.546 156.427 457.533 173.874C440.079 191.774 413.448 198.71 384.745 198.71C362.751 198.71 334.11 183.674 321.61 158.066C309.407 133.066 312.377 97.4256 353.554 55.1709C353.582 55.2373 353.609 55.3051 353.637 55.374C354.333 57.0594 355.383 59.4953 356.808 62.5137C359.659 68.5493 364.014 76.9237 370.042 86.3008L371.417 88.4404L372.841 86.332C386.738 65.7363 395.769 44.4891 401.326 28.4043C404.105 20.3582 406.018 13.594 407.238 8.83594C407.574 7.5266 407.856 6.36885 408.091 5.37793Z" fill="#F84615" stroke="black" stroke-width="3.35176"/>
<path d="M404.082 66.0557C420.21 91.6399 428.483 112.304 431.618 129.235L432.071 131.683L434.169 130.343C440.193 126.494 444.965 123.062 448.235 120.588C449.03 119.987 449.736 119.442 450.349 118.962C449.357 134.972 445.918 147.829 441.379 157.815L440.077 160.68L443.18 160.162C446.871 159.547 449.927 158.931 452.139 158.48C441.747 172.476 431.357 181.062 421.051 186.215C409.969 191.756 398.864 193.392 387.735 193.392C376.175 193.392 349.912 185.381 336.11 148.646C338.371 149.609 341.617 150.94 345.603 152.435L347.812 153.263L347.867 150.904C348.177 137.595 353.243 120.827 366.164 99.6904C366.6 100.685 367.151 101.894 367.823 103.281C369.804 107.369 372.834 113.007 377.041 119.233L378.406 121.255L379.803 119.256C389.55 105.308 395.842 91.0382 399.698 80.2666C401.627 74.8776 402.95 70.3551 403.791 67.1738C403.895 66.7803 403.992 66.4074 404.082 66.0557Z" fill="#FBC509" stroke="black" stroke-width="3.35176"/>
<path d="M407.118 122.21C406.816 125.306 406.46 129.501 406.25 133.879C406.041 138.247 405.975 142.843 406.263 146.728C406.407 148.668 406.642 150.475 407.006 152.007C407.357 153.481 407.869 154.884 408.681 155.887V155.888C410.683 158.445 413.546 158.92 416.297 158.432C418.983 157.955 421.798 156.542 424.271 154.985C426.559 153.545 428.669 151.906 430.279 150.562C429.096 158.441 424.624 166.911 418.396 173.796C411.081 181.883 401.693 187.41 393.051 187.41C384.633 187.41 374.116 182.527 367.081 174.173C360.593 166.468 357.134 155.896 361.06 143.577C362.051 144.704 363.379 146.107 364.906 147.437C366.573 148.886 368.548 150.314 370.64 151.175C372.737 152.038 375.123 152.397 377.427 151.41L377.904 151.206L378.18 150.768C378.181 150.768 378.181 150.769 378.181 150.769L378.182 150.767C378.183 150.765 378.185 150.761 378.188 150.757C378.193 150.748 378.202 150.735 378.214 150.717C378.238 150.68 378.275 150.624 378.323 150.549C378.421 150.399 378.569 150.175 378.765 149.884C379.157 149.302 379.742 148.454 380.504 147.397C382.03 145.283 384.264 142.34 387.095 139.037C392.174 133.112 399.122 126.086 407.281 120.599C407.23 121.094 407.175 121.633 407.118 122.21Z" fill="#FBC509" stroke="black" stroke-width="3.35176"/>
<path d="M464.98 37.5312C469.25 45.5886 470.002 51.9926 469.248 56.7578C468.405 62.0849 465.659 65.5197 463.515 67.0928L463.502 67.1025L463.489 67.1113C460.712 69.2271 456.795 68.7971 454.379 66.585C453.204 65.509 452.41 64.0271 452.298 62.2188C452.186 60.4021 452.755 58.1065 454.588 55.4336L454.587 55.4326C458.128 50.3722 461.071 45.159 463.125 41.2188C463.86 39.8079 464.483 38.5569 464.98 37.5312ZM317.45 29.875C317.626 31.09 317.86 32.4857 318.169 34.0068C319.225 39.2017 321.178 45.9509 324.787 51.9824H324.788C328.314 58.2685 327.014 62.9916 324.517 65.5225C321.907 68.1671 317.867 68.6866 314.978 66.4541L314.949 66.4316L314.92 66.4111L314.705 66.2529C310.427 62.9966 304.571 51.4806 317.45 29.875ZM365.563 13.5586C370.53 17.4442 373.125 20.9231 374.357 23.749C375.844 27.1573 375.374 29.6527 374.671 31.0039C373.707 32.3068 371.601 32.8402 369.604 32.0029C367.76 31.2295 366.046 29.2235 366.468 25.4248L366.467 25.4238C366.994 21.1698 366.373 16.9744 365.644 13.8867C365.617 13.7759 365.59 13.6667 365.563 13.5586Z" fill="#F84615" stroke="black" stroke-width="3.35176"/>
<path d="M343.071 142.439C344.671 141.879 345.501 142.409 346.821 143.179C350.641 145.429 364.08 162.938 367.741 162.219C373.01 161.179 364.082 153.76 363.271 152.24L398.701 149.189C412.25 148.929 425.751 149.999 439.221 151.229L436.86 163.845C448.934 165.302 460.786 167.483 472.372 170.338C473.223 165.876 473.928 161.475 474.241 157.249C495.741 161.309 515.911 170.17 536.141 178.2L527.967 190.097C544.789 198.041 560.748 207.513 575.666 218.331L582.151 209.169C587.501 210.789 591.791 214.19 586.671 219.2C584.65 221.171 582.468 220.763 581.519 222.686C588.241 227.815 594.739 233.223 600.994 238.893C601.084 238.807 601.145 238.692 601.16 238.539C601.39 236.359 598.851 235.349 599.471 233.099C599.712 232.238 602.971 227.409 603.731 227.179C605.391 226.679 612.381 233.069 614.101 234.599C619.401 239.299 626.911 246.94 631.091 252.58C632.701 254.75 633.211 258.66 635.41 260.74C637.06 262.3 639.451 262.4 641.101 263.82C645.301 267.42 656.611 284.69 660.281 290.32C661.971 292.92 665.891 302.249 667.601 302.979C672.511 305.079 668.351 296.819 669.051 296.039C669.462 295.589 679.299 294.24 681.04 294.03C681.57 310.459 685.631 323.139 694.031 336.979C692.841 337.707 691.824 338.492 690.946 339.322C691.818 338.504 692.832 337.728 694.021 336.999H694.031C698.511 344.379 703.741 351.549 709.981 357.539C710.28 358.88 695.39 370.389 692.96 372.389C689.4 379.159 695.011 376.09 695.981 376.99C704.631 413.129 707.091 449.739 704.021 486.809C703.061 486.682 700.777 486.491 697.874 486.263C696.139 506.125 692.456 525.428 687.019 543.982C689.126 544.341 690.74 544.622 691.5 544.759C692.72 544.979 693.4 544.06 692.92 546.11C688 567.42 669.73 600.06 657.46 618.539C655.55 621.41 646.79 635.019 645.08 636.139C643.58 637.119 643.561 636.359 642.531 635.639C642.374 635.53 642.219 635.416 642.061 635.3C628.732 653.612 613.371 670.348 596.308 685.177L599.071 688.039C596.161 690 590.36 697.559 587.12 696.059C586.945 695.977 586.216 695.32 585.208 694.365C577.684 700.294 569.868 705.868 561.784 711.063C562.251 711.679 562.701 712.332 563.12 713.03C563.95 714.41 564.54 713.399 563.08 714.959C561.06 717.12 545.87 725.149 542.16 727.019C488.22 754.239 425.94 763.92 365.91 756.32C362.396 755.87 338.392 752.5 337.286 751.464C334.785 750.922 332.295 750.35 329.818 749.746C327.176 751.987 324.632 754.552 323.271 755.99C322.251 757.07 322.681 759.219 320.811 758.459C320.061 758.149 312.17 748.529 309.79 746.499C308.054 745.017 306.356 743.66 304.675 742.419C295.608 739.336 286.737 735.83 278.086 731.922C276.099 731.709 274.02 731.571 271.83 731.509C269.32 731.439 259.802 732.939 259.351 732.499C258.968 732.128 259.449 727.255 259.198 722.569C237.694 710.954 217.779 696.776 199.863 680.443C191.174 672.68 177.966 660.354 176.844 657.027C175.338 655.317 173.851 653.591 172.384 651.847C172.218 652.065 172.048 652.281 171.87 652.49C152.24 628.8 133.591 602.75 123.401 573.62L124.789 573.367C118.315 557.631 113.148 541.219 109.423 524.267C108.521 524.416 107.825 524.555 107.431 524.689C94.7111 471.929 95.6106 419.129 111.16 367.12C112.59 362.35 122.371 337.369 122.171 335.559C121.571 330.089 106.321 319.159 107.571 311.689C112.131 307.359 123.271 281.449 126.921 279.999C129.361 279.03 128.291 283.139 128.141 284.219C127.741 287.169 126.371 291.559 125.441 294.509C124.971 296.009 119.191 306.33 124.851 303.91C130.511 301.49 132.361 278.859 133.521 278.129C135.051 277.169 147.231 280.169 151.681 278.809C153.721 278.189 157.371 271.03 158.861 271.03C159.38 271.03 162.073 273.467 165.387 276.702C185.27 251.202 209.206 229.018 236.227 211.118L230.361 204.179C245.231 196.069 259.881 186.229 275.771 180.139C278.591 179.059 283.14 179.799 284.111 176.49C284.611 174.79 283.781 171.699 285.251 170.639C286.722 169.58 294.841 170.369 297.681 170.08C300.101 169.829 316.715 167.02 317.29 166.2C317.86 165.38 317.151 162.63 315.721 162.33C314.291 162.03 299.521 165.819 295.681 166.089C289.111 166.549 282.831 167.909 287.101 159.509C289.481 154.839 293.471 153.82 298.101 152.53C312.551 148.53 328.701 147.499 343.071 142.439ZM686.811 345.418C685.208 349.189 684.552 353.373 683.064 357.539C684.62 353.228 685.267 349.104 686.811 345.418Z" fill="#91125A"/>
<path d="M343.071 142.439C344.671 141.879 345.501 142.409 346.821 143.179C350.641 145.429 364.08 162.938 367.741 162.219C373.01 161.179 364.082 153.76 363.271 152.24L398.701 149.189C412.25 148.929 425.751 149.999 439.221 151.229L436.86 163.845C448.934 165.302 460.786 167.483 472.372 170.338C473.223 165.876 473.928 161.475 474.241 157.249C495.741 161.309 515.911 170.17 536.141 178.2L527.967 190.097C544.789 198.041 560.748 207.513 575.666 218.331L582.151 209.169C587.501 210.789 591.791 214.19 586.671 219.2C584.65 221.171 582.468 220.763 581.519 222.686C588.241 227.815 594.739 233.223 600.994 238.893C601.084 238.807 601.145 238.692 601.16 238.539C601.39 236.359 598.851 235.349 599.471 233.099C599.712 232.238 602.971 227.409 603.731 227.179C605.391 226.679 612.381 233.069 614.101 234.599C619.401 239.299 626.911 246.94 631.091 252.58C632.701 254.75 633.211 258.66 635.41 260.74C637.06 262.3 639.451 262.4 641.101 263.82C645.301 267.42 656.611 284.69 660.281 290.32C661.971 292.92 665.891 302.249 667.601 302.979C672.511 305.079 668.351 296.819 669.051 296.039C669.462 295.589 679.299 294.24 681.04 294.03C681.57 310.459 685.631 323.139 694.031 336.979C692.841 337.707 691.824 338.492 690.946 339.322C691.818 338.504 692.832 337.728 694.021 336.999H694.031C698.511 344.379 703.741 351.549 709.981 357.539C710.28 358.88 695.39 370.389 692.96 372.389C689.4 379.159 695.011 376.09 695.981 376.99C704.631 413.129 707.091 449.739 704.021 486.809C703.061 486.682 700.777 486.491 697.874 486.263C696.139 506.125 692.456 525.428 687.019 543.982C689.126 544.341 690.74 544.622 691.5 544.759C692.72 544.979 693.4 544.06 692.92 546.11C688 567.42 669.73 600.06 657.46 618.539C655.55 621.41 646.79 635.019 645.08 636.139C643.58 637.119 643.561 636.359 642.531 635.639C642.374 635.53 642.219 635.416 642.061 635.3C628.732 653.612 613.371 670.348 596.308 685.177L599.071 688.039C596.161 690 590.36 697.559 587.12 696.059C586.945 695.977 586.216 695.32 585.208 694.365C577.684 700.294 569.868 705.868 561.784 711.063C562.251 711.679 562.701 712.332 563.12 713.03C563.95 714.41 564.54 713.399 563.08 714.959C561.06 717.12 545.87 725.149 542.16 727.019C488.22 754.239 425.94 763.92 365.91 756.32C362.396 755.87 338.392 752.5 337.286 751.464C334.785 750.922 332.295 750.35 329.818 749.746C327.176 751.987 324.632 754.552 323.271 755.99C322.251 757.07 322.681 759.219 320.811 758.459C320.061 758.149 312.17 748.529 309.79 746.499C308.054 745.017 306.356 743.66 304.675 742.419C295.608 739.336 286.737 735.83 278.086 731.922C276.099 731.709 274.02 731.571 271.83 731.509C269.32 731.439 259.802 732.939 259.351 732.499C258.968 732.128 259.449 727.255 259.198 722.569C237.694 710.954 217.779 696.776 199.863 680.443C191.174 672.68 177.966 660.354 176.844 657.027C175.338 655.317 173.851 653.591 172.384 651.847C172.218 652.065 172.048 652.281 171.87 652.49C152.24 628.8 133.591 602.75 123.401 573.62L124.789 573.367C118.315 557.631 113.148 541.219 109.423 524.267C108.521 524.416 107.825 524.555 107.431 524.689C94.7111 471.929 95.6106 419.129 111.16 367.12C112.59 362.35 122.371 337.369 122.171 335.559C121.571 330.089 106.321 319.159 107.571 311.689C112.131 307.359 123.271 281.449 126.921 279.999C129.361 279.03 128.291 283.139 128.141 284.219C127.741 287.169 126.371 291.559 125.441 294.509C124.971 296.009 119.191 306.33 124.851 303.91C130.511 301.49 132.361 278.859 133.521 278.129C135.051 277.169 147.231 280.169 151.681 278.809C153.721 278.189 157.371 271.03 158.861 271.03C159.38 271.03 162.073 273.467 165.387 276.702C185.27 251.202 209.206 229.018 236.227 211.118L230.361 204.179C245.231 196.069 259.881 186.229 275.771 180.139C278.591 179.059 283.14 179.799 284.111 176.49C284.611 174.79 283.781 171.699 285.251 170.639C286.722 169.58 294.841 170.369 297.681 170.08C300.101 169.829 316.715 167.02 317.29 166.2C317.86 165.38 317.151 162.63 315.721 162.33C314.291 162.03 299.521 165.819 295.681 166.089C289.111 166.549 282.831 167.909 287.101 159.509C289.481 154.839 293.471 153.82 298.101 152.53C312.551 148.53 328.701 147.499 343.071 142.439ZM686.811 345.418C685.208 349.189 684.552 353.373 683.064 357.539C684.62 353.228 685.267 349.104 686.811 345.418Z" fill="url(#paint0_linear_83_4392)"/>
<path d="M131.431 165.22C136.131 164.73 138.091 160.63 143.401 162.73C137.761 157.79 140.101 129.15 148.731 131.35C152.591 132.33 152.781 145.94 155.551 150.59C159.101 156.56 167.971 159.35 167.181 168.48C166.971 170.85 163.601 176.71 163.681 177.71C163.771 178.89 168.901 182.71 169.901 184.18C168.771 171.76 181.591 176.72 182.321 176.17C182.551 176 184.311 171.24 184.231 170.84C183.931 169.21 180.221 167.59 179.591 165.5C177.891 159.84 180.741 155.46 186.661 155.37L227.701 198.07C243.211 187.52 259.921 178.7 277.331 171.7C280.001 169.49 275.461 156.55 287.021 149.43C300.271 141.26 328.401 141.4 343.771 135.16C351.481 133.52 354.801 144.7 360.741 145.31C387.081 141.55 413.641 141.79 440.161 143.18C442.101 136.53 445.171 109.35 449.231 105.81C455.871 100.02 457.381 109.46 459.211 110.75C460.211 111.46 462.101 111.16 463.121 111.83C465.161 113.17 466.691 116.2 469.511 116.02C471.701 115.88 476.061 112.48 478.261 115.93C482.011 121.82 474.821 142.52 476.321 150.08C498.061 155.33 519.211 162.69 539.501 172.02L570.161 133.7C572.721 131.56 578.791 138.14 580.091 137.22C580.231 137.12 580.531 135.29 581.561 134.22C586.841 128.7 604.241 108.9 612.091 112.76C618.231 115.78 607.241 123.7 609.111 125.25C609.351 125.45 612.471 124.95 614.131 125.74C615.901 126.58 615.661 130.12 617.591 129.25C619.301 128.47 622.911 118.8 624.661 116.34C629.341 109.75 641.691 102.24 649.841 106.03C657.271 109.49 647.621 113.48 645.591 115.28C636.651 123.16 641.221 130.63 636.131 139.78C633.171 145.11 624.141 149.96 623.541 151.21C623.021 152.28 627.081 155.91 622.941 162.55C617.941 170.58 606.581 171.76 602.891 181.48C601.281 185.72 603.901 188 604.611 192.18C608.191 188.51 620.261 168.19 623.801 167.38C625.521 166.98 638.061 168.71 639.561 170.24C644.871 175.67 636.141 177.55 633.161 179.77C626.051 185.06 631.271 186.32 629.601 191.13C625.711 199.86 614.001 211.33 610.861 219.47C609.341 223.43 613.101 223.62 615.631 226.12C628.411 238.78 640.411 250.94 651.471 265.2C654.751 269.43 665.211 286.43 667.531 288.17C669.621 289.73 680.461 285.95 684.551 285.98C697.581 286.1 704.021 303.23 708.051 313.51C710.811 320.54 719.961 344.5 720.051 350.53C720.231 361.84 709.871 367.7 701.971 373.61C712.011 410.72 714.881 449.55 711.031 487.81L794.251 497.02C797.411 498.16 797.161 501.8 798.201 502.56C799.241 503.32 804.831 503.56 806.961 504.29C812.071 506.04 815.471 510.86 811.021 515.32C805.491 520.85 781.671 509.21 774.511 517.77C773.031 519.82 774.651 524.21 770.401 524.42C766.511 524.61 745.231 518.98 744.111 519.82C743.861 520.01 741.261 525.11 741.201 525.42C740.961 526.87 742.591 528.03 742.751 529.36C742.891 530.58 741.561 533.2 742.011 533.73C743.131 535.03 763.231 535.34 766.991 538.24C769.161 539.92 770.681 548.38 769.521 550.71C767.321 555.14 757.591 550.4 753.501 550.63C750.461 550.8 749.171 553.49 746.571 553.59C735.491 554 718.441 548.46 706.531 547.74C704.551 547.62 700.861 547.11 699.531 548.71C698.201 550.31 692.931 567.41 691.231 571.37C685.121 585.57 677.581 600.39 669.491 613.56C667.041 617.55 651.051 639.47 651.101 641.13C651.181 644.17 682.611 672.35 686.511 677.6C690.081 683.2 685.891 686.18 686.511 687.56C689.181 691.13 704.681 705.38 705.071 708.07C706.691 719.39 694.541 712.24 690.421 711.83C688.721 711.66 686.981 712.97 684.781 712.36C681.701 711.51 673.491 699.44 670.551 699.47C668.491 699.49 667.431 703 665.591 704.55C663.911 705.96 660.521 706.66 659.591 708.54C657.951 711.84 657.811 716.44 654.151 719.87L683.661 752.45C685.321 758.36 675.591 765.85 670.511 762.51L603.481 694.62C602.911 694.52 595.141 700.52 595.141 701.04C595.161 704.18 638.361 740.63 639.121 746.03C640.661 757.02 627.781 749.98 627.121 750.47C626.921 750.62 626.841 753.6 625.061 754.92C623.541 756.05 619.481 756.23 619.211 756.56C617.921 758.14 620.961 769.18 610.561 764.5L569.681 722.43C569.121 721.87 568.481 721.54 567.681 721.52C565.871 721.48 540.331 736.14 535.531 738.33C479.351 764.05 417.151 771.06 356.091 762.15C350.481 761.33 337.021 757.28 332.741 757.53C329.491 757.72 324.581 768.79 317.601 770.2C308.321 772.07 294.411 763.88 285.621 760.68C275.931 757.15 255.911 754.21 252.851 742.5C251.671 738 253.451 728.03 251.891 725.48C251.401 724.67 237.891 717.47 235.471 715.92C195.581 690.27 166.231 661.05 139.821 621.76C137.691 618.59 131.941 607.06 130.011 605.59C127.301 603.53 112.411 602.31 107.231 600.4C96.5706 596.46 95.2606 582.05 93.3406 580.82C89.9706 578.66 61.6106 586.78 54.0706 585.6C45.6206 584.28 51.0006 575.18 50.5106 574.69C49.6906 573.88 33.7706 572.33 32.6606 570.55C32.1706 569.77 32.1506 564.23 33.1006 563.58C36.9306 560.96 59.4206 560.14 60.5006 558.69C60.7606 558.35 58.5606 555.93 58.5706 554.21C58.5706 552.11 60.8506 549.72 61.5006 547.72C59.5806 546.3 41.4206 553.08 36.2306 551.51C35.3906 551.26 28.3406 544.45 27.9906 543.68C24.3006 535.47 43.5006 536.62 47.7606 535.48C50.7606 534.67 55.2006 531.04 59.5006 531.24C55.3206 530 55.8406 523.1 55.5006 522.74C55.0106 522.21 49.6506 523.77 48.0406 523.8C42.8706 523.87 38.7906 522.86 34.1906 520.58C30.2606 518.63 9.79058 504.53 18.5306 500.28C20.5606 499.29 27.6006 500.85 26.5106 498.3C24.5006 493.59 15.0806 486.52 10.2406 484.6C7.81058 483.64 1.40058 483.54 0.610584 481.19C-2.27942 472.52 21.7406 475.97 26.5306 477.3C37.7006 480.39 43.9906 489.05 53.4806 494.8C50.2806 480.84 62.6806 486.55 63.4806 485.81C64.0606 485.27 56.0706 475.11 55.6306 472.09C54.2706 462.57 69.1006 473.2 73.0606 473.74C79.5506 474.62 85.8106 472.01 92.4606 473.83C88.4606 432.92 95.4806 392 108.181 353.22C109.301 349.81 114.181 339.67 114.231 337.33C114.291 334.31 102.841 322.99 101.241 318.76C97.3706 308.53 106.051 301.63 110.621 293.74C117.261 282.29 117.981 272.45 134.051 271.22C143.201 270.52 148.621 276.28 153.251 265.59L106.661 215.46C104.621 208.76 110.281 206.74 110.291 205.68C110.291 204.88 103.561 194.79 102.281 191.86C100.061 186.8 92.1806 170.26 102.911 172.22C106.411 172.86 106.071 175.8 108.441 177.2C105.271 161.36 112.201 150.36 103.971 135.24C102.121 131.84 95.2206 125.03 95.4106 122.83C96.2006 113.75 111.271 125.38 114.341 127.87C118.731 131.43 131.431 144.29 131.431 149.74V165.22ZM436.211 191.19C436.141 193.19 436.031 193.92 437.881 195.02C440.491 196.56 461.961 201.45 463.201 200.19L472.171 126.76L471.691 123.29C469.791 124.54 470.631 127.51 469.211 128.86C468.161 129.86 467.391 128.28 467.191 128.28C467.961 124.36 465.211 121.03 461.491 120.49C460.161 120.3 457.751 123.34 456.241 122.26C455.831 121.97 454.621 115.49 452.211 115.3L436.211 191.2V191.19ZM635.071 116.29C627.411 118.24 626.441 134.72 618.551 136.25C612.231 137.48 610.651 132.43 609.601 132.42C609.051 132.42 607.251 134.77 605.451 135.02C599.731 135.79 602.511 126.14 602.611 122.3C600.201 125.65 579.381 142.5 583.121 146.24C589.311 147.03 587.681 138.17 592.821 136.47C601.111 133.73 592.901 143.28 599.641 144.31C605.941 145.27 606.291 137.17 611.121 138.66C619.451 141.23 611.651 149.22 611.341 155.02C611.291 155.97 611.571 160.22 613.581 159.22C616.521 157.76 614.141 151.23 615.591 148.24C616.461 146.46 625.231 142.56 627.581 140.25C633.781 134.17 631.851 123.95 635.081 116.29H635.071ZM112.831 135.82C112.371 135.41 112.551 133.1 111.431 134.78C119.671 147.36 110.361 162.23 115.701 174.46C117.381 178.32 121.411 180.63 120.471 185.68C119.361 191.65 109.541 186.34 106.941 183.21C106.171 183.06 106.341 184.13 106.431 184.71C107.021 188.23 116.851 205.28 119.431 208.68C120.571 210.19 122.121 210.37 122.431 208.66C122.831 206.49 117.341 197.35 119.431 195.2C120.341 194.27 127.541 198.09 128.361 194.63C129.101 191.53 121.781 182.55 120.891 179.26C116.291 162.3 130.401 180.11 134.161 181.03C138.741 182.15 137.101 178.98 139.011 178.31C143.221 176.84 144.471 182.76 146.871 185.25C148.471 186.91 150.681 187.94 152.451 189.66C154.031 191.2 155.281 194.26 156.871 195.31C158.931 196.68 160.921 194.79 163.441 195.58C165.961 196.37 166.241 199.15 168.391 200.19C171.821 192.19 158.041 183.6 157.391 179.67C156.511 174.26 161.671 170.55 159.971 165.2C158.681 161.13 146.401 155.35 147.401 147.28C145.331 147.42 146.601 152.08 146.861 153.32C147.951 158.59 154.211 167.71 151.331 171.66C147.881 176.41 142.701 170.52 139.741 170.46C136.781 170.4 133.261 176.06 127.731 170.93C122.711 166.28 125.381 160.04 125.171 155.03C124.811 146.53 118.601 141.01 112.821 135.85L112.831 135.82ZM538.141 237.13C540.131 238.69 547.331 247.44 550.131 245.68L603.881 168.54C604.161 166.95 601.221 162.14 599.071 163.7L557.151 221.69L554.131 220.16C567.371 199.37 583.261 180.06 597.001 159.57C594.081 153.22 586.271 155.32 581.601 152.25C577.611 149.63 577.031 143.14 572.101 141.73L515.541 215.13C514.391 218.4 519.251 221.92 521.621 224.17C526.801 229.1 532.681 232.85 538.131 237.13H538.141ZM439.211 200.18C434.781 198.74 426.181 195.07 422.541 192.38C421.241 191.41 420.581 191.82 420.221 189.7C419.491 185.39 428.871 191.13 429.571 191.37C430.591 191.73 430.561 192.79 431.751 191.22L439.231 151.25C425.761 150.02 412.271 148.95 398.711 149.21L363.281 152.26C364.091 153.78 373.021 161.21 367.751 162.24C364.091 162.96 350.661 145.45 346.831 143.2C345.521 142.43 344.691 141.9 343.081 142.46C328.721 147.52 312.561 148.55 298.111 152.55C293.481 153.83 289.481 154.85 287.111 159.53C282.841 167.93 289.121 166.57 295.691 166.11C299.521 165.84 314.221 162.04 315.731 162.35C317.241 162.66 317.861 165.41 317.301 166.22C316.741 167.03 300.111 169.85 297.691 170.1C294.851 170.39 286.701 169.62 285.261 170.66C283.821 171.7 284.621 174.81 284.121 176.51C283.151 179.82 278.601 179.08 275.781 180.16C259.891 186.25 245.241 196.09 230.371 204.2L251.221 228.86C251.891 231.43 244.411 239.54 242.361 241.14C240.811 242.35 233.771 246.16 231.741 247.01C229.931 247.77 228.421 248.44 226.371 248.13C226.631 247.41 228.041 243.37 227.941 243.13C226.171 239.12 211.981 229.17 209.371 223.6C207.551 222.67 198.791 230.39 201.331 232.68C208.591 238.04 214.781 249.77 222.381 254.12C227.701 257.17 227.261 255.85 231.961 254.16C233.011 253.78 234.971 254.35 235.371 254.12C235.691 256.53 233.871 258.44 232.371 260.11C222.561 271.09 196.581 290.28 183.401 297.06C180.101 298.76 165.331 304.25 173.471 297.62C174.841 296.5 181.081 294.35 180.381 292.59C179.811 291.18 160.441 271.11 158.921 271.11C157.401 271.11 153.781 278.27 151.741 278.89C147.281 280.25 135.111 277.25 133.581 278.21C132.421 278.94 130.701 301.52 124.911 303.99C119.121 306.46 125.021 296.09 125.501 294.59C126.431 291.64 127.801 287.25 128.201 284.3C128.351 283.22 129.421 279.11 126.981 280.08C123.331 281.52 112.191 307.44 107.631 311.77C106.371 319.23 121.631 330.16 122.231 335.64C122.431 337.45 112.641 362.43 111.221 367.2C95.6706 419.21 94.7806 472 107.491 524.77C110.171 523.86 126.821 522.53 127.471 521.76C129.081 519.85 120.001 509.15 118.961 506.79C118.341 505.39 118.881 504.02 119.991 503.79C122.721 503.23 129.451 514.69 130.661 517.07C138.671 532.9 140.821 551.58 139.441 569.18C138.671 578.96 133.961 586.9 134.451 571.7L123.461 573.7C133.651 602.83 152.301 628.88 171.931 652.57C174.431 649.64 175.581 645.79 178.391 643.07C181.201 640.35 192.941 635.45 193.361 634C194.121 631.4 189.521 630.23 190.411 625.18C190.791 623 197.741 617 196.411 615.65C196.161 615.39 191.071 617.88 189.501 615.55C189.301 615.25 189.321 608.72 189.391 608.37C189.581 607.42 202.511 600.05 203.281 595C203.621 592.79 193.551 586.7 196.421 583.71C198.211 581.85 203.401 588.56 205.061 589.55C212.271 593.86 214.121 589.57 219.981 588.75C229.721 587.38 239.151 601.14 245.891 606.72C246.761 607.44 248.081 607.43 248.391 607.68C257.781 615.27 268.231 621.83 277.371 629.65C278.341 630.48 291.021 640.53 284.841 641.64C281.281 642.28 272.531 628.2 267.081 629.77C263.641 630.76 260.831 642.53 257.371 646.12C256.181 647.35 243.341 656.63 241.711 657.43C235.381 660.54 228.321 660.67 222.411 656.61C223.341 650.44 229.321 655.71 232.811 655.56C233.831 655.52 241.061 652.89 241.321 652.52C241.761 651.92 239.921 645.06 239.891 643.62C237.921 645.61 233.441 652.13 231.081 651.51C226.651 650.34 225.561 641.43 221.411 656.62C220.141 661.25 218.201 679.43 210.561 672.96L208.421 651.63C207.651 650.84 191.531 656.34 198.431 647.65C193.441 648.77 178.211 650.88 176.841 656.58C176.111 659.61 202.721 683.18 206.931 686.63C207.801 687.34 209.121 687.34 209.431 687.59C209.941 688 210.431 689.35 211.371 690.1C224.181 700.24 238.161 708.77 251.921 717.54C254.361 718.4 253.201 711.06 256.951 714.51C260.701 717.96 258.741 731.9 259.401 732.54C259.851 732.98 269.371 731.48 271.881 731.55C287.851 732 297.901 736.36 309.841 746.54C312.221 748.57 320.111 758.19 320.861 758.5C322.731 759.26 322.301 757.11 323.321 756.03C326.001 753.21 333.171 746.01 336.831 745.5C340.491 744.99 336.391 750.56 337.331 751.5C338.351 752.53 362.441 755.91 365.961 756.36C425.991 763.96 488.271 754.28 542.211 727.06C545.921 725.19 561.111 717.17 563.131 715C564.591 713.44 564.001 714.46 563.171 713.07C557.251 703.22 545.591 702.26 558.161 690.06C560.321 687.96 573.941 678.42 576.161 680.6C576.611 681.04 574.971 683.35 576.071 685.11C576.581 685.94 586.471 695.77 587.171 696.1C590.411 697.6 596.211 690.04 599.121 688.08L571.661 659.63C569.011 661.18 563.221 673.12 560.681 672.59C559.371 672.32 559.211 670.88 559.581 669.53C559.891 668.44 564.651 661.32 565.751 659.7C575.671 645.11 610.021 610.86 626.841 606.9C635.911 604.77 624.461 614.2 621.141 615.17C628.211 620.24 635.971 631.09 642.581 635.68C643.621 636.4 643.631 637.16 645.131 636.18C646.841 635.06 655.611 621.45 657.511 618.58C669.781 600.1 688.051 567.46 692.971 546.15C693.441 544.1 692.771 545.02 691.551 544.8C687.721 544.12 662.181 539.68 661.091 540.76C660.061 541.78 663.341 551.77 658.601 549.75C656.291 548.76 656.951 538.97 657.051 536.23C657.451 524.51 665.161 482.18 673.561 474.83C679.271 469.83 673.611 483.42 674.091 483.84C675.221 484.83 700.231 486.34 704.071 486.85C707.141 449.78 704.681 413.16 696.031 377.03C695.051 376.13 689.451 379.2 693.011 372.43C695.451 370.44 710.331 358.93 710.031 357.58C703.791 351.59 698.561 344.42 694.081 337.04C685.671 323.2 681.611 310.52 681.091 294.09C679.351 294.3 669.511 295.65 669.101 296.1C668.401 296.88 672.561 305.14 667.651 303.04C665.941 302.31 662.031 292.97 660.331 290.38C656.661 284.76 645.351 267.49 641.151 263.88C639.501 262.46 637.111 262.36 635.461 260.8C633.261 258.72 632.751 254.81 631.141 252.64C626.961 247.01 619.451 239.36 614.151 234.66C612.421 233.13 605.431 226.74 603.781 227.24C603.031 227.47 599.761 232.3 599.521 233.16C598.911 235.41 601.441 236.41 601.211 238.6C601.111 239.56 599.271 239.04 599.141 239.17C591.241 236.99 586.601 229.61 581.151 224.19C581.641 220.57 584.291 221.63 586.711 219.26C591.831 214.25 587.541 210.85 582.191 209.23L554.231 248.74C553.711 251 557.991 251.57 559.161 252.67C562.391 255.71 559.821 256.76 556.151 255.68C545.771 252.62 518.211 227.53 510.181 218.73C508.651 217.06 502.571 210.17 502.231 208.69C501.151 204.04 505.611 207.1 507.251 208.67C508.981 210.32 509.531 213.48 512.181 213.2L536.181 178.26C515.951 170.23 495.791 161.36 474.281 157.31C473.261 171.23 467.981 187.05 467.211 200.71C467.131 202.1 483.231 199.43 479.731 204.23C478.821 205.48 477.471 205.1 476.221 205.22C465.121 206.23 449.891 203.68 439.251 200.23L439.211 200.18ZM594.091 142.25C592.451 140.59 588.531 148.76 589.111 149.24C593.891 148.04 594.771 151.22 597.751 153.08C599.171 153.97 601.461 154.44 602.391 155.17C603.601 156.11 604.471 160.19 605.591 160.21C607.691 160.23 608.981 145.9 610.081 143.25C609.571 142.59 599.831 152.19 595.031 145.78C594.071 144.5 594.221 142.38 594.091 142.25ZM190.891 168.22V169.22C191.541 168.89 191.541 168.55 190.891 168.22ZM190.391 178.21C190.131 178.42 188.811 177.94 188.441 178.25C187.941 178.68 188.061 182.31 185.711 183.09C183.171 183.93 181.371 181.64 179.401 182.7C195.831 199.89 210.491 218.93 226.851 236.15C228.581 237.97 231.091 241.38 233.631 241.01C235.701 240.7 246.621 231.73 246.281 229.79C230.591 214.09 216.881 196.5 201.931 180.18C200.491 178.61 198.101 177.97 197.391 177.22C196.741 176.53 192.941 168.36 191.401 170.23C191.141 170.54 191.591 177.22 190.401 178.21H190.391ZM139.111 184.84C132.511 188.7 126.131 177.64 124.431 179.22C129.461 185.77 138.521 201.14 123.441 199.19C129.421 214.65 133.611 197.21 137.011 191.28C138.041 189.48 143.481 185.9 141.421 183.21C139.941 181.28 139.241 184.77 139.111 184.84ZM621.081 182.2L587.121 224.65C589.711 226.38 593.491 233.84 595.951 229.49L622.591 189.17L621.071 182.2H621.081ZM176.191 188.42C175.251 188.07 172.391 187.74 172.391 188.71C172.391 189.84 174.831 196.11 175.281 198.8C175.731 201.49 174.981 204.29 175.621 206.96C179.721 208.15 193.381 225.48 195.751 225.07C196.481 224.94 202.111 219.44 201.991 218.1L176.191 188.42ZM140.421 199.18C138.231 201.57 136.201 208.55 133.831 210.07C132.271 211.07 130.061 210.87 128.501 211.73C126.701 212.72 125.601 215.4 123.721 215.97C120.691 216.89 118.931 214.88 116.451 215.65L183.571 289.87C186.851 291.78 196.501 283.05 199.391 281.07C207.301 275.63 214.771 270.02 222.241 263.96L221.881 261.1L161.471 202.59C160.021 202.17 158.571 203.19 157.151 202.96C151.451 202.01 144.181 181.93 140.441 199.17L140.421 199.18ZM595.601 192.21C594.771 192.18 588.061 201.38 588.061 202.71C588.061 204.04 591.761 206.92 592.771 207.07C593.971 207.25 599.821 199.43 599.961 198.49C600.161 197.16 596.421 193.68 595.591 192.2L595.601 192.21ZM713.011 352.97C714.501 351.29 701.241 314.91 699.201 310.36C696.341 303.99 692.791 296.04 686.051 293.06C684.501 312.44 694.431 334.11 707.051 348.46C707.821 349.34 711.981 354.13 713.011 352.98V352.97ZM68.4806 499.79H86.9706C92.2706 499.79 81.9106 492.17 83.4806 489.81C85.4906 488.26 94.0906 489.2 94.4706 488.8C94.8106 488.45 94.5106 483.87 93.9806 482.79C91.0106 476.7 73.9906 482.58 68.4906 479.82L78.4806 484.29C84.3906 497.93 61.3406 490.87 60.4906 491.8C59.5006 492.88 63.1106 500.12 56.0106 500.85C43.2606 502.15 34.8506 483.09 21.5306 483.3C26.0906 489.21 51.8506 510.67 30.2606 508.54C27.2406 507.28 29.0806 508.95 30.0406 509.75C43.5906 520.9 47.2206 514.9 60.9906 514.7C70.7406 514.56 75.4506 522.24 64.4906 525.26C71.1206 529.89 78.9406 528.78 86.4606 527.75L79.5406 524.19C76.8306 523.62 75.4406 516.78 76.4706 515.78C77.3106 514.97 91.6806 516.69 78.9606 506.79C72.1306 501.47 74.4606 504.52 72.9506 507.77C72.8106 508.08 68.3006 512.47 67.9606 512.55C64.8506 513.33 55.3506 513.65 53.4806 510.28C59.9806 508.58 72.8006 510.32 68.4606 499.8L68.4806 499.79ZM677.041 488.8C675.671 488.63 671.281 487.59 671.051 487.8C670.421 488.38 667.651 502.08 666.021 504.2C666.001 505.3 670.001 505.61 671.051 505.78C683.021 507.68 697.551 507.39 709.091 510.21C715.211 511.7 713.721 515.35 708.031 514.77C706.341 514.6 703.711 513.17 701.421 512.88C689.351 511.32 677.151 510.4 665.091 508.81C663.771 517.42 661.431 525.95 662.051 534.75L744.541 545.83L748.991 541.74C745.261 541.18 734.251 541.45 733.141 537.05C732.611 534.97 734.631 532.9 734.801 531.03C734.991 528.97 733.841 527.19 734.181 524.53C734.421 522.66 737.961 515.14 739.281 514.07C744.691 509.64 760.861 517.43 767.271 515.8C768.281 515.54 768.701 513.14 769.901 512.23C771.991 510.62 774.661 510.08 775.971 507.79C777.731 507.76 779.991 506.71 782.471 506.7C785.331 506.69 798.251 509.78 790.901 504.36C787.571 501.9 782.251 503.24 778.481 502.79C744.571 498.75 710.871 493.14 677.051 488.81L677.041 488.8ZM102.461 525.75C100.131 520.24 98.3006 496.29 94.8706 493.88C87.7506 488.89 92.2406 495.31 92.4506 497.37C93.2306 504.79 86.9806 503.91 81.4706 503.78C82.5606 505.79 84.9906 505.85 86.3306 508.39C87.6706 510.93 88.2906 513.9 86.5306 516.33C85.2306 518.13 78.5806 518.7 80.4706 520.73C81.7706 522.13 90.3606 523.31 92.7006 523.99C94.1506 524.41 94.9706 526.29 96.0606 526.51C97.5206 526.8 100.491 525.14 102.451 525.74L102.461 525.75ZM131.431 531.75C131.131 530.86 131.851 528.88 130.991 527.73C128.831 524.84 122.621 528.27 119.861 528.68C117.971 528.96 115.981 528.59 114.061 528.88C96.2006 531.59 78.4306 535.54 60.4806 537.76C61.1606 540.35 64.6106 539.12 65.9806 540.74C66.9206 541.84 68.6006 548.34 68.3106 549.98C68.0706 551.31 66.6606 552.44 66.5906 554.17C66.5206 555.9 67.6606 557.85 67.5306 560.19C67.0706 568.6 57.5706 566.47 51.4706 566.71L57.4706 572.69C57.2606 572.94 55.6906 579.93 57.9106 578.64L135.371 565.65C135.811 554.15 135.041 542.67 131.421 531.74L131.431 531.75ZM120.441 584.68C119.481 582.66 118.981 575.51 115.841 574.92C113.771 574.53 109.031 576.98 106.451 576.71C106.071 577.09 109.141 583.46 109.451 584.69C109.931 586.6 109.561 591.97 110.661 593.46C111.581 594.72 121.731 596.78 123.921 596.71C125.271 596.67 127.011 597.31 126.421 595.21C125.601 592.3 121.801 587.54 120.451 584.69L120.441 584.68ZM224.361 593.67L208.371 596.66C206.401 599.43 214.841 602.05 212.371 604.64C211.191 605.88 207.521 601.14 205.091 601.75C204.011 602.02 195.311 610.63 196.401 611.63C198.591 613.64 203.121 606.42 205.111 605.83C208.431 604.83 212.141 607.6 214.371 606.17C214.911 605.83 223.081 597.74 223.431 597.21C224.221 595.98 224.671 595.23 224.381 593.67H224.361ZM226.211 612.48C226.721 612.16 232.161 602.59 232.221 601.99C232.331 600.82 230.631 598.88 229.741 598.72C228.351 598.48 215.151 610.41 214.391 612.16C213.411 614.41 215.611 613.3 216.441 613.21C218.411 613.02 225.801 612.74 226.221 612.48H226.211ZM245.341 611.66C244.951 611.08 236.641 607.14 235.851 604.67C235.311 604.67 229.701 612.48 229.491 613.39C229.051 615.25 232.881 619.5 231.361 622.63C236.071 623.1 237.261 618.85 239.821 616.61C241.031 615.55 246.751 613.73 245.341 611.66ZM206.341 615.66C203.631 613.84 202.021 619.15 200.801 620.55C199.751 621.75 195.581 625.57 195.461 626.26C195.171 627.9 198.961 629.89 199.181 632.27C199.731 638.3 188.141 642.35 188.401 643.1C189.481 646.14 200.161 640.63 201.741 639.46C206.611 635.87 212.351 617.42 219.971 623.53C226.361 628.65 213.191 642.1 212.381 648.1C211.951 651.31 214.841 647.9 215.371 648.59C215.761 649.11 213.261 659.34 214.391 661.57L218.831 648.54C220.691 645.1 225.561 639.58 229.701 642.58C230.641 643.26 229.991 645.39 231.861 644.59C236.321 642.67 236.361 629 244.851 630.57C251.131 631.73 246.381 642.66 246.851 646.58C256.571 643 256.871 633.43 262.251 625.94C255.991 615.18 254.021 629.38 250.871 628.6C249.141 628.17 247.911 620.68 243.051 621.55C242.051 621.73 232.901 633.49 230.921 634.65C224.951 638.15 223.761 628.44 224.601 624.33C225.031 622.27 228.561 618.77 226.141 616.86C222.021 613.61 215.101 617.47 211.851 620.57C209.141 623.16 205.861 632.25 204.541 624.34C205.621 622.58 208.481 617.07 206.351 615.64L206.341 615.66ZM691.031 704.51C692.791 702.98 678.831 689.99 678.171 687.82C677.211 684.64 681.211 683.07 679.591 680.54L617.381 617.74C615.641 617.3 608.751 622.38 606.761 623.79C594.871 632.26 584.531 643.13 575.221 654.28L673.561 755.45L676.041 752.97C671.221 749.29 666.591 744.98 662.521 740.5C660.941 738.76 660.441 736.56 659.051 734.98C656.281 731.83 647.491 724.7 646.491 721.55C644.361 714.86 649.541 714.17 651.491 710.45C652.481 708.56 652.271 705.96 653.241 704.21C654.271 702.36 656.651 701.96 657.591 700.57C659.231 698.13 656.661 698.65 655.031 697.1C653.121 695.28 641.801 684.37 642.071 683.07C642.291 681.99 643.721 681.32 645.081 682.04C648.951 684.08 658.671 695.88 660.751 696.43C664.171 697.33 664.181 693.11 666.281 692.21C677.471 687.44 680.921 705.72 691.031 704.52V704.51ZM572.941 686.73C570.191 685.14 554.651 695.93 557.621 700.51L611.591 755.44C613.431 753.79 613.331 750.8 615.521 749.39C617.091 748.38 619.181 748.77 619.881 748.28C620.741 747.68 620.591 744.62 621.591 743.45C622.961 741.84 625.931 743.57 625.081 740.5L572.951 686.74L572.941 686.73ZM280.831 736.48C275.041 735.93 267.841 736.48 261.841 736.48C255.171 736.48 263.981 747.05 267.661 747.64L314.901 763.4C322.071 762.93 308.851 751.29 306.781 749.49C299.341 743.02 290.931 737.44 280.831 736.48Z" fill="#150F11"/>
<path d="M691.03 704.51C680.93 705.7 677.47 687.43 666.28 692.2C664.18 693.09 664.16 697.31 660.75 696.42C658.67 695.88 648.95 684.07 645.08 682.03C643.73 681.32 642.3 681.98 642.07 683.06C641.8 684.36 653.12 695.27 655.03 697.09C656.66 698.64 659.23 698.12 657.59 700.56C656.65 701.95 654.27 702.36 653.24 704.2C652.27 705.95 652.48 708.55 651.49 710.44C649.54 714.16 644.36 714.85 646.49 721.54C647.49 724.69 656.28 731.83 659.05 734.97C660.44 736.55 660.94 738.75 662.52 740.49C666.59 744.97 671.21 749.28 676.04 752.96L673.56 755.44L575.22 654.27C584.53 643.12 594.87 632.26 606.76 623.78C608.74 622.37 615.64 617.28 617.38 617.73L679.59 680.53C681.21 683.06 677.22 684.63 678.17 687.81C678.82 689.99 692.79 702.97 691.03 704.5V704.51ZM621.8 635.78C620.39 636.2 617.18 639.57 617.04 641.15C616.83 643.49 619.58 646.33 621.06 648.11C623.16 650.64 641.68 669.41 643.09 670.06C647.08 671.92 655.04 665.42 651.11 661.01L626.641 636.55C625.231 635.37 623.51 635.27 621.8 635.77V635.78ZM603.1 647.6C599.98 650.85 612.72 659.62 614.61 661.55C617.88 664.9 623.15 672.53 626.53 674.61C629.91 676.69 632.37 674.98 629.58 671.56C625.68 666.77 611.8 652.47 607.13 649.05C606.2 648.37 604.01 646.65 603.09 647.6H603.1ZM612.8 677.69C610.24 678.34 609.53 680.86 611.03 683.09C611.69 684.07 621.4 693.71 622.1 694.04C624.53 695.17 628.33 693.77 627.94 691.23C627.55 688.69 616.1 676.86 612.8 677.69Z" fill="#91125A"/>
<path d="M167.411 222.15C173.361 231.6 183.291 241.24 191.371 249.64C194.521 252.92 198.851 258.58 203.391 259.1C203.361 268.05 202.221 272.69 199.391 281.07C196.501 283.05 186.861 291.78 183.571 289.87L116.451 215.65C118.931 214.88 120.691 216.89 123.721 215.97C125.601 215.4 126.701 212.72 128.501 211.73C130.061 210.87 132.271 211.06 133.831 210.07C136.201 208.55 138.231 201.57 140.421 199.18C142.971 196.39 144.321 197.34 146.911 199.19C150.931 202.07 164.721 217.89 167.401 222.15H167.411ZM141.141 208.31C138.261 209.11 137.831 212.75 138.941 215.14C139.301 215.91 149.771 226.43 150.891 227.2C153.641 229.09 158.461 224.64 156.281 220.81C155.581 219.58 146.071 209.76 144.981 209.11C143.551 208.26 142.911 207.81 141.141 208.3V208.31ZM176.091 267.76C177.321 266.71 180.281 262.66 178.931 261.12C175.851 258.29 162.851 242.08 159.911 242.09C158.151 242.09 153.061 246.78 154.881 249.1L172.411 268.66C173.661 269.44 175.151 268.58 176.091 267.77V267.76Z" fill="#DC2479"/>
<path d="M554.131 220.149C553.931 220.469 554.061 222.289 553.221 223.689C549.871 229.209 544.671 235.52 538.151 237.13C532.701 232.85 526.821 229.099 521.641 224.169C519.271 221.919 514.411 218.399 515.561 215.13L572.121 141.729C577.051 143.139 577.631 149.629 581.621 152.249C586.291 155.319 594.101 153.219 597.021 159.569C583.281 180.049 567.381 199.369 554.151 220.16L554.131 220.149ZM570.881 159.469C569.951 158.549 566.461 157.749 565.311 158.409C563.861 162.239 553.151 172.699 553.121 175.729C553.091 178.179 557.971 181.119 560.121 179.749C560.901 179.249 571.251 166.039 571.641 165.199C572.391 163.559 572.171 160.739 570.881 159.479V159.469ZM568.771 176.369C567.661 176.569 558.881 187.849 558.511 189.159C557.751 191.919 560.781 193.839 563.431 193.049C564.281 192.799 572.101 182.459 572.621 181.149C573.751 178.279 571.141 175.929 568.771 176.359V176.369ZM544.831 188.309C543.521 188.649 528.741 207.499 527.901 209.439C525.841 214.17 531.481 217.839 535.221 214.729C536.391 213.749 549.941 196.039 550.421 194.879C551.831 191.429 548.131 187.459 544.841 188.309H544.831Z" fill="#DC2479"/>
<path d="M775.971 507.78C774.651 510.07 771.991 510.61 769.901 512.22C768.711 513.14 768.281 515.54 767.271 515.79C760.861 517.42 744.691 509.63 739.281 514.06C737.971 515.13 734.431 522.65 734.181 524.52C733.831 527.18 734.991 528.96 734.801 531.02C734.631 532.89 732.611 534.96 733.141 537.04C734.251 541.44 745.261 541.17 748.991 541.73L744.541 545.82L662.051 534.74C661.431 525.94 663.771 517.41 665.091 508.8C677.151 510.39 689.351 511.31 701.421 512.87C703.701 513.17 706.341 514.59 708.031 514.76V519.75C703.571 520.09 702.351 524.77 704.171 527.6C704.731 528.48 723.411 531.85 724.581 530.85C726.791 528.97 725.931 525.4 726.021 522.74C730.331 522.95 731.801 520.59 735.011 518.23C734.961 514.82 728.011 518.45 727.031 515.23C725.781 511.17 736.031 509.21 738.621 508.86C750.531 507.24 763.921 507.96 775.991 507.75L775.971 507.78ZM706.961 530.81C700.641 530.83 692.391 527.79 686.481 527.71C682.231 527.65 679.451 530.05 684.831 531.43C690.211 532.81 701.251 534.46 706.511 534.75C707.511 534.81 706.961 531.77 706.961 530.81Z" fill="#91125A"/>
<path d="M572.941 686.73L625.071 740.49C625.931 743.56 622.961 741.83 621.581 743.44C620.591 744.6 620.731 747.66 619.871 748.27C619.171 748.76 617.081 748.37 615.511 749.38C613.311 750.79 613.411 753.78 611.581 755.43L557.611 700.5C554.641 695.92 570.191 685.13 572.931 686.72L572.941 686.73ZM581.631 710.51C575.811 711.67 587.831 725.53 591.551 724.48C597.531 721.36 583.711 710.09 581.631 710.51ZM612.081 749.46C613.731 747.81 603.751 738.12 602.141 736.94C598.071 733.96 596.571 735.46 599.551 739.53C600.731 741.14 610.431 751.12 612.081 749.47V749.46Z" fill="#91125A"/>
<path d="M677.041 488.8C710.871 493.13 744.571 498.73 778.471 502.78C782.241 503.23 787.561 501.89 790.891 504.35C798.241 509.77 785.321 506.68 782.461 506.69C779.981 506.69 777.721 507.75 775.961 507.78C763.901 507.98 750.511 507.27 738.591 508.89C735.991 509.24 725.751 511.2 727.001 515.26C727.991 518.47 734.931 514.84 734.981 518.26C731.771 520.62 730.301 522.98 725.991 522.77C720.591 522.5 713.811 519.33 708.001 519.77V514.78C713.691 515.36 715.181 511.72 709.061 510.22C697.521 507.4 682.991 507.69 671.021 505.79C670.361 499.37 675.221 494.51 677.021 488.81L677.041 488.8ZM686.681 494.94C684.621 495.62 684.421 499.34 685.481 500.85C686.741 502.65 705.221 504.81 707.541 502.8C715.191 496.17 690.131 493.81 686.681 494.94ZM733.871 501.91C733.361 501.09 717.031 498.36 715.521 499.76C709.021 505.77 728.391 508.27 731.481 507.83C734.211 507.44 734.921 503.58 733.871 501.91Z" fill="#DC2479"/>
<path d="M131.431 531.75C135.041 542.68 135.821 554.16 135.381 565.66L57.9206 578.65C55.7006 579.94 57.2706 572.95 57.4806 572.7C58.8006 571.14 82.4506 568.4 84.4606 561.71C88.6706 563.07 87.1006 559.8 88.6606 558.92C90.3406 557.98 95.2606 558.66 100.451 555.71C107.041 551.96 113.121 546.16 117.441 539.73C120.811 539.13 127.561 539.13 124.441 534.74C124.531 534.69 124.031 533.27 125.171 532.78C126.741 532.12 129.611 532.2 131.431 531.74V531.75Z" fill="#91125A"/>
<path d="M112.831 135.82C118.611 140.98 124.811 146.5 125.181 155C125.391 160.01 122.731 166.25 127.741 170.9C133.281 176.03 136.771 170.37 139.751 170.43C142.731 170.49 147.891 176.38 151.341 171.63C154.221 167.67 147.961 158.56 146.871 153.29C146.611 152.05 145.341 147.39 147.411 147.25C146.411 155.32 158.691 161.1 159.981 165.17C161.681 170.53 156.521 174.23 157.401 179.64C158.041 183.58 171.831 192.16 168.401 200.16C166.251 199.12 166.091 196.38 163.451 195.55C160.811 194.72 158.941 196.65 156.881 195.28C155.291 194.23 154.051 191.17 152.461 189.63C150.691 187.91 148.481 186.88 146.881 185.22C144.481 182.73 143.231 176.81 139.021 178.28C137.121 178.94 138.751 182.11 134.171 181C130.411 180.08 116.301 162.27 120.901 179.23C121.791 182.52 129.111 191.5 128.371 194.6C127.541 198.07 120.341 194.24 119.441 195.17C117.341 197.33 122.841 206.46 122.441 208.63C122.121 210.35 120.581 210.16 119.441 208.65C116.861 205.25 107.031 188.2 106.441 184.68C106.341 184.1 106.181 183.04 106.951 183.18C109.551 186.31 119.371 191.62 120.481 185.65C121.411 180.61 117.391 178.29 115.711 174.43C110.371 162.2 119.681 147.33 111.441 134.75C112.561 133.07 112.381 135.38 112.841 135.79L112.831 135.82Z" fill="#F84615"/>
<path d="M197.381 177.21C198.081 177.96 200.481 178.6 201.921 180.17C216.871 196.49 230.581 214.08 246.271 229.78C246.611 231.72 235.701 240.7 233.621 241C231.081 241.38 228.571 237.97 226.841 236.14C210.481 218.92 195.821 199.88 179.391 182.69C181.371 181.63 183.171 183.92 185.701 183.08C188.041 182.3 187.921 178.67 188.431 178.24C188.801 177.93 190.121 178.42 190.381 178.2C193.681 179.47 198.641 182.22 197.381 177.2V177.21ZM193.911 183.2C186.831 184.62 203.721 203.85 205.281 194.55C205.631 192.48 196.471 182.69 193.911 183.2ZM207.481 202.27C206.911 203.09 207.411 205.15 207.901 206.14C208.311 206.98 218.581 219.27 219.361 219.7C221.891 221.09 226.471 217.61 224.421 214.63C222.711 212.14 213.181 201.39 210.911 201.23C210.371 201.19 207.611 202.07 207.471 202.27H207.481Z" fill="#DC2479"/>
<path d="M131.43 531.75C129.61 532.21 126.74 532.13 125.17 532.79C124.02 533.27 124.53 534.69 124.44 534.75C122.9 535.6 101.2 537.29 97.1005 537.89C93.6205 538.39 79.2405 540.01 77.5005 541.27C76.0105 542.34 75.5405 545.23 77.9705 544.76C90.9805 542.4 104.46 542.08 117.45 539.75C113.14 546.18 107.05 551.98 100.46 555.73C100.31 553.86 98.7005 550.31 96.8605 549.97C95.9305 549.8 79.1705 552.41 78.1805 552.94C75.4105 554.41 76.5505 559.97 77.6105 560.6C78.0505 560.86 82.1205 560.98 84.4705 561.73C82.4605 568.42 58.8105 571.16 57.4905 572.72L51.4905 566.74C57.5905 566.5 67.0805 568.62 67.5505 560.22C67.6805 557.87 66.5405 555.85 66.6105 554.2C66.6805 552.55 68.0905 551.34 68.3305 550.01C68.6205 548.37 66.9405 541.87 66.0005 540.77C64.6205 539.15 61.1805 540.38 60.5005 537.79C78.4505 535.57 96.2205 531.63 114.08 528.91C115.99 528.62 117.98 528.99 119.88 528.71C122.64 528.3 128.86 524.87 131.01 527.76C131.87 528.92 131.15 530.89 131.45 531.78L131.43 531.75Z" fill="#DC2479"/>
<path d="M140.421 199.18C144.161 181.94 151.431 202.01 157.131 202.97C158.551 203.21 160.001 202.19 161.451 202.6L221.861 261.11L222.221 263.97C214.751 270.03 207.281 275.64 199.371 281.08C202.201 272.7 203.341 268.05 203.371 259.11C203.371 258.97 204.351 258.42 204.351 257.59C204.351 256.45 191.511 242.85 189.411 240.61C184.941 235.86 176.201 226.1 171.431 222.6C169.821 221.42 169.381 220.62 167.401 222.16C164.721 217.9 150.931 202.08 146.911 199.2C144.321 197.35 142.971 196.4 140.421 199.19V199.18Z" fill="#91125A"/>
<path d="M206.341 615.66C208.471 617.09 205.611 622.6 204.531 624.36C205.841 632.27 209.121 623.18 211.841 620.59C215.091 617.48 222.011 613.63 226.131 616.88C228.551 618.79 225.021 622.29 224.591 624.35C223.741 628.45 224.941 638.17 230.911 634.67C232.891 633.51 242.041 621.74 243.041 621.57C247.901 620.71 249.131 628.19 250.861 628.62C254.011 629.4 255.981 615.2 262.241 625.96C256.861 633.45 256.561 643.01 246.841 646.6C246.371 642.68 251.111 631.75 244.841 630.59C236.351 629.01 236.311 642.68 231.851 644.61C229.981 645.42 230.631 643.28 229.691 642.6C225.551 639.59 220.671 645.11 218.821 648.56L214.381 661.59C213.251 659.37 215.761 649.13 215.361 648.61C214.831 647.92 211.931 651.33 212.371 648.12C213.181 642.12 226.351 628.67 219.961 623.55C212.331 617.43 206.601 635.89 201.731 639.48C200.151 640.65 189.471 646.15 188.391 643.12C188.131 642.37 199.711 638.32 199.171 632.29C198.951 629.91 195.171 627.92 195.451 626.28C195.571 625.58 199.741 621.77 200.791 620.57C202.011 619.17 203.621 613.87 206.331 615.68L206.341 615.66Z" fill="#F84615"/>
<path d="M436.211 191.19L452.211 115.29C454.621 115.48 455.831 121.96 456.241 122.25C457.751 123.33 460.161 120.28 461.491 120.48C465.211 121.03 467.961 124.36 467.191 128.27C466.721 128.26 466.101 128.17 465.751 128.32C464.341 128.95 462.701 140.5 462.191 143.25C461.281 148.27 459.881 154.5 459.191 159.23C455.261 158.91 456.721 159.06 456.161 161.64C453.591 173.3 454.161 195.59 436.211 191.19ZM452.811 130.33C450.541 131.09 448.411 150.45 446.221 153.84C445.861 157.56 450.831 160.3 453.041 156.55C454.191 154.6 458.531 134.72 458.041 132.97C457.471 130.95 454.861 129.63 452.811 130.32V130.33Z" fill="#DC2479"/>
<path d="M538.141 237.13C544.661 235.52 549.861 229.21 553.211 223.69C554.061 222.29 553.921 220.47 554.121 220.15L557.141 221.68L599.061 163.69C601.211 162.13 604.151 166.94 603.871 168.53L550.121 245.67C547.321 247.43 540.111 238.67 538.131 237.12L538.141 237.13Z" fill="#91125A"/>
<path d="M280.831 736.48C290.931 737.44 299.341 743.02 306.781 749.49C308.861 751.3 322.071 762.93 314.901 763.4L267.661 747.64C263.981 747.05 255.171 736.48 261.841 736.48C267.841 736.48 275.031 735.93 280.831 736.48Z" fill="#91125A"/>
<path d="M467.191 128.27C467.391 128.27 468.161 129.85 469.211 128.85C470.631 127.5 469.791 124.54 471.691 123.28L472.171 126.75L463.201 200.18C461.961 201.44 440.491 196.56 437.881 195.01C436.031 193.92 436.151 193.18 436.211 191.18C454.161 195.59 453.591 173.3 456.161 161.63C456.731 159.04 455.271 158.9 459.191 159.22C459.051 160.17 459.321 161.26 459.191 162.22C459.091 162.95 459.191 163.17 459.191 163.22C458.861 165.74 456.581 179.61 457.201 180.2C457.441 180.43 460.211 180.07 461.161 180.18C461.631 169.54 464.951 159.13 466.051 148.6C466.511 144.24 467.401 142.47 462.181 143.24C462.681 140.49 464.331 128.94 465.741 128.31C466.091 128.15 466.711 128.25 467.181 128.26L467.191 128.27Z" fill="#91125A"/>
<path d="M713.011 352.97C711.981 354.12 707.821 349.33 707.051 348.45C694.421 334.1 684.501 312.43 686.051 293.05C692.791 296.04 696.351 303.98 699.201 310.35C701.241 314.9 714.501 351.29 713.011 352.96V352.97Z" fill="#91125A"/>
<path d="M621.081 182.2L622.601 189.17L595.961 229.49C593.501 233.84 589.721 226.38 587.131 224.65L621.091 182.2H621.081Z" fill="#DC2479"/>
<path d="M183.391 297.05C196.561 290.27 222.551 271.07 232.361 260.1C243.921 264.89 223.791 275.03 218.901 279.11C212.671 284.3 195.491 302.31 187.121 299.88C185.791 299.49 184.781 297.62 183.401 297.05H183.391Z" fill="#91125A"/>
<path d="M258.341 595.66C266.001 602.75 262.971 601.9 267.161 610.32C269.651 615.32 278.111 620.85 278.331 621.63C278.931 623.74 276.881 627.2 277.331 629.62C268.191 621.8 257.741 615.24 248.351 607.65C251.701 604.17 253.551 597.05 258.341 595.67V595.66Z" fill="#91125A"/>
<path d="M102.461 525.75C100.501 525.15 97.5306 526.82 96.0706 526.52C94.9806 526.3 94.1606 524.43 92.7106 524C90.3706 523.32 81.7806 522.15 80.4806 520.74C78.6006 518.71 85.2506 518.14 86.5406 516.34C88.2906 513.91 87.6506 510.89 86.3406 508.4C85.0306 505.91 82.5706 505.79 81.4806 503.79C86.9906 503.92 93.2406 504.79 92.4606 497.38C92.2406 495.31 87.7606 488.89 94.8806 493.89C98.3106 496.3 100.141 520.25 102.471 525.76L102.461 525.75Z" fill="#FBC509"/>
<path d="M226.36 248.11C226.22 248.5 226.67 249.41 226.23 249.94C225.21 251.17 221.1 249.86 222.36 254.1C214.77 249.75 208.57 238.02 201.31 232.66C198.77 230.38 207.53 222.66 209.35 223.58C211.96 229.15 226.14 239.1 227.92 243.11C228.03 243.35 226.62 247.38 226.35 248.11H226.36Z" fill="#DC2479"/>
<path d="M476.191 205.17C475.161 210.85 474.411 210.8 468.731 211.2C461.661 211.7 437.081 210.97 439.211 200.17C449.851 203.62 465.081 206.17 476.181 205.16L476.191 205.17Z" fill="#91125A"/>
<path d="M242.351 241.12C249.711 241.63 244.951 246.46 241.681 248.93C239.901 250.28 235.741 253.88 235.361 254.1C234.981 254.32 233.001 253.76 231.951 254.14C227.251 255.83 227.691 257.15 222.371 254.1C221.111 249.86 225.221 251.17 226.241 249.94C226.681 249.41 226.231 248.5 226.371 248.11C228.421 248.43 229.931 247.75 231.741 246.99C233.771 246.14 240.811 242.33 242.361 241.12H242.351Z" fill="#91125A"/>
<path d="M224.361 593.67C224.651 595.23 224.211 595.98 223.411 597.21C223.061 597.74 214.891 605.83 214.351 606.17C212.121 607.6 208.421 604.84 205.091 605.83C203.111 606.42 198.571 613.64 196.381 611.63C195.301 610.64 204.001 602.03 205.071 601.75C207.501 601.13 211.171 605.88 212.351 604.64C214.821 602.04 206.381 599.43 208.351 596.66L224.341 593.67H224.361Z" fill="#F84615"/>
<path d="M139.111 184.84C139.231 184.77 139.941 181.28 141.421 183.21C143.481 185.9 138.041 189.48 137.011 191.28C133.621 197.21 129.421 214.65 123.441 199.19C138.521 201.15 129.461 185.77 124.431 179.22C126.121 177.64 132.501 188.7 139.111 184.84Z" fill="#FBC509"/>
<path d="M120.441 584.68C121.791 587.53 125.591 592.29 126.411 595.2C127.011 597.31 125.271 596.66 123.911 596.7C121.721 596.77 111.571 594.71 110.651 593.45C109.551 591.95 109.921 586.59 109.441 584.68H120.431H120.441Z" fill="#91125A"/>
<path d="M245.341 611.66C246.751 613.73 241.031 615.55 239.821 616.61C237.261 618.84 236.081 623.1 231.361 622.63C232.881 619.51 229.051 615.25 229.491 613.39C229.701 612.48 235.311 604.67 235.851 604.67C236.641 607.14 244.941 611.08 245.341 611.66Z" fill="#FBC509"/>
<path d="M594.09 142.25C594.22 142.38 594.071 144.5 595.031 145.78C599.831 152.19 609.57 142.59 610.08 143.25C608.99 145.89 607.69 160.23 605.59 160.21C604.47 160.2 603.601 156.12 602.391 155.17C601.461 154.44 599.171 153.97 597.751 153.08C594.771 151.21 593.891 148.04 589.111 149.24C588.531 148.76 592.45 140.6 594.09 142.25Z" fill="#FBC509"/>
<path d="M226.211 612.48C225.801 612.74 218.401 613.02 216.431 613.21C215.601 613.29 213.401 614.4 214.381 612.16C215.141 610.41 228.341 598.48 229.731 598.72C230.621 598.87 232.321 600.81 232.211 601.99C232.151 602.59 226.711 612.16 226.201 612.48H226.211Z" fill="#FBC509"/>
<path d="M221.371 656.58C225.521 641.4 226.611 650.31 231.041 651.47C233.401 652.09 237.891 645.58 239.851 643.58C239.891 645.03 241.721 651.88 241.281 652.48C241.011 652.85 233.791 655.47 232.771 655.52C229.271 655.67 223.301 650.4 222.371 656.57H221.371V656.58Z" fill="#F84615"/>
<path d="M120.44 584.68H109.45C109.14 583.45 106.07 577.08 106.45 576.7C109.03 576.97 113.77 574.52 115.84 574.91C118.98 575.5 119.48 582.65 120.44 584.67V584.68Z" fill="#DC2479"/>
<path d="M595.601 192.21C596.421 193.69 600.161 197.17 599.971 198.5C599.831 199.44 593.981 207.26 592.781 207.08C591.771 206.93 588.081 204.06 588.071 202.72C588.061 201.38 594.781 192.19 595.611 192.22L595.601 192.21Z" fill="#FBC509"/>
<path d="M677.041 488.8C675.251 494.49 670.381 499.36 671.041 505.78C669.991 505.61 665.991 505.3 666.011 504.2C667.641 502.08 670.411 488.38 671.041 487.8C671.261 487.59 675.661 488.63 677.031 488.8H677.041Z" fill="#91125A"/>
<path d="M599.101 239.13C598.981 239.25 599.541 240.85 598.441 241.15C591.101 243.14 580.121 231.57 581.121 224.15C586.571 229.57 591.211 236.95 599.111 239.13H599.101Z" fill="#91125A"/>
<path d="M190.391 178.209C191.591 177.219 191.141 170.539 191.391 170.229C192.931 168.349 196.731 176.519 197.381 177.219C198.641 182.239 193.691 179.489 190.381 178.219L190.391 178.209Z" fill="#91125A"/>
<path d="M68.4805 499.79C72.8205 510.31 60.0005 508.58 53.5005 510.27C55.3805 513.64 64.8705 513.32 67.9805 512.54C68.3205 512.46 72.8205 508.07 72.9705 507.76C74.4705 504.51 72.1405 501.46 78.9805 506.78C91.6905 516.68 77.3305 514.96 76.4905 515.77C75.4505 516.77 76.8405 523.62 79.5605 524.18L86.4805 527.74C78.9605 528.77 71.1305 529.88 64.5105 525.25C75.4705 522.23 70.7605 514.55 61.0105 514.69C47.2405 514.89 43.6105 520.89 30.0605 509.74C29.1005 508.95 27.2605 507.27 30.2805 508.53C51.8705 510.67 26.1205 489.21 21.5505 483.29C34.8705 483.09 43.2805 502.14 56.0305 500.84C63.1305 500.12 59.5205 492.87 60.5105 491.79C61.3605 490.86 84.4105 497.92 78.5005 484.28L68.5105 479.81C74.0105 482.57 91.0305 476.69 94.0005 482.78C94.5305 483.86 94.8305 488.44 94.4905 488.79C94.1005 489.18 85.5105 488.25 83.5005 489.8C81.9305 492.16 92.3005 499.78 86.9905 499.78H68.5005L68.4805 499.79Z" fill="#F84615"/>
<path d="M635.071 116.29C631.841 123.94 633.771 134.16 627.571 140.25C625.221 142.56 616.451 146.46 615.581 148.24C614.131 151.23 616.511 157.77 613.571 159.22C611.561 160.22 611.281 155.97 611.331 155.02C611.641 149.22 619.441 141.23 611.111 138.66C606.281 137.17 605.931 145.28 599.631 144.31C592.891 143.28 601.101 133.73 592.811 136.47C587.671 138.17 589.301 147.03 583.111 146.24C579.371 142.5 600.191 125.65 602.601 122.3C602.501 126.14 599.721 135.79 605.441 135.02C607.241 134.78 609.051 132.42 609.591 132.42C610.641 132.42 612.221 137.47 618.541 136.25C626.431 134.72 627.391 118.25 635.061 116.29H635.071Z" fill="#F84615"/>
<path d="M190.891 168.22C191.541 168.55 191.541 168.89 190.891 169.22V168.22Z" fill="#91125A"/>
<path d="M440.211 580.68C448.581 576.29 450.151 574.2 456.651 568.65C464.911 561.6 474.121 560.15 482.111 554.15C488.941 549.01 494.911 540.14 501.691 534.77C503.561 533.29 519.981 522.5 521.091 522.18C523.331 521.54 524.761 522.91 524.041 525.17C523.641 526.43 519.211 528.02 519.661 529.77C527.501 527.2 541.351 525.84 546.171 518.31C548.571 514.55 545.541 512.42 552.701 512.69C554.731 512.77 555.201 512.96 556.131 514.78L550.141 528.76C562.031 531.75 566.111 519.2 576.701 517.87C579.241 517.55 585.211 517.66 587.111 519.27C588.211 520.21 588.551 523.3 588.111 523.76C587.891 524 583.331 524.2 581.661 524.82C573.841 527.72 573.421 537.23 566.671 540.8C563.991 542.22 555.571 543.34 555.171 543.78C554.691 544.3 555.741 548.39 554.611 549.72L547.141 555.72C559.021 556.1 562.331 542.52 571.581 538.72C575.461 537.12 591.471 533.15 593.031 538.36C594.141 542.09 588.101 542.52 585.781 543.93C575.331 550.28 571.961 563.07 563.121 571.22C570.721 576.83 564.231 575.02 559.851 575.94C557.251 576.48 542.991 579.77 542.141 580.72C540.561 582.47 544.121 582.93 544.171 583.19C545.041 588.07 539.101 586.06 536.191 587.24L507.621 604.63C504.211 605.59 504.511 602.7 506.101 600.1C507.691 597.5 518.751 593.03 518.151 590.19C517.881 588.89 516.441 588.71 515.091 589.09C512.601 589.8 501.211 598.66 499.171 596.66C498.871 596.37 499.201 594.4 499.641 593.64C501.821 589.82 525.001 578.56 525.231 577.05C525.501 575.33 518.901 562.07 517.151 561.14C515.901 560.47 515.491 561.07 514.471 561.47C512.861 562.1 500.531 569.92 499.491 571.02C496.251 574.48 499.761 573.81 503.151 573.7C506.001 576.5 491.251 584.79 490.171 583.68C488.511 581.99 492.921 578.34 491.671 576.7L447.711 602.67C446.821 602.67 446.961 599.69 447.421 598.87C448.101 597.63 468.001 585.72 471.191 583.69C476.421 580.34 512.811 559.71 513.021 557.25C513.061 556.73 509.881 550.46 508.111 551.12L477.181 571.7C476.521 570.47 475.381 568.81 476.801 567.61C480.501 564.46 506.721 549 507.161 547.22C507.751 544.85 501.721 543.39 499.891 543.88C498.691 544.2 486.221 557.01 482.491 559.53C476.361 563.68 469.301 565.26 463.861 568.87C459.461 571.79 456.731 576.33 451.501 579.49C449.261 580.84 440.311 586.52 440.211 580.69V580.68ZM545.141 526.76C537.231 529.52 526.421 534.55 518.171 535.34C512.671 535.87 509.151 533.47 504.171 539.24C503.831 541.8 504.961 540.36 506.241 540.27C509.421 540.05 522.221 540.15 523.661 542.74C525.211 545.52 522.591 547.62 529.761 547.61C534.931 547.61 544.361 539.65 542.961 547.97C541.841 554.65 532.821 555.64 532.131 560.25C531.211 566.4 537.351 564.89 540.881 566.45C542.621 567.22 545.901 570.62 543.511 571.66C542.341 572.17 534.551 573.3 534.191 573.72C533.571 574.44 534.261 578.39 535.671 578.66C536.431 578.81 540.981 575 543.181 574.2C550.121 571.67 553.211 573.6 559.631 567.67C566.641 561.2 570.811 550.62 578.121 544.2C578.551 542.15 577.131 542.5 575.681 542.76C566.111 544.48 562.261 560.32 548.661 561.69C545.001 562.06 540.001 562.59 539.331 557.96C538.491 552.15 546.261 551.1 548.231 548.28C549.491 546.47 548.861 544.21 550.091 542.15C552.631 537.88 562.741 538.54 564.071 535.15C565.521 531.44 562.741 533.61 560.681 533.76C556.861 534.04 552.631 533.2 548.891 533.96C543.111 535.14 536.021 546.38 530.111 542.28C528.701 541.3 528.821 538.08 529.661 536.71C531.281 534.07 543.731 531.67 545.161 526.75L545.141 526.76ZM579.611 541.73V542.73C580.261 542.4 580.261 542.06 579.611 541.73ZM520.151 544.73H512.161C512.501 552.66 520.111 557.61 523.981 563.37C525.071 564.99 528.521 573.66 529.641 573.67C529.921 573.67 534.261 570.96 534.521 570.76C537.201 568.68 532.881 568.43 531.791 567.59C528.851 565.3 527.181 562.25 528.341 558.43C529.161 555.72 534.501 552.96 536.141 550.74C527.321 547.8 513.361 561.25 520.151 544.74V544.73Z" fill="#150F11"/>
<path d="M533.11 314.09C535.09 316.96 526.86 322.52 525.18 324.54C522.67 327.55 517.2 335.5 518.12 339.3C518.41 340.52 522.09 340.57 522.16 343.47C522.2 345.08 519.32 348.18 520.17 348.98C522.67 351.31 528 341.38 530.22 339.56C532.62 337.59 543.76 330.56 544.23 336.53C544.39 338.6 537.881 346.3 538.201 351.59C538.44 355.6 541.17 353.99 542.66 351C547.33 341.65 546.16 336.53 557.77 331.15C561.02 329.64 573.91 324.77 573.18 331.49C572.82 334.79 556.34 343.39 556.15 349.99C565.9 347.56 566.79 337.3 576.85 333.23C580.56 331.73 598.2 327.36 598.15 333.52C598.12 337.8 592.28 337.54 590.21 338.59C577.77 344.91 575.811 355.51 570.891 367.22C570.321 368.57 568.63 369.53 568.3 370.69C567.62 373.1 569.3 374.84 568.42 377.64C567.54 380.44 563.37 383.74 563.22 384.58C562.82 386.83 568.021 387.81 564.701 389.99C561.381 392.17 552.3 390.47 547.75 391.02C546.85 391.13 540.43 392.66 540.17 392.95C539.81 393.35 540.821 395.89 540.641 397.07C539.721 403.16 525.58 406.74 527.57 412.93C527.84 413.76 536.98 424.44 528.74 422.93C528.4 422.87 526.82 419.67 524.74 418.79C522.94 418.03 521.78 419.26 519.66 417.99C505.71 409.61 492.67 385.76 482.67 373.02C478.4 367.58 473.63 364.17 469.56 359.65C466.56 356.32 469.86 356.51 473.22 355.97C473.77 355.42 466.32 346.93 470.74 346C472.95 345.53 479.93 355.18 481.72 356.96C482.75 356.93 489.24 344.66 491.21 343.5C492.87 342.53 495.88 343.2 498.22 342.51C509.05 339.31 504.43 335.57 507.69 328C510.25 322.05 529.271 308.47 533.141 314.09H533.11ZM534.141 343.99C528.731 348.04 526.52 356.31 517.87 353.77C512.12 352.08 515.4 347.21 515.15 344.53C514.96 342.46 511.54 339.09 513.22 335.57L518.66 323.03C510.2 327.21 512.69 338.21 508.58 342.92C505.32 346.66 497.17 347.42 492.67 350.99C491.01 352.31 485.97 358.45 486.33 360.33C486.55 361.46 489.2 363.72 490.16 362.97C490.53 362.68 492.53 356.89 494.93 354.96C498.46 352.13 508.21 348.55 510.67 354.01C513.36 359.98 500.76 365.69 506.75 369.87C515.73 376.14 524.98 357.59 527.54 358.01C530.8 358.55 530.45 365.65 529.91 368.23C528.64 374.29 516.2 380.71 530.7 380.97C532.92 381.01 535.96 379.46 537.52 379.99C539.54 380.69 538.93 383.7 539.16 383.93C542.22 386.99 544.33 373.9 544.67 372.97C546.07 369.15 555.1 358.54 559.13 361.96C560.72 363.31 552.57 367.91 551.61 368.91C546.14 374.62 548.32 380.02 545.17 386.43C550.45 386.64 558.8 384.84 561.13 379.41C562.29 376.7 556.96 378.92 555.57 377C552.21 372.37 560.81 370.11 563.08 368.38C565.65 366.43 573.19 350.71 574.57 346.91C574.98 345.79 575.61 342.51 575.12 341.98C573.12 339.79 566.66 349.92 565.37 350.98C561.52 354.15 551.9 357.92 551.13 350.44C550.66 345.86 555.751 343.02 555.641 338.99C548.191 342.84 548.95 359.26 540.66 360.04C531 360.95 531.351 350.52 534.141 343.98V343.99ZM507.16 354.98C504.14 352.31 491.56 361.13 492.63 366.05C492.98 367.68 510.8 386.25 513.99 391.6C515.05 393.38 516.08 399.44 518.6 398.88C522.05 398.1 528.2 387.96 531.15 385.43C510.19 382.5 522.09 377.01 526.15 364.97C524.25 366.51 523.24 368.67 521.17 370.46C516.24 374.73 510.53 377.11 504.45 373.17C495.03 367.06 509.06 356.65 507.17 354.98H507.16ZM474.19 356.98C472.95 358.27 483.81 367.89 485.15 369.49C496.64 383.24 504.37 400.48 519.67 410.89C511.21 393.8 499.67 378.94 485.71 365.94C483.82 365.5 475.4 355.72 474.2 356.98H474.19ZM522.17 406.9C524.42 408.48 528.96 402.32 530.65 400.91C532.22 399.6 537.651 397.84 537.141 395.43C536.321 391.53 525.34 398.32 523.68 399.92C522.02 401.52 519.82 405.24 522.18 406.89L522.17 406.9ZM524.15 416.89C525.49 415.3 521.44 410.64 520.16 411.91C519.58 412.49 522.76 418.53 524.15 416.89Z" fill="#150F11"/>
<path d="M251.341 293.06C252.291 293.97 250.571 296.16 249.891 297.09C240.191 310.33 225.491 311.95 214.341 324.48C209.691 329.71 206.651 336.43 202.351 341.46C198.341 346.16 192.951 349.09 188.971 354.05C185.341 358.57 183.271 365.07 179.931 368.98C173.921 376 159.291 384.06 150.901 392.9C149.741 394.13 140.071 407.75 138.431 405.89C135.561 402.64 147.791 392.1 148.881 388.88C149.751 386.29 149.101 384.02 149.651 381.66C151.781 372.69 157.011 372.91 162.881 367.92C173.181 359.17 161.801 359.82 162.631 350.69C163.581 340.13 175.881 335.94 182.421 330.51C188.961 325.08 197.051 309.62 204.661 306.79C208.011 305.55 211.261 306.25 214.941 305.07C219.151 303.72 225.531 295.98 229.891 300C231.621 301.6 230.841 306.23 235.661 304.86C238.611 304.02 248.021 289.84 251.351 293.03L251.341 293.06ZM227.361 303.04C226.621 302.34 220.561 307.43 219.051 308.21C217.391 309.07 212.701 309.88 212.491 310.15C212.111 310.63 212.651 313.44 211.441 315.59C210.311 317.59 201.591 323.73 198.871 327C195.911 330.55 194.041 335.23 191.391 338.49C187.041 343.84 178.481 346.88 174.451 352.74C170.421 358.6 172.771 357.69 172.511 362.48C172.121 369.71 150.601 378.06 154.441 382.94C159.671 376.96 171.091 372.34 175.961 367.01C179.111 363.56 181.531 356.46 184.991 352.07C188.821 347.2 194.131 344.18 197.921 340.02C205.921 331.24 209.541 321.78 219.901 313.05C221.521 311.69 228.011 308.3 228.301 307.9C228.751 307.26 227.011 304.34 227.371 303.04H227.361ZM209.381 311.04C200.681 310.78 196.511 321.81 191.411 327.52C198.651 324.19 203.831 316.69 209.381 311.04ZM191.381 329.01L170.881 343.96C168.411 346.79 166.941 350.15 167.411 353.96C168.561 355.27 176.951 344.8 178.381 343.47C179.811 342.14 194.321 332.06 191.381 329.01Z" fill="#150F11"/>
<path d="M410.231 270.09C408.021 271.02 399.151 273.12 399.241 274.08C391.221 274.76 383.941 276.55 375.771 276.06C365.921 275.47 344.231 270.68 352.071 256.39C360.791 240.5 402.691 237.98 416.561 247.27C430.431 256.56 421.291 265.44 410.231 270.07V270.09ZM383.051 246.41C375.431 247.19 350.041 253.42 355.771 265.1C359.541 272.79 385.111 271.98 392.481 270.81C399.131 269.76 422.351 264.23 417.721 254.13C413.871 245.72 390.851 245.61 383.051 246.41Z" fill="#150F11"/>
<path d="M298.31 398.92C288.01 409.11 272.7 418.91 258.34 421.89C250.12 423.6 237.17 424.03 238.31 412.39C239.12 404.12 254.34 393.22 261.46 389.55C270.15 385.08 289.97 377.72 298.35 384.39C304.95 389.65 299.72 393.88 298.31 398.91V398.92ZM291.97 399.57C295.07 396.3 300.43 390.31 294.7 387.06C283.08 380.47 245.64 399.61 242.59 412.66C241.42 417.67 245.26 418.65 249.94 418.81C261.29 419.2 284.13 407.84 291.97 399.58V399.57Z" fill="#150F11"/>
<path d="M365.271 542.73C369.971 544.76 374.461 549.25 374.261 554.71C373.851 566.12 352.711 571.73 343.651 572.56C335.791 573.28 328.321 573.51 321.801 568.69C306.551 557.42 323.061 546.19 334.841 542.78C343.141 540.38 357.291 539.29 365.261 542.72L365.271 542.73ZM343.041 544.98C333.661 546.18 307.991 558.46 326.301 566.2C335.651 570.15 366.441 567.05 369.861 555.75C373.341 544.24 349.751 544.13 343.051 544.99L343.041 544.98Z" fill="#150F11"/>
<path d="M664.051 389.93C668.131 399.75 672.101 424.97 663.611 432.93C654.051 441.89 644.221 422.39 642.071 414.9C639.461 405.81 637.971 386.32 644.551 378.92C652.701 369.75 661.021 382.61 664.061 389.93H664.051ZM649.771 380.08C640.541 382.42 644.681 408.56 647.021 415.43C656.901 444.36 666.271 427.91 663.921 405.53C663.361 400.22 656.711 378.32 649.761 380.08H649.771Z" fill="#150F11"/>
<path d="M179.401 494.79C183.611 503.35 188.881 520.16 179.401 526.75C178.841 526.44 174.781 527 172.451 526.21C161.601 522.5 149.211 486.01 161.681 480.56C169.081 477.33 176.641 489.16 179.411 494.8L179.401 494.79ZM163.051 484.92C155.401 487.56 165.391 519.56 174.361 522.34C184.231 525.4 179.751 506.03 177.881 500.81C176.161 496.01 169.171 482.81 163.051 484.92Z" fill="#150F11"/>
<path d="M179.401 494.79C181.651 492.76 182.251 487.36 186.381 489.27C191.381 491.58 196.661 501.71 196.481 507.29C196.411 509.38 190.321 524.01 188.951 525.81C186.891 528.5 183.421 530.66 180.151 528.72C179.061 528.07 179.501 526.81 179.411 526.76C188.891 520.17 183.621 503.37 179.411 494.8L179.401 494.79Z" fill="#91125A"/>
<path d="M410.23 270.09C418.76 273.47 406.991 281.91 402.611 283.95C395.501 287.24 389.811 287.66 382.251 285.57C379.491 284.81 372.38 282.36 372.26 279.08H387.751C390.331 279.08 397.011 275.21 400.241 275.04C400.071 274.63 399.251 274.25 399.241 274.08C399.161 273.12 408.021 271.01 410.23 270.09Z" fill="#91125A"/>
<path d="M297.051 198.42C302.871 197.49 311.121 197.59 310.301 205.58C309.371 214.56 284.511 224.69 277.371 218.62C268.291 210.9 290.601 199.45 297.051 198.42ZM280.321 216.15C282.091 217.95 293.931 214.35 296.691 213.04C313.251 205.16 305.101 198.28 289.941 205.3C287.561 206.4 277.271 213.05 280.321 216.16V216.15Z" fill="#150F11"/>
<path d="M298.311 398.92C297.361 402.32 298.471 403.5 296.111 408.21C288.411 423.64 277.591 424.41 261.791 423.89C259.871 423.83 257.781 424.91 258.341 421.89C272.701 418.91 288.011 409.11 298.311 398.92Z" fill="#91125A"/>
<path d="M526.15 279.07C522.24 279.02 516.211 276.41 513.161 274.08C509.071 270.95 498.991 259.79 504.141 254.58C512.241 246.39 539.571 268.44 532.241 277.67C530.801 279.48 528.18 279.1 526.15 279.07ZM524.801 265.45C520.911 261.27 513.141 256.53 507.171 257.11C505.931 263.49 516.031 272.57 521.421 274.32C532.391 277.88 530.371 271.44 524.801 265.45Z" fill="#150F11"/>
<path d="M278.331 621.63C278.111 620.86 269.651 615.33 267.161 610.32C262.971 601.9 266.011 602.75 258.341 595.66C255.241 592.79 245.881 583.38 241.921 583.68C239.511 583.87 236.591 586.79 233.361 585.68C232.911 578.19 233.531 581.71 236.891 581.22C239.731 580.8 240.421 579.1 244.611 579.9C249.331 580.8 266.311 595.32 268.511 599.98C270.711 604.64 270.271 608.21 273.911 612.56C277.111 616.39 289.201 621.34 278.331 621.63Z" fill="#150F11"/>
<path d="M607.741 268.44C611.211 272.02 615.351 280.75 615.031 285.66C614.801 289.28 608.701 289.57 606.141 288.52C603.371 287.39 592.791 274.77 592.351 272.46C592.161 271.49 593.571 266.59 594.191 265.67C597.681 260.55 604.741 265.33 607.751 268.44H607.741ZM598.621 267.09C593.101 268.2 604.471 287.2 610.121 283.6C612.561 282.05 608.051 275.32 606.911 273.76C605.591 271.93 600.841 266.65 598.611 267.09H598.621Z" fill="#150F11"/>
<path d="M391.971 288.29C396.061 287.45 404.281 286.75 404.311 292.54C404.371 302.18 384.771 302.23 383.391 296.34C382.481 292.46 388.811 288.94 391.961 288.29H391.971Z" fill="#150F11"/>
<path d="M374.26 554.72C374.46 549.26 369.961 544.76 365.271 542.74C373.041 522.45 389.34 547.13 374.26 554.72Z" fill="#91125A"/>
<path d="M526.15 279.07C525.08 290.13 500.511 281.86 513.161 274.08C516.211 276.41 522.24 279.02 526.15 279.07Z" fill="#91125A"/>
<path d="M632.071 395.92C632.411 396.25 632.021 403.66 632.071 405.4C632.121 406.82 634.601 413.84 630.581 412.9C627.651 412.21 627.311 398.78 628.981 396.51C629.611 395.66 631.791 395.66 632.061 395.92H632.071Z" fill="#150F11"/>
<path d="M352.271 529.74C351.791 530.4 336.801 532.65 336.291 530.24C335.381 525.95 355.491 525.27 352.271 529.74Z" fill="#150F11"/>
<path d="M403.031 687.84C414.061 686.72 446.831 689.31 439.451 707.27C433.121 722.66 387.141 723.36 376.831 711.44C364.591 697.29 393.081 688.86 403.031 687.84ZM407.031 691.84C399.761 692.28 391.931 693.72 385.581 697.36C367.351 707.82 388.931 714.63 399.751 715.49C407.821 716.13 433.271 714.23 436.041 704.8C439.441 693.23 414.211 691.4 407.021 691.84H407.031Z" fill="#150F11"/>
<path d="M504.961 689.79C509.311 689.41 518.081 691.03 517.901 696.85C517.491 710.18 477.971 723.27 476.161 709.95C474.711 699.3 496.561 690.53 504.961 689.79ZM501.931 694.79C497.591 695.43 477.141 703.88 480.611 709.53C484.711 716.19 510.461 705.61 512.741 698.57C514.581 692.89 505.821 694.22 501.931 694.79Z" fill="#150F11"/>
<path d="M471.19 583.68C468.5 578.04 474.76 575.78 477.19 571.7L508.121 551.12C509.881 550.45 513.07 556.72 513.03 557.25C512.82 559.71 476.431 580.34 471.201 583.69L471.19 583.68Z" fill="#DC2479"/>
<path d="M469.191 596.67C470.961 598.2 463.371 602.89 462.501 603.46C459.981 605.13 453.691 609.06 451.201 610.16C448.711 611.26 446.691 608.38 449.431 606.34C452.171 604.3 467.041 594.8 469.191 596.67Z" fill="#150F11"/>
<path d="M305.301 724.49C304.321 725.43 294.551 721.23 293.021 720.29C289.921 718.38 291.021 715.16 294.341 715.95C296.051 716.36 308.221 721.67 305.301 724.48V724.49Z" fill="#150F11"/>
<path d="M621.8 635.78C623.51 635.27 625.23 635.37 626.64 636.56L651.11 661.02C655.04 665.44 647.07 671.94 643.09 670.07C641.68 669.41 623.17 650.64 621.06 648.12C619.57 646.34 616.83 643.5 617.04 641.16C617.18 639.58 620.39 636.21 621.8 635.79V635.78Z" fill="#150F11"/>
<path d="M603.101 647.6C604.011 646.65 606.211 648.37 607.141 649.05C611.811 652.47 625.691 666.77 629.591 671.56C632.381 674.98 629.901 676.68 626.541 674.61C623.181 672.54 617.891 664.9 614.621 661.55C612.731 659.62 599.991 650.85 603.111 647.6H603.101Z" fill="#150F11"/>
<path d="M612.801 677.69C616.101 676.86 627.541 688.64 627.941 691.23C628.341 693.82 624.531 695.17 622.101 694.04C621.391 693.71 611.691 684.07 611.031 683.09C609.531 680.85 610.231 678.33 612.801 677.69Z" fill="#150F11"/>
<path d="M176.091 267.76C175.151 268.57 173.661 269.43 172.411 268.65L154.881 249.09C153.061 246.78 158.151 242.09 159.911 242.08C162.851 242.08 175.851 258.28 178.931 261.11C180.281 262.66 177.321 266.7 176.091 267.75V267.76Z" fill="#150F11"/>
<path d="M203.381 259.1C198.851 258.57 194.511 252.91 191.361 249.64C183.291 241.24 173.351 231.6 167.401 222.15C169.381 220.61 169.821 221.41 171.431 222.59C176.211 226.09 184.941 235.85 189.411 240.6C191.521 242.84 204.361 256.44 204.351 257.58C204.351 258.41 203.371 258.97 203.371 259.1H203.381Z" fill="#150F11"/>
<path d="M141.141 208.31C142.911 207.81 143.551 208.27 144.981 209.12C146.081 209.77 155.591 219.59 156.281 220.82C158.461 224.65 153.641 229.1 150.891 227.21C149.771 226.44 139.301 215.92 138.941 215.15C137.831 212.76 138.261 209.12 141.141 208.32V208.31Z" fill="#150F11"/>
<path d="M544.831 188.31C548.131 187.46 551.821 191.43 550.411 194.88C549.941 196.04 536.391 213.75 535.211 214.73C531.471 217.85 525.831 214.17 527.891 209.44C528.741 207.5 543.511 188.65 544.821 188.31H544.831Z" fill="#150F11"/>
<path d="M570.881 159.47C572.171 160.74 572.391 163.55 571.641 165.19C571.251 166.03 560.91 179.24 560.12 179.74C557.97 181.12 553.09 178.17 553.12 175.72C553.15 172.7 563.861 162.23 565.311 158.4C566.461 157.74 569.951 158.54 570.881 159.46V159.47Z" fill="#150F11"/>
<path d="M568.771 176.37C571.141 175.93 573.751 178.28 572.621 181.16C572.101 182.47 564.281 192.81 563.431 193.06C560.781 193.85 557.751 191.92 558.511 189.17C558.871 187.85 567.661 176.58 568.771 176.38V176.37Z" fill="#150F11"/>
<path d="M708.021 519.76C713.831 519.32 720.611 522.49 726.011 522.76C725.921 525.43 726.781 528.99 724.571 530.87C723.401 531.86 704.731 528.5 704.161 527.62C702.351 524.79 703.561 520.11 708.021 519.77V519.76Z" fill="#150F11"/>
<path d="M706.961 530.81C706.961 531.77 707.521 534.81 706.511 534.75C701.251 534.46 689.961 532.75 684.831 531.43C679.701 530.11 682.231 527.65 686.481 527.71C692.391 527.79 700.641 530.83 706.961 530.81Z" fill="#150F11"/>
<path d="M581.631 710.51C583.701 710.1 597.531 721.36 591.551 724.48C587.831 725.52 575.811 711.66 581.631 710.51Z" fill="#150F11"/>
<path d="M612.081 749.46C610.431 751.11 600.731 741.13 599.551 739.52C596.571 735.46 598.071 733.95 602.141 736.93C603.751 738.11 613.741 747.8 612.081 749.45V749.46Z" fill="#150F11"/>
<path d="M686.681 494.94C690.121 493.8 715.181 496.16 707.541 502.8C705.231 504.81 686.751 502.65 685.481 500.85C684.421 499.33 684.621 495.62 686.681 494.94Z" fill="#150F11"/>
<path d="M733.871 501.91C734.921 503.58 734.211 507.44 731.481 507.83C728.391 508.27 709.021 505.77 715.521 499.76C717.031 498.36 733.361 501.09 733.871 501.91Z" fill="#150F11"/>
<path d="M124.441 534.74C127.571 539.13 120.821 539.13 117.441 539.73C104.451 542.06 90.9806 542.38 77.9606 544.74C75.5306 545.22 76.0006 542.32 77.4906 541.25C79.2306 539.99 93.6106 538.38 97.0906 537.87C101.191 537.28 122.891 535.58 124.431 534.73L124.441 534.74Z" fill="#150F11"/>
<path d="M100.451 555.71C95.2605 558.66 90.3405 557.97 88.6605 558.92C87.1005 559.8 88.6705 563.06 84.4605 561.71C82.1105 560.95 78.0405 560.83 77.6005 560.58C76.5405 559.96 75.3905 554.39 78.1705 552.92C79.1605 552.4 95.9205 549.78 96.8505 549.95C98.6905 550.29 100.301 553.85 100.451 555.71Z" fill="#150F11"/>
<path d="M207.481 202.27C207.621 202.07 210.371 201.19 210.921 201.23C213.181 201.39 222.711 212.14 224.431 214.63C226.481 217.61 221.901 221.09 219.371 219.7C218.591 219.27 208.321 206.98 207.911 206.14C207.421 205.15 206.911 203.09 207.491 202.27H207.481Z" fill="#150F11"/>
<path d="M193.911 183.2C196.471 182.69 205.631 192.48 205.281 194.55C203.721 203.85 186.831 184.62 193.911 183.2Z" fill="#150F11"/>
<path d="M452.81 130.329C454.85 129.639 457.47 130.959 458.04 132.979C458.53 134.729 454.19 154.599 453.04 156.559C450.83 160.309 445.86 157.559 446.22 153.849C448.41 150.449 450.55 131.099 452.81 130.339V130.329Z" fill="#150F11"/>
<path d="M462.201 143.25C467.411 142.48 466.521 144.25 466.071 148.61C464.961 159.13 461.651 169.54 461.181 180.19C460.221 180.08 457.451 180.44 457.221 180.21C456.611 179.62 458.881 165.75 459.211 163.23V162.23C459.341 161.27 459.071 160.19 459.211 159.23C459.891 154.5 461.291 148.27 462.211 143.25H462.201Z" fill="#150F11"/>
<path d="M459.201 163.229C459.201 163.229 459.101 162.959 459.201 162.229V163.229Z" fill="#DC2479"/>
<path d="M545.141 526.76C543.711 531.68 531.261 534.08 529.641 536.72C528.801 538.08 528.681 541.31 530.091 542.29C536.001 546.4 543.091 535.15 548.871 533.97C552.611 533.2 556.841 534.05 560.661 533.77C562.721 533.62 565.501 531.45 564.051 535.16C562.731 538.55 552.611 537.89 550.071 542.16C548.841 544.22 549.471 546.48 548.211 548.29C546.241 551.11 538.481 552.16 539.311 557.97C539.981 562.59 544.981 562.07 548.641 561.7C562.241 560.33 566.101 544.49 575.661 542.77C577.111 542.51 578.531 542.16 578.101 544.21C570.801 550.63 566.621 561.22 559.611 567.68C553.191 573.61 550.091 571.67 543.161 574.21C540.961 575.01 536.421 578.82 535.651 578.67C534.251 578.4 533.561 574.44 534.171 573.73C534.531 573.31 542.321 572.18 543.491 571.67C545.881 570.63 542.601 567.23 540.861 566.46C537.331 564.89 531.181 566.41 532.111 560.26C532.801 555.65 541.821 554.66 542.941 547.98C544.341 539.66 534.911 547.61 529.741 547.62C522.571 547.63 525.191 545.53 523.641 542.75C522.201 540.16 509.401 540.05 506.221 540.28C504.941 540.37 503.811 541.81 504.151 539.25C509.121 533.48 512.651 535.88 518.151 535.35C526.401 534.55 537.201 529.52 545.121 526.77L545.141 526.76Z" fill="#F84615"/>
<path d="M520.151 544.73C513.361 561.23 527.321 547.79 536.141 550.73C534.501 552.96 529.161 555.71 528.341 558.42C527.181 562.24 528.851 565.3 531.791 567.58C532.881 568.43 537.201 568.68 534.521 570.75C534.261 570.95 529.931 573.66 529.641 573.66C528.521 573.64 525.071 564.97 523.981 563.36C520.111 557.6 512.491 552.66 512.161 544.72H520.151V544.73Z" fill="#FBC509"/>
<path d="M579.611 541.73C580.261 542.06 580.261 542.4 579.611 542.73V541.73Z" fill="#DC2479"/>
<path d="M507.161 354.98C509.061 356.65 495.021 367.06 504.441 373.17C510.521 377.11 516.221 374.73 521.161 370.46C523.231 368.66 524.241 366.5 526.141 364.97C522.081 377.02 510.181 382.51 531.141 385.43C528.201 387.96 522.041 398.1 518.591 398.88C516.071 399.45 515.051 393.38 513.981 391.6C510.791 386.25 492.971 367.68 492.621 366.05C491.551 361.13 504.131 352.31 507.151 354.98H507.161Z" fill="#FBC509"/>
<path d="M522.171 406.9C519.821 405.25 521.951 401.59 523.671 399.93C525.391 398.27 536.321 391.54 537.131 395.44C537.631 397.84 532.211 399.6 530.641 400.92C528.961 402.33 524.411 408.48 522.161 406.91L522.171 406.9Z" fill="#91125A"/>
<path d="M524.151 416.89C522.771 418.53 519.581 412.48 520.161 411.91C521.441 410.65 525.481 415.31 524.151 416.89Z" fill="#91125A"/>
<path d="M534.141 343.99C531.351 350.54 531.001 360.96 540.661 360.05C548.941 359.27 548.191 342.85 555.641 339C555.751 343.04 550.661 345.88 551.131 350.45C551.901 357.93 561.521 354.16 565.371 350.99C566.661 349.93 573.121 339.8 575.121 341.99C575.611 342.53 574.981 345.8 574.571 346.92C573.191 350.72 565.641 366.44 563.081 368.39C560.801 370.12 552.211 372.37 555.571 377.01C556.961 378.93 562.301 376.71 561.131 379.42C558.801 384.85 550.451 386.65 545.171 386.44C548.331 380.03 546.141 374.63 551.611 368.92C552.571 367.91 560.731 363.32 559.131 361.97C555.101 358.54 546.071 369.15 544.671 372.98C544.331 373.91 542.221 387.01 539.161 383.94C538.931 383.71 539.541 380.7 537.521 380C535.971 379.46 532.921 381.02 530.701 380.98C516.201 380.71 528.651 374.3 529.911 368.24C530.451 365.66 530.801 358.57 527.541 358.02C524.981 357.59 515.731 376.15 506.751 369.88C500.761 365.7 513.361 359.98 510.671 354.02C508.211 348.55 498.461 352.13 494.931 354.97C492.531 356.9 490.531 362.69 490.161 362.98C489.211 363.73 486.551 361.47 486.331 360.34C485.971 358.46 491.011 352.32 492.671 351C497.171 347.43 505.321 346.67 508.581 342.93C512.691 338.22 510.201 327.22 518.661 323.04L513.221 335.58C511.541 339.11 514.961 342.47 515.151 344.54C515.391 347.22 512.121 352.09 517.871 353.78C526.511 356.33 528.721 348.06 534.141 344V343.99Z" fill="#F84615"/>
<path d="M474.191 356.98C475.391 355.72 483.811 365.5 485.701 365.94C499.661 378.93 511.201 393.79 519.661 410.89C504.361 400.49 496.631 383.25 485.141 369.49C483.811 367.89 472.951 358.28 474.181 356.98H474.191Z" fill="#91125A"/>
<path d="M227.361 303.04C227.001 304.34 228.751 307.26 228.291 307.9C228.011 308.3 221.511 311.68 219.891 313.05C209.531 321.77 205.911 331.24 197.911 340.02C194.121 344.17 188.811 347.2 184.981 352.07C181.521 356.47 179.101 363.57 175.951 367.01C171.081 372.34 159.651 376.97 154.431 382.94C150.591 378.05 172.111 369.71 172.501 362.48C172.761 357.69 170.601 358.32 174.441 352.74C178.471 346.88 187.031 343.84 191.381 338.49C194.041 335.22 195.911 330.55 198.861 327C201.581 323.73 210.301 317.59 211.431 315.59C212.651 313.43 212.101 310.62 212.481 310.15C212.691 309.88 217.371 309.07 219.041 308.21C220.551 307.43 226.611 302.34 227.351 303.04H227.361Z" fill="#91125A"/>
<path d="M191.381 329.01C194.321 332.06 179.841 342.11 178.381 343.47C176.921 344.83 168.551 355.28 167.411 353.96C166.941 350.15 168.411 346.78 170.881 343.96L191.381 329.01Z" fill="#91125A"/>
<path d="M209.381 311.04C203.831 316.69 198.651 324.19 191.411 327.52C196.501 321.81 200.681 310.78 209.381 311.04Z" fill="#91125A"/>
<path d="M383.051 246.409C390.851 245.609 413.871 245.719 417.721 254.129C422.341 264.229 399.121 269.759 392.481 270.809C385.121 271.969 359.551 272.789 355.771 265.099C350.041 253.419 375.421 247.189 383.051 246.409Z" fill="#DC2479"/>
<path d="M291.971 399.57C284.131 407.83 261.291 419.19 249.941 418.8C245.251 418.64 241.421 417.66 242.591 412.65C245.641 399.61 283.081 380.47 294.701 387.05C300.441 390.3 295.071 396.3 291.971 399.56V399.57Z" fill="#DC2479"/>
<path d="M343.041 544.98C349.741 544.12 373.331 544.23 369.851 555.74C366.431 567.05 335.651 570.15 326.291 566.19C307.981 558.46 333.661 546.17 343.031 544.97L343.041 544.98Z" fill="#91125A"/>
<path d="M649.771 380.08C656.721 378.32 663.371 400.22 663.931 405.53C666.281 427.91 656.901 444.36 647.031 415.43C644.681 408.56 640.541 382.42 649.781 380.08H649.771Z" fill="#91125A"/>
<path d="M163.051 484.92C169.171 482.81 176.161 496.01 177.881 500.81C179.751 506.03 184.231 525.4 174.361 522.34C165.391 519.56 155.401 487.56 163.051 484.92Z" fill="#DC2479"/>
<path d="M280.321 216.15C277.281 213.04 287.561 206.4 289.941 205.29C305.101 198.27 313.251 205.15 296.691 213.03C293.941 214.34 282.091 217.95 280.321 216.14V216.15Z" fill="#DC2479"/>
<path d="M524.801 265.45C530.371 271.44 532.401 277.88 521.421 274.32C516.031 272.57 505.931 263.49 507.171 257.11C513.141 256.53 520.921 261.27 524.801 265.45Z" fill="#DC2479"/>
<path d="M598.621 267.09C600.851 266.64 605.591 271.93 606.921 273.76C608.061 275.33 612.571 282.05 610.131 283.6C604.481 287.2 593.101 268.19 598.631 267.09H598.621Z" fill="#DC2479"/>
<path d="M407.031 691.84C414.211 691.4 439.441 693.23 436.051 704.8C433.281 714.23 407.83 716.13 399.76 715.49C388.941 714.64 367.351 707.82 385.591 697.36C391.931 693.72 399.77 692.28 407.04 691.84H407.031Z" fill="#91125A"/>
<path d="M501.93 694.79C505.82 694.22 514.58 692.88 512.74 698.57C510.46 705.61 484.71 716.19 480.61 709.53C477.14 703.89 497.59 695.43 501.93 694.79Z" fill="#91125A"/>
<path d="M116.432 495.768C114.332 482.146 113.808 460.147 134.692 446.56L134.693 446.559C143.627 440.748 153.599 438.32 164.258 437.985L165.291 437.958L165.293 437.959C168.724 437.89 174.831 438.189 179.949 437.164C182.526 436.648 185.04 435.768 186.923 434.203C188.87 432.585 190.054 430.303 190.018 427.259L190.019 427.258C189.97 423.048 188.103 420.197 185.611 418.348C183.337 416.659 180.59 415.835 178.352 415.422L177.911 415.344C177.157 415.218 176.791 414.38 177.136 413.762L177.216 413.641C187.897 399.655 202.84 395.271 216.726 394.75L218.067 394.711C245.323 394.165 270.004 417.049 275.345 443.726C278.698 460.475 276.904 476.402 270.173 489.843C263.552 503.065 252.111 513.97 235.891 520.908L235.115 521.236C221.95 526.707 194.739 530.761 171.254 514.127L170.139 513.319L170.132 513.315C169.426 512.797 169.656 511.642 170.511 511.418L170.689 511.387L170.696 511.386C175.006 510.936 180.968 510.097 186.549 508.574C192.049 507.073 197.498 504.826 200.464 501.365L203.916 497.335L198.912 499.103C198.909 499.104 198.904 499.106 198.897 499.108C198.877 499.114 198.841 499.126 198.791 499.141C198.69 499.172 198.53 499.217 198.313 499.272C197.877 499.38 197.211 499.524 196.327 499.648C194.561 499.896 191.924 500.066 188.522 499.727C181.941 499.071 172.445 496.503 160.821 488.816L159.689 488.056C149.482 481.095 137.513 481.243 129.224 485.931L128.832 486.157L128.831 486.158L128.397 486.42C123.95 489.172 120.634 493.038 118.425 496.226C117.845 497.056 116.588 496.759 116.432 495.768Z" fill="#F84615" stroke="black" stroke-width="2.83882"/>
<path d="M169.696 457.725C178.259 459.258 196.889 460.437 210.386 445.56L211.054 444.806L211.054 444.805C215.776 439.338 218.99 435.112 223.895 430.374L224.9 429.419L224.901 429.418C243.087 412.351 271.344 423.669 275.872 446.29C279.412 463.973 268.221 481.431 250.721 485.117L249.884 485.281L249.883 485.281C244.226 486.32 236.028 486.081 230.279 483.729C233.768 481.91 236.759 479.264 238.989 476.022L239.451 475.323L239.457 475.315C240.224 474.093 241.294 472.061 240.536 469.996L240.537 469.995C240.537 469.994 240.536 469.994 240.536 469.993L240.535 469.99L240.534 469.991C240.21 469.101 239.393 467.604 237.586 467.039C235.891 466.509 233.78 466.942 231.17 468.59L230.641 468.936L230.641 468.937C226.252 471.908 222.212 473.848 217.142 474.635C212.358 475.377 206.56 475.107 198.574 473.569L196.946 473.244L196.946 473.243C184.879 470.76 174.746 462.52 169.696 457.725Z" fill="#FBC509" stroke="black" stroke-width="2.83882"/>
<defs>
<linearGradient id="paint0_linear_83_4392" x1="404.304" y1="142.206" x2="404.304" y2="758.824" gradientUnits="userSpaceOnUse">
<stop stop-color="#DC2479"/>
<stop offset="0.990385" stop-color="#FD262A"/>
</linearGradient>
</defs>
</svg>
