<svg width="308" height="308" viewBox="0 0 308 308" fill="none" xmlns="http://www.w3.org/2000/svg">
<path d="M17.0789 206.91C16.4869 180.074 38.0795 158 64.9223 158H230.953C264.067 158 289.843 186.76 286.231 219.677C284.791 232.796 278.731 244.976 269.136 254.038L237.39 284.02C226.765 294.055 213.109 300.28 198.565 301.717L149.74 306.543C140.034 307.502 130.236 306.299 121.051 303.018L93.1088 293.039C83.8211 289.722 75.3948 284.365 68.4494 277.364L30.947 239.556C22.3133 230.852 17.3493 219.167 17.0789 206.91Z" fill="url(#paint0_linear_679_3021)"/>
<circle cx="154" cy="154" r="149" stroke="url(#paint1_linear_679_3021)" stroke-width="10"/>
<path d="M102.28 137.731C103.739 134.561 95.3128 107.395 112.381 86.8268C116.077 82.3775 124.086 74.3352 136.811 70.7889C140.919 69.6452 158.555 65.3343 175.014 76.3756C188.029 85.108 192.364 98.1109 193.532 102.147C193.532 102.147 197.531 115.721 196.615 122.898C196.615 122.898 204.323 160.497 202.011 179.063C199.698 197.629 186.291 213.243 165.481 215.426C144.671 217.609 128.793 217.769 116.308 212.774C103.823 207.78 92.2594 186.875 97.192 174.394C97.192 174.394 97.049 149.119 102.28 137.731Z" fill="#0D3E66" stroke="black" stroke-width="5" stroke-miterlimit="10"/>
<path d="M191.324 136.216C208.885 100.077 216.497 99.6784 218.854 100.29C225.167 101.915 228.05 119.49 223.595 133.053C217 153.142 195.817 159.849 193.081 160.669" fill="#0D3E66"/>
<path d="M192.907 160.09C192.907 160.09 193.305 159.935 194.054 159.611C194.803 159.287 195.902 158.793 197.282 158.09C198.663 157.387 200.323 156.484 202.169 155.321C204.25 154.013 206.245 152.568 208.139 150.996C210.397 149.118 212.471 147.025 214.332 144.744L214.706 144.286L215.064 143.812C215.302 143.492 215.55 143.173 215.786 142.847C216.022 142.521 216.245 142.18 216.478 141.844L216.653 141.59L216.815 141.328L217.145 140.802L217.478 140.274C217.589 140.099 217.688 139.912 217.789 139.731C218 139.364 218.21 139 218.421 138.625C218.631 138.25 218.806 137.865 219.001 137.482L219.147 137.194L219.279 136.898C219.368 136.702 219.456 136.504 219.544 136.304C219.633 136.106 219.723 135.908 219.814 135.707C219.904 135.507 219.974 135.301 220.058 135.098C220.216 134.687 220.382 134.276 220.538 133.861C220.811 133.009 221.121 132.17 221.356 131.288C221.856 129.484 222.235 127.648 222.493 125.793C223.05 121.868 223.131 117.889 222.732 113.944C222.541 111.992 222.179 110.06 221.649 108.172C221.4 107.298 221.087 106.444 220.712 105.617C220.395 104.895 219.985 104.219 219.494 103.606C219.172 103.184 218.747 102.855 218.261 102.652C218.074 102.589 217.876 102.565 217.68 102.579C217.389 102.607 217.102 102.669 216.826 102.765C216.112 103.032 215.435 103.39 214.81 103.83C214.467 104.055 214.134 104.32 213.797 104.575L213.303 104.988L213.057 105.201L212.817 105.414C211.534 106.583 210.323 107.831 209.191 109.15C208.623 109.789 208.084 110.451 207.549 111.097C207.284 111.423 207.03 111.755 206.771 112.079C206.512 112.402 206.257 112.718 206.011 113.052C204.023 115.65 202.259 118.164 200.677 120.507C197.52 125.175 195.089 129.071 193.412 131.765L190.801 135.957L191.268 134.768C191.579 133.991 192.026 132.836 192.646 131.36C193.871 128.421 195.702 124.189 198.305 119.09C199.614 116.545 201.116 113.785 202.914 110.894C203.124 110.53 203.368 110.17 203.606 109.806C203.844 109.442 204.077 109.073 204.323 108.707C204.824 107.974 205.329 107.231 205.881 106.49C207.013 104.927 208.248 103.444 209.578 102.051L209.843 101.781L210.123 101.512L210.687 100.973C211.087 100.622 211.48 100.266 211.922 99.9277C212.856 99.1792 213.883 98.5571 214.976 98.0769C215.634 97.7998 216.323 97.6059 217.028 97.4997C217.848 97.3822 218.683 97.4205 219.49 97.6125C220.272 97.8094 221.016 98.1384 221.691 98.5859C222.298 98.9858 222.853 99.4601 223.345 99.998C224.206 100.955 224.929 102.03 225.491 103.193C226.021 104.259 226.464 105.368 226.817 106.507C227.495 108.721 227.953 110.999 228.183 113.305C228.419 115.558 228.489 117.824 228.393 120.087C228.305 122.275 228.068 124.454 227.684 126.609C227.315 128.695 226.793 130.75 226.123 132.758C225.801 133.748 225.395 134.7 225.02 135.643C224.81 136.108 224.599 136.566 224.389 137.022C224.279 137.247 224.178 137.477 224.065 137.697C223.951 137.916 223.831 138.135 223.715 138.355L223.366 139.007L223.191 139.33L223.004 139.646L222.259 140.877C222 141.281 221.729 141.671 221.466 142.065C221.331 142.259 221.205 142.457 221.066 142.644C220.927 142.832 220.786 143.019 220.645 143.205L220.224 143.758L220.014 144.033L219.803 144.297L218.938 145.341C218.646 145.682 218.341 146.003 218.048 146.329C217.899 146.491 217.754 146.655 217.604 146.813L217.145 147.273C214.912 149.526 212.443 151.526 209.78 153.236C207.616 154.624 205.349 155.84 203 156.874C201.246 157.653 199.449 158.33 197.619 158.902C196.119 159.37 194.938 159.664 194.138 159.845C193.339 160.026 192.907 160.09 192.907 160.09Z" fill="black"/>
<path d="M107.52 143.347C67.291 149.125 56.8933 155.196 56.645 160.196C56.3083 167.159 75.4181 176.875 93.139 174.635C105.201 173.108 113.518 166.435 117.226 163.004" fill="#0D3E66"/>
<path d="M117.632 163.447L117.409 163.687C117.26 163.843 117.045 164.086 116.746 164.386C116.159 164.995 115.273 165.877 114.055 166.942C112.57 168.239 111.001 169.434 109.358 170.518C107.161 171.973 104.837 173.219 102.413 174.241C99.4423 175.494 96.3337 176.383 93.1539 176.888C89.4893 177.449 85.7711 177.557 82.0807 177.21C78.0043 176.837 73.9865 175.972 70.1132 174.633C68.0433 173.92 66.0288 173.052 64.0863 172.036C63.0758 171.506 62.0925 170.925 61.1402 170.294C60.1368 169.64 59.1798 168.915 58.2761 168.126C57.3045 167.281 56.4349 166.323 55.6856 165.272C55.273 164.683 54.9205 164.054 54.6334 163.393C54.3047 162.643 54.0986 161.843 54.0232 161.025C53.949 160.133 54.0535 159.234 54.3304 158.384C54.4041 158.184 54.4819 157.986 54.5619 157.792C54.6419 157.598 54.7429 157.428 54.8334 157.247C55.0177 156.91 55.2244 156.586 55.452 156.278C55.5615 156.126 55.6772 156.001 55.7908 155.862C55.9045 155.724 56.016 155.583 56.136 155.468L56.4895 155.112C56.6073 154.995 56.7252 154.876 56.8451 154.776C57.0871 154.576 57.327 154.35 57.569 154.175C57.811 154.001 58.0551 153.807 58.2993 153.641C60.2521 152.322 62.2008 151.466 64.1115 150.727C66.0223 149.988 67.8994 149.419 69.7407 148.912C73.417 147.922 76.925 147.209 80.2163 146.655C83.5075 146.101 86.5778 145.677 89.385 145.351C94.9974 144.691 99.5533 144.369 102.701 144.182C104.276 144.08 105.5 144.033 106.329 143.992L107.592 143.939L106.359 144.229L102.828 145.04C99.7617 145.743 95.3235 146.744 89.888 148.084C87.1712 148.748 84.2062 149.498 81.0496 150.363C77.893 151.228 74.5534 152.207 71.1359 153.389C69.4356 153.99 67.7142 154.64 66.037 155.387C65.1953 155.754 64.3767 156.163 63.577 156.584C62.8089 156.999 62.0674 157.462 61.3569 157.971C60.7687 158.393 60.2447 158.901 59.8018 159.477C59.6714 159.661 59.5653 159.861 59.4861 160.073C59.4666 160.143 59.4533 160.214 59.4461 160.286C59.4408 160.318 59.4408 160.35 59.4461 160.382C59.4431 160.419 59.4431 160.456 59.4461 160.493C59.4609 160.808 59.705 161.413 60.1448 162.032C60.6511 162.723 61.232 163.353 61.8767 163.913C63.328 165.166 64.9083 166.257 66.5905 167.168C68.289 168.101 70.0464 168.921 71.8514 169.621C75.3193 170.971 78.9159 171.954 82.5837 172.554C85.921 173.108 89.3074 173.297 92.6847 173.118C95.6571 172.944 98.6021 172.444 101.468 171.627C103.872 170.944 106.217 170.064 108.48 168.995C110.214 168.18 111.901 167.264 113.531 166.252C114.875 165.4 115.898 164.705 116.582 164.213L117.632 163.447Z" fill="black" stroke="black" stroke-width="0.86" stroke-miterlimit="10"/>
<path d="M121.627 145.23C118.178 142.065 111.233 134.73 109.255 123.454C107.001 110.726 111.162 93.3741 123.014 88.1154C127.024 86.337 130.995 86.3498 133.883 86.7118C133.883 86.7118 144.287 86.009 153.072 106.136C153.072 106.136 158.624 78.2861 174.808 84.6054C190.993 90.9247 192.845 116.666 192.845 120.413C192.845 124.159 190.063 136.325 185.907 140.544C187.393 143.684 203.163 178.243 185.831 202.796C183.384 206.259 179.728 210.312 174.173 213.969C174.173 213.969 147.757 219.46 138.506 216.821C130.903 214.653 123.232 214.219 118.479 207.752C114.36 202.151 114.373 195.537 114.613 192.343C114.613 192.343 114.767 174.401 119.243 162.855C123.719 151.309 121.627 145.23 121.627 145.23Z" fill="#BAEAFF" stroke="black" stroke-width="2" stroke-linejoin="round"/>
<path d="M143.207 115.81C143.207 115.81 153.46 98.5581 165.092 107.93C176.725 117.301 143.207 115.81 143.207 115.81Z" fill="#FA8510" stroke="black" stroke-miterlimit="10"/>
<path d="M143.207 117.448C143.207 117.448 152.256 134.101 159.24 127.043C166.225 119.985 160.503 115.116 160.503 115.116C160.503 115.116 158.077 123.61 143.207 117.448Z" fill="#FA8510" stroke="black" stroke-miterlimit="10"/>
<path d="M144.367 117.906C144.367 117.906 156.606 122.3 160.15 115.895L159.373 115.109L143.199 115.81L144.367 117.906Z" fill="#EA0738" stroke="black" stroke-miterlimit="10"/>
<path d="M131.626 117.243C133.829 117.243 135.614 114.535 135.614 111.195C135.614 107.854 133.829 105.146 131.626 105.146C129.424 105.146 127.639 107.854 127.639 111.195C127.639 114.535 129.424 117.243 131.626 117.243Z" fill="black" stroke="black" stroke-width="7.09" stroke-miterlimit="10"/>
<path d="M175.093 114.532C177.296 114.532 179.081 111.824 179.081 108.483C179.081 105.143 177.296 102.435 175.093 102.435C172.891 102.435 171.105 105.143 171.105 108.483C171.105 111.824 172.891 114.532 175.093 114.532Z" fill="black" stroke="black" stroke-width="7.09" stroke-miterlimit="10"/>
<path d="M122.866 133.181C126.395 133.181 129.257 130.285 129.257 126.713C129.257 123.14 126.395 120.244 122.866 120.244C119.336 120.244 116.475 123.14 116.475 126.713C116.475 130.285 119.336 133.181 122.866 133.181Z" fill="#F4A127" stroke="black" stroke-miterlimit="10"/>
<path d="M184.071 128.417C187.6 128.417 190.462 125.521 190.462 121.948C190.462 118.376 187.6 115.48 184.071 115.48C180.541 115.48 177.68 118.376 177.68 121.948C177.68 125.521 180.541 128.417 184.071 128.417Z" fill="#F4A127" stroke="black" stroke-miterlimit="10"/>
<path d="M97.0503 188.319C97.0503 188.319 89.8281 184.417 89.8281 189.45C89.8281 194.483 102.015 203.311 104.649 203.311C104.656 203.311 97.0503 193.391 97.0503 188.319Z" fill="#0D3E66" stroke="black" stroke-width="5" stroke-miterlimit="10"/>
<path d="M118.016 213.416C118.016 213.416 106.682 217.818 108.662 222.883C110.642 227.948 115.211 223.326 115.211 223.326C115.211 223.326 112.494 226.308 114.344 228.182C116.193 230.056 126.366 232.716 137.119 216.874C137.119 216.874 120.495 214.836 118.016 213.416Z" fill="#FA8510" stroke="black" stroke-width="1.75" stroke-miterlimit="10"/>
<path d="M162.207 216.874C162.207 216.874 169.606 223.032 172.38 223.735C175.153 224.438 178.045 225.958 179.324 223.735C180.603 221.511 187.03 223.85 189.959 220.887C192.889 217.924 191.723 214.683 187.531 212.033C183.339 209.384 182.965 209.765 182.965 209.765C182.965 209.765 167.988 216.874 162.207 216.874Z" fill="#FA8510" stroke="black" stroke-width="1.75" stroke-miterlimit="10"/>
<defs>
<linearGradient id="paint0_linear_679_3021" x1="16" y1="235" x2="293" y2="235" gradientUnits="userSpaceOnUse">
<stop stop-color="#1F8BF7"/>
<stop offset="1" stop-color="#DC33FC"/>
</linearGradient>
<linearGradient id="paint1_linear_679_3021" x1="350" y1="1.59876e-05" x2="-1.04308e-05" y2="308" gradientUnits="userSpaceOnUse">
<stop stop-color="#1F8BF7"/>
<stop offset="1" stop-color="#DC33FC"/>
</linearGradient>
</defs>
</svg>
