<svg width="603" height="310" viewBox="0 0 603 310" fill="none" xmlns="http://www.w3.org/2000/svg">
<rect y="217" width="603" height="93" rx="46.5" fill="url(#paint0_linear_697_3021)"/>
<path d="M302.168 285.877C273.888 285.877 247.307 283.809 227.314 280.051C207.762 276.38 196.549 271.367 196.549 266.295C196.549 261.224 207.762 256.215 227.314 252.54C247.307 248.786 273.888 246.718 302.168 246.718C330.448 246.718 357.028 248.786 377.021 252.54C396.573 256.215 407.786 261.228 407.786 266.295C407.786 271.363 396.573 276.38 377.021 280.051C357.028 283.821 330.448 285.877 302.168 285.877Z" fill="#090110"/>
<path d="M302.167 247.052C330.427 247.052 356.988 249.115 376.961 252.87C386.641 254.687 394.23 256.798 399.523 259.148C404.72 261.458 407.464 263.934 407.464 266.291C407.464 268.649 404.716 271.145 399.523 273.435C394.23 275.784 386.641 277.896 376.961 279.713C356.988 283.464 330.427 285.531 302.167 285.531C273.907 285.531 247.346 283.495 227.373 279.749C217.693 277.931 210.104 275.82 204.811 273.471C199.614 271.161 196.87 268.684 196.87 266.327C196.87 263.97 199.614 261.477 204.811 259.184C210.104 256.834 217.693 254.723 227.373 252.905C247.346 249.151 273.907 247.087 302.167 247.087M302.167 246.444C243.658 246.444 196.227 255.354 196.227 266.343C196.227 277.332 243.658 286.242 302.167 286.242C360.676 286.242 408.107 277.336 408.107 266.343C408.107 255.35 360.676 246.444 302.167 246.444Z" fill="#090110"/>
<path d="M232.134 159.345C232.134 159.345 210.453 150.614 214.9 123.627C214.9 123.627 205.37 -5.27378 315.917 15.0456C315.917 15.0456 312.82 2.98096 314.885 2.98096C316.949 2.98096 322.826 12.0294 322.826 12.0294C322.826 12.0294 324.494 15.2837 326.082 12.0294C327.671 8.77515 327.671 5.04464 327.671 5.04464C327.671 5.04464 328.782 1.63163 330.371 6.55272C331.327 9.42423 331.437 12.51 330.688 15.4424L330.371 17.3474C330.371 17.3474 336.883 11.5532 339.265 12.9025C341.648 14.2519 339.583 16.3155 339.583 16.3155L336.168 20.9191C345.892 25.1497 359.874 33.1941 370.793 48.1439C385.831 68.7371 385.962 89.9811 386.097 111.721C386.168 123.361 384.699 132.457 379.743 141.16C377.4 145.246 374.471 148.966 371.047 152.201C371.047 152.201 409 189.717 400.205 236.586C399.638 239.613 398.891 242.604 397.969 245.543L400.709 237.09C400.709 237.09 416.076 233.34 410.954 245.186C405.831 257.032 387.844 267.688 381.173 270.724C379.668 271.411 377.829 272.371 375.217 273.411C347.914 284.221 305.045 279.288 301.809 278.88C263.38 274.046 244.165 271.629 232.558 259.989C215.992 243.384 214.666 220.775 214.293 214.429C212.558 185.296 227.853 164.73 232.134 159.345Z" fill="#0D3E66" stroke="black" stroke-width="5" stroke-miterlimit="10"/>
<path d="M308.255 279.527L337.551 280.166C337.551 280.166 371.493 264.116 361.487 225.66C351.48 187.205 346.644 172.203 335.959 163.988C340.994 161.357 345.687 158.119 349.932 154.344C352.922 151.681 358.842 146.407 362.678 139.105C369.651 125.81 366.649 111.61 365.18 106.165C365.18 106.165 364.703 75.6465 341.831 63.5025C338.889 61.9429 331.388 57.9782 322.041 59.2799C309.029 61.0896 301.361 71.8684 295.461 80.1628C286.479 92.7949 283.286 105.836 282.099 114.876C282.099 114.876 278.577 72.551 261.9 61.7167C245.222 50.8823 226.464 64.705 218.221 81.3693C218.221 81.3693 213.488 109.943 214.707 118.623L214.504 126.536C214.504 126.536 214.29 133.457 214.584 135.315C214.878 137.172 217.558 145.59 218.757 147.407C219.956 149.225 225.079 154.805 225.079 154.805L232.127 159.345C232.127 159.345 208.64 188.621 214.782 220.656C220.925 252.691 231.495 258.929 231.495 258.929C234.229 261.602 237.252 263.962 240.509 265.966C249.09 271.236 257.043 272.589 262.686 273.506C280.713 276.379 296.437 278.28 308.255 279.527Z" fill="#BAEAFF" stroke="black" stroke-width="3" stroke-linejoin="round"/>
<path d="M202.115 182.204C202.115 182.204 196.397 169.596 209.977 168.405C223.557 167.214 316.235 171.977 316.235 171.977C316.235 171.977 327.353 171.421 330.689 181.581C334.024 191.74 345.857 236.268 345.857 236.268C345.857 236.268 351.575 249.92 337.439 252.857C323.303 255.794 252.067 247.619 252.067 247.619C252.067 247.619 222.763 252.619 217.998 236.745L213.233 220.87L202.115 182.204Z" fill="#424242" stroke="black" stroke-miterlimit="10"/>
<path d="M356.102 176.013C348.185 185.2 338.59 192.796 327.83 198.396C326.611 199.122 324.074 200.876 323.435 203.793C322.529 207.937 326.071 211.635 327.83 213.477C334.946 220.918 348.28 224.466 360.498 221.414C373.236 218.239 380.443 208.996 382.786 205.678" fill="#0D3E66"/>
<path d="M383.138 205.948C383.138 205.948 382.928 206.305 382.491 206.968C382.054 207.631 381.391 208.595 380.458 209.79C377.791 213.18 374.595 216.117 370.992 218.489C368.462 220.144 365.735 221.477 362.875 222.458C359.569 223.577 356.119 224.221 352.631 224.371L351.241 224.426L349.831 224.398C348.886 224.398 347.937 224.303 346.972 224.224C346.488 224.196 346.008 224.117 345.523 224.049L344.066 223.835L342.609 223.529L341.874 223.375C341.628 223.319 341.39 223.248 341.143 223.18L339.678 222.783C339.19 222.636 338.709 222.458 338.221 222.295C337.24 221.985 336.295 221.537 335.326 221.14C333.384 220.238 331.535 219.147 329.807 217.882C328.098 216.582 326.535 215.101 325.145 213.465C323.779 211.854 322.493 210.012 321.849 207.758C321.519 206.607 321.427 205.401 321.579 204.214C321.738 203.049 322.144 201.931 322.771 200.936C323.359 200.024 324.085 199.209 324.923 198.519C325.695 197.873 326.543 197.323 327.448 196.88C333.008 194.203 338.323 191.044 343.331 187.439C346.731 184.984 349.984 182.334 353.076 179.501C354.175 178.493 355.017 177.692 355.581 177.144L356.443 176.307C356.443 176.307 356.189 176.632 355.712 177.259C355.236 177.886 354.521 178.791 353.536 179.934C350.786 183.172 347.8 186.201 344.602 188.998C342.386 190.937 340.075 192.763 337.677 194.471C336.378 195.392 335.016 196.312 333.579 197.217C332.864 197.666 332.13 198.118 331.379 198.559L330.24 199.221L329.1 199.86C327.803 200.549 326.708 201.564 325.923 202.805C325.586 203.378 325.375 204.017 325.307 204.679C325.238 205.34 325.313 206.009 325.526 206.639C325.951 208.032 326.924 209.461 328.119 210.818C329.339 212.217 330.697 213.49 332.173 214.616C333.679 215.718 335.282 216.683 336.962 217.497C337.82 217.858 338.646 218.291 339.519 218.569C339.948 218.727 340.373 218.898 340.81 219.041L342.116 219.438C342.335 219.501 342.545 219.577 342.767 219.632L343.423 219.795L344.733 220.116L346.047 220.358C346.484 220.438 346.917 220.529 347.354 220.573C348.227 220.68 349.089 220.811 349.951 220.85L351.233 220.942H352.508C358.573 221.021 364.561 219.579 369.924 216.747C372.015 215.643 374.008 214.362 375.88 212.917C377.312 211.819 378.673 210.633 379.958 209.365C381.018 208.314 381.808 207.456 382.34 206.857C382.872 206.258 383.138 205.948 383.138 205.948Z" fill="black" stroke="black" stroke-width="0.33" stroke-miterlimit="10"/>
<path d="M215.694 183.633C215.694 183.633 213.629 180.934 217.918 180.378C222.206 179.823 306.625 184.347 306.625 184.347C306.625 184.347 310.199 183.791 311.152 188.157C312.105 192.522 323.858 236.971 323.858 236.971C323.858 236.971 325.288 240.543 321.317 240.543C317.346 240.543 241.981 235.701 241.981 235.701L235.786 234.907C235.786 234.907 231.418 235.304 230.148 230.78C228.877 226.256 220.856 200.948 220.856 200.948L215.694 183.633Z" fill="#191919" stroke="black" stroke-width="3" stroke-miterlimit="10"/>
<path d="M269.654 106.165C269.654 106.165 280.101 96.7199 289.552 106.165" stroke="black" stroke-width="9" stroke-miterlimit="10"/>
<path d="M347.607 100.339C352.873 99.1207 356.974 97.9579 359.71 97.1324C363.479 95.9934 366.461 94.9576 370.209 95.8188C370.531 95.8942 374.331 96.799 374.367 98.2C374.39 99.0889 372.897 99.8668 371.666 100.339C365.154 102.831 349.172 106.165 349.172 106.165L347.607 100.339Z" fill="black" stroke="black" stroke-width="3.48" stroke-miterlimit="10"/>
<path d="M248.752 127.913C252.206 127.913 255.006 124.368 255.006 119.996C255.006 115.623 252.206 112.078 248.752 112.078C245.298 112.078 242.498 115.623 242.498 119.996C242.498 124.368 245.298 127.913 248.752 127.913Z" fill="black" stroke="black" stroke-width="3.87" stroke-miterlimit="10"/>
<path d="M317.035 128.866C320.489 128.866 323.289 125.321 323.289 120.948C323.289 116.576 320.489 113.031 317.035 113.031C313.581 113.031 310.781 116.576 310.781 120.948C310.781 125.321 313.581 128.866 317.035 128.866Z" fill="black" stroke="black" stroke-width="3.87" stroke-miterlimit="10"/>
<path d="M231.904 146.129C237.994 146.129 242.931 140.927 242.931 134.509C242.931 128.091 237.994 122.889 231.904 122.889C225.814 122.889 220.877 128.091 220.877 134.509C220.877 140.927 225.814 146.129 231.904 146.129Z" fill="#F4A127" stroke="black" stroke-width="2" stroke-miterlimit="10"/>
<path d="M335.972 148.272C342.062 148.272 346.999 143.07 346.999 136.652C346.999 130.234 342.062 125.032 335.972 125.032C329.882 125.032 324.945 130.234 324.945 136.652C324.945 143.07 329.882 148.272 335.972 148.272Z" fill="#F4A127" stroke="black" stroke-width="2" stroke-miterlimit="10"/>
<path d="M290.819 132.993C290.819 132.993 272.951 141.01 265.486 136.089C258.021 131.168 259.7 125.258 262.071 122.889C264.442 120.52 271.045 112.753 278.669 114.182C280.106 114.452 283.144 114.638 285.959 116.821C290.311 120.194 292.11 126.429 290.819 132.993Z" fill="#FA8510" stroke="black" stroke-width="2" stroke-miterlimit="10"/>
<path d="M273.96 141.129C273.96 141.129 283.49 144.7 288.255 138.271L290.562 133.112C290.562 133.112 278.649 138.867 270.442 137.616C270.43 137.616 270.64 139.581 273.96 141.129Z" fill="#FA8510" stroke="black" stroke-width="2" stroke-miterlimit="10"/>
<path d="M248.753 276.618C244.385 280.495 228.562 273.748 220.342 261.735C215.951 255.318 212.496 245.599 215.577 242.845C217.63 241.015 222.756 242.099 225.576 244.531C227.521 246.214 228.927 249.024 228.864 249.079C228.8 249.135 228.733 249.056 228.733 249.056C228.733 249.056 225.337 238.34 230.321 238.638C234.871 238.908 239.108 243.4 239.851 244.234C243.393 248.202 244.89 251.877 247.832 259.088C249.607 263.454 250.012 265.271 250.191 267.025C250.484 269.665 250.981 274.637 248.753 276.618Z" fill="#FA8510" stroke="black" stroke-width="2" stroke-miterlimit="10"/>
<path d="M322.668 284.118C322.668 284.118 310.835 280.784 304.641 267.291C298.446 253.797 301.821 248.122 302.576 247.368C303.33 246.614 305.197 244.114 309.882 246.614C314.568 249.115 314.568 253.484 314.568 253.484C314.62 251.903 314.84 250.332 315.223 248.797C315.378 248.206 316.811 244.828 319.333 244.114C322.712 243.162 326.456 247.539 327.878 249.206C333.278 255.516 333.866 263.064 334.14 267.37C334.537 273.506 334.866 278.744 331.237 281.887C328.41 284.332 324.578 284.288 322.668 284.118Z" fill="#FA8510" stroke="black" stroke-width="2" stroke-miterlimit="10"/>
<path d="M240.845 139.819C256.753 139.819 269.649 125.889 269.649 108.705C269.649 91.5215 256.753 77.5913 240.845 77.5913C224.937 77.5913 212.041 91.5215 212.041 108.705C212.041 125.889 224.937 139.819 240.845 139.819Z" stroke="black" stroke-width="9" stroke-miterlimit="10"/>
<path d="M319.572 141.669C336.151 141.669 349.591 128.041 349.591 111.229C349.591 94.4182 336.151 80.79 319.572 80.79C302.993 80.79 289.553 94.4182 289.553 111.229C289.553 128.041 302.993 141.669 319.572 141.669Z" stroke="black" stroke-width="9" stroke-miterlimit="10"/>
<path d="M578.877 241.043C578.877 241.043 506.86 246.279 495.625 241L458 254.295C458 254.295 502.25 279.409 524.987 272.317C547.724 265.224 578.877 241.043 578.877 241.043Z" fill="#FDCB93" stroke="#090110" stroke-width="3.26" stroke-miterlimit="10"/>
<path d="M145.065 299.125C138.693 298.416 132.287 297.549 126.015 296.55C118.185 295.298 112.146 294.06 100.115 291.594C98.3054 291.223 98.1578 291.185 97.8101 291.118C97.4625 291.052 96.7147 290.833 93.0141 290.019L92.033 289.8C88.2229 288.962 86.7941 288.648 84.889 287.791C79.8977 285.53 79.3024 284.221 79.3929 283.645C79.5357 282.722 81.8171 281.665 85.8939 281.432C87.3227 281.551 137.045 285.692 144.279 288.886H144.322L146.575 289.329C148.185 290.566 151.99 294.089 151.338 296.431C150.909 297.878 148.761 298.811 145.065 299.125Z" fill="#090110"/>
<path d="M85.8946 281.798C87.7997 281.956 136.989 286.083 144.133 289.219L144.209 289.253H144.294L146.414 289.672C147.924 290.847 151.553 294.222 150.953 296.307C150.581 297.583 148.571 298.416 145.066 298.721C138.717 298.011 132.331 297.15 126.077 296.15C118.252 294.903 112.218 293.665 100.197 291.2C98.3918 290.828 98.2489 290.795 97.906 290.724C97.5631 290.652 96.8059 290.443 93.0957 289.624L92.1051 289.405C88.214 288.553 86.9043 288.263 85.0563 287.425C79.7364 285.016 79.7603 283.812 79.7793 283.683C79.8746 283.06 81.8844 282.032 85.8946 281.779M85.8946 281.008C82.1559 281.222 79.2269 282.175 79.0125 283.545C78.7268 285.383 83.4037 287.506 84.7278 288.106C86.809 289.058 88.2902 289.334 92.9243 290.357C99.8921 291.89 96.1486 291.157 100.03 291.952C112.08 294.422 118.128 295.66 125.949 296.912C131.03 297.721 137.493 298.654 145.047 299.492C159.14 298.302 146.733 288.953 146.733 288.953L144.433 288.477C136.984 285.192 85.8946 280.989 85.8946 280.989V281.008Z" fill="#090110"/>
<path d="M163.072 309.583C153.623 309.583 148.784 303.257 148.732 303.19C141.707 293.641 146.965 288.348 147.017 288.296C151.499 284.859 155.885 283.103 160.014 283.103C167.858 283.103 172.707 289.324 174.526 291.671C174.788 292.004 175.002 292.247 175.117 292.394C176.841 294.213 181.165 297.944 185.161 299.015C186.885 299.491 187.271 299.887 187.347 300.091C187.423 300.296 187.271 300.534 187.028 300.886C186.865 301.101 186.738 301.34 186.652 301.595C186.295 302.924 180.846 305.218 170.459 308.412C168.069 309.169 165.579 309.566 163.072 309.588V309.583Z" fill="#090110"/>
<path d="M160.016 283.483C167.674 283.483 172.432 289.6 174.228 291.904C174.495 292.246 174.704 292.494 174.837 292.651C176.59 294.503 180.986 298.287 185.063 299.382C186.611 299.796 186.925 300.134 186.968 300.21C186.896 300.378 186.807 300.538 186.701 300.686C186.51 300.934 186.364 301.212 186.268 301.51C186.087 302.181 183.777 303.923 170.332 308.059C167.979 308.803 165.528 309.193 163.059 309.216C153.82 309.216 149.071 303.028 149.029 302.985C142.423 294.003 146.819 289.062 147.247 288.615C151.677 285.225 155.968 283.502 160.002 283.502M160.002 282.736C156.239 282.736 151.815 284.14 146.738 288.039C146.738 288.039 141.103 293.503 148.409 303.437C148.409 303.437 153.291 309.983 163.059 309.983C165.605 309.963 168.134 309.562 170.561 308.793C185.325 304.251 186.754 302.604 187.011 301.71C187.268 300.815 189.297 299.744 185.249 298.658C181.2 297.573 176.8 293.636 175.38 292.142C174.375 291.08 169.165 282.736 160.002 282.736Z" fill="#090110"/>
<path d="M165.217 306.251C163.452 306.255 161.692 306.046 159.978 305.627C158.035 305.151 153.486 304.023 150.71 300.153C149.281 298.139 148.057 295.026 148.614 292.618C148.677 292.353 148.768 292.096 148.886 291.851C150.186 288.948 153.601 287.958 154.882 287.567C156.063 287.241 157.285 287.081 158.511 287.091C161.305 287.147 164.048 287.857 166.517 289.167C168.47 290.223 169.375 291.199 170.641 292.556C172.155 294.228 173.816 295.76 175.604 297.135C177.476 298.581 179.451 299.887 181.515 301.043C178.243 303.128 172.17 306.251 165.217 306.251Z" fill="#090110"/>
<path d="M158.53 286.696V287.468C161.261 287.521 163.942 288.215 166.355 289.495C168.26 290.523 169.141 291.48 170.379 292.827C171.906 294.515 173.581 296.062 175.385 297.449C177.099 298.776 178.902 299.985 180.781 301.067C177.447 303.123 171.732 305.889 165.217 305.889C163.49 305.891 161.769 305.685 160.092 305.275C158.187 304.799 153.734 303.704 151.043 299.948C149.652 298.006 148.48 295.017 149.014 292.723C149.072 292.484 149.153 292.251 149.257 292.028V291.985C150.462 289.286 153.753 288.329 154.972 287.972C156.117 287.648 157.302 287.488 158.492 287.496V286.696M158.492 286.696C157.229 286.692 155.971 286.866 154.758 287.215C153.481 287.586 149.885 288.643 148.533 291.652C148.398 291.933 148.295 292.228 148.223 292.532C147.628 295.103 148.885 298.301 150.376 300.377C153.234 304.366 157.872 305.508 159.868 305.999C161.606 306.426 163.389 306.64 165.178 306.636C173.313 306.636 180.133 302.405 182.243 301.005C179.991 299.787 177.843 298.388 175.818 296.821C170.546 292.737 170.465 290.866 166.683 288.819C164.158 287.478 161.351 286.75 158.492 286.696Z" fill="#090110"/>
<path d="M87.8658 277C87.8658 277 135.936 280.951 142.946 284.045L145.108 284.469C145.108 284.469 156.782 293.27 143.522 294.389C136.412 293.598 130.335 292.723 125.553 291.961C118.175 290.78 112.503 289.619 101.168 287.296C97.515 286.549 101.035 287.234 94.5002 285.792C90.1424 284.84 88.7469 284.559 86.7895 283.674C85.5464 283.112 81.1409 281.113 81.4124 279.39C81.6077 278.095 84.3462 277.195 87.8658 277Z" fill="#F25814" stroke="black" stroke-width="1.58" stroke-miterlimit="10"/>
<path d="M146.689 298.068C146.689 298.068 153.628 307.379 167.53 303.105C181.432 298.83 182.771 297.264 183.009 296.44C183.247 295.617 185.162 294.589 181.351 293.584C177.541 292.58 173.398 288.858 172.064 287.453C170.731 286.049 161.52 270.998 145.112 283.588C145.112 283.574 139.811 288.72 146.689 298.068Z" fill="#A38472" stroke="#090110" stroke-width="2.37" stroke-miterlimit="10"/>
<path d="M146.827 286.991C148.098 284.135 151.48 283.183 152.68 282.817C158.066 281.26 163.158 283.916 163.901 284.325C167.463 286.258 167.539 288.015 172.502 291.856C174.404 293.331 176.424 294.648 178.541 295.793C176.16 297.387 167.225 302.899 157.49 300.495C155.614 300.019 151.251 298.953 148.56 295.202C147.16 293.251 145.974 290.237 146.531 287.819C146.599 287.533 146.698 287.256 146.827 286.991Z" fill="#C4AEA3"/>
<path d="M151.571 288.505C152.428 286.601 154.695 285.934 155.505 285.701C159.12 284.654 162.525 286.439 163.034 286.715C165.416 288.01 165.478 289.19 168.807 291.77C170.085 292.76 171.442 293.644 172.865 294.412C171.25 295.483 165.268 299.172 158.734 297.568C157.472 297.259 154.543 296.535 152.738 294.017C151.785 292.703 150.999 290.685 151.375 289.062C151.422 288.87 151.487 288.684 151.571 288.505Z" fill="#EAD7CE"/>
<path d="M82.3656 278.775C92.0973 279.972 101.94 281.255 111.894 282.626C122.337 284.067 132.624 285.573 142.756 287.144C142.531 288.186 142.498 289.26 142.656 290.314L82.0846 280.113C81.9374 280.038 81.8235 279.911 81.7655 279.756C81.7292 279.632 81.7292 279.5 81.7655 279.375C81.8094 279.184 81.921 279.015 82.0798 278.899C82.1654 278.838 82.2627 278.796 82.3656 278.775Z" fill="#C13600"/>
<path d="M109.269 213.029C109.269 213.029 101.42 212.996 103.287 217.789C105.154 222.583 121.952 262.924 121.952 262.924C121.952 262.924 125.286 266.856 134.221 265.124C143.155 263.391 188.491 253.166 188.491 253.166C188.491 253.166 194.206 251.067 189.734 242.066" fill="#666565"/>
<path d="M109.269 213.029C109.269 213.029 101.42 212.996 103.287 217.789C105.154 222.583 121.952 262.924 121.952 262.924C121.952 262.924 125.286 266.856 134.221 265.124C143.155 263.391 188.491 253.166 188.491 253.166C188.491 253.166 194.206 251.067 189.734 242.066" stroke="#090110" stroke-width="1.13" stroke-miterlimit="10"/>
<path d="M111.508 237.82L105.793 253.529C105.793 253.529 104.793 256.327 106.793 256.727C108.793 257.127 119.524 256.061 119.524 256.061L111.508 237.82Z" fill="#1E1E1E" stroke="#090110" stroke-width="1.13" stroke-miterlimit="10"/>
<path d="M107.82 213.263L127.285 258.841C127.285 258.841 127.152 263.372 136.22 262.039C145.288 260.706 188.49 249.511 188.49 249.511C188.49 249.511 191.291 248.844 188.49 240.981C185.69 233.117 171.821 203 171.821 203L107.82 213.263Z" fill="#1E1E1E" stroke="#090110" stroke-width="1.13" stroke-miterlimit="10"/>
<path d="M120.082 217.809L134.332 251.167C134.332 251.167 134.237 254.499 140.871 253.509C147.505 252.519 179.139 244.361 179.139 244.361C179.139 244.361 181.187 243.885 179.139 238.115C177.091 232.346 166.937 210.316 166.937 210.316L120.082 217.809Z" fill="#739BFF" stroke="#090110" stroke-width="0.83" stroke-miterlimit="10"/>
<path d="M119.765 227.933C120.722 227.933 121.498 227.157 121.498 226.2C121.498 225.243 120.722 224.468 119.765 224.468C118.807 224.468 118.031 225.243 118.031 226.2C118.031 227.157 118.807 227.933 119.765 227.933Z" fill="#739BFF" stroke="#090110" stroke-width="0.83" stroke-miterlimit="10"/>
<path d="M121.499 231.994C122.457 231.994 123.233 231.218 123.233 230.261C123.233 229.304 122.457 228.528 121.499 228.528C120.542 228.528 119.766 229.304 119.766 230.261C119.766 231.218 120.542 231.994 121.499 231.994Z" fill="#739BFF" stroke="#090110" stroke-width="0.83" stroke-miterlimit="10"/>
<path d="M127.301 244.441C128.181 244.065 127.969 241.593 126.826 238.919C125.683 236.245 124.043 234.382 123.163 234.758C122.282 235.134 122.495 237.607 123.638 240.28C124.78 242.954 126.42 244.817 127.301 244.441Z" fill="#739BFF" stroke="#090110" stroke-width="0.83" stroke-miterlimit="10"/>
<defs>
<linearGradient id="paint0_linear_697_3021" x1="0" y1="263.5" x2="603" y2="263.5" gradientUnits="userSpaceOnUse">
<stop stop-color="#1F8BF7"/>
<stop offset="1" stop-color="#DC33FC"/>
</linearGradient>
</defs>
</svg>
