<svg width="603" height="310" viewBox="0 0 603 310" fill="none" xmlns="http://www.w3.org/2000/svg">
<rect y="217" width="603" height="93" rx="46.5" fill="url(#paint0_linear_391_5338)"/>
<path d="M468.279 231.161C468.279 231.161 441.912 221.943 442.877 215.66C442.943 215.084 443.182 214.542 443.562 214.105C445.822 211.653 452.962 214.225 457.602 217.043C458.211 217.416 458.629 217.728 458.77 217.8C461.393 219.601 465.786 223.381 470.231 231.565L468.279 231.161Z" fill="#D6B97F" stroke="#090110" stroke-width="0.72" stroke-miterlimit="10"/>
<path d="M454.219 196.99C454.219 196.99 454.359 188.584 459.8 194.251C464.731 199.387 468.453 205.866 471.2 213.996C471.309 214.314 471.385 214.547 471.542 215.023C474.809 224.977 476.408 229.994 474.734 231.86C474.175 232.483 473.021 233.165 470.388 232.887C470.388 232.887 466.769 227.573 463.029 221.755C461.03 218.646 456.749 213.91 455.126 208.154C454.945 207.51 454.811 206.931 454.811 206.931C454.811 206.931 454.126 204.003 454.222 197.001L454.219 196.99Z" fill="#B59968" stroke="#090110" stroke-width="0.72" stroke-miterlimit="10"/>
<path d="M475.102 196.069C475.787 194.898 479.078 189.402 482.033 190.008C483.006 190.207 483.673 190.922 484.266 191.97C486.509 195.943 486.529 200.593 485.94 205.325C485.427 209.434 485.088 209.284 482.386 220.519C480.674 227.71 479.766 232.062 477.308 232.504C476.768 232.582 476.217 232.497 475.726 232.261C469.264 229.552 471.428 209.76 471.658 207.633C472.137 203.288 472.952 199.675 475.102 196.069Z" fill="#D6B97F" stroke="#090110" stroke-width="0.72" stroke-miterlimit="10"/>
<path d="M481.246 232.319C481.246 232.319 494.666 224.374 497.066 216.968C499.466 209.561 498.312 209.092 496.724 209.068C495.135 209.044 488.101 209.866 486.026 212.537C483.951 215.208 474.431 228.514 479.256 232.264C479.541 232.479 479.885 232.6 480.242 232.61C480.599 232.62 480.95 232.518 481.246 232.319Z" fill="#B29769" stroke="#090110" stroke-width="0.72" stroke-miterlimit="10"/>
<path d="M488.275 249.81C480.405 251.62 472.299 252.183 464.254 251.478C461.286 243.339 460.477 238.868 461.826 238.065C461.976 237.989 462.141 237.944 462.309 237.933C462.477 237.922 462.646 237.944 462.805 238L489.039 236.89C488.785 241.196 488.531 245.502 488.275 249.81Z" fill="#EA9B65" stroke="#090110" stroke-width="2.16" stroke-miterlimit="10"/>
<path d="M491.006 237.397L459.907 238.284C459.657 238.286 459.415 238.197 459.226 238.034C459.037 237.871 458.914 237.644 458.88 237.397L457.938 230.346C457.92 230.204 457.932 230.059 457.973 229.922C458.014 229.784 458.083 229.657 458.176 229.548C458.269 229.439 458.384 229.351 458.514 229.289C458.643 229.227 458.784 229.193 458.928 229.189L490.431 228.381C490.693 228.375 490.948 228.469 491.143 228.645C491.338 228.821 491.458 229.064 491.479 229.326L492.006 236.298C492.016 236.436 491.998 236.575 491.952 236.706C491.907 236.838 491.835 236.958 491.741 237.061C491.648 237.164 491.535 237.247 491.408 237.304C491.282 237.362 491.145 237.393 491.006 237.397Z" fill="#EA9B65" stroke="#090110" stroke-width="2.16" stroke-miterlimit="10"/>
<path d="M468.214 222.095C468.214 222.095 467.796 220.913 467.207 219.013C466.618 217.112 465.745 214.489 464.704 211.65C463.663 208.811 462.601 206.287 461.595 204.568C461.21 203.876 460.766 203.22 460.266 202.606C460.123 202.438 459.971 202.278 459.81 202.127C459.753 202.07 459.692 202.016 459.629 201.966C459.702 202.001 459.772 202.04 459.841 202.082C460.031 202.2 460.214 202.33 460.389 202.469C461.023 202.985 461.597 203.57 462.101 204.212C463.406 205.808 464.807 208.301 465.868 211.212C466.748 213.698 467.396 216.26 467.806 218.865C468.104 220.851 468.214 222.095 468.214 222.095Z" fill="#D6B97F" stroke="#D6B97F" stroke-width="0.12" stroke-miterlimit="10"/>
<path d="M480.355 226.783C480.355 226.783 480.914 225.67 481.92 223.916C483.265 221.645 484.815 219.502 486.55 217.513C488.605 215.201 490.834 213.403 492.618 212.414C493.311 212.008 494.047 211.681 494.813 211.441C495.018 211.378 495.226 211.327 495.437 211.291C495.58 211.27 495.646 211.267 495.646 211.267L495.454 211.345C495.26 211.427 495.072 211.52 494.889 211.623C494.215 212.004 493.574 212.441 492.974 212.931C491.423 214.143 489.509 216.085 487.495 218.338C485.482 220.591 483.729 222.735 482.438 224.269C481.146 225.803 480.355 226.783 480.355 226.783Z" fill="#D6B97F" stroke="#D6B97F" stroke-width="0.12" stroke-miterlimit="10"/>
<path d="M475.096 224.7C475.096 224.7 476.013 218.224 477.527 210.318C479.04 202.411 480.578 196.038 480.578 196.038C480.578 196.038 479.657 202.514 478.147 210.42C476.637 218.327 475.096 224.7 475.096 224.7Z" fill="#B29769" stroke="#B29769" stroke-width="0.06" stroke-miterlimit="10"/>
<path d="M464.604 227.059C464.604 227.059 460.618 224.912 455.902 221.923C451.187 218.933 447.533 216.262 447.533 216.262C447.533 216.262 451.523 218.409 456.235 221.399C460.947 224.388 464.604 227.059 464.604 227.059Z" fill="#B29769" stroke="#B29769" stroke-width="0.06" stroke-miterlimit="10"/>
<path d="M62.1187 238.109L113.223 251.351L88.2392 264.23L42.0078 250.19L62.1187 238.109Z" fill="#090110" stroke="#090110" stroke-width="0.73" stroke-miterlimit="10"/>
<path d="M43.0721 247.047C43.0721 247.047 40.3978 249.29 43.4967 250.163C46.5957 251.036 85.1567 260.915 85.1567 260.915C85.1567 260.915 86.2217 262.466 89.5159 260.915L107.535 252.426C107.535 252.426 109.247 249.221 106.85 250.331C104.453 251.44 87.5914 258.892 87.5914 258.892L43.0721 247.047Z" fill="#473B3F" stroke="#090110" stroke-width="1.41" stroke-miterlimit="10"/>
<path d="M86.975 259.429L43.1166 247.735C43.0441 247.714 42.9798 247.672 42.9328 247.613C42.8857 247.554 42.8582 247.481 42.8541 247.406C42.8499 247.331 42.8694 247.256 42.9097 247.192C42.95 247.128 43.0091 247.079 43.0789 247.05L60.9366 240.034C61.0028 240.006 61.0758 240.001 61.1455 240.017L106.764 249.646C106.839 249.661 106.907 249.7 106.958 249.756C107.01 249.813 107.042 249.884 107.051 249.96C107.06 250.036 107.044 250.112 107.007 250.179C106.97 250.246 106.912 250.299 106.843 250.331L87.2181 259.409C87.1417 259.442 87.0561 259.45 86.975 259.429Z" fill="#6B6868" stroke="#090110" stroke-width="1.41" stroke-miterlimit="10"/>
<path d="M63.1835 243.493L58.8242 242.363L61.1015 241.202L65.0258 242.071L63.1835 243.493Z" fill="#473B3F"/>
<path d="M74.8593 253.954L70.4863 252.827L72.7636 251.663L76.688 252.536L74.8593 253.954Z" fill="#473B3F"/>
<path d="M77.3774 251.095L73.0078 249.965L75.2851 248.804L79.2094 249.674L77.3774 251.095Z" fill="#473B3F"/>
<path d="M59.4535 245.687L55.084 244.557L57.3612 243.396L61.2822 244.266L59.4535 245.687Z" fill="#473B3F"/>
<path d="M80.4785 247.773L76.1055 246.643L78.3827 245.479L82.3071 246.352L80.4785 247.773Z" fill="#473B3F"/>
<path d="M89.0507 249.547L84.6777 248.417L86.955 247.256L90.8794 248.126L89.0507 249.547Z" fill="#473B3F"/>
<path d="M95.9262 251.837L91.5566 250.707L93.8339 249.546L97.7583 250.409L95.9262 251.837Z" fill="#473B3F"/>
<path d="M90.985 254.324L83.6602 252.002C84.0334 251.584 84.4033 251.163 84.7765 250.742L92.8171 252.906L90.985 254.324Z" fill="#473B3F"/>
<path d="M73.2365 246.331L65.9082 244.009C66.2815 243.591 66.6513 243.17 67.0246 242.749L75.0651 244.93L73.2365 246.331Z" fill="#473B3F"/>
<path d="M70.8092 248.838L63.4844 246.513C63.8576 246.095 64.2275 245.674 64.5973 245.256L72.6413 247.417L70.8092 248.838Z" fill="#473B3F"/>
<path d="M67.9572 251.981L60.6289 249.66L61.7453 248.399L69.7824 250.564L67.9572 251.981Z" fill="#473B3F"/>
<path d="M86.172 257.165L78.8438 254.861C79.217 254.44 79.5869 254.018 79.9601 253.601L88.0007 255.761L86.172 257.165Z" fill="#473B3F"/>
<path d="M57.8307 248.838L50.5059 246.513L51.6325 245.273L59.6765 247.434L57.8307 248.838Z" fill="#473B3F"/>
<path d="M121.143 247.256L152.373 236.226L73.59 213.869L64.502 234.007L121.143 247.256Z" fill="#090110" stroke="#090110" stroke-width="0.73" stroke-miterlimit="10"/>
<path d="M135.255 220.868L140.433 235.124C140.433 235.124 141.34 237.664 139.525 238.027C137.71 238.39 127.961 237.425 127.961 237.425L135.255 220.868Z" fill="#1E1E1E" stroke="#090110" stroke-width="1.43" stroke-miterlimit="10"/>
<path d="M137.299 198.36C137.299 198.36 141.973 198.34 142.853 200.648C143.066 201.324 143.023 202.055 142.733 202.702C132.618 229.285 129.827 233.863 124.242 242.989C123.821 243.705 123.248 244.32 122.564 244.79C121.674 245.389 120.719 245.633 119.462 245.773C117.861 245.966 116.24 245.936 114.647 245.684C111.603 245.088 92.1052 240.845 65.3682 234.819C64.6297 234.308 64.0646 233.584 63.7485 232.743C63.6047 232.336 63.4506 231.679 63.7485 229.747C63.9507 228.453 64.2646 227.179 64.6868 225.939" fill="#666565"/>
<path d="M137.299 198.36C137.299 198.36 141.973 198.34 142.853 200.648C143.066 201.324 143.023 202.055 142.733 202.702C132.618 229.285 129.827 233.863 124.242 242.989C123.821 243.705 123.248 244.32 122.564 244.79C121.674 245.389 120.719 245.633 119.462 245.773C117.861 245.966 116.24 245.936 114.647 245.684C111.603 245.088 92.1052 240.845 65.3682 234.819C64.6297 234.308 64.0646 233.584 63.7485 232.743C63.6047 232.336 63.4506 231.679 63.7485 229.747C63.9507 228.453 64.2646 227.179 64.6868 225.939" stroke="#090110" stroke-width="1.43" stroke-miterlimit="10"/>
<path d="M138.611 198.559L118.489 242.249L65.4641 230.302C64.9813 230.302 64.1903 230.251 63.7519 229.72C62.6048 228.35 64.7108 224.861 65.3648 223.741C71.7237 212.91 80.5002 189.234 80.5002 189.234L138.611 198.559Z" fill="#1E1E1E" stroke="#090110" stroke-width="1.43" stroke-miterlimit="10"/>
<path d="M133.022 202.397C127.543 213.812 122.053 225.226 116.551 236.64L69.3711 225.754C74.0555 215.096 78.7354 204.436 83.4107 193.775L133.022 202.397Z" fill="#739BFF" stroke="#090110" stroke-width="1.04" stroke-miterlimit="10"/>
<path d="M307.195 269.62C281.513 269.62 257.355 267.853 239.192 264.648C221.427 261.515 211.236 257.241 211.236 252.92C211.236 248.598 221.427 244.325 239.192 241.191C257.341 237.986 281.503 236.223 307.195 236.223C332.888 236.223 357.036 237.986 375.195 241.191C392.964 244.325 403.151 248.601 403.151 252.92C403.151 257.238 392.964 261.515 375.195 264.648C357.036 267.853 332.884 269.62 307.195 269.62Z" fill="#090110"/>
<path d="M307.195 236.503C332.878 236.503 357.002 238.267 375.147 241.468C383.944 243.019 390.844 244.824 395.652 246.831C400.374 248.8 402.87 250.906 402.87 252.919C402.87 254.933 400.374 257.028 395.652 259.007C390.858 261.014 383.944 262.819 375.147 264.37C356.998 267.572 332.867 269.335 307.195 269.335C281.523 269.335 257.386 267.572 239.24 264.37C230.443 262.819 223.533 261.024 218.739 259.007C214.017 257.039 211.524 254.933 211.524 252.919C211.524 250.906 214.017 248.81 218.739 246.831C223.533 244.824 230.447 243.019 239.244 241.468C257.392 238.267 281.523 236.503 307.199 236.503M307.199 235.938C254.047 235.938 210.959 243.54 210.959 252.919C210.959 262.298 254.047 269.9 307.199 269.9C360.351 269.9 403.422 262.298 403.422 252.919C403.422 243.54 360.33 235.938 307.199 235.938Z" fill="#090110"/>
<path d="M350.46 227.182C350.46 227.182 376.776 229.768 378.344 236.274C379.912 242.78 366.017 242.78 366.017 242.78C366.017 242.78 370.201 260.833 327.894 241.787C285.587 222.741 350.46 227.182 350.46 227.182Z" fill="#FA8510" stroke="black" stroke-width="2.64" stroke-miterlimit="10"/>
<path d="M286.079 241.232C286.079 241.232 312.562 245.246 313.997 251.779C315.432 258.313 301.416 257.539 301.416 257.539C301.416 257.539 305.224 275.643 262.982 254.457C220.74 233.271 286.079 241.232 286.079 241.232Z" fill="#FA8510" stroke="black" stroke-width="2.64" stroke-miterlimit="10"/>
<path d="M376.341 136.493C381.981 134.651 390.675 130.867 397.462 122.796C417.125 99.4596 401.462 63.2476 399.445 58.5837C390.47 37.8428 374.865 26.2241 367.76 21.6013C334.822 0.247425 299.089 8.9965 292.518 10.6025C283.132 12.9002 262.227 18.3243 246.314 37.1956C234.099 51.6906 231.117 66.6822 230.473 70.2743C229.268 77.0236 226.576 93.4568 235.753 110.486C241.708 121.533 250.077 128.042 254.895 131.24C254.895 131.24 248.293 198.045 226.515 212.965C225.261 213.821 222.772 215.612 222.57 218.276C221.597 231.031 274.763 253.015 326.097 247.581C347.283 245.338 375.547 241.903 390.203 220.098C413.303 185.724 376.341 136.493 376.341 136.493Z" fill="#0D3E66" stroke="black" stroke-width="5.69" stroke-miterlimit="10"/>
<path d="M348.369 156.947C355.033 155.574 361.492 153.347 367.586 150.321C384.413 141.866 388.348 131.6 393.09 133.518C399.038 135.915 401.257 155.471 393.936 167.915C393.707 168.308 385.502 180.355 385.502 180.355L348.369 156.947Z" fill="#0D3E66"/>
<path d="M385.066 180.044C385.066 180.044 385.292 179.759 385.727 179.225L386.528 178.235C386.871 177.849 387.192 177.397 387.579 176.866C388.346 175.811 389.257 174.5 390.264 172.948C391.271 171.397 392.349 169.596 393.442 167.541C393.719 167.031 393.969 166.514 394.243 165.956L394.627 165.127C394.688 164.987 394.753 164.846 394.818 164.706C394.883 164.566 394.931 164.432 394.99 164.292C395.45 163.076 395.844 161.836 396.168 160.576C396.51 159.268 396.811 157.899 397.034 156.467C397.164 155.758 397.243 155.029 397.342 154.296C397.441 153.563 397.489 152.814 397.551 152.057C397.653 150.507 397.676 148.952 397.619 147.4C397.619 147.002 397.592 146.605 397.575 146.205L397.472 144.999C397.435 144.599 397.411 144.188 397.363 143.79C397.315 143.393 397.253 143.006 397.178 142.616C396.869 141.03 396.308 139.504 395.517 138.096C395.318 137.753 395.099 137.394 394.873 137.051L394.531 136.545L394.144 136.024C393.714 135.383 393.173 134.825 392.545 134.377C392.409 134.292 392.264 134.222 392.113 134.168C391.966 134.117 391.812 134.107 391.665 134.059C391.51 134.059 391.36 134.035 391.202 134.059C391.038 134.076 390.875 134.108 390.716 134.155C389.998 134.399 389.331 134.775 388.751 135.264C387.477 136.345 386.274 137.506 385.148 138.74C384.559 139.346 383.984 139.962 383.357 140.534L382.419 141.414L381.474 142.226C381.166 142.5 380.844 142.76 380.522 143.006C380.2 143.253 379.885 143.513 379.563 143.756C378.909 144.225 378.272 144.705 377.611 145.126C375.139 146.754 372.556 148.205 369.879 149.468C367.386 150.666 365.041 151.697 362.972 152.759C361.955 153.254 360.897 153.659 359.808 153.967C358.781 154.286 357.836 154.543 356.935 154.782C355.134 155.255 353.573 155.618 352.292 155.906C349.738 156.478 348.316 156.748 348.316 156.748C348.316 156.748 349.71 156.365 352.22 155.625C353.473 155.252 355.004 154.793 356.768 154.217C357.644 153.926 358.586 153.618 359.562 153.252C360.584 152.901 361.573 152.464 362.52 151.944C364.575 150.759 366.883 149.622 369.297 148.335C371.865 146.999 374.342 145.497 376.714 143.838C377.344 143.41 377.943 142.931 378.563 142.469C378.868 142.229 379.166 141.976 379.467 141.726C379.769 141.476 380.077 141.226 380.364 140.959L381.255 140.161L382.114 139.315C382.7 138.764 383.255 138.151 383.826 137.541C384.994 136.223 386.253 134.988 387.593 133.846C388.357 133.2 389.238 132.707 390.189 132.394C390.455 132.314 390.73 132.26 391.007 132.233C391.294 132.211 391.583 132.211 391.87 132.233C392.157 132.283 392.441 132.351 392.719 132.436C392.989 132.531 393.249 132.655 393.493 132.805C394.325 133.371 395.043 134.089 395.609 134.922L396.007 135.463L396.404 136.034C396.657 136.421 396.904 136.812 397.123 137.216C398 138.801 398.61 140.518 398.931 142.301C399.01 142.739 399.071 143.174 399.116 143.609C399.16 144.044 399.178 144.458 399.208 144.879L399.291 146.133L399.311 147.376C399.333 148.986 399.268 150.597 399.116 152.201C399.034 152.981 398.945 153.755 398.835 154.512C398.725 155.269 398.602 156.012 398.445 156.738C398.167 158.152 397.816 159.551 397.393 160.929C397.011 162.219 396.554 163.486 396.024 164.723C395.952 164.874 395.89 165.021 395.815 165.172C395.74 165.322 395.668 165.456 395.596 165.596L395.164 166.429C394.856 166.966 394.575 167.5 394.267 168C393.065 170.027 391.87 171.784 390.764 173.284C389.658 174.784 388.661 176.044 387.823 177.051C387.401 177.554 387.025 177.989 386.672 178.355L385.799 179.283L385.066 180.044Z" fill="black" stroke="black" stroke-width="0.18" stroke-miterlimit="10"/>
<path d="M344.335 245.174C339.253 246.044 312.886 250.094 298.127 235.339C280.204 217.423 282.862 175.239 317.269 143.226C291.563 140.178 271.815 121.44 269.075 99.1343C266.401 77.2565 280.191 52.8276 300.767 47.8966C316.728 44.0716 330.922 53.3755 334.431 55.68C350.94 66.5076 355.282 83.3826 356.21 87.4609C355.868 83.7353 352.786 47.9925 368.092 40.7638C369.553 40.0895 371.113 39.6537 372.712 39.4728C385.015 38.1031 396.764 52.4851 401.753 63.4703C405.177 71.0209 405.76 77.7222 406.373 84.8721C407.001 92.1806 406.753 99.5378 405.636 106.788C403.633 113.968 399.793 120.502 394.494 125.745C389.407 130.753 383.178 134.448 376.345 136.511C381.577 142.674 390.063 154.396 393.836 171.147C396.072 181.078 401.055 203.171 387.238 222.385C372.856 242.359 348.485 244.821 344.335 245.174Z" fill="#BAEAFF" stroke="black" stroke-width="4.27" stroke-linejoin="round"/>
<path d="M260.75 166.113C272.194 164.137 279.32 160.292 283.501 157.433C299.681 146.413 305.55 127.429 315.528 127.395C316.663 127.401 317.789 127.594 318.86 127.967C324.291 130.045 325.414 137.161 325.866 140.034C327.346 149.41 310.745 170.075 283.576 193.251" fill="#0D3E66"/>
<path d="M283.255 192.881L287.707 188.611C290.545 185.851 294.634 181.841 299.497 176.729C301.921 174.171 304.537 171.332 307.249 168.219C309.961 165.107 312.766 161.713 315.467 158.005C316.837 156.152 318.156 154.221 319.385 152.201C320.636 150.195 321.709 148.085 322.593 145.893C323.009 144.845 323.321 143.759 323.525 142.65C323.562 142.39 323.583 142.133 323.617 141.876C323.652 141.619 323.617 141.383 323.638 141.133C323.658 140.883 323.593 140.678 323.586 140.448C323.549 140.168 323.487 139.822 323.439 139.524C323.247 138.323 322.968 137.137 322.604 135.976C322.269 134.88 321.797 133.831 321.2 132.853C320.68 132 319.993 131.26 319.179 130.679C319.025 130.58 318.888 130.487 318.775 130.405L318.296 130.169C317.984 130.015 318.173 130.097 318.104 130.052L318.18 130.086L318.06 130.025L317.717 129.912C317.467 129.836 317.207 129.771 316.95 129.72C316.454 129.612 315.948 129.559 315.44 129.563C314.463 129.575 313.502 129.809 312.629 130.247C311.654 130.743 310.744 131.358 309.92 132.076C309.045 132.841 308.211 133.652 307.424 134.507C305.821 136.236 304.325 138.075 302.849 139.883C301.373 141.691 299.928 143.469 298.466 145.164C295.745 148.397 292.754 151.394 289.525 154.122C288.069 155.334 286.543 156.461 284.957 157.498C283.512 158.452 282.012 159.318 280.464 160.094C277.851 161.399 275.13 162.478 272.332 163.319C270.263 163.942 268.162 164.451 266.038 164.843L264.812 165.066L263.737 165.23L262.815 165.367L262.055 165.459L260.686 165.62L262.031 165.278L262.774 165.096L263.668 164.853L264.695 164.573L265.88 164.23C267.548 163.723 269.582 163.056 271.886 162.104C274.504 161.036 277.032 159.763 279.447 158.296C280.855 157.441 282.213 156.507 283.515 155.498C284.948 154.405 286.32 153.235 287.624 151.992C290.539 149.174 293.233 146.137 295.682 142.907C297.017 141.195 298.36 139.373 299.764 137.497C301.168 135.62 302.626 133.675 304.308 131.734C305.176 130.727 306.101 129.772 307.078 128.871C308.155 127.88 309.354 127.029 310.646 126.34C312.094 125.569 313.698 125.138 315.337 125.08C316.154 125.057 316.97 125.124 317.772 125.279C318.162 125.351 318.549 125.44 318.943 125.549C319.138 125.607 319.333 125.666 319.553 125.741C319.601 125.741 319.703 125.796 319.738 125.813C319.772 125.83 319.83 125.851 319.892 125.885L320.388 126.207C320.101 126.012 320.388 126.248 320.556 126.255C320.724 126.261 320.785 126.316 320.963 126.385L321.703 126.85C321.84 126.943 321.994 127.029 322.131 127.142L322.563 127.484L323.018 127.867C323.165 128.004 323.306 128.155 323.453 128.306L323.895 128.771C324.032 128.932 324.162 129.114 324.299 129.275C324.436 129.436 324.573 129.617 324.699 129.799L325.042 130.347C325.858 131.664 326.498 133.082 326.946 134.565C327.367 135.936 327.685 137.336 327.898 138.753C327.952 139.096 328 139.407 328.045 139.781C328.089 140.154 328.137 140.63 328.134 141.037C328.13 141.445 328.134 141.849 328.079 142.236C328.024 142.623 327.987 143.006 327.925 143.383C327.649 144.792 327.229 146.169 326.672 147.492C325.631 149.909 324.371 152.224 322.905 154.409C321.511 156.522 320.035 158.484 318.542 160.34C315.713 163.824 312.707 167.162 309.537 170.339C306.581 173.322 303.715 175.989 301.079 178.362C295.771 183.108 291.285 186.707 288.155 189.149C286.587 190.368 285.364 191.303 284.526 191.926L283.255 192.881Z" fill="black" stroke="black" stroke-width="0.44" stroke-miterlimit="10"/>
<path d="M369.246 97.8604L372.513 107.832C372.598 108.092 372.835 113.54 372.835 113.54L371.516 115.937C371.174 116.591 366.585 118.879 366.287 118.728C365.99 118.577 356.672 115.304 356.672 115.304C356.672 115.304 349.265 109.328 349.026 109.191C348.786 109.054 346.807 105.661 346.807 105.661C346.807 105.661 354.919 101.302 355.467 101.141C356.015 100.98 369.246 97.8604 369.246 97.8604Z" fill="#A23D2E"/>
<path d="M371.489 112.362C371.489 112.362 362.148 106.014 354.59 111.869C356.153 112.834 357.771 113.706 359.435 114.482C361.319 115.318 363.283 115.956 365.298 116.386C366.404 116.687 367.582 116.565 368.603 116.044C369.409 115.646 370.1 115.048 370.609 114.307C371.024 113.721 371.323 113.061 371.489 112.362Z" fill="#D44E28"/>
<path d="M386.872 74.8016C384.701 66.47 378.006 62.5113 374.403 63.662C371.243 64.6687 368.924 70.1067 370.082 76.4967" stroke="black" stroke-width="9.97" stroke-miterlimit="10" stroke-linecap="round"/>
<path d="M332.569 83.9547C330.395 75.6196 323.703 71.661 320.101 72.8116C316.937 73.8218 314.622 79.2598 315.776 85.6498" stroke="black" stroke-width="9.97" stroke-miterlimit="10" stroke-linecap="round"/>
<path d="M346.466 99.8978C345.971 100.541 345.537 101.229 345.168 101.952C344.576 103.127 343.881 104.548 344.083 106.312C344.119 106.609 344.178 106.903 344.257 107.192C345.178 110.568 349.661 114.42 350.185 114.862C353.181 117.406 354.681 118.677 356.691 119.656C359.146 120.837 362.084 122.255 365.817 121.711C369.487 121.166 373.059 118.827 374.62 115.513C375.607 113.42 375.566 111.427 375.531 109.88C375.48 107.438 374.87 105.623 374.288 103.935C373.548 101.79 372.541 99.7454 371.292 97.8501L368.453 99.4561C368.453 99.4561 371.193 106.219 371.453 108.62C371.662 110.585 371.95 113.006 370.333 114.756C369.049 116.146 367.183 116.444 366.31 116.526C362.367 115.805 358.593 114.36 355.177 112.263C353.253 111.051 350.472 109.28 348.568 105.949C348.298 105.476 348.048 104.962 348.048 104.962C347.269 103.363 346.735 101.656 346.466 99.8978Z" fill="#FA8510" stroke="black" stroke-width="1.81" stroke-miterlimit="10"/>
<path d="M349.499 91.7822C350.944 90.0551 352.703 88.6178 354.683 87.5463C354.683 87.5463 361.806 83.0023 370.545 84.6904C372.541 85.074 375.887 85.7177 376.986 88.1421C377.808 89.9502 376.986 91.878 376.643 92.6725C375.034 96.3159 371.284 98.2096 365.432 100.449C353.992 104.822 348.273 107.01 346.225 104.962C343.753 102.48 346.205 95.7578 349.499 91.7822Z" fill="#FA8510" stroke="black" stroke-width="2.72" stroke-miterlimit="10"/>
<path d="M312.34 115.489C317.968 115.489 322.531 111.146 322.531 105.788C322.531 100.43 317.968 96.0864 312.34 96.0864C306.711 96.0864 302.148 100.43 302.148 105.788C302.148 111.146 306.711 115.489 312.34 115.489Z" fill="#F4A127" stroke="black" stroke-width="1.02" stroke-miterlimit="10"/>
<path d="M271.435 21.3657L265.682 12.4211C265.682 12.4211 266.527 10.1131 268.044 10.9829C269.561 11.8527 275.441 16.6332 275.441 16.6332C275.441 16.6332 273.209 6.78796 275.441 4.55866C277.674 2.32936 278.003 8.93507 278.003 9.65077C278.003 10.3665 278.26 12.8903 279.242 12.7328C280.225 12.5752 286.488 4.10321 286.488 4.10321C286.488 4.10321 289.57 0.699334 288.704 5.84966C287.838 11 286.742 17.0475 286.742 17.0475" fill="#0D3E66"/>
<path d="M271.435 21.3657L265.682 12.4211C265.682 12.4211 266.527 10.1131 268.044 10.9829C269.561 11.8527 275.441 16.6332 275.441 16.6332C275.441 16.6332 273.209 6.78796 275.441 4.55866C277.674 2.32936 278.003 8.93507 278.003 9.65077C278.003 10.3665 278.26 12.8903 279.242 12.7328C280.225 12.5752 286.488 4.10321 286.488 4.10321C286.488 4.10321 289.57 0.699334 288.704 5.84966C287.838 11 286.742 17.0475 286.742 17.0475" stroke="black" stroke-width="5" stroke-miterlimit="10"/>
<path d="M143.504 240.02C149.382 237.792 155.558 236.446 161.831 236.027C172.257 235.365 182.689 237.232 192.238 241.469L190.136 284.18C188.273 285.892 181.044 292.134 169.83 292.583C162.544 292.836 155.388 290.614 149.527 286.279C147.516 271.157 145.508 256.033 143.504 240.907" fill="#9BC699"/>
<path d="M143.504 240.02C149.382 237.792 155.558 236.446 161.831 236.027C172.257 235.365 182.689 237.232 192.238 241.469L190.136 284.18C188.273 285.892 181.044 292.134 169.83 292.583C162.544 292.836 155.388 290.614 149.527 286.279C147.516 271.157 145.508 256.033 143.504 240.907" stroke="black" stroke-width="4.09" stroke-miterlimit="10"/>
<path d="M145.46 250.41C138.611 252.242 134.646 259.121 136.214 265.268C137.553 270.503 142.689 274.376 148.627 274.27C148.878 276.163 149.129 278.057 149.38 279.954C139.655 281.536 130.742 275.845 128.513 268.069C125.859 258.823 132.903 247.321 144.84 245.732" fill="#9BC699"/>
<path d="M145.46 250.41C138.611 252.242 134.646 259.121 136.214 265.268C137.553 270.503 142.689 274.376 148.627 274.27C148.878 276.163 149.129 278.057 149.38 279.954C139.655 281.536 130.742 275.845 128.513 268.069C125.859 258.823 132.903 247.321 144.84 245.732" stroke="black" stroke-width="4.09" stroke-miterlimit="10"/>
<path d="M148.824 242.15C154.747 245.194 161.267 246.898 167.922 247.142C174.577 247.386 181.204 246.163 187.334 243.561C174.901 239.391 161.527 238.905 148.824 242.16V242.15Z" fill="#9BC699" stroke="black" stroke-width="4.09" stroke-miterlimit="10"/>
<path d="M542.932 245.362C553.385 245.362 561.858 243.317 561.858 240.794C561.858 238.271 553.385 236.226 542.932 236.226C532.479 236.226 524.006 238.271 524.006 240.794C524.006 243.317 532.479 245.362 542.932 245.362Z" fill="#EF8535" stroke="black" stroke-width="0.74" stroke-miterlimit="10"/>
<path d="M524.718 249.214L528.067 272.842C528.067 272.842 527.964 275.482 532.58 277.359C537.196 279.235 553.434 278.728 555.568 276.598C557.701 274.469 558.002 274.886 558.612 271.726C559.221 268.565 561.437 242.753 561.437 242.753C561.437 242.753 535.169 250.112 524.006 241.791L524.718 249.214Z" fill="#F3A466" stroke="black" stroke-width="1.98" stroke-miterlimit="10"/>
<path d="M530.121 243.985L527.584 222.268L530.121 209.989L534.891 222.066L537.734 244.899" fill="#987C86"/>
<path d="M530.121 243.985L527.584 222.268L530.121 209.989L534.891 222.066L537.734 244.899" stroke="black" stroke-width="1.98" stroke-linecap="round" stroke-linejoin="round"/>
<path d="M551.747 215.05L544.898 245.334L551.524 244.495C553.401 235.174 555.276 225.852 557.151 216.529L551.747 215.05Z" fill="#D27B55" stroke="black" stroke-width="0.99" stroke-miterlimit="10"/>
<path d="M554.194 216.095C556.773 216.982 558.098 216.489 558.731 216.095C561.721 214.28 561.796 207.308 558.266 198.702C551.667 205.209 548.797 211.527 550.756 214.369C551.177 214.986 552.067 215.794 554.194 216.095Z" fill="#D27B55" stroke="black" stroke-width="0.99" stroke-miterlimit="10"/>
<defs>
<linearGradient id="paint0_linear_391_5338" x1="0" y1="263.5" x2="603" y2="263.5" gradientUnits="userSpaceOnUse">
<stop stop-color="#1F8BF7"/>
<stop offset="1" stop-color="#DC33FC"/>
</linearGradient>
</defs>
</svg>
