<svg width="746" height="395" viewBox="0 0 746 395" fill="none" xmlns="http://www.w3.org/2000/svg">
<rect y="262" width="746" height="132" rx="66" fill="url(#paint0_linear_377_5855)"/>
<path d="M636.932 39.3867H580V102.001H636.932V39.3867Z" fill="#FFEDDE" stroke="black" stroke-width="0.62" stroke-miterlimit="10"/>
<path d="M597.976 54.708H588.988V93.3422H597.976V54.708Z" fill="#FFF0A9" stroke="black" stroke-width="0.62" stroke-miterlimit="10"/>
<path d="M606.962 65.3667H597.975V93.3425H606.962V65.3667Z" fill="#D800EF" stroke="black" stroke-width="0.83" stroke-miterlimit="10"/>
<path d="M615.954 75.0254H606.967V93.3426H615.954V75.0254Z" fill="#240BA0" stroke="black" stroke-width="0.83" stroke-miterlimit="10"/>
<path d="M624.943 81.0205H615.955V93.3426H624.943V81.0205Z" stroke="black" stroke-width="0.83" stroke-miterlimit="10"/>
<path d="M617.481 31H605.443V47.7695H617.481V31Z" fill="#E5A76A"/>
<mask id="path-8-inside-1_377_5855" fill="white">
<path d="M661.503 316.814C680.613 316.814 696.78 320.596 696.78 325.08C696.78 329.564 680.633 333.346 661.503 333.346C642.374 333.346 626.226 329.564 626.226 325.08C626.226 320.596 642.374 316.814 661.503 316.814ZM661.503 316.573C641.895 316.573 626 320.375 626 325.073C626 329.771 641.895 333.573 661.503 333.573C681.112 333.573 697 329.764 697 325.073C697 320.382 681.105 316.573 661.503 316.573Z"/>
</mask>
<path d="M661.503 316.814C680.613 316.814 696.78 320.596 696.78 325.08C696.78 329.564 680.633 333.346 661.503 333.346C642.374 333.346 626.226 329.564 626.226 325.08C626.226 320.596 642.374 316.814 661.503 316.814ZM661.503 316.573C641.895 316.573 626 320.375 626 325.073C626 329.771 641.895 333.573 661.503 333.573C681.112 333.573 697 329.764 697 325.073C697 320.382 681.105 316.573 661.503 316.573Z" fill="#090110"/>
<path d="M661.503 316.814V317.814C671.002 317.814 679.742 318.755 686.08 320.239C689.257 320.983 691.777 321.852 693.478 322.776C694.33 323.238 694.93 323.689 695.305 324.107C695.676 324.519 695.78 324.84 695.78 325.08H696.78H697.78C697.78 324.199 697.379 323.421 696.792 322.768C696.208 322.121 695.395 321.541 694.433 321.018C692.506 319.972 689.789 319.054 686.536 318.292C680.013 316.764 671.114 315.814 661.503 315.814V316.814ZM696.78 325.08H695.78C695.78 325.32 695.676 325.642 695.306 326.054C694.93 326.471 694.332 326.922 693.481 327.385C691.781 328.309 689.263 329.177 686.087 329.921C679.752 331.405 671.012 332.346 661.503 332.346V333.346V334.346C671.124 334.346 680.023 333.396 686.543 331.868C689.796 331.106 692.51 330.188 694.436 329.142C695.398 328.619 696.21 328.039 696.793 327.391C697.38 326.738 697.78 325.961 697.78 325.08H696.78ZM661.503 333.346V332.346C651.995 332.346 643.255 331.405 636.919 329.921C633.744 329.177 631.226 328.309 629.526 327.385C628.675 326.922 628.076 326.471 627.701 326.054C627.33 325.642 627.226 325.32 627.226 325.08H626.226H625.226C625.226 325.961 625.627 326.738 626.214 327.391C626.797 328.039 627.609 328.619 628.571 329.142C630.496 330.188 633.211 331.106 636.463 331.868C642.984 333.396 651.882 334.346 661.503 334.346V333.346ZM626.226 325.08H627.226C627.226 324.84 627.33 324.518 627.701 324.106C628.076 323.689 628.675 323.238 629.526 322.775C631.226 321.852 633.744 320.983 636.919 320.239C643.255 318.755 651.995 317.814 661.503 317.814V316.814V315.814C651.882 315.814 642.984 316.764 636.463 318.292C633.211 319.054 630.496 319.972 628.571 321.018C627.609 321.541 626.797 322.121 626.214 322.769C625.627 323.422 625.226 324.199 625.226 325.08H626.226ZM661.503 316.573V315.573C651.644 315.573 642.687 316.528 636.166 318.089C632.913 318.868 630.211 319.81 628.297 320.893C626.463 321.931 625 323.306 625 325.073H626H627C627 324.492 627.523 323.629 629.283 322.633C630.962 321.683 633.459 320.793 636.631 320.034C642.959 318.519 651.753 317.573 661.503 317.573V316.573ZM626 325.073H625C625 326.841 626.463 328.215 628.297 329.253C630.211 330.337 632.913 331.279 636.166 332.057C642.687 333.618 651.644 334.573 661.503 334.573V333.573V332.573C651.753 332.573 642.959 331.627 636.631 330.112C633.459 329.353 630.962 328.464 629.283 327.513C627.523 326.517 627 325.655 627 325.073H626ZM661.503 333.573V334.573C671.362 334.573 680.318 333.617 686.838 332.055C690.09 331.276 692.791 330.333 694.704 329.251C696.537 328.213 698 326.839 698 325.073H697H696C696 325.653 695.477 326.514 693.718 327.51C692.039 328.461 689.543 329.35 686.372 330.11C680.045 331.625 671.253 332.573 661.503 332.573V333.573ZM697 325.073H698C698 323.307 696.536 321.933 694.703 320.896C692.79 319.813 690.088 318.871 686.835 318.092C680.315 316.53 671.359 315.573 661.503 315.573V316.573V317.573C671.25 317.573 680.042 318.521 686.369 320.037C689.541 320.796 692.038 321.686 693.718 322.636C695.477 323.632 696 324.494 696 325.073H697Z" fill="black" mask="url(#path-8-inside-1_377_5855)"/>
<path d="M646.746 282.674C646.746 282.674 588.953 262.18 591.056 248.219C591.201 246.935 591.731 245.727 592.575 244.758C597.521 239.308 613.179 245.024 623.313 251.292C624.657 252.123 625.591 252.778 625.873 252.968C631.626 256.974 641.256 265.382 651 283.573L646.746 282.674Z" fill="#D6B97F" stroke="#090110" stroke-width="0.8" stroke-miterlimit="10"/>
<path d="M616 207.886C616 207.886 616.3 189.482 628.121 201.845C638.825 213.06 646.906 227.282 652.876 245.082C653.109 245.753 653.276 246.29 653.609 247.31C660.704 269.109 664.179 280.09 660.538 284.184C659.326 285.526 656.844 287.036 651.106 286.439C651.106 286.439 643.245 274.801 635.13 262.062C630.79 255.257 621.491 244.88 617.964 232.276C617.571 230.873 617.298 229.591 617.298 229.591C617.298 229.591 615.834 223.188 616.027 207.859L616 207.886Z" fill="#B59968" stroke="#090110" stroke-width="0.8" stroke-miterlimit="10"/>
<path d="M661.395 205.913C662.872 203.362 669.82 191.349 676.054 192.675C678.102 193.11 679.515 194.684 680.765 196.961C685.516 205.666 685.555 215.797 684.31 226.143C683.222 235.149 682.509 234.788 676.793 259.336C673.138 275.045 671.258 284.554 666.054 285.512C664.916 285.682 663.754 285.498 662.717 284.982C649.056 279.056 653.644 235.826 654.117 231.178C655.121 221.683 656.852 213.788 661.395 205.913Z" fill="#D6B97F" stroke="#090110" stroke-width="0.8" stroke-miterlimit="10"/>
<path d="M674.337 284.94C674.337 284.94 703.722 267.731 708.986 251.683C714.249 235.636 711.718 234.593 708.227 234.573C704.736 234.553 689.341 236.3 684.796 242.089C680.251 247.879 659.399 276.687 669.939 284.807C670.566 285.28 671.328 285.548 672.116 285.572C672.905 285.595 673.681 285.374 674.337 284.94Z" fill="#B29769" stroke="#090110" stroke-width="0.8" stroke-miterlimit="10"/>
<path d="M646 262.573C646 262.573 645.131 260.002 643.888 255.823C642.543 251.677 640.818 245.938 638.635 239.749C636.453 233.561 634.219 228.036 632.101 224.279C631.296 222.767 630.363 221.333 629.313 219.993C629.023 219.618 628.712 219.263 628.38 218.928C628.261 218.802 628.134 218.683 628 218.573C628 218.573 628.174 218.66 628.451 218.834C628.849 219.09 629.232 219.372 629.597 219.678C630.925 220.805 632.128 222.083 633.182 223.489C635.918 226.965 638.861 232.416 641.101 238.772C642.945 244.212 644.307 249.816 645.17 255.515C645.788 259.861 646 262.573 646 262.573Z" fill="#D6B97F" stroke="#D6B97F" stroke-width="0.13" stroke-miterlimit="10"/>
<path d="M673 272.573C673 272.573 674.211 270.135 676.389 266.292C679.289 261.312 682.635 256.614 686.385 252.258C690.841 247.192 695.653 243.249 699.493 241.086C700.985 240.195 702.573 239.481 704.226 238.956C704.659 238.815 705.102 238.705 705.55 238.627C705.698 238.598 705.849 238.58 706 238.573L705.583 238.741C705.168 238.92 704.764 239.121 704.372 239.346C702.915 240.182 701.531 241.142 700.234 242.214C696.884 244.902 692.747 249.127 688.398 254.065C684.049 259.003 680.288 263.705 677.475 267.071C674.662 270.437 673 272.573 673 272.573Z" fill="#D6B97F" stroke="#D6B97F" stroke-width="0.13" stroke-miterlimit="10"/>
<path d="M661 268.573C661 268.573 663.013 254.35 666.329 236.935C669.644 219.521 673 205.573 673 205.573C673 205.573 670.987 219.797 667.678 237.211C664.369 254.626 661 268.573 661 268.573Z" fill="#B29769" stroke="#B29769" stroke-width="0.07" stroke-miterlimit="10"/>
<path d="M638 273.573C638 273.573 629.363 268.799 619.145 262.163C608.926 255.527 601 249.573 601 249.573C601 249.573 609.637 254.347 619.862 260.976C630.087 267.606 638 273.573 638 273.573Z" fill="#B29769" stroke="#B29769" stroke-width="0.07" stroke-miterlimit="10"/>
<path d="M700 326C700 330.418 682.987 334 662 334C641.013 334 624 330.418 624 326C624 321.582 641.013 318 662 318C682.987 318 700 321.582 700 326Z" fill="#090110"/>
<path d="M695.844 295.693L628.326 297.572C627.777 297.588 627.243 297.405 626.825 297.058C626.407 296.711 626.135 296.225 626.063 295.693L624.02 280.741C623.978 280.439 624.002 280.132 624.089 279.84C624.177 279.547 624.327 279.276 624.529 279.044C624.731 278.812 624.981 278.625 625.263 278.494C625.544 278.363 625.851 278.291 626.163 278.284L694.58 276.574C695.149 276.559 695.702 276.759 696.124 277.132C696.547 277.504 696.806 278.022 696.849 278.576L697.993 293.36C698.017 293.652 697.979 293.947 697.883 294.225C697.786 294.503 697.632 294.759 697.431 294.977C697.23 295.196 696.986 295.372 696.713 295.495C696.44 295.618 696.144 295.686 695.844 295.693Z" fill="#EA9B65" stroke="#090110" stroke-width="2.41" stroke-miterlimit="10"/>
<path d="M690.302 323.217C673.072 327.24 655.324 328.487 637.711 326.914C631.197 308.865 629.425 298.952 632.396 297.176C632.726 297.008 633.086 296.908 633.455 296.883C633.824 296.857 634.194 296.906 634.543 297.027L692 294.573C691.432 304.133 690.866 313.681 690.302 323.217Z" fill="#EA9B65" stroke="#090110" stroke-width="2.41" stroke-miterlimit="10"/>
<mask id="mask0_377_5855" style="mask-type:luminance" maskUnits="userSpaceOnUse" x="0" y="0" width="615" height="395">
<path d="M614.095 0H0V394.224H614.095V0Z" fill="white"/>
</mask>
<g mask="url(#mask0_377_5855)">
<path d="M254.273 210.224C254.273 210.224 276.102 201.425 271.625 174.23C271.625 174.23 281.22 44.3292 169.915 64.8061C169.915 64.8061 173.034 52.6479 170.955 52.6479C168.876 52.6479 162.959 61.7666 162.959 61.7666C162.959 61.7666 161.279 65.0461 159.68 61.7666C158.081 58.4871 158.081 54.7276 158.081 54.7276C158.081 54.7276 156.962 51.2882 155.362 56.2474C154.399 59.1412 154.288 62.2509 155.043 65.2061L155.362 67.1258C155.362 67.1258 148.806 61.2866 146.407 62.6464C144.008 64.0062 146.087 66.0859 146.087 66.0859L149.525 70.7252C139.734 74.9886 125.653 83.0954 114.663 98.1611C99.518 118.914 99.3861 140.323 99.2502 162.231C99.1782 173.962 100.657 183.128 105.647 191.899C108.006 196.017 110.958 199.766 114.407 203.025C114.407 203.025 76.1896 240.832 85.0452 288.064C85.6155 291.116 86.3685 294.13 87.3001 297.091L84.5375 288.572C84.5375 288.572 69.0691 284.793 74.2266 296.731C79.384 308.669 97.4951 319.408 104.212 322.467C105.727 323.159 107.574 324.127 110.209 325.175C137.699 336.069 180.862 331.098 184.124 330.686C222.813 325.815 242.159 323.379 253.85 311.649C270.525 294.915 271.865 272.131 272.24 265.736C273.98 236.364 258.575 215.651 254.273 210.224Z" fill="#0D3E66" stroke="black" stroke-width="5" stroke-miterlimit="10"/>
<path d="M177.611 331.338L148.11 331.982C148.11 331.982 113.943 315.808 124.014 277.054C134.085 238.3 138.958 223.182 149.717 214.904C144.646 212.249 139.921 208.979 135.648 205.169C132.634 202.485 126.672 197.17 122.814 189.811C115.79 176.413 118.816 162.103 120.296 156.616C120.296 156.616 120.775 125.861 143.804 113.623C146.762 112.051 154.319 108.056 163.73 109.367C176.832 111.191 184.548 122.054 190.489 130.412C199.532 143.142 202.751 156.284 203.946 165.395C203.946 165.395 207.492 122.741 224.284 111.823C241.076 100.905 259.962 114.839 268.262 131.628C268.262 131.628 273.024 160.424 271.796 169.17L272 177.145C272 177.145 272.216 184.12 271.92 185.992C271.625 187.864 268.926 196.346 267.719 198.178C266.511 200.01 261.358 205.633 261.358 205.633L254.273 210.224C254.273 210.224 277.917 239.728 271.733 272.011C265.548 304.294 254.905 310.581 254.905 310.581C252.154 313.277 249.11 315.655 245.829 317.672C237.194 322.983 229.186 324.347 223.5 325.271C205.353 328.166 189.505 330.082 177.611 331.338Z" fill="#BAEAFF" stroke="black" stroke-width="3" stroke-linejoin="round"/>
<path d="M278.898 144.314L270.562 145.666L273.141 153.513L279.778 151.833C279.778 151.833 283.696 147.354 278.898 144.314Z" fill="black" stroke="black" stroke-width="3" stroke-miterlimit="10"/>
<path d="M216.493 156.632C216.493 156.632 205.974 147.114 196.459 156.632" stroke="black" stroke-width="9" stroke-miterlimit="10"/>
<path d="M137.999 150.777C132.698 149.549 128.568 148.377 125.817 147.546C122.019 146.398 119.021 145.354 115.243 146.226C114.923 146.298 111.093 147.21 111.057 148.625C111.057 149.521 112.536 150.305 113.779 150.781C120.336 153.293 136.424 156.652 136.424 156.652L137.999 150.777Z" fill="black" stroke="black" stroke-width="3.48" stroke-miterlimit="10"/>
<path d="M237.533 178.553C241.011 178.553 243.83 174.981 243.83 170.575C243.83 166.168 241.011 162.596 237.533 162.596C234.056 162.596 231.236 166.168 231.236 170.575C231.236 174.981 234.056 178.553 237.533 178.553Z" fill="black" stroke="black" stroke-width="3.87" stroke-miterlimit="10"/>
<path d="M168.783 179.513C172.261 179.513 175.08 175.941 175.08 171.534C175.08 167.127 172.261 163.555 168.783 163.555C165.306 163.555 162.486 167.127 162.486 171.534C162.486 175.941 165.306 179.513 168.783 179.513Z" fill="black" stroke="black" stroke-width="3.87" stroke-miterlimit="10"/>
<path d="M254.497 196.91C260.629 196.91 265.6 191.667 265.6 185.2C265.6 178.733 260.629 173.49 254.497 173.49C248.365 173.49 243.395 178.733 243.395 185.2C243.395 191.667 248.365 196.91 254.497 196.91Z" fill="#F4A127" stroke="black" stroke-width="2" stroke-miterlimit="10"/>
<path d="M149.714 199.07C155.846 199.07 160.816 193.827 160.816 187.36C160.816 180.892 155.846 175.649 149.714 175.649C143.582 175.649 138.611 180.892 138.611 187.36C138.611 193.827 143.582 199.07 149.714 199.07Z" fill="#F4A127" stroke="black" stroke-width="2" stroke-miterlimit="10"/>
<path d="M195.179 183.668C195.179 183.668 213.17 191.747 220.687 186.788C228.203 181.828 226.512 175.873 224.125 173.486C221.738 171.098 215.09 163.271 207.413 164.711C205.966 164.983 202.904 165.171 200.069 167.371C195.691 170.774 193.876 177.053 195.179 183.668Z" fill="#FA8510" stroke="black" stroke-width="2" stroke-miterlimit="10"/>
<path d="M212.155 191.867C212.155 191.867 202.56 195.466 197.762 188.987L195.439 183.788C195.439 183.788 207.434 189.587 215.697 188.327C215.713 188.327 215.494 190.307 212.155 191.867Z" fill="#FA8510" stroke="black" stroke-width="2" stroke-miterlimit="10"/>
<path d="M237.538 328.406C241.936 332.314 257.864 325.515 266.144 313.409C270.566 306.942 274.04 297.147 270.941 294.375C268.874 292.528 263.709 293.62 260.874 296.071C258.911 297.767 257.496 300.599 257.56 300.655C257.624 300.711 257.696 300.631 257.696 300.631C257.696 300.631 261.114 289.832 256.097 290.132C251.515 290.404 247.249 294.931 246.502 295.771C242.931 299.771 241.424 303.474 238.466 310.741C236.674 315.14 236.267 316.972 236.087 318.74C235.795 321.399 235.291 326.415 237.538 328.406Z" fill="#FA8510" stroke="black" stroke-width="2" stroke-miterlimit="10"/>
<path d="M163.118 335.949C163.118 335.949 175.032 332.59 181.269 318.992C187.506 305.394 184.108 299.675 183.348 298.915C182.589 298.155 180.709 295.635 175.992 298.155C171.274 300.675 171.274 305.078 171.274 305.078C171.22 303.485 170.997 301.901 170.61 300.355C170.455 299.759 169.011 296.355 166.473 295.635C163.07 294.676 159.296 299.091 157.865 300.767C152.427 307.126 151.84 314.733 151.56 319.072C151.16 325.255 150.828 330.538 154.482 333.702C157.329 336.181 161.187 336.141 163.118 335.949Z" fill="#FA8510" stroke="black" stroke-width="2" stroke-miterlimit="10"/>
<path d="M245.494 190.551C261.511 190.551 274.495 176.513 274.495 159.196C274.495 141.879 261.511 127.841 245.494 127.841C229.477 127.841 216.492 141.879 216.492 159.196C216.492 176.513 229.477 190.551 245.494 190.551Z" stroke="black" stroke-width="9" stroke-miterlimit="10"/>
<path d="M166.229 192.415C182.922 192.415 196.454 178.681 196.454 161.74C196.454 144.798 182.922 131.064 166.229 131.064C149.536 131.064 136.004 144.798 136.004 161.74C136.004 178.681 149.536 192.415 166.229 192.415Z" stroke="black" stroke-width="9" stroke-miterlimit="10"/>
<path d="M-28.9219 299.955L373.854 231.769L577.929 272.827C578.428 272.929 578.881 273.191 579.218 273.574C579.554 273.956 579.757 274.438 579.794 274.947C579.832 275.455 579.702 275.962 579.426 276.39C579.149 276.818 578.74 277.144 578.261 277.318L166.233 425.98L-28.9219 299.955Z" fill="#9D5532" stroke="black" stroke-width="2" stroke-miterlimit="10"/>
<path d="M577.929 272.827C577.929 272.827 588.432 272.083 577.929 298.159L335.833 388.545L165.861 444.857L166.233 425.98L577.929 272.827Z" fill="#73382C" stroke="#090110" stroke-width="2" stroke-miterlimit="10"/>
<path d="M132.017 291.828L195.562 321.195L325.398 289.984L258.071 254.833L128.195 287.641L132.017 291.828Z" fill="#090110" stroke="#090110" stroke-width="1.32" stroke-miterlimit="10"/>
<path d="M348.734 274.71L451.431 301.33L401.224 327.219L308.318 298.999L348.734 274.71Z" fill="#090110" stroke="#090110" stroke-width="1.25" stroke-miterlimit="10"/>
<path d="M310.474 292.672C310.474 292.672 305.096 297.183 311.329 298.935C317.562 300.687 395.044 320.556 395.044 320.556C395.044 320.556 397.187 323.671 403.807 320.556L440.017 303.486C440.017 303.486 443.428 297.043 438.61 299.275C433.792 301.507 399.913 316.472 399.913 316.472L310.474 292.672Z" fill="#473B3F" stroke="#090110" stroke-width="2.43" stroke-miterlimit="10"/>
<path d="M398.682 317.552L310.553 294.056C310.404 294.017 310.271 293.932 310.173 293.813C310.075 293.694 310.018 293.547 310.009 293.393C310 293.239 310.04 293.086 310.124 292.957C310.207 292.827 310.33 292.727 310.473 292.672L346.364 278.566C346.491 278.517 346.63 278.506 346.763 278.534L438.438 297.899C438.589 297.93 438.726 298.007 438.829 298.121C438.933 298.234 438.998 298.377 439.016 298.53C439.033 298.683 439.001 298.837 438.926 298.971C438.85 299.105 438.734 299.211 438.594 299.275L399.161 317.524C399.009 317.587 398.84 317.597 398.682 317.552Z" fill="#6B6868" stroke="#090110" stroke-width="2.43" stroke-miterlimit="10"/>
<path d="M350.874 285.525L342.078 283.257L346.652 280.921L354.536 282.673L350.874 285.525Z" fill="#473B3F"/>
<path d="M374.339 306.562L365.543 304.294L370.129 301.955L378.017 303.71L374.339 306.562Z" fill="#473B3F"/>
<path d="M379.411 300.83L370.615 298.559L375.193 296.223L383.077 297.975L379.411 300.83Z" fill="#473B3F"/>
<path d="M343.382 289.956L334.586 287.689L339.164 285.353L347.048 287.105L343.382 289.956Z" fill="#473B3F"/>
<path d="M385.628 294.132L376.832 291.864L381.41 289.524L389.294 291.28L385.628 294.132Z" fill="#473B3F"/>
<path d="M402.856 297.699L394.061 295.431L398.634 293.092L406.518 294.844L402.856 297.699Z" fill="#473B3F"/>
<path d="M416.676 302.303L407.881 300.035L412.459 297.699L420.343 299.451L416.676 302.303Z" fill="#473B3F"/>
<path d="M406.75 307.306L392.025 302.639L394.264 300.107L410.424 304.454L406.75 307.306Z" fill="#473B3F"/>
<path d="M371.076 291.236L356.355 286.569L358.594 284.037L374.754 288.384L371.076 291.236Z" fill="#473B3F"/>
<path d="M366.219 296.271L351.498 291.604L353.737 289.072L369.897 293.42L366.219 296.271Z" fill="#473B3F"/>
<path d="M360.465 302.594L345.744 297.927L347.983 295.396L364.143 299.743L360.465 302.594Z" fill="#473B3F"/>
<path d="M397.066 313.017L382.346 308.353L384.585 305.822L400.745 310.169L397.066 313.017Z" fill="#473B3F"/>
<path d="M340.119 296.271L325.398 291.604L327.637 289.072L343.797 293.42L340.119 296.271Z" fill="#473B3F"/>
<path d="M467.353 293.096L530.11 270.927L371.784 225.978L353.525 266.464L467.353 293.096Z" fill="#090110" stroke="#090110" stroke-width="1.25" stroke-miterlimit="10"/>
<path d="M495.706 240.048L506.101 268.704C506.101 268.704 507.928 273.815 504.277 274.547C500.627 275.279 481.041 273.347 481.041 273.347L495.706 240.048Z" fill="#1E1E1E" stroke="#090110" stroke-width="2.46" stroke-miterlimit="10"/>
<path d="M499.815 194.771C499.815 194.771 509.21 194.731 510.973 199.366C511.633 201.098 510.973 202.837 510.734 203.469C490.412 256.909 484.798 266.092 473.552 284.457C472.706 285.898 471.554 287.135 470.178 288.08C468.395 289.28 466.472 289.772 463.949 290.052C460.73 290.442 457.472 290.382 454.27 289.876C448.157 288.676 408.968 280.146 355.243 268.035C353.759 267.008 352.624 265.553 351.988 263.864C351.696 263.04 351.389 261.72 351.988 257.841C352.4 255.239 353.032 252.677 353.879 250.182" fill="#666565"/>
<path d="M499.815 194.771C499.815 194.771 509.21 194.731 510.973 199.366C511.633 201.098 510.973 202.837 510.734 203.469C490.412 256.909 484.798 266.092 473.552 284.457C472.706 285.898 471.554 287.135 470.178 288.08C468.395 289.28 466.472 289.772 463.949 290.052C460.73 290.442 457.472 290.382 454.27 289.876C448.157 288.676 408.968 280.146 355.243 268.035C353.759 267.008 352.624 265.553 351.988 263.864C351.696 263.04 351.389 261.72 351.988 257.841C352.4 255.239 353.032 252.677 353.879 250.182" stroke="#090110" stroke-width="2.46" stroke-miterlimit="10"/>
<path d="M502.462 195.199L462.018 283.033L355.459 259.013C354.487 259.013 352.9 258.909 352.012 257.845C349.713 255.086 353.939 248.071 355.259 245.827C368.052 224.05 385.672 176.458 385.672 176.458L502.462 195.199Z" fill="#1E1E1E" stroke="#090110" stroke-width="2.46" stroke-miterlimit="10"/>
<path d="M491.225 202.921C480.191 225.851 469.157 248.789 458.125 271.735L363.312 249.858C372.713 228.427 382.123 206.998 391.543 185.572L491.225 202.921Z" fill="#739BFF" stroke="#090110" stroke-width="1.8" stroke-miterlimit="10"/>
<path d="M135.613 280.99L198.222 308.826C198.222 308.826 203.019 311.945 211.415 308.826C219.811 305.706 318.642 280.99 318.642 280.99C318.642 280.99 322.72 286.509 317.203 289.148C311.686 291.788 208.297 315.784 208.297 315.784C208.297 315.784 196.782 317.944 194.624 315.784C192.465 313.625 135.613 290.356 135.613 290.356C135.613 290.356 127.937 280.99 135.613 280.99Z" fill="#4D3F40" stroke="#090110" stroke-width="2" stroke-miterlimit="10"/>
<path d="M132.335 282.566C132.335 282.566 131.512 277.726 139.799 275.099C148.087 272.471 249.317 254.834 249.317 254.834C249.317 254.834 256.034 252.794 258.073 254.834C260.112 256.873 315.404 276.55 315.404 276.55C315.404 276.55 318.643 279.43 318.643 280.99L212.603 308.426C212.603 308.426 205.875 312.225 197.327 308.426L147.775 286.397L135.614 280.99C135.614 280.99 132.435 281.262 132.335 282.566Z" fill="#605656" stroke="#090110" stroke-width="2" stroke-miterlimit="10"/>
<path d="M157.441 278.71L208.416 300.786L298.132 278.71L250.515 259.033L157.441 278.71Z" fill="#4D3F40" stroke="#090110" stroke-width="0.75" stroke-miterlimit="10"/>
<path d="M254.274 210.224C259.857 209.156 265.626 209.625 270.964 211.583C276.301 213.541 281.006 216.914 284.576 221.34C288.145 225.766 290.444 231.08 291.228 236.713C292.012 242.345 291.25 248.085 289.024 253.318C289.024 253.318 272.757 269.595 247.193 264.556C243.719 263.872 238.585 262.125 238.146 259.165C237.566 255.25 245.95 252.814 252.539 245.847C256.684 241.448 261.158 234.189 262.454 221.531" fill="#0D3E66"/>
<path d="M254.274 210.224C259.857 209.156 265.626 209.625 270.964 211.583C276.301 213.541 281.006 216.914 284.576 221.34C288.145 225.766 290.444 231.08 291.228 236.713C292.012 242.345 291.25 248.085 289.024 253.318C289.024 253.318 272.757 269.595 247.193 264.556C243.719 263.872 238.585 262.125 238.146 259.165C237.566 255.25 245.95 252.814 252.539 245.847C256.684 241.448 261.158 234.189 262.454 221.531" stroke="#090110" stroke-width="5.86" stroke-miterlimit="10"/>
<path d="M218.723 283.013L218.979 282.705C219.142 282.501 219.406 282.217 219.758 281.861C220.77 280.867 221.922 280.027 223.176 279.366C225.062 278.372 227.144 277.811 229.273 277.722C230.473 277.662 231.696 277.722 232.944 277.722C233.567 277.722 234.195 277.722 234.823 277.646C235.447 277.595 236.064 277.474 236.662 277.286C237.241 277.105 237.788 276.835 238.285 276.486C238.766 276.125 239.193 275.698 239.556 275.218C240.308 274.258 240.912 273.183 241.647 272.231C242 271.756 242.402 271.32 242.847 270.931C243.284 270.572 243.766 270.272 244.282 270.039C245.192 269.665 246.15 269.42 247.129 269.311C248.888 269.087 250.299 268.963 251.251 268.675C251.464 268.622 251.674 268.555 251.878 268.475C252.033 268.427 252.184 268.367 252.33 268.295L252.698 268.131L252.35 268.335C252.212 268.421 252.067 268.498 251.918 268.563C251.719 268.664 251.513 268.752 251.302 268.827C250.367 269.227 248.928 269.467 247.221 269.811C246.308 269.978 245.422 270.266 244.586 270.667C244.152 270.897 243.748 271.182 243.386 271.515C243.001 271.886 242.654 272.297 242.351 272.739C241.699 273.651 241.152 274.738 240.352 275.806C239.946 276.367 239.461 276.867 238.913 277.29C238.332 277.718 237.685 278.048 236.998 278.266C236.33 278.483 235.639 278.617 234.939 278.666C234.274 278.72 233.606 278.736 232.94 278.714C231.652 278.686 230.441 278.586 229.297 278.594C227.267 278.6 225.26 279.023 223.4 279.838C222.131 280.396 220.942 281.122 219.866 281.997C219.466 282.313 219.194 282.569 219.011 282.753L218.723 283.013Z" fill="#B3B3C6" stroke="#B3B3C6" stroke-width="0.08" stroke-miterlimit="10"/>
<path d="M392.337 197.486C392.337 197.486 396.363 190.511 400.94 191.243C405.518 191.975 470.966 205.033 470.966 205.033C470.966 205.033 475.364 207.797 473.764 211.752C472.165 215.708 454.206 259.345 454.206 259.345C454.206 259.345 452.927 264.324 447.873 263.52C442.82 262.716 377.336 247.435 377.336 247.435C377.336 247.435 374.198 247.739 375.037 242.444C375.877 237.148 392.337 197.486 392.337 197.486Z" fill="#97E8E6"/>
<path d="M380.104 228.582L399.51 214.504C399.51 214.504 402.309 211.064 403.616 215.156C404.923 219.247 404.504 221.779 404.504 221.779L419.184 208.889C419.184 208.889 422.075 204.977 423.45 209.569C424.826 214.16 426.401 242.924 426.401 242.924L438.455 237.388C438.455 237.388 443.76 236.616 445.619 239.18C447.478 241.744 454.575 257.129 454.575 257.129C454.575 257.129 451.996 264.172 447.89 263.528C443.784 262.884 378.98 247.843 378.98 247.843C378.98 247.843 373.403 247.279 375.062 242.44C376.721 237.6 380.104 228.582 380.104 228.582Z" fill="#E38C6F"/>
<path d="M445.743 231.693C451.727 231.693 456.577 226.84 456.577 220.854C456.577 214.869 451.727 210.016 445.743 210.016C439.759 210.016 434.908 214.869 434.908 220.854C434.908 226.84 439.759 231.693 445.743 231.693Z" fill="#FDB247"/>
<path d="M143.065 224.558L189.062 274.579C189.062 274.579 202.176 286.625 203.575 285.221C204.975 283.817 195.531 267.184 195.531 267.184L147.379 220.143C147.379 220.143 138.751 215.728 143.065 224.558Z" fill="#4D3F40" stroke="#090110" stroke-width="1.71" stroke-miterlimit="10"/>
<path d="M191.438 276.706L198.482 272.587C198.482 272.587 203.859 283.241 203.719 284.233C203.579 285.225 201.493 284.633 201.493 284.633L191.438 276.706Z" fill="black" stroke="#090110" stroke-width="0.64" stroke-miterlimit="10"/>
<path d="M123.071 225.994C135.861 233.409 149.947 238.317 164.574 240.456C166.265 240.804 169.891 241.812 171.795 244.915C174.497 249.315 171.902 255.006 170.615 257.829C165.418 269.252 151.481 278.678 136.204 280.074C120.272 281.526 108.27 273.755 104.248 270.875" fill="#0D3E66"/>
<path d="M104.561 270.443L104.872 270.631C105.08 270.755 105.384 270.947 105.796 271.183C106.596 271.667 107.827 272.339 109.422 273.131C111.358 274.087 113.352 274.922 115.391 275.631C118.065 276.565 120.813 277.269 123.607 277.734C130.795 278.934 138.169 278.315 145.056 275.935L146.508 275.435L147.943 274.847C148.919 274.475 149.858 273.995 150.822 273.539C151.305 273.323 151.769 273.055 152.241 272.799L153.656 271.999L155.04 271.131L155.735 270.695C155.967 270.551 156.187 270.383 156.411 270.223L157.762 269.268C158.21 268.936 158.63 268.576 159.07 268.232C159.965 267.56 160.757 266.764 161.604 266.016C162.004 265.616 162.404 265.216 162.804 264.816C163.004 264.612 163.203 264.416 163.395 264.204L163.919 263.56C164.279 263.121 164.675 262.705 165.015 262.249L166.03 260.873C166.201 260.646 166.358 260.41 166.502 260.165L166.954 259.445L167.405 258.729L167.805 257.989L168.205 257.249C168.337 257.005 168.469 256.761 168.605 256.482C168.857 255.946 169.093 255.43 169.308 254.918C170.176 252.878 170.768 250.838 170.732 249.015C170.737 248.165 170.559 247.325 170.212 246.55C169.864 245.775 169.354 245.084 168.717 244.523C167.293 243.341 165.586 242.551 163.763 242.232L162.196 241.928L160.633 241.6C159.597 241.376 158.578 241.136 157.578 240.892C155.579 240.396 153.656 239.856 151.813 239.292C148.127 238.156 144.765 236.892 141.754 235.629C137.016 233.629 132.432 231.28 128.041 228.602C126.49 227.658 125.314 226.882 124.523 226.354L123.323 225.534L124.627 226.17C125.482 226.57 126.75 227.182 128.393 227.918C133.016 229.988 137.755 231.788 142.586 233.309C145.636 234.265 149.007 235.201 152.661 236.029C154.489 236.445 156.383 236.83 158.342 237.184C159.321 237.356 160.317 237.528 161.332 237.684L162.86 237.912L164.459 238.128C165.705 238.299 166.926 238.617 168.097 239.076C169.361 239.561 170.543 240.235 171.603 241.076C172.749 242.009 173.681 243.176 174.338 244.499C174.986 245.843 175.355 247.304 175.421 248.795C175.549 251.702 174.762 254.342 173.798 256.741C172.818 259.172 171.579 261.49 170.104 263.656L168.905 265.256C168.505 265.78 168.061 266.256 167.641 266.756L167.006 267.492C166.782 267.728 166.55 267.956 166.326 268.184C165.87 268.64 165.422 269.1 164.963 269.544C163.995 270.375 163.08 271.251 162.068 271.983C161.568 272.359 161.085 272.751 160.577 273.107L159.046 274.135C158.79 274.303 158.538 274.479 158.278 274.635L157.478 275.095L155.919 276.003L154.32 276.802C153.792 277.07 153.268 277.338 152.721 277.558C151.645 278.018 150.59 278.494 149.502 278.85L147.903 279.418L146.328 279.898C142.28 281.053 138.088 281.625 133.878 281.598C130.248 281.565 126.636 281.077 123.127 280.146C120.268 279.388 117.488 278.359 114.823 277.074C112.829 276.12 110.904 275.027 109.062 273.803C107.559 272.795 106.436 271.955 105.696 271.359C105.324 271.067 105.048 270.831 104.86 270.675L104.561 270.443Z" fill="black" stroke="black" stroke-width="0.4" stroke-miterlimit="10"/>
<path d="M78.588 336.297C73.0529 336.286 67.5331 335.716 62.1122 334.597C59.8973 333.689 59.4335 332.998 59.4415 332.554C59.4415 331.538 61.9563 329.478 78.632 327.094C91.5096 325.251 111.092 323.451 136.831 321.743C137.079 321.694 137.33 321.667 137.583 321.663C138.063 321.636 138.536 321.791 138.906 322.099C139.238 322.431 139.434 322.874 139.454 323.343C139.418 325.343 130.146 327.31 122.698 328.89C115.123 330.49 110.952 331.368 110.184 331.526C93.8365 334.589 84.8329 336.273 78.8799 336.297H78.588Z" fill="#090110"/>
<path d="M137.584 321.951C137.99 321.923 138.392 322.05 138.707 322.307C138.979 322.579 139.138 322.943 139.155 323.327C139.155 323.571 138.795 324.467 134.389 325.799C131.391 326.707 127.465 327.562 122.639 328.598C114.811 330.258 110.885 331.094 110.129 331.234C93.8014 334.293 84.8019 335.977 78.8808 335.997H78.5889C73.0822 335.986 67.5906 335.42 62.1971 334.309C59.8462 333.342 59.7343 332.678 59.7343 332.554C59.7343 332.43 59.9582 331.442 64.1841 330.19C67.3825 329.246 72.2561 328.302 78.6729 327.39C91.5545 325.551 111.117 323.751 136.852 322.043H136.892H136.932C137.147 322 137.365 321.977 137.584 321.975M137.584 321.379C137.325 321.381 137.066 321.408 136.812 321.459C85.0724 324.888 59.1826 328.585 59.1426 332.55C59.1426 333.318 60.1034 334.096 62.0252 334.885C67.4746 336.013 73.0242 336.585 78.5889 336.593H78.8808C84.7419 336.573 93.3216 334.993 110.241 331.818C110.997 331.678 114.919 330.846 122.759 329.178C131.615 327.302 139.711 325.539 139.751 323.351C139.736 322.795 139.505 322.267 139.107 321.879C138.68 321.526 138.137 321.343 137.584 321.367V321.379Z" fill="#090110"/>
<path d="M61.6855 330.75C61.6855 330.75 75.5987 324.051 76.958 324.471C78.3173 324.891 81.3558 329.074 78.5292 333.366C72.7838 333.934 66.9883 333.034 61.6855 330.75Z" fill="#EFA87C" stroke="black" stroke-width="1.74" stroke-miterlimit="10"/>
<path d="M78.5283 333.35L135.644 325.083C142.652 319.328 134.596 315.98 134.596 315.98L76.7852 324.455C76.7852 324.455 82.0146 327.107 78.5283 333.35Z" fill="#D78147" stroke="black" stroke-width="1.74" stroke-linecap="round" stroke-linejoin="round"/>
<path d="M79.9238 327.891C79.9638 328.119 79.9998 328.363 80.0278 328.623C80.0685 329.04 80.0806 329.459 80.0638 329.878C89.1259 328.673 98.344 327.349 107.718 325.907C117.732 324.363 127.536 322.739 137.131 321.036C137.595 320.788 138.039 320.484 137.991 320.236C137.943 319.988 137.191 319.908 136.956 319.888C135.312 319.776 106.119 324.015 79.9238 327.891Z" fill="#BC6022"/>
<path d="M70.3652 329.326L70.4852 330.422L79.3608 329.582C79.416 329.286 79.416 328.982 79.3608 328.686C79.3168 328.47 79.2442 328.26 79.1449 328.062L70.3652 329.326Z" fill="#CC9275"/>
<path d="M69.522 327.123C70.335 329.015 70.5132 331.12 70.0297 333.122C67.2896 332.674 64.6078 331.923 62.0337 330.882L61.7578 330.766L69.474 327.167" fill="black"/>
<path d="M54.2895 312.397C67.0366 312.397 77.3701 308.506 77.3701 303.706C77.3701 298.907 67.0366 295.016 54.2895 295.016C41.5425 295.016 31.209 298.907 31.209 303.706C31.209 308.506 41.5425 312.397 54.2895 312.397Z" fill="#090110" stroke="#090110" stroke-width="1.32" stroke-miterlimit="10"/>
<path d="M155.098 397.5C167.845 397.5 178.179 393.609 178.179 388.809C178.179 384.01 167.845 380.119 155.098 380.119C142.351 380.119 132.018 384.01 132.018 388.809C132.018 393.609 142.351 397.5 155.098 397.5Z" fill="#090110" stroke="#090110" stroke-width="1.32" stroke-miterlimit="10"/>
<path d="M54.516 273.983C65.8035 273.983 74.9539 271.775 74.9539 269.051C74.9539 266.328 65.8035 264.12 54.516 264.12C43.2285 264.12 34.0781 266.328 34.0781 269.051C34.0781 271.775 43.2285 273.983 54.516 273.983Z" fill="#EF8535" stroke="black" stroke-width="0.69" stroke-miterlimit="10"/>
<path d="M34.8461 278.146L38.4443 303.69C38.4443 303.69 38.3364 306.538 43.3219 308.565C48.3074 310.593 65.8387 310.045 68.1416 307.765C70.4445 305.486 70.7723 305.902 71.428 302.502C72.0836 299.103 74.4785 271.203 74.4785 271.203C74.4785 271.203 46.1165 279.154 34.0625 270.163L34.8461 278.146Z" fill="#F3A466" stroke="black" stroke-width="1.83" stroke-miterlimit="10"/>
<path d="M40.684 272.499L37.9453 249.038L40.684 235.776L45.8334 248.818L48.9039 273.487" fill="#987C86"/>
<path d="M40.684 272.499L37.9453 249.038L40.684 235.776L45.8334 248.818L48.9039 273.487" stroke="black" stroke-width="1.83" stroke-linecap="round" stroke-linejoin="round"/>
<path d="M64.0393 241.24L56.627 273.959L63.7834 273.055C65.8117 262.979 67.8374 252.907 69.8604 242.84L64.0393 241.24Z" fill="#D27B55" stroke="black" stroke-width="0.91" stroke-miterlimit="10"/>
<path d="M66.678 242.364C69.4766 243.323 70.8959 242.788 71.5796 242.364C74.806 240.404 74.8899 232.873 71.0758 223.566C63.9514 230.593 60.8489 237.42 62.9639 240.492C63.4196 241.164 64.3672 242.044 66.678 242.364Z" fill="#D27B55" stroke="black" stroke-width="0.91" stroke-miterlimit="10"/>
<path d="M134.425 354.687C125.997 354.731 119.401 361.853 119.8 369.74C120.2 377.891 127.984 384.418 136.592 383.142C136.508 382.462 136.38 381.478 136.192 380.299C135.577 376.119 135.281 375.563 134.801 375.223C133.706 374.456 132.762 375.623 130.979 375.123C128.792 374.504 127.485 371.98 127.085 370.136C126.633 368.065 126.925 364.997 128.824 363.609C130.823 362.161 133.27 363.485 134.197 362.009C134.597 361.362 134.301 360.83 134.197 358.81C134.143 357.431 134.219 356.051 134.425 354.687Z" fill="#70432D" stroke="black" stroke-width="2.43" stroke-miterlimit="10"/>
<path d="M134.805 350.675C134.985 349.175 137.584 348.136 139.979 346.972C142.293 345.84 144.608 345.308 152.912 345.244C165.354 345.144 168.273 346.276 169.704 346.924C171.817 347.881 173.777 349.145 175.521 350.675C175.521 350.675 178.32 373.352 169.96 390.269C169.96 390.269 152.648 397.42 138.927 388.585C138.943 388.573 132.218 372.276 134.805 350.675Z" fill="#70432D" stroke="black" stroke-width="3.23" stroke-miterlimit="10"/>
<path d="M171.83 351.071L170.715 351.839C169.654 352.489 168.534 353.035 167.369 353.47C165.636 354.109 163.838 354.555 162.007 354.798C159.77 355.105 157.509 355.192 155.255 355.058C153.008 354.941 150.773 354.664 148.566 354.23C146.535 353.83 144.732 353.378 143.233 352.943C141.733 352.507 140.538 352.095 139.722 351.791C138.907 351.487 138.463 351.303 138.463 351.303C138.463 351.303 140.302 351.871 143.332 352.543C147.266 353.433 151.265 354 155.291 354.238C159.996 354.518 164.278 353.998 167.237 353.079C168.412 352.725 169.555 352.274 170.655 351.731L171.83 351.071Z" fill="black" stroke="black" stroke-width="0.07" stroke-miterlimit="10"/>
<path d="M168.381 352.807C171.02 351.535 161.185 350.559 155.635 350.611C151.471 350.65 147.344 351.408 143.438 352.851C143.438 352.851 159.601 357.038 168.381 352.807Z" fill="#3D2014"/>
<path d="M168.399 352.847L167.92 353.067C167.459 353.277 166.988 353.464 166.508 353.626C164.732 354.2 162.895 354.563 161.035 354.71C158.281 354.929 155.512 354.898 152.763 354.618C151.207 354.474 149.59 354.262 147.914 353.982C147.078 353.838 146.23 353.682 145.371 353.503L144.059 353.215C143.66 353.115 143.232 353.015 142.824 352.907H142.744C142.769 352.899 142.793 352.89 142.816 352.879L142.968 352.827L143.272 352.715L143.876 352.495L144.599 352.251L145.239 352.047C145.663 351.919 146.09 351.795 146.514 351.683C147.362 351.459 148.204 351.268 149.041 351.111C150.652 350.798 152.283 350.599 153.923 350.515C155.482 350.439 156.965 350.471 158.348 350.535C159.732 350.599 161.015 350.699 162.187 350.815C164.038 350.963 165.874 351.264 167.676 351.715C167.952 351.793 168.22 351.899 168.475 352.031C168.691 352.143 168.875 352.327 168.775 352.471C168.702 352.572 168.604 352.653 168.491 352.707L168.375 352.767L168.487 352.703C168.596 352.646 168.689 352.563 168.759 352.463C168.843 352.335 168.675 352.171 168.459 352.063C168.203 351.94 167.935 351.844 167.66 351.775C165.852 351.375 164.015 351.122 162.167 351.019C160.999 350.927 159.716 350.855 158.336 350.815C156.957 350.775 155.486 350.763 153.939 350.855C152.327 350.954 150.725 351.161 149.141 351.475C148.317 351.631 147.482 351.827 146.642 352.051C146.242 352.167 145.803 352.287 145.383 352.415L144.751 352.615L144.207 352.799H144.179H144.215L145.479 353.079C146.33 353.263 147.174 353.423 148.006 353.566C149.665 353.858 151.28 354.086 152.803 354.25C155.533 354.562 158.284 354.64 161.027 354.482C162.877 354.378 164.709 354.064 166.488 353.547C167.112 353.347 167.596 353.175 167.912 353.035L168.399 352.847Z" fill="black" stroke="black" stroke-width="0.03" stroke-miterlimit="10"/>
<path d="M150.27 316.832C151.245 320.388 154.24 323.379 154.944 324.059C157.97 326.975 159.805 326.695 161.5 329.462C161.644 329.698 163.743 333.23 162.844 337.249C162.18 340.213 160.045 342.776 160.509 343.148C160.621 343.236 160.825 343.148 160.909 343.108C166.17 340.781 167.889 336.709 167.889 336.709C169.372 333.198 168.969 328.934 167.177 325.715C164.339 320.608 159.381 320.612 158.814 316.34C158.654 315.14 158.994 313.877 159.677 311.349C160.637 307.81 161.948 307.126 162.076 304.826C162.188 302.714 161.364 299.679 159.813 299.263C156.535 298.355 148.035 308.701 150.27 316.832Z" fill="#CCCAAF"/>
<path d="M149.901 332.954L147.731 330.302C147.731 330.302 145.016 323.447 151.157 327.65C157.298 331.854 157.298 337.289 157.298 337.289C157.298 337.289 157.002 340.62 156.13 341.492C155.259 342.364 154.455 339.229 153.935 338.693C153.416 338.157 151.681 333.47 149.901 332.954Z" fill="#CCCAAF"/>
<path d="M205.583 333.354L245.495 354.703L310.011 329.882L240.113 317.868L204.967 330.878L205.583 333.354Z" fill="#090110" stroke="#090110" stroke-width="1.32" stroke-miterlimit="10"/>
<path d="M204.967 330.874C204.967 330.874 263.586 323.295 271.794 317.46L304.034 321.551C286.93 333.51 277.711 338.237 272.377 340.217C271.122 340.68 266.588 342.292 260.067 344.88C252.711 347.803 252.775 348.023 251.272 348.379C244.263 350.055 238.602 346.272 228.999 341.38C221.196 337.42 213.172 333.912 204.967 330.874Z" fill="#F2902F" stroke="#090110" stroke-width="2.74" stroke-miterlimit="10"/>
<path d="M209.252 330.966C209.252 330.966 259.667 324.091 266.723 318.8L294.454 322.503C294.454 322.503 267.231 346.312 250.591 344.724C233.952 343.136 209.252 330.966 209.252 330.966Z" fill="#F2DBC4" stroke="#090110" stroke-width="2.74" stroke-miterlimit="10"/>
<path d="M298.747 317.896C298.747 317.896 248.028 321.592 240.116 317.868L213.629 327.239C213.629 327.239 244.793 344.94 260.806 339.941C276.818 334.942 298.747 317.896 298.747 317.896Z" fill="#EA9C4E" stroke="#090110" stroke-width="2.74" stroke-miterlimit="10"/>
<path d="M294.193 318.032C294.193 318.032 243.479 321.727 235.563 318.004L209.096 327.374C209.096 327.374 240.26 345.076 256.272 340.077C272.284 335.077 294.193 318.032 294.193 318.032Z" fill="#FDCB93" stroke="#090110" stroke-width="2.74" stroke-miterlimit="10"/>
<path d="M417.725 104.784L366.05 102.461C365.3 102.426 364.564 102.239 363.888 101.911C363.213 101.583 362.611 101.121 362.12 100.552C361.628 99.9837 361.258 99.3211 361.031 98.6047C360.805 97.8883 360.726 97.1332 360.801 96.3855L368.153 27.1239C368.297 25.7669 368.938 24.5113 369.952 23.5986C370.966 22.686 372.282 22.1809 373.646 22.1807H421.847C422.596 22.1807 423.338 22.3335 424.027 22.6295C424.716 22.9256 425.337 23.3589 425.854 23.9029C426.37 24.4469 426.77 25.0903 427.03 25.794C427.289 26.4976 427.403 27.2468 427.364 27.9958L423.49 99.585C423.405 101.036 422.753 102.395 421.674 103.368C420.595 104.341 419.176 104.85 417.725 104.784Z" fill="#FFE6BF" stroke="black" stroke-width="2.95" stroke-miterlimit="10"/>
<path d="M409.037 36.9585H383.782C381.698 36.9585 380.008 38.6488 380.008 40.7339V52.3042C380.008 54.3893 381.698 56.0796 383.782 56.0796H409.037C411.122 56.0796 412.812 54.3893 412.812 52.3042V40.7339C412.812 38.6488 411.122 36.9585 409.037 36.9585Z" fill="#889987"/>
<path d="M378.732 69.2417H389.087" stroke="#889987" stroke-width="2" stroke-linecap="round" stroke-linejoin="round"/>
<path d="M397.523 69.8013H409.793" stroke="#889987" stroke-width="2" stroke-linecap="round" stroke-linejoin="round"/>
<path d="M376.812 78.98H411.327" stroke="#889987" stroke-width="2" stroke-linecap="round" stroke-linejoin="round"/>
<path d="M376.812 88.7188H411.327" stroke="#889987" stroke-width="2" stroke-linecap="round" stroke-linejoin="round"/>
<path d="M-28.9219 299.967V315.98L165.862 444.861L166.229 425.984L-28.9219 299.967Z" fill="#73382C" stroke="#090110" stroke-width="2" stroke-miterlimit="10"/>
<path d="M539.793 312.401L552.871 394.229H577.178L561.59 304.258L539.793 312.401Z" fill="#73382C" stroke="#090110" stroke-width="2" stroke-miterlimit="10"/>
</g>
<defs>
<linearGradient id="paint0_linear_377_5855" x1="0" y1="328" x2="746" y2="328" gradientUnits="userSpaceOnUse">
<stop stop-color="#1F8BF7"/>
<stop offset="1" stop-color="#DC33FC"/>
</linearGradient>
</defs>
</svg>
