<svg width="752" height="393" viewBox="0 0 752 393" fill="none" xmlns="http://www.w3.org/2000/svg">
<rect x="6" y="261" width="746" height="132" rx="66" fill="url(#paint0_linear_377_6340)"/>
<path d="M235.219 205.689C242.449 207.877 249.94 209.083 257.491 209.275C278.493 209.718 288.103 201.398 291.586 205.893C295.969 211.53 287.02 232.588 272.915 241.31C272.473 241.585 257.746 249.422 257.746 249.422L235.219 205.689Z" fill="#0D3E66"/>
<path d="M257.485 248.872L258.581 248.398L259.907 247.828C260.441 247.609 261.019 247.334 261.688 246.999C263.015 246.346 264.625 245.509 266.47 244.481C268.314 243.453 270.35 242.222 272.526 240.744C273.61 240.011 274.741 239.182 275.825 238.313C276.941 237.348 278.005 236.324 279.012 235.245C281.255 232.86 283.285 230.285 285.081 227.547C287.061 224.53 288.744 221.328 290.105 217.985C290.753 216.27 291.141 214.468 291.256 212.638C291.318 211.709 291.304 210.776 291.217 209.849C291.156 208.917 291.011 207.993 290.782 207.088C290.699 206.738 290.541 206.41 290.319 206.127C290.097 205.844 289.816 205.613 289.495 205.45C288.733 205.163 287.907 205.087 287.105 205.231C285.316 205.466 283.483 206.104 281.682 206.701C280.777 207.004 279.869 207.311 278.957 207.59L277.582 207.988C277.128 208.12 276.674 208.243 276.211 208.343L274.849 208.658L273.49 208.913C273.04 209 272.594 209.068 272.143 209.132C271.693 209.195 271.251 209.263 270.809 209.315C269.036 209.522 267.302 209.642 265.629 209.69C263.955 209.737 262.314 209.725 260.744 209.67C257.604 209.574 254.7 209.339 252.058 209.299C251.727 209.299 251.409 209.299 251.066 209.267L250.568 209.239L250.086 209.18C249.444 209.112 248.835 208.992 248.241 208.889C247.046 208.666 245.954 208.415 244.926 208.171C242.866 207.677 241.109 207.199 239.679 206.801C236.814 206.004 235.248 205.498 235.248 205.498C235.248 205.498 236.842 205.869 239.754 206.478C241.209 206.785 242.99 207.148 245.058 207.518C246.094 207.701 247.201 207.889 248.373 208.044C248.958 208.112 249.568 208.195 250.17 208.231L250.632 208.263H251.078C251.369 208.263 251.715 208.263 252.046 208.263C257.417 208.108 263.732 208.606 270.574 207.574C271 207.514 271.426 207.43 271.856 207.359C272.287 207.287 272.717 207.215 273.147 207.116L274.446 206.841L275.745 206.51C276.184 206.406 276.618 206.279 277.052 206.143L278.363 205.745C279.236 205.458 280.124 205.143 281.025 204.825C282.841 204.199 284.698 203.502 286.846 203.195C287.406 203.115 287.974 203.094 288.539 203.131C289.166 203.167 289.781 203.316 290.356 203.57C290.964 203.852 291.499 204.272 291.918 204.797C292.304 205.3 292.596 205.87 292.778 206.478C293.058 207.52 293.23 208.588 293.292 209.666C293.393 210.712 293.403 211.765 293.324 212.813C293.179 214.846 292.725 216.846 291.978 218.742C290.513 222.191 288.694 225.478 286.551 228.552C284.62 231.319 282.439 233.904 280.036 236.273C278.948 237.348 277.8 238.36 276.598 239.305C275.403 240.182 274.235 240.947 273.088 241.644C270.809 243.039 268.669 244.166 266.768 245.091C264.868 246.015 263.183 246.752 261.824 247.322C260.465 247.892 259.35 248.234 258.612 248.517L257.485 248.872Z" fill="black" stroke="black" stroke-width="0.17" stroke-miterlimit="10"/>
<mask id="mask0_377_6340" style="mask-type:luminance" maskUnits="userSpaceOnUse" x="0" y="0" width="612" height="393">
<path d="M612 0H0V392.744H612V0Z" fill="white"/>
</mask>
<g mask="url(#mask0_377_6340)">
<path d="M253.407 209.435C253.407 209.435 275.162 200.669 270.7 173.575C270.7 173.575 280.262 44.1627 169.337 64.5627C169.337 64.5627 172.445 52.4502 170.373 52.4502C168.301 52.4502 162.404 61.5346 162.404 61.5346C162.404 61.5346 160.731 64.8018 159.137 61.5346C157.543 58.2674 157.543 54.5221 157.543 54.5221C157.543 54.5221 156.428 51.0955 154.834 56.0361C153.874 58.919 153.763 62.0171 154.515 64.9611L154.834 66.8736C154.834 66.8736 148.299 61.0564 145.909 62.4111C143.518 63.7658 145.59 65.8377 145.59 65.8377L149.017 70.4596C139.259 74.7069 125.226 82.7832 114.273 97.7924C99.1801 118.467 99.0486 139.796 98.9132 161.622C98.8414 173.308 100.316 182.44 105.288 191.178C107.639 195.281 110.581 199.015 114.018 202.263C114.018 202.263 75.9313 239.927 84.7567 286.982C85.325 290.022 86.0754 293.025 87.0039 295.975L84.2507 287.488C84.2507 287.488 68.8351 283.723 73.9749 295.617C79.1148 307.51 97.164 318.208 103.858 321.256C105.368 321.945 107.209 322.91 109.834 323.953C137.231 334.807 180.246 329.854 183.497 329.444C222.054 324.591 241.335 322.164 252.985 310.478C269.604 293.808 270.939 271.109 271.313 264.738C273.046 235.476 257.694 214.841 253.407 209.435Z" fill="#0D3E66" stroke="black" stroke-width="5" stroke-miterlimit="10"/>
<path d="M177.005 330.093L147.604 330.735C147.604 330.735 113.554 314.622 123.59 276.013C133.627 237.405 138.484 222.344 149.206 214.096C144.152 211.451 139.443 208.194 135.185 204.398C132.181 201.725 126.24 196.429 122.395 189.098C115.394 175.75 118.411 161.494 119.885 156.028C119.885 156.028 120.363 125.388 143.313 113.196C146.261 111.63 153.792 107.649 163.171 108.956C176.228 110.773 183.918 121.595 189.838 129.922C198.851 142.604 202.058 155.697 203.25 164.773C203.25 164.773 206.784 122.28 223.518 111.403C240.253 100.525 259.075 114.407 267.346 131.133C267.346 131.133 272.092 159.821 270.869 168.535L271.072 176.48C271.072 176.48 271.287 183.428 270.992 185.293C270.697 187.158 268.008 195.609 266.805 197.433C265.601 199.258 260.465 204.86 260.465 204.86L253.405 209.434C253.405 209.434 276.969 238.827 270.805 270.989C264.641 303.151 254.035 309.414 254.035 309.414C251.293 312.1 248.26 314.469 244.99 316.479C236.384 321.77 228.403 323.128 222.737 324.049C204.652 326.934 188.858 328.842 177.005 330.093Z" fill="#BAEAFF" stroke="black" stroke-width="3" stroke-linejoin="round"/>
<path d="M277.946 143.772L269.639 145.119L272.209 152.936L278.823 151.263C278.823 151.263 282.727 146.8 277.946 143.772Z" fill="black" stroke="black" stroke-width="3" stroke-miterlimit="10"/>
<path d="M215.755 156.044C215.755 156.044 205.272 146.561 195.789 156.044" stroke="black" stroke-width="9" stroke-miterlimit="10"/>
<path d="M137.528 150.21C132.245 148.987 128.129 147.82 125.388 146.991C121.603 145.848 118.615 144.808 114.849 145.676C114.531 145.748 110.714 146.656 110.678 148.067C110.678 148.959 112.152 149.74 113.391 150.214C119.925 152.717 135.959 156.063 135.959 156.063L137.528 150.21Z" fill="black" stroke="black" stroke-width="3.48" stroke-miterlimit="10"/>
<path d="M253.629 196.17C259.74 196.17 264.694 190.947 264.694 184.504C264.694 178.061 259.74 172.838 253.629 172.838C247.518 172.838 242.564 178.061 242.564 184.504C242.564 190.947 247.518 196.17 253.629 196.17Z" fill="#F4A127" stroke="black" stroke-width="2" stroke-miterlimit="10"/>
<path d="M149.203 198.322C155.314 198.322 160.268 193.099 160.268 186.656C160.268 180.212 155.314 174.989 149.203 174.989C143.092 174.989 138.139 180.212 138.139 186.656C138.139 193.099 143.092 198.322 149.203 198.322Z" fill="#F4A127" stroke="black" stroke-width="2" stroke-miterlimit="10"/>
<path d="M236.727 327.173C241.11 331.065 256.984 324.292 265.236 312.231C269.642 305.789 273.105 296.031 270.017 293.27C267.957 291.429 262.809 292.517 259.984 294.959C258.028 296.648 256.617 299.469 256.681 299.525C256.745 299.581 256.817 299.501 256.817 299.501C256.817 299.501 260.223 288.743 255.223 289.042C250.657 289.313 246.405 293.823 245.66 294.66C242.102 298.645 240.6 302.334 237.652 309.574C235.867 313.957 235.46 315.781 235.281 317.542C234.99 320.192 234.488 325.188 236.727 327.173Z" fill="#FA8510" stroke="black" stroke-width="2" stroke-miterlimit="10"/>
<path d="M162.562 334.687C162.562 334.687 174.436 331.34 180.651 317.793C186.867 304.246 183.48 298.549 182.723 297.792C181.966 297.035 180.094 294.525 175.392 297.035C170.69 299.545 170.69 303.932 170.69 303.932C170.636 302.344 170.415 300.767 170.029 299.226C169.874 298.633 168.435 295.242 165.905 294.525C162.515 293.568 158.753 297.967 157.327 299.637C151.908 305.972 151.322 313.55 151.043 317.873C150.645 324.033 150.314 329.296 153.956 332.448C156.793 334.918 160.638 334.878 162.562 334.687Z" fill="#FA8510" stroke="black" stroke-width="2" stroke-miterlimit="10"/>
<path d="M244.657 189.835C260.619 189.835 273.559 175.85 273.559 158.598C273.559 141.346 260.619 127.36 244.657 127.36C228.694 127.36 215.754 141.346 215.754 158.598C215.754 175.85 228.694 189.835 244.657 189.835Z" stroke="black" stroke-width="9" stroke-miterlimit="10"/>
<path d="M165.661 191.692C182.297 191.692 195.783 178.01 195.783 161.132C195.783 144.254 182.297 130.572 165.661 130.572C149.025 130.572 135.539 144.254 135.539 161.132C135.539 178.01 149.025 191.692 165.661 191.692Z" stroke="black" stroke-width="9" stroke-miterlimit="10"/>
<path d="M255 161.809C252.609 152.115 245.222 147.509 241.25 148.848C237.759 150.019 235.189 156.347 236.468 163.781" stroke="black" stroke-width="9.71" stroke-miterlimit="10" stroke-linecap="round"/>
<path d="M179.213 169.392C176.822 159.694 169.435 155.092 165.459 156.426C161.973 157.602 159.403 163.929 160.678 171.364" stroke="black" stroke-width="9.71" stroke-miterlimit="10" stroke-linecap="round"/>
<path d="M226.862 174.718L223.675 186.444C223.591 186.747 220.408 192.238 220.408 192.238L217.69 193.803C216.949 194.23 211.264 193.768 211.08 193.445C210.897 193.122 204.267 184.388 204.267 184.388C204.267 184.388 201.111 174.129 200.96 173.87C200.809 173.611 201.115 169.088 201.115 169.088C201.115 169.088 211.391 169.614 212.001 169.778C212.61 169.941 226.862 174.718 226.862 174.718Z" fill="#A23D2E"/>
<path d="M219.894 190.286C219.894 190.286 215.157 178.52 204.471 179.795C205.319 181.663 206.28 183.478 207.347 185.23C208.571 187.151 209.997 188.937 211.599 190.557C212.25 191.25 213.076 191.756 213.989 192.023C214.288 192.1 214.594 192.151 214.902 192.174C215.914 192.256 216.93 192.078 217.854 191.656C218.612 191.328 219.303 190.863 219.894 190.286Z" fill="#D44E28"/>
<path d="M204.398 163.228C203.53 163.575 202.694 163.997 201.9 164.491C200.617 165.287 199.079 166.28 198.167 168.128C198.013 168.442 197.88 168.766 197.768 169.097C196.521 172.953 198.286 179.392 198.497 180.137C199.693 184.408 200.302 186.544 201.573 188.692C203.123 191.309 204.972 194.441 208.789 196.107C212.546 197.748 217.328 197.565 220.854 195.238C223.081 193.768 224.288 191.784 225.237 190.25C226.715 187.819 227.281 185.675 227.795 183.675C228.441 181.142 228.779 178.54 228.803 175.926L225.157 175.822C225.157 175.822 223.491 184.09 222.228 186.58C221.192 188.632 219.949 191.178 217.356 191.939C215.288 192.545 213.371 191.732 212.503 191.293C209.268 188.236 206.653 184.583 204.801 180.536C203.765 178.209 202.287 174.826 202.593 170.427C202.637 169.802 202.725 169.148 202.725 169.148C202.994 167.104 203.558 165.11 204.398 163.228Z" fill="#FA8510" stroke="black" stroke-width="1.76" stroke-miterlimit="10"/>
<path d="M212.277 157.056C214.677 156.222 217.214 155.854 219.752 155.972C219.752 155.972 229.219 155.729 236.299 162.558C237.917 164.12 240.63 166.738 240.14 169.762C239.777 172.025 237.813 173.436 236.988 174.005C233.215 176.631 228.541 176.269 221.696 175.002C208.313 172.523 201.623 171.284 200.997 168.057C200.244 164.156 206.731 159.008 212.277 157.056Z" fill="#FA8510" stroke="black" stroke-width="2.65" stroke-miterlimit="10"/>
<path d="M-28.8223 298.828L372.58 230.898L575.958 271.802C576.456 271.903 576.907 272.165 577.242 272.546C577.578 272.927 577.779 273.408 577.817 273.914C577.854 274.421 577.725 274.925 577.449 275.352C577.174 275.778 576.766 276.103 576.289 276.276L165.667 424.38L-28.8223 298.828Z" fill="#9D5532" stroke="black" stroke-width="2" stroke-miterlimit="10"/>
<path d="M575.958 271.802C575.958 271.802 586.425 271.061 575.958 297.039L334.689 387.086L165.297 443.186L165.667 424.38L575.958 271.802Z" fill="#73382C" stroke="#090110" stroke-width="2" stroke-miterlimit="10"/>
<path d="M131.569 290.731L194.896 319.989L324.289 288.895L257.192 253.876L127.76 286.56L131.569 290.731Z" fill="#090110" stroke="#090110" stroke-width="1.32" stroke-miterlimit="10"/>
<path d="M347.546 273.678L449.892 300.198L399.856 325.989L307.268 297.875L347.546 273.678Z" fill="#090110" stroke="#090110" stroke-width="1.25" stroke-miterlimit="10"/>
<path d="M309.415 291.572C309.415 291.572 304.056 296.067 310.268 297.812C316.48 299.557 393.697 319.351 393.697 319.351C393.697 319.351 395.833 322.455 402.431 319.351L438.517 302.346C438.517 302.346 441.916 295.927 437.115 298.15C432.313 300.374 398.55 315.283 398.55 315.283L309.415 291.572Z" fill="#473B3F" stroke="#090110" stroke-width="2.43" stroke-miterlimit="10"/>
<path d="M397.322 316.359L309.495 292.951C309.346 292.912 309.214 292.828 309.116 292.709C309.019 292.59 308.961 292.444 308.952 292.291C308.944 292.137 308.984 291.985 309.067 291.856C309.15 291.727 309.272 291.628 309.415 291.572L345.183 277.519C345.31 277.47 345.448 277.459 345.581 277.487L436.943 296.78C437.093 296.81 437.23 296.888 437.333 297.001C437.437 297.114 437.502 297.256 437.519 297.409C437.536 297.561 437.505 297.715 437.429 297.848C437.354 297.981 437.238 298.087 437.098 298.15L397.801 316.331C397.649 316.394 397.48 316.404 397.322 316.359Z" fill="#6B6868" stroke="#090110" stroke-width="2.43" stroke-miterlimit="10"/>
<path d="M349.676 284.452L340.91 282.193L345.468 279.866L353.325 281.611L349.676 284.452Z" fill="#473B3F"/>
<path d="M373.061 305.41L364.295 303.151L368.865 300.82L376.726 302.569L373.061 305.41Z" fill="#473B3F"/>
<path d="M378.117 299.7L369.352 297.437L373.914 295.11L381.771 296.856L378.117 299.7Z" fill="#473B3F"/>
<path d="M342.211 288.867L333.445 286.608L338.007 284.281L345.865 286.026L342.211 288.867Z" fill="#473B3F"/>
<path d="M384.313 293.027L375.547 290.767L380.109 288.437L387.966 290.186L384.313 293.027Z" fill="#473B3F"/>
<path d="M401.482 296.581L392.717 294.322L397.275 291.991L405.132 293.736L401.482 296.581Z" fill="#473B3F"/>
<path d="M415.256 301.167L406.49 298.907L411.052 296.581L418.91 298.326L415.256 301.167Z" fill="#473B3F"/>
<path d="M405.362 306.151L390.688 301.502L392.919 298.979L409.024 303.311L405.362 306.151Z" fill="#473B3F"/>
<path d="M369.809 290.142L355.139 285.492L357.37 282.97L373.475 287.301L369.809 290.142Z" fill="#473B3F"/>
<path d="M364.969 295.158L350.299 290.508L352.53 287.986L368.635 292.317L364.969 295.158Z" fill="#473B3F"/>
<path d="M359.235 301.458L344.564 296.808L346.796 294.286L362.901 298.617L359.235 301.458Z" fill="#473B3F"/>
<path d="M395.711 311.841L381.041 307.195L383.272 304.673L399.377 309.004L395.711 311.841Z" fill="#473B3F"/>
<path d="M338.958 295.158L324.287 290.508L326.518 287.986L342.623 292.317L338.958 295.158Z" fill="#473B3F"/>
<path d="M465.758 291.995L528.3 269.909L370.515 225.129L352.318 265.463L465.758 291.995Z" fill="#090110" stroke="#090110" stroke-width="1.25" stroke-miterlimit="10"/>
<path d="M494.015 239.146L504.374 267.694C504.374 267.694 506.195 272.786 502.558 273.515C498.92 274.244 479.4 272.32 479.4 272.32L494.015 239.146Z" fill="#1E1E1E" stroke="#090110" stroke-width="2.46" stroke-miterlimit="10"/>
<path d="M498.11 194.039C498.11 194.039 507.473 193.999 509.231 198.617C509.888 200.342 509.231 202.075 508.992 202.705C488.739 255.944 483.145 265.092 471.937 283.388C471.094 284.823 469.946 286.056 468.574 286.998C466.797 288.193 464.88 288.683 462.366 288.962C459.158 289.35 455.912 289.291 452.72 288.787C446.628 287.592 407.573 279.093 354.031 267.028C352.553 266.005 351.422 264.555 350.788 262.873C350.497 262.052 350.19 260.737 350.788 256.872C351.198 254.28 351.828 251.727 352.673 249.242" fill="#666565"/>
<path d="M498.11 194.039C498.11 194.039 507.473 193.999 509.231 198.617C509.888 200.342 509.231 202.075 508.992 202.705C488.739 255.944 483.145 265.092 471.937 283.388C471.094 284.823 469.946 286.056 468.574 286.998C466.797 288.193 464.88 288.683 462.366 288.962C459.158 289.35 455.912 289.291 452.72 288.787C446.628 287.592 407.573 279.093 354.031 267.028C352.553 266.005 351.422 264.555 350.788 262.873C350.497 262.052 350.19 260.737 350.788 256.872C351.198 254.28 351.828 251.727 352.673 249.242" stroke="#090110" stroke-width="2.46" stroke-miterlimit="10"/>
<path d="M500.749 194.465L460.443 281.97L354.247 258.04C353.279 258.04 351.697 257.936 350.813 256.876C348.522 254.127 352.733 247.139 354.048 244.903C366.798 223.208 384.357 175.794 384.357 175.794L500.749 194.465Z" fill="#1E1E1E" stroke="#090110" stroke-width="2.46" stroke-miterlimit="10"/>
<path d="M489.548 202.159C478.552 225.002 467.556 247.854 456.562 270.714L362.072 248.919C371.441 227.568 380.819 206.22 390.206 184.875L489.548 202.159Z" fill="#739BFF" stroke="#090110" stroke-width="1.8" stroke-miterlimit="10"/>
<path d="M135.15 279.934L197.545 307.665C197.545 307.665 202.327 310.773 210.694 307.665C219.061 304.558 317.555 279.934 317.555 279.934C317.555 279.934 321.619 285.433 316.12 288.062C310.622 290.692 207.586 314.598 207.586 314.598C207.586 314.598 196.111 316.75 193.959 314.598C191.808 312.447 135.15 289.265 135.15 289.265C135.15 289.265 127.5 279.934 135.15 279.934Z" fill="#4D3F40" stroke="#090110" stroke-width="2" stroke-miterlimit="10"/>
<path d="M131.884 281.504C131.884 281.504 131.063 276.683 139.323 274.065C147.582 271.447 248.467 253.876 248.467 253.876C248.467 253.876 255.16 251.844 257.192 253.876C259.225 255.908 314.328 275.511 314.328 275.511C314.328 275.511 317.556 278.38 317.556 279.934L211.878 307.267C211.878 307.267 205.172 311.052 196.654 307.267L147.272 285.321L135.151 279.934C135.151 279.934 131.983 280.205 131.884 281.504Z" fill="#605656" stroke="#090110" stroke-width="2" stroke-miterlimit="10"/>
<path d="M156.904 277.663L207.705 299.656L297.114 277.663L249.661 258.06L156.904 277.663Z" fill="#4D3F40" stroke="#090110" stroke-width="0.75" stroke-miterlimit="10"/>
<path d="M217.977 281.95L218.232 281.643C218.395 281.44 218.658 281.157 219.009 280.802C220.017 279.812 221.165 278.975 222.415 278.316C224.294 277.326 226.37 276.767 228.491 276.679C229.687 276.619 230.906 276.679 232.149 276.679C232.771 276.679 233.396 276.679 234.022 276.603C234.644 276.552 235.259 276.432 235.854 276.244C236.431 276.063 236.977 275.795 237.472 275.447C237.951 275.087 238.378 274.662 238.739 274.184C239.488 273.228 240.09 272.156 240.823 271.208C241.174 270.735 241.575 270.301 242.018 269.913C242.454 269.555 242.935 269.256 243.449 269.025C244.356 268.652 245.311 268.408 246.286 268.299C248.039 268.076 249.445 267.953 250.393 267.666C250.606 267.613 250.815 267.546 251.019 267.467C251.174 267.419 251.324 267.359 251.469 267.287L251.836 267.124L251.489 267.327C251.351 267.413 251.207 267.489 251.059 267.554C250.86 267.654 250.655 267.742 250.445 267.817C249.513 268.216 248.079 268.455 246.377 268.797C245.468 268.964 244.585 269.25 243.751 269.65C243.319 269.88 242.917 270.163 242.556 270.495C242.172 270.865 241.826 271.274 241.524 271.714C240.875 272.622 240.329 273.706 239.532 274.77C239.128 275.329 238.644 275.827 238.098 276.248C237.519 276.675 236.874 277.003 236.189 277.22C235.524 277.437 234.835 277.57 234.137 277.619C233.475 277.673 232.809 277.689 232.145 277.667C230.862 277.639 229.655 277.539 228.515 277.547C226.492 277.553 224.492 277.975 222.638 278.786C221.373 279.343 220.189 280.066 219.116 280.938C218.718 281.253 218.447 281.508 218.263 281.691L217.977 281.95Z" fill="#B3B3C6" stroke="#B3B3C6" stroke-width="0.08" stroke-miterlimit="10"/>
<path d="M390.998 196.744C390.998 196.744 395.01 189.795 399.572 190.524C404.134 191.253 469.359 204.262 469.359 204.262C469.359 204.262 473.741 207.016 472.148 210.956C470.554 214.897 452.656 258.37 452.656 258.37C452.656 258.37 451.381 263.331 446.345 262.53C441.309 261.729 376.048 246.505 376.048 246.505C376.048 246.505 372.921 246.808 373.757 241.532C374.594 236.257 390.998 196.744 390.998 196.744Z" fill="#97E8E6"/>
<path d="M378.806 227.723L398.146 213.698C398.146 213.698 400.935 210.271 402.238 214.347C403.541 218.423 403.123 220.945 403.123 220.945L417.753 208.104C417.753 208.104 420.634 204.207 422.005 208.781C423.375 213.355 424.945 242.011 424.945 242.011L436.958 236.496C436.958 236.496 442.245 235.727 444.098 238.281C445.951 240.835 453.023 256.163 453.023 256.163C453.023 256.163 450.453 263.18 446.361 262.538C442.269 261.897 377.687 246.911 377.687 246.911C377.687 246.911 372.128 246.35 373.782 241.528C375.435 236.707 378.806 227.723 378.806 227.723Z" fill="#E38C6F"/>
<path d="M444.223 230.822C450.187 230.822 455.021 225.988 455.021 220.025C455.021 214.061 450.187 209.227 444.223 209.227C438.26 209.227 433.426 214.061 433.426 220.025C433.426 225.988 438.26 230.822 444.223 230.822Z" fill="#FDB247"/>
<path d="M142.577 223.714L188.417 273.547C188.417 273.547 201.486 285.548 202.88 284.149C204.275 282.751 194.864 266.18 194.864 266.18L146.876 219.316C146.876 219.316 138.278 214.917 142.577 223.714Z" fill="#4D3F40" stroke="#090110" stroke-width="1.71" stroke-miterlimit="10"/>
<path d="M190.783 275.666L197.804 271.562C197.804 271.562 203.163 282.177 203.023 283.165C202.884 284.153 200.804 283.563 200.804 283.563L190.783 275.666Z" fill="black" stroke="#090110" stroke-width="0.64" stroke-miterlimit="10"/>
<path d="M110.184 222.288C124.684 219.687 138.555 214.345 151.055 206.55C152.565 205.725 155.972 204.159 159.422 205.291C164.463 206.948 166.276 213.75 166.845 215.865C170.033 227.703 164.176 243.433 152.9 252.852C138.68 264.746 121.049 262.215 117.949 261.717" fill="#0D3E66"/>
<path d="M118.036 261.195C118.036 261.195 118.538 261.247 119.487 261.307C120.435 261.367 121.845 261.419 123.646 261.383C125.829 261.334 128.006 261.148 130.165 260.825C132.996 260.408 135.783 259.727 138.488 258.793C141.725 257.676 144.805 256.148 147.652 254.247C150.865 252.055 153.736 249.399 156.171 246.366C157.489 244.727 158.687 242.996 159.757 241.186L160.534 239.771L160.932 239.058C161.056 238.819 161.167 238.568 161.287 238.321C161.518 237.827 161.757 237.333 161.992 236.835C162.227 236.337 162.39 235.815 162.618 235.301C163.068 234.285 163.363 233.205 163.737 232.141C163.893 231.603 164.028 231.058 164.175 230.512L164.395 229.691L164.554 228.854C165.034 226.621 165.259 224.341 165.223 222.057L165.199 221.2C165.203 220.917 165.188 220.633 165.156 220.352C165.092 219.79 165.032 219.232 164.972 218.674C164.913 218.116 164.753 217.586 164.654 217.041C164.554 216.495 164.403 215.917 164.255 215.379C163.654 213.22 162.829 211.191 161.677 209.642C161.156 208.915 160.507 208.29 159.761 207.797C159.415 207.576 159.046 207.393 158.661 207.251C158.263 207.116 157.851 207.021 157.434 206.968C155.745 206.757 153.804 207.267 152.127 208.084C151.298 208.534 150.298 209.116 149.366 209.614C148.433 210.112 147.485 210.61 146.553 211.076C144.692 212.012 142.859 212.869 141.07 213.642C137.754 215.078 134.367 216.344 130.922 217.435C125.962 219.009 120.89 220.208 115.749 221.021C113.936 221.304 112.526 221.479 111.566 221.591L110.104 221.746L111.526 221.384C112.458 221.14 113.829 220.778 115.578 220.272C120.496 218.855 125.326 217.147 130.041 215.156C133.022 213.901 136.229 212.403 139.584 210.642C141.263 209.765 142.973 208.817 144.716 207.797C145.584 207.287 146.46 206.756 147.341 206.203L150.111 204.462L150.549 204.227L150.947 204.016C151.226 203.88 151.513 203.745 151.808 203.617C152.405 203.361 153.018 203.147 153.645 202.976C154.988 202.594 156.388 202.449 157.781 202.549C158.52 202.604 159.252 202.738 159.964 202.948C160.694 203.172 161.395 203.478 162.056 203.86C163.326 204.614 164.444 205.599 165.351 206.765C167.108 209 168.14 211.514 168.885 214.024C169.068 214.662 169.236 215.24 169.371 215.925C169.507 216.61 169.674 217.248 169.77 217.917C169.865 218.586 169.925 219.26 170.005 219.937C170.044 220.273 170.065 220.611 170.068 220.949L170.096 221.965C170.139 224.618 169.863 227.267 169.275 229.854L169.072 230.803L168.813 231.731C168.634 232.345 168.471 232.962 168.279 233.568C167.841 234.763 167.483 235.958 166.941 237.086C166.686 237.656 166.451 238.225 166.188 238.779L165.347 240.409C165.203 240.68 165.072 240.951 164.925 241.206L164.458 242.003L163.534 243.537C162.271 245.469 160.863 247.304 159.323 249.023C156.468 252.219 153.123 254.941 149.413 257.087C146.208 258.904 142.768 260.269 139.189 261.144C136.28 261.852 133.305 262.263 130.312 262.371C128.077 262.455 125.839 262.382 123.615 262.152C121.79 261.952 120.391 261.705 119.455 261.514C118.519 261.323 118.036 261.195 118.036 261.195Z" fill="black" stroke="black" stroke-width="0.4" stroke-miterlimit="10"/>
<path d="M88.8039 32.0659H32.0664V94.4453H88.8039V32.0659Z" fill="#FFEDDE" stroke="black" stroke-width="0.62" stroke-miterlimit="10"/>
<path d="M49.9803 47.3301H41.0234V85.8191H49.9803V47.3301Z" fill="#FFF0A9" stroke="black" stroke-width="0.62" stroke-miterlimit="10"/>
<path d="M58.9354 57.9482H49.9785V85.8189H58.9354V57.9482Z" fill="#D800EF" stroke="black" stroke-width="0.83" stroke-miterlimit="10"/>
<path d="M67.8963 67.5708H58.9395V85.8192H67.8963V67.5708Z" fill="#240BA0" stroke="black" stroke-width="0.83" stroke-miterlimit="10"/>
<path d="M76.8534 73.5435H67.8965V85.8193H76.8534V73.5435Z" stroke="black" stroke-width="0.83" stroke-miterlimit="10"/>
<path d="M69.4208 23.7109H57.4238V40.4174H69.4208V23.7109Z" fill="#E5A76A"/>
<path d="M78.3215 335.034C72.8053 335.023 67.3043 334.456 61.9019 333.341C59.6946 332.436 59.2324 331.747 59.2403 331.305C59.2403 330.293 61.7465 328.241 78.3653 325.866C91.199 324.029 110.714 322.236 136.366 320.535C136.613 320.486 136.863 320.459 137.115 320.455C137.594 320.428 138.065 320.583 138.434 320.89C138.765 321.22 138.959 321.662 138.98 322.129C138.944 324.121 129.704 326.081 122.281 327.655C114.732 329.249 110.575 330.124 109.81 330.281C93.5179 333.333 84.5451 335.01 78.6124 335.034H78.3215Z" fill="#090110"/>
<path d="M137.113 320.742C137.518 320.713 137.918 320.84 138.232 321.097C138.503 321.368 138.662 321.73 138.679 322.113C138.679 322.356 138.32 323.248 133.929 324.575C130.941 325.479 127.028 326.332 122.219 327.364C114.418 329.018 110.505 329.85 109.752 329.99C93.48 333.038 84.5112 334.715 78.6103 334.735H78.3195C72.8315 334.724 67.3587 334.161 61.9835 333.054C59.6407 332.09 59.5291 331.428 59.5291 331.305C59.5291 331.181 59.7523 330.197 63.9637 328.95C67.1512 328.01 72.0082 327.069 78.4031 326.161C91.2408 324.328 110.736 322.535 136.384 320.834H136.424H136.463C136.677 320.79 136.895 320.768 137.113 320.766M137.113 320.172C136.855 320.174 136.597 320.201 136.344 320.252C84.7808 323.668 58.9793 327.351 58.9395 331.301C58.9395 332.066 59.897 332.841 61.8122 333.628C67.2431 334.751 72.7737 335.321 78.3195 335.329H78.6103C84.4514 335.309 93.0019 333.735 109.864 330.571C110.617 330.432 114.525 329.603 122.339 327.942C131.164 326.073 139.233 324.316 139.272 322.137C139.258 321.583 139.027 321.057 138.631 320.67C138.206 320.318 137.665 320.136 137.113 320.16V320.172Z" fill="#090110"/>
<path d="M61.4746 329.508C61.4746 329.508 75.3402 322.834 76.6949 323.252C78.0496 323.671 81.0777 327.838 78.2608 332.114C72.535 332.68 66.7593 331.783 61.4746 329.508Z" fill="#EFA87C" stroke="black" stroke-width="1.74" stroke-miterlimit="10"/>
<path d="M78.2606 332.098L135.181 323.862C142.166 318.128 134.138 314.793 134.138 314.793L76.5234 323.236C76.5234 323.236 81.735 325.878 78.2606 332.098Z" fill="#D78147" stroke="black" stroke-width="1.74" stroke-linecap="round" stroke-linejoin="round"/>
<path d="M79.6523 326.658C79.6922 326.886 79.728 327.129 79.7559 327.388C79.7966 327.803 79.8085 328.221 79.7918 328.639C88.823 327.438 98.0097 326.119 107.352 324.682C117.331 323.144 127.102 321.527 136.665 319.829C137.127 319.582 137.569 319.279 137.521 319.032C137.474 318.785 136.725 318.706 136.489 318.686C134.852 318.574 105.758 322.798 79.6523 326.658Z" fill="#BC6022"/>
<path d="M70.125 328.089L70.2445 329.181L79.0898 328.344C79.1448 328.049 79.1448 327.747 79.0898 327.452C79.0461 327.236 78.9737 327.027 78.8747 326.83L70.125 328.089Z" fill="#CC9275"/>
<path d="M69.2845 325.894C70.0948 327.779 70.2724 329.876 69.7905 331.87C67.0598 331.424 64.3871 330.676 61.8218 329.639L61.5469 329.523L69.2367 325.937" fill="black"/>
<path d="M54.1034 311.223C66.8069 311.223 77.1052 307.347 77.1052 302.565C77.1052 297.784 66.8069 293.907 54.1034 293.907C41.3998 293.907 31.1016 297.784 31.1016 302.565C31.1016 307.347 41.3998 311.223 54.1034 311.223Z" fill="#090110" stroke="#090110" stroke-width="1.32" stroke-miterlimit="10"/>
<path d="M154.57 396.007C167.274 396.007 177.572 392.131 177.572 387.349C177.572 382.567 167.274 378.691 154.57 378.691C141.867 378.691 131.568 382.567 131.568 387.349C131.568 392.131 141.867 396.007 154.57 396.007Z" fill="#090110" stroke="#090110" stroke-width="1.32" stroke-miterlimit="10"/>
<path d="M54.331 272.953C65.58 272.953 74.6991 270.754 74.6991 268.041C74.6991 265.327 65.58 263.128 54.331 263.128C43.082 263.128 33.9629 265.327 33.9629 268.041C33.9629 270.754 43.082 272.953 54.331 272.953Z" fill="#EF8535" stroke="black" stroke-width="0.69" stroke-miterlimit="10"/>
<path d="M34.7263 277.101L38.3122 302.549C38.3122 302.549 38.2046 305.386 43.1731 307.406C48.1416 309.426 65.6131 308.881 67.9081 306.61C70.2031 304.338 70.5298 304.753 71.1833 301.366C71.8367 297.979 74.2234 270.184 74.2234 270.184C74.2234 270.184 45.9582 278.105 33.9453 269.148L34.7263 277.101Z" fill="#F3A466" stroke="black" stroke-width="1.83" stroke-miterlimit="10"/>
<path d="M40.5457 271.475L37.8164 248.103L40.5457 234.891L45.6776 247.884L48.7376 272.459" fill="#987C86"/>
<path d="M40.5457 271.475L37.8164 248.103L40.5457 234.891L45.6776 247.884L48.7376 272.459" stroke="black" stroke-width="1.83" stroke-linecap="round" stroke-linejoin="round"/>
<path d="M63.8206 240.333L56.4336 272.93L63.5656 272.029C65.587 261.991 67.6058 251.957 69.6219 241.927L63.8206 240.333Z" fill="#D27B55" stroke="black" stroke-width="0.91" stroke-miterlimit="10"/>
<path d="M66.4522 241.453C69.2412 242.409 70.6557 241.875 71.337 241.453C74.5524 239.5 74.6361 231.998 70.835 222.726C63.7348 229.727 60.643 236.528 62.7507 239.588C63.2049 240.257 64.1492 241.134 66.4522 241.453Z" fill="#D27B55" stroke="black" stroke-width="0.91" stroke-miterlimit="10"/>
<path d="M133.967 353.354C125.568 353.398 118.994 360.494 119.392 368.351C119.791 376.471 127.548 382.974 136.127 381.703C136.043 381.025 135.915 380.045 135.728 378.87C135.115 374.706 134.82 374.152 134.342 373.814C133.25 373.049 132.31 374.212 130.533 373.714C128.353 373.097 127.05 370.582 126.652 368.746C126.201 366.682 126.492 363.626 128.385 362.243C130.377 360.801 132.816 362.12 133.74 360.649C134.138 360.004 133.844 359.474 133.74 357.462C133.685 356.088 133.761 354.713 133.967 353.354Z" fill="#70432D" stroke="black" stroke-width="2.43" stroke-miterlimit="10"/>
<path d="M134.344 349.358C134.523 347.864 137.113 346.828 139.5 345.668C141.807 344.541 144.114 344.011 152.389 343.947C164.789 343.847 167.697 344.975 169.124 345.621C171.23 346.574 173.183 347.833 174.921 349.358C174.921 349.358 177.71 371.949 169.379 388.803C169.379 388.803 152.126 395.927 138.452 387.126C138.468 387.114 131.766 370.877 134.344 349.358Z" fill="#70432D" stroke="black" stroke-width="3.23" stroke-miterlimit="10"/>
<path d="M171.244 349.752L170.132 350.517C169.075 351.165 167.959 351.709 166.797 352.143C165.07 352.779 163.279 353.223 161.454 353.465C159.225 353.771 156.971 353.858 154.725 353.724C152.486 353.607 150.258 353.332 148.059 352.9C146.035 352.501 144.238 352.051 142.744 351.617C141.249 351.182 140.058 350.772 139.245 350.469C138.433 350.166 137.99 349.983 137.99 349.983C137.99 349.983 139.823 350.549 142.843 351.218C146.763 352.105 150.749 352.67 154.76 352.908C159.45 353.186 163.717 352.669 166.666 351.752C167.837 351.4 168.976 350.951 170.072 350.409L171.244 349.752Z" fill="black" stroke="black" stroke-width="0.07" stroke-miterlimit="10"/>
<path d="M167.806 351.481C170.435 350.214 160.634 349.242 155.104 349.294C150.953 349.333 146.841 350.088 142.947 351.525C142.947 351.525 159.056 355.697 167.806 351.481Z" fill="#3D2014"/>
<path d="M167.827 351.521L167.349 351.74C166.89 351.95 166.421 352.136 165.943 352.298C164.173 352.869 162.342 353.232 160.488 353.378C157.743 353.595 154.984 353.565 152.245 353.286C150.693 353.143 149.082 352.932 147.412 352.653C146.579 352.509 145.734 352.354 144.877 352.175L143.571 351.888C143.172 351.788 142.746 351.689 142.339 351.581H142.26C142.284 351.573 142.308 351.564 142.331 351.553L142.483 351.501L142.786 351.39L143.387 351.171L144.109 350.928L144.746 350.724C145.168 350.597 145.595 350.473 146.017 350.362C146.862 350.139 147.701 349.949 148.535 349.792C150.141 349.48 151.766 349.282 153.4 349.198C154.954 349.123 156.432 349.155 157.811 349.218C159.189 349.282 160.468 349.382 161.636 349.497C163.481 349.645 165.311 349.945 167.106 350.394C167.382 350.471 167.649 350.577 167.903 350.708C168.118 350.82 168.302 351.003 168.202 351.147C168.129 351.247 168.031 351.328 167.919 351.382L167.804 351.442L167.915 351.378C168.023 351.321 168.116 351.239 168.186 351.139C168.27 351.011 168.102 350.848 167.887 350.74C167.632 350.618 167.365 350.522 167.09 350.453C165.289 350.055 163.458 349.803 161.616 349.7C160.452 349.609 159.173 349.537 157.799 349.497C156.424 349.457 154.958 349.445 153.416 349.537C151.81 349.636 150.213 349.842 148.635 350.155C147.814 350.31 146.981 350.505 146.145 350.728C145.746 350.844 145.308 350.963 144.889 351.091L144.26 351.29L143.718 351.473H143.69H143.726L144.985 351.752C145.834 351.936 146.674 352.095 147.503 352.238C149.157 352.529 150.766 352.756 152.284 352.92C155.005 353.23 157.747 353.308 160.48 353.151C162.324 353.047 164.15 352.734 165.923 352.219C166.545 352.019 167.027 351.848 167.341 351.709L167.827 351.521Z" fill="black" stroke="black" stroke-width="0.03" stroke-miterlimit="10"/>
<path d="M149.757 315.642C150.729 319.184 153.713 322.164 154.415 322.842C157.431 325.746 159.26 325.467 160.949 328.225C161.092 328.46 163.184 331.978 162.288 335.982C161.626 338.935 159.499 341.489 159.961 341.859C160.072 341.947 160.276 341.859 160.359 341.819C165.603 339.5 167.316 335.444 167.316 335.444C168.794 331.946 168.392 327.699 166.607 324.491C163.778 319.403 158.837 319.407 158.271 315.152C158.112 313.957 158.451 312.698 159.132 310.179C160.088 306.653 161.395 305.972 161.523 303.681C161.634 301.577 160.814 298.553 159.268 298.139C156 297.234 147.53 307.542 149.757 315.642Z" fill="#CCCAAF"/>
<path d="M149.39 331.703L147.227 329.061C147.227 329.061 144.521 322.232 150.641 326.42C156.761 330.607 156.761 336.022 156.761 336.022C156.761 336.022 156.466 339.341 155.598 340.21C154.729 341.078 153.928 337.954 153.41 337.421C152.892 336.887 151.163 332.217 149.39 331.703Z" fill="#CCCAAF"/>
<path d="M204.881 332.101L244.657 353.37L308.953 328.643L239.294 316.674L204.268 329.635L204.881 332.101Z" fill="#090110" stroke="#090110" stroke-width="1.32" stroke-miterlimit="10"/>
<path d="M204.268 329.631C204.268 329.631 262.686 322.081 270.866 316.268L302.996 320.344C285.951 332.257 276.763 336.966 271.448 338.939C270.197 339.401 265.679 341.007 259.18 343.584C251.849 346.497 251.913 346.716 250.415 347.071C243.43 348.74 237.788 344.971 228.218 340.098C220.442 336.153 212.445 332.658 204.268 329.631Z" fill="#F2902F" stroke="#090110" stroke-width="2.74" stroke-miterlimit="10"/>
<path d="M208.539 329.723C208.539 329.723 258.782 322.873 265.814 317.602L293.45 321.292C293.45 321.292 266.32 345.011 249.737 343.429C233.155 341.847 208.539 329.723 208.539 329.723Z" fill="#F2DBC4" stroke="#090110" stroke-width="2.74" stroke-miterlimit="10"/>
<path d="M297.728 316.702C297.728 316.702 247.182 320.383 239.297 316.674L212.9 326.009C212.9 326.009 243.959 343.644 259.916 338.664C275.873 333.683 297.728 316.702 297.728 316.702Z" fill="#EA9C4E" stroke="#090110" stroke-width="2.74" stroke-miterlimit="10"/>
<path d="M293.19 316.837C293.19 316.837 242.648 320.519 234.759 316.809L208.383 326.144C208.383 326.144 239.441 343.779 255.398 338.799C271.356 333.818 293.19 316.837 293.19 316.837Z" fill="#FDCB93" stroke="#090110" stroke-width="2.74" stroke-miterlimit="10"/>
<path d="M416.3 104.39L364.802 102.076C364.054 102.041 363.321 101.855 362.647 101.528C361.974 101.201 361.374 100.741 360.885 100.174C360.395 99.608 360.026 98.9478 359.8 98.2341C359.574 97.5204 359.496 96.7682 359.57 96.0233L366.898 27.0219C367.041 25.67 367.68 24.419 368.69 23.5098C369.701 22.6006 371.013 22.0974 372.372 22.0972H420.408C421.155 22.0972 421.894 22.2494 422.581 22.5444C423.267 22.8393 423.887 23.2709 424.401 23.8129C424.915 24.3549 425.314 24.9959 425.573 25.6969C425.832 26.3979 425.945 27.1442 425.906 27.8904L422.045 99.2108C421.961 100.656 421.311 102.01 420.235 102.979C419.16 103.949 417.746 104.456 416.3 104.39Z" fill="#FFE6BF" stroke="black" stroke-width="2.95" stroke-miterlimit="10"/>
<path d="M407.641 36.8193H382.472C380.395 36.8193 378.711 38.5033 378.711 40.5806V52.1074C378.711 54.1847 380.395 55.8686 382.472 55.8686H407.641C409.719 55.8686 411.403 54.1847 411.403 52.1074V40.5806C411.403 38.5033 409.719 36.8193 407.641 36.8193Z" fill="#889987"/>
<path d="M377.439 68.981H387.759" stroke="#889987" stroke-width="5.9" stroke-linecap="round" stroke-linejoin="round"/>
<path d="M396.166 69.5391H408.394" stroke="#889987" stroke-width="7.95" stroke-linecap="round" stroke-linejoin="round"/>
<path d="M375.527 78.6831H409.924" stroke="#889987" stroke-width="13.34" stroke-linecap="round" stroke-linejoin="round"/>
<path d="M375.527 88.3853H409.924" stroke="#889987" stroke-width="13.34" stroke-linecap="round" stroke-linejoin="round"/>
<path d="M-28.8223 298.84V314.793L165.297 443.19L165.663 424.384L-28.8223 298.84Z" fill="#73382C" stroke="#090110" stroke-width="2" stroke-miterlimit="10"/>
<path d="M537.951 311.227L550.984 392.748H575.209L559.674 303.115L537.951 311.227Z" fill="#73382C" stroke="#090110" stroke-width="2" stroke-miterlimit="10"/>
</g>
<path d="M181.134 355.741L247.873 367.156C247.873 367.156 265.551 368.67 265.802 366.71C266.053 364.75 248.47 357.386 248.47 357.386L181.848 349.629C181.848 349.629 172.353 351.422 181.134 355.741Z" fill="#4D3F40" stroke="#090110" stroke-width="1.71" stroke-miterlimit="10"/>
<path d="M251.039 367.391L254.087 359.853C254.087 359.853 264.817 364.976 265.311 365.829C265.805 366.682 263.797 367.499 263.797 367.499L251.039 367.391Z" fill="black" stroke="#090110" stroke-width="0.64" stroke-miterlimit="10"/>
<path d="M154.896 205.291L215.021 201.334L218.117 279.305L158.841 283.078L154.896 205.291Z" fill="#F4DEC9" stroke="#090110" stroke-width="2.74" stroke-miterlimit="10"/>
<path d="M164.34 216.236L206.734 214.005" stroke="#090110" stroke-width="2.74" stroke-linecap="round" stroke-linejoin="round"/>
<path d="M164.34 225.061L206.734 222.83" stroke="#090110" stroke-width="2.74" stroke-linecap="round" stroke-linejoin="round"/>
<path d="M164.34 231.771L206.734 229.54" stroke="#090110" stroke-width="2.74" stroke-linecap="round" stroke-linejoin="round"/>
<path d="M164.34 240.716L206.734 238.485" stroke="#090110" stroke-width="2.74" stroke-linecap="round" stroke-linejoin="round"/>
<path d="M164.34 250.219L190.278 247.732L164.34 250.219Z" fill="#F4DEC9"/>
<path d="M164.34 250.219L190.278 247.732" stroke="#090110" stroke-width="2.15" stroke-linecap="round" stroke-linejoin="round"/>
<path d="M164.34 258.467L190.477 256.235" stroke="#090110" stroke-width="2.15" stroke-linecap="round" stroke-linejoin="round"/>
<path d="M164.34 265.985L190.477 263.753" stroke="#090110" stroke-width="2.15" stroke-linecap="round" stroke-linejoin="round"/>
<path d="M164.24 273.508L190.378 271.276" stroke="#090110" stroke-width="2.15" stroke-linecap="round" stroke-linejoin="round"/>
<path d="M202.581 248.059L203.844 254.279L207.53 249.111L206.159 255.307L211.626 252.087L207.852 257.187L214.156 256.47L208.633 259.594L214.686 261.502L208.366 262.112L213.124 266.315L207.103 264.303L209.737 270.077L205.055 265.79L205.111 272.137L202.581 266.315L200.051 272.137L200.103 265.79L195.425 270.077L198.059 264.303L192.038 266.315L196.792 262.112L190.477 261.502L196.529 259.594L191.003 256.47L197.31 257.187L193.533 252.087L199.003 255.307L197.629 249.111L201.314 254.279L202.581 248.059Z" fill="#F71C1C" stroke="#090110" stroke-width="1.17" stroke-linecap="square" stroke-linejoin="round"/>
<path d="M202.582 264.172C204.833 264.172 206.658 262.347 206.658 260.096C206.658 257.845 204.833 256.02 202.582 256.02C200.331 256.02 198.506 257.845 198.506 260.096C198.506 262.347 200.331 264.172 202.582 264.172Z" fill="#F9D319" stroke="#090110" stroke-width="1.17" stroke-linecap="square" stroke-linejoin="round"/>
<path d="M627.746 275.101C627.746 275.101 569.953 254.607 572.056 240.646C572.201 239.362 572.731 238.154 573.575 237.185C578.521 231.735 594.179 237.451 604.313 243.719C605.657 244.55 606.591 245.204 606.873 245.395C612.626 249.401 622.256 257.809 632 276L627.746 275.101Z" fill="#D6B97F" stroke="#090110" stroke-width="0.8" stroke-miterlimit="10"/>
<path d="M597 200.312C597 200.312 597.3 181.909 609.121 194.272C619.825 205.487 627.906 219.709 633.876 237.508C634.109 238.18 634.276 238.717 634.609 239.737C641.704 261.536 645.179 272.516 641.538 276.611C640.326 277.953 637.844 279.463 632.106 278.866C632.106 278.866 624.245 267.228 616.13 254.489C611.79 247.683 602.491 237.307 598.964 224.703C598.571 223.3 598.298 222.018 598.298 222.018C598.298 222.018 596.834 215.615 597.027 200.286L597 200.312Z" fill="#B59968" stroke="#090110" stroke-width="0.8" stroke-miterlimit="10"/>
<path d="M642.395 198.34C643.872 195.789 650.82 183.776 657.054 185.102C659.102 185.537 660.515 187.111 661.765 189.387C666.516 198.092 666.555 208.224 665.31 218.57C664.222 227.576 663.509 227.214 657.793 251.763C654.138 267.472 652.258 276.981 647.054 277.938C645.916 278.109 644.754 277.924 643.717 277.409C630.056 271.483 634.644 228.252 635.117 223.605C636.121 214.11 637.852 206.215 642.395 198.34Z" fill="#D6B97F" stroke="#090110" stroke-width="0.8" stroke-miterlimit="10"/>
<path d="M655.337 277.367C655.337 277.367 684.722 260.157 689.986 244.11C695.249 228.062 692.718 227.02 689.227 227C685.736 226.98 670.341 228.726 665.796 234.516C661.251 240.306 640.399 269.114 650.939 277.234C651.566 277.707 652.328 277.974 653.116 277.998C653.905 278.022 654.681 277.801 655.337 277.367Z" fill="#B29769" stroke="#090110" stroke-width="0.8" stroke-miterlimit="10"/>
<path d="M627 255C627 255 626.131 252.428 624.888 248.249C623.543 244.104 621.818 238.364 619.635 232.176C617.453 225.988 615.219 220.463 613.101 216.706C612.296 215.194 611.363 213.76 610.313 212.42C610.023 212.045 609.712 211.69 609.38 211.355C609.261 211.228 609.134 211.11 609 211C609 211 609.174 211.087 609.451 211.261C609.849 211.517 610.232 211.799 610.597 212.105C611.925 213.231 613.128 214.51 614.182 215.916C616.918 219.391 619.861 224.843 622.101 231.198C623.945 236.639 625.307 242.243 626.17 247.941C626.788 252.288 627 255 627 255Z" fill="#D6B97F" stroke="#D6B97F" stroke-width="0.13" stroke-miterlimit="10"/>
<path d="M654 265C654 265 655.211 262.561 657.389 258.719C660.289 253.739 663.635 249.041 667.385 244.685C671.841 239.619 676.653 235.676 680.493 233.513C681.985 232.622 683.573 231.907 685.226 231.383C685.659 231.242 686.102 231.132 686.55 231.054C686.698 231.025 686.849 231.007 687 231L686.583 231.168C686.168 231.346 685.764 231.548 685.372 231.773C683.915 232.609 682.531 233.569 681.234 234.641C677.884 237.328 673.747 241.554 669.398 246.492C665.049 251.43 661.288 256.132 658.475 259.498C655.662 262.864 654 265 654 265Z" fill="#D6B97F" stroke="#D6B97F" stroke-width="0.13" stroke-miterlimit="10"/>
<path d="M642 261C642 261 644.013 246.776 647.329 229.362C650.644 211.948 654 198 654 198C654 198 651.987 212.224 648.678 229.638C645.369 247.052 642 261 642 261Z" fill="#B29769" stroke="#B29769" stroke-width="0.07" stroke-miterlimit="10"/>
<path d="M619 266C619 266 610.363 261.226 600.145 254.59C589.926 247.954 582 242 582 242C582 242 590.637 246.774 600.862 253.403C611.087 260.032 619 266 619 266Z" fill="#B29769" stroke="#B29769" stroke-width="0.07" stroke-miterlimit="10"/>
<path d="M681 318.427C681 322.845 663.987 326.427 643 326.427C622.013 326.427 605 322.845 605 318.427C605 314.008 622.013 310.427 643 310.427C663.987 310.427 681 314.008 681 318.427Z" fill="#090110"/>
<path d="M676.844 288.12L609.326 289.999C608.777 290.015 608.243 289.832 607.825 289.485C607.407 289.138 607.135 288.651 607.063 288.12L605.02 273.168C604.978 272.866 605.002 272.559 605.089 272.266C605.177 271.974 605.327 271.703 605.529 271.471C605.731 271.239 605.981 271.051 606.263 270.92C606.544 270.789 606.851 270.718 607.163 270.711L675.58 269.001C676.149 268.986 676.702 269.186 677.124 269.558C677.547 269.931 677.806 270.448 677.849 271.003L678.993 285.786C679.017 286.079 678.979 286.374 678.883 286.652C678.786 286.93 678.632 287.186 678.431 287.404C678.23 287.622 677.986 287.799 677.713 287.922C677.44 288.045 677.144 288.112 676.844 288.12Z" fill="#EA9B65" stroke="#090110" stroke-width="2.41" stroke-miterlimit="10"/>
<path d="M671.302 315.644C654.072 319.666 636.324 320.914 618.711 319.341C612.197 301.292 610.425 291.379 613.396 289.603C613.726 289.435 614.086 289.335 614.455 289.309C614.824 289.284 615.194 289.333 615.543 289.453L673 287C672.432 296.559 671.866 306.107 671.302 315.644Z" fill="#EA9B65" stroke="#090110" stroke-width="2.41" stroke-miterlimit="10"/>
<defs>
<linearGradient id="paint0_linear_377_6340" x1="6" y1="327" x2="752" y2="327" gradientUnits="userSpaceOnUse">
<stop stop-color="#1F8BF7"/>
<stop offset="1" stop-color="#DC33FC"/>
</linearGradient>
</defs>
</svg>
