<svg width="250" height="235" viewBox="0 0 250 235" fill="none" xmlns="http://www.w3.org/2000/svg">
<path d="M69.8257 103.113C71.9027 98.5989 59.9023 59.9077 84.2118 30.6141C89.4747 24.2772 100.882 12.8231 119.005 7.77244C124.855 6.14349 149.974 0.0038619 173.414 15.7291C191.952 28.1661 198.126 46.6851 199.789 52.4334C199.789 52.4334 205.483 71.7654 204.18 81.988C204.18 81.988 215.158 135.537 211.864 161.979C208.57 188.421 189.476 210.659 159.838 213.769C130.199 216.878 107.586 217.105 89.8044 209.992C72.0226 202.879 55.5535 173.106 62.5787 155.33C62.5787 155.33 62.3749 119.332 69.8257 103.113Z" fill="#0D3E66" stroke="black" stroke-width="10.26" stroke-miterlimit="10"/>
<path d="M196.646 100.956C221.657 49.4848 232.498 48.9175 235.855 49.7881C244.846 52.1026 248.952 77.1344 242.607 96.4512C233.214 125.062 203.045 134.615 199.149 135.782" fill="#0D3E66"/>
<path d="M198.9 134.957C198.9 134.957 199.467 134.736 200.534 134.275C201.601 133.814 203.165 133.11 205.131 132.109C207.098 131.108 209.462 129.822 212.091 128.166C215.055 126.303 217.896 124.245 220.594 122.005C223.81 119.331 226.763 116.349 229.414 113.102L229.947 112.45L230.457 111.773C230.796 111.318 231.149 110.863 231.485 110.399C231.821 109.935 232.138 109.45 232.471 108.97L232.72 108.609L232.951 108.236L233.421 107.487L233.895 106.735C234.053 106.486 234.194 106.219 234.338 105.961C234.638 105.439 234.938 104.921 235.237 104.387C235.537 103.853 235.786 103.304 236.065 102.758L236.271 102.348L236.46 101.927C236.586 101.648 236.712 101.365 236.838 101.08C236.964 100.798 237.093 100.516 237.221 100.231C237.35 99.9458 237.449 99.6516 237.569 99.3634C237.794 98.7779 238.031 98.1925 238.252 97.601C238.642 96.3876 239.083 95.1925 239.418 93.9366C240.13 91.3673 240.67 88.7527 241.037 86.1104C241.831 80.5206 241.945 74.8535 241.378 69.2355C241.106 66.4544 240.589 63.7033 239.835 61.015C239.481 59.7695 239.035 58.5527 238.501 57.3749C238.049 56.3477 237.465 55.385 236.766 54.5113C236.308 53.9109 235.702 53.4423 235.01 53.1524C234.743 53.0634 234.462 53.0284 234.182 53.0492C233.768 53.088 233.359 53.1766 232.966 53.3131C231.949 53.6945 230.985 54.2041 230.094 54.8298C229.606 55.1514 229.132 55.5275 228.653 55.8915L227.948 56.48L227.598 56.7834L227.256 57.0867C225.429 58.7518 223.704 60.5287 222.092 62.4073C221.283 63.3173 220.516 64.2607 219.754 65.1798C219.377 65.644 219.014 66.1172 218.645 66.5783C218.277 67.0393 217.914 67.4883 217.563 67.9645C214.731 71.6653 212.22 75.2447 209.966 78.5815C205.47 85.2307 202.008 90.7788 199.62 94.6161L195.9 100.586L196.566 98.8932C197.009 97.786 197.645 96.1419 198.529 94.0398C200.273 89.8536 202.881 83.8262 206.588 76.5643C208.452 72.9393 210.592 69.008 213.152 64.8917C213.451 64.373 213.799 63.8603 214.138 63.3416C214.476 62.8229 214.809 62.2981 215.16 61.7764C215.873 60.7329 216.592 59.6742 217.378 58.6186C218.99 56.3933 220.749 54.2812 222.644 52.2969L223.021 51.9117L223.42 51.5295L224.223 50.762C224.792 50.2615 225.353 49.7549 225.982 49.2726C227.313 48.2066 228.775 47.3205 230.331 46.6366C231.268 46.2419 232.249 45.9658 233.253 45.8145C234.422 45.6472 235.611 45.7017 236.76 45.9753C237.874 46.2556 238.934 46.7243 239.895 47.3616C240.759 47.9311 241.55 48.6066 242.251 49.3727C243.477 50.7353 244.506 52.2673 245.308 53.9228C246.062 55.442 246.693 57.0205 247.196 58.6428C248.162 61.7966 248.813 65.0403 249.141 68.3255C249.477 71.533 249.577 74.7614 249.441 77.9839C249.315 81.0998 248.978 84.2033 248.431 87.2722C247.905 90.2431 247.161 93.1703 246.207 96.0297C245.748 97.4402 245.17 98.7961 244.636 100.14C244.337 100.801 244.037 101.453 243.737 102.103C243.581 102.424 243.437 102.752 243.276 103.064C243.114 103.377 242.943 103.689 242.778 104.001L242.281 104.93L242.032 105.391L241.765 105.84L240.704 107.593C240.335 108.169 239.949 108.725 239.574 109.286C239.382 109.562 239.202 109.844 239.005 110.111C238.807 110.378 238.606 110.645 238.405 110.909L237.806 111.697L237.506 112.089L237.206 112.465L235.975 113.951C235.558 114.436 235.123 114.894 234.707 115.359C234.494 115.589 234.287 115.823 234.074 116.047L233.421 116.702C230.241 119.912 226.723 122.76 222.931 125.196C219.849 127.173 216.621 128.905 213.275 130.377C210.776 131.486 208.218 132.451 205.611 133.265C203.474 133.932 201.793 134.351 200.654 134.609C199.515 134.866 198.9 134.957 198.9 134.957Z" fill="black" stroke="black" stroke-width="0.86" stroke-miterlimit="10"/>
<path d="M77.2903 111.112C19.9947 119.341 5.18608 127.987 4.83242 135.109C4.35288 145.025 31.5695 158.864 56.8081 155.673C73.9875 153.498 85.832 143.994 91.1129 139.107" fill="#0D3E66"/>
<path d="M91.6908 139.738L91.3731 140.081C91.1603 140.302 90.8546 140.648 90.429 141.076C89.5928 141.943 88.331 143.199 86.5957 144.716C84.4816 146.564 82.2467 148.266 79.9062 149.809C76.7781 151.882 73.4672 153.657 70.0158 155.111C65.7846 156.897 61.3573 158.163 56.8285 158.882C51.6093 159.68 46.3136 159.834 41.0578 159.34C35.252 158.809 29.5298 157.577 24.0133 155.67C21.0653 154.654 18.1961 153.418 15.4296 151.972C13.9905 151.217 12.5901 150.389 11.2336 149.491C9.80469 148.558 8.4417 147.527 7.1546 146.403C5.77077 145.2 4.53236 143.835 3.46516 142.338C2.87749 141.5 2.3754 140.603 1.96662 139.662C1.49837 138.593 1.20483 137.454 1.09746 136.289C0.991752 135.018 1.14058 133.739 1.53503 132.528C1.63993 132.243 1.75082 131.96 1.86471 131.684C1.9786 131.408 2.12246 131.166 2.25134 130.908C2.5139 130.428 2.80829 129.967 3.13249 129.528C3.28834 129.312 3.45318 129.133 3.61502 128.936C3.77686 128.739 3.93571 128.539 4.10654 128.375L4.61006 127.868C4.77789 127.702 4.94573 127.532 5.11657 127.389C5.46123 127.104 5.8029 126.782 6.14757 126.534C6.49224 126.285 6.8399 126.009 7.18756 125.772C9.96887 123.895 12.7442 122.675 15.4656 121.623C18.1869 120.57 20.8603 119.76 23.4828 119.038C28.7187 117.628 33.7149 116.611 38.4024 115.823C43.0898 115.034 47.4626 114.43 51.4607 113.966C59.454 113.026 65.9427 112.568 70.4264 112.301C72.6682 112.155 74.4125 112.089 75.5934 112.031L77.3916 111.955L75.6353 112.368L70.6062 113.523C66.2394 114.524 59.9185 115.95 52.177 117.858C48.3078 118.805 44.0849 119.872 39.5892 121.104C35.0936 122.335 30.3372 123.731 25.4699 125.414C23.0482 126.27 20.5966 127.195 18.2079 128.26C17.0091 128.781 15.8432 129.364 14.7043 129.964C13.6103 130.555 12.5542 131.214 11.5423 131.939C10.7046 132.541 9.95837 133.263 9.32749 134.084C9.14188 134.346 8.99076 134.632 8.87793 134.933C8.85018 135.032 8.83113 135.134 8.82098 135.237C8.81332 135.282 8.81332 135.328 8.82098 135.373C8.81671 135.426 8.81671 135.478 8.82098 135.531C8.84196 135.98 9.18963 136.841 9.81602 137.724C10.5371 138.707 11.3645 139.605 12.2826 140.402C14.3496 142.187 16.6004 143.741 18.9961 145.037C21.4152 146.368 23.9182 147.535 26.4889 148.532C31.428 150.454 36.5503 151.854 41.7741 152.709C46.5272 153.498 51.3502 153.767 56.1602 153.513C60.3936 153.264 64.588 152.552 68.6701 151.389C72.094 150.416 75.4338 149.162 78.6564 147.64C81.1266 146.479 83.5283 145.175 85.8494 143.733C87.7646 142.52 89.2212 141.531 90.1952 140.83L91.6908 139.738Z" fill="black" stroke="black" stroke-width="0.86" stroke-miterlimit="10"/>
<path d="M97.3801 113.794C92.4678 109.286 82.5774 98.8388 79.7601 82.7799C76.5502 64.6522 82.4755 39.939 99.3552 32.4495C105.068 29.9166 110.723 29.9348 114.835 30.4505C114.835 30.4505 129.653 29.4494 142.166 58.1152C142.166 58.1152 150.072 18.4503 173.123 27.4504C196.173 36.4506 198.811 73.1124 198.811 78.4482C198.811 83.784 194.849 101.111 188.93 107.12C191.045 111.591 213.506 160.811 188.822 195.781C185.336 200.713 180.13 206.486 172.218 211.694C172.218 211.694 134.595 219.514 121.42 215.756C110.591 212.668 99.6669 212.049 92.8964 202.839C87.0311 194.862 87.0491 185.443 87.3907 180.893C87.3907 180.893 87.6095 155.339 93.9844 138.895C100.359 122.451 97.3801 113.794 97.3801 113.794Z" fill="#BAEAFF" stroke="black" stroke-width="5.49" stroke-linejoin="round"/>
<path d="M128.115 71.8927C128.115 71.8927 142.717 47.322 159.285 60.669C175.853 74.0161 128.115 71.8927 128.115 71.8927Z" fill="#FA8510" stroke="black" stroke-width="3.66" stroke-miterlimit="10"/>
<path d="M128.115 74.2254C128.115 74.2254 141.003 97.9437 150.95 87.8909C160.898 77.8382 152.748 70.9038 152.748 70.9038C152.748 70.9038 149.293 83.0011 128.115 74.2254Z" fill="#FA8510" stroke="black" stroke-width="3.66" stroke-miterlimit="10"/>
<path d="M129.767 74.8779C129.767 74.8779 147.198 81.1358 152.245 72.0144L151.139 70.895L128.104 71.893L129.767 74.8779Z" fill="#EA0738" stroke="black" stroke-width="3.66" stroke-miterlimit="10"/>
<path d="M111.621 73.9344C114.758 73.9344 117.3 70.0774 117.3 65.3195C117.3 60.5616 114.758 56.7046 111.621 56.7046C108.484 56.7046 105.941 60.5616 105.941 65.3195C105.941 70.0774 108.484 73.9344 111.621 73.9344Z" fill="black" stroke="black" stroke-width="7.09" stroke-miterlimit="10"/>
<path d="M173.527 70.0726C176.664 70.0726 179.207 66.2155 179.207 61.4577C179.207 56.6998 176.664 52.8428 173.527 52.8428C170.39 52.8428 167.848 56.6998 167.848 61.4577C167.848 66.2155 170.39 70.0726 173.527 70.0726Z" fill="black" stroke="black" stroke-width="7.09" stroke-miterlimit="10"/>
<path d="M99.1452 96.6335C104.172 96.6335 108.247 92.5089 108.247 87.421C108.247 82.3331 104.172 78.2085 99.1452 78.2085C94.1182 78.2085 90.043 82.3331 90.043 87.421C90.043 92.5089 94.1182 96.6335 99.1452 96.6335Z" fill="#F4A127" stroke="black" stroke-width="3.66" stroke-miterlimit="10"/>
<path d="M186.315 89.8478C191.342 89.8478 195.417 85.7232 195.417 80.6353C195.417 75.5474 191.342 71.4229 186.315 71.4229C181.288 71.4229 177.213 75.5474 177.213 80.6353C177.213 85.7232 181.288 89.8478 186.315 89.8478Z" fill="#F4A127" stroke="black" stroke-width="3.66" stroke-miterlimit="10"/>
<path d="M62.3759 175.162C62.3759 175.162 52.0898 169.605 52.0898 176.773C52.0898 183.941 69.4461 196.514 73.1984 196.514C73.2074 196.514 62.3759 182.385 62.3759 175.162Z" fill="#0D3E66" stroke="black" stroke-width="10.26" stroke-miterlimit="10"/>
<path d="M92.2369 210.905C92.2369 210.905 76.0945 217.175 78.9147 224.388C81.735 231.602 88.2417 225.019 88.2417 225.019C88.2417 225.019 84.3725 229.266 87.0069 231.935C89.6414 234.605 104.129 238.394 119.445 215.831C119.445 215.831 95.7674 212.928 92.2369 210.905Z" fill="#FA8510" stroke="black" stroke-width="1.75" stroke-miterlimit="10"/>
<path d="M155.176 215.831C155.176 215.831 165.714 224.601 169.664 225.602C173.614 226.603 177.732 228.769 179.554 225.602C181.376 222.435 190.53 225.766 194.702 221.546C198.874 217.327 197.213 212.71 191.243 208.936C185.273 205.163 184.739 205.706 184.739 205.706C184.739 205.706 163.409 215.831 155.176 215.831Z" fill="#FA8510" stroke="black" stroke-width="1.75" stroke-miterlimit="10"/>
<path d="M111.939 87.4205C123.322 87.4205 132.55 76.9128 132.55 63.951C132.55 50.9891 123.322 40.4814 111.939 40.4814C100.556 40.4814 91.3281 50.9891 91.3281 63.951C91.3281 76.9128 100.556 87.4205 111.939 87.4205Z" stroke="black" stroke-width="5" stroke-miterlimit="10"/>
<path d="M197.642 60.1897C197.642 73.0636 188.351 83.6593 177.031 83.6593C165.711 83.6593 156.42 73.0636 156.42 60.1897C156.42 47.3159 165.711 36.7202 177.031 36.7202C188.021 36.7202 197.174 46.7305 197.624 59.2312L197.642 60.1897Z" stroke="black" stroke-width="5" stroke-miterlimit="10"/>
<path d="M132.908 61.1605C132.908 61.1605 144.51 48.0925 156.945 59.0614" stroke="black" stroke-width="5" stroke-linecap="round" stroke-linejoin="round"/>
<path d="M90.7105 61.8372C86.059 61.7795 82.3815 61.9373 79.9209 62.0889C76.5222 62.2982 73.8008 62.5925 70.9296 60.918C70.6868 60.7755 67.7857 59.0495 68.1183 57.7208C68.3281 56.8745 69.7547 56.4802 70.8906 56.3164C76.8848 55.4579 90.9113 55.9766 90.9113 55.9766L90.7105 61.8372Z" fill="black" stroke="black" stroke-width="4.19" stroke-miterlimit="10"/>
<path d="M36.9916 97.7405C36.9916 97.7405 42.9318 95.0104 43.4923 101.484C44.0527 107.957 41.8109 152.072 41.8109 152.072C41.8109 152.072 42.0716 157.365 37.2913 158.955C32.5109 160.544 11.5522 166.177 11.5522 166.177C11.5522 166.177 5.1264 168.907 3.74473 162.167C2.36307 155.427 6.21135 121.519 6.21135 121.519C6.21135 121.519 3.85563 107.566 11.3274 105.3L18.7992 103.031L36.9916 97.7405Z" fill="#424242" stroke="black" stroke-width="0.62" stroke-miterlimit="10"/>
<path d="M36.3202 104.208C36.3202 104.208 37.591 103.225 37.8518 105.266C38.1125 107.308 35.9846 147.498 35.9846 147.498C35.9846 147.498 36.2453 149.199 34.1863 149.654C32.1273 150.109 11.2165 155.703 11.2165 155.703C11.2165 155.703 9.53516 156.382 9.53516 154.49C9.53516 152.597 11.813 116.717 11.813 116.717L12.1876 113.769C12.15 113.164 12.323 112.564 12.6767 112.074C13.0303 111.584 13.5423 111.235 14.1237 111.087C16.2547 110.481 28.1711 106.665 28.1711 106.665L36.3202 104.208Z" fill="#191919" stroke="black" stroke-width="1.87" stroke-miterlimit="10"/>
</svg>
