<svg width="183" height="239" viewBox="0 0 183 239" fill="none" xmlns="http://www.w3.org/2000/svg">
<path d="M88.8846 238.318C65.3986 238.318 43.324 236.601 26.7202 233.48C10.4825 230.431 1.16992 226.269 1.16992 222.056C1.16992 217.844 10.4825 213.685 26.7202 210.633C43.324 207.515 65.3986 205.798 88.8846 205.798C112.371 205.798 134.445 207.515 151.049 210.633C167.287 213.685 176.599 217.848 176.599 222.056C176.599 226.265 167.287 230.431 151.049 233.48C134.445 236.611 112.371 238.318 88.8846 238.318Z" fill="#090110"/>
<path d="M88.8841 206.075C112.354 206.075 134.412 207.788 150.999 210.906C159.039 212.416 165.34 214.169 169.736 216.12C174.053 218.039 176.332 220.095 176.332 222.053C176.332 224.011 174.05 226.084 169.736 227.986C165.34 229.937 159.039 231.69 150.999 233.2C134.412 236.314 112.354 238.031 88.8841 238.031C65.4146 238.031 43.3565 236.341 26.7692 233.229C18.7295 231.72 12.4277 229.966 8.0319 228.015C3.71525 226.097 1.43656 224.04 1.43656 222.083C1.43656 220.125 3.71525 218.055 8.0319 216.15C12.4277 214.199 18.7295 212.445 26.7692 210.936C43.3565 207.818 65.4146 206.104 88.8841 206.104M88.8841 205.57C40.293 205.57 0.902344 212.97 0.902344 222.096C0.902344 231.222 40.293 238.621 88.8841 238.621C137.475 238.621 176.866 231.225 176.866 222.096C176.866 212.966 137.475 205.57 88.8841 205.57Z" fill="#090110"/>
<path d="M30.7228 133.236C30.7228 133.236 12.7175 125.985 16.4109 103.573C16.4109 103.573 8.49655 -3.477 100.304 13.3979C100.304 13.3979 97.7314 3.37842 99.4461 3.37842C101.161 3.37842 106.041 10.893 106.041 10.893C106.041 10.893 107.427 13.5956 108.746 10.893C110.065 8.19039 110.065 5.09227 110.065 5.09227C110.065 5.09227 110.988 2.25782 112.307 6.3447C113.101 8.72945 113.193 11.2922 112.571 13.7275L112.307 15.3095C112.307 15.3095 117.715 10.4975 119.694 11.6181C121.672 12.7387 119.958 14.4526 119.958 14.4526L117.122 18.2758C125.198 21.7892 136.809 28.4699 145.877 40.8855C158.366 57.9878 158.474 75.6306 158.587 93.6854C158.646 103.352 157.426 110.906 153.31 118.134C151.364 121.527 148.931 124.616 146.088 127.303C146.088 127.303 177.607 158.459 170.303 197.383C169.832 199.898 169.212 202.382 168.447 204.822L170.722 197.802C170.722 197.802 183.484 194.687 179.23 204.526C174.976 214.364 160.037 223.213 154.497 225.735C153.248 226.305 151.721 227.102 149.551 227.966C126.876 236.944 91.2745 232.847 88.5869 232.508C56.6721 228.493 40.7147 226.486 31.0756 216.819C17.3178 203.029 16.2164 184.253 15.9064 178.983C14.4653 154.788 27.1679 137.708 30.7228 133.236Z" fill="#0D3E66" stroke="black" stroke-width="5" stroke-miterlimit="10"/>
<path d="M93.9388 233.045L118.269 233.575C118.269 233.575 146.457 220.247 138.147 188.31C129.837 156.373 125.821 143.914 116.947 137.092C121.128 134.907 125.026 132.218 128.551 129.083C131.034 126.871 135.951 122.491 139.137 116.427C144.927 105.386 142.434 93.593 141.214 89.0711C141.214 89.0711 140.818 63.7258 121.824 53.6404C119.38 52.3452 113.151 49.0526 105.388 50.1336C94.5819 51.6365 88.2141 60.5881 83.3138 67.4765C75.8545 77.9673 73.2031 88.7975 72.2171 96.3055C72.2171 96.3055 69.2921 61.155 55.4419 52.1573C41.5917 43.1596 26.0135 54.6391 19.1676 68.4785C19.1676 68.4785 15.2367 92.2088 16.2491 99.4168L16.081 105.989C16.081 105.989 15.9029 111.737 16.1469 113.279C16.3909 114.822 18.6168 121.812 19.6127 123.322C20.6086 124.831 24.8626 129.465 24.8626 129.465L30.716 133.236C30.716 133.236 11.2103 157.549 16.3118 184.154C21.4133 210.758 30.1917 215.939 30.1917 215.939C32.462 218.159 34.9727 220.119 37.6774 221.783C44.8036 226.16 51.4088 227.284 56.0948 228.045C71.0662 230.431 84.125 232.01 93.9388 233.045Z" fill="#BAEAFF" stroke="black" stroke-width="3" stroke-linejoin="round"/>
<path d="M5.7912 152.22C5.7912 152.22 1.04256 141.749 12.3206 140.76C23.5986 139.771 100.566 143.727 100.566 143.727C100.566 143.727 109.8 143.265 112.57 151.703C115.34 160.14 125.167 197.12 125.167 197.12C125.167 197.12 129.915 208.457 118.176 210.896C106.436 213.335 47.2758 206.546 47.2758 206.546C47.2758 206.546 22.9391 210.699 18.9819 197.515L15.0247 184.332L5.7912 152.22Z" fill="#424242" stroke="black" stroke-miterlimit="10"/>
<path d="M133.677 147.079C127.102 154.708 119.133 161.017 110.197 165.667C109.185 166.27 107.078 167.727 106.547 170.15C105.795 173.591 108.736 176.662 110.197 178.192C116.107 184.371 127.18 187.318 137.327 184.783C147.906 182.147 153.891 174.471 155.837 171.715" fill="#0D3E66"/>
<path d="M156.128 171.939C156.128 171.939 155.954 172.236 155.591 172.786C155.228 173.337 154.677 174.138 153.902 175.13C151.688 177.945 149.033 180.384 146.041 182.354C143.94 183.728 141.675 184.835 139.3 185.65C136.554 186.58 133.689 187.115 130.792 187.239L129.638 187.285L128.468 187.262C127.683 187.262 126.895 187.183 126.093 187.117C125.691 187.094 125.292 187.028 124.89 186.972L123.679 186.794L122.469 186.54L121.859 186.411C121.655 186.365 121.457 186.306 121.252 186.25L120.035 185.92C119.63 185.798 119.231 185.65 118.825 185.515C118.011 185.258 117.226 184.885 116.421 184.556C114.808 183.807 113.273 182.9 111.837 181.85C110.418 180.77 109.12 179.54 107.966 178.182C106.832 176.843 105.763 175.314 105.229 173.442C104.954 172.487 104.878 171.485 105.005 170.499C105.136 169.531 105.473 168.603 105.994 167.776C106.482 167.019 107.085 166.342 107.781 165.769C108.423 165.233 109.127 164.776 109.879 164.408C114.496 162.185 118.91 159.561 123.069 156.567C125.892 154.529 128.594 152.328 131.162 149.975C132.075 149.138 132.774 148.473 133.243 148.018L133.958 147.322C133.958 147.322 133.747 147.593 133.351 148.113C132.956 148.634 132.362 149.385 131.544 150.335C129.26 153.024 126.78 155.54 124.125 157.862C122.285 159.473 120.365 160.989 118.373 162.407C117.295 163.172 116.164 163.937 114.97 164.688C114.377 165.061 113.767 165.436 113.143 165.802L112.197 166.353L111.25 166.883C110.173 167.455 109.264 168.298 108.612 169.329C108.332 169.805 108.157 170.335 108.1 170.885C108.043 171.434 108.106 171.989 108.283 172.513C108.635 173.67 109.443 174.856 110.436 175.983C111.449 177.145 112.577 178.202 113.803 179.137C115.054 180.053 116.385 180.854 117.78 181.53C118.492 181.83 119.178 182.189 119.904 182.42C120.26 182.552 120.613 182.694 120.975 182.812L122.06 183.142C122.242 183.195 122.416 183.257 122.601 183.303L123.145 183.438L124.233 183.705L125.325 183.906C125.688 183.972 126.047 184.048 126.41 184.084C127.135 184.173 127.851 184.282 128.567 184.315L129.632 184.391H130.69C135.727 184.457 140.7 183.259 145.154 180.907C146.891 179.991 148.546 178.926 150.1 177.727C151.289 176.815 152.42 175.829 153.487 174.777C154.367 173.904 155.024 173.192 155.466 172.694C155.907 172.196 156.128 171.939 156.128 171.939Z" fill="black" stroke="black" stroke-width="0.33" stroke-miterlimit="10"/>
<path d="M17.0689 153.406C17.0689 153.406 15.3541 151.165 18.9156 150.704C22.4771 150.242 92.5855 154 92.5855 154C92.5855 154 95.5534 153.538 96.3448 157.164C97.1363 160.789 106.897 197.703 106.897 197.703C106.897 197.703 108.085 200.669 104.787 200.669C101.489 200.669 38.8995 196.648 38.8995 196.648L33.7551 195.989C33.7551 195.989 30.1277 196.319 29.0724 192.561C28.0172 188.804 21.3559 167.786 21.3559 167.786L17.0689 153.406Z" fill="#191919" stroke="black" stroke-width="3" stroke-miterlimit="10"/>
<path d="M61.8828 89.0713C61.8828 89.0713 70.559 81.2271 78.4074 89.0713" stroke="black" stroke-width="5" stroke-miterlimit="10"/>
<path d="M126.621 84.2329C130.994 83.2211 134.4 82.2554 136.672 81.5698C139.802 80.6239 142.278 79.7637 145.391 80.4789C145.659 80.5415 148.814 81.293 148.844 82.4564C148.864 83.1947 147.624 83.8407 146.602 84.2329C141.193 86.3027 127.92 89.0713 127.92 89.0713L126.621 84.2329Z" fill="black" stroke="black" stroke-width="3.48" stroke-miterlimit="10"/>
<path d="M44.5239 107.132C47.3924 107.132 49.7177 104.189 49.7177 100.557C49.7177 96.9258 47.3924 93.9819 44.5239 93.9819C41.6554 93.9819 39.3301 96.9258 39.3301 100.557C39.3301 104.189 41.6554 107.132 44.5239 107.132Z" fill="black" stroke="black" stroke-width="3.87" stroke-miterlimit="10"/>
<path d="M101.231 107.923C104.099 107.923 106.425 104.98 106.425 101.348C106.425 97.7168 104.099 94.7729 101.231 94.7729C98.3625 94.7729 96.0371 97.7168 96.0371 101.348C96.0371 104.98 98.3625 107.923 101.231 107.923Z" fill="black" stroke="black" stroke-width="3.87" stroke-miterlimit="10"/>
<path d="M30.5326 122.261C35.5902 122.261 39.6902 117.94 39.6902 112.61C39.6902 107.281 35.5902 102.96 30.5326 102.96C25.475 102.96 21.375 107.281 21.375 112.61C21.375 117.94 25.475 122.261 30.5326 122.261Z" fill="#F4A127" stroke="black" stroke-width="2" stroke-miterlimit="10"/>
<path d="M116.96 124.04C122.018 124.04 126.118 119.72 126.118 114.39C126.118 109.06 122.018 104.74 116.96 104.74C111.903 104.74 107.803 109.06 107.803 114.39C107.803 119.72 111.903 124.04 116.96 124.04Z" fill="#F4A127" stroke="black" stroke-width="2" stroke-miterlimit="10"/>
<path d="M79.4607 111.351C79.4607 111.351 64.6212 118.009 58.4216 113.922C52.222 109.835 53.6169 104.927 55.5856 102.96C57.5543 100.992 63.0383 94.542 69.3699 95.7285C70.5636 95.9527 73.0863 96.1076 75.4244 97.9203C79.0386 100.722 80.5324 105.9 79.4607 111.351Z" fill="#FA8510" stroke="black" stroke-width="2" stroke-miterlimit="10"/>
<path d="M65.4572 118.108C65.4572 118.108 73.3716 121.074 77.3288 115.735L79.2448 111.45C79.2448 111.45 69.3518 116.229 62.5355 115.191C62.5256 115.191 62.7004 116.822 65.4572 118.108Z" fill="#FA8510" stroke="black" stroke-width="2" stroke-miterlimit="10"/>
<path d="M44.5236 230.629C40.8961 233.849 27.7549 228.246 20.9287 218.27C17.2815 212.94 14.4126 204.869 16.9715 202.581C18.6764 201.062 22.9337 201.962 25.2751 203.982C26.8909 205.379 28.0583 207.713 28.0055 207.759C27.9528 207.805 27.8967 207.739 27.8967 207.739C27.8967 207.739 25.0772 198.84 29.2158 199.088C32.9949 199.312 36.5135 203.043 37.1302 203.735C40.0717 207.031 41.3149 210.083 43.7585 216.071C45.2326 219.697 45.5689 221.206 45.7173 222.663C45.9613 224.855 46.3736 228.984 44.5236 230.629Z" fill="#FA8510" stroke="black" stroke-width="2" stroke-miterlimit="10"/>
<path d="M105.91 236.858C105.91 236.858 96.0826 234.09 90.9382 222.884C85.7939 211.678 88.5969 206.965 89.2234 206.338C89.85 205.712 91.3999 203.636 95.2911 205.712C99.1824 207.789 99.1824 211.417 99.1824 211.417C99.226 210.104 99.4084 208.8 99.7265 207.525C99.8551 207.034 101.046 204.229 103.14 203.636C105.946 202.845 109.056 206.48 110.236 207.864C114.721 213.105 115.209 219.374 115.437 222.95C115.766 228.045 116.04 232.396 113.026 235.006C110.678 237.036 107.496 237 105.91 236.858Z" fill="#FA8510" stroke="black" stroke-width="2" stroke-miterlimit="10"/>
<path d="M37.9584 117.02C51.1697 117.02 61.8797 105.451 61.8797 91.1805C61.8797 76.9096 51.1697 65.3408 37.9584 65.3408C24.747 65.3408 14.0371 76.9096 14.0371 91.1805C14.0371 105.451 24.747 117.02 37.9584 117.02Z" stroke="black" stroke-width="5" stroke-miterlimit="10"/>
<path d="M103.339 118.556C117.107 118.556 128.269 107.238 128.269 93.2769C128.269 79.3155 117.107 67.9976 103.339 67.9976C89.5699 67.9976 78.4082 79.3155 78.4082 93.2769C78.4082 107.238 89.5699 118.556 103.339 118.556Z" stroke="black" stroke-width="5" stroke-miterlimit="10"/>
</svg>
