<svg width="748" height="374" viewBox="0 0 748 374" fill="none" xmlns="http://www.w3.org/2000/svg">
<rect x="0.732422" width="747" height="374" rx="27" fill="#D9D9D9" fill-opacity="0.01"/>
<rect x="1.73242" y="242" width="746" height="132" rx="66" fill="url(#paint0_linear_377_5600)"/>
<mask id="mask0_377_5600" style="mask-type:luminance" maskUnits="userSpaceOnUse" x="0" y="11" width="724" height="348">
<path d="M723.47 11H0.734375V358.853H723.47V11Z" fill="white"/>
</mask>
<g mask="url(#mask0_377_5600)">
<path d="M498.81 169.042C510.464 169.042 519.911 159.581 519.911 147.912C519.911 136.242 510.464 126.782 498.81 126.782C487.156 126.782 477.709 136.242 477.709 147.912C477.709 159.581 487.156 169.042 498.81 169.042Z" stroke="black" stroke-width="5.19" stroke-miterlimit="10"/>
<path d="M489.857 151.86C491.45 151.86 492.74 150.065 492.74 147.851C492.74 145.637 491.45 143.842 489.857 143.842C488.265 143.842 486.975 145.637 486.975 147.851C486.975 150.065 488.265 151.86 489.857 151.86Z" fill="black" stroke="black" stroke-width="1.51" stroke-miterlimit="10"/>
<path d="M504.25 151.921C505.842 151.921 507.133 150.126 507.133 147.912C507.133 145.698 505.842 143.903 504.25 143.903C502.658 143.903 501.367 145.698 501.367 147.912C501.367 150.126 502.658 151.921 504.25 151.921Z" fill="black" stroke="black" stroke-width="1.51" stroke-miterlimit="10"/>
<path d="M490.611 160.317C491.366 157.294 494.321 155.466 497.083 156.051C498.292 156.341 499.37 157.027 500.146 157.999C500.923 158.972 501.353 160.176 501.369 161.421" stroke="black" stroke-width="3.89" stroke-linecap="round" stroke-linejoin="round"/>
<path d="M495.161 169.004L487.082 214.732" stroke="black" stroke-width="7.78" stroke-miterlimit="10" stroke-linecap="round"/>
<path d="M504.93 240.396L487.266 213.708L459.328 235.25" stroke="black" stroke-width="7.78" stroke-miterlimit="10" stroke-linecap="round"/>
<path d="M491.591 189.223L459.324 172.23" stroke="black" stroke-width="7.78" stroke-miterlimit="10" stroke-linecap="round"/>
<path d="M526.309 178.488L491.59 189.619" stroke="black" stroke-width="7.78" stroke-miterlimit="10" stroke-linecap="round"/>
<path d="M671.783 79.7696L637.139 78.209C636.634 78.1866 636.139 78.0609 635.685 77.8396C635.23 77.6184 634.826 77.3063 634.496 76.9225C634.167 76.5388 633.919 76.0915 633.769 75.6084C633.619 75.1252 633.569 74.6163 633.622 74.1131C635.263 58.621 636.905 43.129 638.55 27.6369C638.647 26.7263 639.077 25.8837 639.757 25.2713C640.437 24.6588 641.319 24.3198 642.233 24.3193H674.545C675.048 24.3197 675.547 24.4226 676.009 24.6219C676.471 24.8212 676.888 25.1126 677.235 25.4785C677.581 25.8444 677.849 26.277 678.023 26.7501C678.197 27.2232 678.273 27.7267 678.247 28.2301C677.379 44.2411 676.512 60.2508 675.647 76.2593C675.595 77.2364 675.16 78.1534 674.436 78.8108C673.713 79.4682 672.759 79.8128 671.783 79.7696Z" fill="#FFE6BF" stroke="black" stroke-width="2.1" stroke-miterlimit="10"/>
<path d="M665.956 34.2534H649.028C647.63 34.2534 646.496 35.3886 646.496 36.7888V44.55C646.496 45.9502 647.63 47.0854 649.028 47.0854H665.956C667.354 47.0854 668.488 45.9502 668.488 44.55V36.7888C668.488 35.3886 667.354 34.2534 665.956 34.2534Z" fill="#889987"/>
<path d="M645.643 55.9155H652.582" stroke="#889987" stroke-width="3" stroke-linecap="round" stroke-linejoin="round"/>
<path d="M658.238 56.2935H666.468" stroke="#889987" stroke-width="3" stroke-linecap="round" stroke-linejoin="round"/>
<path d="M644.357 62.4526H667.496" stroke="#889987" stroke-width="3" stroke-linecap="round" stroke-linejoin="round"/>
<path d="M644.357 68.9893H667.496" stroke="#889987" stroke-width="3" stroke-linecap="round" stroke-linejoin="round"/>
<path d="M637.098 331.576L656.64 321.484L693.578 328.467L674.462 340.902L637.098 331.576Z" fill="#FFEDCB" stroke="black" stroke-width="1.14" stroke-miterlimit="10"/>
<path d="M652.779 330.85C653.828 329.97 658.817 325.832 662.179 324.344C663.311 323.837 664.277 323.637 665.058 324.057C665.604 324.381 666.008 324.899 666.19 325.507L666.326 329.513C666.326 329.513 665.839 330.986 667.662 330.25C669.484 329.513 669.703 329.513 669.703 329.513C669.703 329.513 671.59 328.341 672.016 330.714C672.267 332.303 672.267 333.921 672.016 335.509L652.779 330.85Z" fill="#FFDAA4"/>
<path d="M671.441 337.845C671.441 337.845 665.694 336.934 658.766 335.155C651.838 333.375 646.363 331.421 646.363 331.421C646.363 331.421 652.11 332.332 659.034 334.112C665.959 335.891 671.441 337.845 671.441 337.845Z" fill="#FFDAA4" stroke="#FFDAA4" stroke-width="0.1" stroke-miterlimit="10"/>
<path d="M362.093 359.76C356.101 359.748 350.127 359.131 344.259 357.916C341.86 356.934 341.361 356.171 341.365 355.702C341.365 354.603 344.09 352.37 362.119 349.789C376.054 347.794 397.246 345.844 425.101 343.996H425.142C425.391 343.946 425.644 343.919 425.897 343.917C426.416 343.887 426.926 344.055 427.327 344.385C427.688 344.744 427.898 345.226 427.916 345.734C427.878 347.9 417.848 350.031 409.803 351.742L409.57 351.791C401.268 353.56 397.072 354.436 396.261 354.599C378.567 357.916 368.824 359.741 362.383 359.764L362.093 359.76Z" fill="#090110"/>
<path d="M425.931 344.216C426.368 344.184 426.801 344.319 427.143 344.594C427.439 344.888 427.613 345.283 427.629 345.701C427.629 345.961 427.252 346.932 422.471 348.38C419.23 349.362 414.977 350.288 409.755 351.402C401.287 353.201 397.035 354.104 396.22 354.259C378.549 357.573 368.813 359.398 362.402 359.421H362.089C356.131 359.408 350.19 358.795 344.354 357.592C341.811 356.545 341.686 355.827 341.69 355.702C341.694 355.578 341.932 354.497 346.505 353.144C349.969 352.12 355.24 351.096 362.184 350.103C376.107 348.111 397.276 346.162 425.139 344.314H425.181H425.222C425.455 344.265 425.693 344.24 425.931 344.238M425.931 343.596C425.65 343.598 425.37 343.625 425.094 343.679C369.096 347.387 341.08 351.389 341.045 355.684C341.045 356.515 342.075 357.361 344.166 358.211C350.062 359.436 356.067 360.058 362.089 360.067H362.406C368.745 360.044 378.028 358.325 396.34 354.894C397.159 354.739 401.404 353.836 409.887 352.033C419.471 350.001 428.233 348.089 428.275 345.72C428.256 345.118 428.006 344.546 427.577 344.125C427.116 343.743 426.529 343.546 425.931 343.573V343.596Z" fill="#090110"/>
<path d="M343.793 353.714C343.793 353.714 358.849 346.46 360.32 346.913C361.792 347.366 365.075 351.901 362.019 356.548C355.802 357.165 349.53 356.19 343.793 353.714Z" fill="#EFA87C" stroke="black" stroke-width="2" stroke-miterlimit="10"/>
<path d="M362.02 356.552L423.828 347.597C431.412 341.362 422.696 337.735 422.696 337.735L360.133 346.913C360.133 346.913 365.793 349.788 362.02 356.552Z" fill="#D78147" stroke="black" stroke-width="2" stroke-linecap="round" stroke-linejoin="round"/>
<path d="M363.527 350.639C363.579 350.901 363.617 351.166 363.641 351.432C363.688 351.884 363.7 352.339 363.678 352.793C373.489 351.485 383.466 350.051 393.609 348.489C404.426 346.816 415.039 345.053 425.449 343.199C425.955 342.927 426.434 342.598 426.377 342.349C426.321 342.099 425.528 341.971 425.245 341.971C423.472 341.846 391.877 346.437 363.527 350.639Z" fill="#BC6022"/>
<path d="M353.172 352.203C353.217 352.581 353.259 352.992 353.304 353.385L362.903 352.475C363.012 351.916 362.93 351.337 362.67 350.831L353.172 352.203Z" fill="#CC9275"/>
<path d="M352.275 349.808C353.153 351.856 353.345 354.133 352.822 356.299C349.848 355.816 346.937 355.003 344.144 353.873L343.842 353.749L352.192 349.834" fill="black"/>
<path d="M58.9648 354.357C69.3827 354.357 77.8281 351.166 77.8281 347.23C77.8281 343.295 69.3827 340.104 58.9648 340.104C48.5469 340.104 40.1016 343.295 40.1016 347.23C40.1016 351.166 48.5469 354.357 58.9648 354.357Z" fill="#090110" stroke="#090110" stroke-width="1.8" stroke-miterlimit="10"/>
<path d="M45.834 323.35C49.0008 322.144 52.3286 321.414 55.709 321.185C61.3279 320.83 66.9494 321.837 72.0969 324.121L70.9649 347.17C68.0225 349.887 64.2236 351.488 60.2264 351.695C56.2293 351.902 52.2857 350.702 49.0791 348.303C47.9949 340.142 46.9132 331.98 45.834 323.818" fill="#9BC699"/>
<path d="M45.834 323.35C49.0008 322.144 52.3286 321.414 55.709 321.185C61.3279 320.83 66.9494 321.837 72.0969 324.121L70.9649 347.17C68.0225 349.887 64.2236 351.488 60.2264 351.695C56.2293 351.902 52.2857 350.702 49.0791 348.303C47.9949 340.142 46.9132 331.98 45.834 323.818" stroke="black" stroke-width="2" stroke-miterlimit="10"/>
<path d="M46.8892 328.95C43.195 329.94 41.063 333.654 41.9083 336.968C42.629 339.794 45.3987 341.88 48.5948 341.827L49.0023 344.895C43.761 345.749 38.9575 342.67 37.7575 338.472C36.3274 333.476 40.1235 327.276 46.5534 326.418" fill="#9BC699"/>
<path d="M46.8892 328.95C43.195 329.94 41.063 333.654 41.9083 336.968C42.629 339.794 45.3987 341.88 48.5948 341.827L49.0023 344.895C43.761 345.749 38.9575 342.67 37.7575 338.472C36.3274 333.476 40.1235 327.276 46.5534 326.418" stroke="black" stroke-width="2" stroke-miterlimit="10"/>
<path d="M48.7031 324.498C51.8955 326.14 55.4095 327.059 58.996 327.19C62.5825 327.32 66.1538 326.66 69.4569 325.254C62.7565 323.003 55.549 322.741 48.7031 324.498Z" fill="#9BC699" stroke="black" stroke-width="2" stroke-miterlimit="10"/>
<path d="M375.648 31.3926H322.043C319.011 31.3926 316.553 33.854 316.553 36.8904V92.8318C316.553 95.8682 319.011 98.3296 322.043 98.3296H375.648C378.68 98.3296 381.138 95.8682 381.138 92.8318V36.8904C381.138 33.854 378.68 31.3926 375.648 31.3926Z" fill="#FDCB93" stroke="#090110" stroke-width="4.28" stroke-miterlimit="10"/>
<path d="M364.424 41.6436H335.848C334.197 41.6436 332.859 42.9834 332.859 44.6362V46.4121C332.859 48.0649 334.197 49.4047 335.848 49.4047H364.424C366.074 49.4047 367.412 48.0649 367.412 46.4121V44.6362C367.412 42.9834 366.074 41.6436 364.424 41.6436Z" fill="#E5A76A"/>
<path d="M357.693 60.9824H326.114C325.293 60.9824 324.627 61.6481 324.627 62.4693C324.627 63.2905 325.293 63.9561 326.114 63.9561H357.693C358.514 63.9561 359.18 63.2905 359.18 62.4693C359.18 61.6481 358.514 60.9824 357.693 60.9824Z" fill="#E5A76A"/>
<path d="M357.693 66.9639H326.114C325.293 66.9639 324.627 67.6296 324.627 68.4507C324.627 69.2719 325.293 69.9376 326.114 69.9376H357.693C358.514 69.9376 359.18 69.2719 359.18 68.4507C359.18 67.6296 358.514 66.9639 357.693 66.9639Z" fill="#E5A76A"/>
<path d="M356.901 72.9453H326.906C325.647 72.9453 324.627 73.9671 324.627 75.2276V77.6798C324.627 78.9403 325.647 79.9621 326.906 79.9621H356.901C358.16 79.9621 359.18 78.9403 359.18 77.6798V75.2276C359.18 73.9671 358.16 72.9453 356.901 72.9453Z" fill="#E5A76A"/>
<path d="M357.369 82.3237H326.438C325.438 82.3237 324.627 83.1358 324.627 84.1374V84.9385C324.627 85.9402 325.438 86.7522 326.438 86.7522H357.369C358.369 86.7522 359.18 85.9402 359.18 84.9385V84.1374C359.18 83.1358 358.369 82.3237 357.369 82.3237Z" fill="#E5A76A"/>
<path d="M374.221 60.2534H364.965C363.641 60.2534 362.568 61.3277 362.568 62.6528V76.9168C362.568 78.242 363.641 79.3162 364.965 79.3162H374.221C375.544 79.3162 376.617 78.242 376.617 76.9168V62.6528C376.617 61.3277 375.544 60.2534 374.221 60.2534Z" fill="#E5A76A"/>
<path d="M353.405 22.0972H343.727V35.5979H353.405V22.0972Z" fill="#6B4522"/>
<path d="M205.457 341.547C205.457 341.547 258.307 334.704 265.707 329.456L294.762 333.14C279.348 343.932 271.031 348.201 266.228 349.985C265.096 350.404 261.005 351.874 255.126 354.194C248.497 356.839 248.549 357.032 247.202 357.353C240.878 358.865 235.776 355.464 227.12 351.035C220.087 347.458 212.854 344.29 205.457 341.547Z" fill="#F2902F" stroke="#090110" stroke-width="2.61" stroke-miterlimit="10"/>
<path d="M209.322 341.623C209.322 341.623 254.777 335.423 261.139 330.666L286.137 334.006C286.137 334.006 261.591 355.491 246.592 354.059C231.593 352.626 209.322 341.623 209.322 341.623Z" fill="#F2DBC4" stroke="#090110" stroke-width="2.61" stroke-miterlimit="10"/>
<path d="M290.002 329.834C290.002 329.834 244.279 333.171 237.144 329.808L213.266 338.264C213.266 338.264 241.362 354.244 255.815 349.728C270.267 345.213 290.002 329.834 290.002 329.834Z" fill="#EA9C4E" stroke="#090110" stroke-width="2.61" stroke-miterlimit="10"/>
<path d="M285.904 329.959C285.904 329.959 240.178 333.292 233.042 329.929L209.164 338.389C209.164 338.389 237.261 354.365 251.698 349.849C266.135 345.334 285.904 329.959 285.904 329.959Z" fill="#FDCB93" stroke="#090110" stroke-width="2.61" stroke-miterlimit="10"/>
<path d="M408.551 321.378L607.885 313.602L536.092 330.885L408.551 321.378Z" fill="#090110"/>
<path d="M604.817 314.04L536.069 330.59L413.924 321.472L604.817 314.04ZM610.956 313.189L403.17 321.279L536.118 331.19L610.956 313.174V313.189Z" fill="#090110"/>
<path d="M192.045 334.361C169.623 334.361 148.545 332.577 132.697 329.339C117.181 326.169 108.275 321.839 108.275 317.459C108.275 313.08 117.181 308.75 132.686 305.58C148.534 302.341 169.612 300.554 192.034 300.554C214.455 300.554 235.534 302.341 251.386 305.58C266.887 308.746 275.777 313.076 275.777 317.459C275.777 321.843 266.887 326.169 251.386 329.339C235.534 332.577 214.455 334.361 192.045 334.361Z" fill="#090110"/>
<path d="M192.046 300.815C214.453 300.815 235.512 302.594 251.345 305.832C266.711 308.972 275.525 313.208 275.525 317.451C275.525 321.695 266.711 325.931 251.345 329.071C235.497 332.305 214.453 334.088 192.046 334.088C169.64 334.088 148.584 332.305 132.751 329.071C117.382 325.931 108.567 321.695 108.567 317.451C108.567 313.208 117.382 308.972 132.751 305.832C148.573 302.602 169.629 300.815 192.046 300.815ZM192.046 300.282C145.634 300.282 108.039 307.967 108.039 317.451C108.039 326.936 145.634 334.625 192.046 334.625C238.459 334.625 276.058 326.939 276.058 317.459C276.058 307.979 238.433 300.289 192.046 300.289V300.282Z" fill="#090110"/>
<path d="M689.186 297.871C678.127 297.871 669.127 295.808 669.127 293.277C669.127 290.745 678.127 288.678 689.186 288.678C700.246 288.678 709.242 290.741 709.242 293.277C709.242 295.812 700.242 297.871 689.186 297.871Z" fill="#090110"/>
<path d="M689.186 288.746C700.019 288.746 709.185 290.82 709.185 293.28C709.185 295.74 700.031 297.815 689.186 297.815C678.341 297.815 669.187 295.74 669.187 293.28C669.187 290.82 678.341 288.746 689.186 288.746ZM689.186 288.614C678.069 288.614 669.059 290.7 669.059 293.276C669.059 295.853 678.069 297.939 689.186 297.939C700.302 297.939 709.31 295.85 709.31 293.276C709.31 290.703 700.299 288.614 689.186 288.614Z" fill="#090110"/>
<path d="M415.111 275.597L401.64 316.858C401.64 316.858 400.564 320.826 403.149 321.279C405.734 321.733 414.017 321.279 414.017 321.279C414.017 321.279 416.507 321.676 417.382 317.909C418.258 314.142 430.589 276.447 430.589 276.447L415.111 275.597Z" fill="#DC8437" stroke="black" stroke-width="2" stroke-miterlimit="10"/>
<path d="M423.093 322.47C423.093 322.47 427.281 322.016 428.583 318.559C429.885 315.101 441.375 276.56 441.375 276.56L430.621 276.447L417.165 318.729C417.165 318.729 416.523 321.211 414.323 321.291C412.123 321.37 403.169 321.291 403.169 321.291C402.701 321.235 402.268 321.014 401.947 320.668C401.627 320.322 401.439 319.873 401.418 319.401C401.418 319.401 400.407 322.273 401.418 322.613C402.429 322.953 423.093 322.47 423.093 322.47Z" fill="#8D4A2E" stroke="black" stroke-width="2" stroke-miterlimit="10"/>
<path d="M523.785 281.166L519.37 325.171C519.37 325.171 518.295 329.139 520.88 329.592C523.464 330.045 531.747 329.592 531.747 329.592C532.216 329.637 532.687 329.542 533.102 329.32C534.479 328.621 534.939 326.898 535.113 326.221C535.762 323.678 537.754 305.987 540.067 281.96L523.785 281.166Z" fill="#DC8437" stroke="black" stroke-miterlimit="10"/>
<path d="M540.823 330.767C542.349 330.079 543.632 328.945 544.502 327.514C545.691 325.432 545.48 323.263 545.419 322.549C544.97 316.964 546.966 311.448 547.446 305.863C548.023 299.062 548.657 291.882 549.412 283.373L540.087 281.945C538.357 296.973 536.626 312.001 534.895 327.027C534.895 327.027 534.254 329.509 532.054 329.589C529.854 329.668 520.9 329.589 520.9 329.589C520.432 329.533 519.999 329.312 519.678 328.966C519.357 328.62 519.17 328.171 519.149 327.699C518.985 328.183 518.859 328.678 518.771 329.181C518.773 329.778 518.901 330.368 519.149 330.911C519.726 332.132 528.733 331.954 540.823 330.767Z" fill="#8D4A2E" stroke="black" stroke-width="2" stroke-miterlimit="10"/>
<path d="M563.669 283.022L397.096 274.044C395.796 273.974 394.572 273.408 393.676 272.462C392.781 271.516 392.281 270.262 392.281 268.958V260.415C392.282 259.073 392.812 257.785 393.755 256.831C394.698 255.878 395.979 255.335 397.319 255.321C427.536 254.887 449.463 256.077 464.368 257.362C477.858 258.495 486.801 259.814 502.857 259.954C506.325 259.984 517.6 260.025 532.482 260.687C539.693 261.008 544.478 261.325 550.478 262.448C555.68 263.424 560.797 264.814 565.779 266.604C566.776 266.964 567.636 267.627 568.239 268.5C568.842 269.373 569.157 270.413 569.141 271.475C569.108 273.653 569.075 275.836 569.043 278.023C569.031 278.709 568.881 279.385 568.602 280.011C568.323 280.638 567.921 281.201 567.419 281.668C566.917 282.135 566.326 282.495 565.682 282.728C565.038 282.961 564.353 283.061 563.669 283.022Z" fill="#8D4A2E" stroke="black" stroke-width="3" stroke-miterlimit="10"/>
<path d="M567.703 267.851L554.119 263.207L578.492 99.3271C579.454 99.4065 580.88 99.5425 582.605 99.7806C584.635 100.064 586.201 100.362 586.457 100.419C590.661 101.307 595.072 110.005 594.827 111.422C585.788 163.566 576.747 215.709 567.703 267.851Z" fill="#ECB180" stroke="black" stroke-width="2" stroke-miterlimit="10"/>
<path d="M535.369 83.1929C535.369 83.1929 544.803 83.9486 548.35 89.0874L547.293 98.9872L536.558 98.2013L538.531 85.9663C538.531 85.9663 538.841 83.873 535.369 83.1929Z" fill="#7C453E" stroke="black" stroke-width="2" stroke-miterlimit="10"/>
<path d="M522.746 83.2343L508.607 83.6122C508.318 83.6223 508.03 83.5646 507.767 83.4435C507.504 83.3224 507.272 83.1413 507.092 82.9148C506.911 82.6882 506.786 82.4225 506.726 82.1388C506.666 81.8551 506.673 81.5612 506.747 81.2808L516.041 46.2083C516.147 45.8075 516.385 45.4538 516.715 45.2033C517.045 44.9528 517.449 44.8198 517.863 44.8254L529.47 44.9954C529.742 44.9997 530.01 45.0637 530.255 45.1831C530.5 45.3024 530.716 45.474 530.887 45.6859C531.058 45.8978 531.181 46.1447 531.247 46.4093C531.312 46.6739 531.319 46.9497 531.266 47.2172L524.508 81.7305C524.428 82.144 524.21 82.518 523.89 82.7912C523.57 83.0644 523.166 83.2207 522.746 83.2343Z" fill="#DC8437" stroke="black" stroke-width="2" stroke-miterlimit="10"/>
<path d="M527.067 44.9613C527.067 44.9613 536.802 43.8958 542.689 51.8307L538.134 83.6197L523.082 83.1927C523.082 83.1927 524.256 83.0983 524.557 81.5566L527.61 65.9474L531.274 47.2171C531.274 47.2171 532.104 44.5533 527.067 44.9613Z" fill="#7C453E" stroke="black" stroke-width="2" stroke-miterlimit="10"/>
<path d="M574.488 222.319L601.329 314.818C601.329 314.818 612.196 316.859 610.837 309.831C609.479 302.803 578.688 197.834 578.688 197.834L574.488 222.319Z" fill="#8D5037" stroke="black" stroke-width="2" stroke-miterlimit="10"/>
<path d="M570.52 250.598C576.685 271.199 582.849 291.799 589.009 312.4C589.009 312.4 589.613 314.818 591.877 314.818H601.311L589.96 275.703L574.489 222.319C573.166 231.748 571.843 241.174 570.52 250.598Z" fill="#7C453E" stroke="black" stroke-width="2" stroke-miterlimit="10"/>
<path d="M553.662 262.961L401.103 253.795C398.713 253.651 396.659 255.475 396.516 257.869L396.091 264.957C395.948 267.351 397.769 269.408 400.159 269.551L552.718 278.717C555.109 278.861 557.163 277.037 557.306 274.643L557.731 267.555C557.874 265.161 556.053 263.104 553.662 262.961Z" fill="#DC8437"/>
<path d="M554.99 266.982L397.318 255.397C406.686 205.437 416.058 155.475 425.434 105.513C425.949 102.816 427.401 100.39 429.534 98.6653C431.667 96.9405 434.342 96.029 437.083 96.093L578.242 99.0818C578.868 99.0924 579.485 99.2381 580.05 99.5089C580.615 99.7798 581.116 100.17 581.517 100.652C581.918 101.134 582.21 101.696 582.375 102.302C582.539 102.907 582.571 103.541 582.468 104.16C573.301 158.433 564.142 212.707 554.99 266.982Z" fill="#FFE6AC" stroke="black" stroke-width="3" stroke-miterlimit="10"/>
<path d="M533.841 102.369L486.896 101.889C486.542 101.886 486.193 101.804 485.875 101.649C485.557 101.494 485.277 101.27 485.056 100.993C484.835 100.716 484.678 100.394 484.597 100.049C484.516 99.7038 484.512 99.345 484.587 98.9986C485.58 94.3585 486.574 89.7197 487.568 85.0821C487.683 84.5475 487.978 84.0686 488.403 83.7249C488.828 83.3812 489.357 83.1935 489.903 83.1929H536.18C536.526 83.1934 536.867 83.2689 537.181 83.4144C537.495 83.5599 537.773 83.7718 537.997 84.0355C538.221 84.2992 538.385 84.6084 538.478 84.9417C538.571 85.2751 538.59 85.6247 538.535 85.9663L536.214 100.359C536.123 100.922 535.834 101.435 535.399 101.803C534.964 102.172 534.411 102.373 533.841 102.369Z" fill="#DC8437" stroke="black" stroke-width="2" stroke-miterlimit="10"/>
<path d="M680.417 269.154C680.417 269.154 647.966 257.788 649.147 250.046C649.228 249.334 649.526 248.664 650 248.126C652.777 245.104 661.569 248.274 667.259 251.75C668.014 252.211 668.538 252.574 668.697 252.68C671.927 254.901 677.334 259.564 682.805 269.653L680.417 269.154Z" fill="#D6B97F" stroke="#090110" stroke-width="0.8" stroke-miterlimit="10"/>
<path d="M663.105 227.046C663.105 227.046 663.275 216.685 669.977 223.645C676.044 229.959 680.625 237.966 684.01 247.987C684.142 248.365 684.237 248.667 684.425 249.241C688.448 261.514 690.417 267.696 688.353 270C687.667 270.756 686.259 271.606 683.006 271.27C683.006 271.27 678.55 264.718 673.95 257.546C671.49 253.715 666.219 247.873 664.219 240.777C663.996 239.987 663.841 239.266 663.841 239.266C663.841 239.266 663.011 235.661 663.121 227.031L663.105 227.046Z" fill="#B59968" stroke="#090110" stroke-width="0.8" stroke-miterlimit="10"/>
<path d="M688.816 225.894C689.676 224.454 693.721 217.676 697.351 218.424C698.543 218.669 699.366 219.557 700.094 220.842C702.86 225.754 702.883 231.471 702.158 237.309C701.524 242.391 701.109 242.187 697.781 256.039C695.653 264.904 694.559 270.269 691.529 270.81C690.866 270.906 690.189 270.802 689.585 270.511C681.631 267.167 684.303 242.773 684.578 240.15C685.163 234.792 686.17 230.337 688.816 225.894Z" fill="#D6B97F" stroke="#090110" stroke-width="0.8" stroke-miterlimit="10"/>
<path d="M696.379 270.587C696.379 270.587 712.896 260.793 715.854 251.66C718.812 242.527 717.39 241.934 715.428 241.922C713.465 241.911 704.813 242.905 702.258 246.2C699.704 249.495 687.984 265.89 693.908 270.511C694.26 270.78 694.688 270.932 695.131 270.946C695.575 270.959 696.011 270.834 696.379 270.587Z" fill="#B29769" stroke="#090110" stroke-width="0.8" stroke-miterlimit="10"/>
<path d="M705.029 292.143C695.342 294.379 685.364 295.073 675.461 294.198C671.798 284.163 670.802 278.651 672.472 277.663C672.658 277.57 672.86 277.515 673.068 277.5C673.275 277.486 673.483 277.513 673.68 277.58L705.984 276.216C705.664 281.531 705.346 286.84 705.029 292.143Z" fill="#EA9B65" stroke="#090110" stroke-width="2.41" stroke-miterlimit="10"/>
<path d="M708.398 276.84L670.109 277.932C669.798 277.941 669.495 277.834 669.258 277.633C669.021 277.431 668.867 277.148 668.826 276.84L667.668 268.149C667.644 267.974 667.657 267.795 667.707 267.625C667.757 267.455 667.842 267.298 667.956 267.163C668.071 267.028 668.213 266.919 668.372 266.843C668.532 266.767 668.706 266.725 668.883 266.721L707.681 265.727C708.004 265.718 708.317 265.834 708.557 266.051C708.797 266.268 708.944 266.568 708.968 266.891L709.617 275.483C709.63 275.653 709.609 275.825 709.554 275.986C709.499 276.148 709.412 276.297 709.298 276.424C709.184 276.55 709.046 276.653 708.891 276.724C708.736 276.796 708.568 276.835 708.398 276.84Z" fill="#EA9B65" stroke="#090110" stroke-width="2.41" stroke-miterlimit="10"/>
<path d="M680.326 257.974C680.326 257.974 679.816 256.523 679.088 254.165C678.299 251.826 677.288 248.588 676.009 245.096C674.73 241.605 673.42 238.488 672.179 236.368C671.707 235.515 671.16 234.705 670.545 233.949C670.375 233.738 670.193 233.537 669.998 233.349C669.928 233.277 669.854 233.21 669.775 233.148C669.775 233.148 669.877 233.198 670.04 233.296C670.273 233.44 670.498 233.599 670.711 233.772C671.49 234.407 672.195 235.129 672.813 235.922C674.417 237.883 676.141 240.959 677.454 244.545C678.535 247.614 679.334 250.776 679.839 253.991C680.201 256.443 680.326 257.974 680.326 257.974Z" fill="#D6B97F" stroke="#D6B97F" stroke-width="0.13" stroke-miterlimit="10"/>
<path d="M695.275 263.758C695.275 263.758 695.966 262.387 697.207 260.226C698.86 257.425 700.768 254.782 702.905 252.332C705.445 249.483 708.188 247.265 710.377 246.048C711.227 245.547 712.133 245.146 713.075 244.851C713.322 244.771 713.574 244.71 713.829 244.665C713.914 244.649 714 244.639 714.086 244.635L713.848 244.73C713.612 244.83 713.381 244.944 713.158 245.07C712.328 245.54 711.539 246.08 710.799 246.683C708.89 248.195 706.531 250.571 704.052 253.349C701.573 256.126 699.43 258.771 697.826 260.664C696.223 262.557 695.275 263.758 695.275 263.758Z" fill="#D6B97F" stroke="#D6B97F" stroke-width="0.13" stroke-miterlimit="10"/>
<path d="M688.809 261.189C688.809 261.189 689.941 253.205 691.805 243.43C693.669 233.655 695.555 225.826 695.555 225.826C695.555 225.826 694.423 233.81 692.563 243.585C690.703 253.36 688.809 261.189 688.809 261.189Z" fill="#B29769" stroke="#B29769" stroke-width="0.07" stroke-miterlimit="10"/>
<path d="M675.891 264.098C675.891 264.098 670.986 261.453 665.182 257.777C659.379 254.1 654.877 250.802 654.877 250.802C654.877 250.802 659.782 253.447 665.59 257.119C671.397 260.792 675.891 264.098 675.891 264.098Z" fill="#B29769" stroke="#B29769" stroke-width="0.07" stroke-miterlimit="10"/>
<path d="M229.807 291.436C229.807 291.436 252.776 294.051 254.146 300.626C255.515 307.2 243.384 307.204 243.384 307.204C243.384 307.204 247.036 325.455 210.106 306.199C173.176 286.944 229.807 291.436 229.807 291.436Z" fill="#FA8510" stroke="black" stroke-width="2.25" stroke-miterlimit="10"/>
<path d="M173.604 305.644C173.604 305.644 196.724 309.698 197.976 316.307C199.229 322.916 186.992 322.133 186.992 322.133C186.992 322.133 190.316 340.437 153.443 319.012C116.569 297.588 173.604 305.644 173.604 305.644Z" fill="#FA8510" stroke="black" stroke-width="2.25" stroke-miterlimit="10"/>
<path d="M252.397 199.75C257.302 197.887 264.906 194.059 270.834 185.913C287.995 162.323 274.32 125.709 272.562 120.997C267.078 106.16 257.485 93.1944 244.907 83.6199C216.153 62.0104 184.959 70.8446 179.216 72.4732C171.023 74.7932 152.764 80.2797 138.885 99.3576C131.756 109.285 127.022 120.733 125.056 132.802C124.003 139.603 121.66 156.229 129.667 173.455C133.467 181.698 139.204 188.897 146.387 194.437C146.387 194.437 140.625 261.979 121.611 277.063C120.516 277.928 118.343 279.738 118.169 282.432C117.332 295.328 163.745 317.558 208.535 312.064C227.025 309.796 251.703 306.32 264.495 284.276C284.66 249.521 252.397 199.75 252.397 199.75Z" fill="#0D3E66" stroke="black" stroke-width="4.85" stroke-miterlimit="10"/>
<path d="M254.195 205.72C256.496 211.324 259.591 216.566 263.387 221.284C274.081 234.509 284.854 236.303 283.579 240.698C281.983 246.211 262.776 251.168 249.377 246.781C248.954 246.645 235.834 241.435 235.834 241.435L254.195 205.72Z" fill="#0D3E66"/>
<path d="M236.064 240.992L236.959 241.431L238.042 241.963C238.472 242.183 238.959 242.402 239.551 242.647C240.683 243.135 242.087 243.705 243.728 244.318C245.37 244.93 247.26 245.58 249.388 246.173C250.441 246.483 251.562 246.751 252.72 247.008C253.932 247.224 255.153 247.378 256.38 247.469C257.66 247.575 258.992 247.616 260.358 247.628C261.724 247.639 263.139 247.586 264.576 247.461C267.586 247.234 270.571 246.754 273.5 246.025C276.581 245.32 279.408 243.777 281.67 241.567C282.205 241.134 282.62 240.571 282.874 239.931C282.947 239.675 282.947 239.404 282.874 239.148C282.787 238.856 282.646 238.583 282.458 238.344C281.991 237.776 281.446 237.276 280.84 236.859C280.213 236.405 279.549 235.982 278.878 235.57C277.534 234.746 276.149 233.968 274.859 233.069C274.531 232.857 274.214 232.63 273.904 232.396L272.976 231.708C272.387 231.225 271.783 230.768 271.233 230.261C269.128 228.398 267.19 226.353 265.44 224.151C263.791 222.107 262.365 220.135 260.995 218.404C260.648 217.973 260.305 217.577 259.977 217.123C259.648 216.67 259.388 216.239 259.135 215.801C258.633 214.928 258.199 214.089 257.807 213.296C257.026 211.712 256.399 210.326 255.897 209.192C254.894 206.925 254.388 205.644 254.388 205.644C254.388 205.644 254.996 206.872 256.143 209.071C256.716 210.171 257.426 211.508 258.294 213.035C258.728 213.791 259.203 214.603 259.739 215.427C260.007 215.839 260.293 216.25 260.603 216.64C260.912 217.029 261.293 217.426 261.659 217.841C263.139 219.526 264.648 221.431 266.35 223.377C268.133 225.453 270.085 227.379 272.183 229.135C272.727 229.604 273.315 230.031 273.897 230.48L274.802 231.119C275.104 231.338 275.41 231.546 275.73 231.743C276.972 232.574 278.342 233.311 279.73 234.134C280.425 234.546 281.13 234.977 281.828 235.468C282.579 235.977 283.253 236.592 283.828 237.293C284.157 237.707 284.401 238.182 284.545 238.691C284.7 239.247 284.7 239.835 284.545 240.392C284.396 240.903 284.15 241.382 283.821 241.801C283.531 242.17 283.211 242.515 282.866 242.833C282.538 243.142 282.228 243.418 281.896 243.702C281.564 243.985 281.213 244.265 280.862 244.529C280.159 245.045 279.418 245.508 278.647 245.916C277.147 246.704 275.548 247.287 273.893 247.65C270.861 248.356 267.772 248.786 264.663 248.935C263.184 249.022 261.735 249.003 260.331 248.969C258.928 248.935 257.569 248.818 256.26 248.659C254.991 248.514 253.731 248.3 252.486 248.017C251.301 247.699 250.181 247.374 249.124 247.012C247.011 246.301 245.147 245.542 243.528 244.831C241.909 244.121 240.543 243.46 239.442 242.893C238.34 242.326 237.521 241.816 236.951 241.499L236.064 240.992Z" fill="black" stroke="black" stroke-width="0.15" stroke-miterlimit="10"/>
<path d="M224.455 309.626C220.018 310.507 197.004 314.603 184.121 299.681C168.477 281.567 170.794 238.918 200.83 206.566C178.393 203.472 161.16 184.526 158.772 161.979C156.428 139.86 168.462 115.163 186.427 110.175C200.347 106.31 212.746 115.719 215.818 118.046C230.232 129.004 234.021 146.053 234.832 150.164C234.523 146.385 231.851 110.262 245.202 102.951C246.457 102.275 247.823 101.831 249.235 101.64C259.974 100.26 270.231 114.789 274.585 125.902C277.577 133.538 278.079 140.313 278.619 147.542C279.167 154.93 278.948 162.356 277.966 169.699C277.06 173.477 274.653 181.518 268.242 188.864C263.993 193.809 258.531 197.561 252.394 199.75C260.001 210.151 265.216 222.109 267.665 234.766C269.615 244.798 273.966 267.144 261.903 286.57C249.352 306.781 228.078 309.271 224.455 309.626Z" fill="#BAEAFF" stroke="black" stroke-width="3.64" stroke-linejoin="round"/>
<path d="M247.138 174.161C247.462 175.257 243.342 178.318 239.885 179.474C232.791 181.847 225.75 177.131 222.762 174.811C223.358 173.647 224.369 172.132 225.984 171.486C227.294 170.965 228.248 171.301 230.686 171.486C233.848 171.724 233.535 171.252 235.855 171.486C239.697 171.864 240.006 173.115 244.319 173.625C246.213 173.855 247.01 173.712 247.138 174.161Z" fill="#FA8510" stroke="black" stroke-width="2.42" stroke-miterlimit="10"/>
<path d="M185.981 210.542C185.065 222.383 187.114 230.817 189.091 236.292C193.396 248.138 205.271 267.458 202.505 275.457C202.194 276.414 201.641 277.274 200.902 277.955C197.358 281.189 190.098 279.742 187.317 279.194C172.876 276.319 151.293 237.313 148.674 232.563" fill="#0D3E66"/>
<path d="M149.078 232.34C149.078 232.34 150.157 234.085 152.165 237.203C154.172 240.32 157.112 244.813 160.927 250.209C162.836 252.903 164.964 255.827 167.341 258.873C169.719 261.918 172.341 265.1 175.296 268.198C176.788 269.773 178.364 271.267 180.016 272.672C181.645 274.086 183.446 275.29 185.375 276.254C185.608 276.364 185.842 276.458 186.08 276.56C186.318 276.662 186.552 276.745 186.786 276.81C187.015 276.885 187.248 276.95 187.484 277.002C187.612 277.029 187.695 277.055 187.861 277.085L188.303 277.168C189.457 277.388 190.593 277.573 191.733 277.686C192.849 277.808 193.973 277.839 195.095 277.781C196.119 277.74 197.13 277.539 198.091 277.184L198.412 277.051C198.512 277.005 198.609 276.952 198.702 276.893L198.985 276.738C199.072 276.681 199.147 276.613 199.227 276.553C199.555 276.326 199.837 276.039 200.057 275.706C200.293 275.361 200.467 274.977 200.574 274.573L200.668 274.263C200.698 274.161 200.706 274.04 200.729 273.926L200.793 273.583L200.819 273.205C200.877 272.143 200.815 271.078 200.634 270.031C200.451 268.915 200.207 267.81 199.902 266.721C199.291 264.518 198.532 262.353 197.721 260.241C196.91 258.128 196.065 256.061 195.216 254.051C193.514 250.023 191.819 246.196 190.363 242.538C189.635 240.713 188.959 238.926 188.386 237.173C187.832 235.492 187.366 233.785 186.99 232.056C186.631 230.409 186.374 228.826 186.182 227.326C185.99 225.826 185.873 224.409 185.805 223.082C185.696 220.816 185.71 218.546 185.846 216.281C185.907 215.351 185.963 214.531 186.042 213.821C186.122 213.111 186.174 212.51 186.242 212.026L186.439 210.549C186.439 210.549 186.439 211.063 186.439 212.034C186.439 212.521 186.439 213.122 186.439 213.832C186.439 214.543 186.473 215.344 186.518 216.281C186.612 218.117 186.778 220.358 187.156 222.927C187.337 224.212 187.59 225.572 187.891 227.012C188.193 228.452 188.582 229.94 189.054 231.49C189.525 233.039 190.087 234.633 190.759 236.262C191.431 237.89 192.208 239.583 193.023 241.329C194.684 244.824 196.582 248.535 198.487 252.525C199.438 254.52 200.374 256.587 201.306 258.74C202.266 260.961 203.106 263.231 203.823 265.542C204.2 266.773 204.507 268.024 204.74 269.29C205 270.659 205.1 272.054 205.038 273.447L205 274.006L204.909 274.584C204.875 274.777 204.853 274.962 204.808 275.166L204.645 275.759C204.422 276.565 204.072 277.331 203.608 278.026C203.14 278.758 202.543 279.399 201.845 279.915C201.676 280.044 201.506 280.184 201.332 280.293L200.796 280.603C200.615 280.701 200.419 280.819 200.249 280.898L199.698 281.132C198.305 281.67 196.832 281.974 195.34 282.031C193.99 282.109 192.635 282.072 191.291 281.922C189.982 281.775 188.71 281.544 187.488 281.291C186.814 281.161 186.15 280.988 185.499 280.773C185.159 280.664 184.85 280.528 184.526 280.395C184.201 280.263 183.903 280.12 183.605 279.972C181.374 278.805 179.31 277.345 177.465 275.631C175.754 274.071 174.137 272.411 172.624 270.658C169.879 267.462 167.323 264.109 164.968 260.615C162.749 257.361 160.817 254.252 159.119 251.384C155.723 245.64 153.244 240.857 151.572 237.531C149.901 234.206 149.078 232.34 149.078 232.34Z" fill="black" stroke="black" stroke-width="0.37" stroke-miterlimit="10"/>
<path d="M187.223 137.929L188.411 137.597C188.789 137.495 189.264 137.374 189.8 137.2C190.336 137.026 190.958 136.867 191.622 136.625C195.108 135.521 198.434 133.965 201.516 131.997L202.177 131.558L202.811 131.097C203.237 130.803 203.622 130.47 204.018 130.164C204.761 129.55 205.469 128.894 206.139 128.199C206.748 127.571 207.318 126.904 207.844 126.204C208.309 125.595 208.737 124.958 209.124 124.296C209.935 122.985 210.534 121.552 210.897 120.053C210.897 120.053 210.897 120.17 210.871 120.381C210.839 120.691 210.791 120.999 210.727 121.303C210.491 122.427 210.127 123.52 209.64 124.561C209.312 125.284 208.934 125.983 208.508 126.654C208.02 127.426 207.475 128.161 206.878 128.853C206.223 129.621 205.513 130.341 204.754 131.007C204.35 131.343 203.954 131.698 203.512 132.016L202.86 132.503L202.173 132.964C200.434 134.102 198.574 135.041 196.626 135.764C195.047 136.357 193.428 136.838 191.781 137.204C191.087 137.374 190.445 137.468 189.894 137.581C189.343 137.695 188.853 137.748 188.457 137.797L187.223 137.929Z" fill="black" stroke="black" stroke-width="0.1" stroke-miterlimit="10"/>
<path d="M265.355 134.536L264.121 134.4C263.721 134.354 263.235 134.301 262.676 134.199C262.118 134.097 261.469 134.018 260.789 133.856C259.136 133.517 257.508 133.063 255.918 132.495C253.958 131.801 252.082 130.888 250.326 129.775L249.632 129.321L248.971 128.841C248.526 128.535 248.122 128.184 247.715 127.855C246.951 127.2 246.234 126.493 245.568 125.739C244.963 125.059 244.411 124.334 243.915 123.57C243.478 122.913 243.089 122.225 242.753 121.511C242.254 120.491 241.874 119.417 241.621 118.311C241.534 117.933 241.492 117.612 241.466 117.407C241.451 117.305 241.442 117.201 241.439 117.098C241.439 117.098 241.458 117.196 241.515 117.396C241.572 117.596 241.658 117.887 241.794 118.258C242.181 119.294 242.667 120.29 243.247 121.231C243.639 121.888 244.073 122.519 244.545 123.121C245.077 123.808 245.652 124.462 246.266 125.078C246.94 125.762 247.655 126.405 248.405 127.005C248.805 127.304 249.194 127.632 249.624 127.919L250.262 128.373L250.926 128.8C254.514 131.105 258.22 132.442 260.914 133.304C261.589 133.538 262.212 133.682 262.755 133.856C263.299 134.029 263.77 134.135 264.155 134.233L265.355 134.536Z" fill="black" stroke="black" stroke-width="0.1" stroke-miterlimit="10"/>
<path d="M209.216 149.544C205.88 155.428 198.956 158.511 192.334 157.751C191.4 157.652 190.472 157.497 189.557 157.287C190.945 157.473 192.345 157.56 193.745 157.547C199.783 157.547 205.767 154.555 209.216 149.544Z" fill="black"/>
<path d="M192.955 157.608C192.151 161.874 194.015 165.716 196.97 166.918C200.762 168.46 204.63 164.953 205.075 164.549C210.23 159.882 208.094 151.649 207.977 151.297C205.893 153.964 203.053 155.94 199.83 156.965C197.609 157.661 195.266 157.88 192.955 157.608Z" fill="black"/>
<path d="M245.035 145.558C248.405 150.409 254.333 153.054 260.178 152.714C260.933 152.714 261.944 152.586 262.683 152.506C261.862 152.699 261.031 152.843 260.193 152.937C254.261 153.64 247.99 150.851 245.035 145.558Z" fill="black"/>
<path d="M259.627 152.779C260.348 156.61 258.676 160.06 256.023 161.137C252.627 162.52 249.144 159.372 248.745 159.013C244.118 154.819 246.054 147.428 246.141 147.115C248.013 149.509 250.561 151.285 253.454 152.212C255.449 152.83 257.552 153.023 259.627 152.779Z" fill="black"/>
<path d="M217.059 172.654C220.768 163.132 228.964 157.57 236.858 158.741C244.752 159.912 249.144 167.432 249.816 168.633C249.816 168.633 250.287 171.698 248.665 173.368C247.389 174.683 245.529 174.316 242.744 173.84C237.277 172.903 233.179 172.2 229.983 172.287C227.043 172.394 224.16 173.125 221.523 174.43" fill="#FA8510"/>
<path d="M217.059 172.654C220.768 163.132 228.964 157.57 236.858 158.741C244.752 159.912 249.144 167.432 249.816 168.633C249.816 168.633 250.287 171.698 248.665 173.368C247.389 174.683 245.529 174.316 242.744 173.84C237.277 172.903 233.179 172.2 229.983 172.287C227.043 172.394 224.16 173.125 221.523 174.43" stroke="black" stroke-width="2.42" stroke-miterlimit="10"/>
<path d="M187.723 183.789C191.768 183.789 195.047 180.535 195.047 176.519C195.047 172.504 191.768 169.25 187.723 169.25C183.678 169.25 180.398 172.504 180.398 176.519C180.398 180.535 183.678 183.789 187.723 183.789Z" fill="#F4A127" stroke="black" stroke-width="2.42" stroke-miterlimit="10"/>
<path d="M265.203 178.628C269.248 178.628 272.527 175.373 272.527 171.358C272.527 167.343 269.248 164.088 265.203 164.088C261.158 164.088 257.879 167.343 257.879 171.358C257.879 175.373 261.158 178.628 265.203 178.628Z" fill="#F4A127" stroke="black" stroke-width="2.42" stroke-miterlimit="10"/>
<path d="M146.422 125.584C150.418 137.657 149.886 147.636 145.849 150.357C145.015 150.916 143.585 151.49 141.147 150.889C140.226 149.812 139.578 148.527 139.26 147.145C138.555 143.956 139.943 141.239 141.611 137.517C142.83 134.808 144.536 130.803 146.422 125.584Z" fill="white" stroke="black" stroke-width="2.42" stroke-miterlimit="10"/>
<path d="M1.00195 277.357L32.291 278.196L103.284 292.88L1.00195 307.59V277.357Z" fill="#090110"/>
<path d="M1.26265 277.63L32.2612 278.461L101.745 292.82L1.26265 307.284V277.63ZM0.734375 277.082V307.896L104.82 292.925L32.3216 277.932L0.734375 277.082Z" fill="#090110"/>
<path d="M32.3229 283.101L21.3574 285.595V205.746L32.8097 205.248L32.3229 283.101Z" fill="#AD9286" stroke="black" stroke-width="2" stroke-miterlimit="10"/>
<path d="M21.3559 285.542L14.3789 282.602L14.877 206.245L21.8653 205.996L21.3559 285.542Z" fill="#51250D" stroke="black" stroke-width="2" stroke-miterlimit="10"/>
<path d="M113.789 202.595L-72.0923 216.069L-94.0195 192.117L50.9962 184.129L113.789 202.595Z" fill="#AD9286" stroke="black" stroke-width="2" stroke-miterlimit="10"/>
<path d="M113.292 214.573L-72.0918 228.048V216.07L113.801 202.595L113.292 214.573Z" fill="#51250D" stroke="black" stroke-width="2" stroke-miterlimit="10"/>
<path d="M104.817 292.925L93.8516 295.419V215.571L105.315 215.072L104.817 292.925Z" fill="#AD9286" stroke="black" stroke-width="2" stroke-miterlimit="10"/>
<path d="M93.854 295.366L86.877 292.426L87.375 216.069L94.3558 215.82C94.1898 242.335 94.0225 268.851 93.854 295.366Z" fill="#51250D" stroke="black" stroke-width="2" stroke-miterlimit="10"/>
<path d="M7.3907 163.842C7.3907 163.842 1.17213 163.816 2.65131 167.621C4.13048 171.426 17.4393 203.43 17.4393 203.43C17.4393 203.43 20.0807 206.551 27.1596 205.176C34.2385 203.8 70.1764 195.684 70.1764 195.684C70.1764 195.684 74.7045 194.018 71.1613 186.876" fill="#666565"/>
<path d="M7.3907 163.842C7.3907 163.842 1.17213 163.816 2.65131 167.621C4.13048 171.426 17.4393 203.43 17.4393 203.43C17.4393 203.43 20.0807 206.551 27.1596 205.176C34.2385 203.8 70.1764 195.684 70.1764 195.684C70.1764 195.684 74.7045 194.018 71.1613 186.876" stroke="#090110" stroke-width="1.13" stroke-miterlimit="10"/>
<path d="M9.17736 183.518L4.64928 195.987C4.64928 195.987 3.85686 198.209 5.44169 198.526C7.02652 198.843 15.528 197.997 15.528 197.997L9.17736 183.518Z" fill="#1E1E1E" stroke="#090110" stroke-width="1.13" stroke-miterlimit="10"/>
<path d="M6.24219 164.031L21.6641 200.211C21.6641 200.211 21.5584 203.808 28.743 202.75C35.9276 201.692 70.1637 192.801 70.1637 192.801C70.1637 192.801 72.3787 192.272 70.1637 186.03C67.9487 179.788 56.9568 155.881 56.9568 155.881L6.24219 164.031Z" fill="#1E1E1E" stroke="#090110" stroke-width="1.13" stroke-miterlimit="10"/>
<path d="M15.9551 167.632L27.2451 194.116C27.2451 194.116 27.1659 196.761 32.426 195.971C37.6861 195.181 62.7378 188.694 62.7378 188.694C62.7378 188.694 64.3603 188.316 62.7378 183.74C61.1152 179.164 53.0703 161.669 53.0703 161.669L15.9551 167.632Z" fill="#739BFF" stroke="#090110" stroke-width="0.83" stroke-miterlimit="10"/>
<path d="M15.7075 175.669C16.4661 175.669 17.081 175.053 17.081 174.293C17.081 173.534 16.4661 172.918 15.7075 172.918C14.9489 172.918 14.334 173.534 14.334 174.293C14.334 175.053 14.9489 175.669 15.7075 175.669Z" fill="#739BFF" stroke="#090110" stroke-width="0.83" stroke-miterlimit="10"/>
<path d="M17.0786 178.892C17.8372 178.892 18.4521 178.277 18.4521 177.517C18.4521 176.757 17.8372 176.142 17.0786 176.142C16.32 176.142 15.7051 176.757 15.7051 177.517C15.7051 178.277 16.32 178.892 17.0786 178.892Z" fill="#739BFF" stroke="#090110" stroke-width="0.83" stroke-miterlimit="10"/>
<path d="M21.6766 188.772C22.3742 188.474 22.2058 186.512 21.3004 184.389C20.395 182.267 19.0955 180.788 18.3979 181.086C17.7003 181.385 17.8687 183.347 18.7741 185.47C19.6796 187.592 20.979 189.071 21.6766 188.772Z" fill="#739BFF" stroke="#090110" stroke-width="0.83" stroke-miterlimit="10"/>
<path d="M87.673 187.662C91.914 187.662 95.3519 186.832 95.3519 185.807C95.3519 184.782 91.914 183.952 87.673 183.952C83.4321 183.952 79.9941 184.782 79.9941 185.807C79.9941 186.832 83.4321 187.662 87.673 187.662Z" fill="#EF8535" stroke="black" stroke-width="0.27" stroke-miterlimit="10"/>
<path d="M80.2804 189.23L81.6388 198.835C81.6388 198.835 81.5973 199.908 83.4727 200.672C85.3481 201.435 91.9327 201.227 92.7968 200.362C93.6609 199.497 93.7854 199.659 94.0307 198.382C94.276 197.105 95.1627 186.612 95.1627 186.612C95.1627 186.612 84.5066 189.601 79.9785 186.234L80.2804 189.23Z" fill="#F3A466" stroke="black" stroke-width="0.73" stroke-miterlimit="10"/>
<path d="M82.4794 187.106L81.4492 178.283L82.4794 173.292L84.4113 178.2L85.566 187.477" fill="#987C86"/>
<path d="M82.4794 187.106L81.4492 178.283L82.4794 173.292L84.4113 178.2L85.566 187.477" stroke="black" stroke-width="0.73" stroke-linecap="round" stroke-linejoin="round"/>
<path d="M91.2496 175.367L88.4648 187.674L91.1515 187.334C91.9062 183.555 92.6609 179.767 93.4156 175.968L91.2496 175.367Z" fill="#D27B55" stroke="black" stroke-width="0.36" stroke-miterlimit="10"/>
<path d="M92.2439 175.775C93.2892 176.134 93.825 175.933 94.0816 175.775C95.2966 175.019 95.3268 172.204 93.8929 168.705C91.2176 171.35 90.0516 173.916 90.8478 175.072C91.0176 175.321 91.3798 175.65 92.2439 175.775Z" fill="#D27B55" stroke="black" stroke-width="0.36" stroke-miterlimit="10"/>
<path d="M498.32 172.798C508.036 172.798 515.912 164.911 515.912 155.182C515.912 145.453 508.036 137.566 498.32 137.566C488.605 137.566 480.729 145.453 480.729 155.182C480.729 164.911 488.605 172.798 498.32 172.798Z" stroke="black" stroke-width="4.33" stroke-miterlimit="10"/>
<path d="M490.851 158.469C492.178 158.469 493.255 156.974 493.255 155.129C493.255 153.284 492.178 151.789 490.851 151.789C489.523 151.789 488.447 153.284 488.447 155.129C488.447 156.974 489.523 158.469 490.851 158.469Z" fill="black" stroke="black" stroke-width="1.26" stroke-miterlimit="10"/>
<path d="M502.853 158.522C504.18 158.522 505.257 157.027 505.257 155.182C505.257 153.337 504.18 151.842 502.853 151.842C501.525 151.842 500.449 153.337 500.449 155.182C500.449 157.027 501.525 158.522 502.853 158.522Z" fill="black" stroke="black" stroke-width="1.26" stroke-miterlimit="10"/>
<path d="M491.479 165.543C492.109 163.022 494.576 161.5 496.874 161.983C497.883 162.225 498.781 162.797 499.429 163.608C500.076 164.419 500.434 165.423 500.448 166.461" stroke="black" stroke-width="3.25" stroke-linecap="round" stroke-linejoin="round"/>
<path d="M495.278 172.767L488.543 210.893" stroke="black" stroke-width="6.49" stroke-miterlimit="10" stroke-linecap="round"/>
<path d="M503.421 232.287L488.694 210.039L465.4 227.998" stroke="black" stroke-width="6.49" stroke-miterlimit="10" stroke-linecap="round"/>
<path d="M492.301 189.62L465.4 175.454" stroke="black" stroke-width="6.49" stroke-miterlimit="10" stroke-linecap="round"/>
<path d="M521.245 180.672L492.299 189.956" stroke="black" stroke-width="6.49" stroke-miterlimit="10" stroke-linecap="round"/>
</g>
<defs>
<linearGradient id="paint0_linear_377_5600" x1="1.73242" y1="308" x2="747.732" y2="308" gradientUnits="userSpaceOnUse">
<stop stop-color="#1F8BF7"/>
<stop offset="1" stop-color="#DC33FC"/>
</linearGradient>
</defs>
</svg>
