<svg width="747" height="381" viewBox="0 0 747 381" fill="none" xmlns="http://www.w3.org/2000/svg">
<rect x="0.728516" y="248.5" width="746" height="132" rx="66" fill="url(#paint0_linear_377_5599)"/>
<mask id="mask0_377_5599" style="mask-type:luminance" maskUnits="userSpaceOnUse" x="3" y="0" width="728" height="350">
<path d="M730.665 0.5H3.72656V349.9H730.665V0.5Z" fill="white"/>
</mask>
<g mask="url(#mask0_377_5599)">
<path d="M504.698 159.245C516.42 159.245 525.922 149.742 525.922 138.021C525.922 126.3 516.42 116.797 504.698 116.797C492.977 116.797 483.475 126.3 483.475 138.021C483.475 149.742 492.977 159.245 504.698 159.245Z" stroke="black" stroke-width="5.19" stroke-miterlimit="10"/>
<path d="M495.697 141.987C497.298 141.987 498.596 140.184 498.596 137.96C498.596 135.736 497.298 133.933 495.697 133.933C494.095 133.933 492.797 135.736 492.797 137.96C492.797 140.184 494.095 141.987 495.697 141.987Z" fill="black" stroke="black" stroke-width="1.51" stroke-miterlimit="10"/>
<path d="M510.171 142.048C511.773 142.048 513.071 140.245 513.071 138.021C513.071 135.797 511.773 133.994 510.171 133.994C508.57 133.994 507.271 135.797 507.271 138.021C507.271 140.245 508.57 142.048 510.171 142.048Z" fill="black" stroke="black" stroke-width="1.51" stroke-miterlimit="10"/>
<path d="M496.451 150.481C497.21 147.445 500.182 145.608 502.96 146.196C504.176 146.487 505.261 147.176 506.042 148.153C506.823 149.13 507.255 150.339 507.272 151.589" stroke="black" stroke-width="3.89" stroke-linecap="round" stroke-linejoin="round"/>
<path d="M501.032 159.207L492.906 205.138" stroke="black" stroke-width="7.78" stroke-miterlimit="10" stroke-linecap="round"/>
<path d="M510.855 230.916L493.089 204.109L464.988 225.747" stroke="black" stroke-width="7.78" stroke-miterlimit="10" stroke-linecap="round"/>
<path d="M497.438 179.515L464.984 162.448" stroke="black" stroke-width="7.78" stroke-miterlimit="10" stroke-linecap="round"/>
<path d="M532.359 168.733L497.438 179.914" stroke="black" stroke-width="7.78" stroke-miterlimit="10" stroke-linecap="round"/>
<path d="M678.677 69.5757L643.832 68.0082C643.324 67.9857 642.826 67.8594 642.369 67.6372C641.912 67.4149 641.505 67.1014 641.173 66.716C640.842 66.3305 640.593 65.8813 640.442 65.396C640.291 64.9106 640.241 64.3995 640.294 63.894C641.944 48.3331 643.596 32.7722 645.251 17.2112C645.349 16.2966 645.781 15.4503 646.465 14.8351C647.148 14.2199 648.036 13.8794 648.955 13.8789H681.455C681.961 13.8792 682.462 13.9826 682.927 14.1828C683.393 14.383 683.812 14.6757 684.16 15.0432C684.509 15.4107 684.779 15.8453 684.954 16.3205C685.129 16.7956 685.205 17.3014 685.178 17.8071C684.305 33.8893 683.434 49.9702 682.563 66.0498C682.511 67.0312 682.074 67.9523 681.346 68.6126C680.618 69.273 679.659 69.6191 678.677 69.5757Z" fill="#FFE6BF" stroke="black" stroke-width="2.1" stroke-miterlimit="10"/>
<path d="M672.817 23.8569H655.791C654.384 23.8569 653.244 24.9971 653.244 26.4036V34.1993C653.244 35.6058 654.384 36.7459 655.791 36.7459H672.817C674.223 36.7459 675.363 35.6058 675.363 34.1993V26.4036C675.363 24.9971 674.223 23.8569 672.817 23.8569Z" fill="#889987"/>
<path d="M652.387 45.6152H659.366" stroke="#889987" stroke-width="4.19" stroke-linecap="round" stroke-linejoin="round"/>
<path d="M665.057 45.9951H673.334" stroke="#889987" stroke-width="5.65" stroke-linecap="round" stroke-linejoin="round"/>
<path d="M651.094 52.1812H674.367" stroke="#889987" stroke-width="9.47" stroke-linecap="round" stroke-linejoin="round"/>
<path d="M651.094 58.7476H674.367" stroke="#889987" stroke-width="9.47" stroke-linecap="round" stroke-linejoin="round"/>
<path d="M643.791 322.502L663.447 312.364L700.6 319.378L681.373 331.869L643.791 322.502Z" fill="#FFEDCB" stroke="black" stroke-width="1.14" stroke-miterlimit="10"/>
<path d="M659.564 321.773C660.62 320.888 665.637 316.732 669.019 315.237C670.157 314.729 671.129 314.527 671.915 314.949C672.464 315.274 672.87 315.795 673.053 316.406L673.19 320.429C673.19 320.429 672.7 321.909 674.533 321.169C676.366 320.429 676.587 320.429 676.587 320.429C676.587 320.429 678.484 319.253 678.913 321.636C679.166 323.232 679.166 324.857 678.913 326.452L659.564 321.773Z" fill="#FFDAA4"/>
<path d="M678.335 328.798C678.335 328.798 672.555 327.883 665.587 326.096C658.618 324.308 653.111 322.346 653.111 322.346C653.111 322.346 658.892 323.26 665.856 325.048C672.821 326.836 678.335 328.798 678.335 328.798Z" fill="#FFDAA4" stroke="#FFDAA4" stroke-width="0.1" stroke-miterlimit="10"/>
<path d="M367.186 350.811C361.16 350.799 355.15 350.178 349.249 348.959C346.835 347.972 346.334 347.205 346.338 346.735C346.338 345.63 349.082 343.387 367.212 340.795C381.225 338.791 402.539 336.833 430.557 334.977H430.598C430.848 334.926 431.103 334.899 431.358 334.897C431.879 334.867 432.393 335.035 432.796 335.368C433.157 335.729 433.37 336.212 433.392 336.722C433.35 338.897 423.262 341.038 415.174 342.757L414.89 342.818C406.54 344.586 402.365 345.475 401.553 345.626C383.756 348.959 373.957 350.792 367.478 350.815L367.186 350.811Z" fill="#090110"/>
<path d="M431.396 335.197C431.835 335.165 432.271 335.301 432.614 335.577C432.912 335.872 433.087 336.269 433.104 336.689C433.104 336.95 432.724 337.926 427.916 339.38C424.655 340.366 420.378 341.296 415.125 342.416C406.608 344.222 402.331 345.129 401.511 345.285C383.738 348.614 373.946 350.447 367.497 350.47H367.182C361.19 350.457 355.214 349.841 349.344 348.633C346.786 347.581 346.661 346.86 346.665 346.735C346.668 346.61 346.908 345.524 351.508 344.165C354.992 343.137 360.294 342.108 367.277 341.11C381.282 339.11 402.574 337.152 430.599 335.296H430.641H430.682C430.917 335.247 431.156 335.221 431.396 335.22M431.396 334.575C431.113 334.576 430.831 334.604 430.553 334.658C374.23 338.383 346.051 342.402 346.016 346.716C346.016 347.551 347.052 348.401 349.154 349.255C355.085 350.485 361.125 351.11 367.182 351.119H367.501C373.877 351.096 383.214 349.369 401.633 345.923C402.456 345.767 406.726 344.86 415.262 343.05C424.898 341.008 433.711 339.087 433.753 336.708C433.734 336.103 433.483 335.529 433.051 335.106C432.587 334.722 431.997 334.524 431.396 334.552V334.575Z" fill="#090110"/>
<path d="M348.781 344.738C348.781 344.738 363.925 337.451 365.405 337.907C366.885 338.362 370.187 342.917 367.113 347.585C360.86 348.204 354.552 347.225 348.781 344.738Z" fill="#EFA87C" stroke="black" stroke-width="2" stroke-miterlimit="10"/>
<path d="M367.113 347.589L429.28 338.594C436.909 332.332 428.142 328.688 428.142 328.688L365.215 337.907C365.215 337.907 370.908 340.795 367.113 347.589Z" fill="#D78147" stroke="black" stroke-width="2" stroke-linecap="round" stroke-linejoin="round"/>
<path d="M368.631 341.649C368.683 341.912 368.721 342.179 368.745 342.446C368.792 342.9 368.805 343.357 368.783 343.812C378.651 342.499 388.686 341.058 398.887 339.489C409.767 337.809 420.442 336.038 430.913 334.176C431.421 333.903 431.903 333.572 431.846 333.322C431.789 333.071 430.992 332.942 430.708 332.942C428.924 332.817 397.145 337.429 368.631 341.649Z" fill="#BC6022"/>
<path d="M358.213 343.22C358.258 343.6 358.3 344.014 358.346 344.408L368.001 343.494C368.11 342.933 368.027 342.351 367.766 341.843L358.213 343.22Z" fill="#CC9275"/>
<path d="M357.313 340.814C358.195 342.871 358.388 345.159 357.863 347.334C354.872 346.85 351.944 346.032 349.134 344.898L348.83 344.773L357.229 340.841" fill="black"/>
<path d="M62.2972 345.383C72.7757 345.383 81.2701 342.179 81.2701 338.225C81.2701 334.272 72.7757 331.067 62.2972 331.067C51.8187 331.067 43.3242 334.272 43.3242 338.225C43.3242 342.179 51.8187 345.383 62.2972 345.383Z" fill="#090110" stroke="#090110" stroke-width="1.8" stroke-miterlimit="10"/>
<path d="M49.0898 314.239C52.2751 313.028 55.6222 312.295 59.0223 312.064C64.6739 311.708 70.328 312.72 75.5055 315.013L74.3669 338.165C71.4074 340.894 67.5864 342.502 63.566 342.71C59.5456 342.918 55.5791 341.713 52.3538 339.304C51.2633 331.106 50.1753 322.908 49.0898 314.71" fill="#9BC699"/>
<path d="M49.0898 314.239C52.2751 313.028 55.6222 312.295 59.0223 312.064C64.6739 311.708 70.328 312.72 75.5055 315.013L74.3669 338.165C71.4074 340.894 67.5864 342.502 63.566 342.71C59.5456 342.918 55.5791 341.713 52.3538 339.304C51.2633 331.106 50.1753 322.908 49.0898 314.71" stroke="black" stroke-width="2" stroke-miterlimit="10"/>
<path d="M50.1511 319.864C46.4354 320.858 44.2911 324.589 45.1412 327.917C45.8661 330.756 48.6519 332.851 51.8666 332.798L52.2765 335.88C47.0047 336.738 42.1732 333.645 40.9663 329.428C39.5279 324.411 43.346 318.182 49.8133 317.321" fill="#9BC699"/>
<path d="M50.1511 319.864C46.4354 320.858 44.2911 324.589 45.1412 327.917C45.8661 330.756 48.6519 332.851 51.8666 332.798L52.2765 335.88C47.0047 336.738 42.1732 333.645 40.9663 329.428C39.5279 324.411 43.346 318.182 49.8133 317.321" stroke="black" stroke-width="2" stroke-miterlimit="10"/>
<path d="M51.9746 315.393C55.1856 317.042 58.7199 317.965 62.3273 318.096C65.9347 318.227 69.5268 317.563 72.849 316.152C66.1098 313.891 58.8603 313.627 51.9746 315.393Z" fill="#9BC699" stroke="black" stroke-width="2" stroke-miterlimit="10"/>
<path d="M380.822 20.9834H326.905C323.855 20.9834 321.383 23.4558 321.383 26.5056V82.6958C321.383 85.7457 323.855 88.218 326.905 88.218H380.822C383.872 88.218 386.344 85.7457 386.344 82.6958V26.5056C386.344 23.4558 383.872 20.9834 380.822 20.9834Z" fill="#FDCB93" stroke="#090110" stroke-width="4.28" stroke-miterlimit="10"/>
<path d="M369.531 31.2803H340.789C339.129 31.2803 337.783 32.6261 337.783 34.2862V36.07C337.783 37.7301 339.129 39.0759 340.789 39.0759H369.531C371.191 39.0759 372.537 37.7301 372.537 36.07V34.2862C372.537 32.6261 371.191 31.2803 369.531 31.2803Z" fill="#E5A76A"/>
<path d="M362.761 50.7051H330.997C330.171 50.7051 329.502 51.3737 329.502 52.1985C329.502 53.0234 330.171 53.692 330.997 53.692H362.761C363.586 53.692 364.256 53.0234 364.256 52.1985C364.256 51.3737 363.586 50.7051 362.761 50.7051Z" fill="#E5A76A"/>
<path d="M362.761 56.7129H330.997C330.171 56.7129 329.502 57.3815 329.502 58.2064C329.502 59.0312 330.171 59.6998 330.997 59.6998H362.761C363.586 59.6998 364.256 59.0312 364.256 58.2064C364.256 57.3815 363.586 56.7129 362.761 56.7129Z" fill="#E5A76A"/>
<path d="M361.964 62.7212H331.794C330.528 62.7212 329.502 63.7475 329.502 65.0136V67.4768C329.502 68.7428 330.528 69.7692 331.794 69.7692H361.964C363.23 69.7692 364.256 68.7428 364.256 67.4768V65.0136C364.256 63.7475 363.23 62.7212 361.964 62.7212Z" fill="#E5A76A"/>
<path d="M362.434 72.1411H331.324C330.318 72.1411 329.502 72.9567 329.502 73.9629V74.7675C329.502 75.7736 330.318 76.5893 331.324 76.5893H362.434C363.44 76.5893 364.256 75.7736 364.256 74.7675V73.9629C364.256 72.9567 363.44 72.1411 362.434 72.1411Z" fill="#E5A76A"/>
<path d="M379.386 49.9727H370.076C368.745 49.9727 367.666 51.0517 367.666 52.3827V66.7102C367.666 68.0412 368.745 69.1202 370.076 69.1202H379.386C380.717 69.1202 381.796 68.0412 381.796 66.7102V52.3827C381.796 51.0517 380.717 49.9727 379.386 49.9727Z" fill="#E5A76A"/>
<path d="M358.448 11.647H348.713V25.2078H358.448V11.647Z" fill="#6B4522"/>
<path d="M209.641 332.518C209.641 332.518 262.798 325.644 270.241 320.373L299.465 324.073C283.961 334.913 275.596 339.201 270.765 340.993C269.626 341.414 265.512 342.89 259.599 345.221C252.93 347.877 252.984 348.071 251.629 348.394C245.268 349.912 240.136 346.496 231.43 342.048C224.356 338.455 217.081 335.273 209.641 332.518Z" fill="#F2902F" stroke="#090110" stroke-width="2.61" stroke-miterlimit="10"/>
<path d="M213.527 332.593C213.527 332.593 259.246 326.365 265.645 321.587L290.789 324.942C290.789 324.942 266.101 346.522 251.014 345.084C235.927 343.645 213.527 332.593 213.527 332.593Z" fill="#F2DBC4" stroke="#090110" stroke-width="2.61" stroke-miterlimit="10"/>
<path d="M294.678 320.752C294.678 320.752 248.69 324.103 241.513 320.725L217.496 329.219C217.496 329.219 245.756 345.27 260.292 340.734C274.829 336.199 294.678 320.752 294.678 320.752Z" fill="#EA9C4E" stroke="#090110" stroke-width="2.61" stroke-miterlimit="10"/>
<path d="M290.553 320.877C290.553 320.877 244.561 324.225 237.384 320.847L213.367 329.344C213.367 329.344 241.627 345.391 256.148 340.856C270.669 336.32 290.553 320.877 290.553 320.877Z" fill="#FDCB93" stroke="#090110" stroke-width="2.61" stroke-miterlimit="10"/>
<path d="M413.918 312.258L614.411 304.447L542.201 321.807L413.918 312.258Z" fill="#090110"/>
<path d="M611.322 304.887L542.174 321.511L419.319 312.353L611.322 304.887ZM617.497 304.033L408.502 312.159L542.224 322.114L617.497 304.018V304.033Z" fill="#090110"/>
<path d="M196.151 325.299C173.599 325.299 152.399 323.507 136.458 320.255C120.852 317.07 111.895 312.721 111.895 308.322C111.895 303.923 120.852 299.574 136.447 296.39C152.387 293.137 173.588 291.342 196.14 291.342C218.692 291.342 239.893 293.137 255.837 296.39C271.428 299.57 280.37 303.92 280.37 308.322C280.37 312.725 271.428 317.07 255.837 320.255C239.893 323.507 218.692 325.299 196.151 325.299Z" fill="#090110"/>
<path d="M196.152 291.603C218.689 291.603 239.871 293.391 255.796 296.644C271.251 299.798 280.117 304.052 280.117 308.314C280.117 312.577 271.251 316.831 255.796 319.985C239.856 323.234 218.689 325.025 196.152 325.025C173.615 325.025 152.437 323.234 136.512 319.985C121.054 316.831 112.188 312.577 112.188 308.314C112.188 304.052 121.054 299.798 136.512 296.644C152.426 293.399 173.604 291.603 196.152 291.603ZM196.152 291.068C149.469 291.068 111.656 298.788 111.656 308.314C111.656 317.841 149.469 325.564 196.152 325.564C242.835 325.564 280.652 317.845 280.652 308.322C280.652 298.799 242.808 291.076 196.152 291.076V291.068Z" fill="#090110"/>
<path d="M696.182 288.647C685.058 288.647 676.006 286.575 676.006 284.032C676.006 281.489 685.058 279.413 696.182 279.413C707.306 279.413 716.354 281.485 716.354 284.032C716.354 286.579 707.302 288.647 696.182 288.647Z" fill="#090110"/>
<path d="M696.182 279.481C707.078 279.481 716.297 281.565 716.297 284.035C716.297 286.506 707.09 288.59 696.182 288.59C685.274 288.59 676.067 286.506 676.067 284.035C676.067 281.565 685.274 279.481 696.182 279.481ZM696.182 279.348C685.001 279.348 675.938 281.443 675.938 284.032C675.938 286.62 685.001 288.715 696.182 288.715C707.363 288.715 716.423 286.616 716.423 284.032C716.423 281.447 707.359 279.348 696.182 279.348Z" fill="#090110"/>
<path d="M420.515 266.273L406.965 307.719C406.965 307.719 405.884 311.704 408.483 312.159C411.083 312.615 419.414 312.159 419.414 312.159C419.414 312.159 421.919 312.558 422.8 308.774C423.68 304.99 436.083 267.127 436.083 267.127L420.515 266.273Z" fill="#DC8437" stroke="black" stroke-width="2" stroke-miterlimit="10"/>
<path d="M428.542 313.355C428.542 313.355 432.754 312.899 434.064 309.427C435.373 305.954 446.93 267.241 446.93 267.241L436.113 267.127L422.579 309.597C422.579 309.597 421.934 312.091 419.721 312.171C417.509 312.25 408.502 312.171 408.502 312.171C408.031 312.114 407.596 311.893 407.273 311.545C406.951 311.198 406.762 310.747 406.741 310.273C406.741 310.273 405.724 313.157 406.741 313.499C407.758 313.841 428.542 313.355 428.542 313.355Z" fill="#8D4A2E" stroke="black" stroke-width="2" stroke-miterlimit="10"/>
<path d="M529.82 271.868L525.379 316.068C525.379 316.068 524.298 320.053 526.898 320.509C529.497 320.964 537.828 320.509 537.828 320.509C538.299 320.554 538.773 320.459 539.191 320.236C540.576 319.533 541.039 317.803 541.214 317.123C541.866 314.569 543.87 296.799 546.197 272.665L529.82 271.868Z" fill="#DC8437" stroke="black" stroke-miterlimit="10"/>
<path d="M546.955 321.689C548.49 320.998 549.78 319.859 550.656 318.421C551.851 316.33 551.639 314.152 551.578 313.434C551.127 307.825 553.134 302.284 553.616 296.674C554.197 289.842 554.835 282.631 555.594 274.084L546.215 272.649C544.475 287.745 542.734 302.839 540.993 317.932C540.993 317.932 540.348 320.425 538.135 320.505C535.922 320.585 526.916 320.505 526.916 320.505C526.445 320.449 526.01 320.227 525.687 319.88C525.364 319.532 525.176 319.081 525.155 318.607C524.99 319.093 524.863 319.59 524.775 320.095C524.776 320.695 524.906 321.288 525.155 321.833C525.736 323.059 534.795 322.881 546.955 321.689Z" fill="#8D4A2E" stroke="black" stroke-width="2" stroke-miterlimit="10"/>
<path d="M569.936 273.731L402.394 264.714C401.086 264.644 399.855 264.075 398.954 263.124C398.053 262.174 397.551 260.914 397.551 259.605V251.024C397.552 249.676 398.084 248.382 399.033 247.424C399.981 246.467 401.27 245.922 402.618 245.908C433.011 245.471 455.066 246.667 470.057 247.957C483.626 249.096 492.621 250.42 508.77 250.561C512.258 250.591 523.598 250.633 538.567 251.297C545.82 251.62 550.632 251.938 556.667 253.066C561.9 254.046 567.046 255.443 572.057 257.24C573.06 257.602 573.926 258.268 574.532 259.145C575.138 260.022 575.455 261.067 575.439 262.133C575.406 264.321 575.373 266.514 575.34 268.71C575.329 269.399 575.178 270.078 574.897 270.707C574.617 271.337 574.212 271.903 573.707 272.371C573.202 272.84 572.608 273.202 571.96 273.436C571.312 273.67 570.623 273.77 569.936 273.731Z" fill="#8D4A2E" stroke="black" stroke-width="3" stroke-miterlimit="10"/>
<path d="M573.993 258.493L560.33 253.828L584.844 89.2202C585.812 89.2999 587.247 89.4366 588.981 89.6757C591.023 89.9603 592.598 90.2601 592.856 90.3171C597.084 91.209 601.521 99.9459 601.274 101.369C592.183 153.745 583.09 206.12 573.993 258.493Z" fill="#ECB180" stroke="black" stroke-width="2" stroke-miterlimit="10"/>
<path d="M541.473 73.0142C541.473 73.0142 550.961 73.7732 554.529 78.9349L553.466 88.8787L542.668 88.0893L544.653 75.7999C544.653 75.7999 544.964 73.6973 541.473 73.0142Z" fill="#7C453E" stroke="black" stroke-width="2" stroke-miterlimit="10"/>
<path d="M528.775 73.056L514.554 73.4355C514.263 73.4457 513.973 73.3877 513.709 73.266C513.444 73.1444 513.211 72.9625 513.03 72.735C512.848 72.5074 512.722 72.2405 512.661 71.9555C512.601 71.6706 512.608 71.3755 512.683 71.0938L522.031 35.8653C522.138 35.4628 522.377 35.1075 522.709 34.8559C523.041 34.6042 523.447 34.4706 523.864 34.4762L535.538 34.647C535.812 34.6513 536.082 34.7157 536.328 34.8355C536.574 34.9554 536.791 35.1278 536.963 35.3406C537.135 35.5534 537.259 35.8015 537.325 36.0673C537.391 36.333 537.398 36.61 537.345 36.8787L530.547 71.5454C530.467 71.9608 530.247 72.3364 529.925 72.6109C529.603 72.8853 529.198 73.0422 528.775 73.056Z" fill="#DC8437" stroke="black" stroke-width="2" stroke-miterlimit="10"/>
<path d="M533.121 34.6129C533.121 34.6129 542.913 33.5426 548.834 41.5129L544.253 73.4432L529.113 73.0143C529.113 73.0143 530.294 72.9194 530.597 71.3709L533.668 55.6923L537.353 36.8787C537.353 36.8787 538.188 34.203 533.121 34.6129Z" fill="#7C453E" stroke="black" stroke-width="2" stroke-miterlimit="10"/>
<path d="M580.818 212.759L607.815 305.669C607.815 305.669 618.745 307.719 617.379 300.659C616.013 293.6 585.043 188.165 585.043 188.165L580.818 212.759Z" fill="#8D5037" stroke="black" stroke-width="2" stroke-miterlimit="10"/>
<path d="M576.824 241.163C583.026 261.855 589.225 282.548 595.421 303.24C595.421 303.24 596.029 305.669 598.306 305.669H607.794L596.378 266.38L580.817 212.759C579.486 222.229 578.155 231.698 576.824 241.163Z" fill="#7C453E" stroke="black" stroke-width="2" stroke-miterlimit="10"/>
<path d="M559.872 253.581L406.426 244.374C404.021 244.23 401.955 246.062 401.811 248.467L401.384 255.587C401.24 257.991 403.072 260.057 405.476 260.201L558.922 269.408C561.326 269.552 563.392 267.72 563.536 265.316L563.964 258.196C564.108 255.791 562.276 253.725 559.872 253.581Z" fill="#DC8437"/>
<path d="M561.208 257.62L402.619 245.983C412.042 195.801 421.468 145.618 430.898 95.4332C431.416 92.7248 432.877 90.2876 435.022 88.5551C437.168 86.8227 439.858 85.9072 442.615 85.9714L584.595 88.9736C585.225 88.9841 585.845 89.1305 586.414 89.4026C586.982 89.6746 587.485 90.0661 587.889 90.5502C588.292 91.0344 588.587 91.5998 588.752 92.208C588.917 92.8162 588.949 93.4528 588.846 94.0745C579.625 148.588 570.413 203.104 561.208 257.62Z" fill="#FFE6AC" stroke="black" stroke-width="3" stroke-miterlimit="10"/>
<path d="M539.934 92.2756L492.716 91.7936C492.36 91.7903 492.01 91.7078 491.689 91.5521C491.369 91.3964 491.088 91.1714 490.865 90.8934C490.643 90.6155 490.485 90.2915 490.404 89.945C490.322 89.5985 490.319 89.2381 490.394 88.8901C491.393 84.2294 492.392 79.57 493.392 74.9118C493.508 74.3748 493.804 73.8938 494.232 73.5485C494.659 73.2033 495.192 73.0147 495.741 73.0142H542.287C542.635 73.0146 542.978 73.0906 543.294 73.2367C543.609 73.3828 543.889 73.5957 544.114 73.8605C544.34 74.1254 544.505 74.436 544.598 74.7708C544.692 75.1056 544.711 75.4568 544.656 75.7999L542.322 90.2564C542.23 90.8225 541.939 91.3372 541.501 91.7075C541.064 92.0778 540.508 92.2793 539.934 92.2756Z" fill="#DC8437" stroke="black" stroke-width="2" stroke-miterlimit="10"/>
<path d="M687.361 259.802C687.361 259.802 654.721 248.386 655.909 240.609C655.991 239.894 656.29 239.221 656.766 238.681C659.56 235.645 668.403 238.829 674.126 242.321C674.885 242.784 675.413 243.148 675.572 243.255C678.821 245.486 684.26 250.17 689.763 260.303L687.361 259.802Z" fill="#D6B97F" stroke="#090110" stroke-width="0.8" stroke-miterlimit="10"/>
<path d="M669.951 217.507C669.951 217.507 670.122 207.1 676.862 214.091C682.965 220.433 687.573 228.475 690.977 238.541C691.11 238.92 691.205 239.224 691.395 239.801C695.441 252.128 697.422 258.337 695.346 260.652C694.655 261.411 693.239 262.265 689.968 261.928C689.968 261.928 685.486 255.346 680.859 248.143C678.384 244.294 673.082 238.427 671.071 231.299C670.847 230.506 670.691 229.781 670.691 229.781C670.691 229.781 669.856 226.16 669.966 217.492L669.951 217.507Z" fill="#B59968" stroke="#090110" stroke-width="0.8" stroke-miterlimit="10"/>
<path d="M695.809 216.349C696.674 214.903 700.743 208.094 704.394 208.846C705.593 209.093 706.421 209.984 707.153 211.275C709.935 216.209 709.958 221.951 709.229 227.815C708.592 232.92 708.174 232.715 704.827 246.629C702.686 255.532 701.585 260.922 698.538 261.465C697.871 261.561 697.19 261.457 696.583 261.165C688.583 257.806 691.27 233.303 691.547 230.669C692.135 225.287 693.148 220.813 695.809 216.349Z" fill="#D6B97F" stroke="#090110" stroke-width="0.8" stroke-miterlimit="10"/>
<path d="M703.419 261.241C703.419 261.241 720.031 251.403 723.007 242.23C725.982 233.057 724.551 232.461 722.578 232.449C720.604 232.438 711.902 233.436 709.332 236.746C706.763 240.055 694.974 256.523 700.933 261.165C701.288 261.435 701.718 261.588 702.164 261.602C702.61 261.615 703.049 261.489 703.419 261.241Z" fill="#B29769" stroke="#090110" stroke-width="0.8" stroke-miterlimit="10"/>
<path d="M712.118 282.893C702.374 285.14 692.338 285.837 682.377 284.958C678.693 274.878 677.691 269.341 679.371 268.35C679.558 268.256 679.762 268.2 679.97 268.186C680.179 268.171 680.388 268.199 680.586 268.266L713.078 266.896C712.757 272.235 712.436 277.567 712.118 282.893Z" fill="#EA9B65" stroke="#090110" stroke-width="2.41" stroke-miterlimit="10"/>
<path d="M715.508 267.522L676.997 268.619C676.684 268.628 676.379 268.521 676.14 268.318C675.902 268.116 675.747 267.832 675.706 267.522L674.541 258.793C674.517 258.616 674.53 258.437 674.58 258.266C674.63 258.096 674.716 257.937 674.831 257.802C674.946 257.667 675.089 257.557 675.25 257.48C675.41 257.404 675.585 257.362 675.763 257.358L714.787 256.36C715.111 256.351 715.427 256.468 715.668 256.685C715.909 256.903 716.057 257.205 716.081 257.529L716.734 266.159C716.747 266.33 716.726 266.502 716.671 266.665C716.616 266.827 716.528 266.976 716.413 267.104C716.299 267.231 716.159 267.334 716.004 267.406C715.848 267.478 715.679 267.517 715.508 267.522Z" fill="#EA9B65" stroke="#090110" stroke-width="2.41" stroke-miterlimit="10"/>
<path d="M687.27 248.572C687.27 248.572 686.758 247.114 686.025 244.746C685.232 242.397 684.215 239.144 682.928 235.637C681.642 232.13 680.325 228.999 679.076 226.87C678.601 226.013 678.051 225.2 677.432 224.441C677.262 224.229 677.078 224.027 676.882 223.837C676.812 223.766 676.737 223.698 676.658 223.636C676.658 223.636 676.761 223.686 676.924 223.784C677.159 223.929 677.385 224.089 677.599 224.262C678.383 224.901 679.092 225.625 679.713 226.422C681.326 228.392 683.061 231.481 684.382 235.083C685.469 238.166 686.272 241.342 686.78 244.571C687.145 247.035 687.27 248.572 687.27 248.572Z" fill="#D6B97F" stroke="#D6B97F" stroke-width="0.13" stroke-miterlimit="10"/>
<path d="M702.307 254.383C702.307 254.383 703.001 253.005 704.25 250.834C705.912 248.021 707.831 245.366 709.981 242.905C712.535 240.044 715.294 237.816 717.496 236.594C718.351 236.091 719.262 235.687 720.209 235.391C720.458 235.311 720.711 235.249 720.968 235.205C721.054 235.188 721.14 235.178 721.226 235.174L720.987 235.269C720.75 235.37 720.518 235.484 720.293 235.611C719.458 236.083 718.665 236.626 717.921 237.231C716 238.75 713.628 241.137 711.135 243.926C708.641 246.716 706.485 249.373 704.872 251.274C703.259 253.176 702.307 254.383 702.307 254.383Z" fill="#D6B97F" stroke="#D6B97F" stroke-width="0.13" stroke-miterlimit="10"/>
<path d="M695.801 251.802C695.801 251.802 696.939 243.782 698.814 233.964C700.689 224.145 702.587 216.281 702.587 216.281C702.587 216.281 701.448 224.301 699.577 234.119C697.706 243.938 695.801 251.802 695.801 251.802Z" fill="#B29769" stroke="#B29769" stroke-width="0.07" stroke-miterlimit="10"/>
<path d="M682.81 254.724C682.81 254.724 677.876 252.067 672.039 248.374C666.202 244.681 661.674 241.368 661.674 241.368C661.674 241.368 666.608 244.025 672.449 247.714C678.29 251.403 682.81 254.724 682.81 254.724Z" fill="#B29769" stroke="#B29769" stroke-width="0.07" stroke-miterlimit="10"/>
<path d="M234.131 282.183C234.131 282.183 257.233 284.81 258.611 291.414C259.989 298.018 247.787 298.021 247.787 298.021C247.787 298.021 251.461 316.353 214.316 297.012C177.17 277.671 234.131 282.183 234.131 282.183Z" fill="#FA8510" stroke="black" stroke-width="2.25" stroke-miterlimit="10"/>
<path d="M177.604 296.454C177.604 296.454 200.858 300.527 202.118 307.165C203.378 313.803 191.07 313.017 191.07 313.017C191.07 313.017 194.414 331.402 157.325 309.882C120.237 288.362 177.604 296.454 177.604 296.454Z" fill="#FA8510" stroke="black" stroke-width="2.25" stroke-miterlimit="10"/>
<path d="M256.853 190.089C261.787 188.218 269.435 184.373 275.398 176.191C292.659 152.496 278.904 115.719 277.136 110.986C271.62 96.0829 261.971 83.0599 249.32 73.4428C220.399 51.7372 189.023 60.6107 183.246 62.2465C175.007 64.5769 156.641 70.0877 142.682 89.2504C135.511 99.2222 130.749 110.721 128.772 122.843C127.713 129.675 125.356 146.374 133.41 163.677C137.232 171.957 143.002 179.188 150.227 184.753C150.227 184.753 144.431 252.595 125.307 267.746C124.206 268.615 122.02 270.433 121.845 273.139C121.003 286.093 167.685 308.421 212.736 302.902C231.334 300.625 256.155 297.133 269.021 274.991C289.304 240.081 256.853 190.089 256.853 190.089Z" fill="#0D3E66" stroke="black" stroke-width="4.85" stroke-miterlimit="10"/>
<path d="M232.295 210.861C238.212 209.44 243.894 207.174 249.165 204.132C263.937 195.547 267.383 185.121 271.558 187.053C276.78 189.497 278.727 209.351 272.317 221.989C272.112 222.369 264.912 234.616 264.912 234.616L232.295 210.861Z" fill="#0D3E66"/>
<path d="M264.495 234.332L265.068 233.512L265.763 232.517C266.047 232.138 266.34 231.675 266.67 231.143C267.334 230.092 268.116 228.79 268.977 227.249C269.839 225.709 270.776 223.936 271.695 221.936C272.162 220.934 272.602 219.864 273.035 218.752C273.438 217.581 273.781 216.39 274.063 215.184C274.367 213.928 274.61 212.615 274.822 211.256C275.035 209.897 275.202 208.489 275.308 207.039C275.549 204.007 275.535 200.96 275.266 197.93C275.046 194.763 273.957 191.718 272.12 189.129C271.773 188.532 271.279 188.034 270.685 187.683C270.449 187.572 270.187 187.526 269.926 187.55C269.623 187.589 269.33 187.687 269.065 187.839C268.427 188.215 267.846 188.681 267.338 189.22C266.791 189.77 266.271 190.359 265.759 190.97C264.73 192.177 263.747 193.433 262.651 194.575C262.389 194.868 262.115 195.148 261.838 195.422L261.011 196.234C260.438 196.75 259.872 197.274 259.307 197.752C257.125 199.556 254.788 201.163 252.323 202.557C250.046 203.881 247.864 204.99 245.932 206.087C245.45 206.367 245.002 206.644 244.505 206.903C244.008 207.161 243.533 207.35 243.063 207.533C242.118 207.912 241.218 208.197 240.368 208.462C238.675 208.998 237.203 209.404 236 209.73C233.59 210.372 232.242 210.679 232.242 210.679C232.242 210.679 233.559 210.265 235.92 209.468C237.096 209.066 238.539 208.569 240.186 207.95C241.006 207.639 241.882 207.29 242.782 206.884C243.234 206.682 243.689 206.462 244.122 206.216C244.554 205.969 245.006 205.65 245.477 205.35C247.374 204.143 249.5 202.936 251.697 201.555C254.033 200.105 256.246 198.465 258.312 196.651C258.867 196.181 259.379 195.661 259.914 195.156L260.673 194.355C260.935 194.089 261.193 193.812 261.432 193.528C262.449 192.42 263.391 191.175 264.423 189.922C264.939 189.292 265.478 188.662 266.074 188.043C266.694 187.375 267.409 186.801 268.196 186.339C268.664 186.074 269.18 185.904 269.714 185.838C270.291 185.775 270.874 185.868 271.403 186.108C271.888 186.335 272.323 186.655 272.685 187.049C273.007 187.393 273.3 187.762 273.562 188.154C273.82 188.533 274.044 188.878 274.276 189.254C274.507 189.63 274.731 190.013 274.936 190.393C275.339 191.172 275.684 191.98 275.968 192.81C276.519 194.422 276.851 196.101 276.955 197.801C277.185 200.923 277.133 204.059 276.8 207.172C276.655 208.656 276.42 210.094 276.166 211.484C275.911 212.873 275.585 214.209 275.225 215.484C274.884 216.722 274.478 217.941 274.006 219.135C273.505 220.274 273.008 221.325 272.488 222.319C271.456 224.308 270.416 226.046 269.452 227.542C268.488 229.037 267.63 230.297 266.894 231.307C266.157 232.316 265.531 233.045 265.125 233.565L264.495 234.332Z" fill="black" stroke="black" stroke-width="0.15" stroke-miterlimit="10"/>
<path d="M228.749 300.454C224.286 301.339 201.138 305.453 188.181 290.465C172.445 272.27 174.776 229.432 204.987 196.936C182.419 193.828 165.086 174.798 162.684 152.151C160.327 129.933 172.43 105.126 190.5 100.117C204.501 96.2339 216.972 105.684 220.062 108.022C234.56 119.029 238.37 136.153 239.186 140.283C238.875 136.487 236.188 100.204 249.616 92.8599C250.878 92.1811 252.253 91.735 253.673 91.5429C264.475 90.1576 274.791 104.751 279.17 115.913C282.18 123.583 282.685 130.388 283.228 137.649C283.779 145.07 283.559 152.529 282.571 159.905C281.66 163.7 279.239 171.777 272.79 179.155C268.517 184.123 263.023 187.891 256.85 190.089C264.501 200.537 269.747 212.547 272.21 225.261C274.172 235.337 278.548 257.783 266.414 277.295C253.791 297.596 232.393 300.097 228.749 300.454Z" fill="#BAEAFF" stroke="black" stroke-width="3.64" stroke-linejoin="round"/>
<path d="M155.367 220.171C165.413 218.16 171.668 214.247 175.342 211.355C189.544 200.162 194.698 180.886 203.458 180.848C204.462 180.857 205.454 181.055 206.384 181.432C211.151 183.542 212.138 190.769 212.537 193.687C213.835 203.202 199.253 224.191 175.407 247.726" fill="#0D3E66"/>
<path d="M175.076 247.395L178.974 243.057C181.467 240.256 185.046 236.184 189.289 231.018C191.407 228.434 193.684 225.576 196.034 222.445C198.383 219.313 200.805 215.917 203.139 212.239C204.308 210.402 205.442 208.485 206.501 206.5C207.584 204.514 208.516 202.45 209.291 200.325C209.671 199.286 209.972 198.219 210.19 197.133C210.408 196.137 210.471 195.113 210.376 194.097C210.088 191.759 209.652 189.383 208.805 187.326C208.348 186.129 207.64 185.043 206.729 184.142C206.584 184.008 206.432 183.881 206.274 183.762C206.212 183.708 206.147 183.657 206.08 183.611L205.822 183.466C205.442 183.254 205.659 183.356 205.59 183.299L205.651 183.333L205.556 183.277L205.264 183.163C205.041 183.087 204.814 183.022 204.585 182.969C204.155 182.86 203.711 182.815 203.268 182.836C202.391 182.889 201.543 183.17 200.808 183.652C199.94 184.213 199.141 184.876 198.429 185.626C197.665 186.412 196.944 187.24 196.269 188.104C194.891 189.839 193.612 191.66 192.356 193.437C191.1 195.213 189.866 196.955 188.625 198.621C186.316 201.784 183.763 204.761 180.989 207.525C178.6 209.876 175.949 211.944 173.087 213.689C170.781 215.073 168.347 216.23 165.819 217.146C163.958 217.821 162.057 218.379 160.126 218.816C159.34 218.995 158.646 219.143 158.042 219.245C157.439 219.348 156.93 219.45 156.524 219.503L155.279 219.685L156.494 219.351C156.892 219.249 157.386 219.101 157.966 218.919C158.547 218.736 159.223 218.539 159.974 218.266C161.809 217.633 163.607 216.898 165.36 216.065C167.702 214.954 169.94 213.635 172.047 212.125C174.61 210.257 176.965 208.119 179.072 205.749C181.557 202.914 183.84 199.908 185.904 196.754C187.043 195.069 188.181 193.296 189.346 191.44C190.512 189.584 191.753 187.698 193.176 185.774C193.9 184.773 194.682 183.815 195.518 182.905C196.428 181.887 197.461 180.986 198.592 180.221C199.913 179.328 201.446 178.797 203.036 178.68C203.84 178.627 204.648 178.687 205.435 178.859C205.82 178.938 206.2 179.038 206.573 179.159C206.767 179.223 206.953 179.284 207.166 179.375C207.226 179.397 207.284 179.424 207.34 179.455C207.393 179.478 207.444 179.506 207.492 179.538L207.936 179.876C207.617 179.618 207.959 179.929 208.149 179.937L208.365 180.005C208.483 180.072 208.596 180.148 208.703 180.233C209.002 180.437 209.288 180.658 209.56 180.897C210.244 181.507 210.849 182.201 211.359 182.962C211.928 183.804 212.408 184.703 212.79 185.645C213.317 186.944 213.725 188.288 214.009 189.66C214.15 190.326 214.277 190.985 214.388 191.638C214.441 191.964 214.487 192.29 214.529 192.609L214.589 193.088C214.608 193.247 214.631 193.391 214.646 193.6C214.775 195.049 214.675 196.509 214.35 197.927C214.071 199.22 213.69 200.489 213.212 201.722C212.312 204.023 211.228 206.248 209.97 208.375C208.775 210.444 207.511 212.391 206.217 214.235C203.628 217.928 200.964 221.253 198.376 224.274C195.787 227.295 193.278 230.009 190.94 232.438C186.257 237.284 182.268 240.996 179.478 243.52C178.082 244.776 176.989 245.744 176.241 246.393L175.076 247.395Z" fill="black" stroke="black" stroke-width="0.37" stroke-miterlimit="10"/>
<path d="M3.99609 268.042L35.4671 268.888L106.873 283.633L3.99609 298.409V268.042Z" fill="#090110"/>
<path d="M4.25791 268.315L35.4367 269.15L105.324 283.573L4.25791 298.101V268.315ZM3.72656 267.765V298.716L108.418 283.679L35.4974 268.619L3.72656 267.765Z" fill="#090110"/>
<path d="M35.498 273.811L24.4688 276.316V196.112L35.9876 195.611L35.498 273.811Z" fill="#AD9286" stroke="black" stroke-width="2" stroke-miterlimit="10"/>
<path d="M24.4688 276.263L17.4512 273.31L17.9522 196.614L24.9811 196.363L24.4688 276.263Z" fill="#51250D" stroke="black" stroke-width="2" stroke-miterlimit="10"/>
<path d="M117.439 192.947L-69.5233 206.482L-91.5781 182.423L54.281 174.399L117.439 192.947Z" fill="#AD9286" stroke="black" stroke-width="2" stroke-miterlimit="10"/>
<path d="M116.938 204.979L-69.5234 218.513V206.481L117.451 192.947L116.938 204.979Z" fill="#51250D" stroke="black" stroke-width="2" stroke-miterlimit="10"/>
<path d="M108.418 283.679L97.3887 286.184V205.98L108.919 205.479L108.418 283.679Z" fill="#AD9286" stroke="black" stroke-width="2" stroke-miterlimit="10"/>
<path d="M97.3887 286.131L90.3711 283.178L90.8721 206.481L97.8935 206.231C97.7265 232.864 97.5582 259.497 97.3887 286.131Z" fill="#51250D" stroke="black" stroke-width="2" stroke-miterlimit="10"/>
<path d="M10.4215 154.022C10.4215 154.022 4.1668 153.995 5.65458 157.817C7.14236 161.639 20.5286 193.786 20.5286 193.786C20.5286 193.786 23.1853 196.921 30.3054 195.539C37.4255 194.158 73.5724 186.005 73.5724 186.005C73.5724 186.005 78.1268 184.332 74.563 177.158" fill="#666565"/>
<path d="M10.4215 154.022C10.4215 154.022 4.1668 153.995 5.65458 157.817C7.14236 161.639 20.5286 193.786 20.5286 193.786C20.5286 193.786 23.1853 196.921 30.3054 195.539C37.4255 194.158 73.5724 186.005 73.5724 186.005C73.5724 186.005 78.1268 184.332 74.563 177.158" stroke="#090110" stroke-width="1.13" stroke-miterlimit="10"/>
<path d="M12.2166 173.785L7.66215 186.309C7.66215 186.309 6.86512 188.541 8.45917 188.86C10.0532 189.179 18.6041 188.328 18.6041 188.328L12.2166 173.785Z" fill="#1E1E1E" stroke="#090110" stroke-width="1.13" stroke-miterlimit="10"/>
<path d="M9.26953 154.212L24.7811 190.552C24.7811 190.552 24.6749 194.166 31.9012 193.103C39.1276 192.04 73.5628 183.11 73.5628 183.11C73.5628 183.11 75.7906 182.578 73.5628 176.309C71.3349 170.039 60.279 146.025 60.279 146.025L9.26953 154.212Z" fill="#1E1E1E" stroke="#090110" stroke-width="1.13" stroke-miterlimit="10"/>
<path d="M19.0371 157.829L30.3928 184.431C30.3928 184.431 30.3131 187.087 35.6038 186.294C40.8945 185.501 66.0919 178.984 66.0919 178.984C66.0919 178.984 67.7239 178.605 66.0919 174.008C64.4599 169.412 56.3682 151.84 56.3682 151.84L19.0371 157.829Z" fill="#739BFF" stroke="#090110" stroke-width="0.83" stroke-miterlimit="10"/>
<path d="M18.7878 165.902C19.5507 165.902 20.1693 165.283 20.1693 164.52C20.1693 163.757 19.5507 163.139 18.7878 163.139C18.0248 163.139 17.4062 163.757 17.4062 164.52C17.4062 165.283 18.0248 165.902 18.7878 165.902Z" fill="#739BFF" stroke="#090110" stroke-width="0.83" stroke-miterlimit="10"/>
<path d="M20.1686 169.139C20.9316 169.139 21.5501 168.52 21.5501 167.757C21.5501 166.995 20.9316 166.376 20.1686 166.376C19.4056 166.376 18.7871 166.995 18.7871 167.757C18.7871 168.52 19.4056 169.139 20.1686 169.139Z" fill="#739BFF" stroke="#090110" stroke-width="0.83" stroke-miterlimit="10"/>
<path d="M24.791 179.063C25.4926 178.763 25.3232 176.792 24.4125 174.66C23.5018 172.528 22.1948 171.043 21.4931 171.343C20.7915 171.642 20.9609 173.614 21.8716 175.745C22.7822 177.877 24.0893 179.363 24.791 179.063Z" fill="#739BFF" stroke="#090110" stroke-width="0.83" stroke-miterlimit="10"/>
<path d="M91.1728 177.948C95.4384 177.948 98.8963 177.113 98.8963 176.084C98.8963 175.055 95.4384 174.221 91.1728 174.221C86.9072 174.221 83.4492 175.055 83.4492 176.084C83.4492 177.113 86.9072 177.948 91.1728 177.948Z" fill="#EF8535" stroke="black" stroke-width="0.27" stroke-miterlimit="10"/>
<path d="M83.7372 179.523L85.1036 189.171C85.1036 189.171 85.0618 190.249 86.9481 191.015C88.8344 191.782 95.4573 191.573 96.3264 190.704C97.1955 189.835 97.3208 189.998 97.5675 188.715C97.8142 187.432 98.7061 176.893 98.7061 176.893C98.7061 176.893 87.988 179.895 83.4336 176.513L83.7372 179.523Z" fill="#F3A466" stroke="black" stroke-width="0.73" stroke-miterlimit="10"/>
<path d="M85.9463 177.39L84.9102 168.528L85.9463 163.514L87.8895 168.444L89.0509 177.762" fill="#987C86"/>
<path d="M85.9463 177.39L84.9102 168.528L85.9463 163.514L87.8895 168.444L89.0509 177.762" stroke="black" stroke-width="0.73" stroke-linecap="round" stroke-linejoin="round"/>
<path d="M94.7697 165.598L91.9688 177.959L94.671 177.618C95.4301 173.822 96.1892 170.017 96.9482 166.201L94.7697 165.598Z" fill="#D27B55" stroke="black" stroke-width="0.36" stroke-miterlimit="10"/>
<path d="M95.7691 166.008C96.8204 166.368 97.3594 166.167 97.6175 166.008C98.8396 165.249 98.8699 162.421 97.4277 158.907C94.7368 161.563 93.564 164.141 94.3648 165.302C94.5356 165.552 94.9 165.883 95.7691 166.008Z" fill="#D27B55" stroke="black" stroke-width="0.36" stroke-miterlimit="10"/>
<path d="M504.206 163.017C513.978 163.017 521.9 155.095 521.9 145.323C521.9 135.551 513.978 127.629 504.206 127.629C494.434 127.629 486.512 135.551 486.512 145.323C486.512 155.095 494.434 163.017 504.206 163.017Z" stroke="black" stroke-width="4.33" stroke-miterlimit="10"/>
<path d="M496.693 148.625C498.028 148.625 499.111 147.123 499.111 145.27C499.111 143.417 498.028 141.915 496.693 141.915C495.358 141.915 494.275 143.417 494.275 145.27C494.275 147.123 495.358 148.625 496.693 148.625Z" fill="black" stroke="black" stroke-width="1.26" stroke-miterlimit="10"/>
<path d="M508.767 148.678C510.102 148.678 511.185 147.176 511.185 145.323C511.185 143.47 510.102 141.968 508.767 141.968C507.432 141.968 506.35 143.47 506.35 145.323C506.35 147.176 507.432 148.678 508.767 148.678Z" fill="black" stroke="black" stroke-width="1.26" stroke-miterlimit="10"/>
<path d="M497.324 155.73C497.958 153.198 500.44 151.669 502.752 152.155C503.766 152.398 504.67 152.972 505.321 153.787C505.972 154.601 506.332 155.609 506.346 156.652" stroke="black" stroke-width="3.25" stroke-linecap="round" stroke-linejoin="round"/>
<path d="M501.146 162.987L494.371 201.282" stroke="black" stroke-width="6.49" stroke-miterlimit="10" stroke-linecap="round"/>
<path d="M509.336 222.771L494.522 200.424L471.094 218.463" stroke="black" stroke-width="6.49" stroke-miterlimit="10" stroke-linecap="round"/>
<path d="M498.151 179.914L471.094 165.685" stroke="black" stroke-width="6.49" stroke-miterlimit="10" stroke-linecap="round"/>
<path d="M527.266 170.927L498.152 180.252" stroke="black" stroke-width="6.49" stroke-miterlimit="10" stroke-linecap="round"/>
</g>
<path d="M250.622 150.856L253.492 160.982C253.568 161.244 253.773 166.778 253.773 166.778L252.634 169.203C252.315 169.867 248.303 172.19 248.038 172.038C247.772 171.886 239.597 168.562 239.597 168.562C239.597 168.562 233.095 162.489 232.883 162.364C232.67 162.239 230.947 158.777 230.947 158.777C230.947 158.777 238.071 154.352 238.538 154.185C239.005 154.018 250.622 150.856 250.622 150.856Z" fill="#A23D2E"/>
<path d="M252.592 165.597C252.592 165.597 244.39 159.145 237.756 165.1C239.116 166.073 240.536 166.96 242.007 167.757C243.64 168.593 245.362 169.242 247.142 169.689C247.871 169.894 248.644 169.881 249.366 169.651C249.602 169.566 249.829 169.459 250.045 169.332C250.772 168.905 251.377 168.299 251.802 167.571C252.18 166.965 252.447 166.297 252.592 165.597Z" fill="#D44E28"/>
<path d="M266.108 127.439C264.21 118.976 258.323 114.96 255.162 116.125C252.384 117.15 250.342 122.672 251.367 129.162" stroke="black" stroke-width="8.49" stroke-miterlimit="10" stroke-linecap="round"/>
<path d="M218.418 136.753C216.52 128.289 210.634 124.27 207.472 125.439C204.698 126.464 202.652 131.986 203.677 138.472" stroke="black" stroke-width="8.49" stroke-miterlimit="10" stroke-linecap="round"/>
<path d="M230.621 152.925C230.181 153.591 229.8 154.295 229.483 155.028C228.963 156.219 228.344 157.662 228.53 159.453C228.561 159.753 228.611 160.051 228.682 160.345C229.49 163.761 233.426 167.689 233.885 168.137C236.519 170.718 237.832 172.008 239.605 172.995C241.764 174.198 244.345 175.652 247.62 175.075C249.331 174.749 250.933 174.004 252.284 172.905C253.635 171.807 254.692 170.39 255.359 168.782C256.225 166.66 256.187 164.634 256.156 163.062C256.088 161.007 255.721 158.973 255.067 157.024C254.426 154.871 253.542 152.799 252.433 150.845L249.943 152.477C249.943 152.477 252.357 159.347 252.577 161.783C252.759 163.78 253.01 166.235 251.594 168.012C251.153 168.53 250.614 168.955 250.007 169.264C249.401 169.573 248.739 169.759 248.061 169.811C244.538 169.055 241.209 167.582 238.28 165.484C236.591 164.254 234.151 162.448 232.481 159.07C232.242 158.592 232.022 158.068 232.022 158.068C231.329 156.423 230.858 154.694 230.621 152.925Z" fill="#FA8510" stroke="black" stroke-width="1.54" stroke-miterlimit="10"/>
<path d="M233.285 144.682C234.512 142.968 236.058 141.507 237.84 140.381C237.84 140.381 244.094 135.766 251.765 137.482C253.518 137.861 256.456 138.529 257.424 140.985C258.145 142.822 257.424 144.78 257.116 145.589C255.704 149.289 252.41 151.21 247.275 153.483C237.229 157.927 232.207 160.148 230.408 158.068C228.237 155.552 230.393 148.72 233.285 144.682Z" fill="#FA8510" stroke="black" stroke-width="2.32" stroke-miterlimit="10"/>
<path d="M200.66 168.755C205.601 168.755 209.606 164.346 209.606 158.907C209.606 153.467 205.601 149.058 200.66 149.058C195.72 149.058 191.715 153.467 191.715 158.907C191.715 164.346 195.72 168.755 200.66 168.755Z" fill="#F4A127" stroke="black" stroke-width="0.87" stroke-miterlimit="10"/>
<path d="M270.293 159.392C274.169 159.392 277.311 155.933 277.311 151.665C277.311 147.397 274.169 143.938 270.293 143.938C266.417 143.938 263.275 147.397 263.275 151.665C263.275 155.933 266.417 159.392 270.293 159.392Z" fill="#F4A127" stroke="black" stroke-width="0.87" stroke-miterlimit="10"/>
<defs>
<linearGradient id="paint0_linear_377_5599" x1="0.728516" y1="314.5" x2="746.729" y2="314.5" gradientUnits="userSpaceOnUse">
<stop stop-color="#1F8BF7"/>
<stop offset="1" stop-color="#DC33FC"/>
</linearGradient>
</defs>
</svg>
