<svg width="747" height="399" viewBox="0 0 747 399" fill="none" xmlns="http://www.w3.org/2000/svg">
<rect x="0.910156" y="267" width="746" height="132" rx="66" fill="url(#paint0_linear_377_4213)"/>
<path d="M710.084 112.294H511.703C509.229 112.294 507.223 114.301 507.223 116.776V117.06C507.223 119.535 509.229 121.542 511.703 121.542H710.084C712.558 121.542 714.564 119.535 714.564 117.06V116.776C714.564 114.301 712.558 112.294 710.084 112.294Z" fill="#A66F69"/>
<path d="M483.83 339.214L443.578 347.73L433.496 343.846L475.466 335.181L483.83 339.214Z" fill="#EA903F"/>
<path d="M483.569 345.807L443.578 353.93V347.73L483.83 339.214C483.745 341.415 483.658 343.613 483.569 345.807Z" fill="#C5682E"/>
<path d="M443.577 353.93L433.496 349.672C432.832 349.435 432.265 348.983 431.887 348.387C431.508 347.792 431.339 347.088 431.405 346.385C431.484 345.81 431.722 345.268 432.091 344.82C432.46 344.371 432.946 344.034 433.496 343.846L443.577 347.73V353.93Z" fill="#DE9C5C"/>
<path d="M454.705 345.362L443.578 347.715L433.746 343.778L448.219 340.791L454.705 345.362Z" fill="#FECC7E"/>
<path d="M455.034 351.603L443.578 353.93V347.73L454.705 345.362L455.034 351.603Z" fill="#DE9C5C"/>
<path d="M600.363 1H536.348C530.533 1 525.818 5.71558 525.818 11.5326V79.658C525.818 85.475 530.533 90.1905 536.348 90.1905H600.363C606.178 90.1905 610.892 85.475 610.892 79.658V11.5326C610.892 5.71558 606.178 1 600.363 1Z" fill="#BC7C6B" stroke="black" stroke-width="2" stroke-miterlimit="10"/>
<path d="M593.451 10.6289H543.26C538.7 10.6289 535.004 14.3261 535.004 18.8869V72.3003C535.004 76.8611 538.7 80.5583 543.26 80.5583H593.451C598.011 80.5583 601.707 76.8611 601.707 72.3003V18.8869C601.707 14.3261 598.011 10.6289 593.451 10.6289Z" fill="#89C3F7"/>
<path d="M536.735 59.0412C536.735 59.0412 548.609 33.9424 553.762 32.3737C558.915 30.805 564.127 28.7882 568.354 37.752C572.581 46.7159 572.133 49.6292 575.045 46.7159C577.958 43.8026 582.14 42.4954 584.679 45.024C587.83 48.1725 590.855 50.3836 594.536 59.0412C595.481 61.2598 596.456 64.005 595.208 65.7641C594.743 66.3473 594.121 66.7863 593.416 67.0303C588.965 68.6176 545.118 67.2955 537.93 67.0751C537.93 67.0751 531.806 63.9714 536.735 59.0412Z" fill="#B6E8AF"/>
<path d="M584.379 39.0218C587.225 39.0218 589.532 36.7142 589.532 33.8676C589.532 31.021 587.225 28.7134 584.379 28.7134C581.534 28.7134 579.227 31.021 579.227 33.8676C579.227 36.7142 581.534 39.0218 584.379 39.0218Z" fill="#B6E8AF"/>
<path d="M318.544 356.518C312.616 356.506 306.704 355.897 300.897 354.7C298.526 353.725 298.03 352.974 298.037 352.511C298.037 351.424 300.733 349.217 318.574 346.666C332.363 344.694 353.329 342.766 380.893 340.936H380.938C381.184 340.886 381.434 340.86 381.685 340.858C382.198 340.826 382.704 340.992 383.1 341.321C383.458 341.675 383.667 342.151 383.686 342.654C383.649 344.791 373.72 346.897 365.763 348.593L365.3 348.69C357.216 350.404 353.158 351.267 352.362 351.413C334.858 354.692 325.217 356.5 318.843 356.522L318.544 356.518Z" fill="#090110"/>
<path d="M381.714 341.171C382.146 341.14 382.574 341.273 382.912 341.545C383.203 341.836 383.376 342.224 383.398 342.635C383.398 342.897 383.024 343.857 378.293 345.283C375.082 346.254 370.874 347.17 365.706 348.271C357.327 350.049 353.123 350.942 352.316 351.091C334.845 354.371 325.193 356.193 318.849 356.193H318.539C312.643 356.181 306.764 355.575 300.99 354.385C298.473 353.351 298.353 352.637 298.353 352.518C298.353 352.327 298.596 351.327 303.122 349.989C306.546 348.977 311.766 347.965 318.632 347.001C332.414 345.033 353.358 343.106 380.929 341.276H380.97H381.012C381.243 341.229 381.478 341.205 381.714 341.205M381.714 340.566C381.436 340.568 381.16 340.597 380.888 340.652C325.484 344.332 297.76 348.295 297.715 352.54C297.715 353.362 298.744 354.195 300.803 355.039C306.638 356.249 312.58 356.862 318.539 356.869H318.853C325.126 356.847 334.315 355.151 352.432 351.756C353.246 351.603 357.443 350.714 365.841 348.932C375.321 346.919 383.991 345.033 384.032 342.688C384.026 342.393 383.962 342.102 383.843 341.833C383.725 341.563 383.554 341.319 383.341 341.115C382.887 340.734 382.306 340.538 381.714 340.566Z" fill="#090110"/>
<path d="M300.441 350.561C300.441 350.561 315.34 343.39 316.796 343.838C318.252 344.286 321.501 348.768 318.476 353.362C312.325 353.972 306.119 353.008 300.441 350.561Z" fill="#EFA87C" stroke="black" stroke-width="2" stroke-miterlimit="10"/>
<path d="M318.477 353.362L379.654 344.51C387.159 338.348 378.534 334.762 378.534 334.762L316.625 343.838C316.625 343.838 322.211 346.677 318.477 353.362Z" fill="#D78147" stroke="black" stroke-width="2" stroke-linecap="round" stroke-linejoin="round"/>
<path d="M319.969 347.517C320.014 347.76 320.051 348.025 320.081 348.302C320.124 348.749 320.136 349.198 320.118 349.646C329.826 348.354 339.698 346.937 349.732 345.396C360.453 343.74 370.957 341.997 381.243 340.167C381.739 339.898 382.213 339.577 382.161 339.327C382.109 339.076 381.321 338.976 381.041 338.953C379.279 338.83 348.022 343.368 319.969 347.517Z" fill="#BC6022"/>
<path d="M309.711 349.056C309.756 349.448 309.797 349.837 309.842 350.229L319.344 349.329C319.405 349.013 319.405 348.688 319.344 348.373C319.299 348.14 319.22 347.914 319.109 347.704L309.711 349.056Z" fill="#CC9275"/>
<path d="M308.832 346.695C309.703 348.72 309.894 350.973 309.377 353.116C306.435 352.636 303.554 351.832 300.789 350.718L300.494 350.591L308.757 346.721" fill="black"/>
<path d="M315.209 285.977C309.339 286.01 304.754 290.974 305.019 296.464C305.306 302.145 310.724 306.691 316.732 305.802C316.672 305.327 316.583 304.644 316.463 303.822C316.03 300.913 315.825 300.52 315.492 300.285C314.746 299.751 314.074 300.569 312.83 300.214C311.307 299.785 310.396 298.026 310.116 296.741C309.798 295.299 310.004 293.163 311.325 292.195C312.711 291.187 314.425 292.106 315.059 291.075C315.343 290.623 315.134 290.249 315.059 288.834C315.019 287.879 315.069 286.922 315.209 285.977Z" fill="#70432D" stroke="black" stroke-width="0.75" stroke-miterlimit="10"/>
<path d="M315.474 283.168C315.601 282.122 317.412 281.401 319.081 280.587C320.69 279.803 322.307 279.429 328.091 279.384C336.761 279.317 338.796 280.102 339.801 280.557C341.273 281.225 342.64 282.106 343.856 283.172C343.856 283.172 345.805 298.971 339.98 310.747C339.98 310.747 327.919 315.729 318.36 309.578C318.36 309.574 313.674 298.22 315.474 283.168Z" fill="#70432D" stroke="black" stroke-width="0.75" stroke-miterlimit="10"/>
<path d="M341.28 283.459L340.5 284.001C339.764 284.462 338.985 284.85 338.174 285.158C336.124 285.965 333.054 286.499 329.712 286.279C326.869 286.105 324.056 285.593 321.333 284.755C320.208 284.428 319.102 284.035 318.021 283.579C318.021 283.579 319.306 283.952 321.419 284.411C324.161 285.012 326.945 285.398 329.746 285.566C333.017 285.763 335.989 285.427 338.054 284.819C338.875 284.578 339.676 284.272 340.448 283.903L341.28 283.459Z" fill="black" stroke="black" stroke-width="0.06" stroke-miterlimit="10"/>
<path d="M338.87 284.655C340.703 283.769 333.863 283.09 329.987 283.123C327.085 283.151 324.21 283.679 321.488 284.684C321.488 284.684 332.75 287.601 338.87 284.655Z" fill="#3D2014"/>
<path d="M338.905 284.721C338.905 284.721 338.464 284.927 337.647 285.274C336.453 285.684 335.216 285.957 333.961 286.088C332.085 286.28 330.195 286.296 328.315 286.137C327.248 286.059 326.131 285.924 324.955 285.764C324.376 285.674 323.79 285.566 323.193 285.454L322.744 285.36L322.371 285.278L321.942 285.177L321.09 284.975L320.254 284.766L321.031 284.482C321.307 284.385 321.568 284.284 321.859 284.191L322.281 284.049L322.494 283.978L322.67 283.926C322.968 283.833 323.267 283.75 323.566 283.672C324.163 283.519 324.757 283.388 325.343 283.298C326.472 283.094 327.614 282.969 328.76 282.925C329.792 282.892 330.825 282.911 331.855 282.981C332.819 283.044 333.722 283.127 334.532 283.224C335.823 283.348 337.1 283.586 338.349 283.933C338.54 283.991 338.725 284.069 338.901 284.165C339.054 284.247 339.148 284.37 339.088 284.434C339.016 284.515 338.925 284.576 338.823 284.613L338.897 284.568C338.963 284.532 339.02 284.481 339.062 284.419C339.062 284.389 339.062 284.378 339.039 284.337C338.99 284.29 338.934 284.252 338.871 284.225C338.694 284.145 338.509 284.083 338.319 284.042C337.06 283.787 335.782 283.632 334.499 283.579C332.6 283.446 330.695 283.429 328.793 283.526C327.679 283.603 326.57 283.75 325.474 283.967C324.906 284.079 324.328 284.214 323.749 284.37C323.461 284.445 323.17 284.531 322.879 284.621L322.804 284.639H322.774H322.812H322.871L323.312 284.733C323.898 284.852 324.473 284.968 325.045 285.065C326.165 285.263 327.285 285.439 328.33 285.536C330.176 285.754 332.037 285.819 333.894 285.73C335.138 285.671 336.372 285.479 337.576 285.158L338.905 284.721Z" fill="black" stroke="black" stroke-width="0.06" stroke-miterlimit="10"/>
<path d="M326.258 259.593C326.937 262.069 329.025 264.153 329.514 264.627C331.623 266.655 332.904 266.465 334.084 268.388C334.185 268.553 335.645 271.003 335.018 273.815C334.555 275.881 333.061 277.666 333.39 277.924C333.468 277.984 333.614 277.924 333.677 277.898C337.344 276.277 338.531 273.438 338.531 273.438C339.017 272.203 339.224 270.877 339.139 269.552C339.053 268.228 338.676 266.939 338.035 265.778C336.056 262.218 332.602 262.222 332.206 259.245C332.094 258.409 332.333 257.527 332.811 255.768C333.479 253.303 334.39 252.825 334.476 251.223C334.555 249.751 333.979 247.641 332.9 247.349C330.615 246.729 324.693 253.927 326.258 259.593Z" fill="#CCCAAF"/>
<path d="M325.991 270.824L324.497 268.975C324.497 268.975 322.604 264.198 326.883 267.13C331.162 270.062 331.166 273.853 331.166 273.853C331.166 273.853 330.957 276.176 330.352 276.781C329.747 277.386 329.183 275.205 328.821 274.843C328.459 274.48 327.234 271.183 325.991 270.824Z" fill="#CCCAAF"/>
<path d="M132.019 98.669L82.0815 94.6726C80.9839 94.5846 79.9642 94.0709 79.24 93.2412C78.5159 92.4115 78.1447 91.3315 78.2057 90.2317L81.3758 33.707C81.4369 32.6309 81.9072 31.6189 82.6903 30.8786C83.4735 30.1383 84.5102 29.7258 85.5877 29.7256H133.035C133.593 29.7251 134.145 29.8354 134.66 30.0501C135.175 30.2649 135.642 30.5798 136.034 30.9767C136.426 31.3735 136.736 31.8443 136.945 32.3617C137.153 32.8792 137.257 33.4329 137.25 33.9909L136.571 94.497C136.567 95.0765 136.443 95.6488 136.208 96.1783C135.972 96.7078 135.631 97.1831 135.203 97.5746C134.776 97.966 134.273 98.2653 133.725 98.4535C133.177 98.6418 132.597 98.7152 132.019 98.669Z" fill="#FFE6C3" stroke="#090110" stroke-width="2.32" stroke-miterlimit="10"/>
<path d="M116.123 40.1348H128.467" stroke="#949A92" stroke-width="3.86" stroke-miterlimit="10" stroke-linecap="round"/>
<path d="M116.123 45.4424H128.467" stroke="#949A92" stroke-width="3.86" stroke-miterlimit="10" stroke-linecap="round"/>
<path d="M119.006 51.6758H128.468" stroke="#949A92" stroke-width="3.38" stroke-miterlimit="10" stroke-linecap="round"/>
<path d="M122.844 58.4844H129.277" stroke="#949A92" stroke-width="1.97" stroke-miterlimit="10" stroke-linecap="round"/>
<path d="M86.0156 79.7476L129.434 81.5702" stroke="#949A92" stroke-width="5.12" stroke-miterlimit="10" stroke-linecap="round"/>
<path d="M86.0195 86.4668L129.43 88.4426" stroke="#949A92" stroke-width="5.12" stroke-miterlimit="10" stroke-linecap="round"/>
<path d="M106.78 58.4435L95.7017 57.8908L93.536 62.3092C93.1098 63.0699 92.824 63.9011 92.6921 64.7631C92.6878 64.991 92.7368 65.2168 92.8354 65.4224C92.9339 65.628 93.0792 65.8077 93.2597 65.947C93.6555 66.2981 94.5442 66.5558 95.9182 66.7239L95.8772 67.5045L86.8672 67.0563L86.9083 66.2757C88.1131 66.1238 88.8997 65.8873 89.2681 65.5661C90.0149 64.9286 90.8787 63.5965 91.8595 61.5697L103.099 38.5176L103.845 38.5549L112.616 62.862C113.321 64.8166 113.987 66.0939 114.614 66.694C115.363 67.3477 116.307 67.7339 117.299 67.7921L117.261 68.5727L105.955 68.0087L105.996 67.2281C107.139 67.2281 107.915 67.0787 108.334 66.7725C108.527 66.6463 108.687 66.4764 108.802 66.2765C108.917 66.0765 108.983 65.8523 108.995 65.6221C109.024 65.0021 108.793 64.0123 108.296 62.6341L106.78 58.4435ZM106.265 56.8524L101.99 45.0425L96.4335 56.3594L106.265 56.8524Z" fill="#738988"/>
<path d="M113.427 17.8784H99.9844V35.8062H113.427V17.8784Z" fill="#738988"/>
<path d="M656.795 322.183C676.283 322.183 692.081 319.695 692.081 316.625C692.081 313.556 676.283 311.068 656.795 311.068C637.308 311.068 621.51 313.556 621.51 316.625C621.51 319.695 637.308 322.183 656.795 322.183Z" fill="#090110" stroke="#090110" stroke-width="1.8" stroke-miterlimit="10"/>
<path d="M663.114 93.2756C669.626 93.2756 674.906 92.0013 674.906 90.4295C674.906 88.8577 669.626 87.5835 663.114 87.5835C656.602 87.5835 651.322 88.8577 651.322 90.4295C651.322 92.0013 656.602 93.2756 663.114 93.2756Z" fill="#EF8535" stroke="black" stroke-width="0.42" stroke-miterlimit="10"/>
<path d="M651.763 95.6808L653.85 110.415C653.85 110.415 653.787 112.062 656.666 113.231C659.544 114.4 669.656 114.087 670.985 112.757C672.314 111.427 672.501 111.681 672.882 109.721C673.263 107.76 674.644 91.662 674.644 91.662C674.644 91.662 658.275 96.2486 651.322 91.0645L651.763 95.6808Z" fill="#F3A466" stroke="black" stroke-width="1.13" stroke-miterlimit="10"/>
<path d="M655.13 92.4205L653.551 78.885L655.13 71.2358L658.102 78.7618L659.872 92.9919" fill="#987C86"/>
<path d="M655.13 92.4205L653.551 78.885L655.13 71.2358L658.102 78.7618L659.872 92.9919" stroke="black" stroke-width="1.13" stroke-linecap="round" stroke-linejoin="round"/>
<path d="M668.607 74.3882C667.181 80.6778 665.756 86.9687 664.332 93.2609L668.462 92.738C669.629 86.9289 670.797 81.1198 671.964 75.3107L668.607 74.3882Z" fill="#D27B55" stroke="black" stroke-width="0.56" stroke-miterlimit="10"/>
<path d="M670.13 75.0379C671.735 75.5907 672.561 75.2844 672.956 75.0379C674.823 73.9174 674.868 69.5587 672.665 64.2065C668.558 68.259 666.765 72.1993 667.986 73.9697C668.248 74.3469 668.804 74.8511 670.13 75.0379Z" fill="#D27B55" stroke="black" stroke-width="0.56" stroke-miterlimit="10"/>
<path d="M522.244 343.801C522.244 343.801 574.542 337.037 581.86 331.849L610.612 335.491C595.355 346.158 587.129 350.374 582.372 352.141C581.252 352.556 577.208 354.009 571.39 356.302C564.83 358.916 564.882 359.107 563.549 359.424C557.295 360.918 552.246 357.557 543.677 353.179C536.719 349.643 529.563 346.511 522.244 343.801Z" fill="#F2902F" stroke="#090110" stroke-width="2.61" stroke-miterlimit="10"/>
<path d="M526.068 343.868C526.068 343.868 571.044 337.732 577.343 333.015L602.08 336.316C602.08 336.316 577.81 357.553 562.948 356.138C548.087 354.722 526.068 343.868 526.068 343.868Z" fill="#F2DBC4" stroke="#090110" stroke-width="2.61" stroke-miterlimit="10"/>
<path d="M605.908 332.222C605.908 332.222 560.664 335.52 553.603 332.196L529.971 340.555C529.971 340.555 557.777 356.346 572.06 351.887C586.342 347.427 605.908 332.222 605.908 332.222Z" fill="#EA9C4E" stroke="#090110" stroke-width="2.61" stroke-miterlimit="10"/>
<path d="M601.844 332.342C601.844 332.342 556.6 335.651 549.546 332.316L525.918 340.675C525.918 340.675 553.721 356.47 568.003 352.007C582.286 347.543 601.844 332.342 601.844 332.342Z" fill="#FDCB93" stroke="#090110" stroke-width="2.61" stroke-miterlimit="10"/>
<path d="M411.059 26.8423H371.498V70.3507H411.059V26.8423Z" fill="#FFEDDE" stroke="black" stroke-width="0.46" stroke-miterlimit="10"/>
<path d="M383.991 37.4868H377.744V64.3299H383.991V37.4868Z" fill="#FFF0A9" stroke="black" stroke-width="0.46" stroke-miterlimit="10"/>
<path d="M390.239 44.8931H383.992V64.3335H390.239V44.8931Z" fill="#D800EF" stroke="black" stroke-width="0.62" stroke-miterlimit="10"/>
<path d="M396.485 51.605H390.238V64.3337H396.485V51.605Z" fill="#240BA0" stroke="black" stroke-width="0.62" stroke-miterlimit="10"/>
<path d="M402.733 55.7695H396.486V64.3338H402.733V55.7695Z" stroke="black" stroke-width="0.62" stroke-miterlimit="10"/>
<path d="M397.542 21.0156H389.178V32.6687H397.542V21.0156Z" fill="#E5A76A"/>
<path d="M177.944 93.0069C171.267 93.4076 164.727 95.081 158.677 97.937C154.902 99.7372 136.218 109.19 131.793 129.086C130.751 133.847 130.574 138.755 131.27 143.578C131.27 143.578 133.735 159.638 153.972 156.053C153.972 156.053 169.132 151.347 186.383 136.556C186.383 136.556 208.861 123.783 225.216 118.479C241.571 113.176 248.516 110.262 250.98 108.918C260.229 103.872 266.711 88.9657 262.555 79.4117C256.04 64.442 224.843 68.4384 223.274 68.655C211.456 70.2947 202.413 75.5012 196.711 78.7879C189.885 82.7234 183.581 87.5004 177.944 93.0069Z" fill="#B06034" stroke="black" stroke-width="4" stroke-miterlimit="10"/>
<path d="M153.477 156.138C153.477 156.138 181.903 132.746 185.413 130.655C188.923 128.563 207.667 114.595 227.532 111.532C227.532 111.532 249.413 105.78 251.802 105.481C254.192 105.183 256.085 104.884 256.085 104.884C256.085 104.884 253.098 107.805 251.373 108.697C249.648 109.59 243.502 112.141 243.502 112.141L226.217 118.154C226.217 118.154 215.833 121.642 215.206 122.262C214.579 122.882 207.021 125.923 207.021 125.923L195.737 131.525L188.882 135.178L186.384 136.564L181.302 140.687L172.908 146.581L168.446 149.277C168.446 149.277 156.191 155.799 153.477 156.138Z" stroke="black" stroke-miterlimit="10"/>
<path d="M154.732 155.104C154.732 155.104 131.383 154.357 137.32 132.971C143.257 111.584 165.997 102.718 180.671 97.8995C180.671 97.8995 203.075 76.2741 228.615 74.8175C254.155 73.3609 261.123 76.9128 261.123 76.9128C261.123 76.9128 265.518 84.6367 263.273 91.1056C261.029 97.5745 256.769 104.122 256.769 104.122L255.746 104.932L242.546 107.659L228.947 111.181L220.766 113.004L210.352 116.63L193.393 125.519L182.217 132.989L165.019 146.723L154.732 155.104Z" fill="#7C4637"/>
<path d="M176.989 93.0776C176.989 93.0776 172.83 90.056 163.868 86.5302C154.907 83.0044 165.661 74.4701 167.677 74.4701C169.693 74.4701 175.066 73.2562 183.076 88.3529L178.352 92.6144L177.422 93.0813L176.989 93.0776Z" fill="#683B36" stroke="black" stroke-width="3" stroke-miterlimit="10"/>
<path d="M167.342 229.781C162.79 226.046 155.669 219.069 151.133 208.301C143.258 189.604 148.519 172.113 150.427 165.805C161.662 128.489 205.439 99.6288 246.202 104.062C256.578 105.245 266.624 108.442 275.775 113.474C285.636 119.663 290.991 126.662 293.776 131.062C297.846 137.497 299.788 143.705 302.495 152.351C304.132 157.58 305.495 162.891 306.58 168.262C307.655 170.361 317.636 190.672 307.043 211.02C299.975 224.585 287.895 230.199 284.064 231.794C287.503 240.011 314.309 305.671 290.711 325.466C286.428 329.059 278.646 330.404 263.08 333.085C243.365 336.488 225.068 339.648 202.736 336.245C182.169 333.115 161.726 330 151.062 315.46C136.817 296.061 143.594 261.102 167.342 229.781Z" fill="#0D3E66" stroke="black" stroke-width="5" stroke-miterlimit="10"/>
<path d="M184.815 156.138C185.707 154.017 190.927 142.159 204.082 137.464C206.005 136.776 215.321 133.662 225.365 137.441C239.379 142.711 245.529 157.913 251.085 171.676C252.689 175.648 254.051 179.714 255.162 183.852C255.236 175.531 255.835 167.223 256.954 158.977C259.815 137.968 263.81 134.166 266.14 132.534C270.535 129.46 275.766 129.385 279.246 129.732C290.074 135.794 294.488 143.103 296.277 146.771C299.928 154.241 301.082 163.803 301.549 167.653C301.971 171.142 302.034 173.566 302.919 178.343C304.226 185.405 305.44 187.374 306.093 190.847C308.128 201.66 301.795 211.528 299.936 214.426C295.336 221.525 288.601 226.98 280.702 230.004C299.928 267.589 296.116 305.577 276.621 320.857C264.519 330.34 247.048 330.568 245.454 330.568C241.007 330.568 218.024 330.594 208.525 315.367C201.513 304.124 204.597 288.972 206.472 279.769C209.384 265.464 210.784 260.452 210.784 260.452C212.252 255.189 213.745 250.741 213.092 244.541C212.756 241.377 212.27 237.299 209.235 234.651C207.084 232.783 205.43 233.157 201.02 231.14C198.282 229.768 195.692 228.119 193.291 226.217C184.591 219.513 180.282 203.315 180.11 202.65C174.834 182.145 182.014 162.828 184.815 156.138Z" fill="#BAEAFF" stroke="black" stroke-width="3" stroke-linejoin="round"/>
<path d="M206.323 315.352C206.323 315.352 156.113 321.612 144.041 283.317C144.041 283.317 142.174 299.945 146.998 308.207C151.822 316.469 152.207 317.544 155.06 319.983C157.913 322.422 164.23 328.473 183.714 332.947C203.198 337.422 222.454 337.706 222.454 337.706C222.454 337.706 247.198 337.224 252.639 334.848L271.189 331.674C271.189 331.674 280.897 329.926 283.836 328.865C286.774 327.804 288.197 327.128 288.197 327.128C289.933 326.081 291.519 324.802 292.909 323.326C294.011 322.157 295.986 319.808 297.678 315.572C298.693 313.021 299.966 308.887 300.168 300.057C300.299 293.979 299.885 287.902 298.932 281.898" stroke="black" stroke-miterlimit="10"/>
<path d="M211.626 308.961C211.626 308.961 213.866 323.303 216.405 327.113C218.944 330.923 224.097 334.732 226.113 334.732C228.13 334.732 235.523 336.152 241.796 331.408L233.824 338.094C233.824 338.094 225.538 343.894 218.141 336.514C218.141 336.514 213.556 331.348 212.324 327.617C211.092 323.886 209.557 318.254 209.833 313.678C209.933 311.47 210.158 309.269 210.506 307.086L211.868 303.695C211.868 303.695 211.376 307.721 211.626 308.961Z" stroke="black" stroke-miterlimit="10"/>
<path d="M285.071 320.484C285.071 320.484 289.887 296.785 297.281 290.791C304.674 284.796 305.682 286.533 306.776 286.899C307.87 287.265 310.331 288.494 309.715 293.424C309.715 293.424 313.635 290.791 315.651 291.631C317.668 292.471 318.415 295.273 318.415 296.061C318.415 296.849 318.191 304.229 314.606 309.809C311.757 314.242 307.765 321.249 299.259 326.09C295.578 328.185 289.633 331.569 286.538 329.108C283.82 326.96 284.839 321.608 285.071 320.484Z" fill="#E26F07" stroke="black" stroke-width="2" stroke-miterlimit="10"/>
<path d="M292.902 287.153C292.902 287.153 289.915 305.562 284.688 311.953C279.46 318.343 280.603 323.479 252.949 329.967C252.949 329.967 236.744 331.558 224.668 327.393C223.197 326.885 222.428 326.217 222.208 325.429C220.953 320.82 237.498 309.626 252.848 307.542C255.252 307.296 257.639 306.906 259.995 306.373C266.589 304.812 271.414 302.309 275.439 300.184C278.692 298.542 281.802 296.631 284.736 294.47C287.674 292.283 290.407 289.834 292.902 287.153Z" fill="#80DEFF"/>
<path d="M195.345 245.916C200.479 256 206.323 261.315 210.826 264.318C213.305 265.968 216.472 267.649 219.653 271.552C221.416 273.711 226.195 279.575 224.507 284.539C223.111 288.666 217.943 290.111 211.965 291.784C205.569 293.573 197.067 295.953 186.742 292.531C183.871 291.583 173.487 288.139 168.226 278.637C162.998 269.225 163.476 255.021 163.633 256.116" fill="#0D3E66"/>
<path d="M195.345 245.916C200.479 256 206.323 261.315 210.826 264.318C213.305 265.968 216.472 267.649 219.653 271.552C221.416 273.711 226.195 279.575 224.507 284.539C223.111 288.666 217.943 290.111 211.965 291.784C205.569 293.573 197.067 295.953 186.742 292.531C183.871 291.583 173.487 288.139 168.226 278.637C162.998 269.225 163.476 255.021 163.633 256.116" stroke="black" stroke-width="5" stroke-miterlimit="10"/>
<path d="M224.964 199.303C232.342 199.303 238.324 192.942 238.324 185.095C238.324 177.249 232.342 170.888 224.964 170.888C217.585 170.888 211.604 177.249 211.604 185.095C211.604 192.942 217.585 199.303 224.964 199.303Z" fill="black" stroke="black" stroke-width="3.24" stroke-miterlimit="10"/>
<path d="M292.277 175.108C291.833 180.558 287.621 186.463 282.341 186.735C275.933 187.068 270.15 178.996 271.023 171.825C271.669 166.51 276.079 160.811 281.497 160.759C287.826 160.703 292.818 168.412 292.277 175.108Z" fill="black" stroke="black" stroke-width="3.24" stroke-miterlimit="10"/>
<path d="M204.754 222.161C211.064 222.161 216.18 217.044 216.18 210.732C216.18 204.42 211.064 199.303 204.754 199.303C198.444 199.303 193.328 204.42 193.328 210.732C193.328 217.044 198.444 222.161 204.754 222.161Z" fill="#F4A127" stroke="black" stroke-width="2" stroke-miterlimit="10"/>
<path d="M298.522 207.289C302.914 207.289 306.475 202.115 306.475 195.733C306.475 189.351 302.914 184.177 298.522 184.177C294.129 184.177 290.568 189.351 290.568 195.733C290.568 202.115 294.129 207.289 298.522 207.289Z" fill="#F4A127" stroke="black" stroke-width="2" stroke-miterlimit="10"/>
<path d="M317.67 243.45C315.743 236.769 316.8 230.628 320.284 228.186C320.948 227.719 323.457 225.945 326.318 226.733C327.435 227.055 328.441 227.683 329.219 228.548C330.364 230.684 331.025 233.046 331.158 235.466C331.29 237.886 330.889 240.306 329.984 242.554C326.867 250.173 322.89 258.838 315.422 263.395C307.954 267.952 308.029 268.624 297.424 271.313L296.902 271.485L295.684 266.435L292.537 255.29L290.371 248.601L288.131 242.195L286.163 236.967L284.064 231.797L285.308 231.26C285.308 231.26 298.851 232.567 310.725 225.844C322.599 219.121 324.839 226.964 324.839 226.964" fill="#0D3E66"/>
<path d="M317.67 243.45C315.743 236.769 316.8 230.628 320.284 228.186C320.948 227.719 323.457 225.945 326.318 226.733C327.435 227.055 328.441 227.684 329.219 228.548C330.364 230.684 331.025 233.046 331.158 235.466C331.29 237.886 330.889 240.306 329.984 242.554C326.867 250.173 322.89 258.838 315.422 263.395C307.954 267.952 308.029 268.624 297.424 271.313L296.902 271.485L295.684 266.435L292.537 255.29L290.371 248.601L288.131 242.195L286.163 236.967L284.064 231.797L285.308 231.26C285.308 231.26 298.851 232.567 310.725 225.844C322.599 219.121 324.839 226.964 324.839 226.964" stroke="black" stroke-width="4" stroke-miterlimit="10"/>
<path d="M325.211 187.725C325.211 187.725 308.483 237.325 305.944 245.915C303.405 254.506 303.405 261.079 304.152 261.826C304.898 262.573 308.11 265.636 310.275 260.332C312.441 255.029 325.808 225.672 325.808 224.776C325.808 223.879 335.517 192.483 335.517 192.483C335.517 192.483 332.38 186.081 325.211 187.725Z" fill="#BE5F22" stroke="black" stroke-width="3" stroke-miterlimit="10"/>
<path d="M325.958 187.583C325.958 187.583 318.789 178.761 320.88 170.693C322.971 162.626 330.14 160.982 332.082 159.04C334.024 157.098 337.459 152.915 337.459 150.226C337.459 147.537 337.608 143.503 339.998 143.503C342.388 143.503 347.018 152.766 348.213 158.144C349.408 163.522 351.499 172.038 348.213 178.91C344.927 185.783 339.58 189.962 334.972 191.609C334.972 191.59 332.269 186.653 325.958 187.583Z" fill="#556058" stroke="black" stroke-width="2" stroke-miterlimit="10"/>
<path d="M321.801 171.467C321.801 171.467 323.986 164.688 330.427 160.822C336.868 156.957 337.831 151.69 337.831 151.69C337.831 151.69 337.887 144.183 339.063 144.519C340.239 144.855 346.4 152.587 345.728 160.486C345.355 164.632 346.363 169.532 343.264 173.092C340.889 175.814 339.463 174.354 329.822 179.03C327.208 180.304 325.856 181.114 324.501 180.524C321.622 179.34 321.727 173.252 321.801 171.467Z" fill="#728B6F"/>
<path d="M229.68 185.1C231.48 185.1 232.939 183.548 232.939 181.634C232.939 179.719 231.48 178.167 229.68 178.167C227.879 178.167 226.42 179.719 226.42 181.634C226.42 183.548 227.879 185.1 229.68 185.1Z" fill="white"/>
<path d="M285.988 173.752C287.789 173.752 289.248 172.201 289.248 170.286C289.248 168.372 287.789 166.82 285.988 166.82C284.188 166.82 282.729 168.372 282.729 170.286C282.729 172.201 284.188 173.752 285.988 173.752Z" fill="white"/>
<path d="M243.547 202.045C243.547 202.045 260.349 209.589 267.369 204.958C274.389 200.327 272.809 194.765 270.58 192.536C268.351 190.306 262.142 182.996 254.972 184.341C253.621 184.595 250.761 184.771 248.117 186.825C244.025 189.988 242.329 195.867 243.547 202.045Z" fill="#FA8510" stroke="black" stroke-width="2" stroke-miterlimit="10"/>
<path d="M259.42 209.701C259.42 209.701 250.459 213.063 245.978 207.012L243.809 202.157C243.809 202.157 255.01 207.569 262.728 206.392C262.725 206.396 262.527 208.245 259.42 209.701Z" fill="#FA8510" stroke="black" stroke-width="2" stroke-miterlimit="10"/>
<path d="M324.914 168.042C325.194 167.762 325.437 163.933 331.336 161.02C337.236 158.107 338.356 151.496 338.356 151.496C338.356 151.496 339.29 147.201 340.186 151.496C341.082 155.791 341.717 160.012 338.02 163.298C337.068 164.16 335.982 164.862 334.805 165.375C332.513 166.357 329.552 166.57 329.32 166.585C328.338 166.66 327.259 166.667 326.221 167.257C325.956 167.411 324.91 168.045 324.914 168.042Z" fill="#91B17B"/>
<path d="M210.057 309.805C208.433 326.388 216.629 338.938 225.179 340.185C233.73 341.433 242.266 331.416 245.753 325.768C248.263 321.667 249.891 317.088 250.533 312.323C252.624 307.628 252.004 302.948 249.413 300.927C248.299 300.053 246.905 299.616 245.492 299.698C242.236 300.016 240.694 303.635 239.555 303.135C238.674 302.761 239.645 300.621 238.659 297.973C237.86 295.829 235.731 293.226 232.909 292.976C229.41 292.666 226.781 296.15 226.411 296.636C224.391 299.314 225.026 301.424 223.559 301.966C221.449 302.742 219.545 298.574 216.464 299.026C214.194 299.362 212.764 302.014 211.759 303.882C210.785 305.716 210.205 307.733 210.057 309.805Z" fill="#FA8510" stroke="black" stroke-width="2" stroke-miterlimit="10"/>
<path d="M370.878 273.704L357.548 314.489C357.548 314.489 356.484 318.411 359.06 318.859C361.637 319.307 369.814 318.859 369.814 318.859C369.814 318.859 372.278 319.251 373.148 315.528C374.018 311.804 386.217 274.544 386.217 274.544L370.878 273.704Z" fill="#DC8437" stroke="black" stroke-width="2" stroke-miterlimit="10"/>
<path d="M378.775 320.036C378.775 320.036 382.92 319.587 384.208 316.17C385.496 312.752 396.866 274.656 396.866 274.656L386.224 274.544L372.909 316.338C372.909 316.338 372.274 318.792 370.101 318.87C367.928 318.949 359.06 318.87 359.06 318.87C358.597 318.815 358.169 318.597 357.852 318.254C357.536 317.912 357.351 317.469 357.331 317.003C357.331 317.003 356.327 319.841 357.331 320.178C358.336 320.514 378.775 320.036 378.775 320.036Z" fill="#8D4A2E" stroke="black" stroke-width="2" stroke-miterlimit="10"/>
<path d="M478.414 279.194L474.046 322.691C474.046 322.691 472.982 326.613 475.539 327.061C478.097 327.509 486.293 327.061 486.293 327.061C486.757 327.105 487.223 327.012 487.633 326.792C489 326.101 489.456 324.398 489.624 323.729C490.266 321.216 492.237 303.729 494.526 279.978L478.414 279.194Z" fill="#DC8437" stroke="black" stroke-miterlimit="10"/>
<path d="M495.272 328.237C496.784 327.56 498.054 326.438 498.913 325.021C500.089 322.964 499.88 320.82 499.824 320.114C499.38 314.594 501.355 309.14 501.826 303.62C502.401 296.897 503.028 289.801 503.771 281.39L494.544 279.978C492.829 294.831 491.117 309.685 489.406 324.54C489.406 324.54 488.772 326.994 486.599 327.072C484.425 327.15 475.557 327.072 475.557 327.072C475.094 327.017 474.666 326.798 474.35 326.456C474.033 326.114 473.848 325.67 473.828 325.205C473.667 325.682 473.543 326.172 473.455 326.669C473.455 327.259 473.583 327.842 473.828 328.379C474.4 329.586 483.313 329.41 495.272 328.237Z" fill="#8D4A2E" stroke="black" stroke-width="2" stroke-miterlimit="10"/>
<path d="M517.883 281.043L353.052 272.157C351.767 272.088 350.558 271.53 349.671 270.597C348.785 269.665 348.29 268.428 348.287 267.141V258.711C348.288 257.389 348.809 256.119 349.737 255.177C350.666 254.235 351.927 253.696 353.25 253.677C383.151 253.247 404.853 254.424 419.598 255.693C432.95 256.814 441.8 258.117 457.684 258.256C461.115 258.286 472.276 258.327 486.999 258.98C494.138 259.298 498.869 259.611 504.806 260.721C509.954 261.687 515.017 263.061 519.947 264.829C520.935 265.184 521.786 265.839 522.383 266.703C522.979 267.566 523.291 268.594 523.274 269.643C523.244 271.797 523.213 273.955 523.181 276.116C523.167 276.791 523.017 277.456 522.741 278.072C522.465 278.688 522.069 279.242 521.574 279.701C521.08 280.161 520.499 280.516 519.865 280.747C519.23 280.977 518.556 281.078 517.883 281.043Z" fill="#8D4A2E" stroke="black" stroke-width="3" stroke-miterlimit="10"/>
<path d="M521.876 266.047L508.434 261.457C516.474 207.459 524.512 153.463 532.547 99.4683C533.5 99.5467 534.911 99.6811 536.617 99.9164C538.626 100.197 540.176 100.495 540.433 100.548C544.593 101.429 548.958 110.023 548.715 111.428L521.876 266.047Z" fill="#ECB180" stroke="black" stroke-width="2" stroke-miterlimit="10"/>
<path d="M489.879 83.52C489.879 83.52 499.214 84.267 502.724 89.3465L501.678 99.1321L491.07 98.3552L493.023 86.2615C493.023 86.2615 493.314 84.1923 489.879 83.52Z" fill="#7C453E" stroke="black" stroke-width="2" stroke-miterlimit="10"/>
<path d="M477.392 83.5608L463.397 83.9343C463.111 83.9415 462.828 83.882 462.569 83.7607C462.31 83.6393 462.083 83.4593 461.906 83.235C461.729 83.0106 461.606 82.7481 461.548 82.4682C461.49 82.1883 461.498 81.8987 461.571 81.6223C464.635 70.0664 467.7 58.5105 470.764 46.9546C470.87 46.5581 471.106 46.2084 471.433 45.9608C471.76 45.7132 472.161 45.5819 472.571 45.5876L484.053 45.7594C484.323 45.7625 484.588 45.825 484.831 45.9422C485.074 46.0595 485.287 46.2288 485.457 46.438C485.627 46.6472 485.749 46.8913 485.814 47.1529C485.879 47.4145 485.886 47.6873 485.834 47.9518L479.147 82.0668C479.068 82.4787 478.852 82.8515 478.533 83.1233C478.213 83.395 477.811 83.5494 477.392 83.5608Z" fill="#DC8437" stroke="black" stroke-width="2" stroke-miterlimit="10"/>
<path d="M481.664 45.7298C481.664 45.7298 491.297 44.6766 497.122 52.52L492.616 83.9421L477.725 83.52C477.725 83.52 478.882 83.4266 479.181 81.9028L482.205 66.4737L485.835 47.9596C485.835 47.9596 486.649 45.3265 481.664 45.7298Z" fill="#7C453E" stroke="black" stroke-width="2" stroke-miterlimit="10"/>
<path d="M528.588 221.041L555.147 312.472C555.147 312.472 565.901 314.489 564.557 307.542C563.213 300.595 532.744 196.838 532.744 196.838L528.588 221.041Z" fill="#8D5037" stroke="black" stroke-width="2" stroke-miterlimit="10"/>
<path d="M524.664 249C530.77 269.363 536.869 289.726 542.96 310.089C542.96 310.089 543.558 312.479 545.798 312.479H555.133L543.901 273.815L528.573 221.048C527.277 230.363 525.973 239.68 524.664 249Z" fill="#7C453E" stroke="black" stroke-width="2" stroke-miterlimit="10"/>
<path d="M509.295 265.188L353.254 253.736C362.529 204.353 371.803 154.967 381.075 105.578C381.585 102.913 383.023 100.515 385.133 98.811C387.244 97.1068 389.89 96.2066 392.602 96.2708L532.285 99.2214C532.906 99.2308 533.518 99.3741 534.078 99.6416C534.639 99.909 535.135 100.294 535.533 100.771C535.931 101.248 536.222 101.805 536.385 102.405C536.548 103.004 536.58 103.632 536.478 104.245L509.295 265.188Z" fill="#FFE6AC" stroke="black" stroke-width="3" stroke-miterlimit="10"/>
<path d="M505.634 263.347L354.989 253.549C352.628 253.396 350.59 255.185 350.437 257.546L349.982 264.538C349.829 266.899 351.618 268.938 353.978 269.091L504.623 278.889C506.984 279.042 509.022 277.253 509.175 274.892L509.63 267.9C509.783 265.539 507.994 263.5 505.634 263.347Z" fill="#DC8437"/>
<path d="M488.37 102.475L441.916 102.001C441.566 101.997 441.221 101.916 440.906 101.763C440.591 101.61 440.314 101.388 440.095 101.115C439.876 100.841 439.721 100.522 439.641 100.181C439.561 99.8404 439.557 99.4858 439.631 99.1433C440.612 94.5568 441.595 89.9715 442.581 85.3875C442.694 84.859 442.984 84.3853 443.404 84.0454C443.824 83.7055 444.348 83.5201 444.888 83.52H490.689C491.031 83.52 491.369 83.5943 491.68 83.7378C491.991 83.8814 492.267 84.0908 492.489 84.3515C492.711 84.6122 492.873 84.918 492.966 85.2478C493.058 85.5776 493.077 85.9234 493.023 86.2615L490.726 100.488C490.636 101.046 490.349 101.554 489.916 101.918C489.484 102.283 488.935 102.48 488.37 102.475Z" fill="#DC8437" stroke="black" stroke-width="2" stroke-miterlimit="10"/>
<path d="M646.008 288.057C646.008 288.057 606.092 274.088 607.549 264.571C607.651 263.697 608.017 262.876 608.598 262.215C612.018 258.48 622.835 262.394 629.833 266.67C630.755 267.234 631.409 267.679 631.603 267.81C635.576 270.54 642.229 276.269 648.962 288.669L646.008 288.057Z" fill="#D6B97F" stroke="#090110" stroke-miterlimit="10"/>
<path d="M624.711 236.301C624.711 236.301 624.924 223.569 633.169 232.133C640.637 239.894 646.271 249.736 650.434 262.05C650.599 262.532 650.714 262.887 650.946 263.596C655.893 278.678 658.317 286.275 655.778 289.106C654.934 290.047 653.201 291.082 649.198 290.667C649.198 290.667 643.717 282.615 638.053 273.8C635.024 269.091 628.539 261.916 626.082 253.191C625.805 252.22 625.604 251.323 625.604 251.323C625.604 251.323 624.577 246.89 624.711 236.283V236.301Z" fill="#B59968" stroke="#090110" stroke-miterlimit="10"/>
<path d="M656.336 234.886C657.393 233.116 662.355 224.802 666.836 225.706C668.304 226.008 669.319 227.091 670.197 228.694C673.595 234.711 673.628 241.766 672.732 248.933C671.955 255.178 671.44 254.928 667.351 271.956C664.738 282.85 663.382 289.443 659.656 290.104C658.839 290.221 658.005 290.091 657.262 289.73C647.476 285.622 650.75 255.638 651.105 252.418C651.856 245.826 653.088 240.35 656.336 234.886Z" fill="#D6B97F" stroke="#090110" stroke-miterlimit="10"/>
<path d="M665.672 289.812C665.672 289.812 685.973 277.76 689.614 266.555C693.254 255.35 691.503 254.603 689.091 254.603C686.679 254.603 676.022 255.809 672.886 259.858C669.749 263.907 655.336 284.064 662.629 289.738C663.065 290.066 663.592 290.25 664.138 290.264C664.684 290.277 665.22 290.119 665.672 289.812Z" fill="#B29769" stroke="#090110" stroke-miterlimit="10"/>
<path d="M676.295 316.308C664.374 319.058 652.095 319.914 639.908 318.844C635.4 306.509 634.174 299.734 636.23 298.519C636.459 298.403 636.71 298.334 636.966 298.316C637.223 298.299 637.48 298.334 637.723 298.418L677.46 296.741C677.069 303.259 676.681 309.782 676.295 316.308Z" fill="#EA9B65" stroke="#090110" stroke-width="3" stroke-miterlimit="10"/>
<path d="M680.439 297.502L633.332 298.847C632.949 298.859 632.575 298.727 632.283 298.479C631.992 298.231 631.802 297.883 631.753 297.502L630.326 286.82C630.297 286.605 630.314 286.386 630.375 286.177C630.437 285.969 630.541 285.775 630.682 285.61C630.823 285.444 630.997 285.31 631.193 285.216C631.389 285.123 631.603 285.071 631.82 285.065L679.555 283.844C679.952 283.834 680.339 283.977 680.634 284.244C680.929 284.511 681.111 284.881 681.141 285.278L681.94 295.837C681.956 296.046 681.929 296.256 681.862 296.454C681.794 296.653 681.687 296.835 681.546 296.991C681.406 297.147 681.236 297.272 681.045 297.36C680.855 297.448 680.649 297.496 680.439 297.502Z" fill="#EA9B65" stroke="#090110" stroke-width="3" stroke-miterlimit="10"/>
<path d="M645.909 274.316C645.909 274.316 645.278 272.531 644.385 269.636C643.414 266.76 642.171 262.783 640.595 258.48C639.02 254.177 637.41 250.356 635.887 247.753C635.305 246.7 634.631 245.7 633.874 244.765C633.665 244.503 633.441 244.254 633.202 244.018L633.004 243.835L632.926 243.775L633.015 243.82L633.251 243.951C633.538 244.131 633.815 244.328 634.08 244.541C635.037 245.322 635.903 246.208 636.663 247.182C638.639 249.594 640.771 253.37 642.373 257.781C643.703 261.551 644.686 265.434 645.307 269.382C645.744 272.434 645.909 274.316 645.909 274.316Z" fill="#D6B97F" stroke="#D6B97F" stroke-width="0.17" stroke-miterlimit="10"/>
<path d="M664.293 281.427C664.293 281.427 665.141 279.739 666.668 277.084C668.7 273.638 671.046 270.387 673.676 267.373C676.805 263.869 680.166 261.147 682.869 259.645C683.919 259.032 685.033 258.539 686.192 258.174C686.503 258.079 686.818 258.003 687.137 257.946C687.242 257.928 687.348 257.916 687.455 257.912C687.455 257.912 687.361 257.942 687.16 258.024C686.958 258.106 686.67 258.241 686.308 258.446C685.287 259.024 684.316 259.688 683.407 260.429C681.062 262.263 678.179 265.21 675.11 268.62C672.041 272.03 669.423 275.287 667.452 277.61C665.544 280.001 664.293 281.427 664.293 281.427Z" fill="#D6B97F" stroke="#D6B97F" stroke-width="0.17" stroke-miterlimit="10"/>
<path d="M656.338 278.267C656.338 278.267 657.727 268.456 660.02 256.459C662.312 244.462 664.638 234.808 664.638 234.808C664.638 234.808 663.246 244.623 660.953 256.62C658.66 268.616 656.338 278.267 656.338 278.267Z" fill="#B29769" stroke="#B29769" stroke-width="0.08" stroke-miterlimit="10"/>
<path d="M640.442 281.842C640.442 281.842 634.404 278.585 627.265 274.073C620.126 269.561 614.592 265.483 614.592 265.483C614.592 265.483 620.63 268.736 627.769 273.248C634.908 277.76 640.442 281.842 640.442 281.842Z" fill="#B29769" stroke="#B29769" stroke-width="0.08" stroke-miterlimit="10"/>
<path d="M33.3496 339.759L70.4463 320.622L140.555 333.866L104.268 357.437L33.3496 339.759Z" fill="black" stroke="black" stroke-width="2.19" stroke-miterlimit="10"/>
<path d="M63.1074 338.385C65.0976 336.719 74.5631 328.872 80.9482 326.06C83.1139 325.104 84.9286 324.719 86.4109 325.515C87.6805 326.194 88.2779 327.502 88.5243 328.267L88.782 335.864C88.782 335.864 87.8522 338.654 91.3136 337.257C94.7749 335.86 95.1894 335.864 95.1894 335.864C95.1894 335.864 98.7553 333.642 99.5805 338.135C100.406 342.628 99.5805 347.233 99.5805 347.233L63.1074 338.385Z" fill="black" stroke="black" stroke-width="0.92" stroke-miterlimit="10"/>
<path d="M98.5395 351.656C98.5395 351.656 87.6327 349.93 74.4892 346.554C61.3458 343.177 50.9355 339.431 50.9355 339.431C50.9355 339.431 61.8424 341.157 74.9896 344.533C88.1368 347.909 98.5395 351.656 98.5395 351.656Z" fill="black" stroke="black" stroke-width="0.18" stroke-miterlimit="10"/>
<path d="M30.8691 337.993L69.6834 317.974L143.033 331.827L105.07 356.492L30.8691 337.993Z" fill="#FFEDCB" stroke="black" stroke-width="2.29" stroke-miterlimit="10"/>
<path d="M62.002 336.555C64.0855 334.815 73.9916 326.605 80.6716 323.651C82.9419 322.646 84.8387 322.247 86.3883 323.08C87.7176 323.789 88.3262 325.16 88.6025 325.959L88.8714 333.907C88.8714 333.907 87.8968 336.824 91.5187 335.364C95.1406 333.903 95.5738 333.907 95.5738 333.907C95.5738 333.907 99.3077 331.58 100.167 336.286C101.025 340.992 100.167 345.799 100.167 345.799L62.002 336.555Z" fill="#FFDAA4"/>
<path d="M99.0783 350.438C99.0783 350.438 87.6674 348.634 73.9116 345.105C60.1557 341.575 49.2676 337.653 49.2676 337.653C49.2676 337.653 60.6785 339.457 74.4306 342.987C88.1827 346.516 99.0783 350.438 99.0783 350.438Z" fill="#FFDAA4" stroke="#FFDAA4" stroke-width="0.19" stroke-miterlimit="10"/>
<path d="M151.076 344.526C154.208 343.331 157.5 342.606 160.844 342.374C166.403 342.024 171.964 343.019 177.057 345.276L175.936 368.06C173.025 370.745 169.266 372.328 165.31 372.532C161.355 372.737 157.453 371.551 154.28 369.18C153.212 361.113 152.141 353.045 151.068 344.978" fill="#9BC699"/>
<path d="M151.076 344.526C154.208 343.331 157.5 342.606 160.844 342.374C166.403 342.024 171.964 343.019 177.057 345.276L175.936 368.06C173.025 370.745 169.266 372.328 165.31 372.532C161.355 372.737 157.453 371.551 154.28 369.18C153.212 361.113 152.141 353.045 151.068 344.978" stroke="black" stroke-width="2" stroke-miterlimit="10"/>
<path d="M152.124 350.061C148.469 351.039 146.355 354.711 147.192 357.986C147.905 360.78 150.646 362.841 153.812 362.789C153.946 363.798 154.08 364.809 154.212 365.822C149.029 366.666 144.272 363.626 143.084 359.473C141.669 354.535 145.426 348.406 151.792 347.558" fill="#9BC699"/>
<path d="M152.124 350.061C148.469 351.039 146.355 354.711 147.192 357.986C147.905 360.78 150.646 362.841 153.812 362.789C153.946 363.798 154.08 364.809 154.212 365.822C149.029 366.666 144.272 363.626 143.084 359.473C141.669 354.535 145.426 348.406 151.792 347.558" stroke="black" stroke-width="2" stroke-miterlimit="10"/>
<path d="M153.914 345.661C157.073 347.284 160.55 348.192 164.099 348.321C167.648 348.45 171.182 347.797 174.451 346.408C167.82 344.183 160.688 343.923 153.914 345.661Z" fill="#9BC699" stroke="black" stroke-width="2" stroke-miterlimit="10"/>
<defs>
<linearGradient id="paint0_linear_377_4213" x1="0.910156" y1="333" x2="746.91" y2="333" gradientUnits="userSpaceOnUse">
<stop stop-color="#1F8BF7"/>
<stop offset="1" stop-color="#DC33FC"/>
</linearGradient>
</defs>
</svg>
