<svg width="746" height="422" viewBox="0 0 746 422" fill="none" xmlns="http://www.w3.org/2000/svg">
<rect y="290" width="746" height="132" rx="66" fill="url(#paint0_linear_697_3020)"/>
<path d="M740.927 119.261H530.071C527.441 119.261 525.309 121.393 525.309 124.023V124.325C525.309 126.955 527.441 129.087 530.071 129.087H740.927C743.557 129.087 745.689 126.955 745.689 124.325V124.023C745.689 121.393 743.557 119.261 740.927 119.261Z" fill="#A66F69"/>
<path d="M500.444 360.386L457.661 369.435L446.945 365.308L491.554 356.1L500.444 360.386Z" fill="#EA903F"/>
<path d="M500.167 367.391L457.662 376.023V369.435L500.445 360.386C500.355 362.725 500.263 365.06 500.167 367.391Z" fill="#C5682E"/>
<path d="M457.662 376.023L446.946 371.499C446.24 371.246 445.639 370.766 445.236 370.134C444.834 369.501 444.654 368.753 444.724 368.006C444.809 367.395 445.061 366.819 445.453 366.343C445.846 365.866 446.363 365.508 446.946 365.308L457.662 369.435V376.023Z" fill="#DE9C5C"/>
<path d="M469.488 366.919L457.661 369.419L447.211 365.236L462.594 362.061L469.488 366.919Z" fill="#FECC7E"/>
<path d="M469.838 373.551L457.662 376.023V369.435L469.489 366.919L469.838 373.551Z" fill="#DE9C5C"/>
<path d="M624.304 1H556.264C550.083 1 545.072 6.01077 545.072 12.1919V84.5819C545.072 90.763 550.083 95.7738 556.264 95.7738H624.304C630.485 95.7738 635.496 90.763 635.496 84.5819V12.1919C635.496 6.01077 630.485 1 624.304 1Z" fill="#BC7C6B" stroke="black" stroke-width="2" stroke-miterlimit="10"/>
<path d="M616.961 11.2314H563.613C558.767 11.2314 554.838 15.1601 554.838 20.0064V76.7635C554.838 81.6097 558.767 85.5384 563.613 85.5384H616.961C621.807 85.5384 625.736 81.6097 625.736 76.7635V20.0064C625.736 15.1601 621.807 11.2314 616.961 11.2314Z" fill="#89C3F7"/>
<path d="M556.678 62.6746C556.678 62.6746 569.299 36.0046 574.775 34.3377C580.252 32.6709 585.793 30.5277 590.285 40.0527C594.778 49.5777 594.302 52.6734 597.397 49.5777C600.493 46.4821 604.938 45.0931 607.637 47.7799C610.986 51.1256 614.201 53.4751 618.114 62.6746C619.118 65.0321 620.154 67.9491 618.829 69.8184C618.334 70.438 617.673 70.9046 616.924 71.1638C612.193 72.8505 565.588 71.4456 557.948 71.2114C557.948 71.2114 551.439 67.9134 556.678 62.6746Z" fill="#B6E8AF"/>
<path d="M607.319 41.402C610.343 41.402 612.796 38.9499 612.796 35.9251C612.796 32.9003 610.343 30.4482 607.319 30.4482C604.294 30.4482 601.842 32.9003 601.842 35.9251C601.842 38.9499 604.294 41.402 607.319 41.402Z" fill="#B6E8AF"/>
<path d="M324.765 378.773C318.464 378.76 312.18 378.113 306.009 376.841C303.489 375.805 302.961 375.007 302.969 374.515C302.969 373.36 305.834 371.015 324.797 368.304C339.454 366.208 361.738 364.16 391.035 362.216H391.083C391.344 362.162 391.61 362.134 391.877 362.132C392.423 362.099 392.96 362.275 393.381 362.625C393.761 363 393.984 363.507 394.004 364.041C393.964 366.312 383.411 368.55 374.954 370.348C366.329 372.179 361.581 373.179 360.71 373.348C342.105 376.833 331.857 378.754 325.083 378.777L324.765 378.773Z" fill="#090110"/>
<path d="M391.908 362.466C392.367 362.433 392.823 362.575 393.182 362.863C393.491 363.172 393.675 363.585 393.698 364.022C393.698 364.3 393.301 365.32 388.273 366.836C384.859 367.868 380.387 368.84 374.894 370.011C365.988 371.9 361.519 372.848 360.662 373.007C342.092 376.492 331.833 378.428 325.09 378.428H324.761C318.494 378.415 312.245 377.771 306.108 376.508C303.433 375.408 303.306 374.65 303.306 374.523C303.306 374.321 303.564 373.257 308.374 371.836C312.013 370.761 317.561 369.685 324.86 368.661C339.509 366.57 361.769 364.522 391.075 362.577H391.118H391.162C391.407 362.528 391.657 362.502 391.908 362.502M391.908 361.823C391.613 361.826 391.32 361.856 391.031 361.914C332.143 365.825 302.675 370.036 302.627 374.547C302.627 375.42 303.721 376.305 305.909 377.202C312.111 378.487 318.427 379.139 324.761 379.147H325.094C331.762 379.123 341.529 377.321 360.785 373.714C361.65 373.551 366.111 372.606 375.037 370.713C385.113 368.574 394.329 366.57 394.373 364.077C394.366 363.764 394.298 363.456 394.172 363.169C394.046 362.882 393.865 362.623 393.638 362.407C393.155 362.002 392.538 361.793 391.908 361.823Z" fill="#090110"/>
<path d="M305.523 372.443C305.523 372.443 321.359 364.823 322.907 365.3C324.454 365.776 327.907 370.538 324.692 375.42C318.154 376.068 311.558 375.043 305.523 372.443Z" fill="#EFA87C" stroke="black" stroke-width="2" stroke-miterlimit="10"/>
<path d="M324.693 375.42L389.717 366.014C397.694 359.465 388.526 355.655 388.526 355.655L322.725 365.299C322.725 365.299 328.662 368.316 324.693 375.42Z" fill="#D78147" stroke="black" stroke-width="2" stroke-linecap="round" stroke-linejoin="round"/>
<path d="M326.281 369.209C326.329 369.467 326.369 369.749 326.4 370.042C326.446 370.517 326.459 370.994 326.44 371.471C336.759 370.098 347.251 368.592 357.916 366.955C369.312 365.195 380.476 363.343 391.408 361.398C391.936 361.113 392.44 360.771 392.385 360.505C392.329 360.24 391.492 360.132 391.194 360.109C389.321 359.978 356.098 364.8 326.281 369.209Z" fill="#BC6022"/>
<path d="M315.377 370.844C315.425 371.261 315.468 371.673 315.516 372.09L325.616 371.134C325.681 370.798 325.681 370.453 325.616 370.118C325.568 369.87 325.484 369.631 325.366 369.407L315.377 370.844Z" fill="#CC9275"/>
<path d="M314.442 368.335C315.368 370.487 315.571 372.881 315.022 375.158C311.894 374.648 308.833 373.794 305.894 372.61L305.58 372.475L314.363 368.363" fill="black"/>
<path d="M126.509 104.783L73.4311 100.537C72.2645 100.443 71.1807 99.8972 70.411 99.0155C69.6413 98.1339 69.2467 96.9862 69.3116 95.8177L72.6811 35.7546C72.7459 34.6111 73.2458 33.5358 74.0782 32.7491C74.9106 31.9625 76.0125 31.5241 77.1578 31.5239H127.589C128.182 31.5234 128.769 31.6406 129.316 31.8688C129.863 32.097 130.36 32.4316 130.777 32.8533C131.193 33.275 131.522 33.7752 131.744 34.3251C131.966 34.8749 132.077 35.4634 132.069 36.0562L131.347 100.35C131.343 100.966 131.211 101.574 130.961 102.136C130.711 102.699 130.348 103.204 129.894 103.62C129.44 104.036 128.905 104.354 128.323 104.554C127.74 104.754 127.123 104.832 126.509 104.783Z" fill="#FFE6C3" stroke="#090110" stroke-width="2.32" stroke-miterlimit="10"/>
<path d="M109.615 42.5845H122.736" stroke="#949A92" stroke-width="3.86" stroke-miterlimit="10" stroke-linecap="round"/>
<path d="M109.615 48.2241H122.736" stroke="#949A92" stroke-width="3.86" stroke-miterlimit="10" stroke-linecap="round"/>
<path d="M112.678 54.8481H122.735" stroke="#949A92" stroke-width="3.38" stroke-miterlimit="10" stroke-linecap="round"/>
<path d="M116.758 62.083H123.596" stroke="#949A92" stroke-width="1.97" stroke-miterlimit="10" stroke-linecap="round"/>
<path d="M77.6133 84.6772L123.762 86.614" stroke="#949A92" stroke-width="5.12" stroke-miterlimit="10" stroke-linecap="round"/>
<path d="M77.6172 91.8169L123.758 93.9164" stroke="#949A92" stroke-width="5.12" stroke-miterlimit="10" stroke-linecap="round"/>
<path d="M99.6849 62.0395L87.9096 61.4521L85.6077 66.1471C85.1547 66.9555 84.8509 67.8387 84.7108 68.7546C84.7061 68.9969 84.7583 69.2368 84.863 69.4553C84.9678 69.6738 85.1222 69.8647 85.314 70.0127C85.7347 70.3858 86.6793 70.6596 88.1398 70.8382L88.0961 71.6677L78.5195 71.1914L78.5632 70.362C79.8438 70.2006 80.6799 69.9492 81.0714 69.6079C81.8652 68.9306 82.7833 67.515 83.8257 65.3613L95.7717 40.8662L96.5654 40.9059L105.888 66.7345C106.637 68.8115 107.345 70.1688 108.011 70.8065C108.807 71.501 109.811 71.9115 110.865 71.9733L110.825 72.8027L98.8078 72.2035L98.8514 71.374C100.066 71.374 100.891 71.2152 101.336 70.8898C101.541 70.7558 101.711 70.5752 101.834 70.3628C101.956 70.1503 102.026 69.9121 102.038 69.6674C102.07 69.0086 101.824 67.9569 101.296 66.4924L99.6849 62.0395ZM99.1372 60.3488L94.593 47.7996L88.6875 59.8249L99.1372 60.3488Z" fill="#738988"/>
<path d="M106.748 18.9346H92.4609V37.9846H106.748V18.9346Z" fill="#738988"/>
<path d="M684.29 342.289C705.003 342.289 721.795 339.645 721.795 336.383C721.795 333.122 705.003 330.478 684.29 330.478C663.577 330.478 646.785 333.122 646.785 336.383C646.785 339.645 663.577 342.289 684.29 342.289Z" fill="#090110" stroke="#090110" stroke-width="1.8" stroke-miterlimit="10"/>
<path d="M691.004 99.0518C697.926 99.0518 703.537 97.6978 703.537 96.0276C703.537 94.3574 697.926 93.0034 691.004 93.0034C684.082 93.0034 678.471 94.3574 678.471 96.0276C678.471 97.6978 684.082 99.0518 691.004 99.0518Z" fill="#EF8535" stroke="black" stroke-width="0.42" stroke-miterlimit="10"/>
<path d="M678.939 101.608L681.158 117.265C681.158 117.265 681.09 119.015 684.15 120.257C687.21 121.499 697.957 121.166 699.37 119.753C700.783 118.34 700.981 118.61 701.386 116.527C701.791 114.443 703.26 97.3376 703.26 97.3376C703.26 97.3376 685.861 102.211 678.471 96.7026L678.939 101.608Z" fill="#F3A466" stroke="black" stroke-width="1.13" stroke-miterlimit="10"/>
<path d="M682.519 98.1431L680.84 83.7603L682.519 75.6323L685.678 83.6294L687.559 98.7503" fill="#987C86"/>
<path d="M682.519 98.1431L680.84 83.7603L682.519 75.6323L685.678 83.6294L687.559 98.7503" stroke="black" stroke-width="1.13" stroke-linecap="round" stroke-linejoin="round"/>
<path d="M696.843 78.9819C695.327 85.6653 693.812 92.35 692.299 99.036L696.688 98.4804C697.929 92.3077 699.17 86.1349 700.411 79.9622L696.843 78.9819Z" fill="#D27B55" stroke="black" stroke-width="0.56" stroke-miterlimit="10"/>
<path d="M698.462 79.6725C700.169 80.2598 701.046 79.9344 701.466 79.6725C703.451 78.4818 703.498 73.8503 701.157 68.1631C696.791 72.4692 694.886 76.6562 696.184 78.5374C696.462 78.9382 697.053 79.474 698.462 79.6725Z" fill="#D27B55" stroke="black" stroke-width="0.56" stroke-miterlimit="10"/>
<path d="M423.098 28.46H381.049V74.6919H423.098V28.46Z" fill="#FFEDDE" stroke="black" stroke-width="0.46" stroke-miterlimit="10"/>
<path d="M394.329 39.7705H387.689V68.2939H394.329V39.7705Z" fill="#FFF0A9" stroke="black" stroke-width="0.46" stroke-miterlimit="10"/>
<path d="M400.968 47.6406H394.328V68.298H400.968V47.6406Z" fill="#D800EF" stroke="black" stroke-width="0.62" stroke-miterlimit="10"/>
<path d="M407.608 54.7725H400.969V68.298H407.608V54.7725Z" fill="#240BA0" stroke="black" stroke-width="0.62" stroke-miterlimit="10"/>
<path d="M414.247 59.1978H407.607V68.2981H414.247V59.1978Z" stroke="black" stroke-width="0.62" stroke-miterlimit="10"/>
<path d="M408.732 22.2686H399.842V34.6511H408.732V22.2686Z" fill="#E5A76A"/>
<path d="M672.824 306.026C672.824 306.026 630.398 291.183 631.946 281.071C632.055 280.142 632.444 279.269 633.061 278.567C636.696 274.598 648.194 278.757 655.631 283.301C656.611 283.901 657.306 284.373 657.512 284.512C661.735 287.413 668.807 293.501 675.963 306.677L672.824 306.026Z" fill="#D6B97F" stroke="#090110" stroke-miterlimit="10"/>
<path d="M650.187 251.031C650.187 251.031 650.413 237.502 659.176 246.602C667.113 254.849 673.102 265.307 677.527 278.392C677.702 278.904 677.825 279.281 678.071 280.035C683.33 296.061 685.905 304.133 683.207 307.142C682.31 308.142 680.468 309.241 676.214 308.801C676.214 308.801 670.388 300.244 664.367 290.878C661.148 285.873 654.255 278.249 651.643 268.978C651.35 267.946 651.135 266.994 651.135 266.994C651.135 266.994 650.044 262.283 650.187 251.012V251.031Z" fill="#B59968" stroke="#090110" stroke-miterlimit="10"/>
<path d="M683.802 249.527C684.925 247.646 690.2 238.812 694.962 239.772C696.522 240.093 697.601 241.244 698.534 242.947C702.146 249.341 702.181 256.838 701.229 264.454C700.403 271.089 699.856 270.823 695.51 288.917C692.732 300.494 691.291 307.499 687.33 308.201C686.462 308.326 685.576 308.187 684.786 307.804C674.384 303.439 677.865 271.578 678.242 268.156C679.04 261.152 680.349 255.333 683.802 249.527Z" fill="#D6B97F" stroke="#090110" stroke-miterlimit="10"/>
<path d="M693.724 307.891C693.724 307.891 715.302 295.084 719.171 283.178C723.041 271.272 721.179 270.478 718.616 270.478C716.052 270.478 704.725 271.76 701.391 276.062C698.057 280.364 682.738 301.784 690.489 307.812C690.952 308.161 691.513 308.357 692.094 308.371C692.674 308.385 693.244 308.218 693.724 307.891Z" fill="#B29769" stroke="#090110" stroke-miterlimit="10"/>
<path d="M705.014 336.046C692.343 338.968 679.292 339.878 666.338 338.74C661.547 325.633 660.244 318.434 662.429 317.143C662.673 317.019 662.939 316.946 663.212 316.928C663.485 316.909 663.758 316.946 664.017 317.035L706.252 315.253C705.837 322.18 705.424 329.111 705.014 336.046Z" fill="#EA9B65" stroke="#090110" stroke-width="3" stroke-miterlimit="10"/>
<path d="M709.42 316.063L659.35 317.492C658.943 317.504 658.546 317.365 658.236 317.101C657.925 316.837 657.724 316.467 657.671 316.063L656.155 304.712C656.125 304.483 656.142 304.251 656.208 304.029C656.273 303.807 656.384 303.602 656.533 303.426C656.683 303.25 656.868 303.108 657.076 303.008C657.285 302.908 657.512 302.853 657.743 302.847L708.479 301.549C708.902 301.539 709.313 301.691 709.627 301.975C709.941 302.258 710.134 302.652 710.166 303.073L711.015 314.293C711.032 314.515 711.004 314.738 710.931 314.949C710.859 315.16 710.745 315.354 710.596 315.519C710.447 315.685 710.266 315.818 710.064 315.912C709.862 316.005 709.643 316.057 709.42 316.063Z" fill="#EA9B65" stroke="#090110" stroke-width="3" stroke-miterlimit="10"/>
<path d="M672.717 291.425C672.717 291.425 672.047 289.528 671.098 286.452C670.066 283.396 668.745 279.17 667.07 274.598C665.395 270.026 663.684 265.966 662.065 263.199C661.446 262.08 660.731 261.018 659.926 260.024C659.704 259.746 659.465 259.481 659.212 259.231L659.001 259.036L658.918 258.973L659.013 259.02L659.263 259.159C659.569 259.351 659.863 259.56 660.144 259.786C661.161 260.616 662.083 261.557 662.891 262.592C664.99 265.156 667.256 269.168 668.959 273.855C670.373 277.861 671.417 281.987 672.078 286.182C672.543 289.425 672.717 291.425 672.717 291.425Z" fill="#D6B97F" stroke="#D6B97F" stroke-width="0.17" stroke-miterlimit="10"/>
<path d="M692.258 298.982C692.258 298.982 693.159 297.188 694.782 294.366C696.944 290.706 699.437 287.252 702.231 284.047C705.557 280.325 709.129 277.432 712.002 275.836C713.118 275.185 714.303 274.661 715.534 274.272C715.864 274.172 716.199 274.091 716.539 274.03C716.65 274.011 716.763 273.999 716.876 273.995C716.876 273.995 716.777 274.026 716.562 274.114C716.348 274.201 716.043 274.344 715.658 274.562C714.572 275.176 713.54 275.881 712.574 276.67C710.081 278.618 707.018 281.75 703.755 285.373C700.493 288.997 697.711 292.457 695.615 294.926C693.587 297.466 692.258 298.982 692.258 298.982Z" fill="#D6B97F" stroke="#D6B97F" stroke-width="0.17" stroke-miterlimit="10"/>
<path d="M683.801 295.624C683.801 295.624 685.277 285.198 687.714 272.451C690.151 259.703 692.623 249.444 692.623 249.444C692.623 249.444 691.143 259.874 688.706 272.621C686.269 285.369 683.801 295.624 683.801 295.624Z" fill="#B29769" stroke="#B29769" stroke-width="0.08" stroke-miterlimit="10"/>
<path d="M666.905 299.422C666.905 299.422 660.488 295.965 652.9 291.167C645.311 286.369 639.43 282.039 639.43 282.039C639.43 282.039 645.847 285.496 653.435 290.29C661.024 295.084 666.905 299.422 666.905 299.422Z" fill="#B29769" stroke="#B29769" stroke-width="0.08" stroke-miterlimit="10"/>
<path d="M21.6348 360.966L61.0643 340.63L135.582 354.703L97.0132 379.75L21.6348 360.966Z" fill="black" stroke="black" stroke-width="2.19" stroke-miterlimit="10"/>
<path d="M53.2656 359.505C55.381 357.735 65.4417 349.397 72.2283 346.409C74.5302 345.393 76.459 344.984 78.0346 345.829C79.384 346.551 80.019 347.94 80.2809 348.754L80.5547 356.827C80.5547 356.827 79.5665 359.791 83.2456 358.307C86.9246 356.823 87.3651 356.827 87.3651 356.827C87.3651 356.827 91.1553 354.465 92.0324 359.24C92.9095 364.014 92.0324 368.907 92.0324 368.907L53.2656 359.505Z" fill="black" stroke="black" stroke-width="0.92" stroke-miterlimit="10"/>
<path d="M90.9257 373.606C90.9257 373.606 79.333 371.772 65.363 368.185C51.393 364.597 40.3281 360.616 40.3281 360.616C40.3281 360.616 51.9208 362.45 65.8948 366.038C79.8688 369.625 90.9257 373.606 90.9257 373.606Z" fill="black" stroke="black" stroke-width="0.18" stroke-miterlimit="10"/>
<path d="M19 359.088L60.2552 337.816L138.217 352.536L97.867 378.746L19 359.088Z" fill="#FFEDCB" stroke="black" stroke-width="2.29" stroke-miterlimit="10"/>
<path d="M52.0918 357.56C54.3064 355.711 64.8355 346.987 71.9355 343.848C74.3485 342.781 76.3647 342.356 78.0117 343.241C79.4246 343.995 80.0715 345.452 80.3652 346.301L80.6509 354.746C80.6509 354.746 79.6151 357.846 83.4648 356.294C87.3145 354.742 87.7748 354.746 87.7748 354.746C87.7748 354.746 91.7436 352.274 92.6564 357.274C93.5692 362.275 92.6564 367.383 92.6564 367.383L52.0918 357.56Z" fill="#FFDAA4"/>
<path d="M91.4959 372.312C91.4959 372.312 79.3674 370.395 64.7465 366.645C50.1256 362.894 38.5527 358.727 38.5527 358.727C38.5527 358.727 50.6812 360.644 65.2981 364.394C79.9151 368.145 91.4959 372.312 91.4959 372.312Z" fill="#FFDAA4" stroke="#FFDAA4" stroke-width="0.19" stroke-miterlimit="10"/>
<path d="M378.918 330.779C389.875 330.779 398.758 327.428 398.758 323.294C398.758 319.16 389.875 315.809 378.918 315.809C367.961 315.809 359.078 319.16 359.078 323.294C359.078 327.428 367.961 330.779 378.918 330.779Z" fill="#090110" stroke="#090110" stroke-width="1.8" stroke-miterlimit="10"/>
<path d="M160.578 398.598C171.535 398.598 180.418 395.246 180.418 391.113C180.418 386.979 171.535 383.627 160.578 383.627C149.621 383.627 140.738 386.979 140.738 391.113C140.738 395.246 149.621 398.598 160.578 398.598Z" fill="#090110" stroke="#090110" stroke-width="1.8" stroke-miterlimit="10"/>
<path d="M362.844 296.382C356.605 296.418 351.732 301.689 352.014 307.527C352.319 313.563 358.074 318.393 364.464 317.448C364.4 316.944 364.305 316.218 364.174 315.341C363.717 312.253 363.499 311.837 363.142 311.587C362.348 311.019 361.634 311.884 360.312 311.511C358.693 311.055 357.725 309.186 357.427 307.82C357.094 306.288 357.312 304.018 358.717 302.99C360.185 301.919 362.007 302.895 362.686 301.8C362.991 301.319 362.765 300.923 362.686 299.418C362.645 298.404 362.698 297.387 362.844 296.382Z" fill="#70432D" stroke="black" stroke-width="0.75" stroke-miterlimit="10"/>
<path d="M363.127 293.414C363.258 292.303 365.182 291.537 366.956 290.671C368.73 289.806 370.385 289.441 376.537 289.393C385.748 289.318 387.911 290.155 388.979 290.64C390.546 291.347 391.998 292.283 393.289 293.418C393.289 293.418 395.361 310.206 389.173 322.719C389.173 322.719 376.354 328.013 366.19 321.477C366.19 321.473 361.21 309.408 363.127 293.414Z" fill="#70432D" stroke="black" stroke-width="0.75" stroke-miterlimit="10"/>
<path d="M390.553 293.723C390.553 293.723 390.256 293.926 389.724 294.299C388.94 294.788 388.111 295.2 387.247 295.529C385.069 296.386 381.81 296.95 378.254 296.72C375.232 296.534 372.243 295.99 369.348 295.1C368.152 294.752 366.977 294.334 365.828 293.85C365.828 293.85 367.197 294.247 369.444 294.735C372.356 295.374 375.314 295.784 378.29 295.962C381.767 296.172 384.93 295.815 387.124 295.168C387.996 294.912 388.846 294.585 389.664 294.191L390.553 293.723Z" fill="black" stroke="black" stroke-width="0.06" stroke-miterlimit="10"/>
<path d="M387.99 294.993C389.943 294.052 382.668 293.326 378.548 293.366C375.466 293.395 372.411 293.956 369.52 295.025C369.52 295.025 381.489 298.124 387.99 294.993Z" fill="#3D2014"/>
<path d="M388.027 295.084C388.027 295.084 387.562 295.302 386.689 295.672C385.422 296.107 384.109 296.398 382.776 296.537C380.78 296.74 378.77 296.757 376.771 296.588C375.64 296.505 374.45 296.362 373.223 296.191C372.608 296.096 371.981 295.981 371.35 295.862L370.874 295.763L370.477 295.676L370.024 295.568L369.12 295.354L368.227 295.132L369.06 294.834C369.358 294.731 369.635 294.624 369.941 294.525L370.39 294.374L370.616 294.298L370.806 294.243C371.124 294.144 371.441 294.056 371.759 293.973C372.394 293.81 373.025 293.667 373.648 293.556C374.846 293.339 376.058 293.206 377.275 293.159C378.372 293.124 379.47 293.144 380.565 293.219C381.593 293.282 382.55 293.374 383.411 293.477C384.783 293.608 386.14 293.861 387.467 294.231C387.672 294.293 387.87 294.376 388.058 294.477C388.217 294.564 388.32 294.695 388.257 294.763C388.178 294.848 388.08 294.913 387.971 294.953L388.054 294.906C388.124 294.868 388.183 294.814 388.225 294.747C388.225 294.715 388.225 294.699 388.201 294.66C388.15 294.609 388.091 294.568 388.027 294.537C387.835 294.456 387.637 294.391 387.435 294.342C386.095 294.063 384.735 293.888 383.367 293.818C381.349 293.678 379.324 293.659 377.303 293.763C376.118 293.842 374.939 293.998 373.775 294.231C373.166 294.35 372.555 294.493 371.941 294.66C371.632 294.739 371.326 294.83 371.017 294.925H370.933H370.902H370.941H370.965H371.028L371.497 295.025C372.12 295.152 372.735 295.275 373.338 295.378C374.529 295.588 375.72 295.775 376.831 295.878C378.793 296.11 380.771 296.179 382.744 296.084C384.067 296.021 385.378 295.818 386.657 295.477L388.027 295.084Z" fill="black" stroke="black" stroke-width="0.06" stroke-miterlimit="10"/>
<path d="M374.576 268.359C375.303 270.994 377.517 273.209 378.041 273.713C380.279 275.868 381.641 275.661 382.895 277.709C383.002 277.884 384.554 280.487 383.891 283.476C383.399 285.671 381.807 287.568 382.161 287.842C382.244 287.905 382.395 287.842 382.466 287.814C386.364 286.091 387.626 283.071 387.626 283.071C388.143 281.76 388.365 280.351 388.274 278.945C388.184 277.538 387.783 276.169 387.102 274.935C384.998 271.153 381.327 271.157 380.906 267.994C380.787 267.105 381.041 266.168 381.545 264.299C382.256 261.676 383.228 261.172 383.319 259.469C383.403 257.905 382.792 255.663 381.641 255.349C379.216 254.695 372.921 262.342 374.576 268.359Z" fill="#CCCAAF"/>
<path d="M374.302 280.297L372.715 278.313C372.715 278.313 370.703 273.237 375.251 276.348C379.799 279.46 379.799 283.492 379.799 283.492C379.799 283.492 379.581 285.96 378.934 286.603C378.287 287.246 377.692 284.929 377.311 284.544C376.93 284.159 375.624 280.678 374.302 280.297Z" fill="#CCCAAF"/>
<path d="M146.766 366.03C150.095 364.76 153.593 363.99 157.148 363.744C163.057 363.371 168.968 364.429 174.38 366.828L173.19 391.037C170.095 393.891 166.099 395.572 161.895 395.79C157.691 396.007 153.544 394.747 150.171 392.228C149.036 383.655 147.898 375.083 146.758 366.51" fill="#9BC699"/>
<path d="M146.766 366.03C150.095 364.76 153.593 363.99 157.148 363.744C163.057 363.371 168.968 364.429 174.38 366.828L173.19 391.037C170.095 393.891 166.099 395.572 161.895 395.79C157.691 396.007 153.544 394.747 150.171 392.228C149.036 383.655 147.898 375.083 146.758 366.51" stroke="black" stroke-width="2" stroke-miterlimit="10"/>
<path d="M147.881 371.912C143.996 372.951 141.75 376.853 142.639 380.333C143.397 383.302 146.31 385.493 149.675 385.437C149.818 386.509 149.96 387.583 150.1 388.66C144.591 389.557 139.535 386.326 138.273 381.913C136.769 376.666 140.761 370.153 147.528 369.252" fill="#9BC699"/>
<path d="M147.881 371.912C143.996 372.951 141.75 376.853 142.639 380.333C143.397 383.302 146.31 385.493 149.675 385.437C149.818 386.509 149.96 387.583 150.1 388.66C144.591 389.557 139.535 386.326 138.273 381.913C136.769 376.666 140.761 370.153 147.528 369.252" stroke="black" stroke-width="2" stroke-miterlimit="10"/>
<path d="M149.781 367.236C153.139 368.961 156.835 369.926 160.607 370.063C164.379 370.201 168.135 369.506 171.609 368.03C164.562 365.666 156.982 365.39 149.781 367.236Z" fill="#9BC699" stroke="black" stroke-width="2" stroke-miterlimit="10"/>
<path d="M234.896 349.456C233.507 350.85 133.479 329.926 133.479 329.926L360.281 336.927L234.896 349.456Z" fill="#090110" stroke="#090110" stroke-width="1.8" stroke-miterlimit="10"/>
<path d="M339.464 288.734L353.632 332.073C353.632 332.073 354.763 336.24 352.025 336.717C349.286 337.193 340.595 336.717 340.595 336.717C340.595 336.717 337.976 337.113 337.051 333.176C336.126 329.239 323.16 289.627 323.16 289.627L339.464 288.734Z" fill="#DC8437" stroke="black" stroke-width="2" stroke-miterlimit="10"/>
<path d="M331.07 337.947C331.07 337.947 326.665 337.471 325.296 333.839C323.927 330.208 311.842 289.726 311.842 289.726L323.153 289.607L337.305 334.018C337.305 334.018 337.976 336.625 340.29 336.709C342.604 336.792 352.025 336.709 352.025 336.709C352.517 336.649 352.972 336.417 353.308 336.053C353.645 335.69 353.841 335.219 353.863 334.724C353.863 334.724 354.927 337.74 353.863 338.098C352.799 338.455 331.07 337.947 331.07 337.947Z" fill="#8D4A2E" stroke="black" stroke-width="2" stroke-miterlimit="10"/>
<path d="M225.165 294.561L229.808 340.781C229.808 340.781 230.939 344.948 228.201 345.424C225.462 345.9 216.771 345.424 216.771 345.424C216.278 345.471 215.782 345.372 215.346 345.138C213.893 344.404 213.409 342.594 213.227 341.884C212.544 339.213 210.448 320.631 208.02 295.394L225.165 294.561Z" fill="#DC8437" stroke="black" stroke-miterlimit="10"/>
<path d="M207.246 346.678C205.638 345.96 204.288 344.768 203.376 343.261C202.126 341.074 202.348 338.796 202.408 338.046C202.88 332.18 200.781 326.386 200.281 320.52C199.669 313.376 199.003 305.836 198.213 296.898L208.02 295.398C209.837 311.18 211.658 326.964 213.481 342.749C213.481 342.749 214.151 345.357 216.465 345.44C218.779 345.523 228.201 345.44 228.201 345.44C228.692 345.38 229.147 345.148 229.483 344.785C229.82 344.421 230.017 343.95 230.038 343.456C230.21 343.963 230.342 344.483 230.435 345.011C230.433 345.638 230.297 346.258 230.038 346.829C229.431 348.107 219.958 347.92 207.246 346.678Z" fill="#8D4A2E" stroke="black" stroke-width="2" stroke-miterlimit="10"/>
<path d="M183.21 296.525L358.406 287.095C359.774 287.022 361.061 286.428 362.003 285.434C362.945 284.44 363.47 283.123 363.47 281.753V272.78C363.47 271.375 362.916 270.026 361.929 269.025C360.942 268.024 359.601 267.451 358.196 267.43C326.41 266.974 303.348 268.224 287.671 269.573C273.483 270.764 264.077 272.149 247.19 272.296C243.543 272.328 231.68 272.371 216.031 273.066C208.443 273.403 203.411 273.737 197.1 274.915C191.63 275.941 186.25 277.401 181.011 279.281C179.966 279.656 179.063 280.347 178.429 281.259C177.795 282.171 177.462 283.258 177.475 284.369C177.507 286.658 177.54 288.95 177.574 291.247C177.583 291.968 177.737 292.68 178.028 293.34C178.319 294 178.74 294.595 179.267 295.088C179.793 295.581 180.414 295.962 181.091 296.209C181.769 296.456 182.49 296.564 183.21 296.525Z" fill="#8D4A2E" stroke="black" stroke-width="3" stroke-miterlimit="10"/>
<path d="M178.975 280.591L193.263 275.713C184.719 218.336 176.176 160.959 167.632 103.584C166.616 103.668 165.116 103.811 163.307 104.061C161.167 104.358 159.52 104.672 159.25 104.731C154.829 105.664 150.19 114.8 150.448 116.288C159.941 171.057 169.45 225.825 178.975 280.591Z" fill="#ECB180" stroke="black" stroke-width="2" stroke-miterlimit="10"/>
<path d="M212.981 86.6377C212.981 86.6377 203.059 87.4314 199.328 92.8289L200.439 103.227L211.715 102.402L209.639 89.5508C209.639 89.5508 209.329 87.3521 212.981 86.6377Z" fill="#7C453E" stroke="black" stroke-width="2" stroke-miterlimit="10"/>
<path d="M226.252 86.6814L241.123 87.0783C241.427 87.0872 241.729 87.0251 242.004 86.8968C242.28 86.7686 242.522 86.5778 242.711 86.3396C242.9 86.1014 243.03 85.8225 243.092 85.5249C243.154 85.2273 243.146 84.9194 243.068 84.6256L233.293 47.7916C233.181 47.3706 232.931 46.9991 232.584 46.736C232.237 46.4729 231.812 46.3332 231.376 46.339L219.168 46.5216C218.882 46.5255 218.6 46.5923 218.343 46.7171C218.085 46.842 217.858 47.0219 217.678 47.2442C217.498 47.4665 217.369 47.7256 217.3 48.0033C217.231 48.281 217.224 48.5705 217.279 48.8513L224.387 85.1018C224.472 85.5381 224.703 85.9324 225.042 86.2196C225.381 86.5068 225.808 86.6697 226.252 86.6814Z" fill="#DC8437" stroke="black" stroke-width="2" stroke-miterlimit="10"/>
<path d="M221.712 46.4818C221.712 46.4818 211.473 45.3626 205.281 53.697L210.068 87.0861L225.899 86.6376C225.899 86.6376 224.669 86.5384 224.351 84.9191L221.136 68.5242L217.279 48.8511C217.279 48.8511 216.414 46.0532 221.712 46.4818Z" fill="#7C453E" stroke="black" stroke-width="2" stroke-miterlimit="10"/>
<path d="M171.833 232.775L143.603 329.93C143.603 329.93 132.173 332.073 133.602 324.691C135.031 317.309 167.416 207.058 167.416 207.058L171.833 232.775Z" fill="#8D5037" stroke="black" stroke-width="2" stroke-miterlimit="10"/>
<path d="M176.004 262.469C169.519 284.107 163.037 305.744 156.557 327.382C156.557 327.382 155.922 329.922 153.541 329.922H143.619L155.561 288.837L171.833 232.775L176.004 262.469Z" fill="#7C453E" stroke="black" stroke-width="2" stroke-miterlimit="10"/>
<path d="M197.275 294.233L357.393 283.822C359.902 283.659 361.803 281.493 361.64 278.984L361.157 271.555C360.994 269.046 358.828 267.144 356.319 267.307L196.201 277.718C193.692 277.881 191.79 280.047 191.954 282.556L192.437 289.986C192.6 292.494 194.766 294.396 197.275 294.233Z" fill="#DC8437"/>
<path d="M189.605 120.701C190.824 120.701 191.812 119.713 191.812 118.495C191.812 117.276 190.824 116.288 189.605 116.288C188.386 116.288 187.398 117.276 187.398 118.495C187.398 119.713 188.386 120.701 189.605 120.701Z" fill="#1D705C"/>
<path d="M518.788 363.811C571.637 363.811 614.479 355.622 614.479 345.52C614.479 335.417 571.637 327.228 518.788 327.228C465.94 327.228 423.098 335.417 423.098 345.52C423.098 355.622 465.94 363.811 518.788 363.811Z" fill="#090110"/>
<path d="M442.005 245.233C437.052 243.356 395.432 226.782 386.161 184.114C383.335 171.093 381.744 147.491 390.066 143.363C397.547 139.652 414.518 150.971 455.947 215.991" fill="#0D3E66"/>
<path d="M455.704 216.154L450.652 208.657L447.934 204.648L444.671 199.906L440.885 194.476C439.524 192.571 438.107 190.536 436.583 188.432C433.559 184.209 430.177 179.629 426.451 174.795C422.724 169.962 418.64 164.874 414.072 159.802C411.782 157.269 409.373 154.733 406.774 152.316C404.174 149.899 401.392 147.578 398.3 145.824C396.833 144.949 395.206 144.374 393.514 144.133C392.751 144.041 391.978 144.111 391.244 144.339C390.528 144.594 389.88 145.008 389.347 145.55C388.758 146.144 388.264 146.825 387.883 147.57C387.465 148.363 387.115 149.19 386.839 150.042C386.277 151.848 385.878 153.701 385.648 155.579C385.204 159.398 385.078 163.248 385.271 167.088C385.432 170.848 385.787 174.597 386.335 178.32C386.605 180.153 386.914 181.959 387.279 183.733C387.486 184.614 387.691 185.491 387.894 186.364L388.204 187.67L388.573 188.952C388.823 189.801 389.069 190.651 389.315 191.492C389.561 192.333 389.891 193.147 390.176 193.968C390.319 194.365 390.45 194.79 390.609 195.191L391.093 196.381C391.423 197.175 391.72 197.969 392.066 198.763C392.788 200.299 393.455 201.842 394.252 203.291L394.828 204.39C395.014 204.756 395.225 205.117 395.419 205.466L396.646 207.569C398.27 210.253 400.051 212.838 401.98 215.312C402.884 216.535 403.877 217.646 404.805 218.781L406.258 220.404L406.972 221.198C407.214 221.46 407.464 221.71 407.71 221.968L409.167 223.476L410.639 224.905C411.596 225.865 412.624 226.727 413.556 227.608C417.064 230.689 420.768 233.539 424.645 236.14C428.082 238.434 431.166 240.22 433.73 241.605C436.293 242.99 438.345 243.955 439.746 244.586C441.147 245.217 441.901 245.519 441.901 245.519C441.901 245.519 441.135 245.257 439.702 244.693C438.27 244.13 436.174 243.252 433.543 241.978C430.912 240.704 427.737 239.034 424.189 236.859C420.17 234.379 416.325 231.629 412.679 228.628C411.687 227.77 410.639 226.925 409.635 225.984L408.095 224.576L406.571 223.087C406.313 222.833 406.051 222.583 405.801 222.325L405.047 221.531C404.543 221 404.027 220.468 403.519 219.92C402.543 218.793 401.499 217.678 400.543 216.459C398.508 213.98 396.625 211.379 394.903 208.673L393.598 206.542C393.371 206.184 393.165 205.819 392.963 205.446L392.351 204.331C391.502 202.855 390.784 201.283 390.01 199.711C389.641 198.918 389.315 198.1 388.962 197.29C388.791 196.893 388.617 196.473 388.442 196.064C388.267 195.655 388.129 195.227 387.974 194.806C387.664 193.965 387.355 193.118 387.045 192.266L386.251 189.654C386.12 189.214 385.985 188.777 385.854 188.337L385.521 186.991C385.299 186.094 385.073 185.19 384.85 184.281C384.454 182.455 384.112 180.606 383.819 178.725C383.213 174.913 382.815 171.07 382.628 167.215C382.405 163.22 382.526 159.212 382.989 155.237C383.235 153.194 383.67 151.177 384.287 149.213C384.617 148.209 385.032 147.236 385.529 146.304C386.038 145.325 386.697 144.432 387.482 143.657C388.306 142.837 389.304 142.214 390.403 141.835C391.49 141.496 392.637 141.391 393.768 141.525C395.814 141.815 397.78 142.512 399.551 143.577C402.948 145.562 405.793 148.026 408.441 150.538C411.088 153.051 413.485 155.698 415.763 158.293C420.299 163.528 424.288 168.739 427.911 173.688C431.535 178.637 434.785 183.332 437.682 187.666C439.143 189.821 440.488 191.905 441.786 193.861L445.358 199.418L448.434 204.291L450.986 208.415C452.522 210.887 453.676 212.828 454.478 214.138C455.28 215.447 455.704 216.154 455.704 216.154Z" fill="black" stroke="black" stroke-width="0.22" stroke-miterlimit="10"/>
<path d="M564.616 51.8C570.658 52.2072 576.549 53.8654 581.916 56.6696C585.305 58.4476 602.077 67.7821 606.05 87.4552C606.987 92.1707 607.145 97.0078 606.518 101.774C606.518 101.774 604.308 117.649 586.139 114.105C586.139 114.105 572.53 109.454 557.044 94.8371C557.044 94.8371 536.863 82.2125 522.178 76.9777C507.494 71.7429 501.263 68.8537 499.049 67.5281C490.746 62.5394 484.928 47.8074 488.658 38.3657C494.508 23.5702 522.52 27.5231 523.925 27.7374C534.533 29.3527 542.649 34.4843 547.769 37.7466C553.963 41.6907 559.625 46.4138 564.616 51.8Z" fill="#B06034" stroke="black" stroke-width="3.55" stroke-miterlimit="10"/>
<path d="M586.568 114.197C586.568 114.197 561.049 91.0787 557.898 89.011C554.746 86.9433 537.919 73.136 520.087 70.1158C520.087 70.1158 500.442 64.4286 498.299 64.1349C496.156 63.8412 494.453 63.5396 494.453 63.5396C494.453 63.5396 497.128 66.4288 498.684 67.3138C500.24 68.1989 505.748 70.7151 505.748 70.7151L521.266 76.6682C521.266 76.6682 530.589 80.113 531.152 80.7282C531.716 81.3434 538.498 84.3437 538.498 84.3437L548.631 89.8722L554.818 93.4719L557.064 94.8451L561.624 98.921L569.165 104.747L573.173 107.422C573.173 107.422 584.151 113.859 586.568 114.197Z" stroke="black" stroke-width="0.89" stroke-miterlimit="10"/>
<path d="M585.456 113.177C585.456 113.177 606.419 112.451 601.089 91.3011C595.759 70.1516 575.344 61.4045 562.171 56.642C562.171 56.642 542.058 35.2703 519.13 33.8296C496.203 32.389 489.944 35.8973 489.944 35.8973C489.944 35.8973 485.999 43.5332 488.015 49.9308C490.031 56.3285 493.853 62.7936 493.853 62.7936L494.774 63.5873L506.625 66.2821L518.828 69.7389L526.179 71.5407L535.525 75.1126L550.749 83.8954L560.782 91.2773L576.225 104.85L585.456 113.177Z" fill="#7C4637"/>
<path d="M565.477 51.8755C565.477 51.8755 569.211 48.891 577.256 45.4025C585.301 41.9139 575.645 33.4962 573.835 33.4962C572.025 33.4962 567.203 32.3056 560.012 47.2162L564.25 51.4032L565.088 51.8636L565.477 51.8755Z" fill="#683B36" stroke="black" stroke-width="2.66" stroke-miterlimit="10"/>
<path d="M463.398 319.294C463.398 319.294 434.545 326.1 433.858 334.423C433.172 342.745 448.63 340.852 448.63 340.852C448.63 340.852 446.911 363.926 490.877 334.423C534.843 304.919 463.398 319.294 463.398 319.294Z" fill="#FA8510" stroke="black" stroke-width="3.63" stroke-miterlimit="10"/>
<path d="M535.445 329.121C535.445 329.121 508.251 341.733 508.985 350.048C509.72 358.362 524.582 353.334 524.582 353.334C524.582 353.334 526.805 376.353 565.004 338.34C603.203 300.327 535.445 329.121 535.445 329.121Z" fill="#FA8510" stroke="black" stroke-width="3.63" stroke-miterlimit="10"/>
<path d="M447.263 208.566C441.393 206.415 432.344 201.997 425.28 192.603C404.817 165.386 421.121 123.15 423.22 117.713C429.857 100.48 441.303 85.5151 456.196 74.5966C490.479 49.657 527.674 59.8606 534.512 61.7339C544.279 64.4128 566.051 70.7429 582.601 92.7496C591.074 104.123 596.726 117.346 599.091 131.33C600.345 139.2 603.147 158.369 593.595 178.229C589.012 187.793 582.175 196.1 573.671 202.438C573.671 202.438 580.541 280.352 603.211 297.751C604.517 298.752 607.108 300.839 607.319 303.947C608.331 318.822 552.99 344.464 499.563 338.126C477.509 335.51 448.092 331.506 432.836 306.07C408.766 265.978 447.263 208.566 447.263 208.566Z" fill="#0D3E66" stroke="black" stroke-width="7.27" stroke-miterlimit="10"/>
<path d="M480.57 335.32C485.86 336.332 513.3 341.055 528.663 323.85C547.316 302.951 544.538 253.754 508.74 216.432C535.493 212.86 556.043 191.008 558.889 164.993C561.667 139.474 547.332 110.982 525.913 105.231C509.303 100.771 494.532 111.625 490.876 114.308C473.692 126.937 469.175 146.622 468.207 151.376C468.576 147.03 471.779 105.339 455.84 96.909C454.339 96.1268 452.713 95.615 451.034 95.3969C438.227 93.8094 425.999 110.565 420.804 123.389C417.232 132.191 416.637 140.01 415.994 148.352C415.343 156.871 415.602 165.435 416.764 173.899C417.844 178.264 420.713 187.531 428.361 196.009C433.483 201.744 439.992 206.068 447.264 208.566C438.234 220.489 432.011 234.297 429.059 248.96C426.734 260.529 421.546 286.31 435.929 308.717C450.883 332.034 476.236 334.907 480.57 335.32Z" fill="#BAEAFF" stroke="black" stroke-width="5.45" stroke-linejoin="round"/>
<path d="M562.539 206.093C562.539 206.093 600.679 231.096 596.392 253.754C592.106 276.412 572.393 277.82 572.393 277.82C572.393 277.82 578.394 289.143 575.394 289.143C572.393 289.143 561.253 298.581 549.68 285.841C538.107 273.102 549.68 251.865 549.68 251.865C549.68 251.865 548.823 245.257 542.822 238.653" fill="#0D3E66"/>
<path d="M543.129 238.375L543.391 238.669L543.855 239.192L544.212 239.589L544.641 240.129L545.173 240.804L545.776 241.649C546.002 241.955 546.228 242.3 546.467 242.681L546.863 243.276L547.241 243.935C547.85 244.993 548.389 246.091 548.852 247.221C549.122 247.868 549.376 248.567 549.618 249.325C549.733 249.722 549.848 250.099 549.955 250.515C549.983 250.618 550.003 250.722 550.027 250.829C550.05 250.936 550.078 251.031 550.106 251.174C550.166 251.436 550.208 251.701 550.233 251.968C550.265 251.912 550.233 251.888 550.277 251.916C550.32 251.944 550.277 252.008 550.245 252.115C550.165 252.305 550.031 252.643 549.848 253.119C549.534 253.936 549.015 255.222 548.435 256.968C547.707 259.116 547.12 261.309 546.677 263.533C546.393 264.93 546.189 266.343 546.066 267.763C545.921 269.347 545.899 270.939 545.998 272.526C546.209 275.836 547.09 279.44 549.249 282.583C549.534 282.98 549.796 283.377 550.106 283.734C550.416 284.091 550.725 284.472 551.07 284.833C551.416 285.194 551.777 285.567 552.154 285.913C552.531 286.258 552.9 286.619 553.309 286.925L553.912 287.409C554.114 287.571 554.309 287.706 554.539 287.857C554.936 288.171 555.396 288.425 555.837 288.699C556.733 289.216 557.679 289.644 558.659 289.977C560.687 290.632 562.841 290.808 564.949 290.492C566.071 290.324 567.176 290.059 568.251 289.699C569.362 289.342 570.474 288.881 571.636 288.385C572.228 288.135 572.827 287.869 573.526 287.615C573.704 287.548 573.883 287.492 574.061 287.437L574.232 287.385C574.237 287.388 574.242 287.389 574.248 287.389C574.253 287.389 574.259 287.388 574.264 287.385C574.264 287.361 574.264 287.341 574.264 287.314L574.184 286.956L574.077 286.559C574.002 286.282 573.911 285.996 573.815 285.706C573.418 284.551 572.93 283.365 572.398 282.178L572.002 281.289L571.708 280.67L571.271 279.773C570.68 278.582 570.001 277.348 569.386 276.161L569.41 276.205C569.346 276.145 569.473 276.157 569.6 276.141L570.918 276.03C571.501 275.979 572.204 275.919 572.902 275.824C573.272 275.792 573.609 275.701 573.978 275.637C574.161 275.602 574.347 275.574 574.526 275.53L574.784 275.471C577.725 274.774 580.525 273.583 583.066 271.947C585.532 270.349 587.701 268.335 589.476 265.993C591.19 263.696 592.549 261.154 593.508 258.453L593.861 257.453C593.98 257.123 594.064 256.778 594.167 256.441L594.465 255.433C594.544 255.091 594.623 254.75 594.707 254.409C594.79 254.067 594.862 253.73 594.941 253.393C595.02 253.055 595.056 252.738 595.116 252.412L595.235 251.428C595.235 251.099 595.278 250.769 595.298 250.444C595.371 247.83 594.995 245.223 594.187 242.737C593.42 240.326 592.41 238 591.171 235.795C588.886 231.778 586.2 228.003 583.154 224.528C580.376 221.301 577.641 218.547 575.173 216.194C572.704 213.84 570.485 211.923 568.648 210.375C566.81 208.828 565.338 207.673 564.334 206.895C563.33 206.117 562.786 205.704 562.786 205.704C562.786 205.704 563.366 206.049 564.429 206.74C565.493 207.431 567.053 208.474 569.009 209.883C570.966 211.292 573.327 213.058 575.97 215.269C578.976 217.756 581.843 220.406 584.559 223.206C587.907 226.624 590.878 230.392 593.421 234.446C594.855 236.756 596.043 239.21 596.965 241.768C597.985 244.556 598.51 247.5 598.517 250.468C598.517 250.865 598.493 251.242 598.477 251.63C598.461 252.019 598.41 252.424 598.374 252.797C598.338 253.17 598.263 253.591 598.203 253.968C598.144 254.345 598.052 254.71 597.977 255.083C597.902 255.456 597.822 255.829 597.747 256.202C597.671 256.576 597.548 256.945 597.453 257.318C597.358 257.691 597.267 258.064 597.144 258.437C597.021 258.81 596.905 259.175 596.782 259.548C595.775 262.614 594.303 265.506 592.417 268.125C590.422 270.847 587.959 273.192 585.142 275.05C582.249 276.952 579.045 278.334 575.677 279.134L575.375 279.201H575.292C575.264 279.201 575.24 279.201 575.24 279.201C575.243 279.235 575.253 279.267 575.268 279.297V279.328L575.407 279.63L575.831 280.575C576.387 281.845 576.911 283.123 577.351 284.472C577.463 284.813 577.566 285.158 577.661 285.512C577.709 285.69 577.756 285.873 577.8 286.059L577.859 286.341L577.919 286.659C578.038 287.257 578.065 287.87 577.998 288.476C577.934 289.045 577.704 289.582 577.336 290.02C577.154 290.228 576.936 290.402 576.693 290.532C576.44 290.656 576.174 290.749 575.899 290.81L575.434 290.87H575.315H575.224L575.125 290.897C574.99 290.929 574.858 290.968 574.728 291.016C574.204 291.195 573.617 291.441 573.025 291.679C570.644 292.671 568.049 293.58 565.382 293.886C562.744 294.213 560.067 293.919 557.563 293.029C556.382 292.592 555.248 292.038 554.178 291.374C553.662 291.032 553.146 290.707 552.678 290.334C552.44 290.151 552.193 289.977 551.967 289.786L551.297 289.207C550.84 288.834 550.451 288.413 550.031 288.016C549.61 287.619 549.237 287.183 548.872 286.774C548.507 286.365 548.153 285.889 547.8 285.452C547.447 285.016 547.169 284.527 546.856 284.071C545.737 282.269 544.909 280.303 544.399 278.245C543.941 276.386 543.704 274.48 543.692 272.566C543.679 270.861 543.802 269.158 544.062 267.474C544.282 266.001 544.593 264.543 544.99 263.108C545.602 260.853 546.389 258.649 547.344 256.516C547.902 255.239 548.537 253.997 549.245 252.797C549.411 252.514 549.593 252.24 549.788 251.976C549.927 251.813 549.919 251.765 549.947 251.881C549.931 251.639 549.895 251.398 549.84 251.162C549.792 250.92 549.749 250.734 549.701 250.523C549.602 250.126 549.491 249.729 549.384 249.333C549.15 248.582 548.911 247.88 548.649 247.237C548.205 246.107 547.686 245.007 547.094 243.947L546.729 243.288L546.359 242.689C546.129 242.292 545.911 241.959 545.689 241.649C545.466 241.34 545.292 241.054 545.105 240.792L544.589 240.113L544.193 239.565L543.847 239.169L543.399 238.629L543.129 238.375Z" fill="black" stroke="black" stroke-width="0.32" stroke-miterlimit="10"/>
<path d="M404.035 114.478C404.035 114.478 389.017 163.496 386.739 171.986C384.461 180.475 384.457 186.972 385.128 187.71C385.799 188.448 388.68 191.476 390.625 186.233C392.569 180.991 404.571 151.979 404.571 151.094C404.571 150.209 413.302 119.177 413.302 119.177C413.302 119.177 410.472 112.855 404.035 114.478Z" fill="#BE5F22" stroke="black" stroke-width="2.66" stroke-miterlimit="10"/>
<path d="M404.708 114.335C404.708 114.335 398.271 105.604 400.148 97.6667C402.025 89.7292 408.482 88.0703 410.205 86.1573C411.927 84.2444 415.031 80.105 415.031 77.4459C415.031 74.7869 415.166 70.8022 417.313 70.8022C419.46 70.8022 423.611 79.9581 424.687 85.2723C425.762 90.5865 427.635 99.0042 424.687 105.795C421.738 112.585 416.936 116.717 412.8 118.324C412.8 118.296 410.375 113.419 404.708 114.335Z" fill="#556058" stroke="black" stroke-width="1.77" stroke-miterlimit="10"/>
<path d="M400.972 98.4088C400.972 98.4088 402.933 91.7095 408.715 87.8916C414.497 84.0737 415.355 78.8667 415.355 78.8667C415.355 78.8667 415.406 71.4451 416.462 71.7785C417.518 72.1119 423.046 79.7517 422.443 87.5582C422.125 91.658 423.014 96.4998 420.232 100.016C418.101 102.707 416.823 101.262 408.163 105.886C405.806 107.144 404.591 107.942 403.401 107.378C400.829 106.172 400.908 100.175 400.972 98.4088Z" fill="#728B6F"/>
<path d="M403.766 95.0277C404.02 94.7499 404.238 90.9676 409.532 88.0863C414.827 85.205 415.835 78.6764 415.835 78.6764C415.835 78.6764 416.672 74.4299 417.478 78.6764C418.283 82.923 418.851 87.0902 415.533 90.3366C414.694 91.1784 413.718 91.8721 412.648 92.3885C411.08 93.0447 409.417 93.4466 407.723 93.5791C406.842 93.6505 405.873 93.6585 404.945 94.2419C404.706 94.3927 403.754 95.0356 403.754 95.0356L403.766 95.0277Z" fill="#91B17B"/>
<path d="M454.276 171.358L450.835 183.515C450.744 183.832 450.498 190.472 450.498 190.472L451.883 193.385C452.28 194.179 457.082 196.957 457.4 196.786C457.717 196.616 467.536 192.615 467.536 192.615C467.536 192.615 475.342 185.32 475.592 185.174C475.842 185.027 477.918 180.868 477.918 180.868C477.918 180.868 469.365 175.553 468.79 175.355C468.215 175.156 454.276 171.358 454.276 171.358Z" fill="#A23D2E"/>
<path d="M451.912 189.04C451.912 189.04 461.759 181.297 469.728 188.44C468.092 189.603 466.386 190.663 464.62 191.615C462.661 192.622 460.593 193.401 458.457 193.937C457.581 194.184 456.652 194.169 455.786 193.893C455.51 193.785 455.244 193.652 454.992 193.497C454.118 192.982 453.39 192.252 452.877 191.377C452.423 190.659 452.096 189.869 451.912 189.04Z" fill="#D44E28"/>
<path d="M435.688 143.244C437.974 133.084 445.03 128.258 448.828 129.659C452.162 130.889 454.615 137.521 453.384 145.308" stroke="black" stroke-width="9.75" stroke-miterlimit="10" stroke-linecap="round"/>
<path d="M492.939 154.4C495.229 144.24 502.286 139.414 506.08 140.819C509.414 142.045 511.87 148.677 510.64 156.468" stroke="black" stroke-width="9.75" stroke-miterlimit="10" stroke-linecap="round"/>
<path d="M478.291 173.839C478.818 174.64 479.275 175.484 479.657 176.363C480.28 177.792 481.014 179.538 480.804 181.681C480.762 182.041 480.701 182.399 480.621 182.753C479.649 186.864 474.922 191.563 474.37 192.103C471.195 195.203 469.632 196.754 467.5 197.937C464.913 199.382 461.813 201.112 457.88 200.434C455.83 200.042 453.91 199.148 452.291 197.832C450.671 196.516 449.404 194.819 448.601 192.893C447.561 190.341 447.605 187.908 447.641 186.027C447.692 183.046 448.335 180.832 448.95 178.772C449.725 176.187 450.79 173.699 452.125 171.354L455.118 173.315C455.118 173.315 452.221 181.562 451.943 184.487C451.725 186.868 451.419 189.833 453.133 191.968C454.491 193.667 456.455 194.028 457.376 194.127C461.604 193.219 465.599 191.449 469.112 188.928C471.144 187.452 474.073 185.293 476.077 181.233C476.363 180.657 476.628 180.042 476.628 180.042C477.456 178.057 478.015 175.971 478.291 173.839Z" fill="#FA8510" stroke="black" stroke-width="1.77" stroke-miterlimit="10"/>
<path d="M475.092 163.945C473.619 161.889 471.762 160.137 469.623 158.786C469.623 158.786 462.114 153.229 452.903 155.301C450.795 155.781 447.263 156.575 446.112 159.508C445.243 161.711 446.112 164.064 446.477 165.032C448.172 169.474 452.129 171.779 458.296 174.51C470.353 179.848 476.386 182.515 478.537 180.015C481.148 176.998 478.565 168.791 475.092 163.945Z" fill="#FA8510" stroke="black" stroke-width="2.66" stroke-miterlimit="10"/>
<path d="M514.265 192.85C520.196 192.85 525.004 187.554 525.004 181.023C525.004 174.491 520.196 169.196 514.265 169.196C508.334 169.196 503.525 174.491 503.525 181.023C503.525 187.554 508.334 192.85 514.265 192.85Z" fill="#F4A127" stroke="black" stroke-miterlimit="10"/>
<path d="M430.658 181.606C435.311 181.606 439.084 177.451 439.084 172.327C439.084 167.202 435.311 163.048 430.658 163.048C426.005 163.048 422.232 167.202 422.232 172.327C422.232 177.451 426.005 181.606 430.658 181.606Z" fill="#F4A127" stroke="black" stroke-miterlimit="10"/>
<path d="M627.115 394.434L581.979 376.265L610.411 360.366L680.84 365.248L627.115 394.434Z" fill="#090110"/>
<path d="M580.412 372.57C580.412 372.57 635.998 365.383 643.777 359.87L674.337 363.74C658.12 375.074 649.377 379.555 644.321 381.432C643.13 381.873 638.832 383.417 632.649 385.854C625.676 388.632 625.731 388.834 624.314 389.171C617.667 390.759 612.301 387.187 603.193 382.536C595.798 378.778 588.191 375.45 580.412 372.57Z" fill="#F2902F" stroke="#090110" stroke-width="2.61" stroke-miterlimit="10"/>
<path d="M584.475 372.658C584.475 372.658 632.278 366.125 638.974 361.125L665.266 364.633C665.266 364.633 639.47 387.199 623.674 385.695C607.878 384.191 584.475 372.658 584.475 372.658Z" fill="#F2DBC4" stroke="#090110" stroke-width="2.61" stroke-miterlimit="10"/>
<path d="M669.336 360.267C669.336 360.267 621.246 363.771 613.741 360.239L588.623 369.121C588.623 369.121 618.178 385.901 633.359 381.163C648.539 376.424 669.336 360.267 669.336 360.267Z" fill="#EA9C4E" stroke="#090110" stroke-width="2.61" stroke-miterlimit="10"/>
<path d="M665.017 360.394C665.017 360.394 616.928 363.898 609.423 360.366L584.309 369.252C584.309 369.252 613.86 386.032 629.04 381.289C644.221 376.547 665.017 360.394 665.017 360.394Z" fill="#FDCB93" stroke="#090110" stroke-width="2.61" stroke-miterlimit="10"/>
<path d="M192.338 279.678L358.196 267.509L328.621 110.081C328.08 107.249 326.552 104.7 324.309 102.889C322.065 101.077 319.252 100.12 316.37 100.187L167.903 103.326C167.244 103.338 166.596 103.491 166.001 103.776C165.407 104.061 164.882 104.47 164.46 104.976C164.038 105.482 163.73 106.073 163.557 106.709C163.384 107.345 163.35 108.01 163.458 108.66C173.086 165.667 182.713 222.673 192.338 279.678Z" fill="#FFE6AC" stroke="black" stroke-width="3" stroke-miterlimit="10"/>
<path d="M214.585 106.779L263.96 106.275C264.332 106.272 264.699 106.185 265.034 106.023C265.368 105.86 265.663 105.624 265.895 105.334C266.128 105.043 266.293 104.704 266.378 104.342C266.463 103.98 266.467 103.603 266.389 103.239C265.346 98.3653 264.301 93.4931 263.253 88.6221C263.132 88.0606 262.822 87.5575 262.375 87.1965C261.928 86.8355 261.371 86.6383 260.797 86.6377H212.116C211.753 86.6382 211.394 86.7176 211.064 86.8704C210.734 87.0232 210.441 87.2458 210.206 87.5227C209.97 87.7997 209.798 88.1244 209.7 88.4746C209.602 88.8247 209.582 89.1919 209.64 89.5508L212.08 104.668C212.176 105.261 212.482 105.8 212.941 106.188C213.401 106.575 213.984 106.785 214.585 106.779Z" fill="#DC8437" stroke="black" stroke-width="2" stroke-miterlimit="10"/>
<path d="M336.71 257.179L207.154 266.462C205.205 266.602 203.274 266.011 201.737 264.805C200.2 263.599 199.167 261.863 198.839 259.937L175.309 121.253C175.121 120.149 175.171 119.018 175.456 117.935C175.74 116.852 176.253 115.843 176.959 114.974C177.666 114.105 178.55 113.397 179.552 112.898C180.554 112.398 181.651 112.118 182.77 112.077L312.235 107.362C314.128 107.292 315.984 107.908 317.459 109.098C318.935 110.287 319.931 111.97 320.263 113.835C328.143 158.55 336.018 203.265 343.889 247.979C344.08 249.063 344.041 250.174 343.775 251.241C343.509 252.308 343.022 253.308 342.345 254.175C341.668 255.042 340.817 255.758 339.846 256.275C338.876 256.793 337.807 257.1 336.71 257.179Z" fill="#629F92"/>
<path d="M282.184 245.122L285.045 228.195L297.086 219.718C297.086 219.718 303.476 225.869 303.516 227.139C303.555 228.409 330.979 246.92 330.979 246.92C330.979 246.92 337.818 257.238 334.325 257.349C330.833 257.461 296.451 260.064 296.451 260.064L285.894 255.488L282.184 245.122Z" fill="#544C78"/>
<path d="M250.264 155.281C250.264 155.281 258.598 152.475 258.483 149.145C258.368 145.816 235.897 122.698 235.897 122.698C235.897 122.698 226.304 115.697 230.126 126.055C233.948 136.414 242.505 150.919 242.505 150.919C242.505 150.919 246.616 155.384 250.264 155.281Z" fill="#FFB02B"/>
<path d="M280.811 192.119C278.485 194.461 274.675 197.997 268.988 199.957C262.388 202.227 258.114 202.68 253.319 201.719C248.525 200.759 247.485 203.017 243.568 204.728C239.651 206.438 230.543 209.756 228.638 209.804C226.733 209.851 216.208 208.45 213.989 198.517C211.771 188.583 219.748 184.832 223.185 182.975C224.903 182.05 227.285 179.51 229.237 177.208C230.761 175.407 231.968 173.887 232.714 172.843C236.562 168.555 241.087 164.928 246.108 162.103C253.649 157.897 256.51 158.928 261.872 154.214C265.793 150.773 267.75 147.173 270.54 147.669C273.195 148.141 274.485 151.959 275.088 151.638C275.691 151.316 273.897 147.868 273.6 142.351C273.531 141.055 273.544 139.756 273.64 138.462C273.913 134.66 274.001 132.31 274.913 131.973C276.43 131.413 280.406 136.338 282.772 142.026C286.451 150.904 283.633 155.452 287.308 161.417C289.421 164.675 290.933 168.285 291.773 172.077C292.678 176.136 293.169 180.277 293.237 184.436C293.237 194.651 287.284 213.804 285.649 234.688C285.129 241.391 285.141 247.491 289.022 252.639C291.358 255.721 294.62 257.974 298.329 259.068L245.592 263.707C245.592 263.707 239.103 249.182 244.755 237.252C250.406 225.322 255.57 217.69 257.487 213.042C259.404 208.395 259.209 202.172 259.209 202.172" fill="#F66C37"/>
<path d="M241.286 153.023C240.659 154.868 238.837 161.258 232.555 165.608C229.499 167.704 225.96 168.991 222.271 169.346C222.271 169.346 229.812 181.816 246.56 163.973C246.56 163.973 261.975 169.203 270.4 149.403C270.4 149.403 275.266 145.038 272.238 142.196C269.21 139.354 261.201 140.005 258.22 141.053C255.24 142.101 242.254 150.225 241.286 153.023Z" fill="#6D4B77"/>
<path d="M276.608 154.448C276.608 154.448 267.083 149.983 268.718 135.957C270.353 121.932 276.517 126.341 277.989 127.722C279.461 129.103 287.343 137.275 289.038 145.637C290.733 153.999 287.514 162.762 286.006 162.81C284.498 162.858 283.045 163.377 282.982 161.433C282.918 159.488 284.2 150.32 282.303 146.748C280.406 143.177 276.171 135.564 276.171 135.564C276.171 135.564 274.493 134.31 274.584 137.255C274.675 140.2 275.882 149.161 276.275 150.3C276.667 151.439 277.104 153.916 276.608 154.448Z" fill="#574B6F"/>
<path d="M289.193 163.342C289.193 163.342 314.311 188.877 300.476 215.043C286.641 241.209 282.811 232.874 279.465 243.82C276.12 254.766 278.35 261.362 278.35 261.362C276.719 260.322 266.202 253.377 264.964 241.062C264.003 231.501 269.171 224.02 271.012 221.349C274.584 216.19 276.568 216.432 281.728 210.391C283.391 208.466 289.32 201.577 292.027 193.226C296.134 180.614 291.602 168.592 289.193 163.342Z" fill="#A25379"/>
<path d="M303.464 207.435C303.464 207.435 303.365 223.647 320.697 232.989C320.697 232.989 332.067 242.276 334.147 251.504C334.147 251.504 330.15 245.673 317.446 243.217C304.742 240.76 297.809 230.723 298.361 218.916L303.464 207.435Z" fill="#54A188"/>
<path d="M288.858 144.863C288.858 144.863 312.782 148.304 322.319 176.891C322.319 176.891 323.795 187.742 320.656 197.731C317.516 207.72 317.084 212.257 318.842 215.773C320.6 219.289 324.521 223.992 329.188 219.019C329.188 219.019 329.942 227.814 320.66 228.104C318.03 228.215 315.42 227.594 313.122 226.31C310.825 225.025 308.929 223.128 307.646 220.829C307.646 220.829 304.443 215.174 304.122 212.165C303.8 209.157 303.511 207.256 303.511 207.256C303.511 207.256 305.495 200.414 304.614 197.374C303.733 194.334 304.273 191.024 302.542 185.749C300.812 180.475 297.03 173.811 297.03 173.811L289.441 163.322L287.457 161.028C287.457 161.028 291.136 150.65 288.858 144.863Z" fill="#E65327"/>
<path d="M265.743 185.542C270.976 181.235 272.372 174.286 268.862 170.022C265.351 165.757 258.264 165.792 253.031 170.099C247.798 174.406 246.402 181.355 249.913 185.62C253.423 189.884 260.511 189.85 265.743 185.542Z" fill="#F0A201"/>
<path d="M259.581 186.793C262.847 186.793 265.495 184.146 265.495 180.88C265.495 177.614 262.847 174.966 259.581 174.966C256.315 174.966 253.668 177.614 253.668 180.88C253.668 184.146 256.315 186.793 259.581 186.793Z" fill="#3B4660"/>
<path d="M221.799 199.497C221.799 199.497 220.561 195.449 223.633 192.175C226.705 188.901 229.078 188.508 230.57 189.913C232.063 191.318 230.741 192.846 228.515 195.219C227.129 196.752 226.101 198.574 225.506 200.553C225.506 200.553 223.661 201.243 221.799 199.497Z" fill="#975987"/>
<path d="M196.017 165.282L197.279 167.664C197.354 167.802 197.462 167.921 197.592 168.009C197.723 168.098 197.873 168.153 198.029 168.172L200.692 168.469C200.872 168.491 201.042 168.561 201.184 168.674C201.325 168.787 201.433 168.937 201.494 169.107C201.555 169.277 201.567 169.461 201.529 169.638C201.491 169.815 201.405 169.978 201.28 170.108L199.422 172.041C199.313 172.154 199.232 172.292 199.188 172.442C199.144 172.593 199.137 172.752 199.168 172.906L199.704 175.534C199.739 175.711 199.725 175.894 199.662 176.063C199.599 176.233 199.49 176.381 199.347 176.492C199.205 176.603 199.034 176.672 198.855 176.691C198.675 176.71 198.494 176.679 198.331 176.601L195.918 175.411C195.777 175.342 195.621 175.309 195.464 175.315C195.306 175.32 195.153 175.364 195.017 175.442L192.683 176.764C192.526 176.854 192.346 176.897 192.165 176.89C191.984 176.882 191.809 176.824 191.659 176.722C191.51 176.62 191.392 176.478 191.319 176.312C191.246 176.146 191.221 175.963 191.247 175.784L191.616 173.129C191.637 172.973 191.621 172.814 191.567 172.666C191.514 172.518 191.426 172.386 191.31 172.279L189.326 170.47C189.193 170.347 189.097 170.189 189.049 170.015C189.001 169.841 189.002 169.657 189.053 169.483C189.103 169.31 189.202 169.154 189.336 169.033C189.47 168.912 189.636 168.831 189.814 168.799L192.453 168.33C192.608 168.303 192.754 168.238 192.878 168.141C193.002 168.044 193.1 167.919 193.164 167.775L194.275 165.338C194.349 165.172 194.468 165.03 194.619 164.928C194.77 164.827 194.947 164.77 195.129 164.764C195.31 164.758 195.49 164.804 195.647 164.896C195.805 164.987 195.933 165.121 196.017 165.282Z" fill="#F5A81C"/>
<path d="M220.716 140.7L221.641 141.391C221.697 141.434 221.762 141.462 221.831 141.473C221.901 141.484 221.972 141.478 222.038 141.454L223.129 141.089C223.203 141.064 223.283 141.061 223.359 141.079C223.435 141.097 223.504 141.136 223.559 141.191C223.614 141.246 223.653 141.315 223.671 141.391C223.689 141.467 223.686 141.547 223.661 141.621L223.284 142.712C223.261 142.778 223.255 142.849 223.265 142.918C223.275 142.987 223.302 143.053 223.344 143.109L224.03 144.034C224.077 144.096 224.105 144.171 224.112 144.248C224.119 144.326 224.103 144.404 224.068 144.474C224.032 144.543 223.978 144.601 223.911 144.642C223.844 144.682 223.767 144.702 223.689 144.701H222.534C222.466 144.698 222.399 144.712 222.339 144.743C222.278 144.774 222.227 144.819 222.189 144.875L221.518 145.816C221.473 145.879 221.411 145.929 221.339 145.959C221.267 145.989 221.189 145.998 221.112 145.986C221.035 145.974 220.963 145.94 220.904 145.889C220.846 145.838 220.803 145.771 220.78 145.697L220.438 144.589C220.42 144.524 220.385 144.465 220.337 144.417C220.289 144.369 220.23 144.334 220.165 144.316L219.065 143.97C218.99 143.948 218.923 143.904 218.872 143.845C218.82 143.786 218.786 143.713 218.774 143.635C218.762 143.558 218.773 143.479 218.804 143.407C218.835 143.334 218.885 143.273 218.95 143.228L219.895 142.565C219.95 142.526 219.994 142.474 220.025 142.414C220.056 142.354 220.073 142.288 220.073 142.22V141.065C220.062 140.986 220.074 140.906 220.11 140.834C220.145 140.762 220.201 140.703 220.27 140.663C220.34 140.624 220.419 140.606 220.499 140.613C220.578 140.619 220.654 140.65 220.716 140.7Z" fill="#F5A81C"/>
<path d="M295.853 122.115L298.77 124.309C298.938 124.435 299.134 124.518 299.341 124.552C299.548 124.586 299.761 124.569 299.96 124.504L303.421 123.345C303.655 123.266 303.906 123.255 304.146 123.311C304.387 123.368 304.606 123.491 304.78 123.666C304.954 123.842 305.075 124.062 305.13 124.302C305.185 124.543 305.172 124.794 305.092 125.028L303.901 128.477C303.831 128.68 303.812 128.896 303.844 129.109C303.877 129.321 303.96 129.522 304.088 129.695L306.263 132.624C306.409 132.822 306.497 133.057 306.517 133.303C306.537 133.549 306.488 133.795 306.375 134.014C306.263 134.233 306.091 134.417 305.88 134.543C305.668 134.67 305.426 134.735 305.179 134.731L301.528 134.676C301.314 134.672 301.103 134.72 300.912 134.816C300.721 134.912 300.556 135.053 300.433 135.227L298.313 138.2C298.171 138.402 297.975 138.559 297.747 138.655C297.52 138.751 297.27 138.781 297.027 138.741C296.783 138.702 296.555 138.595 296.37 138.433C296.184 138.27 296.047 138.059 295.976 137.823L294.904 134.334C294.841 134.13 294.73 133.943 294.579 133.791C294.428 133.639 294.243 133.526 294.039 133.461L290.586 132.366C290.351 132.292 290.141 132.154 289.98 131.967C289.819 131.78 289.714 131.552 289.676 131.309C289.638 131.065 289.669 130.816 289.765 130.589C289.861 130.362 290.019 130.166 290.221 130.024L293.209 127.929C293.384 127.805 293.526 127.641 293.624 127.45C293.721 127.259 293.771 127.048 293.769 126.833L293.737 123.186C293.734 122.939 293.801 122.697 293.929 122.486C294.057 122.275 294.241 122.104 294.461 121.992C294.682 121.881 294.929 121.833 295.175 121.855C295.42 121.876 295.655 121.966 295.853 122.115Z" fill="#F5A81C"/>
<path d="M207.872 123.027C196.863 125.936 190.33 137.406 193.311 148.146C196.355 159.107 208.277 165.564 219.342 161.973C218.58 161.782 206.531 158.5 202.618 146.372C201.34 142.365 201.154 138.089 202.077 133.986C203.001 129.883 205.001 126.101 207.872 123.027Z" fill="#FAC563"/>
<path d="M197.748 198.025C198.966 198.025 199.954 197.037 199.954 195.818C199.954 194.599 198.966 193.611 197.748 193.611C196.529 193.611 195.541 194.599 195.541 195.818C195.541 197.037 196.529 198.025 197.748 198.025Z" fill="#1D705C"/>
<path d="M221.076 133.477C222.294 133.477 223.282 132.489 223.282 131.27C223.282 130.051 222.294 129.063 221.076 129.063C219.857 129.063 218.869 130.051 218.869 131.27C218.869 132.489 219.857 133.477 221.076 133.477Z" fill="#1D705C"/>
<path d="M310.23 117.872C311.449 117.872 312.437 116.884 312.437 115.665C312.437 114.446 311.449 113.458 310.23 113.458C309.011 113.458 308.023 114.446 308.023 115.665C308.023 116.884 309.011 117.872 310.23 117.872Z" fill="#1D705C"/>
<path d="M275.925 118.955C277.144 118.955 278.132 117.967 278.132 116.749C278.132 115.53 277.144 114.542 275.925 114.542C274.707 114.542 273.719 115.53 273.719 116.749C273.719 117.967 274.707 118.955 275.925 118.955Z" fill="#1D705C"/>
<defs>
<linearGradient id="paint0_linear_697_3020" x1="0" y1="356" x2="746" y2="356" gradientUnits="userSpaceOnUse">
<stop stop-color="#1F8BF7"/>
<stop offset="1" stop-color="#DC33FC"/>
</linearGradient>
</defs>
</svg>
