<svg width="1444" height="472" viewBox="0 0 1444 472" fill="none" xmlns="http://www.w3.org/2000/svg">
<path d="M1444 352H0V472H1444V352Z" fill="url(#paint0_linear_633_3579)"/>
<path d="M606.975 341.805C606.975 341.805 609.737 359.417 613.071 362.749C616.405 366.081 622.977 357.037 622.977 354.562C622.977 352.087 619.358 331.523 606.975 341.805Z" fill="#0D3E66" stroke="black" stroke-width="4" stroke-miterlimit="10"/>
<path d="M616.215 218.804L626.14 220.413L623.073 229.752L615.167 227.753C615.167 227.753 610.499 222.436 616.215 218.804Z" fill="black" stroke="black" stroke-width="3" stroke-miterlimit="10"/>
<path d="M729.553 449.016C695.634 449.016 663.752 446.536 639.772 442.028C616.321 437.625 602.871 431.613 602.871 425.53C602.871 419.446 616.321 413.439 639.772 409.031C663.752 404.528 695.634 402.048 729.553 402.048C763.473 402.048 795.354 404.528 819.334 409.031C842.786 413.439 856.236 419.451 856.236 425.53C856.236 431.608 842.786 437.625 819.334 442.028C795.354 446.55 763.473 449.016 729.553 449.016Z" fill="#090110"/>
<path d="M729.552 402.448C763.448 402.448 795.306 404.923 819.262 409.426C830.874 411.606 839.975 414.139 846.324 416.957C852.558 419.727 855.849 422.697 855.849 425.525C855.849 428.352 852.553 431.346 846.324 434.093C839.975 436.911 830.874 439.443 819.262 441.623C795.306 446.122 763.448 448.602 729.552 448.602C695.657 448.602 663.799 446.16 639.843 441.666C628.231 439.486 619.13 436.954 612.781 434.136C606.547 431.366 603.256 428.395 603.256 425.568C603.256 422.74 606.547 419.751 612.781 417C619.13 414.182 628.231 411.649 639.843 409.469C663.799 404.966 695.657 402.491 729.552 402.491M729.552 401.72C659.374 401.72 602.484 412.406 602.484 425.587C602.484 438.767 659.374 449.454 729.552 449.454C799.73 449.454 856.62 438.772 856.62 425.587C856.62 412.401 799.73 401.72 729.552 401.72Z" fill="#090110"/>
<path d="M645.553 297.25C645.553 297.25 619.549 286.778 624.883 254.41C624.883 254.41 613.452 99.8022 746.045 124.174C746.045 124.174 742.33 109.703 744.807 109.703C747.283 109.703 754.332 120.556 754.332 120.556C754.332 120.556 756.332 124.459 758.238 120.556C760.143 116.653 760.143 112.178 760.143 112.178C760.143 112.178 761.476 108.085 763.381 113.987C764.528 117.431 764.661 121.133 763.762 124.65L763.381 126.935C763.381 126.935 771.192 119.985 774.05 121.603C776.907 123.222 774.431 125.697 774.431 125.697L770.335 131.219C781.998 136.293 798.768 145.942 811.865 163.873C829.901 188.573 830.059 214.054 830.221 240.129C830.306 254.091 828.544 265.001 822.6 275.44C819.79 280.34 816.276 284.801 812.17 288.682C812.17 288.682 857.692 333.679 847.142 389.896C846.462 393.527 845.567 397.114 844.461 400.639L847.747 390.5C847.747 390.5 866.179 386.002 860.035 400.211C853.891 414.42 832.316 427.201 824.315 430.842C822.51 431.666 820.305 432.818 817.171 434.065C784.423 447.031 733.005 441.114 729.123 440.624C683.03 434.826 659.984 431.927 646.062 417.966C626.192 398.05 624.602 370.932 624.154 363.32C622.073 328.377 640.419 303.71 645.553 297.25Z" fill="#0D3E66" stroke="black" stroke-width="5" stroke-miterlimit="10"/>
<path d="M736.854 441.4L771.993 442.167C771.993 442.167 812.704 422.917 800.702 376.792C788.7 330.667 782.899 312.673 770.083 302.82C776.122 299.665 781.751 295.78 786.843 291.253C790.429 288.059 797.53 281.733 802.131 272.974C810.494 257.028 806.894 239.996 805.131 233.466C805.131 233.466 804.56 196.861 777.127 182.295C773.598 180.424 764.601 175.669 753.39 177.23C737.783 179.401 728.586 192.329 721.509 202.278C710.735 217.429 706.906 233.071 705.482 243.914C705.482 243.914 701.258 193.148 681.254 180.153C661.251 167.158 638.752 183.737 628.865 203.725C628.865 203.725 623.188 237.997 624.65 248.408L624.407 257.899C624.407 257.899 624.15 266.201 624.502 268.428C624.855 270.656 628.07 280.752 629.508 282.932C630.946 285.113 637.09 291.805 637.09 291.805L645.544 297.251C645.544 297.251 617.373 332.366 624.741 370.789C632.108 409.213 644.787 416.695 644.787 416.695C648.066 419.901 651.692 422.732 655.598 425.135C665.89 431.456 675.43 433.08 682.197 434.179C703.82 437.626 722.68 439.906 736.854 441.4Z" fill="#BAEAFF" stroke="black" stroke-width="3" stroke-linejoin="round"/>
<path d="M609.547 324.669C609.547 324.669 602.688 309.546 618.977 308.118C635.265 306.69 746.426 312.402 746.426 312.402C746.426 312.402 759.761 311.736 763.762 323.921C767.762 336.107 781.955 389.515 781.955 389.515C781.955 389.515 788.813 405.89 771.858 409.412C754.903 412.935 669.461 403.129 669.461 403.129C669.461 403.129 634.312 409.127 628.597 390.086L622.882 371.046L609.547 324.669Z" fill="#424242" stroke="black" stroke-miterlimit="10"/>
<path d="M794.244 317.243C784.748 328.262 773.24 337.373 760.334 344.09C758.872 344.961 755.828 347.065 755.061 350.563C753.975 355.533 758.224 359.969 760.334 362.178C768.868 371.103 784.861 375.359 799.516 371.698C814.795 367.89 823.439 356.804 826.249 352.824" fill="#0D3E66"/>
<path d="M826.671 353.148C826.671 353.148 826.419 353.576 825.895 354.371C825.371 355.166 824.576 356.323 823.457 357.756C820.258 361.821 816.424 365.345 812.102 368.19C809.068 370.174 805.798 371.773 802.368 372.95C798.401 374.293 794.264 375.065 790.08 375.244L788.413 375.311L786.722 375.277C785.589 375.277 784.45 375.163 783.293 375.068C782.712 375.035 782.136 374.939 781.555 374.859L779.807 374.601L778.059 374.235L777.178 374.049C776.883 373.983 776.597 373.897 776.301 373.816L774.544 373.34C773.958 373.164 773.382 372.95 772.796 372.755C771.62 372.383 770.486 371.845 769.324 371.369C766.994 370.288 764.777 368.978 762.704 367.461C760.655 365.902 758.78 364.126 757.113 362.163C755.474 360.231 753.931 358.022 753.16 355.318C752.763 353.938 752.653 352.492 752.836 351.068C753.026 349.67 753.513 348.329 754.265 347.136C754.97 346.042 755.841 345.064 756.846 344.237C757.773 343.462 758.79 342.802 759.875 342.271C766.544 339.06 772.919 335.271 778.926 330.947C783.003 328.002 786.905 324.824 790.613 321.427C791.933 320.218 792.942 319.256 793.619 318.599L794.652 317.595C794.652 317.595 794.347 317.985 793.776 318.737C793.204 319.489 792.347 320.575 791.166 321.945C787.867 325.829 784.285 329.463 780.45 332.817C777.792 335.143 775.02 337.334 772.144 339.382C770.586 340.486 768.953 341.59 767.229 342.676C766.371 343.213 765.49 343.756 764.59 344.285L763.223 345.079L761.856 345.846C760.3 346.671 758.987 347.889 758.046 349.378C757.641 350.065 757.389 350.832 757.307 351.625C757.225 352.419 757.314 353.22 757.57 353.976C758.079 355.647 759.246 357.36 760.68 358.988C762.143 360.667 763.772 362.193 765.543 363.544C767.349 364.866 769.271 366.023 771.286 367C772.315 367.433 773.306 367.952 774.354 368.285C774.868 368.475 775.378 368.68 775.901 368.851L777.468 369.327C777.73 369.403 777.983 369.494 778.249 369.561L779.035 369.756L780.607 370.141L782.183 370.432C782.707 370.527 783.226 370.636 783.75 370.689C784.798 370.817 785.832 370.974 786.865 371.022L788.403 371.131H789.932C797.207 371.227 804.389 369.497 810.821 366.1C813.33 364.776 815.72 363.239 817.965 361.506C819.683 360.189 821.316 358.766 822.857 357.246C824.128 355.985 825.076 354.957 825.714 354.238C826.352 353.519 826.671 353.148 826.671 353.148Z" fill="black" stroke="black" stroke-width="0.33" stroke-miterlimit="10"/>
<path d="M625.834 326.382C625.834 326.382 623.358 323.145 628.501 322.479C633.645 321.812 734.899 327.239 734.899 327.239C734.899 327.239 739.186 326.572 740.329 331.808C741.472 337.044 755.569 390.357 755.569 390.357C755.569 390.357 757.284 394.641 752.521 394.641C747.759 394.641 657.363 388.834 657.363 388.834L649.933 387.882C649.933 387.882 644.694 388.358 643.17 382.932C641.646 377.505 632.026 347.15 632.026 347.15L625.834 326.382Z" fill="#191919" stroke="black" stroke-width="3" stroke-miterlimit="10"/>
<path d="M690.555 233.465C690.555 233.465 703.085 222.136 714.42 233.465" stroke="black" stroke-width="9" stroke-miterlimit="10"/>
<path d="M784.055 226.478C790.37 225.016 795.29 223.622 798.571 222.631C803.091 221.265 806.668 220.023 811.164 221.056C811.55 221.146 816.107 222.232 816.15 223.912C816.179 224.978 814.388 225.911 812.912 226.478C805.101 229.467 785.931 233.465 785.931 233.465L784.055 226.478Z" fill="black" stroke="black" stroke-width="3.48" stroke-miterlimit="10"/>
<path d="M665.486 259.55C669.628 259.55 672.987 255.299 672.987 250.054C672.987 244.809 669.628 240.558 665.486 240.558C661.343 240.558 657.984 244.809 657.984 250.054C657.984 255.299 661.343 259.55 665.486 259.55Z" fill="black" stroke="black" stroke-width="3.87" stroke-miterlimit="10"/>
<path d="M747.384 260.693C751.527 260.693 754.885 256.441 754.885 251.197C754.885 245.952 751.527 241.7 747.384 241.7C743.241 241.7 739.883 245.952 739.883 251.197C739.883 256.441 743.241 260.693 747.384 260.693Z" fill="black" stroke="black" stroke-width="3.87" stroke-miterlimit="10"/>
<path d="M645.277 281.399C652.581 281.399 658.503 275.159 658.503 267.462C658.503 259.764 652.581 253.524 645.277 253.524C637.972 253.524 632.051 259.764 632.051 267.462C632.051 275.159 637.972 281.399 645.277 281.399Z" fill="#F4A127" stroke="black" stroke-width="2" stroke-miterlimit="10"/>
<path d="M770.101 283.97C777.405 283.97 783.327 277.73 783.327 270.032C783.327 262.335 777.405 256.095 770.101 256.095C762.796 256.095 756.875 262.335 756.875 270.032C756.875 277.73 762.796 283.97 770.101 283.97Z" fill="#F4A127" stroke="black" stroke-width="2" stroke-miterlimit="10"/>
<path d="M715.944 265.644C715.944 265.644 694.512 275.259 685.558 269.356C676.604 263.454 678.619 256.366 681.462 253.524C684.305 250.683 692.226 241.367 701.37 243.081C703.094 243.405 706.738 243.628 710.114 246.246C715.334 250.292 717.492 257.77 715.944 265.644Z" fill="#FA8510" stroke="black" stroke-width="2" stroke-miterlimit="10"/>
<path d="M695.718 275.402C695.718 275.402 707.149 279.686 712.864 271.974L715.631 265.786C715.631 265.786 701.343 272.688 691.499 271.189C691.484 271.189 691.737 273.545 695.718 275.402Z" fill="#FA8510" stroke="black" stroke-width="2" stroke-miterlimit="10"/>
<path d="M665.485 437.911C660.246 442.562 641.267 434.469 631.408 420.061C626.141 412.364 621.997 400.706 625.693 397.403C628.155 395.208 634.304 396.508 637.685 399.426C640.019 401.444 641.705 404.814 641.629 404.881C641.553 404.947 641.472 404.852 641.472 404.852C641.472 404.852 637.4 392 643.377 392.357C648.835 392.681 653.916 398.069 654.807 399.069C659.055 403.829 660.851 408.237 664.38 416.886C666.509 422.122 666.995 424.302 667.209 426.406C667.562 429.571 668.157 435.536 665.485 437.911Z" fill="#FA8510" stroke="black" stroke-width="2" stroke-miterlimit="10"/>
<path d="M754.142 446.907C754.142 446.907 739.949 442.909 732.519 426.724C725.089 410.54 729.138 403.733 730.043 402.829C730.947 401.924 733.186 398.925 738.806 401.924C744.426 404.923 744.426 410.164 744.426 410.164C744.489 408.268 744.752 406.383 745.212 404.542C745.397 403.833 747.117 399.782 750.141 398.925C754.194 397.783 758.685 403.033 760.39 405.033C766.868 412.601 767.572 421.655 767.901 426.82C768.377 434.179 768.773 440.462 764.419 444.232C761.028 447.164 756.433 447.112 754.142 446.907Z" fill="#FA8510" stroke="black" stroke-width="2" stroke-miterlimit="10"/>
<path d="M656.002 273.83C675.082 273.83 690.55 257.122 690.55 236.511C690.55 215.901 675.082 199.192 656.002 199.192C636.921 199.192 621.453 215.901 621.453 236.511C621.453 257.122 636.921 273.83 656.002 273.83Z" stroke="black" stroke-width="9" stroke-miterlimit="10"/>
<path d="M750.428 276.049C770.313 276.049 786.433 259.703 786.433 239.539C786.433 219.375 770.313 203.029 750.428 203.029C730.542 203.029 714.422 219.375 714.422 239.539C714.422 259.703 730.542 276.049 750.428 276.049Z" stroke="black" stroke-width="9" stroke-miterlimit="10"/>
<path d="M1070.67 392.838C1068.55 392.838 1066.39 392.777 1064.23 392.653C1061.23 391.901 1060.51 391.082 1060.42 390.53C1060.24 389.23 1063.07 386.131 1083.97 380.005C1100.1 375.269 1124.83 369.352 1157.45 362.393H1157.5C1157.96 362.226 1158.44 362.137 1158.93 362.131C1159.37 362.116 1159.81 362.237 1160.19 362.479C1160.69 362.835 1161.03 363.368 1161.14 363.969C1161.47 366.529 1149.97 370.756 1140.73 374.155L1140.48 374.246C1130.93 377.759 1126.14 379.52 1125.2 379.834C1104.85 386.774 1093.64 390.592 1086.02 391.734C1080.95 392.478 1075.83 392.851 1070.7 392.848L1070.67 392.838Z" fill="#090110"/>
<path d="M1158.9 362.516C1159.27 362.502 1159.63 362.6 1159.95 362.797C1160.35 363.095 1160.62 363.531 1160.71 364.02C1160.75 364.335 1160.46 365.544 1155.07 368.062C1151.4 369.775 1146.53 371.594 1140.55 373.774C1130.84 377.344 1125.97 379.134 1125.03 379.453C1104.7 386.383 1093.5 390.196 1085.92 391.32C1080.86 392.064 1075.76 392.436 1070.65 392.433C1068.54 392.433 1066.39 392.367 1064.27 392.248C1061.08 391.443 1060.82 390.615 1060.79 390.453C1060.77 390.291 1060.87 388.992 1066.03 386.617C1069.95 384.813 1076.03 382.704 1084.05 380.348C1100.18 375.621 1124.89 369.704 1157.51 362.764H1157.55H1157.6C1158.01 362.613 1158.45 362.531 1158.88 362.521M1158.88 361.755C1158.36 361.765 1157.84 361.861 1157.35 362.04C1091.77 376.003 1059.33 385.523 1060.01 390.601C1060.14 391.581 1061.52 392.398 1064.13 393.052C1066.41 393.185 1068.58 393.243 1070.63 393.243C1075.78 393.249 1080.92 392.875 1086.01 392.124C1093.51 391.015 1104.19 387.402 1125.26 380.224C1126.21 379.9 1131.06 378.115 1140.79 374.512C1151.78 370.475 1161.81 366.724 1161.46 363.921C1161.33 363.213 1160.94 362.581 1160.36 362.159C1159.92 361.875 1159.41 361.731 1158.88 361.745V361.755Z" fill="#090110"/>
<path d="M1063.92 387.892L1083.4 376.468C1083.4 376.468 1093.5 380.467 1086.78 388.749L1063.92 387.892Z" fill="#EFA87C" stroke="black" stroke-width="2" stroke-miterlimit="10"/>
<path d="M1152.08 359.475L1083.4 376.468C1083.4 376.468 1093.35 380.609 1086.78 388.749L1154.08 366.186C1157.63 365.292 1159.39 362.526 1158.94 361.046C1158.48 359.565 1155.5 358.27 1152.08 359.475Z" fill="#D78147" stroke="black" stroke-width="2" stroke-linecap="round" stroke-linejoin="round"/>
<path d="M1073.23 382.428L1073.95 388.268L1063.92 387.892L1073.23 382.428Z" fill="black"/>
<path d="M1087.46 378.777C1088.22 379.518 1088.79 380.423 1089.14 381.422C1089.49 382.422 1089.6 383.488 1089.46 384.537L1158.25 362.64C1158.4 362.445 1158.5 362.216 1158.55 361.971C1158.6 361.727 1158.59 361.475 1158.52 361.236C1158.44 360.998 1158.32 360.78 1158.14 360.601C1157.97 360.422 1157.76 360.287 1157.52 360.208L1087.46 378.777Z" fill="#B25210"/>
<path d="M1073.46 384.265L1073.75 386.645L1088.45 384.77C1088.66 383.806 1088.62 382.804 1088.34 381.859C1088.05 380.914 1087.53 380.056 1086.83 379.367L1073.46 384.265Z" fill="#C18463"/>
<path d="M228.557 445.723C220.992 445.708 213.448 444.931 206.039 443.405C203.015 442.167 202.386 441.206 202.391 440.616C202.391 439.23 205.829 436.417 228.585 433.166C246.174 430.653 272.921 428.197 308.079 425.864H308.131C308.453 425.799 308.78 425.765 309.108 425.764C309.761 425.726 310.404 425.937 310.908 426.354C311.364 426.806 311.631 427.413 311.656 428.054C311.608 430.781 298.949 433.466 288.795 435.622C278.103 437.888 272.74 439.026 271.702 439.216C249.374 443.395 237.072 445.699 228.943 445.728L228.557 445.723Z" fill="#090110"/>
<path d="M309.141 426.163C309.692 426.124 310.239 426.294 310.67 426.639C311.042 427.009 311.262 427.505 311.284 428.029C311.284 428.363 310.808 429.586 304.774 431.404C300.683 432.642 295.315 433.813 288.723 435.212C278.036 437.478 272.669 438.616 271.64 438.811C249.336 442.985 237.048 445.285 228.957 445.313H228.561C221.042 445.297 213.542 444.525 206.177 443.009C202.972 441.691 202.814 440.782 202.814 440.629C202.814 440.477 203.124 439.111 208.896 437.407C213.264 436.117 219.922 434.827 228.68 433.599C246.259 431.09 272.973 428.634 308.146 426.301H308.198H308.25C308.545 426.24 308.845 426.208 309.146 426.206M309.146 425.392C308.791 425.395 308.437 425.432 308.088 425.502C237.417 430.173 202.054 435.206 202 440.601C202 441.648 203.313 442.709 205.939 443.785C213.381 445.328 220.961 446.111 228.561 446.122H228.957C236.963 446.094 248.679 443.933 271.792 439.606C272.826 439.415 278.179 438.278 288.89 436.007C300.983 433.442 312.042 431.038 312.099 428.053C312.078 427.294 311.761 426.574 311.218 426.044C310.636 425.561 309.896 425.312 309.141 425.345L309.146 425.392Z" fill="#090110"/>
<path d="M205.473 438.135C205.473 438.135 224.476 428.996 226.333 429.567C228.191 430.138 232.334 435.85 228.476 441.705C220.63 442.479 212.715 441.25 205.473 438.135Z" fill="#EFA87C" stroke="black" stroke-width="2" stroke-miterlimit="10"/>
<path d="M228.475 441.705L306.488 430.424C316.061 422.57 305.059 418 305.059 418L226.094 429.567C226.094 429.567 233.238 433.185 228.475 441.705Z" fill="#D78147" stroke="black" stroke-width="2" stroke-linecap="round" stroke-linejoin="round"/>
<path d="M230.381 434.256C230.438 434.565 230.49 434.898 230.524 435.255C230.581 435.825 230.597 436.397 230.571 436.969C242.954 435.322 255.545 433.515 268.344 431.547C282.019 429.437 295.417 427.216 308.536 424.883C309.174 424.54 309.779 424.126 309.708 423.812C309.636 423.498 308.636 423.36 308.279 423.336C306.055 423.179 266.163 428.963 230.381 434.256Z" fill="#BC6022"/>
<path d="M217.301 436.212C217.353 436.712 217.41 437.212 217.463 437.707L229.584 436.56C229.662 436.157 229.662 435.744 229.584 435.341C229.524 435.045 229.425 434.759 229.288 434.489L217.301 436.212Z" fill="#CC9275"/>
<path d="M216.179 433.204C217.286 435.786 217.528 438.656 216.869 441.387C213.116 440.775 209.443 439.75 205.915 438.331L205.539 438.169L216.079 433.242" fill="black"/>
<path d="M1044.07 439.125C1037.69 438.416 1031.29 437.549 1025.01 436.55C1017.18 435.298 1011.15 434.06 999.115 431.594C997.305 431.223 997.158 431.185 996.81 431.118C996.462 431.052 995.715 430.833 992.014 430.019L991.033 429.8C987.223 428.962 985.794 428.648 983.889 427.791C978.898 425.53 978.302 424.221 978.393 423.645C978.536 422.722 980.817 421.665 984.894 421.432C986.323 421.551 1036.04 425.692 1043.28 428.886H1043.32L1045.58 429.329C1047.18 430.566 1050.99 434.089 1050.34 436.431C1049.91 437.878 1047.76 438.811 1044.07 439.125Z" fill="#090110"/>
<path d="M984.895 421.798C986.8 421.956 1035.99 426.083 1043.13 429.219L1043.21 429.253H1043.29L1045.41 429.672C1046.92 430.847 1050.55 434.222 1049.95 436.307C1049.58 437.583 1047.57 438.416 1044.07 438.721C1037.72 438.011 1031.33 437.15 1025.08 436.15C1017.25 434.903 1011.22 433.665 999.197 431.2C997.392 430.828 997.249 430.795 996.906 430.724C996.563 430.652 995.806 430.443 992.096 429.624L991.105 429.405C987.214 428.553 985.904 428.263 984.056 427.425C978.736 425.016 978.76 423.812 978.779 423.683C978.875 423.06 980.884 422.032 984.895 421.779M984.895 421.008C981.156 421.222 978.227 422.175 978.013 423.545C977.727 425.383 982.404 427.506 983.728 428.106C985.809 429.058 987.29 429.334 991.924 430.357C998.892 431.89 995.149 431.157 999.03 431.952C1011.08 434.422 1017.13 435.66 1024.95 436.912C1030.03 437.721 1036.49 438.654 1044.05 439.492C1058.14 438.302 1045.73 428.953 1045.73 428.953L1043.43 428.477C1035.98 425.192 984.895 420.989 984.895 420.989V421.008Z" fill="#090110"/>
<path d="M1062.07 449.583C1052.62 449.583 1047.78 443.257 1047.73 443.19C1040.71 433.641 1045.96 428.348 1046.02 428.296C1050.5 424.859 1054.89 423.103 1059.01 423.103C1066.86 423.103 1071.71 429.324 1073.53 431.671C1073.79 432.004 1074 432.247 1074.12 432.394C1075.84 434.213 1080.17 437.944 1084.16 439.015C1085.89 439.491 1086.27 439.887 1086.35 440.091C1086.42 440.296 1086.27 440.534 1086.03 440.886C1085.87 441.101 1085.74 441.34 1085.65 441.595C1085.29 442.924 1079.85 445.218 1069.46 448.412C1067.07 449.169 1064.58 449.566 1062.07 449.588V449.583Z" fill="#090110"/>
<path d="M1059.02 423.483C1066.67 423.483 1071.43 429.6 1073.23 431.904C1073.49 432.246 1073.7 432.494 1073.84 432.651C1075.59 434.503 1079.99 438.287 1084.06 439.382C1085.61 439.796 1085.93 440.134 1085.97 440.21C1085.9 440.378 1085.81 440.538 1085.7 440.686C1085.51 440.934 1085.36 441.212 1085.27 441.51C1085.09 442.181 1082.78 443.923 1069.33 448.059C1066.98 448.803 1064.53 449.193 1062.06 449.216C1052.82 449.216 1048.07 443.028 1048.03 442.985C1041.42 434.003 1045.82 429.062 1046.25 428.615C1050.68 425.225 1054.97 423.502 1059 423.502M1059 422.736C1055.24 422.736 1050.81 424.14 1045.74 428.039C1045.74 428.039 1040.1 433.503 1047.41 443.437C1047.41 443.437 1052.29 449.983 1062.06 449.983C1064.61 449.963 1067.13 449.562 1069.56 448.793C1084.32 444.251 1085.75 442.604 1086.01 441.71C1086.27 440.815 1088.3 439.744 1084.25 438.658C1080.2 437.573 1075.8 433.636 1074.38 432.142C1073.38 431.08 1068.17 422.736 1059 422.736Z" fill="#090110"/>
<path d="M1064.22 446.251C1062.45 446.255 1060.69 446.046 1058.98 445.627C1057.03 445.151 1052.49 444.023 1049.71 440.153C1048.28 438.139 1047.06 435.026 1047.61 432.618C1047.68 432.353 1047.77 432.096 1047.89 431.851C1049.19 428.948 1052.6 427.958 1053.88 427.567C1055.06 427.241 1056.28 427.081 1057.51 427.091C1060.31 427.147 1063.05 427.857 1065.52 429.167C1067.47 430.223 1068.37 431.199 1069.64 432.556C1071.15 434.228 1072.82 435.76 1074.6 437.135C1076.48 438.581 1078.45 439.887 1080.51 441.043C1077.24 443.128 1071.17 446.251 1064.22 446.251Z" fill="#090110"/>
<path d="M1057.53 426.696V427.468C1060.26 427.521 1062.94 428.215 1065.35 429.495C1067.26 430.523 1068.14 431.48 1069.38 432.827C1070.91 434.515 1072.58 436.062 1074.38 437.449C1076.1 438.776 1077.9 439.985 1079.78 441.067C1076.45 443.123 1070.73 445.889 1064.22 445.889C1062.49 445.891 1060.77 445.685 1059.09 445.275C1057.19 444.799 1052.73 443.704 1050.04 439.948C1048.65 438.006 1047.48 435.017 1048.01 432.723C1048.07 432.484 1048.15 432.251 1048.26 432.028V431.985C1049.46 429.286 1052.75 428.329 1053.97 427.972C1055.12 427.648 1056.3 427.488 1057.49 427.496V426.696M1057.49 426.696C1056.23 426.692 1054.97 426.866 1053.76 427.215C1052.48 427.586 1048.89 428.643 1047.53 431.652C1047.4 431.933 1047.29 432.228 1047.22 432.532C1046.63 435.103 1047.89 438.301 1049.38 440.377C1052.23 444.366 1056.87 445.508 1058.87 445.999C1060.61 446.426 1062.39 446.64 1064.18 446.636C1072.31 446.636 1079.13 442.405 1081.24 441.005C1078.99 439.787 1076.84 438.388 1074.82 436.821C1069.55 432.737 1069.46 430.866 1065.68 428.819C1063.16 427.478 1060.35 426.75 1057.49 426.696Z" fill="#090110"/>
<path d="M986.866 417C986.866 417 1034.94 420.951 1041.95 424.045L1044.11 424.469C1044.11 424.469 1055.78 433.27 1042.52 434.389C1035.41 433.598 1029.33 432.723 1024.55 431.961C1017.18 430.78 1011.5 429.619 1000.17 427.296C996.515 426.549 1000.03 427.234 993.5 425.792C989.142 424.84 987.747 424.559 985.789 423.674C984.546 423.112 980.141 421.113 980.412 419.39C980.608 418.095 983.346 417.195 986.866 417Z" fill="#F25814" stroke="black" stroke-width="1.58" stroke-miterlimit="10"/>
<path d="M1045.69 438.068C1045.69 438.068 1052.63 447.379 1066.53 443.105C1080.43 438.83 1081.77 437.264 1082.01 436.44C1082.25 435.617 1084.16 434.589 1080.35 433.584C1076.54 432.58 1072.4 428.858 1071.06 427.453C1069.73 426.049 1060.52 410.998 1044.11 423.588C1044.11 423.574 1038.81 428.72 1045.69 438.068Z" fill="#A38472" stroke="#090110" stroke-width="2.37" stroke-miterlimit="10"/>
<path d="M1045.83 426.991C1047.1 424.135 1050.48 423.183 1051.68 422.817C1057.07 421.26 1062.16 423.916 1062.9 424.325C1066.46 426.258 1066.54 428.015 1071.5 431.856C1073.4 433.331 1075.42 434.648 1077.54 435.793C1075.16 437.387 1066.23 442.899 1056.49 440.495C1054.61 440.019 1050.25 438.953 1047.56 435.202C1046.16 433.251 1044.97 430.237 1045.53 427.819C1045.6 427.533 1045.7 427.256 1045.83 426.991Z" fill="#C4AEA3"/>
<path d="M1050.57 428.505C1051.43 426.601 1053.69 425.934 1054.5 425.701C1058.12 424.654 1061.52 426.439 1062.03 426.715C1064.42 428.01 1064.48 429.19 1067.81 431.77C1069.09 432.76 1070.44 433.644 1071.86 434.412C1070.25 435.483 1064.27 439.172 1057.73 437.568C1056.47 437.259 1053.54 436.535 1051.74 434.017C1050.78 432.703 1050 430.685 1050.38 429.062C1050.42 428.87 1050.49 428.684 1050.57 428.505Z" fill="#EAD7CE"/>
<path d="M981.366 418.775C991.097 419.972 1000.94 421.255 1010.89 422.626C1021.34 424.067 1031.62 425.573 1041.76 427.144C1041.53 428.186 1041.5 429.26 1041.66 430.314L981.085 420.113C980.937 420.038 980.824 419.911 980.765 419.756C980.729 419.632 980.729 419.5 980.765 419.375C980.809 419.184 980.921 419.015 981.08 418.899C981.165 418.838 981.263 418.796 981.366 418.775Z" fill="#C13600"/>
<path d="M308.164 393.766L355.476 369.375L444.9 386.254L398.617 416.3L308.164 393.766Z" fill="black" stroke="black" stroke-width="2.19" stroke-miterlimit="10"/>
<path d="M305 391.514L354.503 366L448.061 383.655L399.639 415.091L305 391.514Z" fill="#FFEDCB" stroke="black" stroke-width="2.29" stroke-miterlimit="10"/>
<path d="M344.707 389.682C347.365 387.463 360 377.001 368.52 373.236C371.416 371.955 373.836 371.446 375.812 372.507C377.508 373.412 378.284 375.159 378.636 376.177L378.979 386.307C378.979 386.307 377.736 390.024 382.356 388.168C386.976 386.311 387.523 386.307 387.523 386.307C387.523 386.307 392.286 383.341 393.386 389.339C394.486 395.337 393.386 401.463 393.386 401.463L344.707 389.682Z" fill="#FFDAA4"/>
<path d="M391.995 407.375C391.995 407.375 377.44 405.076 359.895 400.577C342.349 396.079 328.461 391.081 328.461 391.081C328.461 391.081 343.016 393.38 360.557 397.878C378.097 402.377 391.995 407.375 391.995 407.375Z" fill="#FFDAA4" stroke="#FFDAA4" stroke-width="0.19" stroke-miterlimit="10"/>
<path d="M216.137 391.469C196.21 391.469 182.822 388.109 182.822 384.967C182.822 381.825 196.21 378.46 216.137 378.46C236.064 378.46 249.452 381.825 249.452 384.967C249.452 388.109 236.064 391.469 216.137 391.469Z" fill="#090110"/>
<path d="M216.138 378.822C236.551 378.822 249.086 382.401 249.086 384.967C249.086 387.533 236.551 391.108 216.138 391.108C195.725 391.108 183.185 387.528 183.185 384.967C183.185 382.406 195.715 378.822 216.138 378.822ZM216.138 378.098C197.54 378.098 182.461 381.173 182.461 384.967C182.461 388.761 197.54 391.817 216.138 391.817C234.736 391.817 249.815 388.742 249.815 384.953C249.815 381.164 234.736 378.084 216.138 378.084V378.098Z" fill="#090110"/>
<path d="M188.594 339.328C177.902 339.385 169.543 348.419 170.019 358.416C170.543 368.75 180.407 377.023 191.351 375.409C191.242 374.543 191.08 373.296 190.875 371.801C190.094 366.508 189.718 365.798 189.108 365.37C187.717 364.394 186.527 365.879 184.26 365.242C181.488 364.456 179.826 361.253 179.316 358.92C178.745 356.288 179.116 352.404 181.526 350.647C184.041 348.805 187.165 350.485 188.341 348.615C188.861 347.786 188.475 347.11 188.341 344.564C188.261 342.814 188.345 341.061 188.594 339.328Z" fill="#70432D" stroke="black" stroke-width="2.58" stroke-miterlimit="10"/>
<path d="M189.075 334.244C189.304 332.34 192.6 331.031 195.638 329.55C198.577 328.122 201.515 327.442 212.055 327.361C227.843 327.232 231.544 328.665 233.378 329.488C236.059 330.704 238.546 332.308 240.76 334.248C240.76 334.248 244.313 362.999 233.706 384.429C233.706 384.429 211.741 393.473 194.328 382.297C194.328 382.297 185.794 361.633 189.075 334.244Z" fill="#70432D" stroke="black" stroke-width="3.45" stroke-miterlimit="10"/>
<path d="M236.059 334.749L234.63 335.701C233.282 336.52 231.86 337.212 230.382 337.766C228.181 338.573 225.899 339.14 223.576 339.456C220.736 339.843 217.865 339.953 215.003 339.785C212.155 339.633 209.321 339.283 206.521 338.737C203.94 338.261 201.649 337.657 199.749 337.1C197.848 336.543 196.334 336.024 195.296 335.643C194.257 335.263 193.695 335.025 193.695 335.025C193.695 335.025 194.276 335.201 195.343 335.501C196.41 335.801 197.953 336.186 199.877 336.61C201.801 337.033 204.097 337.49 206.664 337.881C209.442 338.319 212.242 338.611 215.051 338.757C217.855 338.923 220.667 338.87 223.462 338.599C225.746 338.377 228.004 337.939 230.206 337.29C231.698 336.842 233.149 336.268 234.545 335.577L236.059 334.749Z" fill="black" stroke="black" stroke-width="0.07" stroke-miterlimit="10"/>
<path d="M231.683 336.948C235.016 335.334 222.567 334.092 215.49 334.163C210.206 334.219 204.971 335.185 200.016 337.019C200.016 337.019 220.543 342.312 231.683 336.948Z" fill="#3D2014"/>
<path d="M231.705 336.995L231.096 337.276C230.512 337.545 229.914 337.782 229.305 337.986C227.06 338.714 224.738 339.176 222.385 339.361C218.896 339.637 215.389 339.599 211.907 339.247C209.935 339.066 207.878 338.795 205.754 338.438C204.69 338.257 203.615 338.055 202.529 337.833C201.972 337.714 201.462 337.605 200.862 337.467C200.262 337.329 199.81 337.21 199.295 337.076H199.195L199.286 337.038L199.476 336.972L199.862 336.829L200.629 336.553L201.548 336.239L202.358 335.986C202.901 335.82 203.439 335.667 203.977 335.51C205.053 335.222 206.123 334.979 207.187 334.782C209.217 334.393 211.271 334.145 213.336 334.039C215.312 333.944 217.193 333.987 218.946 334.073C220.699 334.158 222.332 334.277 223.818 334.425C226.169 334.609 228.5 334.991 230.786 335.567C231.14 335.666 231.483 335.8 231.81 335.967C232.086 336.105 232.315 336.343 232.186 336.524C232.094 336.652 231.971 336.755 231.829 336.824L231.681 336.895L231.829 336.819C231.965 336.747 232.081 336.642 232.167 336.515C232.277 336.348 232.063 336.143 231.791 336.01C231.461 335.854 231.116 335.732 230.762 335.644C228.469 335.14 226.139 334.821 223.795 334.692C222.313 334.577 220.684 334.482 218.932 334.43C217.179 334.377 215.317 334.368 213.359 334.487C211.311 334.61 209.272 334.871 207.259 335.268C206.215 335.467 205.153 335.715 204.091 336.001C203.558 336.143 203.025 336.3 202.491 336.477L201.691 336.729L201 336.962H200.962H201.015L202.615 337.314C203.696 337.548 204.768 337.752 205.82 337.933C207.925 338.304 209.973 338.595 211.931 338.8C215.393 339.194 218.882 339.291 222.361 339.09C224.712 338.958 227.04 338.559 229.3 337.9C230.096 337.643 230.729 337.424 231.11 337.248L231.705 336.995Z" fill="black" stroke="black" stroke-width="0.04" stroke-miterlimit="10"/>
<path d="M208.698 291.341C209.941 295.849 213.737 299.643 214.632 300.504C218.471 304.198 220.8 303.836 222.953 307.354C223.134 307.649 225.81 312.114 224.653 317.222C223.815 320.982 221.086 324.233 221.69 324.7C221.833 324.814 222.095 324.7 222.214 324.652C228.882 321.701 231.073 316.56 231.073 316.56C232.954 312.109 232.44 306.702 230.168 302.623C226.567 296.144 220.276 296.149 219.552 290.722C219.352 289.199 219.785 287.595 220.652 284.391C221.871 279.903 223.534 279.036 223.691 276.123C223.834 273.448 222.786 269.602 220.833 269.069C216.671 267.936 205.864 281.036 208.698 291.341Z" fill="#CCCAAF"/>
<path d="M208.232 311.781L205.479 308.42C205.479 308.42 202.031 299.729 209.822 305.055C217.614 310.382 217.624 317.274 217.624 317.274C217.624 317.274 217.247 321.496 216.143 322.601C215.038 323.705 214.014 319.745 213.356 319.078C212.699 318.412 210.48 312.438 208.232 311.781Z" fill="#CCCAAF"/>
<path d="M934.13 99.2295H875.049C871.708 99.2295 869 101.936 869 105.275V166.813C869 170.152 871.708 172.858 875.049 172.858H934.13C937.47 172.858 940.178 170.152 940.178 166.813V105.275C940.178 101.936 937.47 99.2295 934.13 99.2295Z" fill="#FDCB93" stroke="#090110" stroke-width="3.74" stroke-miterlimit="10"/>
<path d="M921.76 110.501H890.26C888.442 110.501 886.969 111.974 886.969 113.79V115.747C886.969 117.563 888.442 119.036 890.26 119.036H921.76C923.578 119.036 925.051 117.563 925.051 115.747V113.79C925.051 111.974 923.578 110.501 921.76 110.501Z" fill="#E5A76A"/>
<path d="M914.34 131.774H879.535C878.63 131.774 877.896 132.506 877.896 133.409C877.896 134.312 878.63 135.044 879.535 135.044H914.34C915.245 135.044 915.979 134.312 915.979 133.409C915.979 132.506 915.245 131.774 914.34 131.774Z" fill="#E5A76A"/>
<path d="M914.34 138.357H879.535C878.63 138.357 877.896 139.089 877.896 139.993C877.896 140.896 878.63 141.628 879.535 141.628H914.34C915.245 141.628 915.979 140.896 915.979 139.993C915.979 139.089 915.245 138.357 914.34 138.357Z" fill="#E5A76A"/>
<path d="M913.464 144.936H880.411C879.022 144.936 877.896 146.061 877.896 147.449V150.138C877.896 151.526 879.022 152.652 880.411 152.652H913.464C914.853 152.652 915.979 151.526 915.979 150.138V147.449C915.979 146.061 914.853 144.936 913.464 144.936Z" fill="#E5A76A"/>
<path d="M913.983 155.251H879.892C878.79 155.251 877.896 156.144 877.896 157.245V158.131C877.896 159.232 878.79 160.125 879.892 160.125H913.983C915.085 160.125 915.979 159.232 915.979 158.131V157.245C915.979 156.144 915.085 155.251 913.983 155.251Z" fill="#E5A76A"/>
<path d="M932.553 130.975H922.356C920.896 130.975 919.713 132.157 919.713 133.616V149.301C919.713 150.76 920.896 151.943 922.356 151.943H932.553C934.013 151.943 935.196 150.76 935.196 149.301V133.616C935.196 132.157 934.013 130.975 932.553 130.975Z" fill="#E5A76A"/>
<path d="M909.616 89H898.947V103.851H909.616V89Z" fill="#6B4522"/>
<path d="M1356.85 159.931L1295.29 157.165C1294.39 157.126 1293.51 156.903 1292.7 156.511C1291.9 156.119 1291.18 155.566 1290.59 154.885C1290.01 154.204 1289.57 153.411 1289.3 152.554C1289.03 151.697 1288.94 150.794 1289.04 149.901L1297.79 67.485C1297.96 65.8691 1298.73 64.374 1299.94 63.2876C1301.14 62.2013 1302.71 61.6007 1304.34 61.6016H1361.76C1362.65 61.6016 1363.54 61.7836 1364.36 62.1366C1365.18 62.4896 1365.92 63.0061 1366.54 63.6546C1367.15 64.3032 1367.63 65.0701 1367.94 65.9087C1368.24 66.7473 1368.38 67.64 1368.33 68.5322L1363.72 153.738C1363.62 155.466 1362.84 157.085 1361.56 158.245C1360.27 159.404 1358.58 160.01 1356.85 159.931Z" fill="#FFE6BF" stroke="black" stroke-width="2.95" stroke-miterlimit="10"/>
<path d="M1346.5 79.1855H1316.41C1313.93 79.1855 1311.92 81.1974 1311.92 83.6791V97.45C1311.92 99.9317 1313.93 101.943 1316.41 101.943H1346.5C1348.98 101.943 1350.99 99.9317 1350.99 97.45V83.6791C1350.99 81.1974 1348.98 79.1855 1346.5 79.1855Z" fill="#889987"/>
<path d="M1310.4 117.608H1322.73" stroke="#889987" stroke-width="5.9" stroke-linecap="round" stroke-linejoin="round"/>
<path d="M1332.78 118.275H1347.4" stroke="#889987" stroke-width="7.95" stroke-linecap="round" stroke-linejoin="round"/>
<path d="M1308.11 129.199H1349.23" stroke="#889987" stroke-width="2" stroke-linecap="round" stroke-linejoin="round"/>
<path d="M1308.11 140.79H1349.23" stroke="#889987" stroke-width="3" stroke-linecap="round" stroke-linejoin="round"/>
<path d="M1338.12 53H1327.45V67.8515H1338.12V53Z" fill="#E5A76A"/>
<path d="M178.242 154.253L144.518 161.908C143.797 162.071 143.048 162.073 142.327 161.913C141.605 161.753 140.927 161.435 140.343 160.982C139.759 160.529 139.282 159.952 138.948 159.294C138.613 158.635 138.428 157.91 138.407 157.171C137.94 140.92 137.472 124.671 137.002 108.423C136.965 107.174 137.398 105.956 138.215 105.009C139.032 104.063 140.175 103.457 141.417 103.311L172.851 99.5981C173.522 99.5177 174.202 99.5738 174.85 99.7629C175.499 99.952 176.102 100.27 176.625 100.698C177.147 101.127 177.577 101.656 177.889 102.255C178.202 102.853 178.39 103.509 178.442 104.182C179.671 119.097 180.898 134.023 182.124 148.96C182.223 150.162 181.884 151.358 181.171 152.331C180.458 153.303 179.418 153.986 178.242 154.253Z" fill="#FCCE9A" stroke="black" stroke-miterlimit="10"/>
<path d="M158.853 136.694C156.862 136.161 150.533 134.204 146.851 128.126C144.322 123.946 142.269 116.554 145.422 114.217C147.761 112.479 152.523 113.845 156.853 117.273C160.391 113.465 165.192 112.489 168.097 114.317C171.793 116.64 170.979 122.632 170.855 123.556C169.702 132.172 159.867 136.289 158.853 136.694Z" fill="#FCCE9A" stroke="black" stroke-miterlimit="10"/>
<path d="M152.737 151.864L149.442 149.474L145.598 150.831L146.855 146.956L144.379 143.724H148.451L150.761 140.368L152.023 144.243L155.928 145.4L152.633 147.794L152.737 151.864Z" fill="#FCCE9A" stroke="black" stroke-miterlimit="10"/>
<path d="M160.873 140.368L173.732 138.407" stroke="black" stroke-miterlimit="10"/>
<path d="M162.602 146.118L175.461 144.152" stroke="black" stroke-miterlimit="10"/>
<path d="M162.691 95H152.18V109.009H162.691V95Z" fill="#738988"/>
<path d="M49.2283 445.453C64.8184 445.453 77.4567 443.113 77.4567 440.227C77.4567 437.34 64.8184 435 49.2283 435C33.6383 435 21 437.34 21 440.227C21 443.113 33.6383 445.453 49.2283 445.453Z" fill="#090110" stroke="#090110" stroke-width="1.23" stroke-miterlimit="10"/>
<path d="M1361.97 400.971C1386.82 400.971 1406.97 397.8 1406.97 393.888C1406.97 389.976 1386.82 386.805 1361.97 386.805C1337.11 386.805 1316.96 389.976 1316.96 393.888C1316.96 397.8 1337.11 400.971 1361.97 400.971Z" fill="#090110" stroke="#090110" stroke-width="1.8" stroke-miterlimit="10"/>
<path d="M1339.7 339.495C1339.7 339.495 1266.43 313.871 1269.07 296.411C1269.26 294.81 1269.93 293.304 1271 292.094C1277.28 285.277 1297.13 292.422 1309.98 300.262C1311.68 301.295 1312.87 302.114 1313.22 302.357C1320.52 307.364 1332.75 317.874 1345.09 340.613L1339.7 339.495Z" fill="#D6B97F" stroke="#090110" stroke-width="1.44" stroke-miterlimit="10"/>
<path d="M1300.6 244.569C1300.6 244.569 1301 221.216 1316.13 236.953C1329.83 251.181 1340.18 269.231 1347.82 291.822C1348.12 292.703 1348.34 293.355 1348.77 294.678C1357.86 322.344 1362.3 336.281 1357.65 341.47C1356.1 343.198 1352.92 345.092 1345.57 344.326C1345.57 344.326 1335.51 329.57 1325.09 313.385C1319.53 304.746 1307.63 291.579 1303.11 275.585C1302.61 273.8 1302.24 272.187 1302.24 272.187C1302.24 272.187 1300.33 264.061 1300.6 244.578L1300.6 244.569Z" fill="#B59968" stroke="#090110" stroke-width="1.44" stroke-miterlimit="10"/>
<path d="M1358.68 241.97C1360.62 238.723 1369.73 223.448 1377.95 225.129C1380.65 225.681 1382.51 227.671 1384.14 230.579C1390.38 241.618 1390.44 254.546 1388.79 267.708C1387.36 279.16 1386.41 278.703 1378.92 309.93C1374.11 329.922 1371.63 342.008 1364.79 343.222C1363.29 343.439 1361.76 343.205 1360.4 342.55C1342.43 335.02 1348.44 280.022 1349.09 274.11C1350.42 262.043 1352.7 251.99 1358.68 241.97Z" fill="#D6B97F" stroke="#090110" stroke-width="1.44" stroke-miterlimit="10"/>
<path d="M1375.76 342.707C1375.76 342.707 1413.07 320.63 1419.74 300.047C1426.42 279.465 1423.21 278.118 1418.79 278.094C1414.37 278.07 1394.81 280.312 1389.04 287.733C1383.27 295.154 1356.8 332.13 1370.22 342.55C1371.01 343.152 1371.97 343.49 1372.96 343.518C1373.96 343.547 1374.93 343.263 1375.76 342.707Z" fill="#B29769" stroke="#090110" stroke-width="1.44" stroke-miterlimit="10"/>
<path d="M1395.3 391.308C1373.42 396.346 1350.88 397.912 1328.51 395.949C1320.24 373.319 1317.99 360.894 1321.76 358.673C1322.18 358.463 1322.64 358.339 1323.11 358.307C1323.57 358.275 1324.04 358.336 1324.48 358.487L1397.42 355.407L1395.3 391.308Z" fill="#EA9B65" stroke="#090110" stroke-width="4.32" stroke-miterlimit="10"/>
<path d="M1402.9 356.817L1316.43 359.282C1315.73 359.299 1315.04 359.058 1314.51 358.603C1313.97 358.148 1313.63 357.512 1313.53 356.817L1310.91 337.224C1310.86 336.829 1310.89 336.428 1311.01 336.046C1311.12 335.664 1311.31 335.31 1311.57 335.007C1311.83 334.704 1312.15 334.458 1312.51 334.286C1312.87 334.114 1313.26 334.018 1313.66 334.006L1401.29 331.764C1402.02 331.749 1402.73 332.012 1403.27 332.5C1403.81 332.989 1404.14 333.666 1404.2 334.392L1405.67 353.761C1405.7 354.145 1405.64 354.53 1405.52 354.894C1405.39 355.258 1405.19 355.593 1404.94 355.878C1404.68 356.164 1404.36 356.394 1404.01 356.555C1403.66 356.716 1403.29 356.805 1402.9 356.817Z" fill="#EA9B65" stroke="#090110" stroke-width="4.32" stroke-miterlimit="10"/>
<path d="M1339.52 314.29C1339.52 314.29 1339.24 313.471 1338.73 311.986C1338.22 310.501 1337.55 308.354 1336.72 305.703C1334.94 300.429 1332.65 293.131 1329.76 285.234C1326.87 277.337 1323.92 270.335 1321.12 265.561C1320.05 263.639 1318.81 261.813 1317.43 260.106C1317.04 259.632 1316.63 259.181 1316.19 258.754L1315.83 258.421L1315.69 258.307L1315.85 258.388L1316.28 258.63C1316.81 258.959 1317.31 259.319 1317.8 259.711C1319.56 261.141 1321.16 262.764 1322.56 264.552C1326.19 268.979 1330.08 275.909 1333.04 283.997C1336 292.084 1337.48 299.753 1338.43 305.27C1338.84 308.049 1339.1 310.306 1339.28 311.862C1339.46 313.419 1339.52 314.29 1339.52 314.29Z" fill="#D6B97F" stroke="#D6B97F" stroke-width="0.24" stroke-miterlimit="10"/>
<path d="M1373.26 327.332L1374.4 325.171C1375.14 323.791 1376.22 321.792 1377.62 319.359C1380.54 314.599 1384.77 308.002 1390.48 301.571C1396.2 295.14 1402.39 290.147 1407.36 287.4C1409.28 286.273 1411.33 285.367 1413.46 284.701C1414.02 284.525 1414.6 284.385 1415.19 284.282L1415.64 284.225H1415.78L1415.65 284.273L1415.23 284.439C1414.7 284.67 1414.18 284.927 1413.67 285.21C1411.79 286.268 1410.01 287.485 1408.35 288.847C1404.06 292.213 1398.71 297.615 1393.1 303.875C1387.5 310.134 1382.66 316.094 1379.04 320.359C1377.28 322.525 1375.85 324.281 1374.84 325.481L1373.26 327.332Z" fill="#D6B97F" stroke="#D6B97F" stroke-width="0.24" stroke-miterlimit="10"/>
<path d="M1358.68 321.544C1358.68 321.544 1361.23 303.546 1365.44 281.559C1369.65 259.572 1373.92 241.875 1373.92 241.875C1373.92 241.875 1371.37 259.872 1367.16 281.859C1362.95 303.846 1358.68 321.544 1358.68 321.544Z" fill="#B29769" stroke="#B29769" stroke-width="0.12" stroke-miterlimit="10"/>
<path d="M1329.49 328.089C1329.49 328.089 1318.4 322.12 1305.3 313.842C1292.19 305.564 1282.03 298.134 1282.03 298.134C1282.03 298.134 1293.11 304.103 1306.21 312.381C1319.32 320.658 1329.49 328.089 1329.49 328.089Z" fill="#B29769" stroke="#B29769" stroke-width="0.12" stroke-miterlimit="10"/>
<path d="M68.1226 409.587C68.1226 409.587 107.548 395.782 106.124 386.41C106.022 385.547 105.66 384.735 105.086 384.082C101.709 380.417 91.0263 384.263 84.13 388.481C83.2203 389.037 82.5773 389.475 82.3868 389.604C78.4386 392.308 71.8709 397.953 65.2031 410.191L68.1226 409.587Z" fill="#D6B97F" stroke="#090110" stroke-width="0.77" stroke-miterlimit="10"/>
<path d="M89.1541 358.511C89.1541 358.511 88.9493 345.945 80.8051 354.399C73.4325 362.053 67.865 371.768 63.75 383.911L63.2452 385.434C58.3587 400.319 55.9678 407.807 58.4825 410.61C59.316 411.539 61.0305 412.557 64.9835 412.153C64.9835 412.153 70.3987 404.203 75.9901 395.492C78.981 390.842 85.3868 383.764 87.8158 375.153C88.0873 374.201 88.292 373.325 88.292 373.325C88.292 373.325 89.3017 368.955 89.1684 358.488L89.1541 358.511Z" fill="#B59968" stroke="#090110" stroke-width="0.77" stroke-miterlimit="10"/>
<path d="M57.9107 357.116C56.8724 355.369 51.9668 347.149 47.5423 348.072C46.1135 348.372 45.0895 349.438 44.2084 351.004C40.8508 356.945 40.8174 363.899 41.7033 370.997C42.4701 377.185 42.9749 376.913 47.0184 393.717C49.6046 404.47 50.9381 410.977 54.6149 411.629C55.427 411.75 56.2568 411.624 56.9962 411.267C66.6644 407.216 63.4306 377.623 63.0829 374.443C62.3447 367.912 61.1302 362.505 57.9107 357.116Z" fill="#D6B97F" stroke="#090110" stroke-width="0.77" stroke-miterlimit="10"/>
<path d="M48.7186 411.32C48.7186 411.32 28.6487 399.448 25.0577 388.362C21.4666 377.275 23.1907 376.566 25.572 376.552C27.9534 376.538 38.4693 377.747 41.5746 381.74C44.6799 385.734 58.9202 405.626 51.7048 411.253C51.2756 411.573 50.7575 411.751 50.2223 411.763C49.6872 411.775 49.1616 411.62 48.7186 411.32Z" fill="#B29769" stroke="#090110" stroke-width="0.77" stroke-miterlimit="10"/>
<path d="M38.2075 437.467C49.9809 440.175 62.107 441.017 74.1418 439.961C78.587 427.788 79.7967 421.103 77.771 419.907C77.5466 419.792 77.3014 419.725 77.0502 419.707C76.7989 419.69 76.5467 419.724 76.3089 419.807L37.0645 418.15L38.2075 437.467Z" fill="#EA9B65" stroke="#090110" stroke-width="2.32" stroke-miterlimit="10"/>
<path d="M34.1159 418.907L80.6424 420.235C81.0206 420.244 81.389 420.114 81.6772 419.869C81.9654 419.624 82.1532 419.281 82.2046 418.907L83.6334 408.368C83.6622 408.155 83.6459 407.939 83.5854 407.733C83.5249 407.526 83.4216 407.335 83.2823 407.172C83.143 407.008 82.9708 406.876 82.7769 406.784C82.583 406.691 82.3717 406.641 82.1569 406.635L35.0065 405.426C34.6119 405.418 34.2292 405.561 33.9375 405.827C33.6459 406.093 33.4676 406.461 33.4396 406.854L32.6538 417.279C32.6402 417.482 32.6676 417.686 32.7342 417.879C32.8008 418.072 32.9053 418.249 33.0415 418.401C33.1778 418.552 33.343 418.675 33.5275 418.762C33.7121 418.849 33.9121 418.898 34.1159 418.907Z" fill="#EA9B65" stroke="#090110" stroke-width="2.32" stroke-miterlimit="10"/>
<path d="M67.8262 395.94C67.8262 395.94 68.031 394.088 68.5358 391.108C69.2454 387.227 70.3088 383.419 71.7125 379.732C73.4128 375.419 75.5941 371.744 77.5849 369.436C78.3465 368.507 79.2109 367.667 80.1615 366.932C80.4156 366.738 80.6812 366.56 80.9569 366.399C81.1521 366.294 81.2426 366.256 81.2426 366.256C81.2426 366.256 81.1664 366.318 81.0045 366.465C80.8425 366.613 80.6282 366.832 80.3615 367.146C79.6138 368.031 78.9415 368.977 78.3517 369.973C76.8086 372.477 75.1273 376.195 73.4699 380.398C71.8125 384.601 70.479 388.49 69.4455 391.346C68.4929 394.183 67.8262 395.94 67.8262 395.94Z" fill="#D6B97F" stroke="#D6B97F" stroke-width="0.13" stroke-miterlimit="10"/>
<path d="M49.7231 403.256C49.7231 403.256 48.5277 401.828 46.7083 399.448C44.889 397.068 42.3076 393.859 39.3786 390.404C36.4495 386.948 33.6634 383.973 31.3439 382.083C30.446 381.313 29.4818 380.623 28.4625 380.022C28.1793 379.847 27.8868 379.688 27.5862 379.546C27.3814 379.455 27.248 379.413 27.248 379.413C27.248 379.413 27.3862 379.413 27.61 379.47C27.933 379.536 28.2513 379.623 28.5625 379.732C29.7183 380.138 30.8253 380.671 31.8631 381.321C34.5159 382.883 37.7735 385.653 40.7788 389.185C43.2952 392.217 45.5272 395.474 47.4465 398.915C48.923 401.576 49.7231 403.256 49.7231 403.256Z" fill="#D6B97F" stroke="#D6B97F" stroke-width="0.13" stroke-miterlimit="10"/>
<path d="M57.7251 399.962C57.7251 399.962 55.5152 390.442 53.3625 378.575C51.2097 366.708 49.9238 357.012 49.9238 357.012C49.9238 357.012 52.1289 366.532 54.2864 378.404C56.4439 390.275 57.7251 399.962 57.7251 399.962Z" fill="#B29769" stroke="#B29769" stroke-width="0.06" stroke-miterlimit="10"/>
<path d="M73.5117 403.28C73.5117 403.28 79.0126 399.348 86.1566 394.987C93.3006 390.627 99.2778 387.495 99.2778 387.495C99.2778 387.495 93.7626 391.427 86.6519 395.787C79.5413 400.147 73.5117 403.28 73.5117 403.28Z" fill="#B29769" stroke="#B29769" stroke-width="0.06" stroke-miterlimit="10"/>
<path d="M520.66 320.07L470.876 317.834C470.151 317.801 469.439 317.62 468.786 317.302C468.133 316.985 467.552 316.537 467.078 315.986C466.605 315.436 466.249 314.794 466.033 314.101C465.816 313.408 465.744 312.678 465.821 311.956C468.185 289.72 470.55 267.489 472.914 245.262C473.053 243.954 473.67 242.745 474.647 241.865C475.625 240.986 476.893 240.499 478.208 240.499H524.671C525.395 240.498 526.112 240.646 526.777 240.932C527.442 241.217 528.042 241.636 528.54 242.161C529.038 242.687 529.423 243.308 529.673 243.987C529.922 244.667 530.031 245.39 529.991 246.112L526.257 315.043C526.22 315.741 526.046 316.424 525.745 317.054C525.443 317.684 525.021 318.249 524.501 318.716C523.981 319.183 523.374 319.543 522.715 319.775C522.056 320.007 521.358 320.108 520.66 320.07Z" fill="#C99959" stroke="black" stroke-width="1.76" stroke-miterlimit="10"/>
<path d="M512.288 254.729H487.938C485.929 254.729 484.301 256.357 484.301 258.365V269.515C484.301 271.522 485.929 273.15 487.938 273.15H512.288C514.297 273.15 515.925 271.522 515.925 269.515V258.365C515.925 256.357 514.297 254.729 512.288 254.729Z" fill="#DBC2A5" stroke="black" stroke-width="1.76" stroke-miterlimit="10"/>
<path d="M483.076 285.821H493.052" stroke="black" stroke-width="1.76" stroke-miterlimit="10"/>
<path d="M505.506 233.544H496.871V245.565H505.506V233.544Z" fill="#E5A76A"/>
<path d="M1160 430.04C1160 430.04 1243.24 419.283 1254.89 411L1300.68 416.798C1276.39 433.763 1263.3 440.47 1255.73 443.278C1253.95 443.94 1247.51 446.225 1238.26 449.895C1227.81 454.045 1227.9 454.355 1225.77 454.859C1215.81 457.239 1207.77 451.865 1194.14 444.93C1183.06 439.313 1171.66 434.342 1160 430.04Z" fill="#F2902F" stroke="#090110" stroke-width="3.26" stroke-miterlimit="10"/>
<path d="M1166.08 430.169C1166.08 430.169 1237.67 420.411 1247.7 412.904L1287.07 418.14C1287.07 418.14 1248.41 451.937 1224.79 449.666C1201.16 447.396 1166.08 430.169 1166.08 430.169Z" fill="#F2DBC4" stroke="#090110" stroke-width="3.26" stroke-miterlimit="10"/>
<path d="M1293.16 411.624C1293.16 411.624 1221.14 416.86 1209.91 411.585L1172.28 424.88C1172.28 424.88 1216.54 449.995 1239.27 442.897C1262 435.8 1293.16 411.624 1293.16 411.624Z" fill="#EA9C4E" stroke="#090110" stroke-width="3.26" stroke-miterlimit="10"/>
<path d="M1292.7 411.819C1292.7 411.819 1220.68 417.055 1209.45 411.776L1171.82 425.071C1171.82 425.071 1216.07 450.185 1238.81 443.092C1261.54 436 1292.7 411.819 1292.7 411.819Z" fill="#FDCB93" stroke="#090110" stroke-width="3.26" stroke-miterlimit="10"/>
<path d="M456 432L502.5 424L573 438L500.5 452.5L456 432Z" fill="#090110"/>
<path d="M491.269 399.029C491.269 399.029 483.42 398.996 485.287 403.789C487.154 408.583 503.952 448.924 503.952 448.924C503.952 448.924 507.286 452.856 516.221 451.124C525.155 449.391 570.491 439.166 570.491 439.166C570.491 439.166 576.206 437.067 571.734 428.066" fill="#666565"/>
<path d="M491.269 399.029C491.269 399.029 483.42 398.996 485.287 403.789C487.154 408.583 503.952 448.924 503.952 448.924C503.952 448.924 507.286 452.856 516.221 451.124C525.155 449.391 570.491 439.166 570.491 439.166C570.491 439.166 576.206 437.067 571.734 428.066" stroke="#090110" stroke-width="1.13" stroke-miterlimit="10"/>
<path d="M493.508 423.82L487.793 439.529C487.793 439.529 486.793 442.327 488.793 442.727C490.793 443.127 501.524 442.061 501.524 442.061L493.508 423.82Z" fill="#1E1E1E" stroke="#090110" stroke-width="1.13" stroke-miterlimit="10"/>
<path d="M489.82 399.263L509.285 444.841C509.285 444.841 509.152 449.372 518.22 448.039C527.288 446.706 570.49 435.511 570.49 435.511C570.49 435.511 573.291 434.844 570.49 426.981C567.69 419.117 553.821 389 553.821 389L489.82 399.263Z" fill="#1E1E1E" stroke="#090110" stroke-width="1.13" stroke-miterlimit="10"/>
<path d="M502.082 403.809L516.332 437.167C516.332 437.167 516.237 440.499 522.871 439.509C529.505 438.519 561.139 430.361 561.139 430.361C561.139 430.361 563.187 429.885 561.139 424.115C559.091 418.346 548.937 396.316 548.937 396.316L502.082 403.809Z" fill="#739BFF" stroke="#090110" stroke-width="0.83" stroke-miterlimit="10"/>
<path d="M501.765 413.933C502.722 413.933 503.498 413.157 503.498 412.2C503.498 411.243 502.722 410.468 501.765 410.468C500.807 410.468 500.031 411.243 500.031 412.2C500.031 413.157 500.807 413.933 501.765 413.933Z" fill="#739BFF" stroke="#090110" stroke-width="0.83" stroke-miterlimit="10"/>
<path d="M503.499 417.994C504.457 417.994 505.233 417.218 505.233 416.261C505.233 415.304 504.457 414.528 503.499 414.528C502.542 414.528 501.766 415.304 501.766 416.261C501.766 417.218 502.542 417.994 503.499 417.994Z" fill="#739BFF" stroke="#090110" stroke-width="0.83" stroke-miterlimit="10"/>
<path d="M509.301 430.441C510.181 430.065 509.969 427.593 508.826 424.919C507.683 422.245 506.043 420.382 505.163 420.758C504.282 421.134 504.495 423.607 505.638 426.28C506.78 428.954 508.42 430.817 509.301 430.441Z" fill="#739BFF" stroke="#090110" stroke-width="0.83" stroke-miterlimit="10"/>
<ellipse cx="907.5" cy="374.5" rx="17.5" ry="4.5" fill="#090110"/>
<path d="M908.04 348.047C916.347 348.047 923.081 346.423 923.081 344.42C923.081 342.417 916.347 340.793 908.04 340.793C899.734 340.793 893 342.417 893 344.42C893 346.423 899.734 348.047 908.04 348.047Z" fill="#EF8535" stroke="black" stroke-width="0.42" stroke-miterlimit="10"/>
<path d="M893.567 351.108L896.224 369.891C896.224 369.891 896.143 371.986 899.815 373.476C903.487 374.966 916.389 374.566 918.08 372.871C919.771 371.177 920.019 371.5 920.5 369.006C920.981 366.512 922.748 345.991 922.748 345.991C922.748 345.991 901.873 351.836 893 345.225L893.567 351.108Z" fill="#F3A466" stroke="black" stroke-width="1.13" stroke-miterlimit="10"/>
<path d="M897.858 346.958L895.844 329.707L897.858 319.954L901.649 329.545L903.907 347.681" fill="#987C86"/>
<path d="M897.858 346.958L895.844 329.707L897.858 319.954L901.649 329.545L903.907 347.681" stroke="black" stroke-width="1.13" stroke-linecap="round" stroke-linejoin="round"/>
<path d="M915.047 323.971C913.234 331.99 911.416 340.009 909.594 348.029L914.861 347.362L919.333 325.147L915.047 323.971Z" fill="#D27B55" stroke="black" stroke-width="0.56" stroke-miterlimit="10"/>
<path d="M916.99 324.804C919.042 325.509 920.095 325.114 920.595 324.804C922.976 323.376 923.033 317.826 920.228 311C914.989 316.165 912.698 321.187 914.256 323.443C914.594 323.919 915.299 324.561 916.99 324.804Z" fill="#D27B55" stroke="black" stroke-width="0.56" stroke-miterlimit="10"/>
<path d="M158.162 346.422L45.2117 337.374C42.7288 337.176 40.4221 336.014 38.7846 334.138C37.1471 332.262 36.3087 329.82 36.4487 327.335L43.6172 199.593C43.7534 197.16 44.8164 194.872 46.588 193.198C48.3595 191.524 50.7051 190.591 53.1431 190.591H160.46C161.722 190.591 162.971 190.841 164.136 191.327C165.301 191.814 166.357 192.526 167.244 193.423C168.132 194.32 168.832 195.384 169.305 196.553C169.778 197.723 170.014 198.975 169.999 200.236L168.455 337.025C168.441 338.332 168.158 339.622 167.624 340.814C167.09 342.007 166.317 343.077 165.351 343.959C164.386 344.84 163.25 345.513 162.013 345.937C160.776 346.361 159.465 346.526 158.162 346.422Z" fill="#FFE6C3" stroke="#090110" stroke-width="4.26" stroke-miterlimit="10"/>
<path d="M122.209 214.134H150.134" stroke="#949A92" stroke-width="7.1" stroke-miterlimit="10" stroke-linecap="round"/>
<path d="M122.209 226.134H150.134" stroke="#949A92" stroke-width="7.1" stroke-miterlimit="10" stroke-linecap="round"/>
<path d="M128.734 240.215H150.134" stroke="#949A92" stroke-width="6.21" stroke-miterlimit="10" stroke-linecap="round"/>
<path d="M137.41 255.606H151.959" stroke="#949A92" stroke-width="3.62" stroke-miterlimit="10" stroke-linecap="round"/>
<path d="M54.1133 303.664L152.322 307.774" stroke="#949A92" stroke-width="9.42" stroke-miterlimit="10" stroke-linecap="round"/>
<path d="M54.1172 318.843L152.312 323.311" stroke="#949A92" stroke-width="9.42" stroke-miterlimit="10" stroke-linecap="round"/>
<path d="M101.077 255.514L76.0236 254.246L71.1205 264.236C69.9105 266.685 69.2763 268.534 69.2181 269.784C69.2059 270.298 69.3152 270.808 69.5371 271.273C69.7591 271.737 70.0875 272.143 70.4956 272.457C71.3963 273.253 73.3998 273.837 76.5061 274.211L76.4188 275.979L56.0391 274.96L56.131 273.196C58.8575 272.856 60.6373 272.323 61.4706 271.598C63.1708 270.153 65.1238 267.141 67.3295 262.564L92.7548 210.469L94.4228 210.551L114.265 265.48C115.858 269.898 117.364 272.787 118.782 274.147C120.2 275.506 122.224 276.333 124.852 276.627L124.765 278.39L99.234 277.118L99.3213 275.35C101.904 275.35 103.667 275.009 104.61 274.326C105.046 274.039 105.408 273.653 105.667 273.201C105.926 272.749 106.076 272.242 106.104 271.722C106.174 270.322 105.649 268.08 104.528 264.993L101.077 255.514ZM99.9187 251.913L90.2458 225.23L77.6779 250.807L99.9187 251.913Z" fill="#738988"/>
<path d="M111.506 179.399H94.9629V201.444H111.506V179.399Z" fill="#738988"/>
<path d="M1117.85 223.791H1022.03V329.089H1117.85V223.791Z" fill="#FFEDDE" stroke="black" stroke-width="0.46" stroke-miterlimit="10"/>
<path d="M1052.29 249.553H1037.15V314.518H1052.29V249.553Z" fill="#FFF0A9" stroke="black" stroke-width="0.46" stroke-miterlimit="10"/>
<path d="M1067.42 267.478H1052.29V314.527H1067.42V267.478Z" fill="#D800EF" stroke="black" stroke-width="0.62" stroke-miterlimit="10"/>
<path d="M1082.54 283.721H1067.41V314.527H1082.54V283.721Z" fill="#240BA0" stroke="black" stroke-width="0.62" stroke-miterlimit="10"/>
<path d="M1097.68 293.8H1082.55V314.527H1097.68V293.8Z" stroke="black" stroke-width="0.62" stroke-miterlimit="10"/>
<path d="M1085.11 209.69H1064.85V237.892H1085.11V209.69Z" fill="#E5A76A"/>
<defs>
<linearGradient id="paint0_linear_633_3579" x1="0" y1="411.998" x2="1444" y2="411.998" gradientUnits="userSpaceOnUse">
<stop stop-color="#1F8BF7"/>
<stop offset="1" stop-color="#DC33FC"/>
</linearGradient>
</defs>
</svg>
