<svg width="1444" height="485" viewBox="0 0 1444 485" fill="none" xmlns="http://www.w3.org/2000/svg">
<path d="M1180.76 0.766373V484.234H210.715V0.766373H1180.76ZM1181.53 0H209.943V485H1181.53V0Z" fill="#090110"/>
<path d="M1444 359H0V479H1444V359Z" fill="url(#paint0_linear_605_3088)"/>
<path d="M606.975 348.805C606.975 348.805 609.737 366.417 613.071 369.749C616.405 373.081 622.977 364.037 622.977 361.562C622.977 359.086 619.358 338.523 606.975 348.805Z" fill="#0D3E66" stroke="black" stroke-width="4" stroke-miterlimit="10"/>
<path d="M616.215 225.804L626.14 227.413L623.073 236.752L615.167 234.753C615.167 234.753 610.499 229.436 616.215 225.804Z" fill="black" stroke="black" stroke-width="3" stroke-miterlimit="10"/>
<path d="M729.553 456.016C695.634 456.016 663.752 453.536 639.772 449.028C616.321 444.625 602.871 438.613 602.871 432.53C602.871 426.446 616.321 420.439 639.772 416.031C663.752 411.528 695.634 409.048 729.553 409.048C763.473 409.048 795.354 411.528 819.334 416.031C842.786 420.439 856.236 426.451 856.236 432.53C856.236 438.608 842.786 444.625 819.334 449.028C795.354 453.55 763.473 456.016 729.553 456.016Z" fill="#090110"/>
<path d="M729.552 409.448C763.448 409.448 795.306 411.923 819.262 416.426C830.874 418.606 839.975 421.139 846.324 423.957C852.558 426.727 855.849 429.697 855.849 432.525C855.849 435.352 852.553 438.346 846.324 441.093C839.975 443.911 830.874 446.443 819.262 448.623C795.306 453.122 763.448 455.602 729.552 455.602C695.657 455.602 663.799 453.16 639.843 448.666C628.231 446.486 619.13 443.954 612.781 441.136C606.547 438.366 603.256 435.395 603.256 432.568C603.256 429.74 606.547 426.751 612.781 424C619.13 421.182 628.231 418.649 639.843 416.469C663.799 411.966 695.657 409.491 729.552 409.491M729.552 408.72C659.374 408.72 602.484 419.406 602.484 432.587C602.484 445.767 659.374 456.454 729.552 456.454C799.73 456.454 856.62 445.772 856.62 432.587C856.62 419.401 799.73 408.72 729.552 408.72Z" fill="#090110"/>
<path d="M645.553 304.25C645.553 304.25 619.549 293.778 624.883 261.409C624.883 261.409 613.452 106.802 746.045 131.174C746.045 131.174 742.33 116.703 744.807 116.703C747.283 116.703 754.332 127.556 754.332 127.556C754.332 127.556 756.332 131.459 758.238 127.556C760.143 123.653 760.143 119.178 760.143 119.178C760.143 119.178 761.476 115.084 763.381 120.987C764.528 124.431 764.661 128.132 763.762 131.65L763.381 133.934C763.381 133.934 771.192 126.985 774.05 128.603C776.907 130.222 774.431 132.697 774.431 132.697L770.335 138.218C781.998 143.293 798.768 152.941 811.865 170.873C829.901 195.573 830.059 221.053 830.221 247.129C830.306 261.09 828.544 272.001 822.6 282.439C819.79 287.34 816.276 291.801 812.17 295.682C812.17 295.682 857.692 340.679 847.142 396.896C846.462 400.527 845.567 404.114 844.461 407.639L847.747 397.5C847.747 397.5 866.179 393.002 860.035 407.211C853.891 421.42 832.316 434.2 824.315 437.842C822.51 438.665 820.305 439.817 817.171 441.064C784.423 454.031 733.005 448.114 729.123 447.624C683.03 441.826 659.984 438.927 646.062 424.966C626.192 405.05 624.602 377.931 624.154 370.32C622.073 335.376 640.419 310.71 645.553 304.25Z" fill="#0D3E66" stroke="black" stroke-width="5" stroke-miterlimit="10"/>
<path d="M736.854 448.4L771.993 449.166C771.993 449.166 812.704 429.916 800.702 383.791C788.7 337.666 782.899 319.673 770.083 309.82C776.122 306.664 781.751 302.78 786.843 298.253C790.429 295.059 797.53 288.732 802.131 279.974C810.494 264.028 806.894 246.996 805.131 240.465C805.131 240.465 804.56 203.86 777.127 189.294C773.598 187.424 764.601 182.668 753.39 184.23C737.783 186.4 728.586 199.328 721.509 209.277C710.735 224.428 706.906 240.07 705.482 250.914C705.482 250.914 701.258 200.147 681.254 187.152C661.251 174.157 638.752 190.737 628.865 210.724C628.865 210.724 623.188 244.997 624.65 255.407L624.407 264.899C624.407 264.899 624.15 273.2 624.502 275.428C624.855 277.656 628.07 287.752 629.508 289.932C630.946 292.112 637.09 298.805 637.09 298.805L645.544 304.25C645.544 304.25 617.373 339.365 624.741 377.789C632.108 416.212 644.787 423.695 644.787 423.695C648.066 426.901 651.692 429.731 655.598 432.135C665.89 438.456 675.43 440.079 682.197 441.179C703.82 444.625 722.68 446.905 736.854 448.4Z" fill="#BAEAFF" stroke="black" stroke-width="3" stroke-linejoin="round"/>
<path d="M609.547 331.668C609.547 331.668 602.688 316.545 618.977 315.117C635.265 313.689 746.426 319.401 746.426 319.401C746.426 319.401 759.761 318.735 763.762 330.921C767.762 343.107 781.955 396.515 781.955 396.515C781.955 396.515 788.813 412.889 771.858 416.412C754.903 419.934 669.461 410.129 669.461 410.129C669.461 410.129 634.312 416.126 628.597 397.086L622.882 378.046L609.547 331.668Z" fill="#424242" stroke="black" stroke-miterlimit="10"/>
<path d="M794.244 324.242C784.748 335.261 773.24 344.373 760.334 351.089C758.872 351.96 755.828 354.064 755.061 357.563C753.975 362.533 758.224 366.969 760.334 369.178C768.868 378.103 784.861 382.358 799.516 378.698C814.795 374.89 823.439 363.803 826.249 359.824" fill="#0D3E66"/>
<path d="M826.671 360.148C826.671 360.148 826.419 360.576 825.895 361.371C825.371 362.166 824.576 363.323 823.457 364.756C820.258 368.821 816.424 372.345 812.102 375.19C809.068 377.174 805.798 378.773 802.368 379.95C798.401 381.293 794.264 382.065 790.08 382.244L788.413 382.311L786.722 382.277C785.589 382.277 784.45 382.163 783.293 382.068C782.712 382.035 782.136 381.939 781.555 381.859L779.807 381.601L778.059 381.235L777.178 381.049C776.883 380.983 776.597 380.897 776.301 380.816L774.544 380.34C773.958 380.164 773.382 379.95 772.796 379.755C771.62 379.383 770.486 378.845 769.324 378.369C766.994 377.288 764.777 375.978 762.704 374.461C760.655 372.902 758.78 371.126 757.113 369.163C755.474 367.231 753.931 365.022 753.16 362.318C752.763 360.938 752.653 359.492 752.836 358.068C753.026 356.67 753.513 355.329 754.265 354.136C754.97 353.042 755.841 352.064 756.846 351.237C757.773 350.462 758.79 349.802 759.875 349.271C766.544 346.06 772.919 342.271 778.926 337.947C783.003 335.002 786.905 331.824 790.613 328.427C791.933 327.218 792.942 326.256 793.619 325.599L794.652 324.595C794.652 324.595 794.347 324.985 793.776 325.737C793.204 326.489 792.347 327.575 791.166 328.945C787.867 332.829 784.285 336.463 780.45 339.817C777.792 342.143 775.02 344.334 772.144 346.382C770.586 347.486 768.953 348.59 767.229 349.676C766.371 350.213 765.49 350.756 764.59 351.285L763.223 352.079L761.856 352.846C760.3 353.671 758.987 354.889 758.046 356.378C757.641 357.065 757.389 357.832 757.307 358.625C757.225 359.419 757.314 360.22 757.57 360.976C758.079 362.647 759.246 364.36 760.68 365.988C762.143 367.667 763.772 369.193 765.543 370.544C767.349 371.866 769.271 373.023 771.286 374C772.315 374.433 773.306 374.952 774.354 375.285C774.868 375.475 775.378 375.68 775.901 375.851L777.468 376.327C777.73 376.403 777.983 376.494 778.249 376.561L779.035 376.756L780.607 377.141L782.183 377.432C782.707 377.527 783.226 377.636 783.75 377.689C784.798 377.817 785.832 377.974 786.865 378.022L788.403 378.131H789.932C797.207 378.227 804.389 376.497 810.821 373.1C813.33 371.776 815.72 370.239 817.965 368.506C819.683 367.189 821.316 365.766 822.857 364.246C824.128 362.985 825.076 361.957 825.714 361.238C826.352 360.519 826.671 360.148 826.671 360.148Z" fill="black" stroke="black" stroke-width="0.33" stroke-miterlimit="10"/>
<path d="M625.834 333.382C625.834 333.382 623.358 330.145 628.501 329.479C633.645 328.812 734.899 334.239 734.899 334.239C734.899 334.239 739.186 333.572 740.329 338.808C741.472 344.044 755.569 397.357 755.569 397.357C755.569 397.357 757.284 401.641 752.521 401.641C747.759 401.641 657.363 395.834 657.363 395.834L649.933 394.882C649.933 394.882 644.694 395.358 643.17 389.932C641.646 384.505 632.026 354.15 632.026 354.15L625.834 333.382Z" fill="#191919" stroke="black" stroke-width="3" stroke-miterlimit="10"/>
<path d="M690.555 240.465C690.555 240.465 703.085 229.136 714.42 240.465" stroke="black" stroke-width="9" stroke-miterlimit="10"/>
<path d="M784.055 233.477C790.37 232.016 795.29 230.621 798.571 229.631C803.091 228.265 806.668 227.022 811.164 228.055C811.55 228.146 816.107 229.231 816.15 230.911C816.179 231.978 814.388 232.911 812.912 233.477C805.101 236.466 785.931 240.465 785.931 240.465L784.055 233.477Z" fill="black" stroke="black" stroke-width="3.48" stroke-miterlimit="10"/>
<path d="M665.486 266.55C669.628 266.55 672.987 262.299 672.987 257.054C672.987 251.809 669.628 247.558 665.486 247.558C661.343 247.558 657.984 251.809 657.984 257.054C657.984 262.299 661.343 266.55 665.486 266.55Z" fill="black" stroke="black" stroke-width="3.87" stroke-miterlimit="10"/>
<path d="M747.384 267.693C751.527 267.693 754.885 263.441 754.885 258.196C754.885 252.952 751.527 248.7 747.384 248.7C743.241 248.7 739.883 252.952 739.883 258.196C739.883 263.441 743.241 267.693 747.384 267.693Z" fill="black" stroke="black" stroke-width="3.87" stroke-miterlimit="10"/>
<path d="M645.277 288.399C652.581 288.399 658.503 282.159 658.503 274.462C658.503 266.764 652.581 260.524 645.277 260.524C637.972 260.524 632.051 266.764 632.051 274.462C632.051 282.159 637.972 288.399 645.277 288.399Z" fill="#F4A127" stroke="black" stroke-width="2" stroke-miterlimit="10"/>
<path d="M770.101 290.97C777.405 290.97 783.327 284.729 783.327 277.032C783.327 269.335 777.405 263.094 770.101 263.094C762.796 263.094 756.875 269.335 756.875 277.032C756.875 284.729 762.796 290.97 770.101 290.97Z" fill="#F4A127" stroke="black" stroke-width="2" stroke-miterlimit="10"/>
<path d="M715.944 272.643C715.944 272.643 694.512 282.259 685.558 276.356C676.604 270.454 678.619 263.366 681.462 260.524C684.305 257.682 692.226 248.367 701.37 250.08C703.094 250.404 706.738 250.628 710.114 253.246C715.334 257.292 717.492 264.77 715.944 272.643Z" fill="#FA8510" stroke="black" stroke-width="2" stroke-miterlimit="10"/>
<path d="M695.718 282.402C695.718 282.402 707.149 286.686 712.864 278.974L715.631 272.786C715.631 272.786 701.343 279.688 691.499 278.189C691.484 278.189 691.737 280.545 695.718 282.402Z" fill="#FA8510" stroke="black" stroke-width="2" stroke-miterlimit="10"/>
<path d="M665.485 444.911C660.246 449.561 641.267 441.469 631.408 427.06C626.141 419.363 621.997 407.706 625.693 404.402C628.155 402.208 634.304 403.507 637.685 406.425C640.019 408.444 641.705 411.814 641.629 411.88C641.553 411.947 641.472 411.852 641.472 411.852C641.472 411.852 637.4 399 643.377 399.357C648.835 399.68 653.916 405.069 654.807 406.068C659.055 410.828 660.851 415.236 664.38 423.885C666.509 429.121 666.995 431.302 667.209 433.406C667.562 436.571 668.157 442.535 665.485 444.911Z" fill="#FA8510" stroke="black" stroke-width="2" stroke-miterlimit="10"/>
<path d="M754.142 453.907C754.142 453.907 739.949 449.909 732.519 433.724C725.089 417.54 729.138 410.733 730.043 409.829C730.947 408.924 733.186 405.925 738.806 408.924C744.426 411.923 744.426 417.164 744.426 417.164C744.489 415.268 744.752 413.383 745.212 411.542C745.397 410.833 747.117 406.782 750.141 405.925C754.194 404.783 758.685 410.033 760.39 412.033C766.868 419.601 767.572 428.655 767.901 433.82C768.377 441.179 768.773 447.462 764.419 451.232C761.028 454.164 756.433 454.112 754.142 453.907Z" fill="#FA8510" stroke="black" stroke-width="2" stroke-miterlimit="10"/>
<path d="M656.002 280.83C675.082 280.83 690.55 264.122 690.55 243.511C690.55 222.901 675.082 206.192 656.002 206.192C636.921 206.192 621.453 222.901 621.453 243.511C621.453 264.122 636.921 280.83 656.002 280.83Z" stroke="black" stroke-width="9" stroke-miterlimit="10"/>
<path d="M750.428 283.049C770.313 283.049 786.433 266.703 786.433 246.539C786.433 226.375 770.313 210.029 750.428 210.029C730.542 210.029 714.422 226.375 714.422 246.539C714.422 266.703 730.542 283.049 750.428 283.049Z" stroke="black" stroke-width="9" stroke-miterlimit="10"/>
<path d="M1070.67 399.838C1068.55 399.838 1066.39 399.776 1064.23 399.653C1061.23 398.9 1060.51 398.082 1060.42 397.53C1060.24 396.23 1063.07 393.131 1083.97 387.005C1100.1 382.269 1124.83 376.352 1157.45 369.393H1157.5C1157.96 369.226 1158.44 369.137 1158.93 369.131C1159.37 369.116 1159.81 369.237 1160.19 369.478C1160.69 369.834 1161.03 370.368 1161.14 370.968C1161.47 373.529 1149.97 377.756 1140.73 381.155L1140.48 381.245C1130.93 384.758 1126.14 386.519 1125.2 386.834C1104.85 393.774 1093.64 397.591 1086.02 398.734C1080.95 399.478 1075.83 399.85 1070.7 399.848L1070.67 399.838Z" fill="#090110"/>
<path d="M1158.9 369.516C1159.27 369.502 1159.63 369.6 1159.95 369.797C1160.35 370.095 1160.62 370.531 1160.71 371.02C1160.75 371.335 1160.46 372.544 1155.07 375.062C1151.4 376.775 1146.53 378.594 1140.55 380.774C1130.84 384.344 1125.97 386.134 1125.03 386.453C1104.7 393.383 1093.5 397.196 1085.92 398.32C1080.86 399.064 1075.76 399.436 1070.65 399.433C1068.54 399.433 1066.39 399.367 1064.27 399.248C1061.08 398.443 1060.82 397.615 1060.79 397.453C1060.77 397.291 1060.87 395.992 1066.03 393.617C1069.95 391.813 1076.03 389.704 1084.05 387.348C1100.18 382.621 1124.89 376.704 1157.51 369.764H1157.55H1157.6C1158.01 369.613 1158.45 369.531 1158.88 369.521M1158.88 368.755C1158.36 368.765 1157.84 368.861 1157.35 369.04C1091.77 383.003 1059.33 392.523 1060.01 397.601C1060.14 398.581 1061.52 399.398 1064.13 400.052C1066.41 400.185 1068.58 400.243 1070.63 400.243C1075.78 400.249 1080.92 399.875 1086.01 399.124C1093.51 398.015 1104.19 394.402 1125.26 387.224C1126.21 386.9 1131.06 385.115 1140.79 381.512C1151.78 377.475 1161.81 373.724 1161.46 370.921C1161.33 370.213 1160.94 369.581 1160.36 369.159C1159.92 368.875 1159.41 368.731 1158.88 368.745V368.755Z" fill="#090110"/>
<path d="M1063.92 394.892L1083.4 383.468C1083.4 383.468 1093.5 387.467 1086.78 395.749L1063.92 394.892Z" fill="#EFA87C" stroke="black" stroke-width="2" stroke-miterlimit="10"/>
<path d="M1152.08 366.475L1083.4 383.468C1083.4 383.468 1093.35 387.609 1086.78 395.749L1154.08 373.186C1157.63 372.292 1159.39 369.526 1158.94 368.046C1158.48 366.565 1155.5 365.27 1152.08 366.475Z" fill="#D78147" stroke="black" stroke-width="2" stroke-linecap="round" stroke-linejoin="round"/>
<path d="M1073.23 389.428L1073.95 395.268L1063.92 394.892L1073.23 389.428Z" fill="black"/>
<path d="M1087.46 385.777C1088.22 386.517 1088.79 387.423 1089.14 388.422C1089.49 389.421 1089.6 390.487 1089.46 391.537L1158.25 369.64C1158.4 369.445 1158.5 369.215 1158.55 368.971C1158.6 368.727 1158.59 368.475 1158.52 368.236C1158.44 367.998 1158.32 367.78 1158.14 367.601C1157.97 367.422 1157.76 367.287 1157.52 367.208L1087.46 385.777Z" fill="#B25210"/>
<path d="M1073.46 391.265L1073.75 393.645L1088.45 391.77C1088.66 390.806 1088.62 389.804 1088.34 388.859C1088.05 387.913 1087.53 387.056 1086.83 386.367L1073.46 391.265Z" fill="#C18463"/>
<path d="M228.557 452.723C220.992 452.708 213.448 451.931 206.039 450.405C203.015 449.167 202.386 448.206 202.391 447.615C202.391 446.23 205.829 443.417 228.585 440.166C246.174 437.652 272.921 435.196 308.079 432.864H308.131C308.453 432.799 308.78 432.765 309.108 432.764C309.761 432.726 310.404 432.937 310.908 433.354C311.364 433.806 311.631 434.413 311.656 435.053C311.608 437.781 298.949 440.466 288.795 442.622C278.103 444.888 272.74 446.025 271.702 446.216C249.374 450.395 237.072 452.699 228.943 452.728L228.557 452.723Z" fill="#090110"/>
<path d="M309.141 433.164C309.692 433.124 310.239 433.294 310.67 433.64C311.042 434.009 311.262 434.505 311.284 435.03C311.284 435.363 310.808 436.586 304.774 438.404C300.683 439.642 295.315 440.813 288.723 442.213C278.036 444.478 272.669 445.616 271.64 445.811C249.336 449.986 237.048 452.285 228.957 452.313H228.561C221.042 452.297 213.542 451.525 206.177 450.01C202.972 448.691 202.814 447.782 202.814 447.629C202.814 447.477 203.124 446.111 208.896 444.407C213.264 443.117 219.922 441.827 228.68 440.599C246.259 438.09 272.973 435.634 308.146 433.302H308.198H308.25C308.545 433.24 308.845 433.208 309.146 433.206M309.146 432.392C308.791 432.395 308.437 432.432 308.088 432.502C237.417 437.173 202.054 442.206 202 447.601C202 448.648 203.313 449.71 205.939 450.785C213.381 452.328 220.961 453.111 228.561 453.123H228.957C236.963 453.094 248.679 450.933 271.792 446.606C272.826 446.416 278.179 445.278 288.89 443.007C300.983 440.442 312.042 438.038 312.099 435.053C312.078 434.295 311.761 433.574 311.218 433.045C310.636 432.562 309.896 432.312 309.141 432.345L309.146 432.392Z" fill="#090110"/>
<path d="M205.473 445.135C205.473 445.135 224.476 435.996 226.333 436.567C228.191 437.138 232.334 442.85 228.476 448.705C220.63 449.479 212.715 448.251 205.473 445.135Z" fill="#EFA87C" stroke="black" stroke-width="2" stroke-miterlimit="10"/>
<path d="M228.475 448.705L306.488 437.424C316.061 429.57 305.059 425 305.059 425L226.094 436.567C226.094 436.567 233.238 440.185 228.475 448.705Z" fill="#D78147" stroke="black" stroke-width="2" stroke-linecap="round" stroke-linejoin="round"/>
<path d="M230.381 441.256C230.438 441.565 230.49 441.898 230.524 442.255C230.581 442.825 230.597 443.397 230.571 443.969C242.954 442.322 255.545 440.515 268.344 438.547C282.019 436.437 295.417 434.216 308.536 431.883C309.174 431.54 309.779 431.126 309.708 430.812C309.636 430.498 308.636 430.36 308.279 430.336C306.055 430.179 266.163 435.963 230.381 441.256Z" fill="#BC6022"/>
<path d="M217.301 443.212C217.353 443.712 217.41 444.212 217.463 444.707L229.584 443.56C229.662 443.157 229.662 442.744 229.584 442.341C229.524 442.045 229.425 441.758 229.288 441.489L217.301 443.212Z" fill="#CC9275"/>
<path d="M216.179 440.204C217.286 442.786 217.528 445.656 216.869 448.386C213.116 447.775 209.443 446.75 205.915 445.33L205.539 445.169L216.079 440.242" fill="black"/>
<path d="M1044.07 446.125C1037.69 445.416 1031.29 444.549 1025.01 443.55C1017.18 442.298 1011.15 441.06 999.115 438.594C997.305 438.223 997.158 438.185 996.81 438.118C996.462 438.052 995.715 437.833 992.014 437.019L991.033 436.8C987.223 435.962 985.794 435.648 983.889 434.791C978.898 432.53 978.302 431.221 978.393 430.645C978.536 429.722 980.817 428.665 984.894 428.432C986.323 428.551 1036.04 432.692 1043.28 435.886H1043.32L1045.58 436.329C1047.18 437.566 1050.99 441.089 1050.34 443.431C1049.91 444.878 1047.76 445.811 1044.07 446.125Z" fill="#090110"/>
<path d="M984.895 428.798C986.8 428.955 1035.99 433.082 1043.13 436.219L1043.21 436.253H1043.29L1045.41 436.671C1046.92 437.847 1050.55 441.222 1049.95 443.307C1049.58 444.583 1047.57 445.416 1044.07 445.72C1037.72 445.011 1031.33 444.149 1025.08 443.15C1017.25 441.903 1011.22 440.665 999.197 438.199C997.392 437.828 997.249 437.795 996.906 437.723C996.563 437.652 995.806 437.443 992.096 436.624L991.105 436.405C987.214 435.553 985.904 435.262 984.056 434.425C978.736 432.016 978.76 430.812 978.779 430.683C978.875 430.06 980.884 429.031 984.895 428.779M984.895 428.008C981.156 428.222 978.227 429.174 978.013 430.545C977.727 432.383 982.404 434.506 983.728 435.105C985.809 436.057 987.29 436.333 991.924 437.357C998.892 438.89 995.149 438.157 999.03 438.951C1011.08 441.422 1017.13 442.66 1024.95 443.911C1030.03 444.721 1036.49 445.654 1044.05 446.491C1058.14 445.301 1045.73 435.953 1045.73 435.953L1043.43 435.477C1035.98 432.192 984.895 427.989 984.895 427.989V428.008Z" fill="#090110"/>
<path d="M1062.07 456.583C1052.62 456.583 1047.78 450.257 1047.73 450.19C1040.71 440.641 1045.96 435.348 1046.02 435.296C1050.5 431.859 1054.89 430.103 1059.01 430.103C1066.86 430.103 1071.71 436.324 1073.53 438.671C1073.79 439.004 1074 439.247 1074.12 439.394C1075.84 441.213 1080.17 444.944 1084.16 446.015C1085.89 446.491 1086.27 446.887 1086.35 447.091C1086.42 447.296 1086.27 447.534 1086.03 447.886C1085.87 448.101 1085.74 448.34 1085.65 448.595C1085.29 449.924 1079.85 452.218 1069.46 455.412C1067.07 456.169 1064.58 456.566 1062.07 456.588V456.583Z" fill="#090110"/>
<path d="M1059.02 430.483C1066.67 430.483 1071.43 436.6 1073.23 438.904C1073.49 439.246 1073.7 439.494 1073.84 439.651C1075.59 441.503 1079.99 445.287 1084.06 446.382C1085.61 446.796 1085.93 447.134 1085.97 447.21C1085.9 447.378 1085.81 447.538 1085.7 447.686C1085.51 447.934 1085.36 448.212 1085.27 448.51C1085.09 449.181 1082.78 450.923 1069.33 455.059C1066.98 455.803 1064.53 456.193 1062.06 456.216C1052.82 456.216 1048.07 450.028 1048.03 449.985C1041.42 441.003 1045.82 436.062 1046.25 435.615C1050.68 432.225 1054.97 430.502 1059 430.502M1059 429.736C1055.24 429.736 1050.81 431.14 1045.74 435.039C1045.74 435.039 1040.1 440.503 1047.41 450.437C1047.41 450.437 1052.29 456.983 1062.06 456.983C1064.61 456.963 1067.13 456.562 1069.56 455.793C1084.32 451.251 1085.75 449.604 1086.01 448.71C1086.27 447.815 1088.3 446.744 1084.25 445.658C1080.2 444.573 1075.8 440.636 1074.38 439.142C1073.38 438.08 1068.17 429.736 1059 429.736Z" fill="#090110"/>
<path d="M1064.22 453.251C1062.45 453.255 1060.69 453.046 1058.98 452.627C1057.03 452.151 1052.49 451.023 1049.71 447.153C1048.28 445.139 1047.06 442.026 1047.61 439.618C1047.68 439.353 1047.77 439.096 1047.89 438.851C1049.19 435.948 1052.6 434.958 1053.88 434.567C1055.06 434.241 1056.28 434.081 1057.51 434.091C1060.31 434.147 1063.05 434.857 1065.52 436.167C1067.47 437.223 1068.37 438.199 1069.64 439.556C1071.15 441.228 1072.82 442.76 1074.6 444.135C1076.48 445.581 1078.45 446.887 1080.51 448.043C1077.24 450.128 1071.17 453.251 1064.22 453.251Z" fill="#090110"/>
<path d="M1057.53 433.696V434.468C1060.26 434.521 1062.94 435.215 1065.35 436.495C1067.26 437.523 1068.14 438.48 1069.38 439.827C1070.91 441.515 1072.58 443.062 1074.38 444.449C1076.1 445.776 1077.9 446.985 1079.78 448.067C1076.45 450.123 1070.73 452.889 1064.22 452.889C1062.49 452.891 1060.77 452.685 1059.09 452.275C1057.19 451.799 1052.73 450.704 1050.04 446.948C1048.65 445.006 1047.48 442.017 1048.01 439.723C1048.07 439.484 1048.15 439.251 1048.26 439.028V438.985C1049.46 436.286 1052.75 435.329 1053.97 434.972C1055.12 434.648 1056.3 434.488 1057.49 434.496V433.696M1057.49 433.696C1056.23 433.692 1054.97 433.866 1053.76 434.215C1052.48 434.586 1048.89 435.643 1047.53 438.652C1047.4 438.933 1047.29 439.228 1047.22 439.532C1046.63 442.103 1047.89 445.301 1049.38 447.377C1052.23 451.366 1056.87 452.508 1058.87 452.999C1060.61 453.426 1062.39 453.64 1064.18 453.636C1072.31 453.636 1079.13 449.405 1081.24 448.005C1078.99 446.787 1076.84 445.388 1074.82 443.821C1069.55 439.737 1069.46 437.866 1065.68 435.819C1063.16 434.478 1060.35 433.75 1057.49 433.696Z" fill="#090110"/>
<path d="M986.866 424C986.866 424 1034.94 427.951 1041.95 431.045L1044.11 431.469C1044.11 431.469 1055.78 440.27 1042.52 441.389C1035.41 440.598 1029.33 439.723 1024.55 438.961C1017.18 437.78 1011.5 436.619 1000.17 434.296C996.515 433.549 1000.03 434.234 993.5 432.792C989.142 431.84 987.747 431.559 985.789 430.674C984.546 430.112 980.141 428.113 980.412 426.39C980.608 425.095 983.346 424.195 986.866 424Z" fill="#F25814" stroke="black" stroke-width="1.58" stroke-miterlimit="10"/>
<path d="M1045.69 445.068C1045.69 445.068 1052.63 454.379 1066.53 450.104C1080.43 445.83 1081.77 444.264 1082.01 443.44C1082.25 442.617 1084.16 441.589 1080.35 440.584C1076.54 439.58 1072.4 435.857 1071.06 434.453C1069.73 433.049 1060.52 417.998 1044.11 430.588C1044.11 430.574 1038.81 435.719 1045.69 445.068Z" fill="#A38472" stroke="#090110" stroke-width="2.37" stroke-miterlimit="10"/>
<path d="M1045.83 433.991C1047.1 431.135 1050.48 430.183 1051.68 429.817C1057.07 428.26 1062.16 430.916 1062.9 431.326C1066.46 433.258 1066.54 435.015 1071.5 438.856C1073.4 440.332 1075.42 441.648 1077.54 442.793C1075.16 444.387 1066.23 449.9 1056.49 447.496C1054.61 447.02 1050.25 445.953 1047.56 442.203C1046.16 440.251 1044.97 437.238 1045.53 434.82C1045.6 434.534 1045.7 434.256 1045.83 433.991Z" fill="#C4AEA3"/>
<path d="M1050.57 435.505C1051.43 433.601 1053.69 432.935 1054.5 432.701C1058.12 431.654 1061.52 433.439 1062.03 433.715C1064.42 435.01 1064.48 436.191 1067.81 438.771C1069.09 439.76 1070.44 440.644 1071.86 441.412C1070.25 442.483 1064.27 446.172 1057.73 444.568C1056.47 444.259 1053.54 443.535 1051.74 441.017C1050.78 439.704 1050 437.685 1050.38 436.062C1050.42 435.87 1050.49 435.684 1050.57 435.505Z" fill="#EAD7CE"/>
<path d="M981.366 425.776C991.097 426.972 1000.94 428.256 1010.89 429.627C1021.34 431.067 1031.62 432.573 1041.76 434.144C1041.53 435.186 1041.5 436.26 1041.66 437.314L981.085 427.113C980.937 427.038 980.824 426.911 980.765 426.756C980.729 426.632 980.729 426.5 980.765 426.375C980.809 426.184 980.921 426.015 981.08 425.899C981.165 425.839 981.263 425.797 981.366 425.776Z" fill="#C13600"/>
<path d="M308.164 400.766L355.476 376.375L444.9 393.254L398.617 423.3L308.164 400.766Z" fill="black" stroke="black" stroke-width="2.19" stroke-miterlimit="10"/>
<path d="M305 398.514L354.503 373L448.061 390.655L399.639 422.091L305 398.514Z" fill="#FFEDCB" stroke="black" stroke-width="2.29" stroke-miterlimit="10"/>
<path d="M344.707 396.681C347.365 394.463 360 384.001 368.52 380.235C371.416 378.955 373.836 378.446 375.812 379.507C377.508 380.411 378.284 382.158 378.636 383.177L378.979 393.307C378.979 393.307 377.736 397.024 382.356 395.168C386.976 393.311 387.523 393.307 387.523 393.307C387.523 393.307 392.286 390.341 393.386 396.339C394.486 402.336 393.386 408.463 393.386 408.463L344.707 396.681Z" fill="#FFDAA4"/>
<path d="M391.995 414.375C391.995 414.375 377.44 412.075 359.895 407.577C342.349 403.079 328.461 398.081 328.461 398.081C328.461 398.081 343.016 400.38 360.557 404.878C378.097 409.376 391.995 414.375 391.995 414.375Z" fill="#FFDAA4" stroke="#FFDAA4" stroke-width="0.19" stroke-miterlimit="10"/>
<path d="M216.137 398.47C196.21 398.47 182.822 395.109 182.822 391.967C182.822 388.826 196.21 385.46 216.137 385.46C236.064 385.46 249.452 388.826 249.452 391.967C249.452 395.109 236.064 398.47 216.137 398.47Z" fill="#090110"/>
<path d="M216.138 385.822C236.551 385.822 249.086 389.402 249.086 391.967C249.086 394.533 236.551 398.108 216.138 398.108C195.725 398.108 183.185 394.528 183.185 391.967C183.185 389.406 195.715 385.822 216.138 385.822ZM216.138 385.098C197.54 385.098 182.461 388.174 182.461 391.967C182.461 395.761 197.54 398.817 216.138 398.817C234.736 398.817 249.815 395.742 249.815 391.953C249.815 388.164 234.736 385.084 216.138 385.084V385.098Z" fill="#090110"/>
<path d="M188.594 346.328C177.902 346.385 169.543 355.419 170.019 365.416C170.543 375.75 180.407 384.023 191.351 382.409C191.242 381.543 191.08 380.296 190.875 378.801C190.094 373.508 189.718 372.798 189.108 372.37C187.717 371.394 186.527 372.879 184.26 372.242C181.488 371.456 179.826 368.253 179.316 365.92C178.745 363.288 179.116 359.404 181.526 357.647C184.041 355.805 187.165 357.485 188.341 355.615C188.861 354.786 188.475 354.11 188.341 351.564C188.261 349.814 188.345 348.061 188.594 346.328Z" fill="#70432D" stroke="black" stroke-width="2.58" stroke-miterlimit="10"/>
<path d="M189.075 341.244C189.304 339.34 192.6 338.031 195.638 336.551C198.577 335.122 201.515 334.442 212.055 334.361C227.843 334.232 231.544 335.665 233.378 336.489C236.059 337.705 238.546 339.309 240.76 341.249C240.76 341.249 244.313 370 233.706 391.429C233.706 391.429 211.741 400.474 194.328 389.297C194.328 389.297 185.794 368.633 189.075 341.244Z" fill="#70432D" stroke="black" stroke-width="3.45" stroke-miterlimit="10"/>
<path d="M236.059 341.749L234.63 342.701C233.282 343.52 231.86 344.212 230.382 344.766C228.181 345.573 225.899 346.14 223.576 346.456C220.736 346.843 217.865 346.953 215.003 346.785C212.155 346.633 209.321 346.283 206.521 345.737C203.94 345.261 201.649 344.657 199.749 344.1C197.848 343.543 196.334 343.024 195.296 342.643C194.257 342.263 193.695 342.025 193.695 342.025C193.695 342.025 194.276 342.201 195.343 342.501C196.41 342.801 197.953 343.186 199.877 343.61C201.801 344.033 204.097 344.49 206.664 344.881C209.442 345.319 212.242 345.611 215.051 345.757C217.855 345.923 220.667 345.87 223.462 345.599C225.746 345.377 228.004 344.939 230.206 344.29C231.698 343.842 233.149 343.268 234.545 342.577L236.059 341.749Z" fill="black" stroke="black" stroke-width="0.07" stroke-miterlimit="10"/>
<path d="M231.683 343.948C235.016 342.334 222.567 341.092 215.49 341.163C210.206 341.219 204.971 342.185 200.016 344.019C200.016 344.019 220.543 349.312 231.683 343.948Z" fill="#3D2014"/>
<path d="M231.705 343.995L231.096 344.276C230.512 344.545 229.914 344.782 229.305 344.985C227.06 345.714 224.738 346.176 222.385 346.361C218.896 346.637 215.389 346.599 211.907 346.247C209.935 346.066 207.878 345.794 205.754 345.437C204.69 345.257 203.615 345.055 202.529 344.833C201.972 344.714 201.462 344.604 200.862 344.466C200.262 344.328 199.81 344.209 199.295 344.076H199.195L199.286 344.038L199.476 343.971L199.862 343.829L200.629 343.553L201.548 343.238L202.358 342.986C202.901 342.819 203.439 342.667 203.977 342.51C205.053 342.221 206.123 341.979 207.187 341.782C209.217 341.393 211.271 341.145 213.336 341.039C215.312 340.944 217.193 340.987 218.946 341.073C220.699 341.158 222.332 341.277 223.818 341.425C226.169 341.608 228.5 341.991 230.786 342.567C231.14 342.665 231.483 342.799 231.81 342.967C232.086 343.105 232.315 343.343 232.186 343.524C232.094 343.652 231.971 343.755 231.829 343.824L231.681 343.895L231.829 343.819C231.965 343.746 232.081 343.642 232.167 343.514C232.277 343.348 232.063 343.143 231.791 343.01C231.461 342.854 231.116 342.731 230.762 342.643C228.469 342.14 226.139 341.821 223.795 341.691C222.313 341.577 220.684 341.482 218.932 341.43C217.179 341.377 215.317 341.368 213.359 341.487C211.311 341.61 209.272 341.871 207.259 342.267C206.215 342.467 205.153 342.715 204.091 343C203.558 343.143 203.025 343.3 202.491 343.476L201.691 343.729L201 343.962H200.962H201.015L202.615 344.314C203.696 344.547 204.768 344.752 205.82 344.933C207.925 345.304 209.973 345.595 211.931 345.799C215.393 346.193 218.882 346.29 222.361 346.09C224.712 345.958 227.04 345.559 229.3 344.9C230.096 344.643 230.729 344.424 231.11 344.247L231.705 343.995Z" fill="black" stroke="black" stroke-width="0.04" stroke-miterlimit="10"/>
<path d="M208.698 298.341C209.941 302.849 213.737 306.643 214.632 307.504C218.471 311.198 220.8 310.836 222.953 314.354C223.134 314.649 225.81 319.114 224.653 324.222C223.815 327.982 221.086 331.233 221.69 331.7C221.833 331.814 222.095 331.7 222.214 331.652C228.882 328.701 231.073 323.56 231.073 323.56C232.954 319.109 232.44 313.702 230.168 309.623C226.567 303.144 220.276 303.149 219.552 297.722C219.352 296.199 219.785 294.595 220.652 291.391C221.871 286.903 223.534 286.036 223.691 283.123C223.834 280.448 222.786 276.602 220.833 276.069C216.671 274.936 205.864 288.036 208.698 298.341Z" fill="#CCCAAF"/>
<path d="M208.232 318.781L205.479 315.42C205.479 315.42 202.031 306.729 209.822 312.055C217.614 317.382 217.624 324.274 217.624 324.274C217.624 324.274 217.247 328.496 216.143 329.601C215.038 330.705 214.014 326.745 213.356 326.078C212.699 325.412 210.48 319.438 208.232 318.781Z" fill="#CCCAAF"/>
<path d="M934.13 106.229H875.049C871.708 106.229 869 108.936 869 112.275V173.813C869 177.152 871.708 179.858 875.049 179.858H934.13C937.47 179.858 940.178 177.152 940.178 173.813V112.275C940.178 108.936 937.47 106.229 934.13 106.229Z" fill="#FDCB93" stroke="#090110" stroke-width="3.74" stroke-miterlimit="10"/>
<path d="M921.76 117.501H890.26C888.442 117.501 886.969 118.974 886.969 120.79V122.747C886.969 124.563 888.442 126.036 890.26 126.036H921.76C923.578 126.036 925.051 124.563 925.051 122.747V120.79C925.051 118.974 923.578 117.501 921.76 117.501Z" fill="#E5A76A"/>
<path d="M914.34 138.774H879.535C878.63 138.774 877.896 139.506 877.896 140.409C877.896 141.312 878.63 142.044 879.535 142.044H914.34C915.245 142.044 915.979 141.312 915.979 140.409C915.979 139.506 915.245 138.774 914.34 138.774Z" fill="#E5A76A"/>
<path d="M914.34 145.357H879.535C878.63 145.357 877.896 146.089 877.896 146.992C877.896 147.895 878.63 148.627 879.535 148.627H914.34C915.245 148.627 915.979 147.895 915.979 146.992C915.979 146.089 915.245 145.357 914.34 145.357Z" fill="#E5A76A"/>
<path d="M913.464 151.936H880.411C879.022 151.936 877.896 153.061 877.896 154.449V157.138C877.896 158.526 879.022 159.652 880.411 159.652H913.464C914.853 159.652 915.979 158.526 915.979 157.138V154.449C915.979 153.061 914.853 151.936 913.464 151.936Z" fill="#E5A76A"/>
<path d="M913.983 162.251H879.892C878.79 162.251 877.896 163.144 877.896 164.245V165.131C877.896 166.232 878.79 167.125 879.892 167.125H913.983C915.085 167.125 915.979 166.232 915.979 165.131V164.245C915.979 163.144 915.085 162.251 913.983 162.251Z" fill="#E5A76A"/>
<path d="M932.553 137.974H922.356C920.896 137.974 919.713 139.157 919.713 140.616V156.301C919.713 157.76 920.896 158.943 922.356 158.943H932.553C934.013 158.943 935.196 157.76 935.196 156.301V140.616C935.196 139.157 934.013 137.974 932.553 137.974Z" fill="#E5A76A"/>
<path d="M909.616 96H898.947V110.851H909.616V96Z" fill="#6B4522"/>
<path d="M1356.85 166.931L1295.29 164.165C1294.39 164.126 1293.51 163.903 1292.7 163.511C1291.9 163.119 1291.18 162.566 1290.59 161.885C1290.01 161.204 1289.57 160.411 1289.3 159.554C1289.03 158.697 1288.94 157.794 1289.04 156.901L1297.79 74.485C1297.96 72.8691 1298.73 71.374 1299.94 70.2876C1301.14 69.2013 1302.71 68.6007 1304.34 68.6016H1361.76C1362.65 68.6016 1363.54 68.7836 1364.36 69.1366C1365.18 69.4896 1365.92 70.0061 1366.54 70.6546C1367.15 71.3032 1367.63 72.0701 1367.94 72.9087C1368.24 73.7473 1368.38 74.64 1368.33 75.5322L1363.72 160.738C1363.62 162.466 1362.84 164.085 1361.56 165.245C1360.27 166.404 1358.58 167.01 1356.85 166.931Z" fill="#FFE6BF" stroke="black" stroke-width="2.95" stroke-miterlimit="10"/>
<path d="M1346.5 86.1853H1316.41C1313.93 86.1853 1311.92 88.1971 1311.92 90.6788V104.45C1311.92 106.931 1313.93 108.943 1316.41 108.943H1346.5C1348.98 108.943 1350.99 106.931 1350.99 104.45V90.6788C1350.99 88.1971 1348.98 86.1853 1346.5 86.1853Z" fill="#889987"/>
<path d="M1310.4 124.609H1322.73" stroke="#889987" stroke-width="5.9" stroke-linecap="round" stroke-linejoin="round"/>
<path d="M1332.78 125.275H1347.4" stroke="#889987" stroke-width="7.95" stroke-linecap="round" stroke-linejoin="round"/>
<path d="M1308.11 136.199H1349.23" stroke="#889987" stroke-width="2" stroke-linecap="round" stroke-linejoin="round"/>
<path d="M1308.11 147.79H1349.23" stroke="#889987" stroke-width="3" stroke-linecap="round" stroke-linejoin="round"/>
<path d="M1338.12 60H1327.45V74.8515H1338.12V60Z" fill="#E5A76A"/>
<path d="M430.162 223.067L317.212 214.019C314.729 213.821 312.422 212.659 310.785 210.783C309.147 208.907 308.309 206.465 308.449 203.98L315.617 76.238C315.753 73.8052 316.816 71.5168 318.588 69.8427C320.359 68.1687 322.705 67.236 325.143 67.2363H432.46C433.722 67.2362 434.971 67.4865 436.136 67.9725C437.301 68.4585 438.357 69.1707 439.244 70.0678C440.132 70.9648 440.832 72.0289 441.305 73.1985C441.778 74.368 442.014 75.6197 441.999 76.881L440.455 213.67C440.441 214.977 440.158 216.267 439.624 217.459C439.09 218.652 438.317 219.723 437.351 220.604C436.386 221.485 435.25 222.158 434.013 222.582C432.776 223.006 431.465 223.171 430.162 223.067Z" fill="#FFE6C3" stroke="#090110" stroke-width="4.26" stroke-miterlimit="10"/>
<path d="M394.209 90.7786H422.134" stroke="#949A92" stroke-width="7.1" stroke-miterlimit="10" stroke-linecap="round"/>
<path d="M394.209 102.779H422.134" stroke="#949A92" stroke-width="7.1" stroke-miterlimit="10" stroke-linecap="round"/>
<path d="M400.734 116.861H422.134" stroke="#949A92" stroke-width="6.21" stroke-miterlimit="10" stroke-linecap="round"/>
<path d="M409.41 132.251H423.959" stroke="#949A92" stroke-width="3.62" stroke-miterlimit="10" stroke-linecap="round"/>
<path d="M326.113 180.309L424.322 184.419" stroke="#949A92" stroke-width="9.42" stroke-miterlimit="10" stroke-linecap="round"/>
<path d="M326.117 195.488L424.312 199.957" stroke="#949A92" stroke-width="9.42" stroke-miterlimit="10" stroke-linecap="round"/>
<path d="M373.077 132.159L348.024 130.891L343.121 140.88C341.91 143.33 341.276 145.179 341.218 146.428C341.206 146.943 341.315 147.453 341.537 147.917C341.759 148.382 342.087 148.787 342.496 149.101C343.396 149.897 345.4 150.482 348.506 150.856L348.419 152.624L328.039 151.604L328.131 149.841C330.857 149.501 332.637 148.968 333.471 148.242C335.171 146.797 337.124 143.786 339.329 139.209L364.755 87.1135L366.423 87.1962L386.265 142.125C387.858 146.543 389.364 149.432 390.782 150.791C392.2 152.151 394.224 152.978 396.852 153.272L396.765 155.035L371.234 153.763L371.321 151.995C373.904 151.995 375.667 151.653 376.61 150.971C377.046 150.683 377.408 150.298 377.667 149.846C377.926 149.394 378.076 148.887 378.104 148.366C378.174 146.967 377.649 144.724 376.528 141.638L373.077 132.159ZM371.919 128.558L362.246 101.875L349.678 127.451L371.919 128.558Z" fill="#738988"/>
<path d="M383.506 56.0439H366.963V78.089H383.506V56.0439Z" fill="#738988"/>
<path d="M178.242 161.253L144.518 168.908C143.797 169.071 143.048 169.073 142.327 168.913C141.605 168.753 140.927 168.435 140.343 167.982C139.759 167.529 139.282 166.952 138.948 166.294C138.613 165.635 138.428 164.91 138.407 164.171C137.94 147.92 137.472 131.671 137.002 115.423C136.965 114.174 137.398 112.956 138.215 112.009C139.032 111.063 140.175 110.457 141.417 110.311L172.851 106.598C173.522 106.518 174.202 106.574 174.85 106.763C175.499 106.952 176.102 107.27 176.625 107.698C177.147 108.127 177.577 108.656 177.889 109.255C178.202 109.853 178.39 110.509 178.442 111.182C179.671 126.097 180.898 141.023 182.124 155.96C182.223 157.162 181.884 158.358 181.171 159.331C180.458 160.303 179.418 160.986 178.242 161.253Z" fill="#FCCE9A" stroke="black" stroke-miterlimit="10"/>
<path d="M158.853 143.694C156.862 143.16 150.533 141.204 146.851 135.125C144.322 130.946 142.269 123.554 145.422 121.216C147.761 119.479 152.523 120.845 156.853 124.272C160.391 120.464 165.192 119.488 168.097 121.316C171.793 123.639 170.979 129.632 170.855 130.556C169.702 139.171 159.867 143.289 158.853 143.694Z" fill="#FCCE9A" stroke="black" stroke-miterlimit="10"/>
<path d="M152.737 158.864L149.442 156.474L145.598 157.831L146.855 153.956L144.379 150.724H148.451L150.761 147.368L152.023 151.243L155.928 152.4L152.633 154.794L152.737 158.864Z" fill="#FCCE9A" stroke="black" stroke-miterlimit="10"/>
<path d="M160.873 147.368L173.732 145.407" stroke="black" stroke-miterlimit="10"/>
<path d="M162.602 153.119L175.461 151.153" stroke="black" stroke-miterlimit="10"/>
<path d="M162.691 102H152.18V116.009H162.691V102Z" fill="#738988"/>
<path d="M49.2283 452.453C64.8184 452.453 77.4567 450.113 77.4567 447.227C77.4567 444.34 64.8184 442 49.2283 442C33.6383 442 21 444.34 21 447.227C21 450.113 33.6383 452.453 49.2283 452.453Z" fill="#090110" stroke="#090110" stroke-width="1.23" stroke-miterlimit="10"/>
<path d="M1361.97 407.971C1386.82 407.971 1406.97 404.8 1406.97 400.888C1406.97 396.976 1386.82 393.805 1361.97 393.805C1337.11 393.805 1316.96 396.976 1316.96 400.888C1316.96 404.8 1337.11 407.971 1361.97 407.971Z" fill="#090110" stroke="#090110" stroke-width="1.8" stroke-miterlimit="10"/>
<path d="M1339.7 346.494C1339.7 346.494 1266.43 320.871 1269.07 303.411C1269.26 301.81 1269.93 300.304 1271 299.094C1277.28 292.277 1297.13 299.422 1309.98 307.262C1311.68 308.295 1312.87 309.114 1313.22 309.356C1320.52 314.364 1332.75 324.874 1345.09 347.613L1339.7 346.494Z" fill="#D6B97F" stroke="#090110" stroke-width="1.44" stroke-miterlimit="10"/>
<path d="M1300.6 251.569C1300.6 251.569 1301 228.216 1316.13 243.953C1329.83 258.181 1340.18 276.231 1347.82 298.822C1348.12 299.703 1348.34 300.355 1348.77 301.678C1357.86 329.344 1362.3 343.281 1357.65 348.47C1356.1 350.198 1352.92 352.092 1345.57 351.326C1345.57 351.326 1335.51 336.57 1325.09 320.385C1319.53 311.746 1307.63 298.579 1303.11 282.585C1302.61 280.8 1302.24 279.187 1302.24 279.187C1302.24 279.187 1300.33 271.061 1300.6 251.578L1300.6 251.569Z" fill="#B59968" stroke="#090110" stroke-width="1.44" stroke-miterlimit="10"/>
<path d="M1358.68 248.97C1360.62 245.723 1369.73 230.448 1377.95 232.129C1380.65 232.681 1382.51 234.671 1384.14 237.579C1390.38 248.618 1390.44 261.546 1388.79 274.708C1387.36 286.16 1386.41 285.703 1378.92 316.93C1374.11 336.922 1371.63 349.008 1364.79 350.222C1363.29 350.439 1361.76 350.205 1360.4 349.55C1342.43 342.02 1348.44 287.022 1349.09 281.11C1350.42 269.043 1352.7 258.99 1358.68 248.97Z" fill="#D6B97F" stroke="#090110" stroke-width="1.44" stroke-miterlimit="10"/>
<path d="M1375.76 349.708C1375.76 349.708 1413.07 327.63 1419.74 307.048C1426.42 286.465 1423.21 285.118 1418.79 285.094C1414.37 285.07 1394.81 287.312 1389.04 294.733C1383.27 302.154 1356.8 339.131 1370.22 349.55C1371.01 350.152 1371.97 350.491 1372.96 350.519C1373.96 350.547 1374.93 350.263 1375.76 349.708Z" fill="#B29769" stroke="#090110" stroke-width="1.44" stroke-miterlimit="10"/>
<path d="M1395.3 398.308C1373.42 403.346 1350.88 404.912 1328.51 402.949C1320.24 380.32 1317.99 367.894 1321.76 365.673C1322.18 365.464 1322.64 365.339 1323.11 365.307C1323.57 365.276 1324.04 365.337 1324.48 365.487L1397.42 362.407L1395.3 398.308Z" fill="#EA9B65" stroke="#090110" stroke-width="4.32" stroke-miterlimit="10"/>
<path d="M1402.9 363.816L1316.43 366.282C1315.73 366.299 1315.04 366.057 1314.51 365.602C1313.97 365.148 1313.63 364.512 1313.53 363.816L1310.91 344.224C1310.86 343.829 1310.89 343.427 1311.01 343.045C1311.12 342.664 1311.31 342.31 1311.57 342.007C1311.83 341.704 1312.15 341.458 1312.51 341.286C1312.87 341.113 1313.26 341.018 1313.66 341.006L1401.29 338.764C1402.02 338.748 1402.73 339.012 1403.27 339.5C1403.81 339.989 1404.14 340.665 1404.2 341.392L1405.67 360.76C1405.7 361.144 1405.64 361.53 1405.52 361.894C1405.39 362.258 1405.19 362.593 1404.94 362.878C1404.68 363.163 1404.36 363.394 1404.01 363.555C1403.66 363.716 1403.29 363.805 1402.9 363.816Z" fill="#EA9B65" stroke="#090110" stroke-width="4.32" stroke-miterlimit="10"/>
<path d="M1339.52 321.29C1339.52 321.29 1339.24 320.471 1338.73 318.986C1338.22 317.501 1337.55 315.354 1336.72 312.703C1334.94 307.428 1332.65 300.131 1329.76 292.234C1326.87 284.337 1323.92 277.335 1321.12 272.561C1320.05 270.639 1318.81 268.813 1317.43 267.106C1317.04 266.632 1316.63 266.181 1316.19 265.754L1315.83 265.421L1315.69 265.306L1315.85 265.387L1316.28 265.63C1316.81 265.958 1317.31 266.319 1317.8 266.711C1319.56 268.14 1321.16 269.764 1322.56 271.552C1326.19 275.978 1330.08 282.909 1333.04 290.997C1336 299.084 1337.48 306.752 1338.43 312.269C1338.84 315.049 1339.1 317.306 1339.28 318.862C1339.46 320.419 1339.52 321.29 1339.52 321.29Z" fill="#D6B97F" stroke="#D6B97F" stroke-width="0.24" stroke-miterlimit="10"/>
<path d="M1373.26 334.332L1374.4 332.171C1375.14 330.791 1376.22 328.792 1377.62 326.359C1380.54 321.599 1384.77 315.002 1390.48 308.571C1396.2 302.14 1402.39 297.147 1407.36 294.4C1409.28 293.273 1411.33 292.367 1413.46 291.701C1414.02 291.525 1414.6 291.385 1415.19 291.282L1415.64 291.225H1415.78L1415.65 291.273L1415.23 291.439C1414.7 291.67 1414.18 291.927 1413.67 292.21C1411.79 293.268 1410.01 294.485 1408.35 295.847C1404.06 299.213 1398.71 304.615 1393.1 310.875C1387.5 317.134 1382.66 323.094 1379.04 327.359C1377.28 329.525 1375.85 331.281 1374.84 332.481L1373.26 334.332Z" fill="#D6B97F" stroke="#D6B97F" stroke-width="0.24" stroke-miterlimit="10"/>
<path d="M1358.68 328.544C1358.68 328.544 1361.23 310.546 1365.44 288.559C1369.65 266.572 1373.92 248.875 1373.92 248.875C1373.92 248.875 1371.37 266.872 1367.16 288.859C1362.95 310.846 1358.68 328.544 1358.68 328.544Z" fill="#B29769" stroke="#B29769" stroke-width="0.12" stroke-miterlimit="10"/>
<path d="M1329.49 335.089C1329.49 335.089 1318.4 329.12 1305.3 320.842C1292.19 312.565 1282.03 305.134 1282.03 305.134C1282.03 305.134 1293.11 311.103 1306.21 319.381C1319.32 327.659 1329.49 335.089 1329.49 335.089Z" fill="#B29769" stroke="#B29769" stroke-width="0.12" stroke-miterlimit="10"/>
<path d="M68.1226 416.587C68.1226 416.587 107.548 402.782 106.124 393.41C106.022 392.547 105.66 391.735 105.086 391.082C101.709 387.417 91.0263 391.263 84.13 395.481C83.2203 396.037 82.5773 396.475 82.3868 396.604C78.4386 399.308 71.8709 404.953 65.2031 417.191L68.1226 416.587Z" fill="#D6B97F" stroke="#090110" stroke-width="0.77" stroke-miterlimit="10"/>
<path d="M89.1541 365.511C89.1541 365.511 88.9493 352.944 80.8051 361.398C73.4325 369.053 67.865 378.768 63.75 390.911L63.2452 392.434C58.3587 407.319 55.9678 414.806 58.4825 417.61C59.316 418.538 61.0305 419.557 64.9835 419.152C64.9835 419.152 70.3987 411.203 75.9901 402.492C78.981 397.842 85.3868 390.763 87.8158 382.152C88.0873 381.2 88.292 380.324 88.292 380.324C88.292 380.324 89.3017 375.955 89.1684 365.487L89.1541 365.511Z" fill="#B59968" stroke="#090110" stroke-width="0.77" stroke-miterlimit="10"/>
<path d="M57.9107 364.116C56.8724 362.369 51.9668 354.149 47.5423 355.072C46.1135 355.372 45.0895 356.438 44.2084 358.004C40.8508 363.945 40.8174 370.899 41.7033 377.997C42.4701 384.185 42.9749 383.913 47.0184 400.717C49.6046 411.47 50.9381 417.977 54.6149 418.629C55.427 418.75 56.2568 418.624 56.9962 418.267C66.6644 414.216 63.4306 384.623 63.0829 381.443C62.3447 374.912 61.1302 369.505 57.9107 364.116Z" fill="#D6B97F" stroke="#090110" stroke-width="0.77" stroke-miterlimit="10"/>
<path d="M48.7186 418.32C48.7186 418.32 28.6487 406.448 25.0577 395.362C21.4666 384.275 23.1907 383.566 25.572 383.552C27.9534 383.538 38.4693 384.747 41.5746 388.74C44.6799 392.734 58.9202 412.626 51.7048 418.253C51.2756 418.573 50.7575 418.751 50.2223 418.763C49.6872 418.775 49.1616 418.62 48.7186 418.32Z" fill="#B29769" stroke="#090110" stroke-width="0.77" stroke-miterlimit="10"/>
<path d="M38.2075 444.467C49.9809 447.175 62.107 448.016 74.1418 446.961C78.587 434.788 79.7967 428.103 77.771 426.907C77.5466 426.792 77.3014 426.724 77.0502 426.707C76.7989 426.69 76.5467 426.724 76.3089 426.807L37.0645 425.15L38.2075 444.467Z" fill="#EA9B65" stroke="#090110" stroke-width="2.32" stroke-miterlimit="10"/>
<path d="M34.1159 425.907L80.6424 427.235C81.0206 427.244 81.389 427.114 81.6772 426.869C81.9654 426.624 82.1532 426.282 82.2046 425.907L83.6334 415.368C83.6622 415.155 83.6459 414.939 83.5854 414.733C83.5249 414.527 83.4216 414.336 83.2823 414.172C83.143 414.009 82.9708 413.876 82.7769 413.784C82.583 413.691 82.3717 413.641 82.1569 413.635L35.0065 412.426C34.6119 412.418 34.2292 412.562 33.9375 412.827C33.6459 413.093 33.4676 413.461 33.4396 413.854L32.6538 424.279C32.6402 424.482 32.6676 424.686 32.7342 424.879C32.8008 425.072 32.9053 425.249 33.0415 425.401C33.1778 425.553 33.343 425.676 33.5275 425.762C33.7121 425.849 33.9121 425.898 34.1159 425.907Z" fill="#EA9B65" stroke="#090110" stroke-width="2.32" stroke-miterlimit="10"/>
<path d="M67.8262 402.94C67.8262 402.94 68.031 401.088 68.5358 398.108C69.2454 394.227 70.3088 390.419 71.7125 386.732C73.4128 382.419 75.5941 378.744 77.5849 376.436C78.3465 375.507 79.2109 374.667 80.1615 373.932C80.4156 373.738 80.6812 373.56 80.9569 373.399C81.1521 373.294 81.2426 373.256 81.2426 373.256C81.2426 373.256 81.1664 373.318 81.0045 373.465C80.8425 373.613 80.6282 373.832 80.3615 374.146C79.6138 375.031 78.9415 375.977 78.3517 376.973C76.8086 379.477 75.1273 383.195 73.4699 387.398C71.8125 391.601 70.479 395.49 69.4455 398.346C68.4929 401.183 67.8262 402.94 67.8262 402.94Z" fill="#D6B97F" stroke="#D6B97F" stroke-width="0.13" stroke-miterlimit="10"/>
<path d="M49.7231 410.256C49.7231 410.256 48.5277 408.828 46.7083 406.448C44.889 404.068 42.3076 400.859 39.3786 397.404C36.4495 393.948 33.6634 390.973 31.3439 389.083C30.446 388.313 29.4818 387.623 28.4625 387.022C28.1793 386.847 27.8868 386.688 27.5862 386.546C27.3814 386.455 27.248 386.413 27.248 386.413C27.248 386.413 27.3862 386.413 27.61 386.47C27.933 386.536 28.2513 386.623 28.5625 386.732C29.7183 387.138 30.8253 387.671 31.8631 388.321C34.5159 389.883 37.7735 392.653 40.7788 396.185C43.2952 399.217 45.5272 402.474 47.4465 405.915C48.923 408.576 49.7231 410.256 49.7231 410.256Z" fill="#D6B97F" stroke="#D6B97F" stroke-width="0.13" stroke-miterlimit="10"/>
<path d="M57.7251 406.962C57.7251 406.962 55.5152 397.442 53.3625 385.575C51.2097 373.708 49.9238 364.012 49.9238 364.012C49.9238 364.012 52.1289 373.532 54.2864 385.404C56.4439 397.275 57.7251 406.962 57.7251 406.962Z" fill="#B29769" stroke="#B29769" stroke-width="0.06" stroke-miterlimit="10"/>
<path d="M73.5117 410.28C73.5117 410.28 79.0126 406.348 86.1566 401.987C93.3006 397.627 99.2778 394.495 99.2778 394.495C99.2778 394.495 93.7626 398.427 86.6519 402.787C79.5413 407.147 73.5117 410.28 73.5117 410.28Z" fill="#B29769" stroke="#B29769" stroke-width="0.06" stroke-miterlimit="10"/>
<path d="M520.66 327.07L470.876 324.834C470.151 324.801 469.439 324.62 468.786 324.302C468.133 323.985 467.552 323.537 467.078 322.986C466.605 322.436 466.249 321.794 466.033 321.101C465.816 320.408 465.744 319.678 465.821 318.956C468.185 296.72 470.55 274.489 472.914 252.262C473.053 250.954 473.67 249.745 474.647 248.865C475.625 247.986 476.893 247.499 478.208 247.499H524.671C525.395 247.498 526.112 247.646 526.777 247.932C527.442 248.217 528.042 248.636 528.54 249.161C529.038 249.687 529.423 250.308 529.673 250.987C529.922 251.667 530.031 252.39 529.991 253.112L526.257 322.043C526.22 322.741 526.046 323.424 525.745 324.054C525.443 324.684 525.021 325.249 524.501 325.716C523.981 326.183 523.374 326.543 522.715 326.775C522.056 327.007 521.358 327.108 520.66 327.07Z" fill="#C99959" stroke="black" stroke-width="1.76" stroke-miterlimit="10"/>
<path d="M512.288 261.729H487.938C485.929 261.729 484.301 263.357 484.301 265.365V276.515C484.301 278.522 485.929 280.15 487.938 280.15H512.288C514.297 280.15 515.925 278.522 515.925 276.515V265.365C515.925 263.357 514.297 261.729 512.288 261.729Z" fill="#DBC2A5" stroke="black" stroke-width="1.76" stroke-miterlimit="10"/>
<path d="M483.076 292.821H493.052" stroke="black" stroke-width="1.76" stroke-miterlimit="10"/>
<path d="M505.506 240.544H496.871V252.565H505.506V240.544Z" fill="#E5A76A"/>
<path d="M1160 437.04C1160 437.04 1243.24 426.283 1254.89 418L1300.68 423.798C1276.39 440.763 1263.3 447.47 1255.73 450.278C1253.95 450.94 1247.51 453.225 1238.26 456.895C1227.81 461.045 1227.9 461.355 1225.77 461.859C1215.81 464.239 1207.77 458.865 1194.14 451.93C1183.06 446.313 1171.66 441.342 1160 437.04Z" fill="#F2902F" stroke="#090110" stroke-width="3.26" stroke-miterlimit="10"/>
<path d="M1166.08 437.169C1166.08 437.169 1237.67 427.411 1247.7 419.904L1287.07 425.14C1287.07 425.14 1248.41 458.937 1224.79 456.666C1201.16 454.396 1166.08 437.169 1166.08 437.169Z" fill="#F2DBC4" stroke="#090110" stroke-width="3.26" stroke-miterlimit="10"/>
<path d="M1293.16 418.624C1293.16 418.624 1221.14 423.86 1209.91 418.585L1172.28 431.88C1172.28 431.88 1216.54 456.995 1239.27 449.897C1262 442.8 1293.16 418.624 1293.16 418.624Z" fill="#EA9C4E" stroke="#090110" stroke-width="3.26" stroke-miterlimit="10"/>
<path d="M1292.7 418.819C1292.7 418.819 1220.68 424.055 1209.45 418.776L1171.82 432.071C1171.82 432.071 1216.07 457.185 1238.81 450.092C1261.54 443 1292.7 418.819 1292.7 418.819Z" fill="#FDCB93" stroke="#090110" stroke-width="3.26" stroke-miterlimit="10"/>
<path d="M1126.82 21.1013H1031V126.399H1126.82V21.1013Z" fill="#FFEDDE" stroke="black" stroke-width="0.46" stroke-miterlimit="10"/>
<path d="M1061.26 46.863H1046.13V111.828H1061.26V46.863Z" fill="#FFF0A9" stroke="black" stroke-width="0.46" stroke-miterlimit="10"/>
<path d="M1076.39 64.7878H1061.26V111.837H1076.39V64.7878Z" fill="#D800EF" stroke="black" stroke-width="0.62" stroke-miterlimit="10"/>
<path d="M1091.52 81.0312H1076.39V111.837H1091.52V81.0312Z" fill="#240BA0" stroke="black" stroke-width="0.62" stroke-miterlimit="10"/>
<path d="M1106.65 91.1099H1091.52V111.837H1106.65V91.1099Z" stroke="black" stroke-width="0.62" stroke-miterlimit="10"/>
<path d="M1094.08 7H1073.82V35.2024H1094.08V7Z" fill="#E5A76A"/>
<path d="M456 439L502.5 431L573 445L500.5 459.5L456 439Z" fill="#090110"/>
<path d="M491.269 406.03C491.269 406.03 483.42 405.996 485.287 410.79C487.154 415.583 503.952 455.925 503.952 455.925C503.952 455.925 507.286 459.857 516.221 458.124C525.155 456.391 570.491 446.167 570.491 446.167C570.491 446.167 576.206 444.067 571.734 435.066" fill="#666565"/>
<path d="M491.269 406.03C491.269 406.03 483.42 405.996 485.287 410.79C487.154 415.583 503.952 455.925 503.952 455.925C503.952 455.925 507.286 459.857 516.221 458.124C525.155 456.391 570.491 446.167 570.491 446.167C570.491 446.167 576.206 444.067 571.734 435.066" stroke="#090110" stroke-width="1.13" stroke-miterlimit="10"/>
<path d="M493.508 430.82L487.793 446.528C487.793 446.528 486.793 449.327 488.793 449.727C490.793 450.127 501.524 449.061 501.524 449.061L493.508 430.82Z" fill="#1E1E1E" stroke="#090110" stroke-width="1.13" stroke-miterlimit="10"/>
<path d="M489.82 406.263L509.285 451.841C509.285 451.841 509.152 456.372 518.22 455.039C527.288 453.706 570.49 442.511 570.49 442.511C570.49 442.511 573.291 441.844 570.49 433.981C567.69 426.117 553.821 396 553.821 396L489.82 406.263Z" fill="#1E1E1E" stroke="#090110" stroke-width="1.13" stroke-miterlimit="10"/>
<path d="M502.082 410.809L516.332 444.167C516.332 444.167 516.237 447.499 522.871 446.509C529.505 445.519 561.139 437.361 561.139 437.361C561.139 437.361 563.187 436.885 561.139 431.115C559.091 425.346 548.937 403.316 548.937 403.316L502.082 410.809Z" fill="#739BFF" stroke="#090110" stroke-width="0.83" stroke-miterlimit="10"/>
<path d="M501.765 420.933C502.722 420.933 503.498 420.158 503.498 419.201C503.498 418.244 502.722 417.468 501.765 417.468C500.807 417.468 500.031 418.244 500.031 419.201C500.031 420.158 500.807 420.933 501.765 420.933Z" fill="#739BFF" stroke="#090110" stroke-width="0.83" stroke-miterlimit="10"/>
<path d="M503.499 424.994C504.457 424.994 505.233 424.218 505.233 423.261C505.233 422.304 504.457 421.528 503.499 421.528C502.542 421.528 501.766 422.304 501.766 423.261C501.766 424.218 502.542 424.994 503.499 424.994Z" fill="#739BFF" stroke="#090110" stroke-width="0.83" stroke-miterlimit="10"/>
<path d="M509.301 437.441C510.181 437.065 509.969 434.593 508.826 431.919C507.683 429.245 506.043 427.382 505.163 427.758C504.282 428.134 504.495 430.607 505.638 433.28C506.78 435.954 508.42 437.817 509.301 437.441Z" fill="#739BFF" stroke="#090110" stroke-width="0.83" stroke-miterlimit="10"/>
<ellipse cx="907.5" cy="381.5" rx="17.5" ry="4.5" fill="#090110"/>
<path d="M908.04 355.048C916.347 355.048 923.081 353.424 923.081 351.42C923.081 349.417 916.347 347.793 908.04 347.793C899.734 347.793 893 349.417 893 351.42C893 353.424 899.734 355.048 908.04 355.048Z" fill="#EF8535" stroke="black" stroke-width="0.42" stroke-miterlimit="10"/>
<path d="M893.567 358.108L896.224 376.892C896.224 376.892 896.143 378.986 899.815 380.476C903.487 381.966 916.389 381.566 918.08 379.871C919.771 378.177 920.019 378.501 920.5 376.006C920.981 373.512 922.748 352.991 922.748 352.991C922.748 352.991 901.873 358.837 893 352.225L893.567 358.108Z" fill="#F3A466" stroke="black" stroke-width="1.13" stroke-miterlimit="10"/>
<path d="M897.858 353.958L895.844 336.707L897.858 326.954L901.649 336.545L903.907 354.681" fill="#987C86"/>
<path d="M897.858 353.958L895.844 336.707L897.858 326.954L901.649 336.545L903.907 354.681" stroke="black" stroke-width="1.13" stroke-linecap="round" stroke-linejoin="round"/>
<path d="M915.047 330.971C913.234 338.99 911.416 347.009 909.594 355.029L914.861 354.362L919.333 332.147L915.047 330.971Z" fill="#D27B55" stroke="black" stroke-width="0.56" stroke-miterlimit="10"/>
<path d="M916.99 331.804C919.042 332.509 920.095 332.114 920.595 331.804C922.976 330.376 923.033 324.826 920.228 318C914.989 323.165 912.698 328.187 914.256 330.443C914.594 330.919 915.299 331.561 916.99 331.804Z" fill="#D27B55" stroke="black" stroke-width="0.56" stroke-miterlimit="10"/>
<defs>
<linearGradient id="paint0_linear_605_3088" x1="0" y1="418.998" x2="1444" y2="418.998" gradientUnits="userSpaceOnUse">
<stop stop-color="#1F8BF7"/>
<stop offset="1" stop-color="#DC33FC"/>
</linearGradient>
</defs>
</svg>
