<svg width="1445" height="569" viewBox="0 0 1445 569" fill="none" xmlns="http://www.w3.org/2000/svg">
<g clip-path="url(#clip0_633_3414)">
<g filter="url(#filter0_f_633_3414)">
<circle cx="722.354" cy="300.957" r="174.344" fill="#DC33FC" fill-opacity="0.35"/>
</g>
<path d="M1444.85 448.3H0.853516V568.3H1444.85V448.3Z" fill="url(#paint0_linear_633_3414)"/>
<path d="M1065.53 489.138C1063.4 489.138 1061.24 489.076 1059.08 488.953C1056.08 488.201 1055.36 487.382 1055.27 486.83C1055.09 485.53 1057.92 482.431 1078.82 476.305C1094.96 471.569 1119.68 465.652 1152.3 458.693H1152.35C1152.81 458.526 1153.29 458.437 1153.78 458.431C1154.23 458.416 1154.67 458.537 1155.04 458.778C1155.54 459.134 1155.88 459.668 1155.99 460.268C1156.32 462.829 1144.82 467.056 1135.58 470.455L1135.33 470.545C1125.78 474.058 1120.99 475.82 1120.06 476.134C1099.7 483.074 1088.49 486.891 1080.88 488.034C1075.8 488.778 1070.68 489.15 1065.56 489.148L1065.53 489.138Z" fill="#090110"/>
<path d="M1153.76 458.817C1154.12 458.802 1154.49 458.9 1154.8 459.097C1155.2 459.395 1155.47 459.832 1155.57 460.321C1155.6 460.635 1155.31 461.844 1149.92 464.362C1146.25 466.076 1141.39 467.894 1135.4 470.074C1125.69 473.644 1120.82 475.434 1119.88 475.753C1099.55 482.684 1088.35 486.496 1080.77 487.62C1075.72 488.364 1070.61 488.736 1065.5 488.734C1063.39 488.734 1061.25 488.667 1059.12 488.548C1055.94 487.744 1055.67 486.915 1055.65 486.753C1055.62 486.592 1055.73 485.292 1060.88 482.917C1064.8 481.113 1070.89 479.004 1078.91 476.648C1095.03 471.921 1119.75 466.004 1152.36 459.064H1152.41H1152.46C1152.87 458.913 1153.3 458.831 1153.74 458.821M1153.74 458.055C1153.21 458.065 1152.69 458.162 1152.2 458.341C1086.63 472.303 1054.18 481.824 1054.86 486.901C1055 487.882 1056.37 488.699 1058.98 489.353C1061.27 489.486 1063.44 489.543 1065.48 489.543C1070.63 489.549 1075.78 489.176 1080.87 488.424C1088.36 487.315 1099.05 483.702 1120.11 476.524C1121.07 476.2 1125.92 474.415 1135.65 470.812C1146.63 466.775 1156.66 463.024 1156.31 460.221C1156.19 459.514 1155.79 458.882 1155.21 458.46C1154.77 458.175 1154.26 458.031 1153.74 458.045V458.055Z" fill="#090110"/>
<path d="M1058.77 484.193L1078.25 472.769C1078.25 472.769 1088.35 476.767 1081.63 485.05L1058.77 484.193Z" fill="#EFA87C" stroke="black" stroke-width="2" stroke-miterlimit="10"/>
<path d="M1146.93 455.775L1078.25 472.768C1078.25 472.768 1088.21 476.91 1081.64 485.049L1148.93 462.487C1152.48 461.592 1154.24 458.826 1153.79 457.346C1153.34 455.865 1150.36 454.571 1146.93 455.775Z" fill="#D78147" stroke="black" stroke-width="2" stroke-linecap="round" stroke-linejoin="round"/>
<path d="M1068.08 478.728L1068.81 484.569L1058.77 484.193L1068.08 478.728Z" fill="black"/>
<path d="M1082.32 475.077C1083.07 475.817 1083.65 476.723 1083.99 477.722C1084.34 478.721 1084.45 479.787 1084.32 480.837L1153.1 458.94C1153.25 458.745 1153.36 458.515 1153.41 458.271C1153.45 458.027 1153.44 457.775 1153.37 457.536C1153.3 457.298 1153.17 457.08 1153 456.901C1152.82 456.722 1152.61 456.587 1152.38 456.508L1082.32 475.077Z" fill="#B25210"/>
<path d="M1068.31 480.565L1068.61 482.945L1083.3 481.07C1083.51 480.106 1083.47 479.104 1083.19 478.159C1082.91 477.213 1082.39 476.356 1081.68 475.667L1068.31 480.565Z" fill="#C18463"/>
<path d="M223.41 542.023C215.845 542.008 208.301 541.231 200.892 539.705C197.868 538.467 197.239 537.506 197.244 536.915C197.244 535.53 200.683 532.717 223.439 529.466C241.027 526.953 267.775 524.496 302.933 522.164H302.985C303.306 522.099 303.633 522.065 303.961 522.064C304.615 522.026 305.258 522.237 305.762 522.654C306.217 523.106 306.484 523.713 306.509 524.354C306.462 527.081 293.803 529.766 283.649 531.922C272.956 534.188 267.594 535.326 266.555 535.516C244.228 539.695 231.926 541.999 223.796 542.028L223.41 542.023Z" fill="#090110"/>
<path d="M303.995 522.464C304.546 522.424 305.092 522.594 305.523 522.94C305.896 523.31 306.115 523.806 306.138 524.33C306.138 524.663 305.661 525.887 299.627 527.705C295.536 528.943 290.169 530.114 283.577 531.513C272.89 533.779 267.522 534.917 266.493 535.112C244.19 539.286 231.902 541.585 223.81 541.614H223.415C215.895 541.598 208.396 540.826 201.03 539.31C197.825 537.992 197.668 537.082 197.668 536.93C197.668 536.778 197.978 535.412 203.75 533.707C208.117 532.417 214.775 531.127 223.534 529.899C241.113 527.391 267.827 524.935 302.999 522.602H303.052H303.104C303.398 522.541 303.698 522.509 303.999 522.507M303.999 521.693C303.644 521.696 303.29 521.732 302.942 521.802C232.27 526.474 196.907 531.507 196.854 536.901C196.854 537.949 198.166 539.01 200.792 540.086C208.234 541.629 215.814 542.412 223.415 542.423H223.81C231.816 542.395 243.532 540.234 266.646 535.907C267.679 535.716 273.032 534.579 283.744 532.308C295.836 529.742 306.895 527.338 306.952 524.354C306.931 523.595 306.615 522.875 306.071 522.345C305.49 521.862 304.75 521.613 303.995 521.645L303.999 521.693Z" fill="#090110"/>
<path d="M200.324 534.436C200.324 534.436 219.327 525.296 221.185 525.867C223.042 526.439 227.186 532.151 223.328 538.006C215.481 538.78 207.567 537.551 200.324 534.436Z" fill="#EFA87C" stroke="black" stroke-width="2" stroke-miterlimit="10"/>
<path d="M223.329 538.005L301.341 526.724C310.914 518.87 299.912 514.3 299.912 514.3L220.947 525.867C220.947 525.867 228.091 529.485 223.329 538.005Z" fill="#D78147" stroke="black" stroke-width="2" stroke-linecap="round" stroke-linejoin="round"/>
<path d="M225.234 530.556C225.292 530.865 225.344 531.199 225.377 531.556C225.435 532.125 225.45 532.698 225.425 533.269C237.808 531.622 250.399 529.815 263.198 527.848C276.873 525.737 290.27 523.516 303.39 521.183C304.028 520.841 304.633 520.427 304.561 520.112C304.49 519.798 303.49 519.66 303.133 519.636C300.908 519.479 261.016 525.263 225.234 530.556Z" fill="#BC6022"/>
<path d="M212.156 532.512C212.209 533.012 212.266 533.512 212.318 534.007L224.439 532.86C224.517 532.457 224.517 532.044 224.439 531.641C224.38 531.345 224.281 531.058 224.144 530.789L212.156 532.512Z" fill="#CC9275"/>
<path d="M211.03 529.504C212.138 532.086 212.38 534.956 211.721 537.686C207.968 537.075 204.294 536.05 200.767 534.63L200.391 534.469L210.93 529.542" fill="black"/>
<path d="M1038.92 535.425C1032.55 534.716 1026.14 533.85 1019.87 532.85C1012.04 531.598 1006 530.36 993.969 527.895C992.159 527.523 992.011 527.485 991.664 527.419C991.316 527.352 990.568 527.133 986.868 526.319L985.887 526.1C982.076 525.262 980.648 524.948 978.743 524.091C973.751 521.83 973.156 520.521 973.246 519.945C973.389 519.022 975.671 517.965 979.747 517.732C981.176 517.851 1030.9 521.992 1038.13 525.186H1038.18L1040.43 525.629C1042.04 526.867 1045.84 530.389 1045.19 532.731C1044.76 534.178 1042.61 535.111 1038.92 535.425Z" fill="#090110"/>
<path d="M979.748 518.098C981.653 518.255 1030.84 522.382 1037.99 525.519L1038.06 525.553H1038.15L1040.27 525.971C1041.78 527.147 1045.41 530.522 1044.81 532.607C1044.43 533.883 1042.42 534.716 1038.92 535.02C1032.57 534.311 1026.18 533.45 1019.93 532.45C1012.11 531.203 1006.07 529.965 994.05 527.499C992.245 527.128 992.102 527.095 991.76 527.023C991.417 526.952 990.659 526.743 986.949 525.924L985.959 525.705C982.068 524.853 980.758 524.562 978.91 523.725C973.59 521.316 973.614 520.112 973.633 519.983C973.728 519.36 975.738 518.332 979.748 518.079M979.748 517.308C976.009 517.522 973.08 518.474 972.866 519.845C972.58 521.683 977.257 523.806 978.581 524.405C980.663 525.357 982.144 525.633 986.778 526.657C993.746 528.19 990.002 527.457 993.884 528.252C1005.93 530.722 1011.98 531.96 1019.8 533.212C1024.88 534.021 1031.35 534.954 1038.9 535.791C1052.99 534.601 1040.59 525.253 1040.59 525.253L1038.29 524.777C1030.84 521.492 979.748 517.289 979.748 517.289V517.308Z" fill="#090110"/>
<path d="M1056.93 545.883C1047.48 545.883 1042.64 539.557 1042.59 539.49C1035.56 529.942 1040.82 524.648 1040.87 524.596C1045.35 521.159 1049.74 519.403 1053.87 519.403C1061.71 519.403 1066.56 525.624 1068.38 527.971C1068.64 528.304 1068.86 528.547 1068.97 528.694C1070.69 530.513 1075.02 534.245 1079.01 535.316C1080.74 535.792 1081.12 536.187 1081.2 536.392C1081.28 536.596 1081.12 536.834 1080.88 537.186C1080.72 537.401 1080.59 537.641 1080.51 537.896C1080.15 539.224 1074.7 541.518 1064.31 544.712C1061.92 545.47 1059.43 545.866 1056.93 545.888V545.883Z" fill="#090110"/>
<path d="M1053.87 519.783C1061.53 519.783 1066.29 525.9 1068.08 528.204C1068.35 528.547 1068.56 528.794 1068.69 528.951C1070.44 530.803 1074.84 534.587 1078.92 535.682C1080.46 536.096 1080.78 536.434 1080.82 536.51C1080.75 536.678 1080.66 536.838 1080.55 536.986C1080.36 537.234 1080.22 537.513 1080.12 537.81C1079.94 538.481 1077.63 540.223 1064.19 544.36C1061.83 545.104 1059.38 545.493 1056.91 545.516C1047.67 545.516 1042.92 539.328 1042.88 539.286C1036.28 530.303 1040.67 525.362 1041.1 524.915C1045.53 521.526 1049.82 519.802 1053.86 519.802M1053.86 519.036C1050.09 519.036 1045.67 520.44 1040.59 524.339C1040.59 524.339 1034.96 529.803 1042.26 539.738C1042.26 539.738 1047.14 546.283 1056.91 546.283C1059.46 546.263 1061.99 545.862 1064.41 545.093C1079.18 540.552 1080.61 538.905 1080.86 538.01C1081.12 537.115 1083.15 536.044 1079.1 534.959C1075.05 533.873 1070.65 529.937 1069.23 528.442C1068.23 527.381 1063.02 519.036 1053.86 519.036Z" fill="#090110"/>
<path d="M1059.07 542.551C1057.31 542.556 1055.55 542.346 1053.83 541.927C1051.89 541.451 1047.34 540.323 1044.56 536.453C1043.13 534.44 1041.91 531.327 1042.47 528.918C1042.53 528.654 1042.62 528.397 1042.74 528.152C1044.04 525.248 1047.45 524.258 1048.74 523.868C1049.92 523.541 1051.14 523.381 1052.36 523.392C1055.16 523.447 1057.9 524.158 1060.37 525.467C1062.32 526.524 1063.23 527.5 1064.49 528.856C1066.01 530.528 1067.67 532.061 1069.46 533.435C1071.33 534.881 1073.3 536.187 1075.37 537.343C1072.1 539.428 1066.02 542.551 1059.07 542.551Z" fill="#090110"/>
<path d="M1052.38 522.997V523.768C1055.11 523.821 1057.8 524.516 1060.21 525.796C1062.11 526.824 1062.99 527.781 1064.23 529.128C1065.76 530.815 1067.43 532.362 1069.24 533.75C1070.95 535.076 1072.76 536.285 1074.63 537.367C1071.3 539.424 1065.59 542.189 1059.07 542.189C1057.34 542.191 1055.62 541.985 1053.95 541.575C1052.04 541.099 1047.59 540.004 1044.9 536.249C1043.51 534.307 1042.33 531.317 1042.87 529.023C1042.93 528.784 1043.01 528.551 1043.11 528.328V528.285C1044.32 525.586 1047.61 524.629 1048.83 524.272C1049.97 523.948 1051.16 523.788 1052.35 523.796V522.997M1052.35 522.997C1051.08 522.992 1049.82 523.167 1048.61 523.516C1047.33 523.887 1043.74 524.944 1042.39 527.952C1042.25 528.234 1042.15 528.529 1042.08 528.833C1041.48 531.403 1042.74 534.602 1044.23 536.677C1047.09 540.666 1051.73 541.809 1053.72 542.299C1055.46 542.726 1057.24 542.94 1059.03 542.937C1067.17 542.937 1073.99 538.705 1076.1 537.305C1073.85 536.087 1071.7 534.688 1069.67 533.121C1064.4 529.037 1064.32 527.166 1060.54 525.12C1058.01 523.778 1055.2 523.051 1052.35 522.997Z" fill="#090110"/>
<path d="M981.719 513.3C981.719 513.3 1029.79 517.251 1036.8 520.345L1038.96 520.769C1038.96 520.769 1050.64 529.57 1037.38 530.689C1030.27 529.899 1024.19 529.023 1019.41 528.261C1012.03 527.081 1006.36 525.919 995.021 523.596C991.369 522.849 994.888 523.534 988.354 522.092C983.996 521.14 982.6 520.859 980.643 519.974C979.4 519.412 974.994 517.413 975.266 515.69C975.461 514.395 978.2 513.495 981.719 513.3Z" fill="#F25814" stroke="black" stroke-width="1.58" stroke-miterlimit="10"/>
<path d="M1040.54 534.368C1040.54 534.368 1047.48 543.679 1061.38 539.404C1075.29 535.13 1076.62 533.564 1076.86 532.74C1077.1 531.917 1079.02 530.889 1075.2 529.884C1071.39 528.88 1067.25 525.157 1065.92 523.753C1064.58 522.349 1055.37 507.298 1038.97 519.888C1038.97 519.874 1033.66 525.019 1040.54 534.368Z" fill="#A38472" stroke="#090110" stroke-width="2.37" stroke-miterlimit="10"/>
<path d="M1040.68 523.292C1041.95 520.436 1045.33 519.484 1046.53 519.117C1051.92 517.561 1057.01 520.217 1057.75 520.626C1061.32 522.559 1061.39 524.315 1066.36 528.157C1068.26 529.632 1070.28 530.949 1072.39 532.093C1070.01 533.688 1061.08 539.2 1051.34 536.796C1049.47 536.32 1045.1 535.254 1042.41 531.503C1041.01 529.551 1039.83 526.538 1040.38 524.12C1040.45 523.834 1040.55 523.556 1040.68 523.292Z" fill="#C4AEA3"/>
<path d="M1045.42 524.806C1046.28 522.902 1048.55 522.235 1049.36 522.002C1052.97 520.955 1056.38 522.74 1056.89 523.016C1059.27 524.311 1059.33 525.491 1062.66 528.071C1063.94 529.061 1065.3 529.944 1066.72 530.713C1065.1 531.784 1059.12 535.473 1052.59 533.869C1051.33 533.559 1048.4 532.836 1046.59 530.318C1045.64 529.004 1044.85 526.986 1045.23 525.363C1045.28 525.171 1045.34 524.984 1045.42 524.806Z" fill="#EAD7CE"/>
<path d="M976.219 515.076C985.951 516.273 995.794 517.556 1005.75 518.927C1016.19 520.368 1026.48 521.874 1036.61 523.444C1036.38 524.486 1036.35 525.561 1036.51 526.615L975.938 516.414C975.791 516.339 975.677 516.211 975.619 516.057C975.583 515.932 975.583 515.8 975.619 515.676C975.663 515.485 975.775 515.316 975.933 515.2C976.019 515.139 976.116 515.097 976.219 515.076Z" fill="#C13600"/>
<path d="M303.016 490.066L350.328 465.675L439.752 482.555L393.468 512.6L303.016 490.066Z" fill="black" stroke="black" stroke-width="2.19" stroke-miterlimit="10"/>
<path d="M299.854 487.814L349.357 462.3L442.915 479.955L394.493 511.391L299.854 487.814Z" fill="#FFEDCB" stroke="black" stroke-width="2.29" stroke-miterlimit="10"/>
<path d="M339.561 485.981C342.218 483.763 354.853 473.301 363.374 469.535C366.27 468.255 368.689 467.746 370.666 468.807C372.361 469.711 373.137 471.458 373.49 472.477L373.833 482.607C373.833 482.607 372.59 486.324 377.209 484.468C381.829 482.611 382.377 482.607 382.377 482.607C382.377 482.607 387.14 479.641 388.24 485.639C389.34 491.636 388.24 497.763 388.24 497.763L339.561 485.981Z" fill="#FFDAA4"/>
<path d="M386.848 503.675C386.848 503.675 372.294 501.376 354.748 496.877C337.202 492.379 323.314 487.381 323.314 487.381C323.314 487.381 337.869 489.68 355.41 494.178C372.951 498.677 386.848 503.675 386.848 503.675Z" fill="#FFDAA4" stroke="#FFDAA4" stroke-width="0.19" stroke-miterlimit="10"/>
<path d="M210.991 487.77C191.064 487.77 177.676 484.409 177.676 481.268C177.676 478.126 191.064 474.761 210.991 474.761C230.918 474.761 244.306 478.126 244.306 481.268C244.306 484.409 230.918 487.77 210.991 487.77Z" fill="#090110"/>
<path d="M210.989 475.123C231.402 475.123 243.937 478.702 243.937 481.268C243.937 483.834 231.402 487.408 210.989 487.408C190.577 487.408 178.036 483.829 178.036 481.268C178.036 478.707 190.567 475.123 210.989 475.123ZM210.989 474.399C192.391 474.399 177.312 477.474 177.312 481.268C177.312 485.062 192.391 488.118 210.989 488.118C229.588 488.118 244.666 485.043 244.666 481.254C244.666 477.465 229.588 474.385 210.989 474.385V474.399Z" fill="#090110"/>
<path d="M183.447 435.628C172.755 435.685 164.397 444.72 164.873 454.716C165.397 465.05 175.26 473.323 186.205 471.709C186.095 470.843 185.933 469.596 185.729 468.101C184.948 462.808 184.571 462.099 183.962 461.67C182.571 460.695 181.38 462.18 179.113 461.542C176.341 460.756 174.679 457.553 174.17 455.22C173.598 452.588 173.97 448.704 176.38 446.947C178.894 445.105 182.019 446.786 183.195 444.915C183.714 444.087 183.328 443.411 183.195 440.864C183.114 439.115 183.199 437.362 183.447 435.628Z" fill="#70432D" stroke="black" stroke-width="2.58" stroke-miterlimit="10"/>
<path d="M183.929 430.544C184.157 428.64 187.453 427.331 190.492 425.851C193.43 424.423 196.369 423.742 206.909 423.661C222.697 423.533 226.397 424.966 228.231 425.789C230.912 427.005 233.4 428.609 235.613 430.549C235.613 430.549 239.166 459.3 228.56 480.73C228.56 480.73 206.594 489.774 189.182 478.598C189.182 478.598 180.647 457.934 183.929 430.544Z" fill="#70432D" stroke="black" stroke-width="3.45" stroke-miterlimit="10"/>
<path d="M230.913 431.049L229.484 432.001C228.135 432.82 226.713 433.512 225.236 434.067C223.035 434.874 220.753 435.44 218.43 435.757C215.59 436.143 212.719 436.253 209.857 436.085C207.009 435.933 204.174 435.584 201.375 435.038C198.793 434.562 196.502 433.957 194.602 433.4C192.702 432.843 191.187 432.325 190.149 431.944C189.111 431.563 188.549 431.325 188.549 431.325C188.549 431.325 189.13 431.501 190.197 431.801C191.264 432.101 192.807 432.486 194.731 432.91C196.655 433.334 198.95 433.791 201.518 434.181C204.296 434.619 207.096 434.912 209.905 435.057C212.708 435.223 215.52 435.17 218.316 434.9C220.6 434.677 222.858 434.239 225.059 433.591C226.551 433.142 228.003 432.569 229.398 431.877L230.913 431.049Z" fill="black" stroke="black" stroke-width="0.07" stroke-miterlimit="10"/>
<path d="M226.536 433.248C229.87 431.634 217.42 430.392 210.343 430.463C205.059 430.519 199.824 431.485 194.869 433.319C194.869 433.319 215.396 438.613 226.536 433.248Z" fill="#3D2014"/>
<path d="M226.561 433.295L225.951 433.576C225.368 433.845 224.77 434.082 224.16 434.285C221.916 435.014 219.593 435.476 217.24 435.661C213.751 435.937 210.244 435.899 206.762 435.547C204.791 435.366 202.733 435.095 200.609 434.738C199.545 434.557 198.471 434.355 197.385 434.133C196.827 434.014 196.318 433.905 195.718 433.766C195.118 433.628 194.665 433.509 194.151 433.376H194.051L194.141 433.338L194.332 433.271L194.718 433.129L195.484 432.853L196.404 432.538L197.213 432.286C197.756 432.12 198.294 431.967 198.833 431.81C199.909 431.521 200.979 431.279 202.043 431.082C204.073 430.693 206.127 430.445 208.191 430.339C210.168 430.244 212.049 430.287 213.802 430.373C215.554 430.458 217.188 430.577 218.674 430.725C221.024 430.908 223.355 431.291 225.642 431.867C225.996 431.965 226.339 432.099 226.666 432.267C226.942 432.405 227.17 432.643 227.042 432.824C226.949 432.952 226.827 433.055 226.685 433.124L226.537 433.195L226.685 433.119C226.82 433.046 226.936 432.942 227.023 432.814C227.132 432.648 226.918 432.443 226.647 432.31C226.316 432.154 225.972 432.031 225.618 431.943C223.325 431.44 220.994 431.121 218.65 430.991C217.169 430.877 215.54 430.782 213.787 430.73C212.035 430.677 210.172 430.668 208.215 430.787C206.166 430.91 204.128 431.171 202.114 431.567C201.071 431.767 200.009 432.015 198.947 432.3C198.413 432.443 197.88 432.6 197.347 432.776L196.546 433.029L195.856 433.262H195.818H195.87L197.47 433.614C198.552 433.847 199.623 434.052 200.676 434.233C202.781 434.604 204.829 434.895 206.786 435.099C210.248 435.493 213.738 435.591 217.216 435.39C219.567 435.258 221.895 434.859 224.156 434.2C224.951 433.943 225.584 433.724 225.965 433.548L226.561 433.295Z" fill="black" stroke="black" stroke-width="0.04" stroke-miterlimit="10"/>
<path d="M203.551 387.641C204.794 392.149 208.59 395.943 209.486 396.805C213.324 400.498 215.653 400.137 217.806 403.654C217.987 403.95 220.664 408.414 219.506 413.522C218.668 417.282 215.939 420.534 216.544 421C216.687 421.114 216.949 421 217.068 420.953C223.736 418.001 225.926 412.86 225.926 412.86C227.808 408.41 227.293 403.002 225.022 398.923C221.421 392.444 215.129 392.449 214.406 387.023C214.205 385.499 214.639 383.895 215.506 380.692C216.725 376.203 218.387 375.337 218.544 372.423C218.687 369.748 217.639 365.902 215.687 365.369C211.524 364.236 200.718 377.336 203.551 387.641Z" fill="#CCCAAF"/>
<path d="M203.083 408.081L200.33 404.721C200.33 404.721 196.882 396.029 204.674 401.355C212.466 406.682 212.475 413.575 212.475 413.575C212.475 413.575 212.099 417.797 210.994 418.901C209.889 420.005 208.865 416.045 208.208 415.379C207.551 414.712 205.331 408.738 203.083 408.081Z" fill="#CCCAAF"/>
<path d="M934.983 195.529H875.902C872.562 195.529 869.854 198.236 869.854 201.575V263.113C869.854 266.452 872.562 269.158 875.902 269.158H934.983C938.324 269.158 941.032 266.452 941.032 263.113V201.575C941.032 198.236 938.324 195.529 934.983 195.529Z" fill="#FDCB93" stroke="#090110" stroke-width="3.74" stroke-miterlimit="10"/>
<path d="M922.614 206.802H891.113C889.296 206.802 887.822 208.274 887.822 210.091V212.047C887.822 213.864 889.296 215.337 891.113 215.337H922.614C924.431 215.337 925.905 213.864 925.905 212.047V210.091C925.905 208.274 924.431 206.802 922.614 206.802Z" fill="#E5A76A"/>
<path d="M915.194 228.074H880.388C879.484 228.074 878.75 228.806 878.75 229.709C878.75 230.612 879.484 231.344 880.388 231.344H915.194C916.099 231.344 916.832 230.612 916.832 229.709C916.832 228.806 916.099 228.074 915.194 228.074Z" fill="#E5A76A"/>
<path d="M915.194 234.657H880.388C879.484 234.657 878.75 235.389 878.75 236.292C878.75 237.195 879.484 237.927 880.388 237.927H915.194C916.099 237.927 916.832 237.195 916.832 236.292C916.832 235.389 916.099 234.657 915.194 234.657Z" fill="#E5A76A"/>
<path d="M914.318 241.236H881.265C879.876 241.236 878.75 242.361 878.75 243.749V246.439C878.75 247.827 879.876 248.952 881.265 248.952H914.318C915.706 248.952 916.832 247.827 916.832 246.439V243.749C916.832 242.361 915.706 241.236 914.318 241.236Z" fill="#E5A76A"/>
<path d="M914.837 251.551H880.746C879.643 251.551 878.75 252.444 878.75 253.545V254.431C878.75 255.532 879.643 256.425 880.746 256.425H914.837C915.939 256.425 916.832 255.532 916.832 254.431V253.545C916.832 252.444 915.939 251.551 914.837 251.551Z" fill="#E5A76A"/>
<path d="M933.407 227.274H923.21C921.75 227.274 920.566 228.457 920.566 229.916V245.601C920.566 247.06 921.75 248.243 923.21 248.243H933.407C934.866 248.243 936.05 247.06 936.05 245.601V229.916C936.05 228.457 934.866 227.274 933.407 227.274Z" fill="#E5A76A"/>
<path d="M910.469 185.3H899.801V200.152H910.469V185.3Z" fill="#6B4522"/>
<path d="M1357.7 256.231L1296.14 253.465C1295.25 253.426 1294.37 253.204 1293.56 252.811C1292.75 252.419 1292.03 251.866 1291.45 251.185C1290.86 250.505 1290.42 249.711 1290.15 248.854C1289.88 247.997 1289.8 247.094 1289.89 246.201L1298.64 163.785C1298.82 162.169 1299.58 160.674 1300.79 159.588C1302 158.502 1303.57 157.901 1305.19 157.902H1362.61C1363.51 157.902 1364.39 158.084 1365.21 158.437C1366.03 158.79 1366.77 159.306 1367.39 159.955C1368 160.603 1368.48 161.37 1368.79 162.209C1369.1 163.048 1369.23 163.94 1369.18 164.833L1364.57 250.038C1364.47 251.766 1363.69 253.385 1362.41 254.545C1361.12 255.704 1359.43 256.31 1357.7 256.231Z" fill="#FFE6BF" stroke="black" stroke-width="2.95" stroke-miterlimit="10"/>
<path d="M1347.35 175.485H1317.27C1314.78 175.485 1312.77 177.497 1312.77 179.979V193.75C1312.77 196.231 1314.78 198.243 1317.27 198.243H1347.35C1349.83 198.243 1351.85 196.231 1351.85 193.75V179.979C1351.85 177.497 1349.83 175.485 1347.35 175.485Z" fill="#889987"/>
<path d="M1311.26 213.909H1323.59" stroke="#889987" stroke-width="5.9" stroke-linecap="round" stroke-linejoin="round"/>
<path d="M1333.63 214.575H1348.26" stroke="#889987" stroke-width="7.95" stroke-linecap="round" stroke-linejoin="round"/>
<path d="M1308.96 225.5H1350.08" stroke="#889987" stroke-width="2" stroke-linecap="round" stroke-linejoin="round"/>
<path d="M1308.96 237.091H1350.08" stroke="#889987" stroke-width="3" stroke-linecap="round" stroke-linejoin="round"/>
<path d="M1338.97 149.3H1328.3V164.152H1338.97V149.3Z" fill="#E5A76A"/>
<path d="M155.068 444.318L42.118 435.27C39.635 435.072 37.3283 433.91 35.6908 432.034C34.0533 430.158 33.215 427.716 33.3549 425.231L40.5234 297.489C40.6597 295.056 41.7227 292.768 43.4942 291.094C45.2657 289.42 47.6113 288.487 50.0493 288.487H157.366C158.628 288.487 159.877 288.737 161.042 289.223C162.207 289.709 163.263 290.422 164.151 291.319C165.038 292.216 165.738 293.28 166.211 294.449C166.684 295.619 166.92 296.871 166.905 298.132L165.361 434.921C165.347 436.228 165.064 437.518 164.53 438.71C163.997 439.903 163.223 440.973 162.257 441.855C161.292 442.736 160.156 443.409 158.919 443.833C157.682 444.257 156.371 444.422 155.068 444.318Z" fill="#FFE6C3" stroke="#090110" stroke-width="4.26" stroke-miterlimit="10"/>
<path d="M119.115 312.03H147.04" stroke="#949A92" stroke-width="7.1" stroke-miterlimit="10" stroke-linecap="round"/>
<path d="M119.115 324.03H147.04" stroke="#949A92" stroke-width="7.1" stroke-miterlimit="10" stroke-linecap="round"/>
<path d="M125.641 338.111H147.041" stroke="#949A92" stroke-width="6.21" stroke-miterlimit="10" stroke-linecap="round"/>
<path d="M134.316 353.502H148.865" stroke="#949A92" stroke-width="3.62" stroke-miterlimit="10" stroke-linecap="round"/>
<path d="M51.0195 401.56L149.228 405.67" stroke="#949A92" stroke-width="9.42" stroke-miterlimit="10" stroke-linecap="round"/>
<path d="M51.0234 416.739L149.218 421.207" stroke="#949A92" stroke-width="9.42" stroke-miterlimit="10" stroke-linecap="round"/>
<path d="M97.9829 353.41L72.9299 352.142L68.0268 362.132C66.8167 364.581 66.1826 366.43 66.1244 367.68C66.1121 368.194 66.2214 368.704 66.4434 369.169C66.6654 369.633 66.9937 370.039 67.4018 370.353C68.3025 371.149 70.306 371.733 73.4124 372.107L73.3251 373.875L52.9453 372.856L53.0372 371.092C55.7637 370.752 57.5436 370.219 58.3769 369.494C60.0771 368.049 62.03 365.037 64.2357 360.46L89.661 308.365L91.3291 308.447L111.171 363.376C112.764 367.794 114.27 370.683 115.688 372.043C117.107 373.402 119.13 374.229 121.759 374.523L121.671 376.286L96.1403 375.014L96.2276 373.246C98.8101 373.246 100.573 372.905 101.517 372.222C101.952 371.935 102.314 371.549 102.573 371.097C102.832 370.645 102.982 370.138 103.01 369.618C103.081 368.218 102.555 365.976 101.434 362.889L97.9829 353.41ZM96.8249 349.809L87.152 323.126L74.5842 348.703L96.8249 349.809Z" fill="#738988"/>
<path d="M108.412 277.295H91.8691V299.34H108.412V277.295Z" fill="#738988"/>
<path d="M199.186 208.554L165.461 216.208C164.74 216.371 163.992 216.373 163.27 216.213C162.548 216.053 161.871 215.735 161.287 215.282C160.702 214.829 160.226 214.253 159.891 213.594C159.556 212.935 159.372 212.21 159.351 211.472C158.884 195.221 158.415 178.971 157.946 162.724C157.908 161.474 158.341 160.256 159.158 159.309C159.976 158.363 161.118 157.757 162.361 157.611L193.794 153.898C194.465 153.818 195.145 153.874 195.794 154.063C196.442 154.252 197.046 154.57 197.568 154.999C198.09 155.427 198.52 155.956 198.833 156.555C199.145 157.154 199.333 157.809 199.386 158.482C200.614 173.397 201.842 188.323 203.067 203.26C203.166 204.462 202.828 205.659 202.115 206.631C201.402 207.603 200.362 208.286 199.186 208.554Z" fill="#FCCE9A" stroke="black" stroke-miterlimit="10"/>
<path d="M179.796 190.994C177.806 190.46 171.476 188.504 167.794 182.425C165.265 178.246 163.213 170.854 166.366 168.516C168.704 166.779 173.467 168.145 177.796 171.572C181.335 167.764 186.135 166.789 189.041 168.616C192.736 170.939 191.922 176.932 191.798 177.856C190.646 186.471 180.811 190.589 179.796 190.994Z" fill="#FCCE9A" stroke="black" stroke-miterlimit="10"/>
<path d="M173.683 206.164L170.387 203.774L166.543 205.131L167.801 201.256L165.324 198.024H169.396L171.706 194.668L172.968 198.543L176.874 199.7L173.578 202.094L173.683 206.164Z" fill="#FCCE9A" stroke="black" stroke-miterlimit="10"/>
<path d="M181.816 194.668L194.676 192.707" stroke="black" stroke-miterlimit="10"/>
<path d="M183.545 200.419L196.404 198.453" stroke="black" stroke-miterlimit="10"/>
<path d="M183.636 149.3H173.125V163.309H183.636V149.3Z" fill="#738988"/>
<path d="M50.0819 541.753C65.6719 541.753 78.3102 539.413 78.3102 536.527C78.3102 533.64 65.6719 531.3 50.0819 531.3C34.4918 531.3 21.8535 533.64 21.8535 536.527C21.8535 539.413 34.4918 541.753 50.0819 541.753Z" fill="#090110" stroke="#090110" stroke-width="1.23" stroke-miterlimit="10"/>
<path d="M1362.82 497.271C1387.68 497.271 1407.83 494.1 1407.83 490.188C1407.83 486.277 1387.68 483.105 1362.82 483.105C1337.96 483.105 1317.81 486.277 1317.81 490.188C1317.81 494.1 1337.96 497.271 1362.82 497.271Z" fill="#090110" stroke="#090110" stroke-width="1.8" stroke-miterlimit="10"/>
<path d="M1340.55 435.794C1340.55 435.794 1267.28 410.171 1269.92 392.711C1270.11 391.11 1270.79 389.604 1271.85 388.394C1278.13 381.577 1297.99 388.722 1310.83 396.562C1312.53 397.595 1313.73 398.414 1314.08 398.656C1321.37 403.664 1333.61 414.174 1345.95 436.913L1340.55 435.794Z" fill="#D6B97F" stroke="#090110" stroke-width="1.44" stroke-miterlimit="10"/>
<path d="M1301.46 340.869C1301.46 340.869 1301.85 317.516 1316.98 333.253C1330.69 347.481 1341.04 365.531 1348.68 388.122C1348.98 389.003 1349.19 389.655 1349.63 390.978C1358.71 418.644 1363.16 432.582 1358.5 437.77C1356.95 439.498 1353.77 441.392 1346.42 440.626C1346.42 440.626 1336.36 425.87 1325.94 409.686C1320.38 401.046 1308.48 387.88 1303.97 371.886C1303.46 370.101 1303.09 368.487 1303.09 368.487C1303.09 368.487 1301.19 360.362 1301.45 340.879L1301.46 340.869Z" fill="#B59968" stroke="#090110" stroke-width="1.44" stroke-miterlimit="10"/>
<path d="M1359.53 338.27C1361.47 335.024 1370.58 319.749 1378.8 321.429C1381.5 321.981 1383.36 323.971 1384.99 326.879C1391.23 337.918 1391.29 350.846 1389.65 364.008C1388.22 375.461 1387.27 375.004 1379.77 406.23C1374.96 426.222 1372.48 438.308 1365.64 439.522C1364.15 439.739 1362.62 439.505 1361.25 438.851C1343.29 431.32 1349.3 376.322 1349.95 370.41C1351.27 358.343 1353.55 348.29 1359.53 338.27Z" fill="#D6B97F" stroke="#090110" stroke-width="1.44" stroke-miterlimit="10"/>
<path d="M1376.61 439.008C1376.61 439.008 1413.92 416.931 1420.6 396.348C1427.27 375.766 1424.06 374.419 1419.64 374.395C1415.22 374.371 1395.67 376.613 1389.9 384.034C1384.12 391.455 1357.66 428.431 1371.07 438.851C1371.86 439.452 1372.82 439.791 1373.82 439.819C1374.81 439.847 1375.79 439.564 1376.61 439.008Z" fill="#B29769" stroke="#090110" stroke-width="1.44" stroke-miterlimit="10"/>
<path d="M1396.15 487.609C1374.27 492.647 1351.73 494.213 1329.37 492.25C1321.1 469.62 1318.85 457.195 1322.62 454.973C1323.04 454.764 1323.49 454.64 1323.96 454.608C1324.43 454.576 1324.89 454.637 1325.34 454.788L1398.28 451.708L1396.15 487.609Z" fill="#EA9B65" stroke="#090110" stroke-width="4.32" stroke-miterlimit="10"/>
<path d="M1403.75 453.116L1317.28 455.582C1316.58 455.599 1315.9 455.357 1315.36 454.903C1314.83 454.448 1314.48 453.812 1314.38 453.116L1311.76 433.524C1311.71 433.129 1311.75 432.727 1311.86 432.345C1311.97 431.964 1312.17 431.61 1312.42 431.307C1312.68 431.004 1313 430.758 1313.36 430.586C1313.72 430.413 1314.11 430.318 1314.51 430.306L1402.14 428.064C1402.87 428.048 1403.58 428.312 1404.12 428.8C1404.66 429.289 1405 429.965 1405.05 430.692L1406.52 450.06C1406.55 450.445 1406.5 450.83 1406.37 451.194C1406.25 451.558 1406.05 451.893 1405.79 452.178C1405.53 452.464 1405.22 452.694 1404.87 452.855C1404.52 453.016 1404.14 453.105 1403.75 453.116Z" fill="#EA9B65" stroke="#090110" stroke-width="4.32" stroke-miterlimit="10"/>
<path d="M1340.37 410.59C1340.37 410.59 1340.09 409.771 1339.58 408.286C1339.07 406.801 1338.4 404.654 1337.57 402.003C1335.79 396.728 1333.51 389.431 1330.61 381.534C1327.72 373.637 1324.77 366.635 1321.97 361.861C1320.9 359.939 1319.67 358.113 1318.28 356.406C1317.89 355.932 1317.48 355.481 1317.05 355.054L1316.68 354.721L1316.54 354.606L1316.7 354.687L1317.13 354.93C1317.66 355.258 1318.17 355.619 1318.65 356.011C1320.42 357.44 1322.01 359.064 1323.41 360.852C1327.04 365.279 1330.93 372.209 1333.89 380.297C1336.85 388.384 1338.33 396.052 1339.28 401.569C1339.69 404.349 1339.95 406.606 1340.13 408.162C1340.31 409.719 1340.37 410.59 1340.37 410.59Z" fill="#D6B97F" stroke="#D6B97F" stroke-width="0.24" stroke-miterlimit="10"/>
<path d="M1374.12 423.633L1375.25 421.472C1375.99 420.091 1377.07 418.092 1378.48 415.66C1381.39 410.899 1385.62 404.302 1391.33 397.871C1397.05 391.44 1403.24 386.447 1408.21 383.7C1410.14 382.573 1412.18 381.668 1414.31 381.001C1414.88 380.825 1415.46 380.685 1416.04 380.583L1416.49 380.525H1416.63L1416.5 380.573L1416.09 380.74C1415.55 380.97 1415.03 381.228 1414.52 381.511C1412.65 382.568 1410.87 383.785 1409.2 385.147C1404.91 388.513 1399.56 393.916 1393.96 400.175C1388.35 406.435 1383.51 412.394 1379.89 416.659C1378.14 418.825 1376.7 420.581 1375.69 421.781L1374.12 423.633Z" fill="#D6B97F" stroke="#D6B97F" stroke-width="0.24" stroke-miterlimit="10"/>
<path d="M1359.53 417.844C1359.53 417.844 1362.09 399.846 1366.3 377.86C1370.51 355.873 1374.77 338.175 1374.77 338.175C1374.77 338.175 1372.22 356.173 1368.01 378.159C1363.8 400.146 1359.53 417.844 1359.53 417.844Z" fill="#B29769" stroke="#B29769" stroke-width="0.12" stroke-miterlimit="10"/>
<path d="M1330.34 424.39C1330.34 424.39 1319.25 418.421 1306.15 410.143C1293.05 401.865 1282.88 394.435 1282.88 394.435C1282.88 394.435 1293.97 400.404 1307.07 408.681C1320.17 416.959 1330.34 424.39 1330.34 424.39Z" fill="#B29769" stroke="#B29769" stroke-width="0.12" stroke-miterlimit="10"/>
<path d="M62.9742 505.887C62.9742 505.887 102.4 492.083 100.976 482.71C100.874 481.847 100.512 481.035 99.9373 480.382C96.5606 476.717 85.8779 480.563 78.9815 484.781C78.0719 485.338 77.4289 485.776 77.2384 485.904C73.2901 488.608 66.7224 494.253 60.0547 506.492L62.9742 505.887Z" fill="#D6B97F" stroke="#090110" stroke-width="0.77" stroke-miterlimit="10"/>
<path d="M84.0076 454.811C84.0076 454.811 83.8028 442.244 75.6586 450.698C68.286 458.353 62.7185 468.068 58.6035 480.211L58.0987 481.734C53.2122 496.619 50.8213 504.107 53.336 506.91C54.1695 507.838 55.884 508.857 59.8371 508.452C59.8371 508.452 65.2522 500.503 70.8436 491.792C73.8345 487.142 80.2403 480.063 82.6693 471.452C82.9408 470.5 83.1456 469.624 83.1456 469.624C83.1456 469.624 84.1553 465.255 84.0219 454.787L84.0076 454.811Z" fill="#B59968" stroke="#090110" stroke-width="0.77" stroke-miterlimit="10"/>
<path d="M52.7642 453.417C51.7259 451.67 46.8204 443.449 42.3958 444.372C40.967 444.672 39.9431 445.739 39.062 447.305C35.7043 453.245 35.6709 460.2 36.5568 467.297C37.3236 473.485 37.8284 473.214 41.8719 490.017C44.4581 500.77 45.7916 507.277 49.4684 507.929C50.2805 508.05 51.1104 507.924 51.8497 507.567C61.518 503.516 58.2841 473.923 57.9364 470.743C57.1982 464.212 55.9837 458.805 52.7642 453.417Z" fill="#D6B97F" stroke="#090110" stroke-width="0.77" stroke-miterlimit="10"/>
<path d="M43.5721 507.62C43.5721 507.62 23.5022 495.748 19.9112 484.662C16.3201 473.576 18.0442 472.866 20.4255 472.852C22.8069 472.838 33.3228 474.047 36.4281 478.041C39.5334 482.034 53.7738 501.927 46.5583 507.553C46.1291 507.873 45.611 508.051 45.0759 508.063C44.5407 508.075 44.0151 507.92 43.5721 507.62Z" fill="#B29769" stroke="#090110" stroke-width="0.77" stroke-miterlimit="10"/>
<path d="M33.061 533.767C44.8344 536.475 56.9605 537.316 68.9954 536.261C73.4405 524.088 74.6502 517.403 72.6245 516.207C72.4001 516.092 72.1549 516.024 71.9037 516.007C71.6524 515.99 71.4002 516.024 71.1624 516.107L31.918 514.45L33.061 533.767Z" fill="#EA9B65" stroke="#090110" stroke-width="2.32" stroke-miterlimit="10"/>
<path d="M28.9694 515.207L75.4959 516.536C75.8742 516.545 76.2426 516.415 76.5307 516.17C76.8189 515.925 77.0067 515.582 77.0581 515.207L78.4869 504.669C78.5157 504.456 78.4994 504.239 78.4389 504.033C78.3784 503.827 78.2751 503.636 78.1358 503.473C77.9965 503.309 77.8243 503.177 77.6304 503.084C77.4365 502.992 77.2253 502.941 77.0105 502.936L29.86 501.727C29.4654 501.719 29.0827 501.862 28.7911 502.128C28.4994 502.394 28.3211 502.761 28.2931 503.155L27.5073 513.58C27.4937 513.783 27.5211 513.987 27.5877 514.18C27.6543 514.372 27.7588 514.55 27.895 514.701C28.0313 514.853 28.1965 514.976 28.3811 515.063C28.5656 515.15 28.7656 515.199 28.9694 515.207Z" fill="#EA9B65" stroke="#090110" stroke-width="2.32" stroke-miterlimit="10"/>
<path d="M62.6797 492.24C62.6797 492.24 62.8845 490.388 63.3893 487.409C64.0989 483.527 65.1623 479.719 66.566 476.032C68.2663 471.719 70.4476 468.045 72.4384 465.736C73.2 464.807 74.0644 463.967 75.015 463.232C75.2691 463.038 75.5347 462.86 75.8104 462.699C76.0056 462.594 76.0961 462.556 76.0961 462.556C76.0961 462.556 76.0199 462.618 75.858 462.766C75.6961 462.913 75.4817 463.132 75.215 463.446C74.4673 464.331 73.795 465.277 73.2052 466.274C71.6621 468.778 69.9809 472.495 68.3235 476.698C66.666 480.901 65.3325 484.79 64.299 487.647C63.3465 490.484 62.6797 492.24 62.6797 492.24Z" fill="#D6B97F" stroke="#D6B97F" stroke-width="0.13" stroke-miterlimit="10"/>
<path d="M44.5766 499.556C44.5766 499.556 43.3812 498.128 41.5618 495.748C39.7425 493.368 37.1611 490.16 34.2321 486.704C31.303 483.248 28.5169 480.273 26.1975 478.383C25.2996 477.613 24.3353 476.923 23.316 476.322C23.0329 476.148 22.7403 475.989 22.4397 475.846C22.2349 475.756 22.1016 475.713 22.1016 475.713C22.1016 475.713 22.2397 475.713 22.4635 475.77C22.7866 475.836 23.1048 475.923 23.4161 476.032C24.5718 476.438 25.6788 476.971 26.7166 477.622C29.3694 479.183 32.6271 481.953 35.6323 485.485C38.1487 488.517 40.3807 491.774 42.3 495.215C43.7765 497.876 44.5766 499.556 44.5766 499.556Z" fill="#D6B97F" stroke="#D6B97F" stroke-width="0.13" stroke-miterlimit="10"/>
<path d="M52.5786 496.262C52.5786 496.262 50.3687 486.742 48.216 474.875C46.0633 463.008 44.7773 453.312 44.7773 453.312C44.7773 453.312 46.9825 462.832 49.14 474.704C51.2974 486.575 52.5786 496.262 52.5786 496.262Z" fill="#B29769" stroke="#B29769" stroke-width="0.06" stroke-miterlimit="10"/>
<path d="M68.3672 499.58C68.3672 499.58 73.8681 495.648 81.0121 491.288C88.1561 486.928 94.1332 483.795 94.1332 483.795C94.1332 483.795 88.6181 487.727 81.5074 492.087C74.3967 496.448 68.3672 499.58 68.3672 499.58Z" fill="#B29769" stroke="#B29769" stroke-width="0.06" stroke-miterlimit="10"/>
<path d="M521.514 416.371L471.73 414.134C471.004 414.101 470.293 413.921 469.64 413.603C468.987 413.285 468.405 412.837 467.932 412.286C467.458 411.736 467.103 411.094 466.886 410.401C466.67 409.708 466.598 408.978 466.674 408.256C469.039 386.021 471.403 363.789 473.768 341.562C473.906 340.255 474.524 339.045 475.501 338.166C476.478 337.286 477.747 336.799 479.062 336.799H525.525C526.249 336.799 526.965 336.946 527.63 337.232C528.295 337.518 528.895 337.936 529.393 338.462C529.891 338.987 530.277 339.608 530.526 340.288C530.776 340.967 530.884 341.69 530.845 342.413L527.111 411.344C527.074 412.041 526.9 412.724 526.598 413.354C526.297 413.985 525.874 414.549 525.354 415.016C524.834 415.483 524.228 415.843 523.569 416.075C522.91 416.308 522.211 416.408 521.514 416.371Z" fill="#C99959" stroke="black" stroke-width="1.76" stroke-miterlimit="10"/>
<path d="M513.141 351.03H488.791C486.783 351.03 485.154 352.657 485.154 354.665V365.815C485.154 367.823 486.783 369.45 488.791 369.45H513.141C515.15 369.45 516.779 367.823 516.779 365.815V354.665C516.779 352.657 515.15 351.03 513.141 351.03Z" fill="#DBC2A5" stroke="black" stroke-width="1.76" stroke-miterlimit="10"/>
<path d="M483.93 382.121H493.906" stroke="black" stroke-width="1.76" stroke-miterlimit="10"/>
<path d="M506.359 329.845H497.725V341.865H506.359V329.845Z" fill="#E5A76A"/>
<path d="M1160.85 526.341C1160.85 526.341 1244.09 515.583 1255.74 507.3L1301.54 513.098C1277.25 530.063 1264.16 536.77 1256.59 539.578C1254.81 540.24 1248.37 542.525 1239.11 546.195C1228.66 550.346 1228.75 550.655 1226.62 551.16C1216.67 553.54 1208.63 548.166 1194.99 541.23C1183.91 535.613 1172.51 530.642 1160.85 526.341Z" fill="#F2902F" stroke="#090110" stroke-width="3.26" stroke-miterlimit="10"/>
<path d="M1166.94 526.469C1166.94 526.469 1238.52 516.711 1248.55 509.204L1287.92 514.44C1287.92 514.44 1249.26 548.237 1225.64 545.966C1202.02 543.696 1166.94 526.469 1166.94 526.469Z" fill="#F2DBC4" stroke="#090110" stroke-width="3.26" stroke-miterlimit="10"/>
<path d="M1294.01 507.924C1294.01 507.924 1222 513.16 1210.76 507.886L1173.14 521.181C1173.14 521.181 1217.39 546.295 1240.12 539.198C1262.86 532.1 1294.01 507.924 1294.01 507.924Z" fill="#EA9C4E" stroke="#090110" stroke-width="3.26" stroke-miterlimit="10"/>
<path d="M1287.55 508.119C1287.55 508.119 1215.53 513.355 1204.3 508.076L1166.67 521.371C1166.67 521.371 1210.92 546.485 1233.66 539.393C1256.4 532.3 1287.55 508.119 1287.55 508.119Z" fill="#FDCB93" stroke="#090110" stroke-width="3.26" stroke-miterlimit="10"/>
<path d="M1119.27 319.091H1023.45V424.389H1119.27V319.091Z" fill="#FFEDDE" stroke="black" stroke-width="0.46" stroke-miterlimit="10"/>
<path d="M1053.71 344.854H1038.57V409.818H1053.71V344.854Z" fill="#FFF0A9" stroke="black" stroke-width="0.46" stroke-miterlimit="10"/>
<path d="M1068.84 362.778H1053.71V409.827H1068.84V362.778Z" fill="#D800EF" stroke="black" stroke-width="0.62" stroke-miterlimit="10"/>
<path d="M1083.96 379.021H1068.83V409.827H1083.96V379.021Z" fill="#240BA0" stroke="black" stroke-width="0.62" stroke-miterlimit="10"/>
<path d="M1099.1 389.1H1083.97V409.827H1099.1V389.1Z" stroke="black" stroke-width="0.62" stroke-miterlimit="10"/>
<path d="M1086.53 304.99H1066.27V333.193H1086.53V304.99Z" fill="#E5A76A"/>
<path d="M456.854 528.3L503.354 520.3L573.854 534.3L501.354 548.8L456.854 528.3Z" fill="#090110"/>
<path d="M486.123 495.33C486.123 495.33 478.274 495.297 480.141 500.09C482.008 504.884 498.806 545.225 498.806 545.225C498.806 545.225 502.139 549.157 511.074 547.424C520.009 545.692 565.345 535.467 565.345 535.467C565.345 535.467 571.06 533.368 566.588 524.367" fill="#666565"/>
<path d="M486.123 495.33C486.123 495.33 478.274 495.297 480.141 500.09C482.008 504.884 498.806 545.225 498.806 545.225C498.806 545.225 502.139 549.157 511.074 547.424C520.009 545.692 565.345 535.467 565.345 535.467C565.345 535.467 571.06 533.368 566.588 524.367" stroke="#090110" stroke-width="1.13" stroke-miterlimit="10"/>
<path d="M488.362 520.12L482.647 535.828C482.647 535.828 481.646 538.627 483.647 539.027C485.647 539.427 496.377 538.361 496.377 538.361L488.362 520.12Z" fill="#1E1E1E" stroke="#090110" stroke-width="1.13" stroke-miterlimit="10"/>
<path d="M484.676 495.563L504.141 541.141C504.141 541.141 504.007 545.672 513.076 544.34C522.144 543.007 565.346 531.811 565.346 531.811C565.346 531.811 568.146 531.145 565.346 523.281C562.545 515.417 548.677 485.3 548.677 485.3L484.676 495.563Z" fill="#1E1E1E" stroke="#090110" stroke-width="1.13" stroke-miterlimit="10"/>
<path d="M496.934 500.109L511.183 533.468C511.183 533.468 511.088 536.8 517.723 535.81C524.357 534.82 555.991 526.661 555.991 526.661C555.991 526.661 558.039 526.185 555.991 520.416C553.943 514.646 543.789 492.617 543.789 492.617L496.934 500.109Z" fill="#739BFF" stroke="#090110" stroke-width="0.83" stroke-miterlimit="10"/>
<path d="M496.62 510.234C497.578 510.234 498.354 509.458 498.354 508.501C498.354 507.544 497.578 506.769 496.62 506.769C495.663 506.769 494.887 507.544 494.887 508.501C494.887 509.458 495.663 510.234 496.62 510.234Z" fill="#739BFF" stroke="#090110" stroke-width="0.83" stroke-miterlimit="10"/>
<path d="M498.355 514.294C499.312 514.294 500.088 513.518 500.088 512.561C500.088 511.604 499.312 510.829 498.355 510.829C497.397 510.829 496.621 511.604 496.621 512.561C496.621 513.518 497.397 514.294 498.355 514.294Z" fill="#739BFF" stroke="#090110" stroke-width="0.83" stroke-miterlimit="10"/>
<path d="M504.154 526.742C505.035 526.366 504.822 523.893 503.68 521.219C502.537 518.546 500.897 516.683 500.016 517.059C499.136 517.435 499.348 519.907 500.491 522.581C501.634 525.255 503.274 527.117 504.154 526.742Z" fill="#739BFF" stroke="#090110" stroke-width="0.83" stroke-miterlimit="10"/>
<ellipse cx="908.354" cy="470.8" rx="17.5" ry="4.5" fill="#090110"/>
<path d="M908.894 444.348C917.201 444.348 923.935 442.724 923.935 440.721C923.935 438.718 917.201 437.094 908.894 437.094C900.587 437.094 893.854 438.718 893.854 440.721C893.854 442.724 900.587 444.348 908.894 444.348Z" fill="#EF8535" stroke="black" stroke-width="0.42" stroke-miterlimit="10"/>
<path d="M894.42 447.409L897.078 466.192C897.078 466.192 896.997 468.287 900.669 469.776C904.341 471.266 917.243 470.867 918.934 469.172C920.625 467.477 920.872 467.801 921.353 465.307C921.834 462.812 923.601 442.292 923.601 442.292C923.601 442.292 902.726 448.137 893.854 441.525L894.42 447.409Z" fill="#F3A466" stroke="black" stroke-width="1.13" stroke-miterlimit="10"/>
<path d="M898.712 443.258L896.697 426.007L898.712 416.254L902.503 425.845L904.76 443.981" fill="#987C86"/>
<path d="M898.712 443.258L896.697 426.007L898.712 416.254L902.503 425.845L904.76 443.981" stroke="black" stroke-width="1.13" stroke-linecap="round" stroke-linejoin="round"/>
<path d="M915.901 420.271C914.088 428.291 912.27 436.31 910.447 444.329L915.715 443.663L920.187 421.447L915.901 420.271Z" fill="#D27B55" stroke="black" stroke-width="0.56" stroke-miterlimit="10"/>
<path d="M917.843 421.105C919.896 421.809 920.948 421.414 921.448 421.105C923.83 419.677 923.887 414.126 921.082 407.3C915.843 412.465 913.552 417.487 915.109 419.743C915.448 420.219 916.152 420.862 917.843 421.105Z" fill="#D27B55" stroke="black" stroke-width="0.56" stroke-miterlimit="10"/>
<ellipse cx="747.854" cy="515.8" rx="137" ry="27.5" fill="#090110"/>
<path d="M629.088 312.193C632.629 304.497 612.169 238.531 653.615 188.588C662.588 177.784 682.036 158.255 712.936 149.644C722.91 146.867 765.736 136.399 805.7 163.21C837.304 184.414 847.83 215.988 850.666 225.788C850.666 225.788 860.375 258.748 858.152 276.177C858.152 276.177 876.87 367.474 871.254 412.556C865.638 457.638 833.083 495.552 782.552 500.853C732.021 506.155 693.467 506.542 663.15 494.415C632.834 482.287 604.755 431.526 616.732 401.219C616.732 401.219 616.385 339.846 629.088 312.193Z" fill="#0D3E66" stroke="black" stroke-width="10.26" stroke-miterlimit="10"/>
<path d="M845.307 308.516C887.948 220.761 906.431 219.794 912.154 221.278C927.483 225.224 934.484 267.902 923.666 300.835C907.652 349.616 856.216 365.901 849.573 367.893" fill="#0D3E66"/>
<path d="M849.15 366.486C849.15 366.486 850.116 366.108 851.935 365.322C853.754 364.536 856.421 363.336 859.773 361.63C863.126 359.923 867.157 357.73 871.639 354.906C876.693 351.731 881.536 348.222 886.135 344.403C891.618 339.844 896.654 334.761 901.173 329.223L902.083 328.112L902.952 326.958C903.529 326.182 904.132 325.407 904.704 324.615C905.277 323.824 905.818 322.997 906.386 322.18L906.81 321.564L907.203 320.928L908.005 319.651L908.813 318.368C909.084 317.944 909.324 317.489 909.569 317.049C910.08 316.16 910.591 315.275 911.102 314.365C911.613 313.455 912.037 312.519 912.512 311.588L912.865 310.89L913.187 310.171C913.401 309.695 913.616 309.214 913.831 308.728C914.045 308.247 914.265 307.766 914.485 307.28C914.704 306.794 914.873 306.292 915.077 305.801C915.461 304.802 915.864 303.804 916.242 302.796C916.907 300.727 917.658 298.689 918.23 296.548C919.443 292.168 920.365 287.71 920.989 283.205C922.343 273.675 922.539 264.013 921.572 254.435C921.108 249.693 920.227 245.003 918.94 240.419C918.337 238.296 917.577 236.221 916.667 234.213C915.895 232.462 914.901 230.82 913.708 229.331C912.927 228.307 911.894 227.508 910.714 227.014C910.259 226.862 909.78 226.803 909.303 226.838C908.597 226.904 907.9 227.055 907.229 227.288C905.496 227.938 903.851 228.807 902.333 229.874C901.501 230.422 900.693 231.063 899.876 231.684L898.675 232.687L898.077 233.205L897.494 233.722C894.379 236.561 891.439 239.59 888.69 242.793C887.31 244.345 886.002 245.953 884.704 247.52C884.061 248.311 883.442 249.118 882.814 249.904C882.185 250.69 881.567 251.456 880.969 252.268C876.14 258.577 871.858 264.68 868.016 270.369C860.351 281.705 854.449 291.164 850.376 297.707L844.035 307.885L845.17 304.999C845.926 303.111 847.009 300.308 848.517 296.724C851.49 289.587 855.936 279.311 862.257 266.93C865.435 260.749 869.084 254.047 873.447 247.029C873.958 246.144 874.551 245.27 875.129 244.386C875.706 243.501 876.273 242.607 876.871 241.717C878.087 239.938 879.314 238.133 880.652 236.333C883.401 232.539 886.4 228.939 889.63 225.555L890.274 224.899L890.954 224.247L892.323 222.939C893.294 222.085 894.25 221.222 895.323 220.399C897.591 218.582 900.083 217.071 902.737 215.905C904.335 215.232 906.008 214.761 907.719 214.503C909.712 214.218 911.739 214.311 913.698 214.778C915.598 215.255 917.405 216.054 919.043 217.141C920.516 218.112 921.865 219.264 923.059 220.57C925.15 222.893 926.905 225.505 928.271 228.328C929.557 230.918 930.634 233.609 931.49 236.375C933.137 241.752 934.248 247.282 934.807 252.883C935.38 258.352 935.55 263.856 935.318 269.35C935.104 274.662 934.528 279.954 933.595 285.186C932.699 290.251 931.432 295.242 929.804 300.117C929.022 302.522 928.036 304.833 927.126 307.125C926.615 308.252 926.104 309.364 925.593 310.471C925.328 311.019 925.082 311.577 924.807 312.11C924.531 312.643 924.239 313.176 923.958 313.708L923.11 315.291L922.686 316.077L922.231 316.842L920.422 319.832C919.794 320.814 919.135 321.761 918.496 322.717C918.169 323.188 917.862 323.669 917.525 324.124C917.188 324.579 916.845 325.034 916.503 325.484L915.481 326.829L914.97 327.496L914.459 328.137L912.359 330.672C911.649 331.499 910.908 332.28 910.197 333.071C909.835 333.464 909.482 333.863 909.119 334.245L908.005 335.362C902.583 340.835 896.586 345.691 890.121 349.843C884.866 353.214 879.362 356.167 873.657 358.677C869.398 360.568 865.035 362.212 860.591 363.6C856.948 364.738 854.081 365.452 852.139 365.891C850.198 366.331 849.15 366.486 849.15 366.486Z" fill="black" stroke="black" stroke-width="0.86" stroke-miterlimit="10"/>
<path d="M641.812 325.831C544.127 339.862 518.879 354.601 518.276 366.744C517.459 383.651 563.861 407.244 606.891 401.804C636.181 398.096 656.375 381.892 665.379 373.561" fill="#0D3E66"/>
<path d="M666.365 374.637L665.824 375.221C665.461 375.599 664.94 376.188 664.214 376.917C662.788 378.397 660.637 380.538 657.678 383.124C654.074 386.274 650.264 389.176 646.273 391.807C640.94 395.341 635.295 398.367 629.411 400.847C622.197 403.891 614.649 406.05 606.927 407.276C598.029 408.637 589 408.899 580.039 408.057C570.141 407.152 560.385 405.051 550.98 401.799C545.954 400.068 541.062 397.961 536.345 395.494C533.892 394.207 531.504 392.795 529.191 391.264C526.755 389.675 524.431 387.916 522.237 385.999C519.877 383.948 517.766 381.622 515.947 379.069C514.945 377.64 514.089 376.112 513.392 374.507C512.593 372.684 512.093 370.742 511.91 368.756C511.73 366.59 511.983 364.409 512.656 362.343C512.835 361.857 513.024 361.376 513.218 360.906C513.412 360.435 513.657 360.021 513.877 359.582C514.325 358.764 514.827 357.978 515.379 357.229C515.645 356.861 515.926 356.556 516.202 356.22C516.478 355.884 516.749 355.543 517.04 355.263L517.899 354.4C518.185 354.115 518.471 353.826 518.762 353.582C519.35 353.096 519.932 352.548 520.52 352.124C521.108 351.7 521.7 351.229 522.293 350.826C527.035 347.625 531.767 345.546 536.406 343.751C541.046 341.956 545.604 340.576 550.075 339.345C559.002 336.94 567.52 335.207 575.512 333.863C583.504 332.518 590.959 331.489 597.776 330.697C611.404 329.094 622.466 328.313 630.111 327.858C633.933 327.61 636.907 327.496 638.92 327.398L641.986 327.269L638.992 327.972L630.417 329.942C622.972 331.649 612.196 334.08 598.997 337.333C592.4 338.946 585.2 340.767 577.536 342.867C569.871 344.966 561.761 347.345 553.463 350.216C549.334 351.674 545.154 353.251 541.082 355.067C539.038 355.956 537.05 356.949 535.109 357.973C533.243 358.98 531.443 360.104 529.718 361.34C528.289 362.366 527.017 363.598 525.941 364.997C525.625 365.444 525.367 365.93 525.175 366.445C525.128 366.614 525.095 366.787 525.078 366.962C525.065 367.039 525.065 367.118 525.078 367.195C525.071 367.284 525.071 367.374 525.078 367.464C525.114 368.229 525.706 369.698 526.774 371.203C528.004 372.879 529.414 374.41 530.98 375.769C534.504 378.812 538.341 381.461 542.426 383.672C546.55 385.94 550.818 387.93 555.2 389.63C563.621 392.907 572.354 395.294 581.261 396.751C589.364 398.096 597.587 398.555 605.788 398.122C613.006 397.697 620.157 396.484 627.116 394.501C632.954 392.842 638.648 390.705 644.142 388.109C648.354 386.13 652.449 383.906 656.406 381.448C659.671 379.379 662.155 377.693 663.815 376.499L666.365 374.637Z" fill="black" stroke="black" stroke-width="0.86" stroke-miterlimit="10"/>
<path d="M677.015 330.402C668.64 322.717 651.778 304.906 646.975 277.526C641.502 246.62 651.604 204.485 680.383 191.716C690.122 187.398 699.765 187.429 706.775 188.308C706.775 188.308 732.038 186.602 753.372 235.475C753.372 235.475 766.852 167.849 806.152 183.193C845.451 198.538 849.948 261.044 849.948 270.141C849.948 279.238 843.193 308.779 833.101 319.025C836.708 326.648 875.002 410.565 832.917 470.185C826.974 478.594 818.098 488.436 804.608 497.316C804.608 497.316 740.464 510.649 718.002 504.241C699.54 498.976 680.914 497.921 669.371 482.22C659.371 468.618 659.402 452.559 659.984 444.802C659.984 444.802 660.357 401.235 671.226 373.199C682.095 345.163 677.015 330.402 677.015 330.402Z" fill="#BAEAFF" stroke="black" stroke-width="5.49" stroke-linejoin="round"/>
<path d="M731.658 256.152C731.658 256.152 753.361 217.074 781.608 239.829C809.855 262.585 731.658 256.152 731.658 256.152Z" fill="#FA8510" stroke="black" stroke-width="3.66" stroke-miterlimit="10"/>
<path d="M732.273 264.909C732.273 264.909 750.436 303.38 767.396 286.24C784.356 269.101 770.808 258.639 770.808 258.639C770.808 258.639 768.38 279.871 732.273 264.909Z" fill="#FA8510" stroke="black" stroke-width="3.66" stroke-miterlimit="10"/>
<path d="M731.282 264.054C731.282 264.054 761.001 274.724 769.606 259.172L767.72 257.264L730.73 259.172L731.282 264.054Z" fill="#EA0738" stroke="black" stroke-width="3.66" stroke-miterlimit="10"/>
<path d="M700.345 262.445C705.693 262.445 710.028 255.869 710.028 247.758C710.028 239.646 705.693 233.07 700.345 233.07C694.997 233.07 690.662 239.646 690.662 247.758C690.662 255.869 694.997 262.445 700.345 262.445Z" fill="black" stroke="black" stroke-width="7.09" stroke-miterlimit="10"/>
<path d="M805.89 255.862C811.238 255.862 815.573 249.286 815.573 241.174C815.573 233.062 811.238 226.486 805.89 226.486C800.542 226.486 796.207 233.062 796.207 241.174C796.207 249.286 800.542 255.862 805.89 255.862Z" fill="black" stroke="black" stroke-width="7.09" stroke-miterlimit="10"/>
<path d="M679.073 301.146C687.644 301.146 694.592 294.114 694.592 285.439C694.592 276.765 687.644 269.732 679.073 269.732C670.503 269.732 663.555 276.765 663.555 285.439C663.555 294.114 670.503 301.146 679.073 301.146Z" fill="#F4A127" stroke="black" stroke-width="3.66" stroke-miterlimit="10"/>
<path d="M827.692 289.577C836.263 289.577 843.211 282.545 843.211 273.87C843.211 265.196 836.263 258.164 827.692 258.164C819.122 258.164 812.174 265.196 812.174 273.87C812.174 282.545 819.122 289.577 827.692 289.577Z" fill="#F4A127" stroke="black" stroke-width="3.66" stroke-miterlimit="10"/>
<path d="M616.387 435.032C616.387 435.032 598.85 425.558 598.85 437.779C598.85 449.999 628.441 471.436 634.838 471.436C634.854 471.436 616.387 447.346 616.387 435.032Z" fill="#0D3E66" stroke="black" stroke-width="10.26" stroke-miterlimit="10"/>
<path d="M667.295 495.971C667.295 495.971 639.773 506.661 644.582 518.96C649.39 531.258 660.483 520.035 660.483 520.035C660.483 520.035 653.887 527.276 658.378 531.827C662.87 536.378 687.571 542.838 713.682 504.37C713.682 504.37 673.314 499.421 667.295 495.971Z" fill="#FA8510" stroke="black" stroke-width="1.75" stroke-miterlimit="10"/>
<path d="M774.602 504.37C774.602 504.37 792.568 519.322 799.303 521.028C806.037 522.735 813.058 526.428 816.165 521.028C819.272 515.629 834.877 521.308 841.99 514.114C849.103 506.92 846.272 499.048 836.093 492.615C825.915 486.181 825.005 487.107 825.005 487.107C825.005 487.107 788.638 504.37 774.602 504.37Z" fill="#FA8510" stroke="black" stroke-width="1.75" stroke-miterlimit="10"/>
<path d="M698.702 285.439C716.903 285.439 731.658 267.524 731.658 245.425C731.658 223.326 716.903 205.411 698.702 205.411C680.501 205.411 665.746 223.326 665.746 245.425C665.746 267.524 680.501 285.439 698.702 285.439Z" stroke="black" stroke-width="8.29" stroke-miterlimit="10"/>
<path d="M847.004 239.012C847.004 260.961 831.163 279.026 811.863 279.026C792.563 279.026 776.723 260.961 776.723 239.012C776.723 217.064 792.563 198.999 811.863 198.999C830.601 198.999 846.206 216.065 846.973 237.378L847.004 239.012Z" stroke="black" stroke-width="8.29" stroke-miterlimit="10"/>
<path d="M736.637 240.667C736.637 240.667 756.417 218.387 777.618 237.088" stroke="black" stroke-width="14.71" stroke-linecap="round" stroke-linejoin="round"/>
<path d="M664.694 241.821C656.764 241.722 650.494 241.991 646.299 242.25C640.504 242.607 635.864 243.108 630.969 240.254C630.555 240.011 625.609 237.068 626.176 234.803C626.534 233.36 628.966 232.687 630.903 232.408C641.122 230.944 665.036 231.829 665.036 231.829L664.694 241.821Z" fill="black" stroke="black" stroke-width="4.19" stroke-miterlimit="10"/>
<path d="M573.106 303.034C573.106 303.034 583.234 298.379 584.189 309.415C585.145 320.452 581.323 395.665 581.323 395.665C581.323 395.665 581.767 404.69 573.617 407.4C565.467 410.11 529.734 419.714 529.734 419.714C529.734 419.714 518.778 424.368 516.423 412.877C514.067 401.385 520.628 343.575 520.628 343.575C520.628 343.575 516.612 319.785 529.351 315.922L542.089 312.053L573.106 303.034Z" fill="#424242" stroke="black" stroke-width="0.62" stroke-miterlimit="10"/>
<path d="M571.962 314.06C571.962 314.06 574.128 312.384 574.573 315.865C575.017 319.345 571.389 387.866 571.389 387.866C571.389 387.866 571.834 390.768 568.323 391.543C564.813 392.319 529.162 401.856 529.162 401.856C529.162 401.856 526.295 403.014 526.295 399.787C526.295 396.56 530.178 335.388 530.178 335.388L530.817 330.361C530.753 329.329 531.048 328.307 531.651 327.471C532.254 326.636 533.127 326.041 534.118 325.789C537.751 324.755 558.068 318.249 558.068 318.249L571.962 314.06Z" fill="#191919" stroke="black" stroke-width="1.87" stroke-miterlimit="10"/>
</g>
<defs>
<filter id="filter0_f_633_3414" x="398.01" y="-23.3872" width="648.688" height="648.688" filterUnits="userSpaceOnUse" color-interpolation-filters="sRGB">
<feFlood flood-opacity="0" result="BackgroundImageFix"/>
<feBlend mode="normal" in="SourceGraphic" in2="BackgroundImageFix" result="shape"/>
<feGaussianBlur stdDeviation="75" result="effect1_foregroundBlur_633_3414"/>
</filter>
<linearGradient id="paint0_linear_633_3414" x1="0.853516" y1="508.298" x2="1444.85" y2="508.298" gradientUnits="userSpaceOnUse">
<stop stop-color="#1F8BF7"/>
<stop offset="1" stop-color="#DC33FC"/>
</linearGradient>
<clipPath id="clip0_633_3414">
<rect width="1444" height="568.178" fill="white" transform="translate(0.853516 0.122559)"/>
</clipPath>
</defs>
</svg>
