<svg width="1445" height="1077" viewBox="0 0 1445 1077" fill="none" xmlns="http://www.w3.org/2000/svg">
<g filter="url(#filter0_f_608_3413)">
<circle cx="722.354" cy="538.5" r="338.5" fill="#DC33FC" fill-opacity="0.4"/>
</g>
<path d="M1181.61 390.766V874.234H211.568V390.766H1181.61ZM1182.38 390H210.797V875H1182.38V390Z" fill="#090110"/>
<path d="M1444.85 749H0.853516V869H1444.85V749Z" fill="url(#paint0_linear_608_3413)"/>
<path d="M1065.53 789.838C1063.4 789.838 1061.24 789.777 1059.08 789.653C1056.08 788.901 1055.36 788.082 1055.27 787.53C1055.09 786.23 1057.92 783.131 1078.82 777.005C1094.96 772.269 1119.68 766.352 1152.3 759.393H1152.35C1152.81 759.226 1153.29 759.137 1153.78 759.131C1154.23 759.116 1154.67 759.237 1155.04 759.479C1155.54 759.835 1155.88 760.368 1155.99 760.969C1156.32 763.529 1144.82 767.756 1135.58 771.155L1135.33 771.246C1125.78 774.759 1120.99 776.52 1120.06 776.834C1099.7 783.774 1088.49 787.592 1080.88 788.734C1075.8 789.478 1070.68 789.851 1065.56 789.848L1065.53 789.838Z" fill="#090110"/>
<path d="M1153.76 759.516C1154.12 759.502 1154.49 759.6 1154.8 759.797C1155.2 760.095 1155.47 760.531 1155.57 761.02C1155.6 761.335 1155.31 762.544 1149.92 765.062C1146.25 766.775 1141.39 768.594 1135.4 770.774C1125.69 774.344 1120.82 776.134 1119.88 776.453C1099.55 783.383 1088.35 787.196 1080.77 788.32C1075.72 789.064 1070.61 789.436 1065.5 789.433C1063.39 789.433 1061.25 789.367 1059.12 789.248C1055.94 788.443 1055.67 787.615 1055.65 787.453C1055.62 787.291 1055.73 785.992 1060.88 783.617C1064.8 781.813 1070.89 779.704 1078.91 777.348C1095.03 772.621 1119.75 766.704 1152.36 759.764H1152.41H1152.46C1152.87 759.613 1153.3 759.531 1153.74 759.521M1153.74 758.755C1153.21 758.765 1152.69 758.861 1152.2 759.04C1086.63 773.003 1054.18 782.523 1054.86 787.601C1055 788.581 1056.37 789.398 1058.98 790.052C1061.27 790.185 1063.44 790.243 1065.48 790.243C1070.63 790.249 1075.78 789.875 1080.87 789.124C1088.36 788.015 1099.05 784.402 1120.11 777.224C1121.07 776.9 1125.92 775.115 1135.65 771.512C1146.63 767.475 1156.66 763.724 1156.31 760.921C1156.19 760.213 1155.79 759.581 1155.21 759.159C1154.77 758.875 1154.26 758.731 1153.74 758.745V758.755Z" fill="#090110"/>
<path d="M1058.77 784.892L1078.25 773.468C1078.25 773.468 1088.35 777.467 1081.63 785.749L1058.77 784.892Z" fill="#EFA87C" stroke="black" stroke-width="2" stroke-miterlimit="10"/>
<path d="M1146.93 756.475L1078.25 773.468C1078.25 773.468 1088.21 777.609 1081.64 785.749L1148.93 763.186C1152.48 762.292 1154.24 759.526 1153.79 758.046C1153.34 756.565 1150.36 755.27 1146.93 756.475Z" fill="#D78147" stroke="black" stroke-width="2" stroke-linecap="round" stroke-linejoin="round"/>
<path d="M1068.08 779.428L1068.81 785.268L1058.77 784.892L1068.08 779.428Z" fill="black"/>
<path d="M1082.32 775.777C1083.07 776.518 1083.65 777.423 1083.99 778.422C1084.34 779.422 1084.45 780.488 1084.32 781.537L1153.1 759.64C1153.25 759.445 1153.36 759.216 1153.41 758.971C1153.45 758.727 1153.44 758.475 1153.37 758.236C1153.3 757.998 1153.17 757.78 1153 757.601C1152.82 757.422 1152.61 757.287 1152.38 757.208L1082.32 775.777Z" fill="#B25210"/>
<path d="M1068.31 781.265L1068.61 783.645L1083.3 781.77C1083.51 780.806 1083.47 779.804 1083.19 778.859C1082.91 777.914 1082.39 777.056 1081.68 776.367L1068.31 781.265Z" fill="#C18463"/>
<path d="M223.41 842.723C215.845 842.708 208.301 841.931 200.892 840.405C197.868 839.167 197.239 838.206 197.244 837.616C197.244 836.23 200.683 833.417 223.439 830.166C241.027 827.653 267.775 825.197 302.933 822.864H302.985C303.306 822.799 303.633 822.765 303.961 822.764C304.615 822.726 305.258 822.937 305.762 823.354C306.217 823.806 306.484 824.413 306.509 825.054C306.462 827.781 293.803 830.466 283.649 832.622C272.956 834.888 267.594 836.026 266.555 836.216C244.228 840.395 231.926 842.699 223.796 842.728L223.41 842.723Z" fill="#090110"/>
<path d="M303.995 823.163C304.546 823.124 305.092 823.294 305.523 823.639C305.896 824.009 306.115 824.505 306.138 825.029C306.138 825.363 305.661 826.586 299.627 828.404C295.536 829.642 290.169 830.813 283.577 832.212C272.89 834.478 267.522 835.616 266.493 835.811C244.19 839.985 231.902 842.285 223.81 842.313H223.415C215.895 842.297 208.396 841.525 201.03 840.009C197.825 838.691 197.668 837.782 197.668 837.629C197.668 837.477 197.978 836.111 203.75 834.407C208.117 833.117 214.775 831.827 223.534 830.599C241.113 828.09 267.827 825.634 302.999 823.301H303.052H303.104C303.398 823.24 303.698 823.208 303.999 823.206M303.999 822.392C303.644 822.395 303.29 822.432 302.942 822.502C232.27 827.173 196.907 832.206 196.854 837.601C196.854 838.648 198.166 839.709 200.792 840.785C208.234 842.328 215.814 843.111 223.415 843.122H223.81C231.816 843.094 243.532 840.933 266.646 836.606C267.679 836.415 273.032 835.278 283.744 833.007C295.836 830.442 306.895 828.038 306.952 825.053C306.931 824.294 306.615 823.574 306.071 823.044C305.49 822.561 304.75 822.312 303.995 822.345L303.999 822.392Z" fill="#090110"/>
<path d="M200.324 835.135C200.324 835.135 219.327 825.996 221.185 826.567C223.042 827.138 227.186 832.85 223.328 838.705C215.481 839.479 207.567 838.25 200.324 835.135Z" fill="#EFA87C" stroke="black" stroke-width="2" stroke-miterlimit="10"/>
<path d="M223.329 838.705L301.341 827.424C310.914 819.57 299.912 815 299.912 815L220.947 826.567C220.947 826.567 228.091 830.185 223.329 838.705Z" fill="#D78147" stroke="black" stroke-width="2" stroke-linecap="round" stroke-linejoin="round"/>
<path d="M225.234 831.256C225.292 831.565 225.344 831.898 225.377 832.255C225.435 832.825 225.45 833.397 225.425 833.969C237.808 832.322 250.399 830.515 263.198 828.547C276.873 826.437 290.27 824.216 303.39 821.883C304.028 821.54 304.633 821.126 304.561 820.812C304.49 820.498 303.49 820.36 303.133 820.336C300.908 820.179 261.016 825.963 225.234 831.256Z" fill="#BC6022"/>
<path d="M212.156 833.212C212.209 833.712 212.266 834.212 212.318 834.707L224.439 833.56C224.517 833.157 224.517 832.744 224.439 832.341C224.38 832.045 224.281 831.759 224.144 831.489L212.156 833.212Z" fill="#CC9275"/>
<path d="M211.03 830.204C212.138 832.786 212.38 835.656 211.721 838.387C207.968 837.775 204.294 836.75 200.767 835.331L200.391 835.169L210.93 830.242" fill="black"/>
<path d="M1038.92 836.125C1032.55 835.416 1026.14 834.549 1019.87 833.55C1012.04 832.298 1006 831.06 993.969 828.594C992.159 828.223 992.011 828.185 991.664 828.118C991.316 828.052 990.568 827.833 986.868 827.019L985.887 826.8C982.076 825.962 980.648 825.648 978.743 824.791C973.751 822.53 973.156 821.221 973.246 820.645C973.389 819.722 975.671 818.665 979.747 818.432C981.176 818.551 1030.9 822.692 1038.13 825.886H1038.18L1040.43 826.329C1042.04 827.566 1045.84 831.089 1045.19 833.431C1044.76 834.878 1042.61 835.811 1038.92 836.125Z" fill="#090110"/>
<path d="M979.748 818.798C981.653 818.956 1030.84 823.083 1037.99 826.219L1038.06 826.253H1038.15L1040.27 826.672C1041.78 827.847 1045.41 831.222 1044.81 833.307C1044.43 834.583 1042.42 835.416 1038.92 835.721C1032.57 835.011 1026.18 834.15 1019.93 833.15C1012.11 831.903 1006.07 830.665 994.05 828.2C992.245 827.828 992.102 827.795 991.76 827.724C991.417 827.652 990.659 827.443 986.949 826.624L985.959 826.405C982.068 825.553 980.758 825.263 978.91 824.425C973.59 822.016 973.614 820.812 973.633 820.683C973.728 820.06 975.738 819.032 979.748 818.779M979.748 818.008C976.009 818.222 973.08 819.175 972.866 820.545C972.58 822.383 977.257 824.506 978.581 825.106C980.663 826.058 982.144 826.334 986.778 827.357C993.746 828.89 990.002 828.157 993.884 828.952C1005.93 831.422 1011.98 832.66 1019.8 833.912C1024.88 834.721 1031.35 835.654 1038.9 836.492C1052.99 835.302 1040.59 825.953 1040.59 825.953L1038.29 825.477C1030.84 822.192 979.748 817.989 979.748 817.989V818.008Z" fill="#090110"/>
<path d="M1056.93 846.583C1047.48 846.583 1042.64 840.257 1042.59 840.19C1035.56 830.641 1040.82 825.348 1040.87 825.296C1045.35 821.859 1049.74 820.103 1053.87 820.103C1061.71 820.103 1066.56 826.324 1068.38 828.671C1068.64 829.004 1068.86 829.247 1068.97 829.394C1070.69 831.213 1075.02 834.944 1079.01 836.015C1080.74 836.491 1081.12 836.887 1081.2 837.091C1081.28 837.296 1081.12 837.534 1080.88 837.886C1080.72 838.101 1080.59 838.34 1080.51 838.595C1080.15 839.924 1074.7 842.218 1064.31 845.412C1061.92 846.169 1059.43 846.566 1056.93 846.588V846.583Z" fill="#090110"/>
<path d="M1053.87 820.483C1061.53 820.483 1066.29 826.6 1068.08 828.904C1068.35 829.246 1068.56 829.494 1068.69 829.651C1070.44 831.503 1074.84 835.287 1078.92 836.382C1080.46 836.796 1080.78 837.134 1080.82 837.21C1080.75 837.378 1080.66 837.538 1080.55 837.686C1080.36 837.934 1080.22 838.212 1080.12 838.51C1079.94 839.181 1077.63 840.923 1064.19 845.059C1061.83 845.803 1059.38 846.193 1056.91 846.216C1047.67 846.216 1042.92 840.028 1042.88 839.985C1036.28 831.003 1040.67 826.062 1041.1 825.615C1045.53 822.225 1049.82 820.502 1053.86 820.502M1053.86 819.736C1050.09 819.736 1045.67 821.14 1040.59 825.039C1040.59 825.039 1034.96 830.503 1042.26 840.437C1042.26 840.437 1047.14 846.983 1056.91 846.983C1059.46 846.963 1061.99 846.562 1064.41 845.793C1079.18 841.251 1080.61 839.604 1080.86 838.71C1081.12 837.815 1083.15 836.744 1079.1 835.658C1075.05 834.573 1070.65 830.636 1069.23 829.142C1068.23 828.08 1063.02 819.736 1053.86 819.736Z" fill="#090110"/>
<path d="M1059.07 843.251C1057.31 843.255 1055.55 843.046 1053.83 842.627C1051.89 842.151 1047.34 841.023 1044.56 837.153C1043.13 835.139 1041.91 832.026 1042.47 829.618C1042.53 829.353 1042.62 829.096 1042.74 828.851C1044.04 825.948 1047.45 824.958 1048.74 824.567C1049.92 824.241 1051.14 824.081 1052.36 824.091C1055.16 824.147 1057.9 824.857 1060.37 826.167C1062.32 827.223 1063.23 828.199 1064.49 829.556C1066.01 831.228 1067.67 832.76 1069.46 834.135C1071.33 835.581 1073.3 836.887 1075.37 838.043C1072.1 840.128 1066.02 843.251 1059.07 843.251Z" fill="#090110"/>
<path d="M1052.38 823.696V824.468C1055.11 824.521 1057.8 825.215 1060.21 826.495C1062.11 827.523 1062.99 828.48 1064.23 829.827C1065.76 831.515 1067.43 833.062 1069.24 834.449C1070.95 835.776 1072.76 836.985 1074.63 838.067C1071.3 840.123 1065.59 842.889 1059.07 842.889C1057.34 842.891 1055.62 842.685 1053.95 842.275C1052.04 841.799 1047.59 840.704 1044.9 836.948C1043.51 835.006 1042.33 832.017 1042.87 829.723C1042.93 829.484 1043.01 829.251 1043.11 829.028V828.985C1044.32 826.286 1047.61 825.329 1048.83 824.972C1049.97 824.648 1051.16 824.488 1052.35 824.496V823.696M1052.35 823.696C1051.08 823.692 1049.82 823.866 1048.61 824.215C1047.33 824.586 1043.74 825.643 1042.39 828.652C1042.25 828.933 1042.15 829.228 1042.08 829.532C1041.48 832.103 1042.74 835.301 1044.23 837.377C1047.09 841.366 1051.73 842.508 1053.72 842.999C1055.46 843.426 1057.24 843.64 1059.03 843.636C1067.17 843.636 1073.99 839.405 1076.1 838.005C1073.85 836.787 1071.7 835.388 1069.67 833.821C1064.4 829.737 1064.32 827.866 1060.54 825.819C1058.01 824.478 1055.2 823.75 1052.35 823.696Z" fill="#090110"/>
<path d="M981.719 814C981.719 814 1029.79 817.951 1036.8 821.045L1038.96 821.469C1038.96 821.469 1050.64 830.27 1037.38 831.389C1030.27 830.598 1024.19 829.723 1019.41 828.961C1012.03 827.78 1006.36 826.619 995.021 824.296C991.369 823.549 994.888 824.234 988.354 822.792C983.996 821.84 982.6 821.559 980.643 820.674C979.4 820.112 974.994 818.113 975.266 816.39C975.461 815.095 978.2 814.195 981.719 814Z" fill="#F25814" stroke="black" stroke-width="1.58" stroke-miterlimit="10"/>
<path d="M1040.54 835.068C1040.54 835.068 1047.48 844.379 1061.38 840.105C1075.29 835.83 1076.62 834.264 1076.86 833.44C1077.1 832.617 1079.02 831.589 1075.2 830.584C1071.39 829.58 1067.25 825.858 1065.92 824.453C1064.58 823.049 1055.37 807.998 1038.97 820.588C1038.97 820.574 1033.66 825.72 1040.54 835.068Z" fill="#A38472" stroke="#090110" stroke-width="2.37" stroke-miterlimit="10"/>
<path d="M1040.68 823.991C1041.95 821.135 1045.33 820.183 1046.53 819.817C1051.92 818.26 1057.01 820.916 1057.75 821.325C1061.32 823.258 1061.39 825.015 1066.36 828.856C1068.26 830.331 1070.28 831.648 1072.39 832.793C1070.01 834.387 1061.08 839.899 1051.34 837.495C1049.47 837.019 1045.1 835.953 1042.41 832.202C1041.01 830.251 1039.83 827.237 1040.38 824.819C1040.45 824.533 1040.55 824.256 1040.68 823.991Z" fill="#C4AEA3"/>
<path d="M1045.42 825.505C1046.28 823.601 1048.55 822.934 1049.36 822.701C1052.97 821.654 1056.38 823.439 1056.89 823.715C1059.27 825.01 1059.33 826.19 1062.66 828.77C1063.94 829.76 1065.3 830.644 1066.72 831.412C1065.1 832.483 1059.12 836.172 1052.59 834.568C1051.33 834.259 1048.4 833.535 1046.59 831.017C1045.64 829.703 1044.85 827.685 1045.23 826.062C1045.28 825.87 1045.34 825.684 1045.42 825.505Z" fill="#EAD7CE"/>
<path d="M976.219 815.775C985.951 816.972 995.794 818.255 1005.75 819.626C1016.19 821.067 1026.48 822.573 1036.61 824.144C1036.38 825.186 1036.35 826.26 1036.51 827.314L975.938 817.113C975.791 817.038 975.677 816.911 975.619 816.756C975.583 816.632 975.583 816.5 975.619 816.375C975.663 816.184 975.775 816.015 975.933 815.899C976.019 815.838 976.116 815.796 976.219 815.775Z" fill="#C13600"/>
<path d="M303.016 790.766L350.328 766.375L439.752 783.254L393.468 813.3L303.016 790.766Z" fill="black" stroke="black" stroke-width="2.19" stroke-miterlimit="10"/>
<path d="M299.854 788.514L349.357 763L442.915 780.655L394.493 812.091L299.854 788.514Z" fill="#FFEDCB" stroke="black" stroke-width="2.29" stroke-miterlimit="10"/>
<path d="M339.561 786.682C342.218 784.463 354.853 774.001 363.374 770.236C366.27 768.955 368.689 768.446 370.666 769.507C372.361 770.412 373.137 772.159 373.49 773.177L373.833 783.307C373.833 783.307 372.59 787.024 377.209 785.168C381.829 783.311 382.377 783.307 382.377 783.307C382.377 783.307 387.14 780.341 388.24 786.339C389.34 792.337 388.24 798.463 388.24 798.463L339.561 786.682Z" fill="#FFDAA4"/>
<path d="M386.848 804.375C386.848 804.375 372.294 802.076 354.748 797.577C337.202 793.079 323.314 788.081 323.314 788.081C323.314 788.081 337.869 790.38 355.41 794.878C372.951 799.377 386.848 804.375 386.848 804.375Z" fill="#FFDAA4" stroke="#FFDAA4" stroke-width="0.19" stroke-miterlimit="10"/>
<path d="M210.991 788.469C191.064 788.469 177.676 785.109 177.676 781.967C177.676 778.825 191.064 775.46 210.991 775.46C230.918 775.46 244.306 778.825 244.306 781.967C244.306 785.109 230.918 788.469 210.991 788.469Z" fill="#090110"/>
<path d="M210.989 775.822C231.402 775.822 243.937 779.401 243.937 781.967C243.937 784.533 231.402 788.108 210.989 788.108C190.577 788.108 178.036 784.528 178.036 781.967C178.036 779.406 190.567 775.822 210.989 775.822ZM210.989 775.098C192.391 775.098 177.312 778.173 177.312 781.967C177.312 785.761 192.391 788.817 210.989 788.817C229.588 788.817 244.666 785.742 244.666 781.953C244.666 778.164 229.588 775.084 210.989 775.084V775.098Z" fill="#090110"/>
<path d="M183.447 736.328C172.755 736.385 164.397 745.419 164.873 755.416C165.397 765.75 175.26 774.023 186.205 772.409C186.095 771.543 185.933 770.296 185.729 768.801C184.948 763.508 184.571 762.798 183.962 762.37C182.571 761.394 181.38 762.879 179.113 762.242C176.341 761.456 174.679 758.253 174.17 755.92C173.598 753.288 173.97 749.404 176.38 747.647C178.894 745.805 182.019 747.485 183.195 745.615C183.714 744.786 183.328 744.11 183.195 741.564C183.114 739.814 183.199 738.061 183.447 736.328Z" fill="#70432D" stroke="black" stroke-width="2.58" stroke-miterlimit="10"/>
<path d="M183.929 731.244C184.157 729.34 187.453 728.031 190.492 726.551C193.43 725.122 196.369 724.442 206.909 724.361C222.697 724.232 226.397 725.665 228.231 726.489C230.912 727.705 233.4 729.309 235.613 731.249C235.613 731.249 239.166 760 228.56 781.429C228.56 781.429 206.594 790.474 189.182 779.297C189.182 779.297 180.647 758.633 183.929 731.244Z" fill="#70432D" stroke="black" stroke-width="3.45" stroke-miterlimit="10"/>
<path d="M230.913 731.749L229.484 732.701C228.135 733.52 226.713 734.212 225.236 734.766C223.035 735.573 220.753 736.14 218.43 736.456C215.59 736.843 212.719 736.953 209.857 736.785C207.009 736.633 204.174 736.283 201.375 735.737C198.793 735.261 196.502 734.657 194.602 734.1C192.702 733.543 191.187 733.024 190.149 732.643C189.111 732.263 188.549 732.025 188.549 732.025C188.549 732.025 189.13 732.201 190.197 732.501C191.264 732.801 192.807 733.186 194.731 733.61C196.655 734.033 198.95 734.49 201.518 734.881C204.296 735.319 207.096 735.611 209.905 735.757C212.708 735.923 215.52 735.87 218.316 735.599C220.6 735.377 222.858 734.939 225.059 734.29C226.551 733.842 228.003 733.268 229.398 732.577L230.913 731.749Z" fill="black" stroke="black" stroke-width="0.07" stroke-miterlimit="10"/>
<path d="M226.536 733.948C229.87 732.334 217.42 731.092 210.343 731.163C205.059 731.219 199.824 732.185 194.869 734.019C194.869 734.019 215.396 739.312 226.536 733.948Z" fill="#3D2014"/>
<path d="M226.561 733.995L225.951 734.276C225.368 734.545 224.77 734.782 224.16 734.985C221.916 735.714 219.593 736.176 217.24 736.361C213.751 736.637 210.244 736.599 206.762 736.247C204.791 736.066 202.733 735.794 200.609 735.437C199.545 735.257 198.471 735.055 197.385 734.833C196.827 734.714 196.318 734.604 195.718 734.466C195.118 734.328 194.665 734.209 194.151 734.076H194.051L194.141 734.038L194.332 733.971L194.718 733.829L195.484 733.553L196.404 733.238L197.213 732.986C197.756 732.819 198.294 732.667 198.833 732.51C199.909 732.221 200.979 731.979 202.043 731.782C204.073 731.393 206.127 731.145 208.191 731.039C210.168 730.944 212.049 730.987 213.802 731.073C215.554 731.158 217.188 731.277 218.674 731.425C221.024 731.608 223.355 731.991 225.642 732.567C225.996 732.665 226.339 732.799 226.666 732.967C226.942 733.105 227.17 733.343 227.042 733.524C226.949 733.652 226.827 733.755 226.685 733.824L226.537 733.895L226.685 733.819C226.82 733.746 226.936 733.642 227.023 733.514C227.132 733.348 226.918 733.143 226.647 733.01C226.316 732.854 225.972 732.731 225.618 732.643C223.325 732.14 220.994 731.821 218.65 731.691C217.169 731.577 215.54 731.482 213.787 731.43C212.035 731.377 210.172 731.368 208.215 731.487C206.166 731.61 204.128 731.871 202.114 732.267C201.071 732.467 200.009 732.715 198.947 733C198.413 733.143 197.88 733.3 197.347 733.476L196.546 733.729L195.856 733.962H195.818H195.87L197.47 734.314C198.552 734.547 199.623 734.752 200.676 734.933C202.781 735.304 204.829 735.595 206.786 735.799C210.248 736.193 213.738 736.29 217.216 736.09C219.567 735.958 221.895 735.559 224.156 734.9C224.951 734.643 225.584 734.424 225.965 734.247L226.561 733.995Z" fill="black" stroke="black" stroke-width="0.04" stroke-miterlimit="10"/>
<path d="M203.551 688.341C204.794 692.849 208.59 696.643 209.486 697.504C213.324 701.198 215.653 700.836 217.806 704.354C217.987 704.649 220.664 709.114 219.506 714.222C218.668 717.982 215.939 721.233 216.544 721.7C216.687 721.814 216.949 721.7 217.068 721.652C223.736 718.701 225.926 713.56 225.926 713.56C227.808 709.109 227.293 703.702 225.022 699.623C221.421 693.144 215.129 693.149 214.406 687.722C214.205 686.199 214.639 684.595 215.506 681.391C216.725 676.903 218.387 676.036 218.544 673.123C218.687 670.448 217.639 666.602 215.687 666.069C211.524 664.936 200.718 678.036 203.551 688.341Z" fill="#CCCAAF"/>
<path d="M203.083 708.781L200.33 705.42C200.33 705.42 196.882 696.729 204.674 702.055C212.466 707.382 212.475 714.274 212.475 714.274C212.475 714.274 212.099 718.496 210.994 719.601C209.889 720.705 208.865 716.745 208.208 716.078C207.551 715.412 205.331 709.438 203.083 708.781Z" fill="#CCCAAF"/>
<path d="M934.983 496.229H875.902C872.562 496.229 869.854 498.936 869.854 502.275V563.813C869.854 567.152 872.562 569.858 875.902 569.858H934.983C938.324 569.858 941.032 567.152 941.032 563.813V502.275C941.032 498.936 938.324 496.229 934.983 496.229Z" fill="#FDCB93" stroke="#090110" stroke-width="3.74" stroke-miterlimit="10"/>
<path d="M922.614 507.501H891.113C889.296 507.501 887.822 508.974 887.822 510.79V512.747C887.822 514.563 889.296 516.036 891.113 516.036H922.614C924.431 516.036 925.905 514.563 925.905 512.747V510.79C925.905 508.974 924.431 507.501 922.614 507.501Z" fill="#E5A76A"/>
<path d="M915.194 528.774H880.388C879.484 528.774 878.75 529.506 878.75 530.409C878.75 531.312 879.484 532.044 880.388 532.044H915.194C916.099 532.044 916.832 531.312 916.832 530.409C916.832 529.506 916.099 528.774 915.194 528.774Z" fill="#E5A76A"/>
<path d="M915.194 535.357H880.388C879.484 535.357 878.75 536.089 878.75 536.992C878.75 537.895 879.484 538.627 880.388 538.627H915.194C916.099 538.627 916.832 537.895 916.832 536.992C916.832 536.089 916.099 535.357 915.194 535.357Z" fill="#E5A76A"/>
<path d="M914.318 541.936H881.265C879.876 541.936 878.75 543.061 878.75 544.449V547.138C878.75 548.526 879.876 549.652 881.265 549.652H914.318C915.706 549.652 916.832 548.526 916.832 547.138V544.449C916.832 543.061 915.706 541.936 914.318 541.936Z" fill="#E5A76A"/>
<path d="M914.837 552.251H880.746C879.643 552.251 878.75 553.144 878.75 554.245V555.131C878.75 556.232 879.643 557.125 880.746 557.125H914.837C915.939 557.125 916.832 556.232 916.832 555.131V554.245C916.832 553.144 915.939 552.251 914.837 552.251Z" fill="#E5A76A"/>
<path d="M933.407 527.974H923.21C921.75 527.974 920.566 529.157 920.566 530.616V546.301C920.566 547.76 921.75 548.943 923.21 548.943H933.407C934.866 548.943 936.05 547.76 936.05 546.301V530.616C936.05 529.157 934.866 527.974 933.407 527.974Z" fill="#E5A76A"/>
<path d="M910.469 486H899.801V500.851H910.469V486Z" fill="#6B4522"/>
<path d="M1357.7 556.931L1296.14 554.165C1295.25 554.126 1294.37 553.903 1293.56 553.511C1292.75 553.119 1292.03 552.566 1291.45 551.885C1290.86 551.204 1290.42 550.411 1290.15 549.554C1289.88 548.697 1289.8 547.794 1289.89 546.901L1298.64 464.485C1298.82 462.869 1299.58 461.374 1300.79 460.288C1302 459.201 1303.57 458.601 1305.19 458.602H1362.61C1363.51 458.602 1364.39 458.784 1365.21 459.137C1366.03 459.49 1366.77 460.006 1367.39 460.655C1368 461.303 1368.48 462.07 1368.79 462.909C1369.1 463.747 1369.23 464.64 1369.18 465.532L1364.57 550.738C1364.47 552.466 1363.69 554.085 1362.41 555.245C1361.12 556.404 1359.43 557.01 1357.7 556.931Z" fill="#FFE6BF" stroke="black" stroke-width="2.95" stroke-miterlimit="10"/>
<path d="M1347.35 476.185H1317.27C1314.78 476.185 1312.77 478.197 1312.77 480.679V494.45C1312.77 496.931 1314.78 498.943 1317.27 498.943H1347.35C1349.83 498.943 1351.85 496.931 1351.85 494.45V480.679C1351.85 478.197 1349.83 476.185 1347.35 476.185Z" fill="#889987"/>
<path d="M1311.26 514.609H1323.59" stroke="#889987" stroke-width="5.9" stroke-linecap="round" stroke-linejoin="round"/>
<path d="M1333.63 515.275H1348.26" stroke="#889987" stroke-width="7.95" stroke-linecap="round" stroke-linejoin="round"/>
<path d="M1308.96 526.199H1350.08" stroke="#889987" stroke-width="2" stroke-linecap="round" stroke-linejoin="round"/>
<path d="M1308.96 537.79H1350.08" stroke="#889987" stroke-width="3" stroke-linecap="round" stroke-linejoin="round"/>
<path d="M1338.97 450H1328.3V464.851H1338.97V450Z" fill="#E5A76A"/>
<path d="M431.015 613.067L318.065 604.019C315.582 603.821 313.276 602.659 311.638 600.783C310.001 598.907 309.162 596.465 309.302 593.98L316.471 466.238C316.607 463.805 317.67 461.517 319.441 459.843C321.213 458.169 323.559 457.236 325.997 457.236H433.313C434.575 457.236 435.825 457.486 436.989 457.972C438.154 458.459 439.211 459.171 440.098 460.068C440.985 460.965 441.686 462.029 442.158 463.198C442.631 464.368 442.867 465.62 442.853 466.881L441.309 603.67C441.295 604.977 441.012 606.267 440.478 607.459C439.944 608.652 439.17 609.723 438.205 610.604C437.239 611.485 436.103 612.158 434.866 612.582C433.629 613.006 432.319 613.171 431.015 613.067Z" fill="#FFE6C3" stroke="#090110" stroke-width="4.26" stroke-miterlimit="10"/>
<path d="M395.062 480.779H422.988" stroke="#949A92" stroke-width="7.1" stroke-miterlimit="10" stroke-linecap="round"/>
<path d="M395.062 492.779H422.988" stroke="#949A92" stroke-width="7.1" stroke-miterlimit="10" stroke-linecap="round"/>
<path d="M401.588 506.861H422.988" stroke="#949A92" stroke-width="6.21" stroke-miterlimit="10" stroke-linecap="round"/>
<path d="M410.264 522.251H424.812" stroke="#949A92" stroke-width="3.62" stroke-miterlimit="10" stroke-linecap="round"/>
<path d="M326.967 570.309L425.176 574.419" stroke="#949A92" stroke-width="9.42" stroke-miterlimit="10" stroke-linecap="round"/>
<path d="M326.971 585.488L425.166 589.957" stroke="#949A92" stroke-width="9.42" stroke-miterlimit="10" stroke-linecap="round"/>
<path d="M373.93 522.159L348.877 520.891L343.974 530.88C342.764 533.33 342.13 535.179 342.072 536.428C342.059 536.943 342.169 537.453 342.391 537.917C342.613 538.382 342.941 538.787 343.349 539.101C344.25 539.897 346.253 540.482 349.36 540.856L349.272 542.624L328.893 541.604L328.984 539.841C331.711 539.501 333.491 538.968 334.324 538.242C336.024 536.797 337.977 533.786 340.183 529.209L365.608 477.114L367.276 477.196L387.118 532.125C388.711 536.543 390.217 539.432 391.636 540.791C393.054 542.151 395.077 542.978 397.706 543.272L397.619 545.035L372.088 543.763L372.175 541.995C374.757 541.995 376.52 541.653 377.464 540.971C377.899 540.683 378.261 540.298 378.52 539.846C378.78 539.394 378.929 538.887 378.957 538.366C379.028 536.967 378.502 534.724 377.381 531.638L373.93 522.159ZM372.772 518.558L363.099 491.875L350.531 517.451L372.772 518.558Z" fill="#738988"/>
<path d="M384.359 446.044H367.816V468.089H384.359V446.044Z" fill="#738988"/>
<path d="M179.096 551.253L145.371 558.908C144.65 559.071 143.902 559.073 143.18 558.913C142.458 558.753 141.781 558.435 141.197 557.982C140.612 557.529 140.136 556.952 139.801 556.294C139.466 555.635 139.282 554.91 139.261 554.171C138.794 537.92 138.326 521.671 137.856 505.423C137.819 504.174 138.251 502.956 139.069 502.009C139.886 501.063 141.028 500.457 142.271 500.311L173.704 496.598C174.375 496.518 175.055 496.574 175.704 496.763C176.352 496.952 176.956 497.27 177.478 497.698C178 498.127 178.431 498.656 178.743 499.255C179.055 499.853 179.243 500.509 179.296 501.182C180.524 516.097 181.752 531.023 182.977 545.96C183.076 547.162 182.738 548.358 182.025 549.331C181.312 550.303 180.272 550.986 179.096 551.253Z" fill="#FCCE9A" stroke="black" stroke-miterlimit="10"/>
<path d="M159.706 533.694C157.716 533.16 151.386 531.204 147.705 525.125C145.176 520.946 143.123 513.554 146.276 511.216C148.614 509.479 153.377 510.845 157.706 514.272C161.245 510.464 166.046 509.488 168.951 511.316C172.647 513.639 171.832 519.632 171.708 520.556C170.556 529.171 160.721 533.289 159.706 533.694Z" fill="#FCCE9A" stroke="black" stroke-miterlimit="10"/>
<path d="M153.593 548.864L150.297 546.474L146.454 547.831L147.711 543.956L145.234 540.724H149.306L151.616 537.368L152.878 541.243L156.784 542.4L153.488 544.794L153.593 548.864Z" fill="#FCCE9A" stroke="black" stroke-miterlimit="10"/>
<path d="M161.727 537.368L174.586 535.407" stroke="black" stroke-miterlimit="10"/>
<path d="M163.455 543.119L176.314 541.153" stroke="black" stroke-miterlimit="10"/>
<path d="M163.546 492H153.035V506.009H163.546V492Z" fill="#738988"/>
<path d="M50.0819 842.453C65.6719 842.453 78.3102 840.113 78.3102 837.227C78.3102 834.34 65.6719 832 50.0819 832C34.4918 832 21.8535 834.34 21.8535 837.227C21.8535 840.113 34.4918 842.453 50.0819 842.453Z" fill="#090110" stroke="#090110" stroke-width="1.23" stroke-miterlimit="10"/>
<path d="M1362.82 797.971C1387.68 797.971 1407.83 794.8 1407.83 790.888C1407.83 786.976 1387.68 783.805 1362.82 783.805C1337.96 783.805 1317.81 786.976 1317.81 790.888C1317.81 794.8 1337.96 797.971 1362.82 797.971Z" fill="#090110" stroke="#090110" stroke-width="1.8" stroke-miterlimit="10"/>
<path d="M1340.55 736.494C1340.55 736.494 1267.28 710.871 1269.92 693.411C1270.11 691.81 1270.79 690.304 1271.85 689.094C1278.13 682.277 1297.99 689.422 1310.83 697.262C1312.53 698.295 1313.73 699.114 1314.08 699.356C1321.37 704.364 1333.61 714.874 1345.95 737.613L1340.55 736.494Z" fill="#D6B97F" stroke="#090110" stroke-width="1.44" stroke-miterlimit="10"/>
<path d="M1301.46 641.569C1301.46 641.569 1301.85 618.216 1316.98 633.953C1330.69 648.181 1341.04 666.231 1348.68 688.822C1348.98 689.703 1349.19 690.355 1349.63 691.678C1358.71 719.344 1363.16 733.281 1358.5 738.47C1356.95 740.198 1353.77 742.092 1346.42 741.326C1346.42 741.326 1336.36 726.57 1325.94 710.385C1320.38 701.746 1308.48 688.579 1303.97 672.585C1303.46 670.8 1303.09 669.187 1303.09 669.187C1303.09 669.187 1301.19 661.061 1301.45 641.578L1301.46 641.569Z" fill="#B59968" stroke="#090110" stroke-width="1.44" stroke-miterlimit="10"/>
<path d="M1359.53 638.97C1361.47 635.723 1370.58 620.448 1378.8 622.129C1381.5 622.681 1383.36 624.671 1384.99 627.579C1391.23 638.618 1391.29 651.546 1389.65 664.708C1388.22 676.16 1387.27 675.703 1379.77 706.93C1374.96 726.922 1372.48 739.008 1365.64 740.222C1364.15 740.439 1362.62 740.205 1361.25 739.55C1343.29 732.02 1349.3 677.022 1349.95 671.11C1351.27 659.043 1353.55 648.99 1359.53 638.97Z" fill="#D6B97F" stroke="#090110" stroke-width="1.44" stroke-miterlimit="10"/>
<path d="M1376.61 739.708C1376.61 739.708 1413.92 717.63 1420.6 697.048C1427.27 676.465 1424.06 675.118 1419.64 675.094C1415.22 675.07 1395.67 677.312 1389.9 684.733C1384.12 692.154 1357.66 729.131 1371.07 739.55C1371.86 740.152 1372.82 740.491 1373.82 740.519C1374.81 740.547 1375.79 740.263 1376.61 739.708Z" fill="#B29769" stroke="#090110" stroke-width="1.44" stroke-miterlimit="10"/>
<path d="M1396.15 788.308C1374.27 793.346 1351.73 794.912 1329.37 792.949C1321.1 770.319 1318.85 757.894 1322.62 755.673C1323.04 755.463 1323.49 755.339 1323.96 755.307C1324.43 755.275 1324.89 755.336 1325.34 755.487L1398.28 752.407L1396.15 788.308Z" fill="#EA9B65" stroke="#090110" stroke-width="4.32" stroke-miterlimit="10"/>
<path d="M1403.75 753.816L1317.28 756.282C1316.58 756.299 1315.9 756.057 1315.36 755.602C1314.83 755.148 1314.48 754.512 1314.38 753.816L1311.76 734.224C1311.71 733.829 1311.75 733.427 1311.86 733.045C1311.97 732.664 1312.17 732.31 1312.42 732.007C1312.68 731.704 1313 731.458 1313.36 731.286C1313.72 731.113 1314.11 731.018 1314.51 731.006L1402.14 728.764C1402.87 728.748 1403.58 729.012 1404.12 729.5C1404.66 729.989 1405 730.665 1405.05 731.392L1406.52 750.76C1406.55 751.144 1406.5 751.53 1406.37 751.894C1406.25 752.258 1406.05 752.593 1405.79 752.878C1405.53 753.163 1405.22 753.394 1404.87 753.555C1404.52 753.716 1404.14 753.805 1403.75 753.816Z" fill="#EA9B65" stroke="#090110" stroke-width="4.32" stroke-miterlimit="10"/>
<path d="M1340.37 711.29C1340.37 711.29 1340.09 710.471 1339.58 708.986C1339.07 707.501 1338.4 705.354 1337.57 702.703C1335.79 697.428 1333.51 690.131 1330.61 682.234C1327.72 674.337 1324.77 667.335 1321.97 662.561C1320.9 660.639 1319.67 658.813 1318.28 657.106C1317.89 656.632 1317.48 656.181 1317.05 655.754L1316.68 655.421L1316.54 655.306L1316.7 655.387L1317.13 655.63C1317.66 655.958 1318.17 656.319 1318.65 656.711C1320.42 658.14 1322.01 659.764 1323.41 661.552C1327.04 665.978 1330.93 672.909 1333.89 680.997C1336.85 689.084 1338.33 696.752 1339.28 702.269C1339.69 705.049 1339.95 707.306 1340.13 708.862C1340.31 710.419 1340.37 711.29 1340.37 711.29Z" fill="#D6B97F" stroke="#D6B97F" stroke-width="0.24" stroke-miterlimit="10"/>
<path d="M1374.12 724.332L1375.25 722.171C1375.99 720.791 1377.07 718.792 1378.48 716.359C1381.39 711.599 1385.62 705.002 1391.33 698.571C1397.05 692.14 1403.24 687.147 1408.21 684.4C1410.14 683.273 1412.18 682.367 1414.31 681.701C1414.88 681.525 1415.46 681.385 1416.04 681.282L1416.49 681.225H1416.63L1416.5 681.273L1416.09 681.439C1415.55 681.67 1415.03 681.927 1414.52 682.21C1412.65 683.268 1410.87 684.485 1409.2 685.847C1404.91 689.213 1399.56 694.615 1393.96 700.875C1388.35 707.134 1383.51 713.094 1379.89 717.359C1378.14 719.525 1376.7 721.281 1375.69 722.481L1374.12 724.332Z" fill="#D6B97F" stroke="#D6B97F" stroke-width="0.24" stroke-miterlimit="10"/>
<path d="M1359.53 718.544C1359.53 718.544 1362.09 700.546 1366.3 678.559C1370.51 656.572 1374.77 638.875 1374.77 638.875C1374.77 638.875 1372.22 656.872 1368.01 678.859C1363.8 700.846 1359.53 718.544 1359.53 718.544Z" fill="#B29769" stroke="#B29769" stroke-width="0.12" stroke-miterlimit="10"/>
<path d="M1330.34 725.089C1330.34 725.089 1319.25 719.12 1306.15 710.842C1293.05 702.565 1282.88 695.134 1282.88 695.134C1282.88 695.134 1293.97 701.103 1307.07 709.381C1320.17 717.659 1330.34 725.089 1330.34 725.089Z" fill="#B29769" stroke="#B29769" stroke-width="0.12" stroke-miterlimit="10"/>
<path d="M62.9742 806.587C62.9742 806.587 102.4 792.782 100.976 783.41C100.874 782.547 100.512 781.735 99.9373 781.082C96.5606 777.417 85.8779 781.263 78.9815 785.481C78.0719 786.037 77.4289 786.475 77.2384 786.604C73.2901 789.308 66.7224 794.953 60.0547 807.191L62.9742 806.587Z" fill="#D6B97F" stroke="#090110" stroke-width="0.77" stroke-miterlimit="10"/>
<path d="M84.0076 755.511C84.0076 755.511 83.8028 742.945 75.6586 751.399C68.286 759.053 62.7185 768.768 58.6035 780.911L58.0987 782.434C53.2122 797.319 50.8213 804.807 53.336 807.61C54.1695 808.539 55.884 809.557 59.8371 809.153C59.8371 809.153 65.2522 801.203 70.8436 792.492C73.8345 787.842 80.2403 780.764 82.6693 772.153C82.9408 771.201 83.1456 770.325 83.1456 770.325C83.1456 770.325 84.1553 765.955 84.0219 755.488L84.0076 755.511Z" fill="#B59968" stroke="#090110" stroke-width="0.77" stroke-miterlimit="10"/>
<path d="M52.7642 754.116C51.7259 752.369 46.8204 744.149 42.3958 745.072C40.967 745.372 39.9431 746.438 39.062 748.004C35.7043 753.945 35.6709 760.899 36.5568 767.997C37.3236 774.185 37.8284 773.913 41.8719 790.717C44.4581 801.47 45.7916 807.977 49.4684 808.629C50.2805 808.75 51.1104 808.624 51.8497 808.267C61.518 804.216 58.2841 774.623 57.9364 771.443C57.1982 764.912 55.9837 759.505 52.7642 754.116Z" fill="#D6B97F" stroke="#090110" stroke-width="0.77" stroke-miterlimit="10"/>
<path d="M43.5721 808.32C43.5721 808.32 23.5022 796.448 19.9112 785.362C16.3201 774.275 18.0442 773.566 20.4255 773.552C22.8069 773.538 33.3228 774.747 36.4281 778.74C39.5334 782.734 53.7738 802.626 46.5583 808.253C46.1291 808.573 45.611 808.751 45.0759 808.763C44.5407 808.775 44.0151 808.62 43.5721 808.32Z" fill="#B29769" stroke="#090110" stroke-width="0.77" stroke-miterlimit="10"/>
<path d="M33.061 834.467C44.8344 837.175 56.9605 838.017 68.9954 836.961C73.4405 824.788 74.6502 818.103 72.6245 816.907C72.4001 816.792 72.1549 816.725 71.9037 816.707C71.6524 816.69 71.4002 816.724 71.1624 816.807L31.918 815.15L33.061 834.467Z" fill="#EA9B65" stroke="#090110" stroke-width="2.32" stroke-miterlimit="10"/>
<path d="M28.9694 815.907L75.4959 817.235C75.8742 817.244 76.2426 817.114 76.5307 816.869C76.8189 816.624 77.0067 816.281 77.0581 815.907L78.4869 805.368C78.5157 805.155 78.4994 804.939 78.4389 804.733C78.3784 804.526 78.2751 804.335 78.1358 804.172C77.9965 804.008 77.8243 803.876 77.6304 803.784C77.4365 803.691 77.2253 803.641 77.0105 803.635L29.86 802.426C29.4654 802.418 29.0827 802.561 28.7911 802.827C28.4994 803.093 28.3211 803.461 28.2931 803.854L27.5073 814.279C27.4937 814.482 27.5211 814.686 27.5877 814.879C27.6543 815.072 27.7588 815.249 27.895 815.401C28.0313 815.552 28.1965 815.675 28.3811 815.762C28.5656 815.849 28.7656 815.898 28.9694 815.907Z" fill="#EA9B65" stroke="#090110" stroke-width="2.32" stroke-miterlimit="10"/>
<path d="M62.6797 792.94C62.6797 792.94 62.8845 791.088 63.3893 788.108C64.0989 784.227 65.1623 780.419 66.566 776.732C68.2663 772.419 70.4476 768.744 72.4384 766.436C73.2 765.507 74.0644 764.667 75.015 763.932C75.2691 763.738 75.5347 763.56 75.8104 763.399C76.0056 763.294 76.0961 763.256 76.0961 763.256C76.0961 763.256 76.0199 763.318 75.858 763.465C75.6961 763.613 75.4817 763.832 75.215 764.146C74.4673 765.031 73.795 765.977 73.2052 766.973C71.6621 769.477 69.9809 773.195 68.3235 777.398C66.666 781.601 65.3325 785.49 64.299 788.346C63.3465 791.183 62.6797 792.94 62.6797 792.94Z" fill="#D6B97F" stroke="#D6B97F" stroke-width="0.13" stroke-miterlimit="10"/>
<path d="M44.5766 800.256C44.5766 800.256 43.3812 798.828 41.5618 796.448C39.7425 794.068 37.1611 790.859 34.2321 787.404C31.303 783.948 28.5169 780.973 26.1975 779.083C25.2996 778.313 24.3353 777.623 23.316 777.022C23.0329 776.847 22.7403 776.688 22.4397 776.546C22.2349 776.455 22.1016 776.413 22.1016 776.413C22.1016 776.413 22.2397 776.413 22.4635 776.47C22.7866 776.536 23.1048 776.623 23.4161 776.732C24.5718 777.138 25.6788 777.671 26.7166 778.321C29.3694 779.883 32.6271 782.653 35.6323 786.185C38.1487 789.217 40.3807 792.474 42.3 795.915C43.7765 798.576 44.5766 800.256 44.5766 800.256Z" fill="#D6B97F" stroke="#D6B97F" stroke-width="0.13" stroke-miterlimit="10"/>
<path d="M52.5786 796.962C52.5786 796.962 50.3687 787.442 48.216 775.575C46.0633 763.708 44.7773 754.012 44.7773 754.012C44.7773 754.012 46.9825 763.532 49.14 775.404C51.2974 787.275 52.5786 796.962 52.5786 796.962Z" fill="#B29769" stroke="#B29769" stroke-width="0.06" stroke-miterlimit="10"/>
<path d="M68.3672 800.28C68.3672 800.28 73.8681 796.348 81.0121 791.987C88.1561 787.627 94.1332 784.495 94.1332 784.495C94.1332 784.495 88.6181 788.427 81.5074 792.787C74.3967 797.147 68.3672 800.28 68.3672 800.28Z" fill="#B29769" stroke="#B29769" stroke-width="0.06" stroke-miterlimit="10"/>
<path d="M521.514 717.07L471.73 714.834C471.004 714.801 470.293 714.62 469.64 714.302C468.987 713.985 468.405 713.537 467.932 712.986C467.458 712.436 467.103 711.794 466.886 711.101C466.67 710.408 466.598 709.678 466.674 708.956C469.039 686.72 471.403 664.489 473.768 642.262C473.906 640.954 474.524 639.745 475.501 638.865C476.478 637.986 477.747 637.499 479.062 637.499H525.525C526.249 637.498 526.965 637.646 527.63 637.932C528.295 638.217 528.895 638.636 529.393 639.161C529.891 639.687 530.277 640.308 530.526 640.987C530.776 641.667 530.884 642.39 530.845 643.112L527.111 712.043C527.074 712.741 526.9 713.424 526.598 714.054C526.297 714.684 525.874 715.249 525.354 715.716C524.834 716.183 524.228 716.543 523.569 716.775C522.91 717.007 522.211 717.108 521.514 717.07Z" fill="#C99959" stroke="black" stroke-width="1.76" stroke-miterlimit="10"/>
<path d="M513.141 651.729H488.791C486.783 651.729 485.154 653.357 485.154 655.365V666.515C485.154 668.522 486.783 670.15 488.791 670.15H513.141C515.15 670.15 516.779 668.522 516.779 666.515V655.365C516.779 653.357 515.15 651.729 513.141 651.729Z" fill="#DBC2A5" stroke="black" stroke-width="1.76" stroke-miterlimit="10"/>
<path d="M483.93 682.821H493.906" stroke="black" stroke-width="1.76" stroke-miterlimit="10"/>
<path d="M506.359 630.544H497.725V642.565H506.359V630.544Z" fill="#E5A76A"/>
<path d="M1160.85 827.04C1160.85 827.04 1244.09 816.283 1255.74 808L1301.54 813.798C1277.25 830.763 1264.16 837.47 1256.59 840.278C1254.81 840.94 1248.37 843.225 1239.11 846.895C1228.66 851.045 1228.75 851.355 1226.62 851.859C1216.67 854.239 1208.63 848.865 1194.99 841.93C1183.91 836.313 1172.51 831.342 1160.85 827.04Z" fill="#F2902F" stroke="#090110" stroke-width="3.26" stroke-miterlimit="10"/>
<path d="M1166.94 827.169C1166.94 827.169 1238.52 817.411 1248.55 809.904L1287.92 815.14C1287.92 815.14 1249.26 848.937 1225.64 846.666C1202.02 844.396 1166.94 827.169 1166.94 827.169Z" fill="#F2DBC4" stroke="#090110" stroke-width="3.26" stroke-miterlimit="10"/>
<path d="M1294.01 808.624C1294.01 808.624 1222 813.86 1210.76 808.585L1173.14 821.88C1173.14 821.88 1217.39 846.995 1240.12 839.897C1262.86 832.8 1294.01 808.624 1294.01 808.624Z" fill="#EA9C4E" stroke="#090110" stroke-width="3.26" stroke-miterlimit="10"/>
<path d="M1287.55 808.819C1287.55 808.819 1215.53 814.055 1204.3 808.776L1166.67 822.071C1166.67 822.071 1210.92 847.185 1233.66 840.092C1256.4 833 1287.55 808.819 1287.55 808.819Z" fill="#FDCB93" stroke="#090110" stroke-width="3.26" stroke-miterlimit="10"/>
<path d="M1127.68 411.101H1031.85V516.399H1127.68V411.101Z" fill="#FFEDDE" stroke="black" stroke-width="0.46" stroke-miterlimit="10"/>
<path d="M1062.11 436.863H1046.98V501.828H1062.11V436.863Z" fill="#FFF0A9" stroke="black" stroke-width="0.46" stroke-miterlimit="10"/>
<path d="M1077.25 454.788H1062.12V501.837H1077.25V454.788Z" fill="#D800EF" stroke="black" stroke-width="0.62" stroke-miterlimit="10"/>
<path d="M1092.37 471.031H1077.24V501.837H1092.37V471.031Z" fill="#240BA0" stroke="black" stroke-width="0.62" stroke-miterlimit="10"/>
<path d="M1107.51 481.11H1092.38V501.837H1107.51V481.11Z" stroke="black" stroke-width="0.62" stroke-miterlimit="10"/>
<path d="M1094.93 397H1074.68V425.202H1094.93V397Z" fill="#E5A76A"/>
<path d="M456.854 829L503.354 821L573.854 835L501.354 849.5L456.854 829Z" fill="#090110"/>
<path d="M486.123 796.029C486.123 796.029 478.274 795.996 480.141 800.789C482.008 805.583 498.806 845.924 498.806 845.924C498.806 845.924 502.139 849.856 511.074 848.124C520.009 846.391 565.345 836.166 565.345 836.166C565.345 836.166 571.06 834.067 566.588 825.066" fill="#666565"/>
<path d="M486.123 796.029C486.123 796.029 478.274 795.996 480.141 800.789C482.008 805.583 498.806 845.924 498.806 845.924C498.806 845.924 502.139 849.856 511.074 848.124C520.009 846.391 565.345 836.166 565.345 836.166C565.345 836.166 571.06 834.067 566.588 825.066" stroke="#090110" stroke-width="1.13" stroke-miterlimit="10"/>
<path d="M488.362 820.82L482.647 836.529C482.647 836.529 481.646 839.327 483.647 839.727C485.647 840.127 496.377 839.061 496.377 839.061L488.362 820.82Z" fill="#1E1E1E" stroke="#090110" stroke-width="1.13" stroke-miterlimit="10"/>
<path d="M484.676 796.263L504.141 841.841C504.141 841.841 504.007 846.372 513.076 845.039C522.144 843.706 565.346 832.511 565.346 832.511C565.346 832.511 568.146 831.844 565.346 823.981C562.545 816.117 548.677 786 548.677 786L484.676 796.263Z" fill="#1E1E1E" stroke="#090110" stroke-width="1.13" stroke-miterlimit="10"/>
<path d="M496.934 800.809L511.183 834.167C511.183 834.167 511.088 837.499 517.723 836.509C524.357 835.519 555.991 827.361 555.991 827.361C555.991 827.361 558.039 826.885 555.991 821.115C553.943 815.346 543.789 793.316 543.789 793.316L496.934 800.809Z" fill="#739BFF" stroke="#090110" stroke-width="0.83" stroke-miterlimit="10"/>
<path d="M496.62 810.933C497.578 810.933 498.354 810.157 498.354 809.2C498.354 808.243 497.578 807.468 496.62 807.468C495.663 807.468 494.887 808.243 494.887 809.2C494.887 810.157 495.663 810.933 496.62 810.933Z" fill="#739BFF" stroke="#090110" stroke-width="0.83" stroke-miterlimit="10"/>
<path d="M498.355 814.994C499.312 814.994 500.088 814.218 500.088 813.261C500.088 812.304 499.312 811.528 498.355 811.528C497.397 811.528 496.621 812.304 496.621 813.261C496.621 814.218 497.397 814.994 498.355 814.994Z" fill="#739BFF" stroke="#090110" stroke-width="0.83" stroke-miterlimit="10"/>
<path d="M504.154 827.441C505.035 827.065 504.822 824.593 503.68 821.919C502.537 819.245 500.897 817.382 500.016 817.758C499.136 818.134 499.348 820.607 500.491 823.28C501.634 825.954 503.274 827.817 504.154 827.441Z" fill="#739BFF" stroke="#090110" stroke-width="0.83" stroke-miterlimit="10"/>
<ellipse cx="908.354" cy="771.5" rx="17.5" ry="4.5" fill="#090110"/>
<path d="M908.894 745.047C917.201 745.047 923.935 743.423 923.935 741.42C923.935 739.417 917.201 737.793 908.894 737.793C900.587 737.793 893.854 739.417 893.854 741.42C893.854 743.423 900.587 745.047 908.894 745.047Z" fill="#EF8535" stroke="black" stroke-width="0.42" stroke-miterlimit="10"/>
<path d="M894.42 748.108L897.078 766.891C897.078 766.891 896.997 768.986 900.669 770.476C904.341 771.966 917.243 771.566 918.934 769.871C920.625 768.177 920.872 768.5 921.353 766.006C921.834 763.512 923.601 742.991 923.601 742.991C923.601 742.991 902.726 748.836 893.854 742.225L894.42 748.108Z" fill="#F3A466" stroke="black" stroke-width="1.13" stroke-miterlimit="10"/>
<path d="M898.712 743.958L896.697 726.707L898.712 716.954L902.503 726.545L904.76 744.681" fill="#987C86"/>
<path d="M898.712 743.958L896.697 726.707L898.712 716.954L902.503 726.545L904.76 744.681" stroke="black" stroke-width="1.13" stroke-linecap="round" stroke-linejoin="round"/>
<path d="M915.901 720.971C914.088 728.99 912.27 737.009 910.447 745.029L915.715 744.362L920.187 722.147L915.901 720.971Z" fill="#D27B55" stroke="black" stroke-width="0.56" stroke-miterlimit="10"/>
<path d="M917.843 721.804C919.896 722.509 920.948 722.114 921.448 721.804C923.83 720.376 923.887 714.826 921.082 708C915.843 713.165 913.552 718.187 915.109 720.443C915.448 720.919 916.152 721.561 917.843 721.804Z" fill="#D27B55" stroke="black" stroke-width="0.56" stroke-miterlimit="10"/>
<ellipse cx="747.854" cy="816.5" rx="137" ry="27.5" fill="#090110"/>
<path d="M629.088 612.892C632.629 605.197 612.169 539.231 653.615 489.287C662.588 478.483 682.036 458.955 712.936 450.344C722.91 447.567 765.736 437.099 805.7 463.909C837.304 485.114 847.83 516.687 850.666 526.488C850.666 526.488 860.375 559.447 858.152 576.876C858.152 576.876 876.87 668.173 871.254 713.256C865.638 758.338 833.083 796.252 782.552 801.553C732.021 806.854 693.467 807.242 663.15 795.114C632.834 782.987 604.755 732.226 616.732 701.919C616.732 701.919 616.385 640.546 629.088 612.892Z" fill="#0D3E66" stroke="black" stroke-width="10.26" stroke-miterlimit="10"/>
<path d="M845.307 609.215C887.948 521.461 906.431 520.494 912.154 521.978C927.483 525.924 934.484 568.601 923.666 601.535C907.652 650.315 856.216 666.601 849.573 668.592" fill="#0D3E66"/>
<path d="M849.15 667.186C849.15 667.186 850.116 666.808 851.935 666.022C853.754 665.236 856.421 664.036 859.773 662.329C863.126 660.623 867.157 658.43 871.639 655.606C876.693 652.43 881.536 648.922 886.135 645.102C891.618 640.544 896.654 635.46 901.173 629.923L902.083 628.811L902.952 627.658C903.529 626.882 904.132 626.106 904.704 625.315C905.277 624.524 905.818 623.696 906.386 622.879L906.81 622.264L907.203 621.628L908.005 620.35L908.813 619.068C909.084 618.644 909.324 618.188 909.569 617.749C910.08 616.859 910.591 615.975 911.102 615.065C911.613 614.154 912.037 613.218 912.512 612.287L912.865 611.589L913.187 610.87C913.401 610.395 913.616 609.914 913.831 609.427C914.045 608.947 914.265 608.466 914.485 607.979C914.704 607.493 914.873 606.992 915.077 606.5C915.461 605.502 915.864 604.504 916.242 603.495C916.907 601.427 917.658 599.389 918.23 597.248C919.443 592.867 920.365 588.41 920.989 583.905C922.343 574.375 922.539 564.713 921.572 555.134C921.108 550.393 920.227 545.702 918.94 541.119C918.337 538.995 917.577 536.921 916.667 534.913C915.895 533.161 914.901 531.52 913.708 530.031C912.927 529.007 911.894 528.208 910.714 527.714C910.259 527.562 909.78 527.502 909.303 527.538C908.597 527.604 907.9 527.755 907.229 527.988C905.496 528.638 903.851 529.507 902.333 530.574C901.501 531.122 900.693 531.763 899.876 532.384L898.675 533.387L898.077 533.904L897.494 534.421C894.379 537.26 891.439 540.29 888.69 543.493C887.31 545.044 886.002 546.653 884.704 548.22C884.061 549.011 883.442 549.818 882.814 550.604C882.185 551.39 881.567 552.155 880.969 552.967C876.14 559.277 871.858 565.38 868.016 571.069C860.351 582.405 854.449 591.864 850.376 598.406L844.035 608.584L845.17 605.699C845.926 603.811 847.009 601.008 848.517 597.424C851.49 590.287 855.936 580.011 862.257 567.629C865.435 561.449 869.084 554.746 873.447 547.728C873.958 546.844 874.551 545.97 875.129 545.086C875.706 544.201 876.273 543.306 876.871 542.417C878.087 540.638 879.314 538.833 880.652 537.033C883.401 533.239 886.4 529.638 889.63 526.255L890.274 525.598L890.954 524.947L892.323 523.638C893.294 522.785 894.25 521.921 895.323 521.099C897.591 519.281 900.083 517.771 902.737 516.605C904.335 515.932 906.008 515.461 907.719 515.203C909.712 514.918 911.739 515.011 913.698 515.477C915.598 515.955 917.405 516.754 919.043 517.841C920.516 518.812 921.865 519.963 923.059 521.27C925.15 523.593 926.905 526.205 928.271 529.027C929.557 531.617 930.634 534.308 931.49 537.075C933.137 542.451 934.248 547.982 934.807 553.583C935.38 559.051 935.55 564.555 935.318 570.05C935.104 575.362 934.528 580.653 933.595 585.886C932.699 590.951 931.432 595.941 929.804 600.817C929.022 603.221 928.036 605.533 927.126 607.824C926.615 608.952 926.104 610.064 925.593 611.17C925.328 611.719 925.082 612.277 924.807 612.81C924.531 613.343 924.239 613.875 923.958 614.408L923.11 615.99L922.686 616.777L922.231 617.542L920.422 620.531C919.794 621.514 919.135 622.46 918.496 623.417C918.169 623.888 917.862 624.369 917.525 624.824C917.188 625.279 916.845 625.734 916.503 626.184L915.481 627.529L914.97 628.196L914.459 628.837L912.359 631.371C911.649 632.199 910.908 632.98 910.197 633.771C909.835 634.164 909.482 634.562 909.119 634.945L908.005 636.062C902.583 641.534 896.586 646.39 890.121 650.543C884.866 653.913 879.362 656.867 873.657 659.376C869.398 661.268 865.035 662.912 860.591 664.3C856.948 665.438 854.081 666.151 852.139 666.591C850.198 667.031 849.15 667.186 849.15 667.186Z" fill="black" stroke="black" stroke-width="0.86" stroke-miterlimit="10"/>
<path d="M641.812 626.53C544.127 640.561 518.879 655.301 518.276 667.444C517.459 684.351 563.861 707.944 606.891 702.503C636.181 698.795 656.375 682.592 665.379 674.26" fill="#0D3E66"/>
<path d="M666.365 675.336L665.824 675.921C665.461 676.298 664.94 676.888 664.214 677.617C662.788 679.096 660.637 681.237 657.678 683.823C654.074 686.974 650.264 689.875 646.273 692.506C640.94 696.04 635.295 699.066 629.411 701.547C622.197 704.591 614.649 706.749 606.927 707.975C598.029 709.336 589 709.599 580.039 708.756C570.141 707.851 560.385 705.75 550.98 702.498C545.954 700.768 541.062 698.66 536.345 696.194C533.892 694.907 531.504 693.495 529.191 691.963C526.755 690.374 524.431 688.615 522.237 686.699C519.877 684.648 517.766 682.321 515.947 679.768C514.945 678.339 514.089 676.811 513.392 675.207C512.593 673.384 512.093 671.441 511.91 669.456C511.73 667.289 511.983 665.108 512.656 663.043C512.835 662.557 513.024 662.076 513.218 661.605C513.412 661.135 513.657 660.721 513.877 660.281C514.325 659.463 514.827 658.677 515.379 657.928C515.645 657.561 515.926 657.256 516.202 656.92C516.478 656.583 516.749 656.242 517.04 655.963L517.899 655.099C518.185 654.815 518.471 654.525 518.762 654.282C519.35 653.796 519.932 653.248 520.52 652.824C521.108 652.399 521.7 651.929 522.293 651.525C527.035 648.324 531.767 646.245 536.406 644.45C541.046 642.656 545.604 641.275 550.075 640.044C559.002 637.639 567.52 635.907 575.512 634.562C583.504 633.217 590.959 632.188 597.776 631.397C611.404 629.794 622.466 629.013 630.111 628.558C633.933 628.309 636.907 628.196 638.92 628.097L641.986 627.968L638.992 628.671L630.417 630.642C622.972 632.348 612.196 634.779 598.997 638.032C592.4 639.646 585.2 641.466 577.536 643.566C569.871 645.666 561.761 648.045 553.463 650.915C549.334 652.374 545.154 653.951 541.082 655.766C539.038 656.656 537.05 657.649 535.109 658.673C533.243 659.679 531.443 660.804 529.718 662.04C528.289 663.065 527.017 664.297 525.941 665.696C525.625 666.143 525.367 666.63 525.175 667.144C525.128 667.313 525.095 667.486 525.078 667.661C525.065 667.738 525.065 667.817 525.078 667.894C525.071 667.984 525.071 668.073 525.078 668.163C525.114 668.928 525.706 670.397 526.774 671.902C528.004 673.578 529.414 675.11 530.98 676.469C534.504 679.511 538.341 682.161 542.426 684.371C546.55 686.639 550.818 688.629 555.2 690.329C563.621 693.606 572.354 695.993 581.261 697.451C589.364 698.795 597.587 699.255 605.788 698.821C613.006 698.397 620.157 697.183 627.116 695.201C632.954 693.542 638.648 691.404 644.142 688.809C648.354 686.83 652.449 684.606 656.406 682.147C659.671 680.079 662.155 678.393 663.815 677.198L666.365 675.336Z" fill="black" stroke="black" stroke-width="0.86" stroke-miterlimit="10"/>
<path d="M677.015 631.102C668.64 623.417 651.778 605.605 646.975 578.226C641.502 547.32 651.604 505.185 680.383 492.416C690.122 488.098 699.765 488.129 706.775 489.008C706.775 489.008 732.038 487.301 753.372 536.174C753.372 536.174 766.852 468.548 806.152 483.893C845.451 499.238 849.948 561.744 849.948 570.841C849.948 579.938 843.193 609.479 833.101 619.724C836.708 627.347 875.002 711.264 832.917 770.885C826.974 779.294 818.098 789.136 804.608 798.016C804.608 798.016 740.464 811.348 718.002 804.941C699.54 799.676 680.914 798.621 669.371 782.919C659.371 769.318 659.402 753.259 659.984 745.502C659.984 745.502 660.357 701.935 671.226 673.898C682.095 645.862 677.015 631.102 677.015 631.102Z" fill="#BAEAFF" stroke="black" stroke-width="5.49" stroke-linejoin="round"/>
<path d="M731.658 556.852C731.658 556.852 753.361 517.773 781.608 540.529C809.855 563.285 731.658 556.852 731.658 556.852Z" fill="#FA8510" stroke="black" stroke-width="3.66" stroke-miterlimit="10"/>
<path d="M732.273 565.608C732.273 565.608 750.436 604.079 767.396 586.94C784.356 569.801 770.808 559.338 770.808 559.338C770.808 559.338 768.38 580.57 732.273 565.608Z" fill="#FA8510" stroke="black" stroke-width="3.66" stroke-miterlimit="10"/>
<path d="M731.282 564.754C731.282 564.754 761.001 575.423 769.606 559.872L767.72 557.963L730.73 559.872L731.282 564.754Z" fill="#EA0738" stroke="black" stroke-width="3.66" stroke-miterlimit="10"/>
<path d="M700.345 563.145C705.693 563.145 710.028 556.569 710.028 548.457C710.028 540.345 705.693 533.77 700.345 533.77C694.997 533.77 690.662 540.345 690.662 548.457C690.662 556.569 694.997 563.145 700.345 563.145Z" fill="black" stroke="black" stroke-width="7.09" stroke-miterlimit="10"/>
<path d="M805.89 556.562C811.238 556.562 815.573 549.986 815.573 541.874C815.573 533.762 811.238 527.186 805.89 527.186C800.542 527.186 796.207 533.762 796.207 541.874C796.207 549.986 800.542 556.562 805.89 556.562Z" fill="black" stroke="black" stroke-width="7.09" stroke-miterlimit="10"/>
<path d="M679.073 601.845C687.644 601.845 694.592 594.813 694.592 586.139C694.592 577.464 687.644 570.432 679.073 570.432C670.503 570.432 663.555 577.464 663.555 586.139C663.555 594.813 670.503 601.845 679.073 601.845Z" fill="#F4A127" stroke="black" stroke-width="3.66" stroke-miterlimit="10"/>
<path d="M827.692 590.276C836.263 590.276 843.211 583.244 843.211 574.57C843.211 565.895 836.263 558.863 827.692 558.863C819.122 558.863 812.174 565.895 812.174 574.57C812.174 583.244 819.122 590.276 827.692 590.276Z" fill="#F4A127" stroke="black" stroke-width="3.66" stroke-miterlimit="10"/>
<path d="M616.387 735.732C616.387 735.732 598.85 726.257 598.85 738.478C598.85 750.699 628.441 772.136 634.838 772.136C634.854 772.136 616.387 748.046 616.387 735.732Z" fill="#0D3E66" stroke="black" stroke-width="10.26" stroke-miterlimit="10"/>
<path d="M667.295 796.671C667.295 796.671 639.773 807.361 644.582 819.659C649.39 831.958 660.483 820.735 660.483 820.735C660.483 820.735 653.887 827.976 658.378 832.527C662.87 837.078 687.571 843.537 713.682 805.07C713.682 805.07 673.314 800.12 667.295 796.671Z" fill="#FA8510" stroke="black" stroke-width="1.75" stroke-miterlimit="10"/>
<path d="M774.602 805.07C774.602 805.07 792.568 820.021 799.303 821.728C806.037 823.435 813.058 827.127 816.165 821.728C819.272 816.329 834.877 822.007 841.99 814.813C849.103 807.619 846.272 799.748 836.093 793.314C825.915 786.881 825.005 787.806 825.005 787.806C825.005 787.806 788.638 805.07 774.602 805.07Z" fill="#FA8510" stroke="black" stroke-width="1.75" stroke-miterlimit="10"/>
<path d="M698.702 586.139C716.903 586.139 731.658 568.224 731.658 546.125C731.658 524.026 716.903 506.111 698.702 506.111C680.501 506.111 665.746 524.026 665.746 546.125C665.746 568.224 680.501 586.139 698.702 586.139Z" stroke="black" stroke-width="8.29" stroke-miterlimit="10"/>
<path d="M847.004 539.712C847.004 561.661 831.163 579.726 811.863 579.726C792.563 579.726 776.723 561.661 776.723 539.712C776.723 517.763 792.563 499.698 811.863 499.698C830.601 499.698 846.206 516.765 846.973 538.078L847.004 539.712Z" stroke="black" stroke-width="8.29" stroke-miterlimit="10"/>
<path d="M736.637 541.367C736.637 541.367 756.417 519.087 777.618 537.788" stroke="black" stroke-width="14.71" stroke-linecap="round" stroke-linejoin="round"/>
<path d="M664.694 542.52C656.764 542.422 650.494 542.691 646.299 542.95C640.504 543.306 635.864 543.808 630.969 540.953C630.555 540.71 625.609 537.767 626.176 535.502C626.534 534.059 628.966 533.387 630.903 533.108C641.122 531.644 665.036 532.528 665.036 532.528L664.694 542.52Z" fill="black" stroke="black" stroke-width="4.19" stroke-miterlimit="10"/>
<path d="M573.106 603.733C573.106 603.733 583.234 599.079 584.189 610.115C585.145 621.152 581.323 696.365 581.323 696.365C581.323 696.365 581.767 705.389 573.617 708.099C565.467 710.809 529.734 720.413 529.734 720.413C529.734 720.413 518.778 725.068 516.423 713.576C514.067 702.085 520.628 644.275 520.628 644.275C520.628 644.275 516.612 620.485 529.351 616.621L542.089 612.753L573.106 603.733Z" fill="#424242" stroke="black" stroke-width="0.62" stroke-miterlimit="10"/>
<path d="M571.962 614.759C571.962 614.759 574.128 613.084 574.573 616.564C575.017 620.045 571.389 688.566 571.389 688.566C571.389 688.566 571.834 691.467 568.323 692.243C564.813 693.019 529.162 702.555 529.162 702.555C529.162 702.555 526.295 703.714 526.295 700.487C526.295 697.259 530.178 636.088 530.178 636.088L530.817 631.061C530.753 630.028 531.048 629.006 531.651 628.171C532.254 627.336 533.127 626.741 534.118 626.489C537.751 625.455 558.068 618.949 558.068 618.949L571.962 614.759Z" fill="#191919" stroke="black" stroke-width="1.87" stroke-miterlimit="10"/>
<defs>
<filter id="filter0_f_608_3413" x="183.854" y="0" width="1077" height="1077" filterUnits="userSpaceOnUse" color-interpolation-filters="sRGB">
<feFlood flood-opacity="0" result="BackgroundImageFix"/>
<feBlend mode="normal" in="SourceGraphic" in2="BackgroundImageFix" result="shape"/>
<feGaussianBlur stdDeviation="100" result="effect1_foregroundBlur_608_3413"/>
</filter>
<linearGradient id="paint0_linear_608_3413" x1="0.853516" y1="808.998" x2="1444.85" y2="808.998" gradientUnits="userSpaceOnUse">
<stop stop-color="#1F8BF7"/>
<stop offset="1" stop-color="#DC33FC"/>
</linearGradient>
</defs>
</svg>
