<svg width="134" height="135" viewBox="0 0 134 135" fill="none" xmlns="http://www.w3.org/2000/svg">
<path d="M127.818 42.6913C124.898 46.7313 117.288 53.1113 113.118 55.2913C97.678 63.3613 66.8079 69.6413 52.9079 69.2913C41.1079 69.0013 27.8279 63.8313 15.7979 63.6913C15.3379 60.2513 14.268 57.7513 14.398 53.8913L75.308 60.8913L73.9079 53.8913L86.508 52.4913C87.198 49.8213 78.138 49.7813 76.708 49.6913C60.158 48.5913 39.068 50.9613 25.598 44.0913C6.29795 34.2413 26.448 30.0313 24.198 16.0813C59.468 -13.1687 110.658 1.75127 127.828 42.6913H127.818Z" fill="url(#paint0_linear_7_782)"/>
<path d="M127.818 91.7013C126.548 91.9613 122.978 92.6813 122.218 93.1013C119.398 80.7213 101.848 105.301 101.918 90.3013C94.198 95.6313 98.248 89.2813 96.318 88.9013C96.008 88.8413 91.748 92.4913 90.718 91.7013C88.988 90.3813 91.048 86.1513 89.318 84.7013C86.818 82.6113 34.158 95.6613 24.198 88.9013C24.138 88.8213 23.758 89.1813 22.798 87.5013C20.968 84.3013 19.788 81.1913 18.598 77.7013C16.698 72.1013 16.548 69.3213 15.798 63.7013C27.828 63.8413 41.108 69.0113 52.908 69.3013C66.808 69.6513 97.688 63.3713 113.118 55.3013C117.298 53.1213 124.898 46.7413 127.818 42.7013C135.618 61.3013 134.868 73.1813 127.818 91.7113V91.7013Z" fill="#DC33FC"/>
<path d="M127.818 91.7013C110.668 136.761 58.438 147.661 22.788 115.511C24.228 108.771 30.468 116.341 33.288 116.911C39.378 118.131 57.678 121.731 60.598 115.511C83.208 117.571 103.928 103.211 122.208 93.1013C122.968 92.6813 126.548 91.9613 127.808 91.7013H127.818Z" fill="#1F8BF7"/>
<path d="M22.788 87.5013C23.748 89.1813 24.138 88.8213 24.188 88.9013C39.538 111.751 58.608 94.9313 82.298 97.3013C77.748 103.201 66.3181 100.981 59.8881 101.501L64.0881 105.701L45.8881 107.101C40.3581 109.871 59.028 115.361 60.5881 115.501C57.6681 121.721 39.3781 118.121 33.2781 116.901C30.4581 116.331 24.2181 108.761 22.7781 115.501C17.3281 110.581 15.6681 109.311 11.5781 102.901C16.1881 92.8213 14.2581 93.6813 7.37805 86.8013L22.7781 87.5013H22.788Z" fill="#1F8BF7"/>
<path d="M14.388 52.4913C14.328 52.9413 14.408 53.4313 14.388 53.8913C14.258 57.7513 15.328 60.2513 15.788 63.6913C16.538 69.3113 16.688 72.0913 18.588 77.6913C11.048 80.3713 6.90799 74.7213 0.387994 73.4913C-0.292006 64.8813 1.128 57.9113 3.188 49.6813L14.388 52.4813V52.4913Z" fill="#1F8BF7"/>
<path d="M25.588 44.0913C17.568 52.1513 16.678 36.0013 14.388 52.4913L3.18799 49.6913C6.68799 35.7113 13.018 25.3513 24.198 16.0813C26.448 30.0313 6.29799 34.2313 25.598 44.0913H25.588Z" fill="#1F8BF7"/>
<path d="M18.5879 77.7013C19.7779 81.1913 20.9579 84.3013 22.7879 87.5013L7.38794 86.8013C14.2679 93.6813 16.1979 92.8213 11.5879 102.901C5.38794 93.1813 1.32794 85.3613 0.387939 73.4913C6.91794 74.7213 11.0479 80.3713 18.5879 77.6913V77.7013Z" fill="#1F8BF7"/>
<path d="M25.588 44.0912C39.058 50.9712 60.148 48.5913 76.698 49.6913C78.128 49.7913 87.188 49.8212 86.498 52.4912L73.898 53.8913L75.298 60.8913L14.388 53.8913C14.408 53.4313 14.328 52.9412 14.388 52.4912C16.678 35.9912 17.568 52.1512 25.588 44.0912Z" fill="#DC33FC"/>
<path d="M122.218 93.1013C103.938 103.211 83.218 117.561 60.608 115.511C59.048 115.371 40.368 109.881 45.908 107.111L64.108 105.711L59.908 101.511C66.328 100.991 77.768 103.201 82.318 97.3113C58.628 94.9313 39.558 111.761 24.208 88.9113C34.168 95.6713 86.818 82.6113 89.328 84.7113C91.058 86.1613 88.998 90.3913 90.728 91.7113C91.758 92.5013 96.018 88.8513 96.328 88.9113C98.258 89.2913 94.208 95.6413 101.928 90.3113C101.868 105.311 119.418 80.7313 122.228 93.1113L122.218 93.1013Z" fill="#DC33FC"/>
<defs>
<linearGradient id="paint0_linear_7_782" x1="71.1075" y1="0.816956" x2="71.1075" y2="69.3052" gradientUnits="userSpaceOnUse">
<stop stop-color="#DC33FC"/>
<stop offset="1" stop-color="#1F8BF7"/>
</linearGradient>
</defs>
</svg>
