<svg width="318" height="215" viewBox="0 0 318 215" fill="none" xmlns="http://www.w3.org/2000/svg">
<circle cx="159" cy="107.681" r="107" fill="url(#paint0_linear_7_810)"/>
<path d="M223.523 22.3202C267.949 20.0522 301.448 30.8074 309.276 53.455C312.146 61.7569 311.313 70.9312 307.319 80.4872C314.216 88.2145 318 96.6135 318 105.397C318 141.818 252.976 171.646 170.56 174.216C91.8242 198.712 20.6221 191.763 8.72363 157.341C5.85407 149.039 6.68607 139.864 10.6797 130.308C3.78368 122.58 3.38558e-06 114.181 0 105.397C0.000330912 81.5912 27.7824 60.6018 70.0439 48.2001C68.6363 50.3011 67.3011 52.4545 66.042 54.6572C59.8328 56.6511 53.9894 58.8374 48.5605 61.1933C34.5485 67.274 23.5245 74.3863 16.0752 82.0292C8.64861 89.649 5.00013 97.5393 5 105.397C5 112.088 7.64555 118.801 13.0146 125.351C20.6915 110.689 35.4244 95.3482 55.3428 81.04C54.7186 83.4756 54.1793 85.9449 53.7256 88.4443C48.8319 92.1524 44.3056 95.914 40.1797 99.6982C29.1912 109.777 21.2158 119.854 16.6152 129.311C24.053 136.747 34.8828 143.666 48.5605 149.602C76.5689 161.756 115.612 169.397 159 169.397C162.605 169.397 166.18 169.344 169.721 169.24C173.102 168.181 176.5 167.065 179.908 165.887C220.916 151.712 255.32 131.735 277.821 111.098C288.81 101.019 296.783 90.9409 301.384 81.4833C293.946 74.048 283.117 67.1287 269.439 61.1933C264.01 58.8373 258.166 56.6522 251.957 54.6581C250.698 52.456 249.364 50.3026 247.957 48.2021C271.945 55.2419 291.268 65.0471 303.493 76.5654C306.428 68.6205 306.736 61.4121 304.551 55.0888C301.984 47.6618 295.958 41.3967 286.449 36.621C276.912 31.8309 264.169 28.7096 248.939 27.54C242.771 27.0663 236.236 26.9186 229.394 27.0976C227.495 25.4377 225.537 23.8445 223.523 22.3202ZM14.5059 134.229C11.5708 142.174 11.2636 149.384 13.4492 155.707C16.0164 163.134 22.0424 169.399 31.5508 174.175C41.0882 178.965 53.8307 182.086 69.0605 183.256C92.4768 185.054 121.191 182.194 151.861 174.328C90.8235 173.158 38.7297 157.054 14.5059 134.229ZM304.984 85.4443C289.546 114.929 245.572 147.168 188.266 168.214C219.823 165.629 247.895 158.951 269.439 149.602C283.452 143.521 294.475 136.409 301.925 128.766C309.351 121.146 313 113.256 313 105.397C313 98.707 310.354 91.9945 304.984 85.4443Z" fill="white"/>
<defs>
<linearGradient id="paint0_linear_7_810" x1="159" y1="0.681274" x2="159" y2="214.681" gradientUnits="userSpaceOnUse">
<stop stop-color="#1F8BF7"/>
<stop offset="1" stop-color="#DC33FC"/>
</linearGradient>
</defs>
</svg>
