<svg width="603" height="262" viewBox="0 0 603 262" fill="none" xmlns="http://www.w3.org/2000/svg">
<rect y="168.58" width="603" height="93" rx="46.5" fill="url(#paint0_linear_605_3087)"/>
<path d="M217.512 183.612L179.404 205.596L133.33 181.781L194.623 175.238L217.512 183.612Z" fill="#090110" stroke="#090110" stroke-width="0.78" stroke-miterlimit="10"/>
<path d="M217.511 183.612C217.511 183.612 169.644 177.424 162.934 172.658L136.609 175.986C150.574 185.75 158.109 189.612 162.46 191.222C163.489 191.604 167.189 192.918 172.515 195.035C178.52 197.421 178.471 197.598 179.694 197.889C185.419 199.257 190.045 196.166 197.886 192.175C204.258 188.945 210.81 186.086 217.511 183.612Z" fill="#F2902F" stroke="#090110" stroke-width="1.66" stroke-miterlimit="10"/>
<path d="M214.017 183.687C214.017 183.687 172.844 178.07 167.076 173.751L144.457 176.778C144.457 176.778 166.689 196.209 180.276 194.916C193.864 193.624 214.017 183.687 214.017 183.687Z" fill="#F2DBC4" stroke="#090110" stroke-width="1.66" stroke-miterlimit="10"/>
<path d="M140.93 173.019C140.93 173.019 182.35 176.035 188.813 172.992L210.441 180.645C210.441 180.645 185.016 195.094 171.913 191.012C158.81 186.93 140.93 173.019 140.93 173.019Z" fill="#EA9C4E" stroke="#090110" stroke-width="1.66" stroke-miterlimit="10"/>
<path d="M144.625 173.126C144.625 173.126 186.045 176.142 192.508 173.099L214.137 180.752C214.137 180.752 188.69 195.202 175.614 191.12C162.537 187.037 144.625 173.126 144.625 173.126Z" fill="#FDCB93" stroke="#090110" stroke-width="1.66" stroke-miterlimit="10"/>
<path d="M325.441 225.393L273.88 248.314C273.88 248.314 269.927 250.883 263.012 248.314C256.096 245.745 174.688 225.393 174.688 225.393C174.688 225.393 171.328 229.939 175.873 232.109C180.418 234.28 265.586 254.045 265.586 254.045C265.586 254.045 275.07 255.822 276.847 254.045C278.624 252.267 325.457 233.1 325.457 233.1C325.457 233.1 331.764 225.393 325.441 225.393Z" fill="#4D3F40" stroke="#090110" stroke-width="1.22" stroke-miterlimit="10"/>
<path d="M328.144 226.691C328.144 226.691 328.823 222.706 321.994 220.541C315.165 218.376 231.78 203.846 231.78 203.846C231.78 203.846 226.244 202.165 224.569 203.846C222.894 205.526 177.337 221.726 177.337 221.726C177.337 221.726 174.645 224.095 174.645 225.383L262.031 247.986C262.031 247.986 267.578 251.115 274.617 247.986L315.423 229.842L325.44 225.388C325.44 225.388 328.058 225.62 328.144 226.691Z" fill="#605656" stroke="#090110" stroke-width="1.22" stroke-miterlimit="10"/>
<path d="M307.457 223.514L265.471 241.696L191.564 223.514L230.788 207.314L307.457 223.514Z" fill="#4D3F40" stroke="#090110" stroke-width="0.46" stroke-miterlimit="10"/>
<path d="M274.38 228.549L274.126 228.302C273.959 228.135 273.706 227.908 273.367 227.618C272.413 226.825 271.357 226.164 270.227 225.652C268.562 224.902 266.76 224.502 264.933 224.478C263.905 224.478 262.779 224.537 261.637 224.548C260.399 224.606 259.159 224.457 257.97 224.106C257.35 223.899 256.768 223.594 256.246 223.201C255.756 222.814 255.322 222.359 254.959 221.85C254.254 220.88 253.758 219.889 253.171 219.049C252.896 218.641 252.583 218.26 252.234 217.913C251.898 217.598 251.521 217.33 251.114 217.116C250.349 216.739 249.538 216.465 248.701 216.303C247.456 216.093 246.229 215.783 245.034 215.376C244.85 215.305 244.67 215.224 244.495 215.134C244.364 215.076 244.238 215.008 244.118 214.929L243.816 214.746L244.134 214.897C244.236 214.945 244.371 214.999 244.527 215.058C244.704 215.127 244.883 215.186 245.066 215.236C246.289 215.524 247.531 215.725 248.782 215.839C249.679 215.952 250.557 216.189 251.389 216.545C251.862 216.762 252.305 217.043 252.703 217.38C253.104 217.74 253.465 218.143 253.78 218.581C254.442 219.458 254.975 220.439 255.643 221.311C255.967 221.746 256.347 222.135 256.774 222.469C257.22 222.796 257.714 223.05 258.239 223.223C259.333 223.543 260.471 223.691 261.61 223.659C262.741 223.659 263.861 223.627 264.939 223.692C268.148 223.864 271.179 225.223 273.442 227.505C273.755 227.828 273.981 228.086 274.132 228.269L274.38 228.549Z" fill="#B3B3C6" stroke="#B3B3C6" stroke-width="0.06" stroke-miterlimit="10"/>
<path d="M114.562 239.067C108.709 239.053 102.872 238.451 97.1399 237.269C94.7972 236.31 94.3125 235.567 94.3125 235.114C94.3448 232.373 108.541 228.167 176.141 223.686C176.403 223.631 176.67 223.602 176.938 223.6C177.444 223.572 177.942 223.735 178.333 224.058C178.688 224.407 178.894 224.88 178.909 225.377C178.871 227.488 169.07 229.567 161.196 231.237C152.924 232.992 148.771 233.87 147.964 234.021C130.681 237.252 121.16 239.04 114.869 239.062L114.562 239.067Z" fill="#090110"/>
<path d="M176.938 223.918C177.365 223.89 177.788 224.022 178.123 224.289C178.407 224.578 178.576 224.962 178.597 225.367C178.597 225.62 178.214 226.568 173.556 227.979C170.389 228.937 166.231 229.842 161.131 230.924C152.859 232.68 148.707 233.558 147.91 233.709C130.643 236.94 121.132 238.723 114.869 238.744H114.562C108.74 238.735 102.934 238.14 97.2313 236.967C94.7486 235.944 94.6301 235.244 94.6301 235.109C94.6301 234.5 96.1004 232.298 114.654 229.648C128.258 227.688 148.933 225.803 176.162 223.999H176.243C176.471 223.948 176.704 223.921 176.938 223.918ZM176.938 223.288C176.663 223.29 176.389 223.317 176.119 223.368C121.42 226.998 94.0467 230.91 94 235.104C94 235.915 95.0161 236.737 97.0482 237.57C102.81 238.766 108.678 239.372 114.562 239.38H114.869C121.062 239.38 130.137 237.683 148.023 234.333C148.825 234.183 152.972 233.299 161.26 231.544C170.626 229.556 179.184 227.693 179.227 225.383C179.211 224.794 178.966 224.235 178.543 223.826C178.09 223.451 177.514 223.259 176.927 223.288H176.938Z" fill="#090110"/>
<path d="M96.6934 233.186C96.6934 233.186 111.407 226.104 112.85 226.551C114.293 226.998 117.492 231.398 114.509 235.949C108.432 236.554 102.302 235.603 96.6934 233.186Z" fill="#EFA87C" stroke="black" stroke-width="1.37" stroke-miterlimit="10"/>
<path d="M114.498 235.949L174.886 227.214C182.297 221.128 173.777 217.59 173.777 217.59L112.65 226.551C112.65 226.551 118.181 229.352 114.498 235.949Z" fill="#D78147" stroke="black" stroke-width="1.37" stroke-linecap="round" stroke-linejoin="round"/>
<path d="M115.967 230.181C116.017 230.422 116.055 230.68 116.08 230.957C116.124 231.397 116.136 231.84 116.118 232.282C125.704 231.007 135.45 229.609 145.356 228.086C155.94 226.453 166.311 224.736 176.468 222.938C176.958 222.674 177.427 222.351 177.373 222.108C177.319 221.866 176.544 221.758 176.296 221.737C174.535 221.602 143.665 226.072 115.967 230.181Z" fill="#BC6022"/>
<path d="M105.848 231.7L105.977 232.858L115.353 231.996C115.414 231.683 115.414 231.361 115.353 231.048C115.31 230.819 115.232 230.597 115.122 230.391L105.848 231.7Z" fill="#CC9275"/>
<path d="M104.977 229.368C105.835 231.368 106.024 233.591 105.515 235.707C102.616 235.233 99.7781 234.438 97.0545 233.337L96.7637 233.213L104.923 229.395" fill="black"/>
<path d="M311.992 195.88C350.614 195.88 381.924 190.431 381.924 183.709C381.924 176.987 350.614 171.538 311.992 171.538C273.37 171.538 242.061 176.987 242.061 183.709C242.061 190.431 273.37 195.88 311.992 195.88Z" fill="#090110"/>
<path d="M311.992 171.748C330.701 171.748 348.29 173.03 361.539 175.367C374.378 177.629 381.746 180.672 381.746 183.709C381.746 186.747 374.378 189.789 361.539 192.057C348.317 194.389 330.728 195.67 311.992 195.67C293.255 195.67 275.693 194.389 262.471 192.057C249.643 189.789 242.265 186.757 242.265 183.709C242.265 180.661 249.632 177.629 262.471 175.367C275.693 173.03 293.282 171.748 311.992 171.748ZM311.992 171.333C273.259 171.333 241.855 176.875 241.855 183.72C241.855 190.565 273.259 196.107 311.992 196.107C350.725 196.107 382.128 190.527 382.128 183.709C382.128 176.891 350.725 171.322 311.992 171.322V171.333Z" fill="#090110"/>
<path d="M343.525 164.951C343.525 164.951 362.703 166.836 363.845 171.575C364.987 176.315 354.862 176.32 354.862 176.32C354.862 176.32 357.894 189.45 327.078 175.593C296.261 161.736 343.525 164.951 343.525 164.951Z" fill="#FA8510" stroke="black" stroke-width="1.22" stroke-miterlimit="10"/>
<path d="M296.604 175.194C296.604 175.194 315.885 178.14 316.962 182.874C318.039 187.608 307.806 187.07 307.806 187.07C307.806 187.07 310.58 200.264 279.801 184.824C249.023 169.383 296.604 175.194 296.604 175.194Z" fill="#FA8510" stroke="black" stroke-width="1.22" stroke-miterlimit="10"/>
<path d="M362.385 98.8648C366.494 97.5184 372.833 94.761 377.777 88.8907C392.108 71.8831 380.691 45.4938 379.22 42.0955C372.682 26.9782 361.308 18.5121 356.132 15.1677C332.129 -0.428928 306.084 5.9422 301.297 7.11625C294.457 8.79117 279.216 12.7442 267.626 26.5043C261.778 33.4138 257.81 41.7145 256.106 50.6047C255.223 55.5218 253.263 67.4993 259.952 79.9076C263.287 86.0132 268.069 91.2076 273.879 95.0357C273.879 95.0357 269.069 143.721 253.198 154.589C252.282 155.214 250.468 156.523 250.322 158.462C249.611 167.757 288.36 183.774 325.769 179.821C341.209 178.205 361.809 175.679 372.488 159.792C389.324 134.738 362.385 98.8648 362.385 98.8648Z" fill="#0D3E66" stroke="black" stroke-width="2.64" stroke-miterlimit="10"/>
<path d="M342 113.767C346.858 112.764 351.564 111.134 356.002 108.92C368.265 102.764 371.136 95.2781 374.593 96.6783C378.902 98.4286 380.518 112.673 375.207 121.748C375.04 122.034 369.062 130.812 369.062 130.812L342 113.767Z" fill="#0D3E66"/>
<path d="M368.745 130.597L369.225 130.004C369.537 129.606 370.027 129.056 370.576 128.281C372.155 126.12 373.582 123.853 374.847 121.495C375.235 120.752 375.639 119.944 375.978 119.125C376.313 118.244 376.598 117.345 376.834 116.433C377.657 113.304 378.019 110.073 377.912 106.841L377.879 105.968C377.852 105.678 377.825 105.381 377.804 105.091C377.766 104.507 377.694 103.926 377.588 103.351C377.362 102.197 376.953 101.086 376.377 100.06C376.077 99.5318 375.738 99.026 375.364 98.5471C375.05 98.0815 374.656 97.6749 374.201 97.3461C374.003 97.2248 373.781 97.1476 373.551 97.1197C373.32 97.0918 373.086 97.1139 372.865 97.1845C372.342 97.3641 371.857 97.6379 371.433 97.9924C370.503 98.7792 369.627 99.6266 368.81 100.529C367.169 102.282 365.331 103.84 363.333 105.171C359.52 107.735 355.675 109.189 352.664 110.735C351.922 111.093 351.151 111.389 350.359 111.618C349.621 111.844 348.921 112.033 348.264 112.21C346.95 112.555 345.814 112.819 344.882 113.029C343.018 113.444 341.984 113.643 341.984 113.643L344.828 112.824C345.744 112.55 346.858 112.216 348.14 111.796C348.781 111.586 349.465 111.359 350.181 111.095C350.924 110.838 351.645 110.519 352.335 110.142C355.33 108.419 359.062 106.814 362.681 104.218C364.569 102.879 366.306 101.338 367.862 99.6242C368.71 98.6642 369.625 97.7645 370.598 96.9314C371.155 96.4539 371.798 96.0882 372.494 95.8543C372.89 95.7372 373.305 95.6988 373.716 95.7412C374.134 95.7966 374.535 95.9378 374.896 96.1559C375.504 96.566 376.029 97.0888 376.441 97.6962C376.849 98.2271 377.218 98.7868 377.545 99.3711C378.182 100.526 378.626 101.778 378.859 103.076C379.186 105.468 379.233 107.89 378.999 110.293C378.788 112.449 378.367 114.579 377.745 116.653C377.463 117.599 377.128 118.529 376.743 119.438C376.334 120.305 375.903 121.086 375.461 121.829C374.068 124.144 372.498 126.348 370.765 128.421C370.162 129.159 369.629 129.676 369.289 130.037L368.745 130.597Z" fill="black" stroke="black" stroke-width="0.08" stroke-miterlimit="10"/>
<path d="M339.043 178.065C335.338 178.701 316.128 181.652 305.367 170.897C292.307 157.842 294.241 127.101 319.316 103.776C300.585 101.547 286.2 87.8944 284.202 71.6354C282.247 55.6887 292.28 37.8894 307.295 34.2972C318.923 31.5075 329.268 38.2879 331.827 39.9682C343.858 47.8581 347.019 60.1587 347.698 63.1262C347.439 60.4334 345.21 34.3672 356.358 29.0948C357.422 28.6022 358.559 28.284 359.724 28.1523C368.707 27.156 377.281 37.6255 380.905 45.6554C383.404 51.1595 383.824 56.0442 384.271 61.2736C384.731 66.5987 384.55 71.9597 383.733 77.2418C382.273 82.4743 379.474 87.2356 375.611 91.0558C371.904 94.7051 367.364 97.398 362.384 98.9025C368.597 106.155 372.968 114.799 375.127 124.102C376.742 131.334 380.388 147.443 370.317 161.445C359.842 176.013 342.086 177.807 339.043 178.065Z" fill="#BAEAFF" stroke="black" stroke-width="1.98" stroke-linejoin="round"/>
<path d="M278.148 120.45C286.485 119.007 291.682 116.201 294.725 114.122C306.52 106.092 310.796 92.2567 318.066 92.2297C318.894 92.2345 319.714 92.3764 320.495 92.6498C324.454 94.1632 325.272 99.3495 325.601 101.444C326.678 108.273 314.582 123.337 294.779 140.221" fill="#0D3E66"/>
<path d="M294.547 139.951L297.778 136.838C299.847 134.83 302.825 131.905 306.368 128.178C308.14 126.315 310.047 124.247 312.018 121.98C313.989 119.712 316.041 117.235 318.017 114.531C319.008 113.185 319.978 111.774 320.877 110.304C321.787 108.841 322.569 107.302 323.215 105.704C323.515 104.941 323.742 104.152 323.893 103.346L323.958 102.78C323.958 102.592 323.958 102.419 323.958 102.242C323.958 102.064 323.925 101.908 323.92 101.741C323.915 101.574 323.85 101.283 323.812 101.067C323.59 99.363 323.042 97.7173 322.197 96.2204C321.819 95.5988 321.318 95.0601 320.726 94.6371L320.43 94.4378L320.08 94.2655C319.854 94.1524 319.989 94.2116 319.94 94.1793H319.994L319.908 94.1362L319.655 94.0554C319.477 94.0016 319.283 93.9531 319.116 93.9154C318.753 93.8365 318.383 93.7986 318.012 93.8023C317.3 93.8127 316.6 93.9858 315.966 94.3086C314.526 95.1114 313.24 96.1635 312.169 97.416C311.005 98.6763 309.912 100.017 308.835 101.331C307.758 102.645 306.708 103.943 305.641 105.182C303.658 107.538 301.478 109.722 299.125 111.709C297.096 113.406 294.881 114.865 292.522 116.061C289.197 117.701 285.659 118.867 282.01 119.524C281.379 119.642 280.819 119.734 280.335 119.804C279.85 119.874 279.441 119.933 279.107 119.971L278.1 120.089L279.085 119.847C279.408 119.772 279.807 119.669 280.275 119.54C280.744 119.411 281.288 119.265 281.891 119.077C285.358 118.065 288.682 116.617 291.784 114.768C293.915 113.449 295.901 111.91 297.708 110.174C299.834 108.122 301.796 105.907 303.579 103.55C304.554 102.295 305.534 100.976 306.557 99.608C307.58 98.24 308.641 96.8236 309.869 95.4072C311.151 93.8221 312.716 92.489 314.485 91.4758C315.544 90.9161 316.717 90.6049 317.915 90.5656C318.509 90.5479 319.104 90.5967 319.687 90.711C319.978 90.7649 320.258 90.8295 320.543 90.9049L320.985 91.0449C321.07 91.0738 321.153 91.1099 321.233 91.1526L321.599 91.3842C321.389 91.2442 321.599 91.4165 321.717 91.4219C321.836 91.4273 321.89 91.465 322.019 91.5188L322.557 91.8581C323.538 92.53 324.368 93.3973 324.997 94.4055C326.094 96.2824 326.801 98.3615 327.076 100.518C327.114 100.777 327.151 100.997 327.184 101.267C327.216 101.536 327.248 101.886 327.248 102.182C327.248 102.478 327.248 102.775 327.211 103.055C327.173 103.335 327.141 103.593 327.092 103.89C326.892 104.916 326.587 105.919 326.182 106.884C325.419 108.637 324.496 110.315 323.425 111.898C322.412 113.438 321.335 114.865 320.247 116.206C318.202 118.755 316.027 121.196 313.731 123.52C311.576 125.674 309.497 127.64 307.569 129.369C303.703 132.826 300.428 135.449 298.15 137.232C297.008 138.12 296.114 138.799 295.506 139.257C294.897 139.714 294.547 139.951 294.547 139.951Z" fill="black" stroke="black" stroke-width="0.2" stroke-miterlimit="10"/>
<path d="M357.215 70.7091L359.595 77.9689C359.66 78.1573 359.832 82.1265 359.832 82.1265L358.868 83.893C358.61 84.3669 355.276 86.0472 355.061 85.9233C354.845 85.7995 348.059 83.4298 348.059 83.4298C348.059 83.4298 342.674 79.0675 342.491 78.9813C341.908 78.1518 341.369 77.2926 340.875 76.407C340.875 76.407 346.799 73.2295 347.187 73.1111C347.575 72.9926 357.215 70.7091 357.215 70.7091Z" fill="#A23D2E"/>
<path d="M358.852 81.2756C358.852 81.2756 352.039 76.6494 346.535 80.9201C347.674 81.6202 348.852 82.255 350.063 82.8212C351.431 83.4275 352.859 83.8913 354.323 84.2053C354.929 84.3604 355.564 84.3604 356.17 84.2053C356.365 84.1451 356.554 84.0676 356.735 83.9738C357.322 83.6838 357.825 83.248 358.195 82.7081C358.503 82.277 358.727 81.7907 358.852 81.2756Z" fill="#D44E28"/>
<path d="M370.064 53.9007C368.481 47.8311 363.602 44.9445 360.979 45.7846C358.679 46.5171 356.977 50.4808 357.828 55.1394" stroke="black" stroke-width="4.62" stroke-miterlimit="10" stroke-linecap="round"/>
<path d="M330.485 60.5734C328.901 54.4984 324.022 51.6172 321.399 52.4519C319.116 53.1951 317.398 57.1535 318.249 61.8121" stroke="black" stroke-width="4.62" stroke-miterlimit="10" stroke-linecap="round"/>
<path d="M340.613 72.1901C340.254 72.6639 339.939 73.1686 339.67 73.6981C339.09 74.6524 338.814 75.7606 338.878 76.8756C338.903 77.0921 338.945 77.3063 339.002 77.5165C339.675 79.9777 342.944 82.7835 343.311 83.1067C345.508 84.9701 346.585 85.8856 348.072 86.5858C349.865 87.4475 352.003 88.4815 354.723 88.0776C357.442 87.6736 360.001 85.9772 361.142 83.5591C361.691 82.2646 361.918 80.8566 361.805 79.4553C361.742 77.9791 361.437 76.5233 360.9 75.1468C360.357 73.5828 359.623 72.0922 358.713 70.7091L356.645 71.8832C356.645 71.8832 358.649 76.811 358.832 78.5559C358.983 79.9938 359.193 81.7549 358.013 83.0313C357.225 83.8009 356.184 84.2582 355.084 84.3184C352.208 83.7906 349.456 82.7333 346.967 81.2002C345.567 80.317 343.542 79.046 342.153 76.5955C341.959 76.2509 341.776 75.8792 341.776 75.8792C341.204 74.7155 340.811 73.4716 340.613 72.1901Z" fill="#FA8510" stroke="black" stroke-width="0.84" stroke-miterlimit="10"/>
<path d="M342.815 66.2767C343.864 65.0184 345.144 63.9712 346.585 63.1908C346.585 63.1908 351.776 59.8787 358.142 61.1066C359.596 61.392 362.036 61.8606 362.838 63.6216C363.436 64.9411 362.838 66.3467 362.585 66.9284C361.411 69.5835 358.681 70.9622 354.415 72.594C346.078 75.7823 341.91 77.3764 340.413 75.8846C338.636 74.0804 340.424 69.1742 342.815 66.2767Z" fill="#FA8510" stroke="black" stroke-width="1.26" stroke-miterlimit="10"/>
<path d="M315.739 83.5536C319.841 83.5536 323.166 80.3877 323.166 76.4824C323.166 72.577 319.841 69.4111 315.739 69.4111C311.638 69.4111 308.312 72.577 308.312 76.4824C308.312 80.3877 311.638 83.5536 315.739 83.5536Z" fill="#F4A127" stroke="black" stroke-width="0.47" stroke-miterlimit="10"/>
<path d="M285.93 14.9576L281.74 8.44648C281.74 8.44648 282.354 6.76618 283.464 7.39629C284.573 8.02641 288.849 11.5163 288.849 11.5163C288.849 11.5163 287.234 4.34268 288.849 2.71623C290.465 1.08979 290.713 5.90449 290.713 6.42689C290.713 6.94929 290.901 8.78577 291.617 8.67267C292.334 8.55958 296.895 2.38233 296.895 2.38233C296.895 2.38233 299.146 -0.0950327 298.511 3.65871C297.875 7.41245 297.084 11.8178 297.084 11.8178" fill="#0D3E66"/>
<path d="M285.93 14.9576L281.74 8.44648C281.74 8.44648 282.354 6.76618 283.464 7.39629C284.573 8.02641 288.849 11.5163 288.849 11.5163C288.849 11.5163 287.234 4.34268 288.849 2.71623C290.465 1.08979 290.713 5.90449 290.713 6.42689C290.713 6.94929 290.901 8.78577 291.617 8.67267C292.334 8.55958 296.895 2.38233 296.895 2.38233C296.895 2.38233 299.146 -0.0950327 298.511 3.65871C297.875 7.41245 297.084 11.8178 297.084 11.8178" stroke="black" stroke-width="2.32" stroke-miterlimit="10"/>
<path d="M442.366 240.613C428.272 240.613 416.801 238.615 416.801 236.165C416.801 233.714 428.272 231.716 442.366 231.716C456.46 231.716 467.931 233.709 467.931 236.165C467.931 238.62 456.449 240.613 442.366 240.613Z" fill="#090110"/>
<path d="M442.365 231.765C457.612 231.765 467.855 234.027 467.855 236.138C467.855 238.249 457.623 240.511 442.365 240.511C427.108 240.511 416.875 238.249 416.875 236.138C416.875 234.027 427.108 231.765 442.365 231.765ZM442.365 231.614C428.207 231.614 416.725 233.639 416.725 236.138C416.725 238.637 428.207 240.662 442.365 240.662C456.524 240.662 468.006 238.637 468.006 236.138C468.006 233.639 456.524 231.614 442.365 231.614Z" fill="#090110"/>
<path d="M368.119 249.276C355.926 249.276 346 247.553 346 245.431C346 243.309 355.926 241.58 368.119 241.58C380.311 241.58 390.232 243.309 390.232 245.431C390.232 247.553 380.311 249.276 368.119 249.276Z" fill="#090110"/>
<path d="M462.641 200.27C470.903 200.313 477.371 207.271 476.983 215.026C476.579 223.018 468.959 229.411 460.498 228.162C460.579 227.494 460.708 226.546 460.88 225.372C461.484 221.279 461.774 220.729 462.243 220.401C463.32 219.647 464.241 220.794 466.013 220.304C468.167 219.695 469.438 217.218 469.831 215.414C470.278 213.378 469.987 210.373 468.129 209.016C466.18 207.594 463.767 208.892 462.857 207.443C462.458 206.808 462.755 206.285 462.857 204.314C462.911 202.962 462.839 201.608 462.641 200.27Z" fill="#70432D" stroke="black" stroke-width="1.77" stroke-miterlimit="10"/>
<path d="M462.264 196.338C462.092 194.868 459.572 193.85 457.197 192.703C454.822 191.556 452.651 191.087 444.508 191.012C432.31 190.915 429.429 192.024 428.028 192.66C425.956 193.598 424.034 194.837 422.325 196.338C422.325 196.338 419.578 218.565 427.775 235.114C427.775 235.114 444.751 242.116 458.209 233.466C458.209 233.488 464.801 217.514 462.264 196.338Z" fill="#70432D" stroke="black" stroke-width="2.35" stroke-miterlimit="10"/>
<path d="M426.059 196.581L427.206 197.232C428.272 197.769 429.38 198.219 430.518 198.579C433.394 199.505 437.573 200.054 442.188 199.828C446.144 199.636 450.078 199.121 453.95 198.288C456.934 197.658 458.754 197.114 458.754 197.114C457.216 197.723 455.645 198.244 454.047 198.676C450.195 199.78 446.229 200.438 442.226 200.636C437.53 200.867 433.243 200.097 430.378 198.961C429.253 198.524 428.171 197.983 427.146 197.345L426.059 196.581Z" fill="black" stroke="black" stroke-width="0.05" stroke-miterlimit="10"/>
<path d="M429.342 198.422C426.757 197.178 436.387 196.22 441.842 196.268C445.924 196.306 449.969 197.049 453.798 198.465C453.798 198.465 437.954 202.575 429.342 198.422Z" fill="#3D2014"/>
<path d="M429.36 198.385L429.845 198.573C430.163 198.686 430.615 198.891 431.229 199.085C432.97 199.592 434.762 199.908 436.572 200.027C439.256 200.184 441.949 200.118 444.623 199.828C446.136 199.661 447.72 199.462 449.346 199.176C450.159 199.036 450.989 198.88 451.823 198.708L453.062 198.439L452.524 198.256L451.904 198.056C451.495 197.927 451.08 197.809 450.671 197.695C449.852 197.475 449.055 197.281 448.226 197.119C446.668 196.811 445.092 196.604 443.508 196.5C440.815 196.372 438.117 196.415 435.43 196.629C433.618 196.729 431.817 196.972 430.044 197.356C429.764 197.423 429.492 197.519 429.231 197.642C429.126 197.695 429.03 197.764 428.946 197.846C428.909 197.885 428.886 197.935 428.878 197.988C428.87 198.041 428.879 198.095 428.902 198.142C428.977 198.257 429.079 198.351 429.199 198.417C429.073 198.358 428.965 198.267 428.886 198.153C428.859 198.102 428.848 198.043 428.856 197.985C428.864 197.927 428.889 197.873 428.929 197.83C429.01 197.74 429.107 197.665 429.215 197.609C429.474 197.477 429.747 197.372 430.028 197.297C431.796 196.859 433.597 196.569 435.414 196.43C438.108 196.152 440.818 196.062 443.524 196.161C445.125 196.244 446.717 196.438 448.29 196.742C449.109 196.898 449.939 197.087 450.768 197.313C451.188 197.426 451.603 197.545 452.023 197.674L452.647 197.873L453.353 198.116L453.951 198.331L454.247 198.439L454.392 198.493L454.468 198.519H454.392L453.175 198.816C452.712 198.918 452.319 199.01 451.888 199.09C451.048 199.268 450.213 199.419 449.395 199.553C447.779 199.828 446.163 200.017 444.639 200.162C441.944 200.42 439.232 200.44 436.534 200.221C434.718 200.062 432.927 199.701 431.191 199.144C430.583 198.929 430.114 198.708 429.818 198.606L429.36 198.385Z" fill="black"/>
<path d="M429.199 198.417C429.079 198.351 428.977 198.257 428.902 198.142C428.879 198.095 428.87 198.041 428.878 197.988C428.886 197.935 428.909 197.885 428.946 197.846C429.03 197.764 429.126 197.695 429.231 197.642C429.492 197.519 429.764 197.423 430.044 197.356C431.817 196.972 433.618 196.729 435.43 196.629C438.117 196.415 440.815 196.372 443.508 196.5C445.092 196.604 446.668 196.811 448.226 197.119C449.055 197.281 449.852 197.475 450.671 197.695C451.08 197.809 451.495 197.927 451.904 198.056L452.524 198.256L453.062 198.439L451.823 198.708C450.989 198.88 450.159 199.036 449.346 199.176C447.72 199.462 446.136 199.661 444.623 199.828C441.949 200.118 439.256 200.184 436.572 200.027C434.762 199.908 432.97 199.592 431.229 199.085C430.615 198.891 430.163 198.686 429.845 198.573L429.36 198.385L429.818 198.606C430.114 198.708 430.583 198.929 431.191 199.144C432.927 199.701 434.718 200.062 436.534 200.221C439.232 200.44 441.944 200.42 444.639 200.162C446.163 200.017 447.779 199.828 449.395 199.553C450.213 199.419 451.048 199.268 451.888 199.09C452.319 199.01 452.712 198.918 453.175 198.816L454.392 198.519H454.468L454.392 198.493L454.247 198.439L453.951 198.331L453.353 198.116L452.647 197.873L452.023 197.674C451.603 197.545 451.188 197.426 450.768 197.313C449.939 197.087 449.109 196.898 448.29 196.742C446.717 196.438 445.125 196.244 443.524 196.161C440.818 196.062 438.108 196.152 435.414 196.43C433.597 196.569 431.796 196.859 430.028 197.297C429.747 197.372 429.474 197.477 429.215 197.609C429.107 197.665 429.01 197.74 428.929 197.83C428.889 197.873 428.864 197.927 428.856 197.985C428.848 198.043 428.859 198.102 428.886 198.153C428.965 198.267 429.073 198.358 429.199 198.417ZM429.199 198.417L429.317 198.482" stroke="black" stroke-width="0.02" stroke-miterlimit="10"/>
<path d="M447.104 163.163C446.145 166.648 443.21 169.583 442.515 170.245C439.553 173.105 437.749 172.83 436.09 175.539C435.945 175.771 433.893 179.239 434.771 183.176C435.423 186.084 437.528 188.594 437.065 188.955C436.952 189.041 436.753 188.955 436.661 188.917C431.496 186.639 429.811 182.643 429.811 182.643C429.128 180.906 428.837 179.041 428.958 177.179C429.079 175.317 429.609 173.505 430.511 171.872C433.295 166.863 438.158 166.868 438.713 162.678C438.869 161.499 438.535 160.266 437.862 157.788C436.925 154.315 435.638 153.647 435.519 151.39C435.406 149.322 436.214 146.349 437.738 145.94C440.959 145.062 449.296 155.193 447.104 163.163Z" fill="#CCCAAF"/>
<path d="M447.465 178.964L449.593 176.363C449.593 176.363 452.285 169.647 446.232 173.767C440.179 177.887 440.211 183.214 440.211 183.214C440.211 183.214 440.502 186.477 441.353 187.334C442.204 188.19 442.985 185.142 443.523 184.603C444.062 184.065 445.715 179.471 447.465 178.964Z" fill="#CCCAAF"/>
<path d="M369.537 217.888C378.118 217.888 385.075 216.21 385.075 214.139C385.075 212.069 378.118 210.391 369.537 210.391C360.956 210.391 354 212.069 354 214.139C354 216.21 360.956 217.888 369.537 217.888Z" fill="#EF8535" stroke="black" stroke-width="0.39" stroke-miterlimit="10"/>
<path d="M354.582 221.055L357.334 240.47C357.334 240.47 357.247 242.624 361.039 244.175C364.83 245.726 378.165 245.3 379.915 243.55C381.666 241.8 381.913 242.134 382.414 239.549C382.915 236.964 384.73 215.761 384.73 215.761C384.73 215.761 363.188 221.803 354 214.969L354.582 221.055Z" fill="#F3A466" stroke="black" stroke-width="1.03" stroke-miterlimit="10"/>
<path d="M359.018 216.757L356.939 198.931L359.018 188.849L362.934 198.764L365.271 217.511" fill="#987C86"/>
<path d="M359.018 216.757L356.939 198.931L359.018 188.849L362.934 198.764L365.271 217.511" stroke="black" stroke-width="1.03" stroke-linecap="round" stroke-linejoin="round"/>
<path d="M376.779 193.001L371.141 217.866L376.585 217.177C378.119 209.522 379.657 201.868 381.201 194.213L376.779 193.001Z" fill="#D27B55" stroke="black" stroke-width="0.52" stroke-miterlimit="10"/>
<path d="M378.784 193.857C380.9 194.59 382.015 194.181 382.511 193.857C384.966 192.371 385.026 186.646 382.128 179.58C376.71 184.923 374.341 190.114 375.956 192.446C376.306 192.947 377.033 193.61 378.784 193.857Z" fill="#D27B55" stroke="black" stroke-width="0.52" stroke-miterlimit="10"/>
<path d="M540.29 203.142C540.29 203.142 513.061 193.62 514.025 187.131C514.091 186.531 514.341 185.967 514.741 185.515C517.073 182.984 524.435 185.639 529.223 188.552C529.853 188.94 530.3 189.242 530.429 189.333C533.122 191.197 537.678 195.101 542.278 203.557L540.29 203.142Z" fill="#D6B97F" stroke="#090110" stroke-width="0.47" stroke-miterlimit="10"/>
<path d="M525.76 167.856C525.76 167.856 525.906 159.174 531.528 165.012C536.623 170.306 540.468 177.016 543.306 185.413L543.656 186.49C547.028 196.771 548.681 201.952 546.952 203.885C546.376 204.526 545.191 205.226 542.461 204.962C542.461 204.962 538.723 199.474 534.862 193.464C532.794 190.233 528.372 185.359 526.697 179.408C526.509 178.745 526.369 178.147 526.369 178.147C526.369 178.147 525.669 175.126 525.76 167.915V167.856Z" fill="#B59968" stroke="#090110" stroke-width="0.47" stroke-miterlimit="10"/>
<path d="M547.34 166.886C548.056 165.68 551.444 160.003 554.497 160.628C555.499 160.833 556.194 161.571 556.803 162.653C559.124 166.757 559.14 171.566 558.531 176.456C557.993 180.711 557.653 180.544 554.864 192.15C553.076 199.582 552.171 204.079 549.613 204.537C549.061 204.61 548.5 204.522 547.997 204.284C541.324 201.483 543.554 181.039 543.796 178.842C544.27 174.345 545.116 170.613 547.34 166.886Z" fill="#D6B97F" stroke="#090110" stroke-width="0.47" stroke-miterlimit="10"/>
<path d="M553.684 204.337C553.684 204.337 567.546 196.13 570.029 188.477C572.512 180.824 571.316 180.329 569.674 180.318C568.031 180.307 560.766 181.142 558.617 183.899C556.468 186.657 546.639 200.406 551.616 204.278C551.911 204.502 552.27 204.628 552.64 204.639C553.011 204.649 553.376 204.544 553.684 204.337Z" fill="#B29769" stroke="#090110" stroke-width="0.47" stroke-miterlimit="10"/>
<path d="M560.944 222.406C552.816 224.284 544.442 224.866 536.132 224.129C533.055 215.724 532.219 211.105 533.623 210.272C533.779 210.195 533.949 210.15 534.122 210.139C534.296 210.128 534.47 210.151 534.635 210.208L561.735 209.061L560.944 222.406Z" fill="#EA9B65" stroke="#090110" stroke-width="1.42" stroke-miterlimit="10"/>
<path d="M563.771 209.583L531.641 210.499C531.381 210.502 531.129 210.411 530.931 210.242C530.733 210.074 530.602 209.84 530.563 209.583L529.589 202.286C529.572 202.139 529.586 201.991 529.63 201.849C529.673 201.708 529.745 201.578 529.841 201.466C529.937 201.354 530.055 201.262 530.187 201.198C530.32 201.133 530.465 201.097 530.612 201.09L563.168 200.255C563.437 200.254 563.696 200.353 563.895 200.534C564.095 200.714 564.219 200.962 564.245 201.23L564.783 208.431C564.794 208.573 564.775 208.716 564.73 208.851C564.684 208.986 564.612 209.111 564.518 209.219C564.424 209.326 564.309 209.413 564.181 209.476C564.053 209.538 563.913 209.575 563.771 209.583Z" fill="#EA9B65" stroke="#090110" stroke-width="1.42" stroke-miterlimit="10"/>
<path d="M540.22 193.776C540.22 193.776 539.789 192.554 539.18 190.583C538.572 188.612 537.667 185.908 536.595 182.973C535.723 180.45 534.642 178.003 533.364 175.659C532.967 174.946 532.51 174.269 531.996 173.634C531.807 173.403 531.646 173.241 531.538 173.128C531.43 173.015 531.35 172.961 531.35 172.961L531.57 173.085C531.758 173.206 531.938 173.339 532.109 173.484C532.763 174.017 533.356 174.622 533.875 175.288C535.55 177.474 536.865 179.914 537.769 182.515C538.689 185.088 539.373 187.74 539.81 190.437C540.107 192.489 540.22 193.776 540.22 193.776Z" fill="#D6B97F" stroke="#D6B97F" stroke-width="0.08" stroke-miterlimit="10"/>
<path d="M552.758 198.623C552.758 198.623 553.339 197.471 554.373 195.661C555.76 193.314 557.361 191.1 559.156 189.048C560.95 186.968 563.067 185.19 565.425 183.781C566.14 183.36 566.9 183.022 567.692 182.774C567.902 182.708 568.116 182.656 568.333 182.618C568.406 182.613 568.48 182.613 568.554 182.618L568.349 182.693C568.214 182.758 568.015 182.844 567.767 182.984C567.072 183.378 566.411 183.83 565.791 184.336C563.757 186.033 561.866 187.893 560.136 189.899C558.052 192.225 556.258 194.444 554.912 196.028C553.566 197.611 552.758 198.623 552.758 198.623Z" fill="#D6B97F" stroke="#D6B97F" stroke-width="0.08" stroke-miterlimit="10"/>
<path d="M547.328 196.469C547.328 196.469 548.281 189.775 549.843 181.594C551.405 173.414 552.994 166.843 552.994 166.843C552.994 166.843 552.041 173.532 550.479 181.713C548.917 189.893 547.328 196.469 547.328 196.469Z" fill="#B29769" stroke="#B29769" stroke-width="0.04" stroke-miterlimit="10"/>
<path d="M536.493 198.904C536.493 198.904 532.373 196.685 527.504 193.61C522.636 190.534 518.871 187.745 518.871 187.745C518.871 187.745 522.991 189.963 527.86 193.044C532.728 196.125 536.493 198.904 536.493 198.904Z" fill="#B29769" stroke="#B29769" stroke-width="0.04" stroke-miterlimit="10"/>
<defs>
<linearGradient id="paint0_linear_605_3087" x1="0" y1="215.08" x2="603" y2="215.08" gradientUnits="userSpaceOnUse">
<stop stop-color="#1F8BF7"/>
<stop offset="1" stop-color="#DC33FC"/>
</linearGradient>
</defs>
</svg>
