<svg width="308" height="308" viewBox="0 0 308 308" fill="none" xmlns="http://www.w3.org/2000/svg">
<path d="M16.0789 200.91C15.4869 174.074 37.0795 152 63.9223 152H229.953C263.067 152 288.843 180.76 285.231 213.677C283.791 226.796 277.731 238.976 268.136 248.038L236.39 278.02C225.765 288.055 212.109 294.28 197.565 295.717L148.74 300.543C139.034 301.502 129.236 300.299 120.051 297.018L92.1088 287.039C82.8211 283.722 74.3948 278.365 67.4494 271.364L29.947 233.556C21.3133 224.852 16.3493 213.167 16.0789 200.91Z" fill="url(#paint0_linear_679_3020)"/>
<circle cx="154" cy="154" r="149" stroke="url(#paint1_linear_679_3020)" stroke-width="10"/>
<path d="M153.6 142.954L120.15 136.069C120.15 136.069 110.478 135.062 114.911 144.734C119.344 154.406 138.084 165.489 148.16 165.489" fill="#0D3E66"/>
<path d="M148.148 165.58H147.248C146.953 165.58 146.577 165.533 146.16 165.503C145.744 165.473 145.233 165.402 144.682 165.291C142.472 164.932 139.332 164.032 135.672 162.41C131.384 160.492 127.336 158.078 123.611 155.216C121.395 153.525 119.357 151.612 117.529 149.507C116.558 148.38 115.703 147.158 114.977 145.859C114.809 145.523 114.641 145.188 114.47 144.832C114.298 144.476 114.157 144.136 114.033 143.77C113.748 143.039 113.539 142.281 113.408 141.507C113.262 140.704 113.284 139.879 113.472 139.085C113.675 138.273 114.132 137.546 114.775 137.01C115.394 136.509 116.115 136.15 116.888 135.958C117.62 135.769 118.372 135.668 119.128 135.66C119.312 135.66 119.497 135.66 119.685 135.66H119.964H120.105C120.165 135.663 120.225 135.672 120.283 135.686L121.317 135.908L123.363 136.345L127.316 137.194L140.988 140.187C148.766 141.916 153.569 143.025 153.569 143.025C153.569 143.025 148.726 142.125 140.904 140.607L127.171 137.9L123.205 137.104L121.156 136.691L120.119 136.479C120.092 136.476 120.065 136.476 120.038 136.479H119.914H119.662H119.148C118.46 136.495 117.775 136.59 117.109 136.764C116.455 136.93 115.845 137.235 115.319 137.658C114.817 138.084 114.464 138.659 114.312 139.3C114.152 139.981 114.137 140.688 114.268 141.376C114.388 142.093 114.58 142.796 114.842 143.475C114.96 143.811 115.121 144.146 115.259 144.482C115.397 144.818 115.578 145.134 115.736 145.456C116.429 146.708 117.245 147.888 118.171 148.979C119.939 151.052 121.906 152.946 124.045 154.635C127.688 157.525 131.645 159.998 135.839 162.007C139.426 163.713 142.513 164.71 144.699 165.147C145.243 165.278 145.734 165.332 146.157 165.412C146.58 165.493 146.946 165.506 147.241 165.53L148.148 165.58Z" fill="black" stroke="black" stroke-width="0.08" stroke-miterlimit="10"/>
<path d="M142.281 136.039C139.558 134.306 137.197 132.062 135.329 129.43C124.32 113.702 131.574 82.1726 152.457 70.0855C164.097 63.345 176.584 64.6145 183.019 65.8672C183.019 65.8672 181.514 60 182.519 60C183.523 60 186.377 64.3996 186.377 64.3996C186.377 64.3996 187.187 65.9814 187.959 64.3996C188.441 63.3296 188.704 62.174 188.732 61.0008C188.732 61.0008 189.272 59.3417 190.045 61.7363C190.51 63.1325 190.564 64.6329 190.199 66.0587L190.045 66.9856C190.045 66.9856 193.209 64.1679 194.367 64.8228C195.526 65.4777 194.522 66.4818 194.522 66.4818L192.863 68.7219C197.588 70.7807 204.386 74.6899 209.692 81.961C217 91.976 217.064 102.307 217.131 112.879C217.164 118.541 216.459 122.954 214.034 127.196C212.896 129.185 211.471 130.995 209.806 132.57C209.806 132.57 228.254 150.813 223.979 173.607C223.703 175.083 223.34 176.54 222.891 177.973L224.234 173.862C224.234 173.862 231.703 172.038 229.211 177.802C226.719 183.565 217.981 188.743 214.74 190.228C214.008 190.564 213.114 191.031 211.838 191.534C198.569 196.794 177.733 194.392 176.158 194.194C157.481 191.843 148.145 190.668 142.502 185.009C134.442 176.932 133.804 165.939 133.623 162.843C132.776 148.657 140.202 138.659 142.281 136.039Z" fill="#0D3E66" stroke="black" stroke-width="2.87" stroke-miterlimit="10"/>
<path d="M179.284 194.483L193.524 194.792C197.407 192.216 202.229 187.991 205.044 181.519C210.753 168.364 205.914 151.166 192.752 138.296C195.199 137.012 197.48 135.433 199.543 133.594C201.937 131.419 204.021 128.925 205.736 126.182C210.135 118.887 209.094 93.8668 195.607 89.4168C185.749 86.1658 174.992 95.7979 173.068 97.5208C166.626 103.287 164.057 110.142 163.036 113.564C167.533 103.385 163.953 92.4596 156.756 88.547C147.392 83.4589 133.851 91.4957 131.567 99.7945C129.916 105.699 129.65 111.906 130.792 117.93C131.043 119.196 132.444 126.289 135.775 130.222L138.848 133.819L142.274 136.029C142.274 136.029 130.855 150.265 133.844 165.842C136.833 181.419 141.969 184.458 141.969 184.458C143.293 185.757 144.757 186.905 146.335 187.88C150.506 190.443 154.371 191.101 157.115 191.538C165.894 192.952 173.535 193.875 179.284 194.483Z" fill="#BAEAFF" stroke="black" stroke-width="1.72" stroke-linejoin="round"/>
<path d="M150.359 193.069C148.236 194.953 140.545 191.672 136.549 185.832C134.416 182.712 132.737 177.983 134.238 176.646C135.246 175.756 137.728 176.28 139.098 177.466C139.775 178.086 140.319 178.838 140.697 179.676C140.676 179.692 140.633 179.676 140.633 179.676C140.633 179.676 138.98 174.463 141.412 174.608C143.625 174.742 145.684 176.925 146.047 177.331C147.766 179.263 148.495 181.046 149.926 184.552C150.789 186.671 150.984 187.575 151.071 188.421C151.199 189.687 151.444 192.105 150.359 193.069Z" fill="#FA8510" stroke="black" stroke-width="1.15" stroke-miterlimit="10"/>
<path d="M186.283 196.716C186.283 196.716 180.533 195.094 177.52 188.532C174.508 181.969 176.15 179.212 176.513 178.846C176.876 178.48 177.789 177.261 180.066 178.477C180.707 178.787 181.256 179.26 181.655 179.85C182.055 180.44 182.292 181.124 182.343 181.835C182.367 181.067 182.473 180.304 182.659 179.558C182.736 179.269 183.435 177.624 184.657 177.278C186.299 176.818 188.12 178.957 188.812 179.753C191.438 182.822 191.72 186.493 191.854 188.589C192.046 191.571 192.21 194.12 190.444 195.642C189.073 196.821 187.213 196.8 186.283 196.716Z" fill="#FA8510" stroke="black" stroke-width="1.15" stroke-miterlimit="10"/>
<path d="M138.611 122.414C141.343 122.414 143.558 120.079 143.558 117.198C143.558 114.317 141.343 111.982 138.611 111.982C135.879 111.982 133.664 114.317 133.664 117.198C133.664 120.079 135.879 122.414 138.611 122.414Z" fill="#F4A127" stroke="black" stroke-width="1.06" stroke-miterlimit="10"/>
<path d="M193.01 126.273C195.742 126.273 197.957 123.937 197.957 121.057C197.957 118.176 195.742 115.841 193.01 115.841C190.277 115.841 188.062 118.176 188.062 121.057C188.062 123.937 190.277 126.273 193.01 126.273Z" fill="#F4A127" stroke="black" stroke-width="1.06" stroke-miterlimit="10"/>
<path d="M158.973 117.117L160.397 122.36C160.434 122.498 161.858 124.953 161.858 124.953L163.073 125.651C163.409 125.843 165.948 125.651 166.032 125.493C166.116 125.336 169.078 121.443 169.078 121.443C169.078 121.443 170.489 116.855 170.556 116.741C170.623 116.627 170.489 114.609 170.489 114.609C170.489 114.609 165.891 114.844 165.619 114.918C165.347 114.992 158.973 117.117 158.973 117.117Z" fill="#A23D2E"/>
<path d="M162.104 124.08C162.104 124.08 164.219 118.817 169.002 119.378C168.62 120.212 168.191 121.024 167.716 121.809C167.168 122.669 166.53 123.467 165.811 124.19C165.524 124.507 165.156 124.739 164.747 124.862C164.612 124.896 164.475 124.918 164.337 124.929C163.885 124.965 163.432 124.885 163.02 124.697C162.679 124.55 162.369 124.34 162.104 124.08Z" fill="#D44E28"/>
<path d="M169.047 111.979C169.436 112.135 169.81 112.325 170.165 112.547C170.873 112.912 171.457 113.477 171.845 114.172C171.913 114.311 171.971 114.455 172.019 114.602C172.577 116.328 171.787 119.21 171.683 119.542C171.146 121.45 170.877 122.407 170.306 123.368C169.615 124.54 168.788 125.937 167.079 126.682C166.216 127.06 165.274 127.222 164.334 127.155C163.395 127.088 162.486 126.793 161.685 126.296C160.871 125.713 160.203 124.948 159.734 124.063C159.198 123.151 158.811 122.158 158.589 121.124C158.3 119.991 158.149 118.827 158.139 117.658L159.768 117.611C159.768 117.611 160.513 121.305 161.077 122.431C161.541 123.347 162.085 124.486 163.257 124.825C163.99 125.004 164.764 124.902 165.427 124.54C166.873 123.169 168.041 121.533 168.869 119.72C169.336 118.676 169.997 117.164 169.856 115.196C169.84 114.918 169.799 114.625 169.799 114.625C169.677 113.712 169.424 112.82 169.047 111.979Z" fill="#FA8510" stroke="black" stroke-width="0.94" stroke-miterlimit="10"/>
<path d="M165.507 109.222C164.434 108.848 163.3 108.683 162.165 108.735C162.165 108.735 157.93 108.627 154.777 111.68C154.051 112.379 152.839 113.547 153.057 114.901C153.222 115.908 154.098 116.543 154.468 116.798C156.147 117.974 158.246 117.806 161.306 117.245C167.29 116.137 170.283 115.583 170.561 114.138C170.891 112.399 167.989 110.095 165.507 109.222Z" fill="#FA8510" stroke="black" stroke-width="1.4" stroke-miterlimit="10"/>
<path d="M201.211 139.673L234.661 132.788C234.661 132.788 244.334 131.781 239.9 141.453C235.467 151.125 216.727 162.208 206.652 162.208" fill="#0D3E66"/>
<path d="M206.662 162.118L207.548 162.07C207.837 162.047 208.197 162 208.62 161.956C209.043 161.913 209.53 161.825 210.071 161.701C212.24 161.275 215.32 160.294 218.907 158.608C223.103 156.62 227.062 154.167 230.712 151.297C232.863 149.619 234.844 147.733 236.626 145.668C237.556 144.583 238.376 143.407 239.071 142.158C239.232 141.822 239.407 141.52 239.551 141.191C239.696 140.862 239.853 140.519 239.971 140.183C240.237 139.507 240.432 138.804 240.555 138.088C240.686 137.401 240.674 136.694 240.518 136.012C240.368 135.367 240.015 134.786 239.511 134.356C238.987 133.927 238.374 133.619 237.717 133.453C237.05 133.272 236.363 133.173 235.672 133.157C235.501 133.157 235.336 133.157 235.158 133.157H234.903H234.775C234.748 133.153 234.719 133.153 234.691 133.157L233.65 133.366L231.602 133.769L227.632 134.551L213.889 137.198C206.061 138.686 201.211 139.549 201.211 139.549C201.211 139.549 206.02 138.46 213.805 136.768L227.484 133.863L231.444 133.03L233.489 132.603L234.527 132.385C234.586 132.37 234.647 132.361 234.708 132.358H234.849H235.131H235.689C236.448 132.37 237.202 132.474 237.936 132.667C238.71 132.866 239.433 133.229 240.055 133.732C240.698 134.273 241.152 135.004 241.351 135.821C241.538 136.615 241.557 137.44 241.408 138.242C241.275 139.015 241.062 139.773 240.774 140.502C240.649 140.869 240.478 141.211 240.334 141.564C240.189 141.916 239.998 142.235 239.82 142.588C239.09 143.882 238.232 145.098 237.257 146.219C235.418 148.307 233.37 150.203 231.145 151.874C229.156 153.399 227.069 154.791 224.898 156.042C223.018 157.135 221.079 158.122 219.088 158.998C215.427 160.599 212.297 161.483 210.097 161.832C209.55 161.94 209.056 161.973 208.633 162.034C208.21 162.094 207.844 162.094 207.555 162.107L206.662 162.118Z" fill="black" stroke="black" stroke-width="0.08" stroke-miterlimit="10"/>
<path d="M149.771 108.728C151.566 108.728 153.022 106.883 153.022 104.607C153.022 102.331 151.566 100.486 149.771 100.486C147.975 100.486 146.52 102.331 146.52 104.607C146.52 106.883 147.975 108.728 149.771 108.728Z" fill="black" stroke="black" stroke-width="2.38" stroke-miterlimit="10"/>
<path d="M183.13 110.528C184.925 110.528 186.381 108.683 186.381 106.407C186.381 104.131 184.925 102.286 183.13 102.286C181.334 102.286 179.879 104.131 179.879 106.407C179.879 108.683 181.334 110.528 183.13 110.528Z" fill="black" stroke="black" stroke-width="2.38" stroke-miterlimit="10"/>
<path d="M106.022 179.763L82.2571 193.472L53.5254 178.621L91.7481 174.54L106.022 179.763Z" fill="#090110" stroke="#090110" stroke-width="0.78" stroke-miterlimit="10"/>
<path d="M106.021 179.75C106.021 179.75 76.1711 175.904 71.9865 172.935L55.5703 175.014C64.2788 181.1 68.9773 183.508 71.691 184.515C72.3324 184.75 74.6397 185.57 77.9612 186.89C81.7059 188.377 81.6757 188.488 82.438 188.67C86.0081 189.523 88.893 187.595 93.7829 185.106C97.7563 183.088 101.842 181.299 106.021 179.75Z" fill="#F2902F" stroke="#090110" stroke-width="1.66" stroke-miterlimit="10"/>
<path d="M103.843 179.81C103.843 179.81 78.1673 176.307 74.5704 173.617L60.4648 175.501C60.4648 175.501 74.3286 187.622 82.802 186.812C91.2754 186.003 103.843 179.81 103.843 179.81Z" fill="#F2DBC4" stroke="#090110" stroke-width="1.66" stroke-miterlimit="10"/>
<path d="M58.2656 173.157C58.2656 173.157 84.0956 175.038 88.1257 173.14L101.613 177.912C101.613 177.912 85.758 186.923 77.5869 184.377C69.4157 181.832 58.2656 173.157 58.2656 173.157Z" fill="#EA9C4E" stroke="#090110" stroke-width="1.66" stroke-miterlimit="10"/>
<path d="M60.5703 173.224C60.5703 173.224 86.4003 175.105 90.4304 173.224L103.918 177.993C103.918 177.993 88.0627 186.994 79.9084 184.451C71.754 181.909 60.5703 173.224 60.5703 173.224Z" fill="#FDCB93" stroke="#090110" stroke-width="1.66" stroke-miterlimit="10"/>
<path d="M184.268 205.888L152.104 220.182C152.104 220.182 149.639 221.784 145.327 220.182C141.014 218.58 90.2478 205.888 90.2478 205.888C90.2478 205.888 88.1521 208.723 90.9866 210.08C93.8212 211.437 146.929 223.745 146.929 223.745C146.929 223.745 152.843 224.857 153.955 223.745C155.066 222.634 184.268 210.684 184.268 210.684C184.268 210.684 188.211 205.888 184.268 205.888Z" fill="#4D3F40" stroke="#090110" stroke-width="1.22" stroke-miterlimit="10"/>
<path d="M185.95 206.701C185.95 206.701 186.373 204.213 182.115 202.866C177.856 201.519 125.857 192.455 125.857 192.455C125.857 192.455 122.408 191.407 121.36 192.455C120.312 193.502 91.9097 203.608 91.9097 203.608C91.9097 203.608 90.2305 205.086 90.2305 205.885L144.705 219.974C144.705 219.974 148.161 221.928 152.55 219.974L178.004 208.662L184.254 205.885C184.254 205.885 185.9 206.029 185.95 206.701Z" fill="#605656" stroke="#090110" stroke-width="1.22" stroke-miterlimit="10"/>
<path d="M173.055 204.72L146.869 216.054L100.781 204.72L125.241 194.614L173.055 204.72Z" fill="#4D3F40" stroke="#090110" stroke-width="0.46" stroke-miterlimit="10"/>
<path d="M141.483 207.786L141.325 207.631C141.221 207.527 141.063 207.386 140.852 207.205C140.257 206.711 139.598 206.299 138.894 205.979C137.855 205.511 136.731 205.262 135.592 205.247C134.951 205.247 134.249 205.284 133.537 205.291C132.765 205.329 131.991 205.236 131.25 205.015C130.864 204.886 130.502 204.697 130.175 204.454C129.871 204.211 129.601 203.927 129.372 203.611C128.933 203.004 128.624 202.386 128.257 201.862C128.086 201.607 127.89 201.37 127.673 201.153C127.462 200.959 127.227 200.792 126.975 200.656C126.497 200.422 125.991 200.252 125.47 200.149C124.693 200.018 123.928 199.825 123.183 199.571C123.068 199.527 122.956 199.477 122.847 199.42C122.765 199.384 122.687 199.341 122.612 199.292L122.424 199.178L122.622 199.272C122.701 199.312 122.783 199.345 122.867 199.373C122.977 199.416 123.089 199.453 123.203 199.484C123.963 199.665 124.735 199.793 125.514 199.867C126.073 199.934 126.621 200.081 127.139 200.303C127.435 200.439 127.71 200.614 127.959 200.824C128.21 201.049 128.435 201.301 128.63 201.576C129.043 202.12 129.376 202.731 129.792 203.276C129.994 203.547 130.231 203.79 130.498 203.998C130.776 204.201 131.084 204.361 131.411 204.471C132.094 204.668 132.803 204.759 133.513 204.74C134.219 204.74 134.917 204.723 135.589 204.763C137.591 204.867 139.483 205.715 140.892 207.141C141.087 207.343 141.228 207.501 141.322 207.615L141.483 207.786Z" fill="#B3B3C6" stroke="#B3B3C6" stroke-width="0.06" stroke-miterlimit="10"/>
<path d="M41.8212 214.342C38.1711 214.335 34.5311 213.959 30.9566 213.22C29.4956 212.622 29.1934 212.159 29.1934 211.877C29.2135 210.17 38.0799 207.547 80.2219 204.753C80.3854 204.719 80.5519 204.701 80.7189 204.699C81.0345 204.682 81.3451 204.784 81.5888 204.985C81.81 205.203 81.9388 205.497 81.9482 205.808C81.9246 207.124 75.8122 208.421 70.9021 209.462C65.7435 210.557 63.1542 211.104 62.6504 211.198C51.8731 213.213 45.9353 214.328 42.0126 214.345L41.8212 214.342Z" fill="#090110"/>
<path d="M80.7204 204.898C80.9869 204.88 81.2505 204.963 81.4592 205.129C81.6368 205.309 81.742 205.549 81.7548 205.801C81.7548 205.959 81.5163 206.55 78.6113 207.43C76.6365 208.028 74.0437 208.592 70.8633 209.267C65.7047 210.362 63.1153 210.909 62.6182 211.003C51.851 213.018 45.92 214.13 42.0141 214.143H41.8226C38.192 214.138 34.5713 213.766 31.0151 213.035C29.4668 212.397 29.3929 211.96 29.3929 211.88C29.3929 211.497 30.3098 210.127 41.8797 208.471C50.3632 207.259 63.2564 206.073 80.2368 204.938H80.2636H80.2871C80.4297 204.909 80.5749 204.894 80.7204 204.894M80.7204 204.501C80.5488 204.502 80.3778 204.52 80.2099 204.555C46.0991 206.825 29.0291 209.265 29 211.873C29 212.381 29.6336 212.894 30.9009 213.411C34.4937 214.157 38.1532 214.535 41.8226 214.54H42.0141C45.8763 214.54 51.5353 213.482 62.6888 211.393C63.1892 211.299 65.7752 210.751 70.9439 209.653C76.7843 208.414 82.1209 207.255 82.1477 205.811C82.1382 205.444 81.9851 205.096 81.7212 204.841C81.4391 204.607 81.0797 204.487 80.7137 204.505L80.7204 204.501Z" fill="#090110"/>
<path d="M30.6777 210.678C30.6777 210.678 39.8497 206.281 40.7531 206.54C41.6566 206.799 43.6481 209.563 41.7875 212.4C37.9981 212.777 34.175 212.185 30.6777 210.678Z" fill="#EFA87C" stroke="black" stroke-width="1.37" stroke-miterlimit="10"/>
<path d="M41.7828 212.4L79.4413 206.953C84.0625 203.161 78.7495 200.951 78.7495 200.951L40.6309 206.54C40.6309 206.54 44.08 208.296 41.7828 212.4Z" fill="#D78147" stroke="black" stroke-width="1.37" stroke-linecap="round" stroke-linejoin="round"/>
<path d="M42.6992 208.804C42.7306 208.954 42.7541 209.115 42.7697 209.287C42.7969 209.562 42.8048 209.838 42.7933 210.113C48.7713 209.316 54.849 208.444 61.0264 207.497C67.6269 206.478 74.0942 205.408 80.4282 204.286C80.7338 204.122 81.026 203.92 80.9924 203.769C80.9589 203.618 80.4752 203.551 80.3208 203.537C79.2225 203.454 59.9718 206.248 42.6992 208.804Z" fill="#BC6022"/>
<path d="M36.3887 209.751L36.4693 210.473L42.3197 209.919C42.3575 209.723 42.3575 209.523 42.3197 209.328C42.2921 209.185 42.2434 209.046 42.1753 208.918L36.3887 209.751Z" fill="#CC9275"/>
<path d="M35.8443 208.296C36.3794 209.542 36.4973 210.928 36.1802 212.246C34.3724 211.951 32.6029 211.456 30.904 210.772L30.7227 210.691L35.8107 208.31" fill="black"/>
<path d="M197.959 209.868C203.31 209.868 207.648 208.822 207.648 207.531C207.648 206.24 203.31 205.193 197.959 205.193C192.608 205.193 188.27 206.24 188.27 207.531C188.27 208.822 192.608 209.868 197.959 209.868Z" fill="#EF8535" stroke="black" stroke-width="0.39" stroke-miterlimit="10"/>
<path d="M188.632 211.843L190.348 223.95C190.348 223.95 190.295 225.294 192.659 226.261C195.023 227.228 203.339 226.963 204.43 225.871C205.522 224.78 205.676 224.988 205.989 223.379C206.301 221.771 207.433 208.542 207.433 208.542C207.433 208.542 193.999 212.31 188.27 208.051L188.632 211.843Z" fill="#F3A466" stroke="black" stroke-width="1.03" stroke-miterlimit="10"/>
<path d="M191.398 209.166L190.102 198.046L191.398 191.759L193.84 197.942L195.297 209.633" fill="#987C86"/>
<path d="M191.398 209.166L190.102 198.046L191.398 191.759L193.84 197.942L195.297 209.633" stroke="black" stroke-width="1.03" stroke-linecap="round" stroke-linejoin="round"/>
<path d="M202.473 194.349L198.957 209.855L202.352 209.428C203.308 204.652 204.268 199.879 205.231 195.108L202.473 194.349Z" fill="#D27B55" stroke="black" stroke-width="0.52" stroke-miterlimit="10"/>
<path d="M203.723 194.883C205.043 195.339 205.738 195.084 206.047 194.883C207.579 193.952 207.615 190.382 205.809 185.976C202.43 189.311 200.952 192.549 201.96 194.003C202.178 194.315 202.632 194.732 203.723 194.883Z" fill="#D27B55" stroke="black" stroke-width="0.52" stroke-miterlimit="10"/>
<path d="M258.885 190.161C264.037 190.188 268.071 194.527 267.829 199.363C267.577 204.347 262.825 208.337 257.549 207.554C257.599 207.138 257.68 206.547 257.787 205.815C258.163 203.262 258.345 202.923 258.637 202.715C259.309 202.244 259.883 202.963 260.988 202.654C262.331 202.275 263.124 200.733 263.369 199.605C263.648 198.339 263.466 196.465 262.308 195.615C261.092 194.728 259.587 195.538 259.02 194.634C258.771 194.238 258.956 193.912 259.02 192.683C259.053 191.84 259.008 190.995 258.885 190.161Z" fill="#70432D" stroke="black" stroke-width="1.77" stroke-miterlimit="10"/>
<path d="M258.651 187.699C258.543 186.782 256.972 186.147 255.491 185.432C254.01 184.717 252.656 184.425 247.578 184.377C239.971 184.317 238.174 185.009 237.301 185.405C236.009 185.99 234.81 186.763 233.745 187.699C233.745 187.699 232.032 201.559 237.143 211.88C237.143 211.88 247.729 216.246 256.122 210.852C256.122 210.866 260.233 200.908 258.651 187.699Z" fill="#70432D" stroke="black" stroke-width="2.35" stroke-miterlimit="10"/>
<path d="M236.074 187.85L236.79 188.256C237.453 188.594 238.144 188.875 238.855 189.096C240.648 189.674 243.255 190.016 246.133 189.875C248.6 189.757 251.053 189.436 253.468 188.915C255.328 188.522 256.463 188.186 256.463 188.186C255.504 188.564 254.524 188.889 253.528 189.16C251.125 189.846 248.652 190.255 246.156 190.379C243.228 190.523 240.554 190.043 238.768 189.335C238.066 189.063 237.391 188.726 236.753 188.327L236.074 187.85Z" fill="black" stroke="black" stroke-width="0.05" stroke-miterlimit="10"/>
<path d="M238.121 189.002C236.509 188.223 242.514 187.628 245.916 187.659C248.462 187.682 250.984 188.146 253.372 189.029C253.372 189.029 243.491 191.588 238.121 189.002Z" fill="#3D2014"/>
<path d="M238.13 188.975L238.433 189.093C238.631 189.163 238.913 189.291 239.296 189.429C240.382 189.742 241.499 189.938 242.627 190.013C244.302 190.113 245.981 190.071 247.648 189.889C248.592 189.788 249.579 189.664 250.594 189.482C251.101 189.395 251.618 189.301 252.139 189.19L252.911 189.022L252.575 188.908L252.189 188.787C251.934 188.707 251.675 188.629 251.42 188.562C250.909 188.421 250.412 188.3 249.895 188.203C248.924 188.008 247.941 187.878 246.953 187.813C245.274 187.732 243.591 187.76 241.915 187.897C240.786 187.958 239.663 188.109 238.557 188.347C238.383 188.39 238.213 188.45 238.05 188.525C237.983 188.558 237.923 188.603 237.872 188.656C237.849 188.681 237.834 188.711 237.83 188.744C237.825 188.777 237.83 188.811 237.845 188.841C237.892 188.911 237.956 188.968 238.03 189.009L238.104 189.049L238.03 189.012C237.951 188.974 237.884 188.916 237.835 188.844C237.818 188.812 237.811 188.775 237.816 188.739C237.821 188.703 237.837 188.669 237.862 188.643C237.912 188.586 237.972 188.54 238.04 188.505C238.201 188.422 238.371 188.357 238.547 188.31C239.649 188.037 240.773 187.856 241.905 187.77C243.586 187.599 245.275 187.543 246.963 187.602C247.961 187.655 248.954 187.776 249.935 187.964C250.446 188.062 250.963 188.179 251.48 188.32C251.742 188.391 252.001 188.465 252.263 188.545L252.652 188.67L253.092 188.821L253.465 188.955L253.65 189.022L253.741 189.056L253.788 189.073H253.741L252.982 189.257C252.693 189.321 252.448 189.378 252.179 189.432C251.655 189.539 251.134 189.633 250.624 189.717C249.616 189.892 248.609 190.006 247.658 190.097C245.978 190.259 244.287 190.272 242.604 190.134C241.472 190.035 240.354 189.809 239.272 189.462C238.893 189.328 238.601 189.19 238.416 189.126L238.13 188.975Z" fill="black" stroke="black" stroke-width="0.02" stroke-miterlimit="10"/>
<path d="M249.197 167.011C248.6 169.184 246.769 171.014 246.336 171.431C244.489 173.211 243.364 173.039 242.329 174.732C242.239 174.873 240.959 177.036 241.507 179.491C241.913 181.304 243.226 182.869 242.937 183.094C242.867 183.152 242.743 183.094 242.685 183.074C239.465 181.65 238.413 179.158 238.413 179.158C237.988 178.076 237.806 176.912 237.882 175.751C237.957 174.59 238.288 173.46 238.85 172.441C240.586 169.318 243.619 169.321 243.965 166.709C244.062 165.976 243.854 165.204 243.434 163.659C242.85 161.496 242.047 161.076 241.973 159.669C241.903 158.38 242.407 156.526 243.357 156.27C245.365 155.726 250.564 162.04 249.197 167.011Z" fill="#CCCAAF"/>
<path d="M249.422 176.865L250.749 175.246C250.749 175.246 252.428 171.054 248.653 173.624C244.878 176.193 244.898 179.514 244.898 179.514C244.898 179.514 245.08 181.553 245.61 182.084C246.141 182.614 246.638 180.7 246.954 180.384C247.27 180.069 248.331 177.184 249.422 176.865Z" fill="#CCCAAF"/>
<path d="M172.072 235.836C172.072 235.836 145.54 240.202 141.325 239.487L140.099 239.55C140.099 239.55 132.59 236.373 139.609 233.965C143.562 233.428 146.967 233.079 149.657 232.84C153.808 232.477 157.046 232.333 163.481 232.051C165.56 231.96 163.561 232.051 167.306 231.957C169.791 231.886 170.584 231.843 171.763 232.058C172.512 232.192 175.165 232.676 175.255 233.646C175.323 234.372 173.952 235.235 172.072 235.836Z" fill="#F25814" stroke="black" stroke-width="1.25" stroke-miterlimit="10"/>
<path d="M137.394 232.407C137.394 232.407 132.376 228.31 125.438 232.511C118.499 236.712 117.979 237.743 117.972 238.22C117.965 238.697 117.059 239.513 119.258 239.564C121.458 239.614 124.202 241.041 125.112 241.619C126.022 242.197 133.052 249.092 140.225 240.047C140.215 240.034 142.385 236.531 137.394 232.407Z" fill="#A38472" stroke="#090110" stroke-width="1.88" stroke-miterlimit="10"/>
<path d="M138.823 238.419C138.521 240.131 136.825 241.105 136.224 241.471C133.537 243.05 130.414 242.298 129.95 242.18C127.761 241.619 127.482 240.679 124.274 239.275C123.045 238.734 121.774 238.295 120.473 237.962C121.557 236.773 125.628 232.588 131.22 232.561C132.298 232.561 134.803 232.561 136.768 234.21C137.792 235.077 138.843 236.561 138.87 237.932C138.872 238.095 138.856 238.258 138.823 238.419Z" fill="#C4AEA3"/>
<path d="M136.053 238.244C135.852 239.396 134.71 240.057 134.31 240.296C132.497 241.354 130.411 240.85 130.099 240.769C128.628 240.393 128.443 239.762 126.29 238.818C125.463 238.457 124.608 238.163 123.734 237.938C124.463 237.142 127.197 234.328 130.952 234.311C131.674 234.311 133.356 234.311 134.676 235.419C135.348 236 136.07 236.988 136.087 237.918C136.089 238.028 136.078 238.137 136.053 238.244Z" fill="#EAD7CE"/>
<path d="M174.806 234.106C169.384 234.778 163.881 235.423 158.3 236.041C152.456 236.679 146.688 237.261 140.997 237.787C140.986 237.525 140.956 237.265 140.906 237.008C140.843 236.682 140.746 236.363 140.617 236.058L174.776 233.351C174.853 233.366 174.922 233.409 174.971 233.47C175.02 233.531 175.046 233.608 175.045 233.686C175.051 233.796 175.015 233.905 174.944 233.989C174.907 234.037 174.86 234.077 174.806 234.106Z" fill="#C13600"/>
<path d="M73.203 259V250.6H75.147V257.416H79.359V259H73.203ZM84.3201 259V257.74L84.2001 257.464V255.208C84.2001 254.808 84.0761 254.496 83.8281 254.272C83.5881 254.048 83.2161 253.936 82.7121 253.936C82.3681 253.936 82.0281 253.992 81.6921 254.104C81.3641 254.208 81.0841 254.352 80.8521 254.536L80.1801 253.228C80.5321 252.98 80.9561 252.788 81.4521 252.652C81.9481 252.516 82.4521 252.448 82.9641 252.448C83.9481 252.448 84.7121 252.68 85.2561 253.144C85.8001 253.608 86.0721 254.332 86.0721 255.316V259H84.3201ZM82.3521 259.096C81.8481 259.096 81.4161 259.012 81.0561 258.844C80.6961 258.668 80.4201 258.432 80.2281 258.136C80.0361 257.84 79.9401 257.508 79.9401 257.14C79.9401 256.756 80.0321 256.42 80.2161 256.132C80.4081 255.844 80.7081 255.62 81.1161 255.46C81.5241 255.292 82.0561 255.208 82.7121 255.208H84.4281V256.3H82.9161C82.4761 256.3 82.1721 256.372 82.0041 256.516C81.8441 256.66 81.7641 256.84 81.7641 257.056C81.7641 257.296 81.8561 257.488 82.0401 257.632C82.2321 257.768 82.4921 257.836 82.8201 257.836C83.1321 257.836 83.4121 257.764 83.6601 257.62C83.9081 257.468 84.0881 257.248 84.2001 256.96L84.4881 257.824C84.3521 258.24 84.1041 258.556 83.7441 258.772C83.3841 258.988 82.9201 259.096 82.3521 259.096ZM94.9808 259.096C94.4368 259.096 93.9608 258.976 93.5528 258.736C93.1448 258.496 92.8248 258.132 92.5928 257.644C92.3688 257.148 92.2568 256.524 92.2568 255.772C92.2568 255.012 92.3648 254.388 92.5808 253.9C92.7968 253.412 93.1088 253.048 93.5168 252.808C93.9248 252.568 94.4128 252.448 94.9808 252.448C95.5888 252.448 96.1328 252.588 96.6128 252.868C97.1008 253.14 97.4848 253.524 97.7648 254.02C98.0528 254.516 98.1968 255.1 98.1968 255.772C98.1968 256.452 98.0528 257.04 97.7648 257.536C97.4848 258.032 97.1008 258.416 96.6128 258.688C96.1328 258.96 95.5888 259.096 94.9808 259.096ZM91.1648 261.328V252.544H92.9528V253.864L92.9168 255.784L93.0368 257.692V261.328H91.1648ZM94.6568 257.56C94.9688 257.56 95.2448 257.488 95.4848 257.344C95.7328 257.2 95.9288 256.996 96.0728 256.732C96.2248 256.46 96.3008 256.14 96.3008 255.772C96.3008 255.396 96.2248 255.076 96.0728 254.812C95.9288 254.548 95.7328 254.344 95.4848 254.2C95.2448 254.056 94.9688 253.984 94.6568 253.984C94.3448 253.984 94.0648 254.056 93.8168 254.2C93.5688 254.344 93.3728 254.548 93.2288 254.812C93.0848 255.076 93.0128 255.396 93.0128 255.772C93.0128 256.14 93.0848 256.46 93.2288 256.732C93.3728 256.996 93.5688 257.2 93.8168 257.344C94.0648 257.488 94.3448 257.56 94.6568 257.56ZM99.4499 259V252.544H101.238V254.368L100.986 253.84C101.178 253.384 101.486 253.04 101.91 252.808C102.334 252.568 102.85 252.448 103.458 252.448V254.176C103.378 254.168 103.306 254.164 103.242 254.164C103.178 254.156 103.11 254.152 103.038 254.152C102.526 254.152 102.11 254.3 101.79 254.596C101.478 254.884 101.322 255.336 101.322 255.952V259H99.4499ZM107.596 259.096C106.908 259.096 106.296 258.952 105.76 258.664C105.232 258.376 104.812 257.984 104.5 257.488C104.196 256.984 104.044 256.412 104.044 255.772C104.044 255.124 104.196 254.552 104.5 254.056C104.812 253.552 105.232 253.16 105.76 252.88C106.296 252.592 106.908 252.448 107.596 252.448C108.276 252.448 108.884 252.592 109.42 252.88C109.956 253.16 110.376 253.548 110.68 254.044C110.984 254.54 111.136 255.116 111.136 255.772C111.136 256.412 110.984 256.984 110.68 257.488C110.376 257.984 109.956 258.376 109.42 258.664C108.884 258.952 108.276 259.096 107.596 259.096ZM107.596 257.56C107.908 257.56 108.188 257.488 108.436 257.344C108.684 257.2 108.88 256.996 109.024 256.732C109.168 256.46 109.24 256.14 109.24 255.772C109.24 255.396 109.168 255.076 109.024 254.812C108.88 254.548 108.684 254.344 108.436 254.2C108.188 254.056 107.908 253.984 107.596 253.984C107.284 253.984 107.004 254.056 106.756 254.2C106.508 254.344 106.308 254.548 106.156 254.812C106.012 255.076 105.94 255.396 105.94 255.772C105.94 256.14 106.012 256.46 106.156 256.732C106.308 256.996 106.508 257.2 106.756 257.344C107.004 257.488 107.284 257.56 107.596 257.56ZM115.027 259.096C114.267 259.096 113.675 258.904 113.251 258.52C112.827 258.128 112.615 257.548 112.615 256.78V251.116H114.487V256.756C114.487 257.028 114.559 257.24 114.703 257.392C114.847 257.536 115.043 257.608 115.291 257.608C115.587 257.608 115.839 257.528 116.047 257.368L116.551 258.688C116.359 258.824 116.127 258.928 115.855 259C115.591 259.064 115.315 259.096 115.027 259.096ZM111.619 253.984V252.544H116.095V253.984H111.619ZM120.607 259.096C119.871 259.096 119.223 258.952 118.663 258.664C118.111 258.376 117.683 257.984 117.379 257.488C117.075 256.984 116.923 256.412 116.923 255.772C116.923 255.124 117.071 254.552 117.367 254.056C117.671 253.552 118.083 253.16 118.603 252.88C119.123 252.592 119.711 252.448 120.367 252.448C120.999 252.448 121.567 252.584 122.071 252.856C122.583 253.12 122.987 253.504 123.283 254.008C123.579 254.504 123.727 255.1 123.727 255.796C123.727 255.868 123.723 255.952 123.715 256.048C123.707 256.136 123.699 256.22 123.691 256.3H118.447V255.208H122.707L121.987 255.532C121.987 255.196 121.919 254.904 121.783 254.656C121.647 254.408 121.459 254.216 121.219 254.08C120.979 253.936 120.699 253.864 120.379 253.864C120.059 253.864 119.775 253.936 119.527 254.08C119.287 254.216 119.099 254.412 118.963 254.668C118.827 254.916 118.759 255.212 118.759 255.556V255.844C118.759 256.196 118.835 256.508 118.987 256.78C119.147 257.044 119.367 257.248 119.647 257.392C119.935 257.528 120.271 257.596 120.655 257.596C120.999 257.596 121.299 257.544 121.555 257.44C121.819 257.336 122.059 257.18 122.275 256.972L123.271 258.052C122.975 258.388 122.603 258.648 122.155 258.832C121.707 259.008 121.191 259.096 120.607 259.096ZM128.093 259.096C127.397 259.096 126.777 258.956 126.233 258.676C125.689 258.388 125.261 257.992 124.949 257.488C124.645 256.984 124.493 256.412 124.493 255.772C124.493 255.124 124.645 254.552 124.949 254.056C125.261 253.552 125.689 253.16 126.233 252.88C126.777 252.592 127.397 252.448 128.093 252.448C128.773 252.448 129.365 252.592 129.869 252.88C130.373 253.16 130.745 253.564 130.985 254.092L129.533 254.872C129.365 254.568 129.153 254.344 128.897 254.2C128.649 254.056 128.377 253.984 128.081 253.984C127.761 253.984 127.473 254.056 127.217 254.2C126.961 254.344 126.757 254.548 126.605 254.812C126.461 255.076 126.389 255.396 126.389 255.772C126.389 256.148 126.461 256.468 126.605 256.732C126.757 256.996 126.961 257.2 127.217 257.344C127.473 257.488 127.761 257.56 128.081 257.56C128.377 257.56 128.649 257.492 128.897 257.356C129.153 257.212 129.365 256.984 129.533 256.672L130.985 257.464C130.745 257.984 130.373 258.388 129.869 258.676C129.365 258.956 128.773 259.096 128.093 259.096ZM135.101 259.096C134.405 259.096 133.785 258.956 133.241 258.676C132.697 258.388 132.269 257.992 131.957 257.488C131.653 256.984 131.501 256.412 131.501 255.772C131.501 255.124 131.653 254.552 131.957 254.056C132.269 253.552 132.697 253.16 133.241 252.88C133.785 252.592 134.405 252.448 135.101 252.448C135.781 252.448 136.373 252.592 136.877 252.88C137.381 253.16 137.753 253.564 137.993 254.092L136.541 254.872C136.373 254.568 136.161 254.344 135.905 254.2C135.657 254.056 135.385 253.984 135.089 253.984C134.769 253.984 134.481 254.056 134.225 254.2C133.969 254.344 133.765 254.548 133.613 254.812C133.469 255.076 133.397 255.396 133.397 255.772C133.397 256.148 133.469 256.468 133.613 256.732C133.765 256.996 133.969 257.2 134.225 257.344C134.481 257.488 134.769 257.56 135.089 257.56C135.385 257.56 135.657 257.492 135.905 257.356C136.161 257.212 136.373 256.984 136.541 256.672L137.993 257.464C137.753 257.984 137.381 258.388 136.877 258.676C136.373 258.956 135.781 259.096 135.101 259.096ZM139.036 259V252.544H140.908V259H139.036ZM139.972 251.644C139.628 251.644 139.348 251.544 139.132 251.344C138.916 251.144 138.808 250.896 138.808 250.6C138.808 250.304 138.916 250.056 139.132 249.856C139.348 249.656 139.628 249.556 139.972 249.556C140.316 249.556 140.596 249.652 140.812 249.844C141.028 250.028 141.136 250.268 141.136 250.564C141.136 250.876 141.028 251.136 140.812 251.344C140.604 251.544 140.324 251.644 139.972 251.644ZM145.717 259.096C145.029 259.096 144.417 258.952 143.881 258.664C143.353 258.376 142.933 257.984 142.621 257.488C142.317 256.984 142.165 256.412 142.165 255.772C142.165 255.124 142.317 254.552 142.621 254.056C142.933 253.552 143.353 253.16 143.881 252.88C144.417 252.592 145.029 252.448 145.717 252.448C146.397 252.448 147.005 252.592 147.541 252.88C148.077 253.16 148.497 253.548 148.801 254.044C149.105 254.54 149.257 255.116 149.257 255.772C149.257 256.412 149.105 256.984 148.801 257.488C148.497 257.984 148.077 258.376 147.541 258.664C147.005 258.952 146.397 259.096 145.717 259.096ZM145.717 257.56C146.029 257.56 146.309 257.488 146.557 257.344C146.805 257.2 147.001 256.996 147.145 256.732C147.289 256.46 147.361 256.14 147.361 255.772C147.361 255.396 147.289 255.076 147.145 254.812C147.001 254.548 146.805 254.344 146.557 254.2C146.309 254.056 146.029 253.984 145.717 253.984C145.405 253.984 145.125 254.056 144.877 254.2C144.629 254.344 144.429 254.548 144.277 254.812C144.133 255.076 144.061 255.396 144.061 255.772C144.061 256.14 144.133 256.46 144.277 256.732C144.429 256.996 144.629 257.2 144.877 257.344C145.125 257.488 145.405 257.56 145.717 257.56ZM144.601 251.716L146.221 249.988H148.237L146.065 251.716H144.601ZM150.509 259V252.544H152.297V254.332L151.961 253.792C152.193 253.36 152.525 253.028 152.957 252.796C153.389 252.564 153.881 252.448 154.433 252.448C154.945 252.448 155.401 252.552 155.801 252.76C156.209 252.96 156.529 253.272 156.761 253.696C156.993 254.112 157.109 254.648 157.109 255.304V259H155.237V255.592C155.237 255.072 155.121 254.688 154.889 254.44C154.665 254.192 154.345 254.068 153.929 254.068C153.633 254.068 153.365 254.132 153.125 254.26C152.893 254.38 152.709 254.568 152.573 254.824C152.445 255.08 152.381 255.408 152.381 255.808V259H150.509ZM164.976 259.096C164.368 259.096 163.82 258.96 163.332 258.688C162.844 258.408 162.456 258.02 162.168 257.524C161.888 257.028 161.748 256.444 161.748 255.772C161.748 255.092 161.888 254.504 162.168 254.008C162.456 253.512 162.844 253.128 163.332 252.856C163.82 252.584 164.368 252.448 164.976 252.448C165.52 252.448 165.996 252.568 166.404 252.808C166.812 253.048 167.128 253.412 167.352 253.9C167.576 254.388 167.688 255.012 167.688 255.772C167.688 256.524 167.58 257.148 167.364 257.644C167.148 258.132 166.836 258.496 166.428 258.736C166.028 258.976 165.544 259.096 164.976 259.096ZM165.3 257.56C165.604 257.56 165.88 257.488 166.128 257.344C166.376 257.2 166.572 256.996 166.716 256.732C166.868 256.46 166.944 256.14 166.944 255.772C166.944 255.396 166.868 255.076 166.716 254.812C166.572 254.548 166.376 254.344 166.128 254.2C165.88 254.056 165.604 253.984 165.3 253.984C164.988 253.984 164.708 254.056 164.46 254.2C164.212 254.344 164.012 254.548 163.86 254.812C163.716 255.076 163.644 255.396 163.644 255.772C163.644 256.14 163.716 256.46 163.86 256.732C164.012 256.996 164.212 257.2 164.46 257.344C164.708 257.488 164.988 257.56 165.3 257.56ZM166.992 259V257.68L167.028 255.76L166.908 253.852V250.096H168.78V259H166.992ZM173.716 259.096C172.98 259.096 172.332 258.952 171.772 258.664C171.22 258.376 170.792 257.984 170.488 257.488C170.184 256.984 170.032 256.412 170.032 255.772C170.032 255.124 170.18 254.552 170.476 254.056C170.78 253.552 171.192 253.16 171.712 252.88C172.232 252.592 172.82 252.448 173.476 252.448C174.108 252.448 174.676 252.584 175.18 252.856C175.692 253.12 176.096 253.504 176.392 254.008C176.688 254.504 176.836 255.1 176.836 255.796C176.836 255.868 176.832 255.952 176.824 256.048C176.816 256.136 176.808 256.22 176.8 256.3H171.556V255.208H175.816L175.096 255.532C175.096 255.196 175.028 254.904 174.892 254.656C174.756 254.408 174.568 254.216 174.328 254.08C174.088 253.936 173.808 253.864 173.488 253.864C173.168 253.864 172.884 253.936 172.636 254.08C172.396 254.216 172.208 254.412 172.072 254.668C171.936 254.916 171.868 255.212 171.868 255.556V255.844C171.868 256.196 171.944 256.508 172.096 256.78C172.256 257.044 172.476 257.248 172.756 257.392C173.044 257.528 173.38 257.596 173.764 257.596C174.108 257.596 174.408 257.544 174.664 257.44C174.928 257.336 175.168 257.18 175.384 256.972L176.38 258.052C176.084 258.388 175.712 258.648 175.264 258.832C174.816 259.008 174.3 259.096 173.716 259.096ZM181.481 259V252.544H183.269V254.332L182.933 253.792C183.165 253.36 183.497 253.028 183.929 252.796C184.361 252.564 184.853 252.448 185.405 252.448C185.917 252.448 186.373 252.552 186.773 252.76C187.181 252.96 187.501 253.272 187.733 253.696C187.965 254.112 188.081 254.648 188.081 255.304V259H186.209V255.592C186.209 255.072 186.093 254.688 185.861 254.44C185.637 254.192 185.317 254.068 184.901 254.068C184.605 254.068 184.337 254.132 184.097 254.26C183.865 254.38 183.681 254.568 183.545 254.824C183.417 255.08 183.353 255.408 183.353 255.808V259H181.481ZM192.502 259.096C191.966 259.096 191.486 258.992 191.062 258.784C190.646 258.576 190.322 258.26 190.09 257.836C189.858 257.404 189.742 256.856 189.742 256.192V252.544H191.614V255.916C191.614 256.452 191.726 256.848 191.95 257.104C192.182 257.352 192.506 257.476 192.922 257.476C193.21 257.476 193.466 257.416 193.69 257.296C193.914 257.168 194.09 256.976 194.218 256.72C194.346 256.456 194.41 256.128 194.41 255.736V252.544H196.282V259H194.506V257.224L194.83 257.74C194.614 258.188 194.294 258.528 193.87 258.76C193.454 258.984 192.998 259.096 192.502 259.096ZM201.22 259.096C200.484 259.096 199.836 258.952 199.276 258.664C198.724 258.376 198.296 257.984 197.992 257.488C197.688 256.984 197.536 256.412 197.536 255.772C197.536 255.124 197.684 254.552 197.98 254.056C198.284 253.552 198.696 253.16 199.216 252.88C199.736 252.592 200.324 252.448 200.98 252.448C201.612 252.448 202.18 252.584 202.684 252.856C203.196 253.12 203.6 253.504 203.896 254.008C204.192 254.504 204.34 255.1 204.34 255.796C204.34 255.868 204.336 255.952 204.328 256.048C204.32 256.136 204.312 256.22 204.304 256.3H199.06V255.208H203.32L202.6 255.532C202.6 255.196 202.532 254.904 202.396 254.656C202.26 254.408 202.072 254.216 201.832 254.08C201.592 253.936 201.312 253.864 200.992 253.864C200.672 253.864 200.388 253.936 200.14 254.08C199.9 254.216 199.712 254.412 199.576 254.668C199.44 254.916 199.372 255.212 199.372 255.556V255.844C199.372 256.196 199.448 256.508 199.6 256.78C199.76 257.044 199.98 257.248 200.26 257.392C200.548 257.528 200.884 257.596 201.268 257.596C201.612 257.596 201.912 257.544 202.168 257.44C202.432 257.336 202.672 257.18 202.888 256.972L203.884 258.052C203.588 258.388 203.216 258.648 202.768 258.832C202.32 259.008 201.804 259.096 201.22 259.096ZM207.759 259.096C207.207 259.096 206.675 259.032 206.163 258.904C205.659 258.768 205.259 258.6 204.963 258.4L205.587 257.056C205.883 257.24 206.231 257.392 206.631 257.512C207.039 257.624 207.439 257.68 207.831 257.68C208.263 257.68 208.567 257.628 208.743 257.524C208.927 257.42 209.019 257.276 209.019 257.092C209.019 256.94 208.947 256.828 208.803 256.756C208.667 256.676 208.483 256.616 208.251 256.576C208.019 256.536 207.763 256.496 207.483 256.456C207.211 256.416 206.935 256.364 206.655 256.3C206.375 256.228 206.119 256.124 205.887 255.988C205.655 255.852 205.467 255.668 205.323 255.436C205.187 255.204 205.119 254.904 205.119 254.536C205.119 254.128 205.235 253.768 205.467 253.456C205.707 253.144 206.051 252.9 206.499 252.724C206.947 252.54 207.483 252.448 208.107 252.448C208.547 252.448 208.995 252.496 209.451 252.592C209.907 252.688 210.287 252.828 210.591 253.012L209.967 254.344C209.655 254.16 209.339 254.036 209.019 253.972C208.707 253.9 208.403 253.864 208.107 253.864C207.691 253.864 207.387 253.92 207.195 254.032C207.003 254.144 206.907 254.288 206.907 254.464C206.907 254.624 206.975 254.744 207.111 254.824C207.255 254.904 207.443 254.968 207.675 255.016C207.907 255.064 208.159 255.108 208.431 255.148C208.711 255.18 208.991 255.232 209.271 255.304C209.551 255.376 209.803 255.48 210.027 255.616C210.259 255.744 210.447 255.924 210.591 256.156C210.735 256.38 210.807 256.676 210.807 257.044C210.807 257.444 210.687 257.8 210.447 258.112C210.207 258.416 209.859 258.656 209.403 258.832C208.955 259.008 208.407 259.096 207.759 259.096ZM214.602 259.096C213.842 259.096 213.25 258.904 212.826 258.52C212.402 258.128 212.19 257.548 212.19 256.78V251.116H214.062V256.756C214.062 257.028 214.134 257.24 214.278 257.392C214.422 257.536 214.618 257.608 214.866 257.608C215.162 257.608 215.414 257.528 215.622 257.368L216.126 258.688C215.934 258.824 215.702 258.928 215.43 259C215.166 259.064 214.89 259.096 214.602 259.096ZM211.194 253.984V252.544H215.67V253.984H211.194ZM217.177 259V252.544H218.965V254.368L218.713 253.84C218.905 253.384 219.213 253.04 219.637 252.808C220.061 252.568 220.577 252.448 221.185 252.448V254.176C221.105 254.168 221.033 254.164 220.969 254.164C220.905 254.156 220.837 254.152 220.765 254.152C220.253 254.152 219.837 254.3 219.517 254.596C219.205 254.884 219.049 255.336 219.049 255.952V259H217.177ZM225.836 259V257.74L225.716 257.464V255.208C225.716 254.808 225.592 254.496 225.344 254.272C225.104 254.048 224.732 253.936 224.228 253.936C223.884 253.936 223.544 253.992 223.208 254.104C222.88 254.208 222.6 254.352 222.368 254.536L221.696 253.228C222.048 252.98 222.472 252.788 222.968 252.652C223.464 252.516 223.968 252.448 224.48 252.448C225.464 252.448 226.228 252.68 226.772 253.144C227.316 253.608 227.588 254.332 227.588 255.316V259H225.836ZM223.868 259.096C223.364 259.096 222.932 259.012 222.572 258.844C222.212 258.668 221.936 258.432 221.744 258.136C221.552 257.84 221.456 257.508 221.456 257.14C221.456 256.756 221.548 256.42 221.732 256.132C221.924 255.844 222.224 255.62 222.632 255.46C223.04 255.292 223.572 255.208 224.228 255.208H225.944V256.3H224.432C223.992 256.3 223.688 256.372 223.52 256.516C223.36 256.66 223.28 256.84 223.28 257.056C223.28 257.296 223.372 257.488 223.556 257.632C223.748 257.768 224.008 257.836 224.336 257.836C224.648 257.836 224.928 257.764 225.176 257.62C225.424 257.468 225.604 257.248 225.716 256.96L226.004 257.824C225.868 258.24 225.62 258.556 225.26 258.772C224.9 258.988 224.436 259.096 223.868 259.096ZM231.454 259.096C230.902 259.096 230.37 259.032 229.858 258.904C229.354 258.768 228.954 258.6 228.658 258.4L229.282 257.056C229.578 257.24 229.926 257.392 230.326 257.512C230.734 257.624 231.134 257.68 231.526 257.68C231.958 257.68 232.262 257.628 232.438 257.524C232.622 257.42 232.714 257.276 232.714 257.092C232.714 256.94 232.642 256.828 232.498 256.756C232.362 256.676 232.178 256.616 231.946 256.576C231.714 256.536 231.458 256.496 231.178 256.456C230.906 256.416 230.63 256.364 230.35 256.3C230.07 256.228 229.814 256.124 229.582 255.988C229.35 255.852 229.162 255.668 229.018 255.436C228.882 255.204 228.814 254.904 228.814 254.536C228.814 254.128 228.93 253.768 229.162 253.456C229.402 253.144 229.746 252.9 230.194 252.724C230.642 252.54 231.178 252.448 231.802 252.448C232.242 252.448 232.69 252.496 233.146 252.592C233.602 252.688 233.982 252.828 234.286 253.012L233.662 254.344C233.35 254.16 233.034 254.036 232.714 253.972C232.402 253.9 232.098 253.864 231.802 253.864C231.386 253.864 231.082 253.92 230.89 254.032C230.698 254.144 230.602 254.288 230.602 254.464C230.602 254.624 230.67 254.744 230.806 254.824C230.95 254.904 231.138 254.968 231.37 255.016C231.602 255.064 231.854 255.108 232.126 255.148C232.406 255.18 232.686 255.232 232.966 255.304C233.246 255.376 233.498 255.48 233.722 255.616C233.954 255.744 234.142 255.924 234.286 256.156C234.43 256.38 234.502 256.676 234.502 257.044C234.502 257.444 234.382 257.8 234.142 258.112C233.902 258.416 233.554 258.656 233.098 258.832C232.65 259.008 232.102 259.096 231.454 259.096ZM78.7164 274.096C78.0204 274.096 77.4004 273.956 76.8564 273.676C76.3124 273.388 75.8844 272.992 75.5724 272.488C75.2684 271.984 75.1164 271.412 75.1164 270.772C75.1164 270.124 75.2684 269.552 75.5724 269.056C75.8844 268.552 76.3124 268.16 76.8564 267.88C77.4004 267.592 78.0204 267.448 78.7164 267.448C79.3964 267.448 79.9884 267.592 80.4924 267.88C80.9964 268.16 81.3684 268.564 81.6084 269.092L80.1564 269.872C79.9884 269.568 79.7764 269.344 79.5204 269.2C79.2724 269.056 79.0004 268.984 78.7044 268.984C78.3844 268.984 78.0964 269.056 77.8404 269.2C77.5844 269.344 77.3804 269.548 77.2284 269.812C77.0844 270.076 77.0124 270.396 77.0124 270.772C77.0124 271.148 77.0844 271.468 77.2284 271.732C77.3804 271.996 77.5844 272.2 77.8404 272.344C78.0964 272.488 78.3844 272.56 78.7044 272.56C79.0004 272.56 79.2724 272.492 79.5204 272.356C79.7764 272.212 79.9884 271.984 80.1564 271.672L81.6084 272.464C81.3684 272.984 80.9964 273.388 80.4924 273.676C79.9884 273.956 79.3964 274.096 78.7164 274.096ZM82.6863 274V267.544H84.4743V269.368L84.2223 268.84C84.4143 268.384 84.7223 268.04 85.1463 267.808C85.5703 267.568 86.0863 267.448 86.6943 267.448V269.176C86.6143 269.168 86.5423 269.164 86.4783 269.164C86.4143 269.156 86.3463 269.152 86.2743 269.152C85.7623 269.152 85.3463 269.3 85.0263 269.596C84.7143 269.884 84.5583 270.336 84.5583 270.952V274H82.6863ZM90.9645 274.096C90.2285 274.096 89.5805 273.952 89.0205 273.664C88.4685 273.376 88.0405 272.984 87.7365 272.488C87.4325 271.984 87.2805 271.412 87.2805 270.772C87.2805 270.124 87.4285 269.552 87.7245 269.056C88.0285 268.552 88.4405 268.16 88.9605 267.88C89.4805 267.592 90.0685 267.448 90.7245 267.448C91.3565 267.448 91.9245 267.584 92.4285 267.856C92.9405 268.12 93.3445 268.504 93.6405 269.008C93.9365 269.504 94.0845 270.1 94.0845 270.796C94.0845 270.868 94.0805 270.952 94.0725 271.048C94.0645 271.136 94.0565 271.22 94.0485 271.3H88.8045V270.208H93.0645L92.3445 270.532C92.3445 270.196 92.2765 269.904 92.1405 269.656C92.0045 269.408 91.8165 269.216 91.5765 269.08C91.3365 268.936 91.0565 268.864 90.7365 268.864C90.4165 268.864 90.1325 268.936 89.8845 269.08C89.6445 269.216 89.4565 269.412 89.3205 269.668C89.1845 269.916 89.1165 270.212 89.1165 270.556V270.844C89.1165 271.196 89.1925 271.508 89.3445 271.78C89.5045 272.044 89.7245 272.248 90.0045 272.392C90.2925 272.528 90.6285 272.596 91.0125 272.596C91.3565 272.596 91.6565 272.544 91.9125 272.44C92.1765 272.336 92.4165 272.18 92.6325 271.972L93.6285 273.052C93.3325 273.388 92.9605 273.648 92.5125 273.832C92.0645 274.008 91.5485 274.096 90.9645 274.096ZM99.115 274V272.74L98.995 272.464V270.208C98.995 269.808 98.871 269.496 98.623 269.272C98.383 269.048 98.011 268.936 97.507 268.936C97.163 268.936 96.823 268.992 96.487 269.104C96.159 269.208 95.879 269.352 95.647 269.536L94.975 268.228C95.327 267.98 95.751 267.788 96.247 267.652C96.743 267.516 97.247 267.448 97.759 267.448C98.743 267.448 99.507 267.68 100.051 268.144C100.595 268.608 100.867 269.332 100.867 270.316V274H99.115ZM97.147 274.096C96.643 274.096 96.211 274.012 95.851 273.844C95.491 273.668 95.215 273.432 95.023 273.136C94.831 272.84 94.735 272.508 94.735 272.14C94.735 271.756 94.827 271.42 95.011 271.132C95.203 270.844 95.503 270.62 95.911 270.46C96.319 270.292 96.851 270.208 97.507 270.208H99.223V271.3H97.711C97.271 271.3 96.967 271.372 96.799 271.516C96.639 271.66 96.559 271.84 96.559 272.056C96.559 272.296 96.651 272.488 96.835 272.632C97.027 272.768 97.287 272.836 97.615 272.836C97.927 272.836 98.207 272.764 98.455 272.62C98.703 272.468 98.883 272.248 98.995 271.96L99.283 272.824C99.147 273.24 98.899 273.556 98.539 273.772C98.179 273.988 97.715 274.096 97.147 274.096ZM105.728 274.096C105.032 274.096 104.412 273.956 103.868 273.676C103.324 273.388 102.896 272.992 102.584 272.488C102.28 271.984 102.128 271.412 102.128 270.772C102.128 270.124 102.28 269.552 102.584 269.056C102.896 268.552 103.324 268.16 103.868 267.88C104.412 267.592 105.032 267.448 105.728 267.448C106.408 267.448 107 267.592 107.504 267.88C108.008 268.16 108.38 268.564 108.62 269.092L107.168 269.872C107 269.568 106.788 269.344 106.532 269.2C106.284 269.056 106.012 268.984 105.716 268.984C105.396 268.984 105.108 269.056 104.852 269.2C104.596 269.344 104.392 269.548 104.24 269.812C104.096 270.076 104.024 270.396 104.024 270.772C104.024 271.148 104.096 271.468 104.24 271.732C104.392 271.996 104.596 272.2 104.852 272.344C105.108 272.488 105.396 272.56 105.716 272.56C106.012 272.56 106.284 272.492 106.532 272.356C106.788 272.212 107 271.984 107.168 271.672L108.62 272.464C108.38 272.984 108.008 273.388 107.504 273.676C107 273.956 106.408 274.096 105.728 274.096ZM109.663 274V267.544H111.535V274H109.663ZM110.599 266.644C110.255 266.644 109.975 266.544 109.759 266.344C109.543 266.144 109.435 265.896 109.435 265.6C109.435 265.304 109.543 265.056 109.759 264.856C109.975 264.656 110.255 264.556 110.599 264.556C110.943 264.556 111.223 264.652 111.439 264.844C111.655 265.028 111.763 265.268 111.763 265.564C111.763 265.876 111.655 266.136 111.439 266.344C111.231 266.544 110.951 266.644 110.599 266.644ZM116.344 274.096C115.656 274.096 115.044 273.952 114.508 273.664C113.98 273.376 113.56 272.984 113.248 272.488C112.944 271.984 112.792 271.412 112.792 270.772C112.792 270.124 112.944 269.552 113.248 269.056C113.56 268.552 113.98 268.16 114.508 267.88C115.044 267.592 115.656 267.448 116.344 267.448C117.024 267.448 117.632 267.592 118.168 267.88C118.704 268.16 119.124 268.548 119.428 269.044C119.732 269.54 119.884 270.116 119.884 270.772C119.884 271.412 119.732 271.984 119.428 272.488C119.124 272.984 118.704 273.376 118.168 273.664C117.632 273.952 117.024 274.096 116.344 274.096ZM116.344 272.56C116.656 272.56 116.936 272.488 117.184 272.344C117.432 272.2 117.628 271.996 117.772 271.732C117.916 271.46 117.988 271.14 117.988 270.772C117.988 270.396 117.916 270.076 117.772 269.812C117.628 269.548 117.432 269.344 117.184 269.2C116.936 269.056 116.656 268.984 116.344 268.984C116.032 268.984 115.752 269.056 115.504 269.2C115.256 269.344 115.056 269.548 114.904 269.812C114.76 270.076 114.688 270.396 114.688 270.772C114.688 271.14 114.76 271.46 114.904 271.732C115.056 271.996 115.256 272.2 115.504 272.344C115.752 272.488 116.032 272.56 116.344 272.56ZM121.135 274V267.544H122.923V269.332L122.587 268.792C122.819 268.36 123.151 268.028 123.583 267.796C124.015 267.564 124.507 267.448 125.059 267.448C125.571 267.448 126.027 267.552 126.427 267.76C126.835 267.96 127.155 268.272 127.387 268.696C127.619 269.112 127.735 269.648 127.735 270.304V274H125.863V270.592C125.863 270.072 125.747 269.688 125.515 269.44C125.291 269.192 124.971 269.068 124.555 269.068C124.259 269.068 123.991 269.132 123.751 269.26C123.519 269.38 123.335 269.568 123.199 269.824C123.071 270.08 123.007 270.408 123.007 270.808V274H121.135ZM132.683 274.096C131.947 274.096 131.299 273.952 130.739 273.664C130.187 273.376 129.759 272.984 129.455 272.488C129.151 271.984 128.999 271.412 128.999 270.772C128.999 270.124 129.147 269.552 129.443 269.056C129.747 268.552 130.159 268.16 130.679 267.88C131.199 267.592 131.787 267.448 132.443 267.448C133.075 267.448 133.643 267.584 134.147 267.856C134.659 268.12 135.063 268.504 135.359 269.008C135.655 269.504 135.803 270.1 135.803 270.796C135.803 270.868 135.799 270.952 135.791 271.048C135.783 271.136 135.775 271.22 135.767 271.3H130.523V270.208H134.783L134.063 270.532C134.063 270.196 133.995 269.904 133.859 269.656C133.723 269.408 133.535 269.216 133.295 269.08C133.055 268.936 132.775 268.864 132.455 268.864C132.135 268.864 131.851 268.936 131.603 269.08C131.363 269.216 131.175 269.412 131.039 269.668C130.903 269.916 130.835 270.212 130.835 270.556V270.844C130.835 271.196 130.911 271.508 131.063 271.78C131.223 272.044 131.443 272.248 131.723 272.392C132.011 272.528 132.347 272.596 132.731 272.596C133.075 272.596 133.375 272.544 133.631 272.44C133.895 272.336 134.135 272.18 134.351 271.972L135.347 273.052C135.051 273.388 134.679 273.648 134.231 273.832C133.783 274.008 133.267 274.096 132.683 274.096ZM139.222 274.096C138.67 274.096 138.138 274.032 137.626 273.904C137.122 273.768 136.722 273.6 136.426 273.4L137.05 272.056C137.346 272.24 137.694 272.392 138.094 272.512C138.502 272.624 138.902 272.68 139.294 272.68C139.726 272.68 140.03 272.628 140.206 272.524C140.39 272.42 140.482 272.276 140.482 272.092C140.482 271.94 140.41 271.828 140.266 271.756C140.13 271.676 139.946 271.616 139.714 271.576C139.482 271.536 139.226 271.496 138.946 271.456C138.674 271.416 138.398 271.364 138.118 271.3C137.838 271.228 137.582 271.124 137.35 270.988C137.118 270.852 136.93 270.668 136.786 270.436C136.65 270.204 136.582 269.904 136.582 269.536C136.582 269.128 136.698 268.768 136.93 268.456C137.17 268.144 137.514 267.9 137.962 267.724C138.41 267.54 138.946 267.448 139.57 267.448C140.01 267.448 140.458 267.496 140.914 267.592C141.37 267.688 141.75 267.828 142.054 268.012L141.43 269.344C141.118 269.16 140.802 269.036 140.482 268.972C140.17 268.9 139.866 268.864 139.57 268.864C139.154 268.864 138.85 268.92 138.658 269.032C138.466 269.144 138.37 269.288 138.37 269.464C138.37 269.624 138.438 269.744 138.574 269.824C138.718 269.904 138.906 269.968 139.138 270.016C139.37 270.064 139.622 270.108 139.894 270.148C140.174 270.18 140.454 270.232 140.734 270.304C141.014 270.376 141.266 270.48 141.49 270.616C141.722 270.744 141.91 270.924 142.054 271.156C142.198 271.38 142.27 271.676 142.27 272.044C142.27 272.444 142.15 272.8 141.91 273.112C141.67 273.416 141.322 273.656 140.866 273.832C140.418 274.008 139.87 274.096 139.222 274.096ZM149.943 274.096C149.247 274.096 148.627 273.956 148.083 273.676C147.539 273.388 147.111 272.992 146.799 272.488C146.495 271.984 146.343 271.412 146.343 270.772C146.343 270.124 146.495 269.552 146.799 269.056C147.111 268.552 147.539 268.16 148.083 267.88C148.627 267.592 149.247 267.448 149.943 267.448C150.623 267.448 151.215 267.592 151.719 267.88C152.223 268.16 152.595 268.564 152.835 269.092L151.383 269.872C151.215 269.568 151.003 269.344 150.747 269.2C150.499 269.056 150.227 268.984 149.931 268.984C149.611 268.984 149.323 269.056 149.067 269.2C148.811 269.344 148.607 269.548 148.455 269.812C148.311 270.076 148.239 270.396 148.239 270.772C148.239 271.148 148.311 271.468 148.455 271.732C148.607 271.996 148.811 272.2 149.067 272.344C149.323 272.488 149.611 272.56 149.931 272.56C150.227 272.56 150.499 272.492 150.747 272.356C151.003 272.212 151.215 271.984 151.383 271.672L152.835 272.464C152.595 272.984 152.223 273.388 151.719 273.676C151.215 273.956 150.623 274.096 149.943 274.096ZM156.903 274.096C156.215 274.096 155.603 273.952 155.067 273.664C154.539 273.376 154.119 272.984 153.807 272.488C153.503 271.984 153.351 271.412 153.351 270.772C153.351 270.124 153.503 269.552 153.807 269.056C154.119 268.552 154.539 268.16 155.067 267.88C155.603 267.592 156.215 267.448 156.903 267.448C157.583 267.448 158.191 267.592 158.727 267.88C159.263 268.16 159.683 268.548 159.987 269.044C160.291 269.54 160.443 270.116 160.443 270.772C160.443 271.412 160.291 271.984 159.987 272.488C159.683 272.984 159.263 273.376 158.727 273.664C158.191 273.952 157.583 274.096 156.903 274.096ZM156.903 272.56C157.215 272.56 157.495 272.488 157.743 272.344C157.991 272.2 158.187 271.996 158.331 271.732C158.475 271.46 158.547 271.14 158.547 270.772C158.547 270.396 158.475 270.076 158.331 269.812C158.187 269.548 157.991 269.344 157.743 269.2C157.495 269.056 157.215 268.984 156.903 268.984C156.591 268.984 156.311 269.056 156.063 269.2C155.815 269.344 155.615 269.548 155.463 269.812C155.319 270.076 155.247 270.396 155.247 270.772C155.247 271.14 155.319 271.46 155.463 271.732C155.615 271.996 155.815 272.2 156.063 272.344C156.311 272.488 156.591 272.56 156.903 272.56ZM161.694 274V267.544H163.482V269.308L163.146 268.792C163.37 268.352 163.686 268.02 164.094 267.796C164.51 267.564 164.982 267.448 165.51 267.448C166.102 267.448 166.618 267.6 167.058 267.904C167.506 268.2 167.802 268.656 167.946 269.272L167.286 269.092C167.502 268.588 167.846 268.188 168.318 267.892C168.798 267.596 169.346 267.448 169.962 267.448C170.474 267.448 170.926 267.552 171.318 267.76C171.718 267.96 172.03 268.272 172.254 268.696C172.486 269.112 172.602 269.648 172.602 270.304V274H170.73V270.592C170.73 270.072 170.622 269.688 170.406 269.44C170.19 269.192 169.886 269.068 169.494 269.068C169.222 269.068 168.978 269.132 168.762 269.26C168.546 269.38 168.378 269.564 168.258 269.812C168.138 270.06 168.078 270.376 168.078 270.76V274H166.206V270.592C166.206 270.072 166.098 269.688 165.882 269.44C165.674 269.192 165.374 269.068 164.982 269.068C164.71 269.068 164.466 269.132 164.25 269.26C164.034 269.38 163.866 269.564 163.746 269.812C163.626 270.06 163.566 270.376 163.566 270.76V274H161.694ZM177.399 274.096C176.711 274.096 176.099 273.952 175.563 273.664C175.035 273.376 174.615 272.984 174.303 272.488C173.999 271.984 173.847 271.412 173.847 270.772C173.847 270.124 173.999 269.552 174.303 269.056C174.615 268.552 175.035 268.16 175.563 267.88C176.099 267.592 176.711 267.448 177.399 267.448C178.079 267.448 178.687 267.592 179.223 267.88C179.759 268.16 180.179 268.548 180.483 269.044C180.787 269.54 180.939 270.116 180.939 270.772C180.939 271.412 180.787 271.984 180.483 272.488C180.179 272.984 179.759 273.376 179.223 273.664C178.687 273.952 178.079 274.096 177.399 274.096ZM177.399 272.56C177.711 272.56 177.991 272.488 178.239 272.344C178.487 272.2 178.683 271.996 178.827 271.732C178.971 271.46 179.043 271.14 179.043 270.772C179.043 270.396 178.971 270.076 178.827 269.812C178.683 269.548 178.487 269.344 178.239 269.2C177.991 269.056 177.711 268.984 177.399 268.984C177.087 268.984 176.807 269.056 176.559 269.2C176.311 269.344 176.111 269.548 175.959 269.812C175.815 270.076 175.743 270.396 175.743 270.772C175.743 271.14 175.815 271.46 175.959 271.732C176.111 271.996 176.311 272.2 176.559 272.344C176.807 272.488 177.087 272.56 177.399 272.56ZM189.549 274V272.74L189.429 272.464V270.208C189.429 269.808 189.305 269.496 189.057 269.272C188.817 269.048 188.445 268.936 187.941 268.936C187.597 268.936 187.257 268.992 186.921 269.104C186.593 269.208 186.313 269.352 186.081 269.536L185.409 268.228C185.761 267.98 186.185 267.788 186.681 267.652C187.177 267.516 187.681 267.448 188.193 267.448C189.177 267.448 189.941 267.68 190.485 268.144C191.029 268.608 191.301 269.332 191.301 270.316V274H189.549ZM187.581 274.096C187.077 274.096 186.645 274.012 186.285 273.844C185.925 273.668 185.649 273.432 185.457 273.136C185.265 272.84 185.169 272.508 185.169 272.14C185.169 271.756 185.261 271.42 185.445 271.132C185.637 270.844 185.937 270.62 186.345 270.46C186.753 270.292 187.285 270.208 187.941 270.208H189.657V271.3H188.145C187.705 271.3 187.401 271.372 187.233 271.516C187.073 271.66 186.993 271.84 186.993 272.056C186.993 272.296 187.085 272.488 187.269 272.632C187.461 272.768 187.721 272.836 188.049 272.836C188.361 272.836 188.641 272.764 188.889 272.62C189.137 272.468 189.317 272.248 189.429 271.96L189.717 272.824C189.581 273.24 189.333 273.556 188.973 273.772C188.613 273.988 188.149 274.096 187.581 274.096ZM195.719 274.096C195.183 274.096 194.703 273.992 194.279 273.784C193.863 273.576 193.539 273.26 193.307 272.836C193.075 272.404 192.959 271.856 192.959 271.192V267.544H194.831V270.916C194.831 271.452 194.943 271.848 195.167 272.104C195.399 272.352 195.723 272.476 196.139 272.476C196.427 272.476 196.683 272.416 196.907 272.296C197.131 272.168 197.307 271.976 197.435 271.72C197.563 271.456 197.627 271.128 197.627 270.736V267.544H199.499V274H197.723V272.224L198.047 272.74C197.831 273.188 197.511 273.528 197.087 273.76C196.671 273.984 196.215 274.096 195.719 274.096ZM203.873 274.096C203.113 274.096 202.521 273.904 202.097 273.52C201.673 273.128 201.461 272.548 201.461 271.78V266.116H203.333V271.756C203.333 272.028 203.405 272.24 203.549 272.392C203.693 272.536 203.889 272.608 204.137 272.608C204.433 272.608 204.685 272.528 204.893 272.368L205.397 273.688C205.205 273.824 204.973 273.928 204.701 274C204.437 274.064 204.161 274.096 203.873 274.096ZM200.465 268.984V267.544H204.941V268.984H200.465ZM209.321 274.096C208.633 274.096 208.021 273.952 207.485 273.664C206.957 273.376 206.537 272.984 206.225 272.488C205.921 271.984 205.769 271.412 205.769 270.772C205.769 270.124 205.921 269.552 206.225 269.056C206.537 268.552 206.957 268.16 207.485 267.88C208.021 267.592 208.633 267.448 209.321 267.448C210.001 267.448 210.609 267.592 211.145 267.88C211.681 268.16 212.101 268.548 212.405 269.044C212.709 269.54 212.861 270.116 212.861 270.772C212.861 271.412 212.709 271.984 212.405 272.488C212.101 272.984 211.681 273.376 211.145 273.664C210.609 273.952 210.001 274.096 209.321 274.096ZM209.321 272.56C209.633 272.56 209.913 272.488 210.161 272.344C210.409 272.2 210.605 271.996 210.749 271.732C210.893 271.46 210.965 271.14 210.965 270.772C210.965 270.396 210.893 270.076 210.749 269.812C210.605 269.548 210.409 269.344 210.161 269.2C209.913 269.056 209.633 268.984 209.321 268.984C209.009 268.984 208.729 269.056 208.481 269.2C208.233 269.344 208.033 269.548 207.881 269.812C207.737 270.076 207.665 270.396 207.665 270.772C207.665 271.14 207.737 271.46 207.881 271.732C208.033 271.996 208.233 272.2 208.481 272.344C208.729 272.488 209.009 272.56 209.321 272.56ZM214.112 274V267.544H215.9V269.368L215.648 268.84C215.84 268.384 216.148 268.04 216.572 267.808C216.996 267.568 217.512 267.448 218.12 267.448V269.176C218.04 269.168 217.968 269.164 217.904 269.164C217.84 269.156 217.772 269.152 217.7 269.152C217.188 269.152 216.772 269.3 216.452 269.596C216.14 269.884 215.984 270.336 215.984 270.952V274H214.112ZM222.39 274.096C221.654 274.096 221.006 273.952 220.446 273.664C219.894 273.376 219.466 272.984 219.162 272.488C218.858 271.984 218.706 271.412 218.706 270.772C218.706 270.124 218.854 269.552 219.15 269.056C219.454 268.552 219.866 268.16 220.386 267.88C220.906 267.592 221.494 267.448 222.15 267.448C222.782 267.448 223.35 267.584 223.854 267.856C224.366 268.12 224.77 268.504 225.066 269.008C225.362 269.504 225.51 270.1 225.51 270.796C225.51 270.868 225.506 270.952 225.498 271.048C225.49 271.136 225.482 271.22 225.474 271.3H220.23V270.208H224.49L223.77 270.532C223.77 270.196 223.702 269.904 223.566 269.656C223.43 269.408 223.242 269.216 223.002 269.08C222.762 268.936 222.482 268.864 222.162 268.864C221.842 268.864 221.558 268.936 221.31 269.08C221.07 269.216 220.882 269.412 220.746 269.668C220.61 269.916 220.542 270.212 220.542 270.556V270.844C220.542 271.196 220.618 271.508 220.77 271.78C220.93 272.044 221.15 272.248 221.43 272.392C221.718 272.528 222.054 272.596 222.438 272.596C222.782 272.596 223.082 272.544 223.338 272.44C223.602 272.336 223.842 272.18 224.058 271.972L225.054 273.052C224.758 273.388 224.386 273.648 223.938 273.832C223.49 274.008 222.974 274.096 222.39 274.096ZM228.929 274.096C228.377 274.096 227.845 274.032 227.333 273.904C226.829 273.768 226.429 273.6 226.133 273.4L226.757 272.056C227.053 272.24 227.401 272.392 227.801 272.512C228.209 272.624 228.609 272.68 229.001 272.68C229.433 272.68 229.737 272.628 229.913 272.524C230.097 272.42 230.189 272.276 230.189 272.092C230.189 271.94 230.117 271.828 229.973 271.756C229.837 271.676 229.653 271.616 229.421 271.576C229.189 271.536 228.933 271.496 228.653 271.456C228.381 271.416 228.105 271.364 227.825 271.3C227.545 271.228 227.289 271.124 227.057 270.988C226.825 270.852 226.637 270.668 226.493 270.436C226.357 270.204 226.289 269.904 226.289 269.536C226.289 269.128 226.405 268.768 226.637 268.456C226.877 268.144 227.221 267.9 227.669 267.724C228.117 267.54 228.653 267.448 229.277 267.448C229.717 267.448 230.165 267.496 230.621 267.592C231.077 267.688 231.457 267.828 231.761 268.012L231.137 269.344C230.825 269.16 230.509 269.036 230.189 268.972C229.877 268.9 229.573 268.864 229.277 268.864C228.861 268.864 228.557 268.92 228.365 269.032C228.173 269.144 228.077 269.288 228.077 269.464C228.077 269.624 228.145 269.744 228.281 269.824C228.425 269.904 228.613 269.968 228.845 270.016C229.077 270.064 229.329 270.108 229.601 270.148C229.881 270.18 230.161 270.232 230.441 270.304C230.721 270.376 230.973 270.48 231.197 270.616C231.429 270.744 231.617 270.924 231.761 271.156C231.905 271.38 231.977 271.676 231.977 272.044C231.977 272.444 231.857 272.8 231.617 273.112C231.377 273.416 231.029 273.656 230.573 273.832C230.125 274.008 229.577 274.096 228.929 274.096Z" fill="white"/>
<defs>
<linearGradient id="paint0_linear_679_3020" x1="15" y1="229" x2="292" y2="229" gradientUnits="userSpaceOnUse">
<stop stop-color="#1F8BF7"/>
<stop offset="1" stop-color="#DC33FC"/>
</linearGradient>
<linearGradient id="paint1_linear_679_3020" x1="350" y1="1.59876e-05" x2="-1.04308e-05" y2="308" gradientUnits="userSpaceOnUse">
<stop stop-color="#1F8BF7"/>
<stop offset="1" stop-color="#DC33FC"/>
</linearGradient>
</defs>
</svg>
