<svg width="747" height="361" viewBox="0 0 747 361" fill="none" xmlns="http://www.w3.org/2000/svg">
<rect x="0.728516" y="228.5" width="746" height="132" rx="66" fill="url(#paint0_linear_377_5242)"/>
<path d="M335.188 2.5H290.756C288.244 2.5 286.207 4.5366 286.207 7.04887V53.3543C286.207 55.8665 288.244 57.9031 290.756 57.9031H335.188C337.7 57.9031 339.737 55.8665 339.737 53.3543V7.04887C339.737 4.5366 337.7 2.5 335.188 2.5Z" fill="#FDCB93" stroke="#090110" stroke-width="3.74" stroke-miterlimit="10"/>
<path d="M325.888 10.9819H302.198C300.831 10.9819 299.723 12.09 299.723 13.457V14.9291C299.723 16.296 300.831 17.4041 302.198 17.4041H325.888C327.255 17.4041 328.363 16.296 328.363 14.9291V13.457C328.363 12.09 327.255 10.9819 325.888 10.9819Z" fill="#E5A76A"/>
<path d="M320.306 26.9888H294.131C293.45 26.9888 292.898 27.5396 292.898 28.2191C292.898 28.8986 293.45 29.4495 294.131 29.4495H320.306C320.987 29.4495 321.538 28.8986 321.538 28.2191C321.538 27.5396 320.987 26.9888 320.306 26.9888Z" fill="#E5A76A"/>
<path d="M320.306 31.9424H294.131C293.45 31.9424 292.898 32.4932 292.898 33.1727C292.898 33.8522 293.45 34.4031 294.131 34.4031H320.306C320.987 34.4031 321.538 33.8522 321.538 33.1727C321.538 32.4932 320.987 31.9424 320.306 31.9424Z" fill="#E5A76A"/>
<path d="M319.647 36.8926H294.79C293.745 36.8926 292.898 37.7393 292.898 38.7838V40.8075C292.898 41.8519 293.745 42.6987 294.79 42.6987H319.647C320.692 42.6987 321.538 41.8519 321.538 40.8075V38.7838C321.538 37.7393 320.692 36.8926 319.647 36.8926Z" fill="#E5A76A"/>
<path d="M320.038 44.6543H294.399C293.57 44.6543 292.898 45.3262 292.898 46.1551V46.8213C292.898 47.6501 293.57 48.3221 294.399 48.3221H320.038C320.866 48.3221 321.538 47.6501 321.538 46.8213V46.1551C321.538 45.3262 320.866 44.6543 320.038 44.6543Z" fill="#E5A76A"/>
<path d="M334.004 26.3867H326.336C325.238 26.3867 324.348 27.2767 324.348 28.3746V40.1766C324.348 41.2745 325.238 42.1645 326.336 42.1645H334.004C335.102 42.1645 335.992 41.2745 335.992 40.1766V28.3746C335.992 27.2767 335.102 26.3867 334.004 26.3867Z" fill="#E5A76A"/>
<path d="M220.851 301.838C195.377 301.838 171.422 299.993 153.417 296.64C135.801 293.363 125.697 288.889 125.697 284.366C125.697 279.842 135.801 275.368 153.417 272.087C171.444 268.738 195.377 266.883 220.851 266.883C246.325 266.883 270.28 268.731 288.289 272.08C305.904 275.361 316.008 279.835 316.008 284.358C316.008 288.882 305.904 293.356 288.289 296.633C270.28 299.993 246.328 301.838 220.851 301.838Z" fill="#090110"/>
<path d="M220.852 267.18C246.315 267.18 270.245 269.021 288.237 272.37C296.958 273.993 303.8 275.88 308.567 277.979C313.248 280.039 315.731 282.245 315.731 284.366C315.731 286.486 313.256 288.692 308.567 290.752C303.8 292.851 296.958 294.735 288.237 296.361C270.245 299.706 246.33 301.551 220.852 301.551C195.375 301.551 171.463 299.706 153.472 296.361C144.75 294.735 137.909 292.851 133.142 290.752C128.46 288.692 125.978 286.482 125.978 284.366C125.978 282.249 128.453 280.039 133.142 277.979C137.909 275.88 144.75 273.993 153.472 272.37C171.463 269.021 195.379 267.18 220.852 267.18ZM220.852 266.604C168.143 266.604 125.412 274.555 125.412 284.366C125.412 294.176 168.143 302.128 220.852 302.128C273.562 302.128 316.296 294.176 316.296 284.366C316.296 274.555 273.566 266.604 220.852 266.604Z" fill="#090110"/>
<path d="M263.765 257.441C263.765 257.441 289.862 260.149 291.416 266.951C292.971 273.753 279.192 273.756 279.192 273.756C279.192 273.756 283.339 292.639 241.382 272.717C199.425 252.796 263.765 257.441 263.765 257.441Z" fill="#FA8510" stroke="black" stroke-width="2.57" stroke-miterlimit="10"/>
<path d="M199.915 272.141C199.915 272.141 226.18 276.335 227.602 283.162C229.024 289.989 215.141 289.19 215.141 289.19C215.141 289.19 218.92 308.127 177.027 285.966C135.135 263.806 199.915 272.141 199.915 272.141Z" fill="#FA8510" stroke="black" stroke-width="2.57" stroke-miterlimit="10"/>
<path d="M289.427 162.585C295.022 160.658 303.643 156.696 310.377 148.258C329.876 123.862 314.356 86.0024 312.34 81.1061C303.439 59.4076 287.962 47.2582 280.92 42.4228C248.254 20.0581 212.812 29.206 206.297 30.8894C196.985 33.2928 176.246 38.9664 160.475 58.7056C148.362 73.8673 145.403 89.5484 144.766 93.3021C143.569 100.362 140.901 117.554 150.002 135.367C154.465 144.043 160.982 151.496 168.986 157.076C168.986 157.076 162.442 226.953 140.84 242.555C139.597 243.454 137.129 245.328 136.925 248.114C135.962 261.456 188.689 284.452 239.597 278.767C260.629 276.435 288.643 272.843 303.174 250.048C326.087 214.077 289.427 162.585 289.427 162.585Z" fill="#0D3E66" stroke="black" stroke-width="5.54" stroke-miterlimit="10"/>
<path d="M261.703 183.979C268.338 182.532 274.748 180.201 280.762 177.048C297.449 168.204 301.354 157.466 306.056 159.472C311.956 161.979 314.151 182.435 306.895 195.451C306.665 195.863 298.531 208.46 298.531 208.46L261.703 183.979Z" fill="#0D3E66"/>
<path d="M298.075 208.142L298.727 207.289L299.519 206.258C299.841 205.853 300.174 205.384 300.554 204.825C301.313 203.729 302.209 202.368 303.197 200.76C304.186 199.151 305.257 197.285 306.317 195.172C306.847 194.122 307.391 192.976 307.843 191.819C308.302 190.573 308.69 189.302 309.007 188.012C310.518 182.005 310.912 175.772 310.171 169.623C309.933 167.984 309.45 166.39 308.738 164.895C308.378 164.132 307.955 163.4 307.474 162.707C307.021 161.999 306.503 161.336 305.927 160.726C305.708 160.488 305.44 160.3 305.141 160.176C304.842 160.053 304.52 159.996 304.197 160.01C303.479 160.117 302.804 160.415 302.241 160.873C300.941 161.84 299.78 163.144 298.627 164.401C298.047 165.035 297.47 165.672 296.879 166.292L295.969 167.198C295.668 167.503 295.364 167.796 295.049 168.076L294.114 168.921L293.157 169.713C292.846 169.981 292.523 170.232 292.198 170.476C291.872 170.719 291.556 170.97 291.23 171.192C289.927 172.13 288.623 172.985 287.319 173.756C286.015 174.523 284.733 175.236 283.476 175.877C280.969 177.177 278.587 178.262 276.491 179.387C276.23 179.527 275.979 179.666 275.7 179.799L275.295 179.992L274.89 180.157C274.357 180.386 273.816 180.558 273.318 180.737C272.29 181.078 271.312 181.364 270.399 181.622C268.565 182.138 266.978 182.532 265.678 182.843C263.078 183.463 261.627 183.76 261.627 183.76C261.627 183.76 263.06 183.348 265.599 182.557C266.871 182.159 268.429 181.669 270.216 181.053C271.108 180.744 272.061 180.404 273.049 180.014C273.536 179.813 274.052 179.613 274.543 179.373L274.901 179.197L275.259 179.004C275.488 178.882 275.754 178.717 276.011 178.563C280.159 176.092 285.324 173.721 290.256 169.917C290.564 169.68 290.862 169.43 291.17 169.2C291.478 168.971 291.782 168.71 292.076 168.445L292.978 167.66L293.852 166.829C294.153 166.557 294.436 166.267 294.719 165.97L295.572 165.085C296.134 164.476 296.689 163.842 297.262 163.194C298.412 161.911 299.565 160.547 301.116 159.368C301.523 159.062 301.96 158.797 302.42 158.577C302.927 158.332 303.474 158.179 304.035 158.125C304.638 158.08 305.243 158.177 305.801 158.408C306.327 158.632 306.805 158.953 307.212 159.354C307.885 160.052 308.485 160.816 309.003 161.636C309.539 162.415 310.007 163.238 310.404 164.096C311.179 165.767 311.695 167.546 311.933 169.372C312.611 175.751 312.029 182.201 310.221 188.356C309.839 189.676 309.381 190.974 308.849 192.242C308.291 193.46 307.714 194.567 307.119 195.616C305.937 197.711 304.752 199.527 303.663 201.089C302.574 202.651 301.589 203.954 300.758 205.004C299.927 206.053 299.214 206.795 298.752 207.336L298.075 208.142Z" fill="black" stroke="black" stroke-width="0.17" stroke-miterlimit="10"/>
<path d="M257.686 276.263C252.646 277.173 226.499 281.41 211.86 265.976C194.087 247.236 196.72 203.112 230.844 169.626C205.352 166.424 185.774 146.824 183.059 123.493C180.398 100.609 194.073 75.0562 214.479 69.8984C230.31 65.8975 244.383 75.6293 247.864 78.0398C264.237 89.3654 268.542 107.016 269.466 111.282C269.108 107.382 266.081 69.9987 281.247 62.4339C282.687 61.7287 284.236 61.271 285.828 61.08C298.027 59.6473 309.683 74.6908 314.629 86.1812C318.028 94.0611 318.601 101.089 319.214 108.567C319.839 116.211 319.599 123.901 318.497 131.491C316.543 138.927 312.741 145.748 307.444 151.32C302.476 156.516 296.288 160.387 289.442 162.581C297.973 173.143 303.909 185.557 306.774 198.829C308.991 209.216 313.938 232.325 300.23 252.423C285.971 273.33 261.801 275.894 257.686 276.263Z" fill="#BAEAFF" stroke="black" stroke-width="4.15" stroke-linejoin="round"/>
<path d="M172.66 182.292C180.135 182.292 185.361 180.476 188.707 178.853C200.1 173.341 216.319 157.28 218.726 157.244C219.855 157.241 220.976 157.445 222.032 157.846C224.725 158.92 226.348 161.338 227.358 163.845C228.315 165.93 228.865 168.177 228.98 170.468C229.209 176.418 209.126 193.338 178.968 212.081" fill="#0D3E66"/>
<path d="M178.698 211.666L183.107 208.499C185.944 206.461 190.041 203.51 195.034 199.785C200.027 196.06 205.912 191.568 212.162 186.307C215.271 183.67 218.491 180.841 221.514 177.71C223.018 176.202 224.383 174.562 225.594 172.81C225.854 172.417 226.088 172.007 226.293 171.582C226.444 171.285 226.551 170.968 226.611 170.64C226.611 170.586 226.611 170.568 226.611 170.547L226.59 170.189C226.59 169.941 226.543 169.687 226.525 169.436C226.457 168.931 226.379 168.423 226.264 167.914C226.082 167.104 225.843 166.308 225.548 165.532C225.437 165.238 225.34 165.009 225.297 164.898V164.877V164.834V164.784C225.257 164.784 225.275 164.759 225.261 164.748L225.232 164.676L225.214 164.626L225.236 164.673C224.222 162.072 222.997 160.926 222.188 160.346C221.787 160.052 221.471 159.905 221.317 159.801C221.228 159.748 221.21 159.73 221.199 159.712C221.189 159.694 221.221 159.69 221.267 159.694L221.142 159.637L221.253 159.687H221.224L221.16 159.662L221.013 159.608L220.701 159.504C220.489 159.438 220.274 159.383 220.057 159.339C219.846 159.291 219.633 159.254 219.419 159.228L219.104 159.196H219.004C218.946 159.194 218.888 159.205 218.835 159.228H218.814L218.753 159.26L218.617 159.332L218.327 159.5C217.929 159.74 217.506 160.027 217.091 160.317C215.418 161.496 213.785 162.771 212.198 163.985C209.025 166.438 206.012 168.749 203.136 170.812C200.26 172.875 197.531 174.716 194.927 176.263C192.574 177.706 190.093 178.93 187.516 179.92C185.466 180.662 183.347 181.199 181.191 181.525C179.636 181.754 178.069 181.885 176.499 181.915C175.231 181.933 174.274 181.915 173.633 181.858L172.666 181.797L173.63 181.722C174.267 181.672 175.216 181.575 176.452 181.403C180.05 180.907 183.552 179.87 186.839 178.326C189.2 177.149 191.458 175.775 193.587 174.218C195.98 172.52 198.516 170.536 201.206 168.322C203.896 166.109 206.736 163.666 209.802 161.055C211.346 159.751 212.915 158.404 214.684 157.047C215.132 156.71 215.59 156.37 216.117 156.026C216.246 155.94 216.385 155.854 216.529 155.765L216.758 155.632L216.876 155.564L217.048 155.475C217.507 155.224 218.011 155.067 218.531 155.012C218.785 155.012 219.075 154.991 219.301 155.012C219.527 155.034 219.659 155.012 219.824 155.045C220.182 155.073 220.515 155.116 220.852 155.177C221.189 155.238 221.522 155.31 221.855 155.399L222.356 155.546L222.614 155.632L222.75 155.682L222.825 155.711H222.865L223.044 155.79L222.901 155.725C222.775 155.668 222.732 155.646 222.761 155.65L222.865 155.682H222.893L222.951 155.704L223.051 155.743C223.621 155.969 224.167 156.251 224.681 156.585C225.636 157.208 226.488 157.977 227.206 158.863C227.67 159.431 228.087 160.036 228.452 160.672C228.649 161.012 228.839 161.367 229.018 161.746C229.115 161.932 229.194 162.104 229.283 162.316C229.33 162.412 229.369 162.513 229.412 162.609L229.52 162.867V162.889C229.52 162.907 229.495 162.835 229.52 162.925C229.62 163.136 229.753 163.444 229.907 163.838C230.292 164.831 230.601 165.853 230.831 166.893C230.981 167.545 231.085 168.211 231.171 168.881C231.2 169.218 231.243 169.551 231.257 169.891L231.282 170.411C231.286 170.67 231.273 170.93 231.243 171.188C231.127 172.015 230.878 172.818 230.505 173.566C230.202 174.186 229.857 174.784 229.473 175.357C228.07 177.346 226.475 179.193 224.709 180.869C221.534 183.911 218.174 186.755 214.648 189.383C207.993 194.398 201.704 198.456 196.36 201.73C191.016 205.004 186.578 207.461 183.505 209.133C180.431 210.806 178.698 211.666 178.698 211.666Z" fill="black" stroke="black" stroke-width="0.43" stroke-miterlimit="10"/>
<path d="M282.394 122.178L285.618 132.608C285.704 132.881 285.936 138.576 285.936 138.576L284.633 141.083C284.274 141.767 279.74 144.156 279.443 144.002C279.145 143.848 269.908 140.42 269.908 140.42C269.908 140.42 262.562 134.163 262.325 134.038C262.089 133.912 260.137 130.345 260.137 130.345C260.137 130.345 268.185 125.785 268.733 125.613C269.281 125.441 282.394 122.178 282.394 122.178Z" fill="#A23D2E"/>
<path d="M284.63 137.344C284.63 137.344 275.364 130.703 267.871 136.828C269.416 137.835 271.02 138.747 272.674 139.561C274.531 140.429 276.475 141.097 278.473 141.552C279.298 141.762 280.163 141.748 280.98 141.513C281.243 141.426 281.499 141.317 281.743 141.187C282.551 140.763 283.236 140.137 283.731 139.371C284.152 138.756 284.457 138.069 284.63 137.344Z" fill="#D44E28"/>
<path d="M299.884 98.0548C297.735 89.3368 291.091 85.1998 287.52 86.3997C284.382 87.4563 282.072 93.1442 283.222 99.8278" stroke="black" stroke-width="9.71" stroke-miterlimit="10" stroke-linecap="round"/>
<path d="M246.016 107.625C243.866 98.911 237.222 94.7704 233.651 95.9739C230.517 97.027 228.207 102.715 229.353 109.398" stroke="black" stroke-width="9.71" stroke-miterlimit="10" stroke-linecap="round"/>
<path d="M259.801 124.306C259.309 124.982 258.878 125.701 258.515 126.455C257.928 127.68 257.237 129.17 257.441 131.015C257.477 131.325 257.534 131.633 257.613 131.935C258.526 135.463 262.985 139.496 263.49 139.958C266.463 142.616 267.953 143.948 269.938 144.973C272.373 146.208 275.285 147.691 278.989 147.122C282.624 146.556 286.152 144.11 287.718 140.642C288.699 138.454 288.656 136.366 288.624 134.75C288.57 132.196 287.968 130.295 287.392 128.529C286.662 126.301 285.667 124.169 284.43 122.178L281.618 123.862C281.618 123.862 284.344 130.936 284.594 133.443C284.799 135.502 285.085 138.035 283.48 139.862C282.205 141.319 280.357 141.631 279.494 141.713C275.56 140.954 271.811 139.441 268.451 137.258C266.539 135.99 263.795 134.138 261.897 130.653C261.628 130.158 261.381 129.618 261.381 129.618C260.6 127.933 260.068 126.144 259.801 124.306Z" fill="#FA8510" stroke="black" stroke-width="1.76" stroke-miterlimit="10"/>
<path d="M262.81 115.814C264.227 114.023 265.973 112.519 267.954 111.383C267.954 111.383 275.017 106.63 283.685 108.396C285.665 108.8 288.982 109.47 290.075 112.006C290.888 113.897 290.075 115.917 289.716 116.748C288.119 120.559 284.401 122.54 278.613 124.879C267.269 129.457 261.596 131.745 259.565 129.6C257.111 127.01 259.558 119.972 262.81 115.814Z" fill="#FA8510" stroke="black" stroke-width="2.65" stroke-miterlimit="10"/>
<path d="M215.859 130.467C215.859 136.068 221.139 137.806 225.964 140.614C233.596 145.055 239.173 142.791 236.068 130.467C234.7 125.033 231.544 120.319 225.964 120.319C224.634 120.322 223.318 120.587 222.09 121.098C220.863 121.61 219.748 122.358 218.81 123.3C217.872 124.243 217.128 125.36 216.622 126.59C216.116 127.82 215.857 129.137 215.859 130.467Z" fill="#F4A127" stroke="black" stroke-miterlimit="10"/>
<path d="M185.389 42.1615L179.68 32.8131C179.68 32.8131 180.514 30.3989 182.022 31.3087C183.53 32.2185 189.351 37.2187 189.351 37.2187C189.351 37.2187 187.137 26.921 189.351 24.5857C191.564 22.2504 191.89 29.1632 191.89 29.9154C191.89 30.6676 192.144 33.3038 193.119 33.139C194.093 32.9742 200.307 24.1129 200.307 24.1129C200.307 24.1129 203.366 20.5526 202.503 25.9396C201.64 31.3266 200.558 37.6521 200.558 37.6521" fill="#0D3E66"/>
<path d="M185.389 42.1615L179.68 32.8131C179.68 32.8131 180.514 30.3989 182.022 31.3087C183.53 32.2185 189.351 37.2187 189.351 37.2187C189.351 37.2187 187.137 26.921 189.351 24.5857C191.564 22.2504 191.89 29.1632 191.89 29.9154C191.89 30.6676 192.144 33.3038 193.119 33.139C194.093 32.9742 200.307 24.1129 200.307 24.1129C200.307 24.1129 203.366 20.5526 202.503 25.9396C201.64 31.3266 200.558 37.6521 200.558 37.6521" stroke="black" stroke-width="4.87" stroke-miterlimit="10"/>
<path d="M569.378 255.282C580.838 255.282 590.128 253.724 590.128 251.804C590.128 249.883 580.838 248.326 569.378 248.326C557.919 248.326 548.629 249.883 548.629 251.804C548.629 253.724 557.919 255.282 569.378 255.282Z" fill="#090110"/>
<path d="M569.381 248.383C581.756 248.383 590.069 250.152 590.069 251.803C590.069 253.455 581.756 255.224 569.381 255.224C557.005 255.224 548.692 253.455 548.692 251.803C548.692 250.152 557.005 248.383 569.381 248.383ZM569.381 248.265C557.887 248.265 548.57 249.848 548.57 251.803C548.57 253.759 557.883 255.342 569.381 255.342C580.878 255.342 590.187 253.759 590.187 251.803C590.187 249.848 580.874 248.265 569.381 248.265Z" fill="#090110"/>
<path d="M374.714 260.905L488.074 290.279L432.653 318.844L330.1 287.704L374.714 260.905Z" fill="#090110" stroke="#090110" stroke-width="1.54" stroke-miterlimit="10"/>
<path d="M505.646 290.096L555.483 318.844L615.729 287.704L535.579 279.143L505.646 290.096Z" fill="#090110" stroke="#090110" stroke-width="1.54" stroke-miterlimit="10"/>
<path d="M562.178 230.245C562.178 230.245 534.599 220.599 535.605 214.026C535.677 213.425 535.926 212.859 536.321 212.4C538.685 209.836 546.153 212.525 551.007 215.477C551.644 215.867 552.081 216.172 552.228 216.265C554.972 218.149 559.567 222.107 564.216 230.664L562.178 230.245Z" fill="#D6B97F" stroke="#090110" stroke-width="0.72" stroke-miterlimit="10"/>
<path d="M547.469 194.53C547.469 194.53 547.616 185.741 553.308 191.665C558.465 197.038 562.359 203.814 565.235 212.321C565.346 212.651 565.425 212.894 565.593 213.396C569.01 223.808 570.683 229.055 568.931 231.011C568.348 231.659 567.14 232.372 564.386 232.085C564.386 232.085 560.6 226.527 556.689 220.441C554.597 217.189 550.12 212.235 548.422 206.214C548.232 205.541 548.093 204.936 548.093 204.936C548.093 204.936 547.376 201.877 547.476 194.548L547.469 194.53Z" fill="#B59968" stroke="#090110" stroke-width="0.72" stroke-miterlimit="10"/>
<path d="M569.312 193.535C570.028 192.313 573.47 186.561 576.565 187.195C577.578 187.403 578.277 188.151 578.896 189.247C581.242 193.402 581.264 198.27 580.648 203.216C580.111 207.515 579.756 207.357 576.93 219.112C575.139 226.634 574.19 231.187 571.618 231.649C571.055 231.73 570.48 231.641 569.967 231.394C563.205 228.561 565.468 207.858 565.712 205.634C566.206 201.085 567.062 197.306 569.312 193.535Z" fill="#D6B97F" stroke="#090110" stroke-width="0.72" stroke-miterlimit="10"/>
<path d="M575.741 231.455C575.741 231.455 589.774 223.146 592.285 215.395C594.796 207.644 593.592 207.156 591.927 207.131C590.261 207.106 582.908 207.966 580.734 210.76C578.56 213.554 568.606 227.472 573.653 231.394C573.95 231.622 574.312 231.75 574.687 231.761C575.061 231.772 575.43 231.665 575.741 231.455Z" fill="#B29769" stroke="#090110" stroke-width="0.72" stroke-miterlimit="10"/>
<path d="M583.091 249.747C574.859 251.645 566.38 252.235 557.965 251.495C554.861 242.978 554.014 238.3 555.425 237.462C555.583 237.384 555.755 237.337 555.931 237.326C556.106 237.314 556.283 237.337 556.45 237.394L583.893 236.233C583.626 240.739 583.358 245.244 583.091 249.747Z" fill="#EA9B65" stroke="#090110" stroke-width="2.16" stroke-miterlimit="10"/>
<path d="M585.955 236.764L553.422 237.691C553.16 237.694 552.907 237.601 552.71 237.43C552.512 237.259 552.383 237.022 552.347 236.764L551.362 229.389C551.343 229.24 551.355 229.089 551.398 228.945C551.441 228.801 551.514 228.668 551.611 228.554C551.709 228.44 551.829 228.347 551.965 228.283C552.1 228.218 552.247 228.182 552.397 228.178L585.35 227.333C585.624 227.326 585.891 227.425 586.094 227.609C586.298 227.793 586.424 228.048 586.446 228.321L586.997 235.614C587.008 235.759 586.989 235.904 586.941 236.041C586.894 236.178 586.819 236.304 586.722 236.411C586.624 236.519 586.506 236.605 586.374 236.666C586.243 236.726 586.1 236.76 585.955 236.764Z" fill="#EA9B65" stroke="#090110" stroke-width="2.16" stroke-miterlimit="10"/>
<path d="M562.106 220.756C562.106 220.756 561.672 219.524 561.053 217.533C560.433 215.541 559.523 212.798 558.434 209.828C557.346 206.859 556.239 204.219 555.186 202.421C554.78 201.7 554.316 201.013 553.796 200.369C553.65 200.191 553.495 200.021 553.33 199.86C553.27 199.801 553.207 199.745 553.141 199.692C553.217 199.729 553.291 199.769 553.363 199.814C553.562 199.938 553.753 200.074 553.936 200.222C554.599 200.761 555.2 201.372 555.727 202.045C557.091 203.711 558.556 206.318 559.667 209.363C560.587 211.965 561.265 214.645 561.694 217.372C561.991 219.456 562.106 220.756 562.106 220.756Z" fill="#D6B97F" stroke="#D6B97F" stroke-width="0.12" stroke-miterlimit="10"/>
<path d="M574.805 225.663C574.805 225.663 575.389 224.499 576.442 222.666C577.847 220.29 579.468 218.05 581.284 215.971C583.433 213.55 585.765 211.673 587.635 210.634C588.357 210.21 589.127 209.87 589.927 209.621C590.14 209.553 590.358 209.5 590.579 209.463C590.652 209.449 590.726 209.441 590.801 209.438L590.597 209.517C590.396 209.602 590.199 209.699 590.009 209.807C589.303 210.204 588.631 210.662 588.004 211.175C586.385 212.443 584.379 214.478 582.273 216.831C580.167 219.184 578.333 221.433 576.982 223.038C575.632 224.643 574.805 225.663 574.805 225.663Z" fill="#D6B97F" stroke="#D6B97F" stroke-width="0.12" stroke-miterlimit="10"/>
<path d="M569.307 223.486C569.307 223.486 570.27 216.709 571.853 208.424C573.436 200.14 575.041 193.488 575.041 193.488C575.041 193.488 574.081 200.261 572.498 208.532C570.915 216.802 569.307 223.486 569.307 223.486Z" fill="#B29769" stroke="#B29769" stroke-width="0.06" stroke-miterlimit="10"/>
<path d="M558.332 225.95C558.332 225.95 554.163 223.704 549.234 220.577C544.306 217.451 540.48 214.657 540.48 214.657C540.48 214.657 544.65 216.906 549.578 220.029C554.507 223.153 558.332 225.95 558.332 225.95Z" fill="#B29769" stroke="#B29769" stroke-width="0.06" stroke-miterlimit="10"/>
<path d="M332.478 280.727C332.478 280.727 326.536 285.705 333.42 287.657C340.304 289.609 425.83 311.512 425.83 311.512C425.83 311.512 428.194 314.951 435.501 311.512C442.808 308.074 475.474 292.672 475.474 292.672C475.474 292.672 479.238 285.562 473.92 288.015C468.601 290.469 431.203 306.999 431.203 306.999L332.478 280.727Z" fill="#473B3F" stroke="#090110" stroke-width="3" stroke-miterlimit="10"/>
<path d="M429.849 308.195L332.564 282.252C332.401 282.208 332.256 282.113 332.15 281.982C332.044 281.85 331.981 281.689 331.972 281.52C331.962 281.352 332.006 281.184 332.097 281.042C332.188 280.899 332.321 280.789 332.478 280.727L372.096 265.164C372.242 265.106 372.401 265.092 372.555 265.124L473.747 286.493C473.913 286.528 474.062 286.615 474.176 286.74C474.289 286.865 474.361 287.023 474.38 287.191C474.399 287.359 474.365 287.528 474.282 287.676C474.199 287.823 474.072 287.941 473.919 288.012L430.408 308.149C430.233 308.232 430.035 308.248 429.849 308.195Z" fill="#6B6868" stroke="#090110" stroke-width="3" stroke-miterlimit="10"/>
<path d="M377.071 272.843L367.375 270.336L372.425 267.757L381.129 269.691L377.071 272.843Z" fill="#473B3F"/>
<path d="M402.975 296.053L393.279 293.546L398.33 290.967L407.033 292.901L402.975 296.053Z" fill="#473B3F"/>
<path d="M408.557 289.727L398.861 287.22L403.912 284.641L412.615 286.575L408.557 289.727Z" fill="#473B3F"/>
<path d="M368.801 277.714L359.105 275.207L364.156 272.628L372.86 274.562L368.801 277.714Z" fill="#473B3F"/>
<path d="M415.44 282.334L405.744 279.827L410.794 277.248L419.498 279.182L415.44 282.334Z" fill="#473B3F"/>
<path d="M434.45 286.271L424.754 283.763L429.804 281.185L438.508 283.119L434.45 286.271Z" fill="#473B3F"/>
<path d="M449.708 291.354L440.012 288.846L445.062 286.268L453.766 288.202L449.708 291.354Z" fill="#473B3F"/>
<path d="M438.749 296.873L422.498 291.723L424.969 288.929L442.807 293.725L438.749 296.873Z" fill="#473B3F"/>
<path d="M399.374 279.143L383.127 273.993L385.598 271.199L403.436 275.995L399.374 279.143Z" fill="#473B3F"/>
<path d="M394.003 284.699L377.756 279.548L380.227 276.754L398.061 281.568L394.003 284.699Z" fill="#473B3F"/>
<path d="M387.663 291.676L371.412 286.525L373.884 283.731L391.724 288.527L387.663 291.676Z" fill="#473B3F"/>
<path d="M428.065 303.173L411.814 298.023L414.286 295.229L432.123 300.025L428.065 303.173Z" fill="#473B3F"/>
<path d="M365.219 284.699L348.969 279.548L351.44 276.754L369.263 281.568L365.219 284.699Z" fill="#473B3F"/>
<path d="M553.187 90.9593L506.889 88.8675C506.214 88.8366 505.553 88.668 504.946 88.3722C504.339 88.0764 503.799 87.6595 503.358 87.1473C502.918 86.635 502.588 86.0382 502.387 85.3935C502.186 84.7487 502.119 84.0697 502.19 83.3981L508.777 21.3973C508.905 20.1817 509.479 19.0567 510.387 18.2392C511.296 17.4217 512.476 16.9697 513.698 16.9702H556.876C557.549 16.9697 558.214 17.1063 558.832 17.3718C559.45 17.6372 560.008 18.0258 560.47 18.514C560.933 19.0021 561.291 19.5794 561.523 20.2106C561.755 20.8419 561.856 21.5138 561.819 22.1853C560.666 43.5543 559.51 64.9256 558.352 86.2993C558.278 87.5996 557.694 88.8182 556.727 89.6906C555.76 90.563 554.488 91.0189 553.187 90.9593Z" fill="#FFE6BF" stroke="black" stroke-width="2.95" stroke-miterlimit="10"/>
<path d="M545.402 30.2017H522.776C520.908 30.2017 519.395 31.7155 519.395 33.5829V43.945C519.395 45.8124 520.908 47.3262 522.776 47.3262H545.402C547.269 47.3262 548.783 45.8124 548.783 43.945V33.5829C548.783 31.7155 547.269 30.2017 545.402 30.2017Z" fill="#889987"/>
<path d="M518.254 59.1138H527.527" stroke="#889987" stroke-width="5.9" stroke-linecap="round" stroke-linejoin="round"/>
<path d="M535.09 59.6152H546.082" stroke="#889987" stroke-width="7.95" stroke-linecap="round" stroke-linejoin="round"/>
<path d="M516.535 67.8354H547.457" stroke="#889987" stroke-width="13.34" stroke-linecap="round" stroke-linejoin="round"/>
<path d="M516.535 76.5571H547.457" stroke="#889987" stroke-width="13.34" stroke-linecap="round" stroke-linejoin="round"/>
<path d="M505.646 290.096C505.646 290.096 568.245 282.001 577.01 275.769L611.438 280.135C593.171 292.901 583.328 297.951 577.637 300.061C576.294 300.559 571.451 302.278 564.488 305.043C556.633 308.163 556.698 308.396 555.1 308.779C547.611 310.57 541.568 306.526 531.314 301.307C522.982 297.077 514.412 293.334 505.646 290.096Z" fill="#F2902F" stroke="#090110" stroke-width="3.26" stroke-miterlimit="10"/>
<path d="M510.225 290.193C510.225 290.193 564.062 282.85 571.599 277.206L601.209 281.146C601.209 281.146 572.136 306.576 554.37 304.868C536.604 303.159 510.225 290.193 510.225 290.193Z" fill="#F2DBC4" stroke="#090110" stroke-width="3.26" stroke-miterlimit="10"/>
<path d="M605.792 276.242C605.792 276.242 551.632 280.182 543.179 276.21L514.883 286.214C514.883 286.214 548.165 305.111 565.264 299.775C582.364 294.438 605.792 276.242 605.792 276.242Z" fill="#EA9C4E" stroke="#090110" stroke-width="3.26" stroke-miterlimit="10"/>
<path d="M600.933 276.385C600.933 276.385 546.773 280.325 538.32 276.353L510.023 286.357C510.023 286.357 543.305 305.254 560.401 299.918C577.497 294.581 600.933 276.385 600.933 276.385Z" fill="#FDCB93" stroke="#090110" stroke-width="3.26" stroke-miterlimit="10"/>
<path d="M124.411 307.421C119.626 306.887 114.808 306.236 110.084 305.483C104.195 304.541 99.6574 303.61 90.6097 301.755C89.2451 301.475 89.1341 301.447 88.8726 301.379C88.6111 301.311 88.0488 301.167 85.2657 300.555L84.5243 300.39C81.6589 299.76 80.5843 299.523 79.1516 298.879C75.4122 297.177 74.9645 296.192 75.029 295.755C75.1364 295.064 76.8521 294.269 79.9181 294.093C80.9926 294.179 118.387 297.299 123.831 299.702H123.86L125.554 300.039C126.768 300.97 129.626 303.621 129.135 305.383C128.82 306.483 127.176 307.185 124.411 307.421Z" fill="#090110"/>
<path d="M79.9136 294.384C81.3463 294.502 118.343 297.607 123.712 299.968L123.769 299.993H123.834L125.427 300.312C126.563 301.193 129.296 303.729 128.841 305.301C128.565 306.264 127.032 306.891 124.414 307.12C119.639 306.587 114.836 305.935 110.133 305.186C104.248 304.248 99.7102 303.317 90.6697 301.461C89.3122 301.182 89.2048 301.157 88.9505 301.103C88.6389 301.024 88.1195 300.888 85.3293 300.276L84.5879 300.111C81.6615 299.466 80.673 299.251 79.2832 298.621C75.2824 296.801 75.3003 295.895 75.3146 295.802C75.3862 295.333 76.9013 294.559 79.9136 294.369M79.9136 293.789C77.1019 293.947 74.8991 294.667 74.7379 295.698C74.523 297.081 78.0439 298.678 79.0361 299.13C80.6013 299.846 81.7153 300.054 85.2004 300.82C90.4405 301.977 87.6252 301.425 90.5444 302.024C99.6063 303.883 104.155 304.814 110.036 305.752C113.858 306.365 118.719 307.063 124.399 307.697C134.998 306.802 125.667 299.763 125.667 299.763L123.937 299.405C118.343 296.97 79.9208 293.803 79.9208 293.803L79.9136 293.789Z" fill="#090110"/>
<path d="M137.952 315.287C130.846 315.287 127.207 310.527 127.167 310.481C121.884 303.292 125.839 299.313 125.878 299.273C129.248 296.687 132.547 295.362 135.653 295.362C141.556 295.362 145.198 300.047 146.57 301.809C146.763 302.06 146.907 302.242 147.011 302.35C148.311 303.722 151.563 306.53 154.565 307.336C155.861 307.694 156.151 307.991 156.209 308.145C156.266 308.299 156.151 308.478 155.972 308.743C155.847 308.903 155.75 309.084 155.686 309.277C155.417 310.276 151.319 311.999 143.508 314.403C141.711 314.972 139.84 315.27 137.956 315.287H137.952Z" fill="#090110"/>
<path d="M135.655 295.652C141.414 295.652 144.996 300.254 146.343 301.984C146.544 302.246 146.701 302.432 146.801 302.55C148.12 303.94 151.426 306.791 154.492 307.615C155.656 307.926 155.892 308.181 155.924 308.238C155.87 308.364 155.802 308.484 155.724 308.596C155.58 308.783 155.47 308.992 155.398 309.216C155.262 309.721 153.524 311.032 143.413 314.141C141.644 314.704 139.8 314.998 137.944 315.015C130.995 315.015 127.428 310.359 127.395 310.326C122.427 303.567 125.73 299.85 126.052 299.513C129.387 296.959 132.614 295.666 135.644 295.666M135.644 295.089C132.815 295.089 129.487 296.146 125.669 299.079C125.669 299.079 121.432 303.191 126.926 310.667C126.926 310.667 130.597 315.592 137.944 315.592C139.858 315.577 141.76 315.275 143.585 314.696C154.689 311.279 155.781 310.04 155.956 309.366C156.132 308.693 157.676 307.887 154.631 307.07C151.587 306.254 148.277 303.292 147.21 302.167C146.454 301.368 142.536 295.089 135.644 295.089Z" fill="#090110"/>
<path d="M139.568 312.783C138.241 312.787 136.918 312.629 135.628 312.314C134.17 311.956 130.746 311.107 128.658 308.195C127.583 306.68 126.663 304.337 127.082 302.525C127.13 302.325 127.198 302.131 127.286 301.945C128.264 299.76 130.832 299.015 131.799 298.721C132.686 298.474 133.604 298.353 134.525 298.363C136.627 298.401 138.69 298.937 140.546 299.925C142.014 300.72 142.695 301.454 143.648 302.475C144.79 303.735 146.044 304.889 147.394 305.924C148.801 307.013 150.286 307.996 151.839 308.865C149.364 310.433 144.797 312.783 139.568 312.783Z" fill="#090110"/>
<path d="M134.552 298.069V298.65C136.603 298.697 138.613 299.226 140.422 300.193C141.855 300.963 142.521 301.687 143.449 302.701C144.597 303.969 145.857 305.132 147.213 306.175C148.503 307.175 149.858 308.085 151.272 308.901C148.764 310.444 144.448 312.525 139.566 312.525C138.268 312.529 136.973 312.373 135.712 312.063C134.28 311.705 130.931 310.885 128.907 308.059C127.857 306.598 126.976 304.348 127.377 302.622C127.421 302.442 127.482 302.267 127.56 302.099L127.578 302.067C128.484 300.032 130.959 299.316 131.876 299.047C132.737 298.803 133.628 298.683 134.523 298.689V298.109M134.523 298.109C133.573 298.105 132.628 298.237 131.715 298.499C130.755 298.775 128.054 299.574 127.034 301.837C126.933 302.048 126.855 302.269 126.801 302.496C126.353 304.431 127.302 306.841 128.42 308.403C130.569 311.401 134.058 312.264 135.558 312.633C136.871 312.947 138.217 313.1 139.566 313.088C145.684 313.088 150.813 309.9 152.4 308.851C150.707 307.932 149.092 306.88 147.568 305.702C143.603 302.629 143.542 301.221 140.698 299.681C138.799 298.671 136.688 298.124 134.537 298.084L134.523 298.109Z" fill="#090110"/>
<path d="M139.246 310.287C138.366 310.287 137.49 310.182 136.635 309.971C135.664 309.731 133.39 309.173 132.011 307.246C131.295 306.246 130.693 304.703 130.969 303.514C131 303.39 131.043 303.27 131.098 303.155C131.739 301.723 133.429 301.239 134.067 301.053C134.65 300.887 135.252 300.804 135.858 300.806C137.253 300.833 138.622 301.187 139.855 301.841C140.641 302.271 141.339 302.846 141.911 303.535C142.676 304.382 143.515 305.159 144.418 305.856C145.327 306.558 146.285 307.195 147.284 307.762C145.618 308.789 142.642 310.287 139.246 310.287Z" fill="#090110"/>
<path d="M135.869 300.505V301.082C137.216 301.107 138.538 301.451 139.727 302.085C140.486 302.5 141.159 303.055 141.711 303.721C142.49 304.58 143.343 305.367 144.261 306.075C145.048 306.685 145.873 307.246 146.729 307.755C145.028 308.757 142.306 309.997 139.243 309.997C138.388 309.998 137.535 309.896 136.704 309.692C135.762 309.46 133.562 308.915 132.241 307.078C131.564 306.128 130.994 304.681 131.249 303.582C131.273 303.473 131.31 303.367 131.36 303.267V303.242C131.933 301.959 133.53 301.494 134.136 301.322C134.696 301.161 135.276 301.08 135.858 301.082V300.505M135.858 300.505C135.221 300.501 134.586 300.589 133.974 300.767C133.33 300.953 131.514 301.483 130.83 303.005C130.764 303.148 130.711 303.297 130.672 303.449C130.371 304.749 131.009 306.365 131.746 307.414C133.179 309.427 135.532 310.004 136.539 310.255C137.416 310.469 138.315 310.576 139.218 310.573C143.326 310.573 146.769 308.424 147.832 307.73C146.696 307.115 145.612 306.408 144.591 305.616C141.93 303.553 141.89 302.611 139.977 301.576C138.704 300.897 137.287 300.529 135.844 300.501L135.858 300.505Z" fill="#090110"/>
<path d="M75.4057 296.017C75.3704 295.992 75.3431 295.957 75.3269 295.917C75.3129 295.87 75.3129 295.82 75.3269 295.773C75.3443 295.689 75.3913 295.614 75.4594 295.562C75.4837 295.544 75.5102 295.53 75.5382 295.519C83.3644 296.479 91.2981 297.511 99.0992 298.592C107.183 299.706 115.378 300.906 123.455 302.174C123.405 302.458 123.373 302.745 123.359 303.034C123.34 303.392 123.347 303.751 123.38 304.108L75.4057 296.017Z" fill="#090110"/>
<path d="M76.9745 295.988C84.3207 296.894 91.7458 297.865 99.067 298.875C107.062 299.982 115.156 301.164 123.14 302.396C123.112 302.597 123.094 302.801 123.083 303.001C123.069 303.253 123.069 303.505 123.083 303.757L111.098 301.737L76.9745 296.006M75.5418 295.243C75.4611 295.261 75.3846 295.294 75.3161 295.34C75.1894 295.434 75.1004 295.57 75.0654 295.723C75.0381 295.823 75.0381 295.928 75.0654 296.028C75.1116 296.15 75.2024 296.251 75.3197 296.311L123.745 304.47C123.672 303.996 123.648 303.516 123.674 303.037C123.694 302.662 123.744 302.29 123.824 301.923C115.727 300.67 107.506 299.466 99.1601 298.313C91.1894 297.21 83.3166 296.183 75.5418 295.232V295.243Z" fill="#090110"/>
<path d="M81.3936 290.77C81.3936 290.77 117.545 293.742 122.817 296.071L124.443 296.393C124.443 296.393 133.222 303.016 123.25 303.857C117.906 303.263 113.332 302.604 109.736 302.027C104.188 301.142 99.9222 300.268 91.3976 298.521C88.6504 297.955 91.2973 298.474 86.3652 297.389C83.0878 296.672 82.0384 296.461 80.5663 295.795C79.6314 295.369 76.3218 293.868 76.5224 292.571C76.6728 291.597 78.7467 290.92 81.3936 290.77Z" fill="#F25814" stroke="black" stroke-width="1.58" stroke-miterlimit="10"/>
<path d="M125.633 306.641C125.633 306.641 130.851 313.643 141.307 310.43C151.762 307.217 152.768 306.035 152.947 305.416C153.126 304.796 154.566 304.022 151.701 303.267C148.835 302.511 145.719 299.713 144.716 298.653C143.714 297.593 136.79 286.271 124.447 295.748C124.447 295.72 120.461 299.592 125.633 306.641Z" fill="#A38472" stroke="#090110" stroke-width="2.37" stroke-miterlimit="10"/>
<path d="M125.738 298.291C126.695 296.142 129.238 295.426 130.144 295.15C134.191 293.975 138.024 295.978 138.579 296.286C141.258 297.718 141.316 299.061 145.048 301.952C146.48 303.063 148.002 304.053 149.597 304.914C147.788 306.114 141.083 310.258 133.762 308.453C132.35 308.095 129.069 307.292 127.046 304.47C125.993 303.001 125.101 300.734 125.52 298.915C125.57 298.7 125.643 298.491 125.738 298.291Z" fill="#C4AEA3"/>
<path d="M129.303 299.43C129.948 297.998 131.656 297.496 132.262 297.321C134.98 296.533 137.545 297.876 137.924 298.084C139.715 299.058 139.762 299.946 142.266 301.887C143.227 302.632 144.248 303.297 145.317 303.875C144.103 304.681 139.604 307.457 134.69 306.25C133.741 306.014 131.538 305.473 130.181 303.578C129.464 302.589 128.873 301.071 129.156 299.846C129.192 299.703 129.241 299.564 129.303 299.43Z" fill="#EAD7CE"/>
<path d="M77.2431 292.109C84.5618 293.005 91.9702 293.971 99.4681 295.007C107.336 296.089 115.076 297.221 122.689 298.403C122.615 298.748 122.568 299.099 122.549 299.452C122.525 299.9 122.547 300.348 122.614 300.792L77.0496 293.112C76.9387 293.058 76.8528 292.963 76.8097 292.847C76.7822 292.754 76.7822 292.654 76.8097 292.561C76.8427 292.417 76.9266 292.289 77.0461 292.203C77.1051 292.159 77.172 292.127 77.2431 292.109Z" fill="#C13600"/>
<path d="M505.648 281.192L574.923 256.728L400.157 207.131L380.002 251.803L505.648 281.192Z" fill="#090110" stroke="#090110" stroke-width="1.54" stroke-miterlimit="10"/>
<path d="M536.945 222.658L548.432 254.278C548.432 254.278 550.448 259.92 546.419 260.725C542.389 261.531 520.77 259.382 520.77 259.382L536.945 222.658Z" fill="#1E1E1E" stroke="#090110" stroke-width="3.03" stroke-miterlimit="10"/>
<path d="M541.483 172.7C541.483 172.7 551.87 172.657 553.801 177.772C554.517 179.681 553.801 181.604 553.536 182.299C531.103 241.27 524.906 251.402 512.51 271.665C511.576 273.255 510.304 274.621 508.785 275.665C506.818 276.991 504.694 277.532 501.908 277.843C498.355 278.272 494.761 278.205 491.227 277.646C484.479 276.321 441.221 266.901 381.914 253.544C380.282 252.408 379.033 250.803 378.332 248.942C378.013 248.032 377.673 246.574 378.332 242.297C378.785 239.426 379.483 236.598 380.417 233.844" fill="#666565"/>
<path d="M541.483 172.7C541.483 172.7 551.87 172.657 553.801 177.772C554.517 179.681 553.801 181.604 553.536 182.299C531.103 241.27 524.906 251.402 512.51 271.665C511.576 273.255 510.304 274.621 508.785 275.665C506.818 276.991 504.694 277.532 501.908 277.843C498.355 278.272 494.761 278.205 491.227 277.646C484.479 276.321 441.221 266.901 381.914 253.544C380.282 252.408 379.033 250.803 378.332 248.942C378.013 248.032 377.673 246.574 378.332 242.297C378.785 239.426 379.483 236.598 380.417 233.844" stroke="#090110" stroke-width="3.03" stroke-miterlimit="10"/>
<path d="M544.406 173.169L499.759 270.107L382.133 243.602C381.059 243.602 379.311 243.487 378.333 242.316C375.793 239.268 380.46 231.531 381.915 229.063C396.02 205.033 415.487 152.517 415.487 152.517L544.406 173.169Z" fill="#1E1E1E" stroke="#090110" stroke-width="3.03" stroke-miterlimit="10"/>
<path d="M531.995 181.69L495.461 257.624L390.801 233.482L421.962 162.542L531.995 181.69Z" fill="#739BFF" stroke="#090110" stroke-width="2.22" stroke-miterlimit="10"/>
<path d="M323.867 199.717H233.914C226.701 199.717 220.852 194.982 220.852 189.14V135.94C220.852 129.711 227.471 124.836 235.129 125.409L319.533 131.795C325.773 132.268 330.719 136.266 331.318 141.316C333.168 156.92 335.018 172.525 336.866 188.13C337.604 194.344 331.572 199.717 323.867 199.717Z" fill="#1E1E1E" stroke="#090110" stroke-width="3.6" stroke-miterlimit="10"/>
<path d="M314.096 191.644H243.685C238.037 191.644 233.459 187.937 233.459 183.363V141.721C233.459 136.842 238.638 133.021 244.634 133.483L310.704 138.497C315.589 138.855 319.461 141.993 319.931 145.951L324.272 182.593C324.848 187.435 320.128 191.644 314.096 191.644Z" fill="#666565" stroke="#090110" stroke-width="3.6" stroke-miterlimit="10"/>
<path d="M293.001 185.136C293.001 185.136 258.924 184.864 258.189 169.018C257.455 153.172 274.307 145.378 274.956 145.378C275.604 145.378 295.293 141.438 298.954 153.974C302.614 166.511 293.001 185.136 293.001 185.136Z" fill="#5F8788" stroke="#5F8788" stroke-width="0.64" stroke-miterlimit="10"/>
<path d="M263.372 154.11C263.372 154.11 271.019 148.325 273.673 152.523C276.327 156.721 275.414 162.416 276.327 162.416C277.241 162.416 282.925 156.739 282.925 156.739C282.925 156.739 291.629 150.783 293 157.455C294.372 164.128 293.094 167.076 292.542 168.559C291.99 170.042 286.682 185.598 267.717 178.362C248.751 171.127 263.372 154.11 263.372 154.11Z" fill="#FFEDBF"/>
<path d="M265.611 161.503L270.465 174.236C270.465 174.236 271.106 177.076 274.498 174.784C277.89 172.492 288.42 163.698 288.42 163.698C288.42 163.698 289.065 159.759 286.225 161.503C283.384 163.247 275.805 167.638 275.805 167.638C275.805 167.638 273.488 169.103 272.664 166.922C271.84 164.741 269.082 160.049 269.082 160.049C269.082 160.049 265.611 158.662 265.611 161.503Z" fill="#5F8788" stroke="#5F8788" stroke-width="0.64" stroke-miterlimit="10"/>
<defs>
<linearGradient id="paint0_linear_377_5242" x1="0.728516" y1="294.5" x2="746.729" y2="294.5" gradientUnits="userSpaceOnUse">
<stop stop-color="#1F8BF7"/>
<stop offset="1" stop-color="#DC33FC"/>
</linearGradient>
</defs>
</svg>
