<svg width="747" height="349" viewBox="0 0 747 349" fill="none" xmlns="http://www.w3.org/2000/svg">
<rect x="0.5" y="2" width="746" height="347" rx="27" fill="#D9D9D9" fill-opacity="0.01"/>
<rect x="0.5" y="217" width="746" height="132" rx="66" fill="url(#paint0_linear_377_5014)"/>
<path d="M603.13 251.706C614.45 251.706 623.627 250.168 623.627 248.27C623.627 246.373 614.45 244.834 603.13 244.834C591.81 244.834 582.633 246.373 582.633 248.27C582.633 250.168 591.81 251.706 603.13 251.706Z" fill="#090110"/>
<path d="M603.133 244.891C615.358 244.891 623.57 246.639 623.57 248.27C623.57 249.901 615.358 251.649 603.133 251.649C590.909 251.649 582.696 249.901 582.696 248.27C582.696 246.639 590.909 244.891 603.133 244.891ZM603.133 244.774C591.779 244.774 582.576 246.338 582.576 248.27C582.576 250.202 591.776 251.766 603.133 251.766C614.491 251.766 623.687 250.202 623.687 248.27C623.687 246.338 614.487 244.774 603.133 244.774Z" fill="#090110"/>
<path d="M410.836 257.261L522.816 286.278L468.07 314.495L366.764 283.734L410.836 257.261Z" fill="#090110" stroke="#090110" stroke-width="1.54" stroke-miterlimit="10"/>
<path d="M540.174 286.097L589.404 314.495L648.917 283.734L569.743 275.277L540.174 286.097Z" fill="#090110" stroke="#090110" stroke-width="1.54" stroke-miterlimit="10"/>
<path d="M596.019 226.974C596.019 226.974 568.775 217.446 569.769 210.953C569.839 210.359 570.086 209.8 570.476 209.347C572.812 206.813 580.189 209.47 584.983 212.386C585.613 212.772 586.045 213.072 586.19 213.164C588.9 215.025 593.439 218.935 598.032 227.388L596.019 226.974Z" fill="#D6B97F" stroke="#090110" stroke-width="0.72" stroke-miterlimit="10"/>
<path d="M581.487 191.694C581.487 191.694 581.632 183.011 587.254 188.864C592.349 194.171 596.195 200.865 599.036 209.269C599.146 209.594 599.224 209.835 599.39 210.33C602.766 220.616 604.418 225.799 602.688 227.731C602.111 228.371 600.919 229.075 598.198 228.792C598.198 228.792 594.458 223.301 590.594 217.29C588.528 214.077 584.105 209.184 582.428 203.236C582.24 202.571 582.102 201.973 582.102 201.973C582.102 201.973 581.395 198.951 581.494 191.712L581.487 191.694Z" fill="#B59968" stroke="#090110" stroke-width="0.72" stroke-miterlimit="10"/>
<path d="M603.064 190.711C603.771 189.504 607.172 183.822 610.229 184.448C611.23 184.653 611.92 185.393 612.532 186.475C614.849 190.58 614.871 195.388 614.262 200.274C613.731 204.52 613.381 204.365 610.589 215.977C608.82 223.407 607.883 227.904 605.342 228.361C604.786 228.441 604.218 228.353 603.711 228.109C597.031 225.311 599.267 204.86 599.508 202.663C599.996 198.169 600.842 194.436 603.064 190.711Z" fill="#D6B97F" stroke="#090110" stroke-width="0.72" stroke-miterlimit="10"/>
<path d="M609.417 228.17C609.417 228.17 623.28 219.961 625.76 212.304C628.24 204.648 627.051 204.166 625.406 204.142C623.761 204.117 616.497 204.966 614.349 207.726C612.201 210.486 602.369 224.235 607.354 228.109C607.648 228.334 608.006 228.461 608.376 228.471C608.746 228.482 609.11 228.377 609.417 228.17Z" fill="#B29769" stroke="#090110" stroke-width="0.72" stroke-miterlimit="10"/>
<path d="M616.676 246.239C608.544 248.113 600.168 248.696 591.855 247.966C588.789 239.552 587.953 234.931 589.347 234.103C589.503 234.026 589.672 233.98 589.846 233.969C590.02 233.957 590.194 233.98 590.359 234.036L617.469 232.89C617.204 237.341 616.94 241.791 616.676 246.239Z" fill="#EA9B65" stroke="#090110" stroke-width="2.16" stroke-miterlimit="10"/>
<path d="M619.503 233.414L587.365 234.33C587.107 234.332 586.857 234.241 586.662 234.072C586.466 233.903 586.339 233.669 586.304 233.414L585.331 226.128C585.312 225.981 585.324 225.832 585.367 225.69C585.409 225.548 585.481 225.416 585.577 225.304C585.673 225.191 585.792 225.1 585.926 225.036C586.06 224.972 586.205 224.937 586.353 224.932L618.905 224.097C619.176 224.091 619.439 224.189 619.641 224.37C619.842 224.552 619.966 224.804 619.988 225.074L620.533 232.278C620.543 232.421 620.524 232.564 620.477 232.699C620.43 232.835 620.356 232.959 620.26 233.065C620.164 233.172 620.047 233.257 619.917 233.317C619.787 233.377 619.646 233.41 619.503 233.414Z" fill="#EA9B65" stroke="#090110" stroke-width="2.16" stroke-miterlimit="10"/>
<path d="M595.946 217.601C595.946 217.601 595.518 216.384 594.906 214.416C594.294 212.449 593.395 209.739 592.319 206.806C591.244 203.872 590.15 201.265 589.11 199.489C588.71 198.776 588.251 198.098 587.737 197.461C587.593 197.285 587.44 197.118 587.277 196.959C587.218 196.9 587.155 196.845 587.09 196.792C587.165 196.829 587.238 196.869 587.309 196.913C587.506 197.035 587.695 197.17 587.875 197.316C588.531 197.848 589.124 198.452 589.644 199.117C590.992 200.762 592.44 203.338 593.536 206.346C594.445 208.916 595.116 211.564 595.539 214.257C595.833 216.316 595.946 217.601 595.946 217.601Z" fill="#D6B97F" stroke="#D6B97F" stroke-width="0.12" stroke-miterlimit="10"/>
<path d="M608.49 222.449C608.49 222.449 609.07 221.299 610.107 219.487C611.496 217.141 613.097 214.927 614.891 212.874C617.014 210.482 619.317 208.628 621.164 207.602C621.878 207.183 622.638 206.847 623.429 206.601C623.639 206.534 623.854 206.482 624.073 206.445C624.145 206.432 624.218 206.423 624.292 206.42L624.09 206.498C623.891 206.583 623.698 206.678 623.51 206.785C622.812 207.177 622.149 207.63 621.529 208.136C619.929 209.389 617.951 211.399 615.867 213.723C613.783 216.048 611.975 218.27 610.641 219.855C609.308 221.44 608.49 222.449 608.49 222.449Z" fill="#D6B97F" stroke="#D6B97F" stroke-width="0.12" stroke-miterlimit="10"/>
<path d="M603.059 220.297C603.059 220.297 604.01 213.603 605.574 205.419C607.138 197.235 608.723 190.665 608.723 190.665C608.723 190.665 607.775 197.355 606.211 205.525C604.647 213.695 603.059 220.297 603.059 220.297Z" fill="#B29769" stroke="#B29769" stroke-width="0.06" stroke-miterlimit="10"/>
<path d="M592.218 222.731C592.218 222.731 588.1 220.513 583.231 217.424C578.363 214.335 574.584 211.575 574.584 211.575C574.584 211.575 578.702 213.797 583.571 216.883C588.44 219.968 592.218 222.731 592.218 222.731Z" fill="#B29769" stroke="#B29769" stroke-width="0.06" stroke-miterlimit="10"/>
<path d="M369.113 276.841C369.113 276.841 363.243 281.759 370.044 283.688C376.844 285.616 461.33 307.252 461.33 307.252C461.33 307.252 463.665 310.649 470.883 307.252C478.101 303.856 510.369 288.641 510.369 288.641C510.369 288.641 514.088 281.618 508.834 284.042C503.579 286.465 466.637 302.794 466.637 302.794L369.113 276.841Z" fill="#473B3F" stroke="#090110" stroke-width="3" stroke-miterlimit="10"/>
<path d="M465.299 303.976L369.197 278.348C369.036 278.304 368.893 278.211 368.788 278.081C368.683 277.951 368.622 277.792 368.613 277.625C368.603 277.459 368.646 277.293 368.736 277.153C368.826 277.012 368.957 276.903 369.112 276.841L408.249 261.468C408.392 261.411 408.55 261.397 408.701 261.429L508.663 282.538C508.826 282.573 508.974 282.658 509.086 282.781C509.199 282.905 509.269 283.061 509.288 283.227C509.307 283.393 509.273 283.56 509.191 283.706C509.109 283.851 508.984 283.967 508.833 284.038L465.851 303.93C465.678 304.012 465.482 304.028 465.299 303.976Z" fill="#6B6868" stroke="#090110" stroke-width="3" stroke-miterlimit="10"/>
<path d="M413.164 269.054L403.586 266.577L408.575 264.029L417.173 265.94L413.164 269.054Z" fill="#473B3F"/>
<path d="M438.75 291.981L429.172 289.505L434.161 286.957L442.759 288.868L438.75 291.981Z" fill="#473B3F"/>
<path d="M444.267 285.733L434.689 283.256L439.678 280.708L448.276 282.619L444.267 285.733Z" fill="#473B3F"/>
<path d="M404.992 273.866L395.414 271.389L400.403 268.841L409.001 270.752L404.992 273.866Z" fill="#473B3F"/>
<path d="M451.064 278.43L441.486 275.953L446.475 273.406L455.073 275.316L451.064 278.43Z" fill="#473B3F"/>
<path d="M469.846 282.318L460.268 279.841L465.256 277.294L473.854 279.205L469.846 282.318Z" fill="#473B3F"/>
<path d="M484.918 287.339L475.34 284.862L480.329 282.315L488.927 284.226L484.918 287.339Z" fill="#473B3F"/>
<path d="M474.092 292.791L458.039 287.703L460.48 284.943L478.101 289.681L474.092 292.791Z" fill="#473B3F"/>
<path d="M435.194 275.277L419.145 270.189L421.586 267.43L439.206 272.167L435.194 275.277Z" fill="#473B3F"/>
<path d="M429.887 280.765L413.838 275.677L416.279 272.917L433.896 277.672L429.887 280.765Z" fill="#473B3F"/>
<path d="M423.623 287.658L407.57 282.57L410.012 279.81L427.636 284.548L423.623 287.658Z" fill="#473B3F"/>
<path d="M463.537 299.015L447.484 293.927L449.926 291.167L467.546 295.905L463.537 299.015Z" fill="#473B3F"/>
<path d="M401.457 280.765L385.404 275.677L387.846 272.917L405.452 277.672L401.457 280.765Z" fill="#473B3F"/>
<path d="M371.789 2H327.898C325.416 2 323.404 4.01182 323.404 6.49353V52.2355C323.404 54.7172 325.416 56.7291 327.898 56.7291H371.789C374.271 56.7291 376.283 54.7172 376.283 52.2355V6.49353C376.283 4.01182 374.271 2 371.789 2Z" fill="#FDCB93" stroke="#090110" stroke-width="3.74" stroke-miterlimit="10"/>
<path d="M362.602 10.3784H339.201C337.85 10.3784 336.756 11.473 336.756 12.8233V14.2775C336.756 15.6278 337.85 16.7224 339.201 16.7224H362.602C363.953 16.7224 365.047 15.6278 365.047 14.2775V12.8233C365.047 11.473 363.953 10.3784 362.602 10.3784Z" fill="#E5A76A"/>
<path d="M357.088 26.1909H331.231C330.559 26.1909 330.014 26.7351 330.014 27.4063C330.014 28.0775 330.559 28.6217 331.231 28.6217H357.088C357.76 28.6217 358.305 28.0775 358.305 27.4063C358.305 26.7351 357.76 26.1909 357.088 26.1909Z" fill="#E5A76A"/>
<path d="M357.088 31.0845H331.231C330.559 31.0845 330.014 31.6286 330.014 32.2998C330.014 32.9711 330.559 33.5152 331.231 33.5152H357.088C357.76 33.5152 358.305 32.9711 358.305 32.2998C358.305 31.6286 357.76 31.0845 357.088 31.0845Z" fill="#E5A76A"/>
<path d="M356.437 35.9741H331.882C330.85 35.9741 330.014 36.8105 330.014 37.8423V39.8414C330.014 40.8732 330.85 41.7096 331.882 41.7096H356.437C357.469 41.7096 358.305 40.8732 358.305 39.8414V37.8423C358.305 36.8105 357.469 35.9741 356.437 35.9741Z" fill="#E5A76A"/>
<path d="M356.823 43.6411H331.496C330.677 43.6411 330.014 44.3049 330.014 45.1236V45.7817C330.014 46.6005 330.677 47.2642 331.496 47.2642H356.823C357.641 47.2642 358.305 46.6005 358.305 45.7817V45.1236C358.305 44.3049 357.641 43.6411 356.823 43.6411Z" fill="#E5A76A"/>
<path d="M370.619 25.5962H363.044C361.959 25.5962 361.08 26.4754 361.08 27.5599V39.2183C361.08 40.3028 361.959 41.182 363.044 41.182H370.619C371.704 41.182 372.583 40.3028 372.583 39.2183V27.5599C372.583 26.4754 371.704 25.5962 370.619 25.5962Z" fill="#E5A76A"/>
<path d="M587.137 89.3833L541.402 87.3169C540.735 87.2864 540.082 87.1199 539.482 86.8277C538.883 86.5355 538.349 86.1237 537.914 85.6177C537.479 85.1117 537.153 84.5221 536.954 83.8852C536.756 83.2483 536.689 82.5775 536.76 81.9141L543.266 20.6677C543.393 19.4669 543.96 18.3555 544.858 17.548C545.755 16.7404 546.92 16.2939 548.128 16.2944H590.781C591.445 16.2939 592.103 16.4289 592.713 16.6911C593.324 16.9533 593.874 17.3372 594.331 17.8194C594.788 18.3016 595.142 18.8718 595.371 19.4954C595.6 20.119 595.7 20.7827 595.664 21.4461C594.524 42.555 593.383 63.6664 592.239 84.7801C592.166 86.0645 591.589 87.2682 590.634 88.13C589.678 88.9919 588.422 89.4422 587.137 89.3833Z" fill="#FFE6BF" stroke="black" stroke-width="2.95" stroke-miterlimit="10"/>
<path d="M579.445 29.3647H557.094C555.249 29.3647 553.754 30.8601 553.754 32.7048V42.9409C553.754 44.7855 555.249 46.2809 557.094 46.2809H579.445C581.29 46.2809 582.785 44.7855 582.785 42.9409V32.7048C582.785 30.8601 581.29 29.3647 579.445 29.3647Z" fill="#889987"/>
<path d="M552.627 57.9253H561.787" stroke="#889987" stroke-width="5.9" stroke-linecap="round" stroke-linejoin="round"/>
<path d="M569.258 58.4204H580.117" stroke="#889987" stroke-width="7.95" stroke-linecap="round" stroke-linejoin="round"/>
<path d="M550.93 66.5405H581.475" stroke="#889987" stroke-width="13.34" stroke-linecap="round" stroke-linejoin="round"/>
<path d="M550.93 75.1562H581.475" stroke="#889987" stroke-width="13.34" stroke-linecap="round" stroke-linejoin="round"/>
<path d="M540.174 286.097C540.174 286.097 602.011 278.101 610.669 271.944L644.678 276.257C626.634 288.868 616.911 293.856 611.288 295.94C609.962 296.432 605.178 298.131 598.3 300.862C590.54 303.944 590.604 304.174 589.026 304.552C581.627 306.322 575.659 302.327 565.529 297.172C557.298 292.993 548.832 289.295 540.174 286.097Z" fill="#F2902F" stroke="#090110" stroke-width="3.26" stroke-miterlimit="10"/>
<path d="M544.695 286.192C544.695 286.192 597.878 278.939 605.323 273.363L634.573 277.255C634.573 277.255 605.853 302.376 588.304 300.688C570.754 299.001 544.695 286.192 544.695 286.192Z" fill="#F2DBC4" stroke="#090110" stroke-width="3.26" stroke-miterlimit="10"/>
<path d="M639.104 272.411C639.104 272.411 585.603 276.303 577.253 272.379L549.301 282.262C549.301 282.262 582.178 300.929 599.069 295.657C615.961 290.385 639.104 272.411 639.104 272.411Z" fill="#EA9C4E" stroke="#090110" stroke-width="3.26" stroke-miterlimit="10"/>
<path d="M634.301 272.553C634.301 272.553 580.8 276.445 572.45 272.521L544.498 282.403C544.498 282.403 577.375 301.071 594.263 295.799C611.151 290.527 634.301 272.553 634.301 272.553Z" fill="#FDCB93" stroke="#090110" stroke-width="3.26" stroke-miterlimit="10"/>
<path d="M163.578 303.212C158.851 302.684 154.092 302.04 149.425 301.297C143.605 300.367 139.118 299.447 130.184 297.614C128.836 297.338 128.73 297.31 128.468 297.243C128.206 297.175 127.654 297.034 124.905 296.429L124.176 296.266C121.346 295.643 120.284 295.41 118.869 294.773C115.175 293.092 114.733 292.119 114.796 291.688C114.903 291.005 116.597 290.219 119.626 290.046C120.688 290.131 157.627 293.213 163.005 295.587H163.033L164.706 295.919C165.906 296.839 168.729 299.458 168.245 301.198C167.933 302.285 166.309 302.978 163.578 303.212Z" fill="#090110"/>
<path d="M119.622 290.332C121.037 290.449 157.583 293.517 162.887 295.849L162.944 295.873H163.008L164.582 296.188C165.704 297.062 168.403 299.567 167.954 301.117C167.678 302.069 166.167 302.688 163.581 302.914C158.864 302.387 154.12 301.743 149.474 301.004C143.661 300.077 139.178 299.157 130.247 297.324C128.906 297.048 128.8 297.023 128.549 296.97C128.241 296.892 127.728 296.758 124.972 296.153L124.239 295.99C121.345 295.353 120.372 295.141 118.999 294.518C115.047 292.721 115.065 291.826 115.079 291.734C115.15 291.27 116.646 290.506 119.622 290.318M119.622 289.745C116.845 289.901 114.669 290.612 114.509 291.631C114.297 292.997 117.775 294.575 118.755 295.021C120.301 295.728 121.402 295.933 124.844 296.691C130.021 297.833 127.24 297.289 130.123 297.879C139.075 299.716 143.569 300.636 149.378 301.563C153.154 302.168 157.955 302.858 163.567 303.484C174.036 302.599 164.819 295.647 164.819 295.647L163.11 295.293C157.583 292.887 119.629 289.759 119.629 289.759L119.622 289.745Z" fill="#090110"/>
<path d="M176.955 310.981C169.938 310.981 166.34 306.279 166.301 306.233C161.1 299.157 164.865 295.321 165.027 295.159C168.357 292.607 171.615 291.298 174.683 291.298C180.514 291.298 184.112 295.926 185.468 297.667C185.659 297.915 185.8 298.095 185.903 298.201C187.187 299.557 190.4 302.33 193.365 303.127C194.646 303.48 194.932 303.774 194.989 303.926C195.045 304.078 194.932 304.255 194.755 304.517C194.631 304.675 194.535 304.853 194.472 305.044C194.207 306.031 190.159 307.737 182.442 310.111C180.667 310.671 178.819 310.964 176.958 310.981H176.955Z" fill="#090110"/>
<path d="M174.684 291.585C180.374 291.585 183.912 296.131 185.242 297.84C185.441 298.099 185.596 298.283 185.695 298.399C186.997 299.772 190.263 302.589 193.292 303.402C194.442 303.71 194.675 303.961 194.707 304.018C194.653 304.142 194.587 304.261 194.509 304.372C194.367 304.556 194.258 304.763 194.187 304.984C194.053 305.483 192.336 306.778 182.348 309.849C180.6 310.405 178.779 310.696 176.945 310.712C170.081 310.712 166.557 306.113 166.525 306.081C161.618 299.404 164.88 295.732 165.198 295.399C168.492 292.876 171.68 291.599 174.674 291.599M174.674 291.029C171.879 291.029 168.592 292.073 164.82 294.971C164.82 294.971 160.634 299.033 166.062 306.417C166.062 306.417 169.688 311.282 176.945 311.282C178.837 311.267 180.715 310.969 182.518 310.397C193.486 307.022 194.566 305.798 194.739 305.133C194.912 304.467 196.437 303.671 193.43 302.865C190.422 302.058 187.153 299.132 186.099 298.021C185.352 297.232 181.481 291.029 174.674 291.029Z" fill="#090110"/>
<path d="M178.548 308.508C177.236 308.512 175.929 308.356 174.656 308.045C173.212 307.691 169.833 306.852 167.77 303.976C166.709 302.479 165.799 300.165 166.217 298.375C166.262 298.178 166.328 297.987 166.415 297.805V297.773C167.367 295.65 169.904 294.907 170.859 294.631C171.735 294.387 172.642 294.268 173.552 294.277C175.628 294.316 177.666 294.844 179.499 295.82C180.95 296.606 181.622 297.331 182.563 298.339C183.697 299.58 184.941 300.715 186.279 301.732C187.668 302.809 189.136 303.781 190.67 304.641C188.225 306.187 183.713 308.508 178.548 308.508Z" fill="#090110"/>
<path d="M173.593 293.973V294.546C175.619 294.593 177.606 295.116 179.392 296.071C180.808 296.832 181.466 297.547 182.382 298.548C183.517 299.801 184.761 300.95 186.101 301.98C187.374 302.968 188.714 303.867 190.11 304.673C187.633 306.198 183.369 308.253 178.547 308.253C177.264 308.256 175.985 308.103 174.74 307.797C173.324 307.443 170.016 306.633 168.017 303.841C166.98 302.398 166.11 300.176 166.506 298.47C166.549 298.292 166.61 298.119 166.69 297.954V297.922C167.585 295.912 170.03 295.204 170.936 294.939C171.787 294.698 172.667 294.579 173.551 294.585V294.012M173.551 294.012C172.613 294.009 171.679 294.138 170.777 294.398C169.829 294.67 167.161 295.459 166.152 297.695C166.053 297.904 165.976 298.122 165.922 298.346C165.48 300.257 166.418 302.638 167.522 304.181C169.645 307.142 173.091 307.995 174.573 308.36C175.875 308.671 177.209 308.822 178.547 308.809C184.59 308.809 189.657 305.66 191.224 304.623C189.552 303.716 187.956 302.676 186.451 301.513C182.534 298.477 182.474 297.087 179.665 295.565C177.789 294.568 175.704 294.027 173.579 293.987L173.551 294.012Z" fill="#090110"/>
<path d="M178.229 306.042C177.359 306.043 176.493 305.938 175.649 305.731C174.69 305.493 172.447 304.942 171.081 303.038C170.374 302.051 169.779 300.526 170.052 299.351C170.083 299.229 170.125 299.111 170.179 298.997C170.813 297.582 172.483 297.104 173.112 296.92C173.688 296.757 174.283 296.675 174.882 296.676C176.26 296.703 177.612 297.053 178.83 297.699C179.607 298.124 180.296 298.692 180.861 299.372C181.616 300.21 182.445 300.977 183.338 301.665C184.235 302.358 185.181 302.986 186.168 303.544C184.523 304.563 181.583 306.042 178.229 306.042Z" fill="#090110"/>
<path d="M174.897 296.949C176.227 296.974 177.533 297.314 178.707 297.939C179.457 298.35 180.122 298.898 180.668 299.556C181.437 300.404 182.28 301.182 183.187 301.881C183.964 302.484 184.779 303.038 185.625 303.54C183.944 304.531 181.255 305.755 178.23 305.755C177.385 305.756 176.542 305.655 175.721 305.455C174.791 305.225 172.618 304.687 171.313 302.872C170.644 301.934 170.081 300.505 170.332 299.418C170.356 299.31 170.393 299.206 170.442 299.107V299.082C171.008 297.816 172.586 297.356 173.184 297.186C173.738 297.027 174.311 296.947 174.886 296.949M174.886 296.379C174.257 296.375 173.63 296.462 173.025 296.637C172.388 296.821 170.594 297.345 169.918 298.849C169.853 298.99 169.801 299.137 169.763 299.287C169.466 300.572 170.095 302.168 170.824 303.204C172.24 305.193 174.564 305.762 175.558 306.01C176.425 306.222 177.313 306.328 178.205 306.325C182.263 306.325 185.664 304.202 186.714 303.516C185.592 302.908 184.521 302.21 183.512 301.428C180.883 299.39 180.844 298.459 178.955 297.437C177.697 296.766 176.298 296.402 174.872 296.375L174.886 296.379Z" fill="#090110"/>
<path d="M115.168 291.946C115.133 291.921 115.106 291.887 115.09 291.847C115.074 291.801 115.074 291.751 115.09 291.705C115.106 291.621 115.153 291.546 115.221 291.493L115.299 291.454C123.03 292.402 130.867 293.421 138.573 294.486C146.566 295.594 154.661 296.779 162.633 298.025C162.584 298.305 162.552 298.589 162.537 298.874C162.519 299.228 162.526 299.582 162.559 299.935L115.168 291.946Z" fill="#090110"/>
<path d="M116.721 291.918C123.977 292.813 131.309 293.772 138.541 294.769C146.438 295.863 154.434 297.03 162.321 298.248C162.293 298.446 162.275 298.647 162.264 298.846C162.25 299.094 162.25 299.343 162.264 299.592L141.888 296.16L116.721 291.914M115.305 291.161C115.226 291.178 115.15 291.211 115.082 291.256C114.957 291.349 114.869 291.483 114.835 291.635C114.808 291.733 114.808 291.837 114.835 291.935C114.88 292.057 114.97 292.157 115.086 292.215L162.922 300.275C162.85 299.807 162.826 299.333 162.852 298.86C162.872 298.489 162.921 298.121 163 297.759C155.002 296.521 146.88 295.332 138.636 294.193C130.763 293.103 122.986 292.089 115.305 291.15V291.161Z" fill="#090110"/>
<path d="M121.084 286.762C121.084 286.762 156.795 289.699 162.004 291.999L163.61 292.317C163.61 292.317 172.282 298.859 162.432 299.691C157.153 299.103 152.635 298.452 149.082 297.883C143.601 297.009 139.387 296.146 130.966 294.419C128.253 293.86 130.867 294.373 125.995 293.301C122.758 292.593 121.721 292.384 120.267 291.726C119.343 291.305 116.074 289.823 116.272 288.542C116.421 287.58 118.47 286.911 121.084 286.762Z" fill="#F25814" stroke="black" stroke-width="1.58" stroke-miterlimit="10"/>
<path d="M164.782 302.44C164.782 302.44 169.937 309.358 180.265 306.184C190.593 303.01 191.588 301.842 191.764 301.23C191.941 300.618 193.364 299.854 190.533 299.107C187.703 298.361 184.624 295.598 183.634 294.55C182.643 293.503 175.804 282.319 163.611 291.681C163.611 291.652 159.673 295.477 164.782 302.44Z" fill="#A38472" stroke="#090110" stroke-width="2.37" stroke-miterlimit="10"/>
<path d="M164.887 294.193C165.831 292.07 168.344 291.362 169.239 291.09C173.237 289.929 177.023 291.907 177.571 292.211C180.218 293.626 180.274 294.953 183.961 297.809C185.376 298.906 186.879 299.884 188.455 300.735C186.668 301.92 180.044 306.014 172.812 304.231C171.418 303.877 168.177 303.084 166.178 300.296C165.138 298.845 164.257 296.606 164.671 294.808C164.72 294.596 164.792 294.389 164.887 294.193Z" fill="#C4AEA3"/>
<path d="M168.41 295.318C169.047 293.902 170.734 293.407 171.332 293.234C174.018 292.455 176.551 293.782 176.926 293.987C178.695 294.95 178.741 295.827 181.215 297.745C182.164 298.481 183.172 299.137 184.229 299.709C183.03 300.505 178.586 303.247 173.731 302.054C172.794 301.821 170.618 301.287 169.277 299.415C168.569 298.438 167.985 296.938 168.265 295.728C168.3 295.587 168.348 295.45 168.41 295.318Z" fill="#EAD7CE"/>
<path d="M116.982 288.086C124.211 288.97 131.53 289.925 138.936 290.948C146.709 292.017 154.355 293.135 161.875 294.303C161.801 294.644 161.755 294.991 161.737 295.339C161.713 295.781 161.734 296.225 161.8 296.663L116.791 289.077C116.681 289.023 116.596 288.929 116.554 288.815C116.526 288.722 116.526 288.624 116.554 288.532C116.586 288.39 116.669 288.264 116.787 288.178C116.845 288.135 116.911 288.104 116.982 288.086Z" fill="#C13600"/>
<path d="M246.675 295.126C221.444 295.126 197.724 293.453 179.884 290.421C162.437 287.452 152.428 283.408 152.428 279.321C152.428 275.235 162.437 271.183 179.884 268.222C197.724 265.19 221.444 263.52 246.675 263.52C271.906 263.52 295.626 265.193 313.462 268.225C330.913 271.194 340.922 275.238 340.922 279.325C340.922 283.411 330.913 287.463 313.462 290.424C295.626 293.453 271.906 295.126 246.675 295.126Z" fill="#090110"/>
<path d="M246.676 263.788C271.893 263.788 295.595 265.458 313.421 268.491C322.061 269.959 328.84 271.675 333.564 273.568C338.199 275.433 340.64 277.421 340.64 279.321C340.64 281.221 338.188 283.213 333.564 285.074C328.84 286.974 322.061 288.683 313.421 290.152C295.595 293.184 271.893 294.854 246.676 294.854C221.459 294.854 197.757 293.184 179.931 290.152C171.291 288.683 164.512 286.967 159.788 285.074C155.153 283.21 152.712 281.221 152.712 279.321C152.712 277.421 155.164 275.429 159.788 273.568C164.512 271.668 171.291 269.959 179.931 268.491C197.757 265.458 221.459 263.788 246.676 263.788ZM246.676 263.247C194.473 263.247 152.156 270.444 152.156 279.321C152.156 288.199 194.47 295.395 246.676 295.395C298.882 295.395 341.196 288.199 341.196 279.321C341.196 270.444 298.879 263.247 246.676 263.247Z" fill="#090110"/>
<path d="M322.028 180.743C322.028 180.743 341.347 172.959 337.384 148.9C337.384 148.9 345.875 33.9784 247.372 52.0941C247.372 52.0941 250.131 41.3379 248.292 41.3379C246.452 41.3379 241.215 49.405 241.215 49.405C241.215 49.405 239.729 52.3063 238.314 49.405C236.899 46.5037 236.899 43.1778 236.899 43.1778C236.899 43.1778 235.908 40.1349 234.493 44.5223C233.64 47.0824 233.542 49.8335 234.209 52.4479L234.493 54.1462C234.493 54.1462 228.69 48.9804 226.567 50.1834C224.444 51.3864 226.284 53.2263 226.284 53.2263L229.327 57.3306C220.662 61.1023 208.204 68.2743 198.474 81.6027C185.074 99.9625 184.958 118.903 184.837 138.285C184.774 148.662 186.083 156.772 190.498 164.531C192.584 168.175 195.195 171.492 198.247 174.375C198.247 174.375 164.429 207.821 172.266 249.608C172.771 252.307 173.436 254.973 174.258 257.593L171.824 250.075C171.824 250.075 158.131 246.731 162.695 257.293C167.259 267.854 183.288 277.354 189.232 280.061C190.573 280.673 192.211 281.529 194.539 282.456C218.882 292.08 257.095 287.679 259.968 287.314C294.21 283.005 311.332 280.85 321.674 270.472C336.435 255.669 337.617 235.511 337.95 229.854C339.475 203.88 325.842 185.545 322.028 180.743Z" fill="#0D3E66" stroke="black" stroke-width="5" stroke-miterlimit="10"/>
<path d="M254.188 287.891L228.083 288.461C228.083 288.461 197.838 274.152 206.755 239.867C215.671 205.582 219.981 192.207 229.498 184.883C225.012 182.538 220.83 179.65 217.047 176.285C214.383 173.911 209.108 169.209 205.69 162.699C199.477 150.846 202.152 138.189 203.461 133.332C203.461 133.332 203.885 106.123 224.265 95.2957C226.887 93.9052 233.574 90.3706 241.9 91.5311C253.495 93.1445 260.327 102.754 265.585 110.153C273.588 121.411 276.436 133.038 277.491 141.098C277.491 141.098 280.629 103.363 295.49 93.7036C310.35 84.0442 327.065 96.3714 334.41 111.225C334.41 111.225 338.627 136.7 337.541 144.442L337.722 151.497C337.722 151.497 337.913 157.664 337.651 159.32C337.389 160.976 335.001 168.48 333.932 170.101C332.864 171.721 328.299 176.696 328.299 176.696L322.019 180.744C322.019 180.744 342.948 206.845 337.474 235.405C332 263.966 322.592 269.535 322.592 269.535C320.155 271.917 317.462 274.021 314.561 275.808C306.914 280.503 299.827 281.71 294.8 282.531C278.743 285.103 264.732 286.78 254.188 287.891Z" fill="#BAEAFF" stroke="black" stroke-width="3" stroke-linejoin="round"/>
<path d="M348.778 201.124C348.778 201.124 353.873 189.872 341.772 188.811C329.672 187.75 247.09 191.995 247.09 191.995C247.09 191.995 237.183 191.5 234.211 200.558C231.239 209.616 220.695 249.314 220.695 249.314C220.695 249.314 215.6 261.486 228.196 264.104C240.792 266.722 304.267 259.434 304.267 259.434C304.267 259.434 330.379 263.892 334.625 249.739L338.871 235.586L348.778 201.124Z" fill="#424242" stroke="black" stroke-miterlimit="10"/>
<path d="M350.687 213.861C350.687 213.861 348.635 226.953 346.158 229.429C343.682 231.906 338.799 225.184 338.799 223.344C338.799 221.504 341.488 206.219 350.687 213.861Z" fill="#0D3E66" stroke="black" stroke-width="4" stroke-miterlimit="10"/>
<path d="M211.566 195.604C218.621 203.794 227.17 210.567 236.758 215.56C237.844 216.207 240.105 217.774 240.675 220.371C241.481 224.065 238.329 227.367 236.758 229.005C230.417 235.642 218.536 238.806 207.649 236.081C196.298 233.251 189.877 225.01 187.789 222.052" fill="#0D3E66"/>
<path d="M188.102 221.847C188.102 221.847 188.328 222.13 188.777 222.657C189.227 223.184 189.903 223.942 190.815 224.872C191.922 225.998 193.097 227.053 194.336 228.032C195.958 229.319 197.687 230.465 199.505 231.457C204.183 234.007 209.424 235.345 214.751 235.349H215.873L217.009 235.289C217.773 235.267 218.534 235.161 219.309 235.076C219.698 235.045 220.08 234.97 220.469 234.907L221.633 234.708L222.797 234.443L223.381 234.309C223.576 234.263 223.767 234.199 223.961 234.146L225.125 233.81C225.511 233.686 225.89 233.541 226.275 233.406C227.057 233.159 227.793 232.798 228.557 232.486C230.065 231.788 231.505 230.953 232.86 229.992C234.193 229.008 235.424 227.891 236.533 226.659C237.622 225.46 238.518 224.182 238.932 222.926C239.143 222.344 239.227 221.722 239.178 221.105C239.128 220.487 238.947 219.887 238.645 219.346C237.948 218.186 236.958 217.229 235.775 216.572C234.431 215.804 233.083 214.979 231.827 214.162C230.571 213.345 229.35 212.506 228.228 211.685C226.124 210.136 224.099 208.483 222.16 206.732C219.369 204.214 216.767 201.494 214.376 198.594C213.534 197.568 212.908 196.75 212.487 196.195L211.854 195.342L212.604 196.092C213.095 196.584 213.824 197.302 214.783 198.215C217.48 200.754 220.322 203.136 223.293 205.348C225.171 206.739 227.273 208.179 229.598 209.644C230.758 210.351 231.975 211.094 233.246 211.809C233.879 212.163 234.526 212.517 235.188 212.871L236.189 213.394L237.233 213.925C238.053 214.341 238.819 214.854 239.515 215.453C240.273 216.093 240.927 216.846 241.454 217.686C242.019 218.606 242.381 219.636 242.516 220.708C242.644 221.79 242.547 222.887 242.233 223.931C241.624 225.973 240.464 227.604 239.204 229.03C237.946 230.476 236.534 231.781 234.993 232.922C233.44 234.026 231.78 234.974 230.04 235.752C229.173 236.106 228.331 236.46 227.454 236.739C227.018 236.881 226.59 237.033 226.155 237.157L224.849 237.511C224.634 237.564 224.418 237.627 224.202 237.673L223.547 237.801L222.252 238.052L220.954 238.225C220.526 238.282 220.101 238.342 219.673 238.363C218.817 238.42 217.975 238.494 217.136 238.48H215.891L214.674 238.399C211.6 238.223 208.567 237.611 205.665 236.58C203.166 235.685 200.789 234.481 198.589 232.996C196.797 231.786 195.124 230.408 193.593 228.881C192.447 227.742 191.383 226.524 190.408 225.237C189.612 224.175 189.036 223.333 188.671 222.742C188.307 222.151 188.102 221.847 188.102 221.847Z" fill="black" stroke="black" stroke-width="0.33" stroke-miterlimit="10"/>
<path d="M336.678 202.397C336.678 202.397 338.518 199.991 334.697 199.496C330.876 199 255.653 203.034 255.653 203.034C255.653 203.034 252.469 202.539 251.62 206.431C250.771 210.323 240.297 249.951 240.297 249.951C240.297 249.951 239.024 253.135 242.562 253.135C246.1 253.135 313.255 248.818 313.255 248.818L318.775 248.111C318.775 248.111 322.667 248.465 323.799 244.431C324.931 240.397 332.079 217.824 332.079 217.824L336.678 202.397Z" fill="#191919" stroke="black" stroke-width="3" stroke-miterlimit="10"/>
<path d="M343.823 122.434L336.449 123.63L338.728 130.571L344.601 129.085C344.601 129.085 348.069 125.123 343.823 122.434Z" fill="black" stroke="black" stroke-width="3" stroke-miterlimit="10"/>
<path d="M288.585 133.332C288.585 133.332 279.276 124.911 270.855 133.332" stroke="black" stroke-width="9" stroke-miterlimit="10"/>
<path d="M219.135 128.137C214.444 127.051 210.789 126.014 208.354 125.278C204.993 124.263 202.339 123.339 198.996 124.111C198.709 124.174 195.323 124.981 195.291 126.234C195.27 127.026 196.6 127.72 197.697 128.141C203.5 130.363 217.741 133.335 217.741 133.335L219.135 128.137Z" fill="black" stroke="black" stroke-width="3.48" stroke-miterlimit="10"/>
<path d="M307.221 152.72C310.299 152.72 312.794 149.56 312.794 145.662C312.794 141.763 310.299 138.603 307.221 138.603C304.143 138.603 301.648 141.763 301.648 145.662C301.648 149.56 304.143 152.72 307.221 152.72Z" fill="black" stroke="black" stroke-width="3.87" stroke-miterlimit="10"/>
<path d="M246.379 153.57C249.457 153.57 251.952 150.41 251.952 146.511C251.952 142.613 249.457 139.453 246.379 139.453C243.302 139.453 240.807 142.613 240.807 146.511C240.807 150.41 243.302 153.57 246.379 153.57Z" fill="black" stroke="black" stroke-width="3.87" stroke-miterlimit="10"/>
<path d="M322.234 168.961C327.66 168.961 332.059 164.323 332.059 158.602C332.059 152.88 327.66 148.242 322.234 148.242C316.807 148.242 312.408 152.88 312.408 158.602C312.408 164.323 316.807 168.961 322.234 168.961Z" fill="#F4A127" stroke="black" stroke-width="2" stroke-miterlimit="10"/>
<path d="M229.501 170.872C234.928 170.872 239.327 166.233 239.327 160.512C239.327 154.79 234.928 150.152 229.501 150.152C224.075 150.152 219.676 154.79 219.676 160.512C219.676 166.233 224.075 170.872 229.501 170.872Z" fill="#F4A127" stroke="black" stroke-width="2" stroke-miterlimit="10"/>
<path d="M269.734 157.25C269.734 157.25 285.656 164.397 292.308 160.009C298.96 155.622 297.463 150.354 295.351 148.241C293.238 146.129 287.354 139.205 280.561 140.478C279.28 140.719 276.573 140.885 274.065 142.831C270.187 145.839 268.584 151.397 269.734 157.25Z" fill="#FA8510" stroke="black" stroke-width="2" stroke-miterlimit="10"/>
<path d="M284.76 164.503C284.76 164.503 276.268 167.688 272.022 161.956L269.967 157.356C269.967 157.356 280.581 162.483 287.895 161.368C287.906 161.372 287.718 163.123 284.76 164.503Z" fill="#FA8510" stroke="black" stroke-width="2" stroke-miterlimit="10"/>
<path d="M307.222 285.298C311.114 288.755 325.214 282.74 332.538 272.029C336.452 266.308 339.53 257.643 336.784 255.191C334.955 253.556 330.387 254.522 327.875 256.691C326.141 258.192 324.889 260.697 324.945 260.746C325.002 260.796 325.062 260.725 325.062 260.725C325.062 260.725 328.087 251.172 323.629 251.437C319.574 251.681 315.799 255.683 315.137 256.426C311.981 259.964 310.647 263.241 308.026 269.669C306.444 273.562 306.083 275.182 305.924 276.746C305.683 279.088 305.237 283.536 307.222 285.298Z" fill="#FA8510" stroke="black" stroke-width="2" stroke-miterlimit="10"/>
<path d="M241.358 291.985C241.358 291.985 251.902 289.013 257.422 276.983C262.941 264.953 259.934 259.893 259.262 259.221C258.589 258.549 256.926 256.32 252.751 258.549C248.576 260.778 248.576 264.673 248.576 264.673C248.529 263.265 248.334 261.865 247.992 260.498C247.854 259.968 246.577 256.96 244.33 256.32C241.323 255.47 237.983 259.377 236.716 260.859C231.904 266.485 231.384 273.215 231.136 277.054C230.783 282.524 230.489 287.198 233.723 289.996C236.242 292.179 239.656 292.14 241.358 291.985Z" fill="#FA8510" stroke="black" stroke-width="2" stroke-miterlimit="10"/>
<path d="M314.266 163.336C328.441 163.336 339.932 150.916 339.932 135.596C339.932 120.276 328.441 107.856 314.266 107.856C300.091 107.856 288.6 120.276 288.6 135.596C288.6 150.916 300.091 163.336 314.266 163.336Z" stroke="black" stroke-width="9" stroke-miterlimit="10"/>
<path d="M244.118 164.984C258.891 164.984 270.867 152.834 270.867 137.846C270.867 122.858 258.891 110.708 244.118 110.708C229.345 110.708 217.369 122.858 217.369 137.846C217.369 152.834 229.345 164.984 244.118 164.984Z" stroke="black" stroke-width="9" stroke-miterlimit="10"/>
<path d="M540.176 277.301L608.608 253.135L435.968 204.142L416.059 248.27L540.176 277.301Z" fill="#090110" stroke="#090110" stroke-width="1.54" stroke-miterlimit="10"/>
<path d="M571.092 219.48L582.442 250.715C582.442 250.715 584.431 256.288 580.45 257.084C576.47 257.88 555.113 255.757 555.113 255.757L571.092 219.48Z" fill="#1E1E1E" stroke="#090110" stroke-width="3.03" stroke-miterlimit="10"/>
<path d="M575.573 170.129C575.573 170.129 585.834 170.086 587.741 175.139C588.449 177.025 587.741 178.925 587.479 179.611C565.32 237.864 559.198 247.874 546.953 267.89C546.03 269.461 544.774 270.81 543.273 271.842C541.33 273.151 539.232 273.685 536.48 273.993C532.971 274.417 529.42 274.351 525.929 273.799C519.263 272.489 476.532 263.184 417.946 249.99C416.333 248.868 415.1 247.282 414.408 245.443C414.093 244.545 413.757 243.105 414.408 238.88C414.855 236.043 415.544 233.249 416.467 230.53" fill="#666565"/>
<path d="M575.573 170.129C575.573 170.129 585.834 170.086 587.741 175.139C588.449 177.025 587.741 178.925 587.479 179.611C565.32 237.864 559.198 247.874 546.953 267.89C546.03 269.461 544.774 270.81 543.273 271.842C541.33 273.151 539.232 273.685 536.48 273.993C532.971 274.417 529.42 274.351 525.929 273.799C519.263 272.489 476.532 263.184 417.946 249.99C416.333 248.868 415.1 247.282 414.408 245.443C414.093 244.545 413.757 243.105 414.408 238.88C414.855 236.043 415.544 233.249 416.467 230.53" stroke="#090110" stroke-width="3.03" stroke-miterlimit="10"/>
<path d="M578.461 170.592L534.357 266.35L418.162 240.168C417.1 240.168 415.374 240.054 414.408 238.897C411.899 235.886 416.51 228.244 417.946 225.806C431.88 202.068 451.11 150.191 451.11 150.191L578.461 170.592Z" fill="#1E1E1E" stroke="#090110" stroke-width="3.03" stroke-miterlimit="10"/>
<path d="M566.201 179.01L530.111 254.02L426.725 230.172L457.507 160.094L566.201 179.01Z" fill="#739BFF" stroke="#090110" stroke-width="2.22" stroke-miterlimit="10"/>
<defs>
<linearGradient id="paint0_linear_377_5014" x1="0.5" y1="283" x2="746.5" y2="283" gradientUnits="userSpaceOnUse">
<stop stop-color="#1F8BF7"/>
<stop offset="1" stop-color="#DC33FC"/>
</linearGradient>
</defs>
</svg>
