<svg width="139" height="140" viewBox="0 0 139 140" fill="none" xmlns="http://www.w3.org/2000/svg">
<circle cx="69.5" cy="69.585" r="67" stroke="url(#paint0_linear_100_1557)" stroke-width="5"/>
<path fill-rule="evenodd" clip-rule="evenodd" d="M99.4503 48.5956C100.332 49.4773 100.827 50.673 100.827 51.9196C100.827 53.1663 100.332 54.3619 99.4503 55.2436L64.2107 90.4832C63.745 90.949 63.1921 91.3185 62.5836 91.5706C61.9751 91.8227 61.3229 91.9525 60.6642 91.9525C60.0055 91.9525 59.3533 91.8227 58.7448 91.5706C58.1363 91.3185 57.5834 90.949 57.1177 90.4832L39.6092 72.9778C39.1601 72.5441 38.8019 72.0253 38.5555 71.4517C38.3091 70.8781 38.1794 70.2612 38.174 69.6369C38.1686 69.0126 38.2875 68.3935 38.5239 67.8157C38.7603 67.2379 39.1094 66.713 39.5509 66.2716C39.9923 65.8301 40.5173 65.481 41.0951 65.2446C41.6729 65.0082 42.292 64.8893 42.9162 64.8947C43.5405 64.9001 44.1574 65.0298 44.731 65.2762C45.3046 65.5226 45.8234 65.8808 46.2571 66.3298L60.6626 80.7353L92.7992 48.5956C93.2358 48.1587 93.7542 47.8122 94.3249 47.5757C94.8955 47.3392 95.5071 47.2175 96.1248 47.2175C96.7424 47.2175 97.354 47.3392 97.9247 47.5757C98.4953 47.8122 99.0137 48.1587 99.4503 48.5956Z" fill="white"/>
<defs>
<linearGradient id="paint0_linear_100_1557" x1="157.955" y1="0.0849682" x2="-4.70741e-06" y2="139.085" gradientUnits="userSpaceOnUse">
<stop stop-color="#1F8BF7"/>
<stop offset="1" stop-color="#DC33FC"/>
</linearGradient>
</defs>
</svg>
