<svg width="1080" height="1080" viewBox="0 0 1080 1080" fill="none" xmlns="http://www.w3.org/2000/svg">
<rect width="1080" height="1080" fill="#DC33FC"/>
<rect width="1080" height="1080" fill="url(#paint0_linear_701_3407)"/>
<path d="M720 380H660V360C660 354.696 657.893 349.609 654.142 345.858C650.391 342.107 645.304 340 640 340H440C434.696 340 429.609 342.107 425.858 345.858C422.107 349.609 420 354.696 420 360V380H360C354.696 380 349.609 382.107 345.858 385.858C342.107 389.609 340 394.696 340 400V460C340 546.2 376 598.2 436.4 600C445.213 615.239 457.271 628.353 471.718 638.411C486.166 648.469 502.649 655.225 520 658.2V700H480V740H600V700H560V658.2C577.351 655.225 593.834 648.469 608.282 638.411C622.729 628.353 634.787 615.239 643.6 600C703.6 598 740 546 740 460V400C740 394.696 737.893 389.609 734.142 385.858C730.391 382.107 725.304 380 720 380ZM380 460V420H420V556.6C384.4 541.6 380 486 380 460ZM660 556.6V420H700V460C700 486 695.6 541.6 660 556.6Z" fill="white"/>
<path d="M200.596 170.488L219.796 155.688L238.996 170.488L231.796 146.088L249.796 133.288H227.396L219.796 108.488L212.196 133.288H189.796L207.796 146.088L200.596 170.488ZM219.796 165.848L195.58 184.288C194.727 184.874 193.871 185.133 193.012 185.064C192.153 184.994 191.364 184.752 190.644 184.336C189.924 183.92 189.377 183.293 189.004 182.456C188.631 181.618 188.623 180.73 188.98 179.792L198.228 149.408L175.228 132.808C174.311 132.274 173.737 131.573 173.508 130.704C173.279 129.829 173.329 128.968 173.66 128.12C173.985 127.266 174.484 126.581 175.156 126.064C175.823 125.546 176.623 125.288 177.556 125.288H206.5L215.876 94.2717C216.212 93.2957 216.727 92.5491 217.42 92.0317C218.113 91.5037 218.903 91.2397 219.788 91.2397C220.673 91.2397 221.463 91.5011 222.156 92.0237C222.849 92.5464 223.364 93.2957 223.7 94.2717L233.076 125.288H262.02C262.959 125.288 263.761 125.546 264.428 126.064C265.1 126.581 265.599 127.266 265.924 128.12C266.255 128.973 266.305 129.834 266.076 130.704C265.847 131.573 265.273 132.277 264.356 132.816L241.356 149.408L250.604 179.792C250.961 180.736 250.953 181.624 250.58 182.456C250.207 183.288 249.66 183.914 248.94 184.336C248.22 184.757 247.431 185 246.572 185.064C245.713 185.128 244.857 184.869 244.004 184.288L219.796 165.848Z" fill="white"/>
<path d="M770.034 788.807L794.215 790.526L798.708 814.348L809.561 791.339L831.515 793.753L814.789 778.854L825.609 755.281L803.439 768.744L786.712 753.845L791.639 775.376L770.034 788.807ZM787.457 798.112L757.109 795.775C756.082 795.646 755.271 795.269 754.675 794.646C754.08 794.024 753.652 793.317 753.391 792.528C753.131 791.738 753.139 790.907 753.417 790.033C753.695 789.16 754.28 788.491 755.171 788.028L782.287 771.491L776.153 743.797C775.823 742.789 775.861 741.884 776.268 741.082C776.679 740.276 777.29 739.667 778.101 739.253C778.911 738.833 779.739 738.653 780.585 738.713C781.427 738.77 782.196 739.109 782.893 739.73L804.507 758.982L832.138 742.058C833.038 741.553 833.919 741.337 834.781 741.412C835.649 741.479 836.414 741.807 837.076 742.396C837.737 742.985 838.152 743.705 838.322 744.556C838.492 745.408 838.378 746.31 837.98 747.262L824.351 776.658L845.964 795.91C846.665 796.535 847.093 797.262 847.246 798.091C847.404 798.925 847.321 799.768 846.996 800.622C846.675 801.479 846.14 802.156 845.391 802.652C844.641 803.149 843.745 803.293 842.702 803.085L814.491 800.177L801.187 829.016C800.826 829.959 800.23 830.617 799.397 830.99C798.565 831.363 797.74 831.467 796.922 831.303C796.104 831.138 795.354 830.795 794.67 830.271C793.986 829.748 793.519 828.985 793.268 827.984L787.457 798.112Z" fill="white"/>
<path d="M309.688 879.309C310.801 877.339 312.419 876.059 314.541 875.47C316.663 874.88 318.707 875.143 320.672 876.257L336.238 885.218C338.208 886.331 339.478 887.916 340.049 889.971C340.62 892.027 340.349 894.04 339.236 896.009C338.122 897.979 336.538 899.25 334.482 899.821C332.427 900.392 330.414 900.121 328.444 899.007L312.739 890.293C310.769 889.179 309.49 887.564 308.902 885.447C308.314 883.33 308.576 881.284 309.688 879.309ZM291.701 784.67C293.671 785.783 294.951 787.401 295.54 789.524C296.13 791.646 295.867 793.689 294.752 795.654L285.984 811.167C284.871 813.137 283.256 814.416 281.139 815.004C279.021 815.592 276.975 815.33 275 814.218C273.025 813.106 271.746 811.491 271.163 809.372C270.58 807.254 270.842 805.208 271.949 803.234L280.91 787.668C282.023 785.698 283.607 784.427 285.663 783.856C287.718 783.285 289.731 783.557 291.701 784.67ZM168.371 818.93C169.484 816.96 171.102 815.68 173.225 815.09C175.347 814.501 177.39 814.764 179.355 815.878L194.921 824.839C196.891 825.952 198.162 827.537 198.733 829.592C199.304 831.648 199.032 833.66 197.919 835.63C196.806 837.6 195.19 838.879 193.073 839.467C190.956 840.055 188.91 839.794 186.935 838.682L171.422 829.914C169.452 828.8 168.173 827.185 167.585 825.068C166.997 822.951 167.259 820.905 168.371 818.93ZM201.774 909.286C203.744 910.399 205.023 912.017 205.613 914.139C206.203 916.262 205.94 918.305 204.825 920.27L196.057 935.783C194.944 937.753 193.329 939.032 191.211 939.62C189.094 940.208 187.048 939.946 185.073 938.834C183.098 937.722 181.819 936.107 181.236 933.988C180.653 931.869 180.915 929.823 182.022 927.85L190.983 912.284C192.096 910.314 193.68 909.043 195.736 908.472C197.791 907.901 199.804 908.172 201.774 909.286ZM260.602 911.833L233.966 939.99C232.803 941.281 231.433 942.077 229.855 942.377C228.278 942.677 226.786 942.538 225.38 941.96C223.974 941.382 222.763 940.508 221.747 939.341C220.73 938.173 220.182 936.698 220.102 934.915L218.464 896.139L183.338 879.535C181.732 878.735 180.565 877.64 179.835 876.249C179.105 874.857 178.799 873.387 178.917 871.837C179.034 870.288 179.484 868.918 180.266 867.726C181.047 866.535 182.3 865.564 184.023 864.814L220.498 851.153L225.422 812.837C225.636 811.117 226.312 809.684 227.449 808.538C228.587 807.392 229.859 806.623 231.267 806.232C232.675 805.841 234.162 805.843 235.728 806.238C237.293 806.634 238.611 807.513 239.682 808.876L263.663 839.163L301.958 832.054C303.828 831.811 305.401 831.996 306.679 832.61C307.956 833.224 309.048 834.166 309.955 835.437C310.861 836.707 311.361 838.126 311.453 839.695C311.546 841.263 311.107 842.802 310.137 844.312L288.608 876.654L307.204 910.719C308.054 912.282 308.345 913.829 308.078 915.359C307.811 916.889 307.224 918.261 306.316 919.477C305.408 920.692 304.202 921.581 302.697 922.143C301.193 922.704 299.608 922.729 297.944 922.217L260.602 911.833Z" fill="white"/>
<path d="M899.687 198.497C900.8 196.527 902.418 195.248 904.54 194.658C906.662 194.069 908.706 194.331 910.671 195.446L926.237 204.407C928.207 205.52 929.477 207.104 930.048 209.16C930.619 211.215 930.348 213.228 929.235 215.198C928.121 217.168 926.537 218.438 924.481 219.009C922.426 219.58 920.413 219.309 918.443 218.196L902.738 209.481C900.768 208.368 899.489 206.753 898.901 204.635C898.313 202.518 898.575 200.472 899.687 198.497ZM881.7 103.859C883.67 104.972 884.95 106.59 885.539 108.712C886.129 110.834 885.866 112.878 884.751 114.843L875.983 130.355C874.87 132.325 873.255 133.604 871.138 134.192C869.02 134.78 866.974 134.518 864.999 133.407C863.024 132.295 861.745 130.679 861.162 128.561C860.579 126.442 860.841 124.396 861.948 122.422L870.909 106.856C872.022 104.886 873.607 103.616 875.662 103.045C877.718 102.474 879.73 102.745 881.7 103.859ZM758.37 138.118C759.483 136.148 761.101 134.869 763.224 134.279C765.346 133.689 767.389 133.952 769.354 135.067L784.92 144.027C786.89 145.141 788.161 146.725 788.732 148.781C789.303 150.836 789.032 152.849 787.918 154.819C786.805 156.789 785.189 158.068 783.072 158.656C780.955 159.244 778.909 158.982 776.934 157.87L761.421 149.102C759.451 147.989 758.172 146.374 757.584 144.256C756.996 142.139 757.258 140.093 758.37 138.118ZM791.773 228.474C793.743 229.588 795.022 231.206 795.612 233.328C796.202 235.45 795.939 237.494 794.824 239.458L786.056 254.971C784.943 256.941 783.328 258.22 781.21 258.808C779.093 259.396 777.047 259.134 775.072 258.022C773.097 256.91 771.818 255.295 771.235 253.177C770.652 251.058 770.914 249.012 772.021 247.038L780.982 231.472C782.095 229.502 783.679 228.232 785.735 227.661C787.79 227.09 789.803 227.361 791.773 228.474ZM850.601 231.022L823.965 259.178C822.802 260.47 821.432 261.266 819.854 261.566C818.277 261.865 816.785 261.726 815.379 261.148C813.973 260.57 812.762 259.697 811.746 258.529C810.729 257.361 810.181 255.886 810.101 254.104L808.463 215.328L773.337 198.723C771.731 197.924 770.564 196.828 769.834 195.437C769.104 194.046 768.798 192.575 768.916 191.026C769.033 189.476 769.483 188.106 770.265 186.915C771.046 185.723 772.299 184.753 774.022 184.003L810.497 170.342L815.421 132.026C815.635 130.306 816.311 128.873 817.448 127.727C818.586 126.58 819.858 125.812 821.266 125.42C822.674 125.029 824.161 125.031 825.727 125.427C827.292 125.822 828.61 126.702 829.681 128.065L853.662 158.351L891.957 151.242C893.827 150.999 895.4 151.185 896.678 151.799C897.955 152.413 899.047 153.355 899.954 154.625C900.86 155.895 901.36 157.315 901.452 158.883C901.545 160.452 901.106 161.991 900.136 163.5L878.607 195.842L897.203 229.908C898.053 231.471 898.344 233.017 898.077 234.547C897.81 236.077 897.223 237.45 896.315 238.665C895.407 239.881 894.201 240.769 892.696 241.331C891.192 241.893 889.607 241.918 887.943 241.406L850.601 231.022Z" fill="white"/>
<defs>
<linearGradient id="paint0_linear_701_3407" x1="540" y1="0" x2="540" y2="1080" gradientUnits="userSpaceOnUse">
<stop stop-color="#1F8BF7"/>
<stop offset="1" stop-color="#DC33FC"/>
</linearGradient>
</defs>
</svg>
