<svg width="139" height="139" viewBox="0 0 139 139" fill="none" xmlns="http://www.w3.org/2000/svg">
<circle cx="69.5" cy="69.5" r="67" stroke="url(#paint0_linear_83_5870)" stroke-width="5"/>
<path d="M77.9462 40H51.6154C50.3913 40 49.2174 40.4863 48.3518 41.3518C47.4863 42.2174 47 43.3913 47 44.6154V95.3846C47 96.6087 47.4863 97.7826 48.3518 98.6482C49.2174 99.5137 50.3913 100 51.6154 100H88.5385C89.7625 100 90.9365 99.5137 91.802 98.6482C92.6676 97.7826 93.1538 96.6087 93.1538 95.3846V55.1846L77.9462 40ZM68.9231 86.1538H57.3846C57.0786 86.1538 56.7851 86.0323 56.5687 85.8159C56.3523 85.5995 56.2308 85.306 56.2308 85C56.2308 84.694 56.3523 84.4005 56.5687 84.1841C56.7851 83.9677 57.0786 83.8462 57.3846 83.8462H68.9231C69.2291 83.8462 69.5226 83.9677 69.739 84.1841C69.9554 84.4005 70.0769 84.694 70.0769 85C70.0769 85.306 69.9554 85.5995 69.739 85.8159C69.5226 86.0323 69.2291 86.1538 68.9231 86.1538ZM68.9231 79.2308H57.3846C57.0786 79.2308 56.7851 79.1092 56.5687 78.8928C56.3523 78.6764 56.2308 78.3829 56.2308 78.0769C56.2308 77.7709 56.3523 77.4774 56.5687 77.261C56.7851 77.0446 57.0786 76.9231 57.3846 76.9231H68.9231C69.2291 76.9231 69.5226 77.0446 69.739 77.261C69.9554 77.4774 70.0769 77.7709 70.0769 78.0769C70.0769 78.3829 69.9554 78.6764 69.739 78.8928C69.5226 79.1092 69.2291 79.2308 68.9231 79.2308ZM68.9231 72.3077H57.3846C57.0786 72.3077 56.7851 72.1861 56.5687 71.9697C56.3523 71.7534 56.2308 71.4599 56.2308 71.1538C56.2308 70.8478 56.3523 70.5543 56.5687 70.338C56.7851 70.1216 57.0786 70 57.3846 70H68.9231C69.2291 70 69.5226 70.1216 69.739 70.338C69.9554 70.5543 70.0769 70.8478 70.0769 71.1538C70.0769 71.4599 69.9554 71.7534 69.739 71.9697C69.5226 72.1861 69.2291 72.3077 68.9231 72.3077ZM68.9231 65.3846H57.3846C57.0786 65.3846 56.7851 65.2631 56.5687 65.0467C56.3523 64.8303 56.2308 64.5368 56.2308 64.2308C56.2308 63.9247 56.3523 63.6313 56.5687 63.4149C56.7851 63.1985 57.0786 63.0769 57.3846 63.0769H68.9231C69.2291 63.0769 69.5226 63.1985 69.739 63.4149C69.9554 63.6313 70.0769 63.9247 70.0769 64.2308C70.0769 64.5368 69.9554 64.8303 69.739 65.0467C69.5226 65.2631 69.2291 65.3846 68.9231 65.3846ZM82.7692 86.1538H75.8462C75.5401 86.1538 75.2466 86.0323 75.0303 85.8159C74.8139 85.5995 74.6923 85.306 74.6923 85C74.6923 84.694 74.8139 84.4005 75.0303 84.1841C75.2466 83.9677 75.5401 83.8462 75.8462 83.8462H82.7692C83.0752 83.8462 83.3687 83.9677 83.5851 84.1841C83.8015 84.4005 83.9231 84.694 83.9231 85C83.9231 85.306 83.8015 85.5995 83.5851 85.8159C83.3687 86.0323 83.0752 86.1538 82.7692 86.1538ZM82.7692 79.2308H75.8462C75.5401 79.2308 75.2466 79.1092 75.0303 78.8928C74.8139 78.6764 74.6923 78.3829 74.6923 78.0769C74.6923 77.7709 74.8139 77.4774 75.0303 77.261C75.2466 77.0446 75.5401 76.9231 75.8462 76.9231H82.7692C83.0752 76.9231 83.3687 77.0446 83.5851 77.261C83.8015 77.4774 83.9231 77.7709 83.9231 78.0769C83.9231 78.3829 83.8015 78.6764 83.5851 78.8928C83.3687 79.1092 83.0752 79.2308 82.7692 79.2308ZM82.7692 72.3077H75.8462C75.5401 72.3077 75.2466 72.1861 75.0303 71.9697C74.8139 71.7534 74.6923 71.4599 74.6923 71.1538C74.6923 70.8478 74.8139 70.5543 75.0303 70.338C75.2466 70.1216 75.5401 70 75.8462 70H82.7692C83.0752 70 83.3687 70.1216 83.5851 70.338C83.8015 70.5543 83.9231 70.8478 83.9231 71.1538C83.9231 71.4599 83.8015 71.7534 83.5851 71.9697C83.3687 72.1861 83.0752 72.3077 82.7692 72.3077ZM82.7692 65.3846H75.8462C75.5401 65.3846 75.2466 65.2631 75.0303 65.0467C74.8139 64.8303 74.6923 64.5368 74.6923 64.2308C74.6923 63.9247 74.8139 63.6313 75.0303 63.4149C75.2466 63.1985 75.5401 63.0769 75.8462 63.0769H82.7692C83.0752 63.0769 83.3687 63.1985 83.5851 63.4149C83.8015 63.6313 83.9231 63.9247 83.9231 64.2308C83.9231 64.5368 83.8015 64.8303 83.5851 65.0467C83.3687 65.2631 83.0752 65.3846 82.7692 65.3846ZM81.6154 56.1538C80.3913 56.1538 79.2174 55.6676 78.3518 54.802C77.4863 53.9365 77 52.7625 77 51.5385V42.3077L90.8462 56.1538H81.6154Z" fill="white"/>
<defs>
<linearGradient id="paint0_linear_83_5870" x1="157.955" y1="7.21518e-06" x2="-4.70741e-06" y2="139" gradientUnits="userSpaceOnUse">
<stop stop-color="#1F8BF7"/>
<stop offset="1" stop-color="#DC33FC"/>
</linearGradient>
</defs>
</svg>
