<svg width="260" height="260" viewBox="0 0 260 260" fill="none" xmlns="http://www.w3.org/2000/svg">
<circle cx="130" cy="130" r="125" stroke="url(#paint0_linear_294_4119)" stroke-width="10"/>
<circle cx="130" cy="130" r="102" fill="url(#paint1_linear_294_4119)"/>
<path d="M62.4014 172C62.0814 172 61.8894 171.776 61.8894 171.36V150.24C61.8894 149.824 62.0814 149.6 62.4014 149.6H67.1374C72.2254 149.6 74.0494 152.192 74.0494 156.864V164.736C74.0494 169.248 72.8654 172 67.1054 172H62.4014ZM67.5534 167.84C68.8014 167.84 69.4094 166.848 69.4094 165.28V156.32C69.4094 154.752 68.8014 153.76 67.5534 153.76H66.5294V167.84H67.5534ZM81.4186 172.32C77.2266 172.32 75.8186 170.464 75.8186 166.528V158.528C75.8186 154.944 77.2586 152.48 81.4826 152.48C85.4826 152.48 86.9546 154.656 86.9546 158.528V161.856C86.9546 162.688 86.5066 163.136 85.6746 163.136H80.1386V167.424C80.1386 168.48 80.4906 169.056 81.4826 169.056C82.4426 169.056 82.7946 168.48 82.7946 167.424V165.856C82.7946 165.504 82.9546 165.312 83.2106 165.312H86.5066C86.7946 165.312 86.9546 165.504 86.9546 165.856V166.656C86.9546 170.592 85.4186 172.32 81.4186 172.32ZM80.1386 159.808H82.7946V157.376C82.7946 156.32 82.4426 155.744 81.4826 155.744C80.4906 155.744 80.1386 156.32 80.1386 157.376V159.808ZM89.3359 172C89.0159 172 88.8239 171.776 88.8239 171.36V153.44C88.8239 153.024 89.0159 152.8 89.3359 152.8H92.9519C93.2719 152.8 93.4639 153.024 93.4639 153.44V155.936C93.9439 153.824 94.9359 152.48 96.3759 152.48C96.8879 152.48 97.3039 152.544 97.3039 153.216V156.704C97.3039 157.12 97.0799 157.344 96.6639 157.344H94.7759C93.8479 157.344 93.4639 157.856 93.4639 159.008V171.36C93.4639 171.776 93.2719 172 92.9519 172H89.3359ZM103.794 172.32C99.6016 172.32 98.1936 170.464 98.1936 166.528V158.528C98.1936 154.944 99.6336 152.48 103.858 152.48C107.858 152.48 109.33 154.656 109.33 158.528V161.856C109.33 162.688 108.882 163.136 108.05 163.136H102.514V167.424C102.514 168.48 102.866 169.056 103.858 169.056C104.818 169.056 105.17 168.48 105.17 167.424V165.856C105.17 165.504 105.33 165.312 105.586 165.312H108.882C109.17 165.312 109.33 165.504 109.33 165.856V166.656C109.33 170.592 107.794 172.32 103.794 172.32ZM102.514 159.808H105.17V157.376C105.17 156.32 104.818 155.744 103.858 155.744C102.866 155.744 102.514 156.32 102.514 157.376V159.808ZM116.477 172.32C112.445 172.32 111.069 170.688 111.069 166.528V158.272C111.069 154.688 112.509 152.48 116.573 152.48C120.413 152.48 121.885 154.112 121.885 158.272V159.744C121.885 160.064 121.725 160.256 121.437 160.256H118.141C117.885 160.256 117.725 160.064 117.725 159.744V157.536C117.725 156.48 117.373 156.064 116.573 156.064C115.741 156.064 115.389 156.48 115.389 157.536V167.264C115.389 168.32 115.741 168.736 116.573 168.736C117.373 168.736 117.725 168.32 117.725 167.264V165.024C117.725 164.672 117.885 164.48 118.141 164.48H121.437C121.725 164.48 121.885 164.672 121.885 165.024V166.528C121.885 170.688 120.317 172.32 116.477 172.32ZM124.242 172C123.922 172 123.73 171.776 123.73 171.36V149.6C123.73 149.184 123.922 148.96 124.242 148.96H127.538C127.858 148.96 128.05 149.184 128.05 149.6V155.072C128.69 153.408 129.906 152.48 131.602 152.48C133.97 152.48 134.994 153.888 134.994 157.44V171.36C134.994 171.776 134.77 172 134.354 172H131.314C130.898 172 130.674 171.776 130.674 171.36V157.984C130.674 156.832 130.29 156.32 129.362 156.32C128.434 156.32 128.05 156.832 128.05 157.984V171.36C128.05 171.776 127.858 172 127.538 172H124.242ZM142.482 172.32C138.418 172.32 136.85 170.528 136.85 166.08V158.72C136.85 154.848 138.418 152.48 142.482 152.48C146.546 152.48 148.114 154.272 148.114 158.72V166.08C148.114 170.528 146.546 172.32 142.482 172.32ZM142.482 168.64C143.41 168.64 143.794 168.224 143.794 167.072V157.824C143.794 156.672 143.41 156.16 142.482 156.16C141.554 156.16 141.17 156.672 141.17 157.824V167.072C141.17 168.224 141.554 168.64 142.482 168.64ZM154.935 172.32C151.223 172.32 149.399 170.4 149.399 167.072V165.856C149.399 165.504 149.559 165.312 149.847 165.312H153.111C153.431 165.312 153.591 165.504 153.591 165.856V167.36C153.591 168.448 154.007 169.024 155.031 169.024C156.023 169.024 156.343 168.448 156.343 167.392C156.343 166.08 156.023 164.992 154.103 164.064C151.575 162.816 149.623 161.312 149.623 157.92C149.623 155.168 150.967 152.48 155.095 152.48C158.807 152.48 160.279 154.688 160.279 157.344V158.496C160.279 158.848 160.087 159.04 159.767 159.04H156.983C156.695 159.04 156.567 158.848 156.567 158.496V157.44C156.567 156.352 156.055 155.776 155.191 155.776C154.199 155.776 153.783 156.256 153.783 157.472C153.783 158.688 154.231 159.36 156.023 160.256C158.615 161.504 160.535 163.2 160.535 166.528C160.535 169.568 159.319 172.32 154.935 172.32ZM167.901 172C167.581 172 167.389 171.776 167.389 171.36V150.24C167.389 149.824 167.581 149.6 167.901 149.6H172.637C177.725 149.6 179.549 152.192 179.549 156.864V164.736C179.549 169.248 178.365 172 172.605 172H167.901ZM173.053 167.84C174.301 167.84 174.909 166.848 174.909 165.28V156.32C174.909 154.752 174.301 153.76 173.053 153.76H172.029V167.84H173.053ZM186.919 172.32C182.727 172.32 181.319 170.464 181.319 166.528V158.528C181.319 154.944 182.759 152.48 186.983 152.48C190.983 152.48 192.455 154.656 192.455 158.528V161.856C192.455 162.688 192.007 163.136 191.175 163.136H185.639V167.424C185.639 168.48 185.991 169.056 186.983 169.056C187.943 169.056 188.295 168.48 188.295 167.424V165.856C188.295 165.504 188.455 165.312 188.711 165.312H192.007C192.295 165.312 192.455 165.504 192.455 165.856V166.656C192.455 170.592 190.919 172.32 186.919 172.32ZM185.639 159.808H188.295V157.376C188.295 156.32 187.943 155.744 186.983 155.744C185.991 155.744 185.639 156.32 185.639 157.376V159.808ZM100.173 205C99.8528 205 99.6608 204.776 99.7248 204.36L103.405 183.24C103.469 182.824 103.661 182.6 103.981 182.6H109.837C110.157 182.6 110.349 182.824 110.413 183.24L113.933 204.36C113.997 204.776 113.805 205 113.485 205H109.805C109.453 205 109.261 204.776 109.197 204.36L108.685 200.84H104.589L104.077 204.36C104.045 204.776 103.821 205 103.501 205H100.173ZM105.229 196.68H108.045L106.637 187.272L105.229 196.68ZM118.572 205.32C116.299 205.32 115.276 204.04 115.276 200.488V186.44C115.276 186.024 115.5 185.8 115.916 185.8H118.956C119.372 185.8 119.596 186.024 119.596 186.44V199.944C119.596 201.096 119.98 201.48 120.812 201.48C121.644 201.48 122.028 201.096 122.028 199.944V186.44C122.028 186.024 122.22 185.8 122.54 185.8H126.156C126.476 185.8 126.668 186.024 126.668 186.44V204.36C126.668 204.776 126.476 205 126.156 205H122.54C122.22 205 122.028 204.776 122.028 204.36V202.824C121.388 204.424 120.204 205.32 118.572 205.32ZM134.693 205C131.237 205 129.701 203.368 129.701 200.168V189.48H128.645C128.229 189.48 128.005 189.288 128.005 188.968V186.312C128.005 185.992 128.229 185.8 128.645 185.8H129.701V183.944C129.701 183.528 129.893 183.336 130.213 183.304L133.509 182.92C133.829 182.888 134.021 183.144 134.021 183.56V185.8H135.557C135.973 185.8 136.197 185.992 136.197 186.312V188.968C136.197 189.288 135.973 189.48 135.557 189.48H134.021V200.36C134.021 201.192 134.437 201.64 135.333 201.64H135.653C136.069 201.64 136.293 201.864 136.293 202.28V204.36C136.293 204.776 136.069 205 135.653 205H134.693ZM143.06 205.32C138.996 205.32 137.428 203.528 137.428 199.08V191.72C137.428 187.848 138.996 185.48 143.06 185.48C147.124 185.48 148.692 187.272 148.692 191.72V199.08C148.692 203.528 147.124 205.32 143.06 205.32ZM143.06 201.64C143.988 201.64 144.372 201.224 144.372 200.072V190.824C144.372 189.672 143.988 189.16 143.06 189.16C142.132 189.16 141.748 189.672 141.748 190.824V200.072C141.748 201.224 142.132 201.64 143.06 201.64ZM151.102 205C150.782 205 150.59 204.776 150.59 204.36V186.44C150.59 186.024 150.782 185.8 151.102 185.8H154.718C155.038 185.8 155.23 186.024 155.23 186.44V188.936C155.71 186.824 156.702 185.48 158.142 185.48C158.654 185.48 159.07 185.544 159.07 186.216V189.704C159.07 190.12 158.845 190.344 158.43 190.344H156.542C155.614 190.344 155.23 190.856 155.23 192.008V204.36C155.23 204.776 155.038 205 154.718 205H151.102Z" fill="white"/>
<path d="M171.729 71.3177C173.042 73.1979 173.338 75.3255 172.616 77.7005L159.075 122.529C158.451 124.64 157.195 126.413 155.308 127.848C153.42 129.283 151.41 130 149.276 130H103.828C101.3 130 98.863 129.118 96.5159 127.353C94.1688 125.588 92.5357 123.419 91.6166 120.846C90.8287 118.636 90.7959 116.542 91.5181 114.562C91.5181 114.431 91.5673 113.985 91.6658 113.227C91.7643 112.468 91.8299 111.858 91.8628 111.396C91.8956 111.132 91.8463 110.777 91.715 110.332C91.5837 109.887 91.5345 109.565 91.5673 109.367C91.633 109.004 91.7643 108.658 91.9612 108.328C92.1582 107.998 92.429 107.611 92.7737 107.165C93.1184 106.72 93.3892 106.332 93.5861 106.003C94.3412 104.749 95.0797 103.24 95.8019 101.475C96.5241 99.7105 97.0165 98.2014 97.2791 96.9479C97.3776 96.6181 97.3858 96.1233 97.3037 95.4635C97.2217 94.8038 97.2135 94.342 97.2791 94.0781C97.3776 93.7153 97.6566 93.2535 98.1162 92.6927C98.5758 92.1319 98.8548 91.7526 98.9533 91.5547C99.6426 90.3672 100.332 88.8498 101.021 87.0026C101.711 85.1554 102.121 83.671 102.252 82.5495C102.285 82.2526 102.244 81.7248 102.129 80.9661C102.014 80.2075 102.023 79.7457 102.154 79.5807C102.285 79.1519 102.646 78.6489 103.237 78.0716C103.828 77.4944 104.189 77.1233 104.32 76.9583C104.944 76.1007 105.642 74.707 106.413 72.7773C107.184 70.8477 107.636 69.2561 107.767 68.0026C107.8 67.7387 107.751 67.3181 107.619 66.7409C107.488 66.1636 107.455 65.7266 107.521 65.4297C107.587 65.1658 107.734 64.8689 107.964 64.5391C108.194 64.2092 108.489 63.8299 108.85 63.401C109.211 62.9722 109.491 62.6259 109.687 62.362C109.95 61.9661 110.221 61.4631 110.5 60.8529C110.779 60.2426 111.025 59.6654 111.239 59.1211C111.452 58.5768 111.715 57.9831 112.026 57.3398C112.338 56.6966 112.658 56.1688 112.987 55.7565C113.315 55.3442 113.75 54.9566 114.291 54.5938C114.833 54.2309 115.424 54.0412 116.064 54.0247C116.704 54.0082 117.484 54.099 118.403 54.2969L118.354 54.4453C119.601 54.1484 120.438 54 120.865 54H158.336C160.765 54 162.636 54.9236 163.949 56.7708C165.263 58.6181 165.558 60.7622 164.836 63.2031L151.344 108.031C150.162 111.957 148.989 114.488 147.824 115.626C146.658 116.764 144.549 117.333 141.496 117.333H98.7071C97.8207 117.333 97.197 117.581 96.836 118.076C96.4749 118.603 96.4585 119.312 96.7867 120.203C97.5745 122.512 99.938 123.667 103.877 123.667H149.325C150.277 123.667 151.196 123.411 152.083 122.9C152.969 122.388 153.543 121.704 153.806 120.846L168.578 72.0104C168.808 71.2847 168.89 70.3446 168.824 69.1901C170.072 69.6849 171.04 70.3941 171.729 71.3177ZM119.338 71.4167C119.207 71.8455 119.24 72.2166 119.437 72.5299C119.634 72.8433 119.962 73 120.422 73H150.359C150.786 73 151.205 72.8433 151.615 72.5299C152.025 72.2166 152.296 71.8455 152.427 71.4167L153.461 68.25C153.593 67.8212 153.56 67.4501 153.363 67.1367C153.166 66.8233 152.838 66.6667 152.378 66.6667H122.441C122.014 66.6667 121.595 66.8233 121.185 67.1367C120.775 67.4501 120.504 67.8212 120.372 68.25L119.338 71.4167ZM115.252 84.0833C115.12 84.5122 115.153 84.8832 115.35 85.1966C115.547 85.51 115.875 85.6667 116.335 85.6667H146.272C146.699 85.6667 147.118 85.51 147.528 85.1966C147.938 84.8832 148.209 84.5122 148.341 84.0833L149.375 80.9167C149.506 80.4878 149.473 80.1168 149.276 79.8034C149.079 79.49 148.751 79.3333 148.291 79.3333H118.354C117.927 79.3333 117.508 79.49 117.098 79.8034C116.688 80.1168 116.417 80.4878 116.286 80.9167L115.252 84.0833Z" fill="white"/>
<defs>
<linearGradient id="paint0_linear_294_4119" x1="295.455" y1="1.3496e-05" x2="-8.80523e-06" y2="260" gradientUnits="userSpaceOnUse">
<stop stop-color="#1F8BF7"/>
<stop offset="1" stop-color="#DC33FC"/>
</linearGradient>
<linearGradient id="paint1_linear_294_4119" x1="130" y1="28" x2="130" y2="232" gradientUnits="userSpaceOnUse">
<stop stop-color="#1F8BF7"/>
<stop offset="1" stop-color="#DC33FC"/>
</linearGradient>
</defs>
</svg>
