<svg width="140" height="140" viewBox="0 0 140 140" fill="none" xmlns="http://www.w3.org/2000/svg">
<circle cx="70" cy="69.585" r="67" stroke="url(#paint0_linear_100_1552)" stroke-width="5"/>
<path d="M41.6773 41.2623C42.7516 40.1883 44.2085 39.585 45.7275 39.585C47.2466 39.585 48.7034 40.1883 49.7777 41.2623L70.0346 61.5191L90.2914 41.2623C91.3719 40.2187 92.819 39.6413 94.321 39.6543C95.8231 39.6674 97.2599 40.2699 98.3221 41.332C99.3842 42.3942 99.9867 43.831 99.9998 45.3331C100.013 46.8352 99.4354 48.2823 98.3919 49.3627L78.135 69.6195L98.3919 89.8764C99.4354 90.9568 100.013 92.4039 99.9998 93.906C99.9867 95.4081 99.3842 96.8449 98.3221 97.9071C97.2599 98.9692 95.8231 99.5717 94.321 99.5847C92.819 99.5978 91.3719 99.0204 90.2914 97.9768L70.0346 77.72L49.7777 97.9768C48.6973 99.0204 47.2502 99.5978 45.7481 99.5847C44.2461 99.5717 42.8092 98.9692 41.7471 97.9071C40.6849 96.8449 40.0824 95.4081 40.0694 93.906C40.0563 92.4039 40.6338 90.9568 41.6773 89.8764L61.9341 69.6195L41.6773 49.3627C40.6033 48.2884 40 46.8315 40 45.3125C40 43.7934 40.6033 42.3366 41.6773 41.2623Z" fill="white"/>
<defs>
<linearGradient id="paint0_linear_100_1552" x1="158.455" y1="0.0849682" x2="0.499995" y2="139.085" gradientUnits="userSpaceOnUse">
<stop stop-color="#1F8BF7"/>
<stop offset="1" stop-color="#DC33FC"/>
</linearGradient>
</defs>
</svg>
