<svg width="58" height="59" viewBox="0 0 58 59" fill="none" xmlns="http://www.w3.org/2000/svg">
<g filter="url(#filter0_d_459_2548)">
<path d="M6.08351 20.9662C5.53093 20.9662 5.00098 20.7467 4.61025 20.356C4.21951 19.9652 4 19.4353 4 18.8827V2.21883C4 1.66625 4.21951 1.1363 4.61025 0.745564C5.00098 0.354831 5.53093 0.135319 6.08351 0.135319H22.7516C23.3041 0.135319 23.8341 0.354831 24.2248 0.745564C24.6156 1.1363 24.8351 1.66625 24.8351 2.21883V18.8827C24.8351 19.4353 24.6156 19.9652 24.2248 20.356C23.8341 20.7467 23.3041 20.9662 22.7516 20.9662H6.08351ZM35.2526 20.9662C34.7 20.9662 34.1701 20.7467 33.7793 20.356C33.3886 19.9652 33.1691 19.4353 33.1691 18.8827V2.21883C33.1691 1.66625 33.3886 1.1363 33.7793 0.745564C34.1701 0.354831 34.7 0.135319 35.2526 0.135319H51.9165C52.4691 0.135319 52.999 0.354831 53.3898 0.745564C53.7805 1.1363 54 1.66625 54 2.21883V18.8827C54 19.4353 53.7805 19.9652 53.3898 20.356C52.999 20.7467 52.4691 20.9662 51.9165 20.9662H35.2526ZM6.08351 50.1353C5.53093 50.1353 5.00098 49.9158 4.61025 49.5251C4.21951 49.1343 4 48.6044 4 48.0518V31.3838C4 30.8312 4.21951 30.3012 4.61025 29.9105C5.00098 29.5198 5.53093 29.3002 6.08351 29.3002H22.7516C23.3041 29.3002 23.8341 29.5198 24.2248 29.9105C24.6156 30.3012 24.8351 30.8312 24.8351 31.3838V48.0518C24.8351 48.6044 24.6156 49.1343 24.2248 49.5251C23.8341 49.9158 23.3041 50.1353 22.7516 50.1353H6.08351ZM35.2526 50.1353C34.7 50.1353 34.1701 49.9158 33.7793 49.5251C33.3886 49.1343 33.1691 48.6044 33.1691 48.0518V31.3838C33.1691 30.8312 33.3886 30.3012 33.7793 29.9105C34.1701 29.5198 34.7 29.3002 35.2526 29.3002H51.9165C52.4691 29.3002 52.999 29.5198 53.3898 29.9105C53.7805 30.3012 54 30.8312 54 31.3838V48.0518C54 48.6044 53.7805 49.1343 53.3898 49.5251C52.999 49.9158 52.4691 50.1353 51.9165 50.1353H35.2526Z" fill="black"/>
<path d="M6.08351 20.9662C5.53093 20.9662 5.00098 20.7467 4.61025 20.356C4.21951 19.9652 4 19.4353 4 18.8827V2.21883C4 1.66625 4.21951 1.1363 4.61025 0.745564C5.00098 0.354831 5.53093 0.135319 6.08351 0.135319H22.7516C23.3041 0.135319 23.8341 0.354831 24.2248 0.745564C24.6156 1.1363 24.8351 1.66625 24.8351 2.21883V18.8827C24.8351 19.4353 24.6156 19.9652 24.2248 20.356C23.8341 20.7467 23.3041 20.9662 22.7516 20.9662H6.08351ZM35.2526 20.9662C34.7 20.9662 34.1701 20.7467 33.7793 20.356C33.3886 19.9652 33.1691 19.4353 33.1691 18.8827V2.21883C33.1691 1.66625 33.3886 1.1363 33.7793 0.745564C34.1701 0.354831 34.7 0.135319 35.2526 0.135319H51.9165C52.4691 0.135319 52.999 0.354831 53.3898 0.745564C53.7805 1.1363 54 1.66625 54 2.21883V18.8827C54 19.4353 53.7805 19.9652 53.3898 20.356C52.999 20.7467 52.4691 20.9662 51.9165 20.9662H35.2526ZM6.08351 50.1353C5.53093 50.1353 5.00098 49.9158 4.61025 49.5251C4.21951 49.1343 4 48.6044 4 48.0518V31.3838C4 30.8312 4.21951 30.3012 4.61025 29.9105C5.00098 29.5198 5.53093 29.3002 6.08351 29.3002H22.7516C23.3041 29.3002 23.8341 29.5198 24.2248 29.9105C24.6156 30.3012 24.8351 30.8312 24.8351 31.3838V48.0518C24.8351 48.6044 24.6156 49.1343 24.2248 49.5251C23.8341 49.9158 23.3041 50.1353 22.7516 50.1353H6.08351ZM35.2526 50.1353C34.7 50.1353 34.1701 49.9158 33.7793 49.5251C33.3886 49.1343 33.1691 48.6044 33.1691 48.0518V31.3838C33.1691 30.8312 33.3886 30.3012 33.7793 29.9105C34.1701 29.5198 34.7 29.3002 35.2526 29.3002H51.9165C52.4691 29.3002 52.999 29.5198 53.3898 29.9105C53.7805 30.3012 54 30.8312 54 31.3838V48.0518C54 48.6044 53.7805 49.1343 53.3898 49.5251C52.999 49.9158 52.4691 50.1353 51.9165 50.1353H35.2526Z" fill="url(#paint0_linear_459_2548)"/>
</g>
<defs>
<filter id="filter0_d_459_2548" x="0" y="0.135319" width="58" height="58" filterUnits="userSpaceOnUse" color-interpolation-filters="sRGB">
<feFlood flood-opacity="0" result="BackgroundImageFix"/>
<feColorMatrix in="SourceAlpha" type="matrix" values="0 0 0 0 0 0 0 0 0 0 0 0 0 0 0 0 0 0 127 0" result="hardAlpha"/>
<feOffset dy="4"/>
<feGaussianBlur stdDeviation="2"/>
<feComposite in2="hardAlpha" operator="out"/>
<feColorMatrix type="matrix" values="0 0 0 0 0 0 0 0 0 0 0 0 0 0 0 0 0 0 0.25 0"/>
<feBlend mode="normal" in2="BackgroundImageFix" result="effect1_dropShadow_459_2548"/>
<feBlend mode="normal" in="SourceGraphic" in2="effect1_dropShadow_459_2548" result="shape"/>
</filter>
<linearGradient id="paint0_linear_459_2548" x1="45.579" y1="0.135319" x2="-0.949886" y2="42.0633" gradientUnits="userSpaceOnUse">
<stop stop-color="#1F8BF7"/>
<stop offset="1" stop-color="#DC33FC"/>
</linearGradient>
</defs>
</svg>
