<svg width="260" height="260" viewBox="0 0 260 260" fill="none" xmlns="http://www.w3.org/2000/svg">
<circle cx="130" cy="130" r="125" stroke="url(#paint0_linear_391_5174)" stroke-width="10"/>
<circle cx="130" cy="130" r="102" fill="url(#paint1_linear_391_5174)"/>
<path d="M82.188 160.384C83.18 160.384 83.724 159.68 83.724 158.336V155.424C83.724 154.08 83.18 153.376 82.188 153.376H81.42V160.384H82.188ZM76.78 171.552V150.176C76.78 149.792 76.972 149.6 77.292 149.6H82.252C87.724 149.6 88.364 153.312 88.364 156.128V157.632C88.364 160.448 87.724 164.128 82.252 164.128H81.42V171.36C81.42 171.776 81.196 172 80.78 172H77.228C76.94 172 76.78 171.84 76.78 171.552ZM90.4765 172C90.1565 172 89.9645 171.776 89.9645 171.36V153.44C89.9645 153.024 90.1565 152.8 90.4765 152.8H94.0925C94.4125 152.8 94.6045 153.024 94.6045 153.44V155.936C95.0845 153.824 96.0765 152.48 97.5165 152.48C98.0285 152.48 98.4445 152.544 98.4445 153.216V156.704C98.4445 157.12 98.2205 157.344 97.8045 157.344H95.9165C94.9885 157.344 94.6045 157.856 94.6045 159.008V171.36C94.6045 171.776 94.4125 172 94.0925 172H90.4765ZM104.935 172.32C100.871 172.32 99.303 170.528 99.303 166.08V158.72C99.303 154.848 100.871 152.48 104.935 152.48C108.999 152.48 110.567 154.272 110.567 158.72V166.08C110.567 170.528 108.999 172.32 104.935 172.32ZM104.935 168.64C105.863 168.64 106.247 168.224 106.247 167.072V157.824C106.247 156.672 105.863 156.16 104.935 156.16C104.007 156.16 103.623 156.672 103.623 157.824V167.072C103.623 168.224 104.007 168.64 104.935 168.64ZM120.081 152.48C122.321 152.48 123.729 153.888 123.729 157.44V167.36C123.729 170.912 122.321 172.32 120.081 172.32C118.417 172.32 117.361 171.488 116.785 170.048V175.2C116.785 175.616 116.593 175.84 116.273 175.84H112.977C112.657 175.84 112.465 175.616 112.465 175.2V153.44C112.465 153.024 112.657 152.8 112.977 152.8H116.273C116.593 152.8 116.785 153.024 116.785 153.44V154.752C117.361 153.312 118.417 152.48 120.081 152.48ZM118.097 156.32C117.105 156.32 116.785 156.832 116.785 157.984V166.816C116.785 167.968 117.105 168.48 118.097 168.48C119.057 168.48 119.409 167.968 119.409 166.816V157.984C119.409 156.832 119.057 156.32 118.097 156.32ZM126.294 172C125.974 172 125.782 171.776 125.782 171.36V153.44C125.782 153.024 125.974 152.8 126.294 152.8H129.59C129.91 152.8 130.102 153.024 130.102 153.44V171.36C130.102 171.776 129.91 172 129.59 172H126.294ZM127.03 151.808C126.134 151.808 125.59 151.52 125.59 150.368C125.59 149.216 126.006 148.96 127.03 148.96H128.79C129.846 148.96 130.262 149.216 130.262 150.368C130.262 151.52 129.846 151.808 128.79 151.808H127.03ZM137.653 172.32C133.461 172.32 132.053 170.464 132.053 166.528V158.528C132.053 154.944 133.493 152.48 137.717 152.48C141.717 152.48 143.189 154.656 143.189 158.528V161.856C143.189 162.688 142.741 163.136 141.909 163.136H136.373V167.424C136.373 168.48 136.725 169.056 137.717 169.056C138.677 169.056 139.029 168.48 139.029 167.424V165.856C139.029 165.504 139.189 165.312 139.445 165.312H142.741C143.029 165.312 143.189 165.504 143.189 165.856V166.656C143.189 170.592 141.653 172.32 137.653 172.32ZM136.373 159.808H139.029V157.376C139.029 156.32 138.677 155.744 137.717 155.744C136.725 155.744 136.373 156.32 136.373 157.376V159.808ZM148.576 172.32C146.336 172.32 144.928 170.912 144.928 167.36V157.44C144.928 153.888 146.336 152.48 148.576 152.48C150.24 152.48 151.296 153.312 151.872 154.752V149.6C151.872 149.184 152.064 148.96 152.384 148.96H155.68C156 148.96 156.192 149.184 156.192 149.6V171.36C156.192 171.776 156 172 155.68 172H152.384C152.064 172 151.872 171.776 151.872 171.36V170.048C151.296 171.488 150.24 172.32 148.576 172.32ZM150.56 168.48C151.552 168.48 151.872 167.968 151.872 166.816V157.984C151.872 156.832 151.552 156.32 150.56 156.32C149.6 156.32 149.248 156.832 149.248 157.984V166.816C149.248 167.968 149.6 168.48 150.56 168.48ZM161.697 172.32C159.745 172.32 157.985 171.456 157.985 167.872V165.632C157.985 161.76 160.129 160.704 163.745 160.704H164.897V157.184C164.897 156.128 164.545 155.744 163.713 155.744C162.913 155.744 162.561 156.128 162.561 157.184V158.496C162.561 158.848 162.401 159.04 162.145 159.04H158.849C158.561 159.04 158.401 158.848 158.401 158.496V157.952C158.401 153.792 159.969 152.48 163.809 152.48C167.841 152.48 169.217 154.112 169.217 158.272V171.36C169.217 171.776 169.025 172 168.705 172H165.409C165.089 172 164.897 171.776 164.897 171.36V169.632C164.641 171.296 163.713 172.32 161.697 172.32ZM162.209 167.264C162.209 168.512 162.561 169.056 163.553 169.056C164.545 169.056 164.897 168.512 164.897 167.264V163.776H164.321C162.657 163.776 162.209 164.256 162.209 165.856V167.264ZM174.732 172.32C172.492 172.32 171.084 170.912 171.084 167.36V157.44C171.084 153.888 172.492 152.48 174.732 152.48C176.396 152.48 177.452 153.312 178.028 154.752V149.6C178.028 149.184 178.22 148.96 178.54 148.96H181.836C182.156 148.96 182.348 149.184 182.348 149.6V171.36C182.348 171.776 182.156 172 181.836 172H178.54C178.22 172 178.028 171.776 178.028 171.36V170.048C177.452 171.488 176.396 172.32 174.732 172.32ZM176.716 168.48C177.708 168.48 178.028 167.968 178.028 166.816V157.984C178.028 156.832 177.708 156.32 176.716 156.32C175.756 156.32 175.404 156.832 175.404 157.984V166.816C175.404 167.968 175.756 168.48 176.716 168.48ZM79.0591 205C78.7071 205 78.5471 204.776 78.5471 204.36V183.24C78.5471 182.824 78.7071 182.6 79.0591 182.6H82.6751C82.9951 182.6 83.1871 182.824 83.1871 183.24V204.36C83.1871 204.776 82.9951 205 82.6751 205H79.0591ZM93.3216 205C92.9056 205 92.6816 204.776 92.6816 204.36V190.984C92.6816 189.832 92.2976 189.32 91.3696 189.32C90.4416 189.32 90.0576 189.832 90.0576 190.984V204.36C90.0576 204.776 89.8656 205 89.5456 205H85.9296C85.6096 205 85.4176 204.776 85.4176 204.36V186.44C85.4176 186.024 85.6096 185.8 85.9296 185.8H89.5456C89.8656 185.8 90.0576 186.024 90.0576 186.44V188.072C90.6976 186.408 91.9136 185.48 93.6096 185.48C95.9776 185.48 97.0016 186.888 97.0016 190.44V204.36C97.0016 204.776 96.7776 205 96.3616 205H93.3216ZM102.529 205.32C100.289 205.32 98.8811 203.912 98.8811 200.36V190.44C98.8811 186.888 100.289 185.48 102.529 185.48C104.193 185.48 105.249 186.312 105.825 187.752V182.6C105.825 182.184 106.017 181.96 106.337 181.96H109.633C109.953 181.96 110.145 182.184 110.145 182.6V204.36C110.145 204.776 109.953 205 109.633 205H106.337C106.017 205 105.825 204.776 105.825 204.36V203.048C105.249 204.488 104.193 205.32 102.529 205.32ZM104.513 201.48C105.505 201.48 105.825 200.968 105.825 199.816V190.984C105.825 189.832 105.505 189.32 104.513 189.32C103.553 189.32 103.201 189.832 103.201 190.984V199.816C103.201 200.968 103.553 201.48 104.513 201.48ZM115.681 205.32C113.409 205.32 112.385 204.04 112.385 200.488V186.44C112.385 186.024 112.609 185.8 113.025 185.8H116.065C116.481 185.8 116.705 186.024 116.705 186.44V199.944C116.705 201.096 117.089 201.48 117.921 201.48C118.753 201.48 119.137 201.096 119.137 199.944V186.44C119.137 186.024 119.329 185.8 119.649 185.8H123.265C123.585 185.8 123.777 186.024 123.777 186.44V204.36C123.777 204.776 123.585 205 123.265 205H119.649C119.329 205 119.137 204.776 119.137 204.36V202.824C118.497 204.424 117.313 205.32 115.681 205.32ZM130.81 205.32C127.098 205.32 125.274 203.4 125.274 200.072V198.856C125.274 198.504 125.434 198.312 125.722 198.312H128.986C129.306 198.312 129.466 198.504 129.466 198.856V200.36C129.466 201.448 129.882 202.024 130.906 202.024C131.898 202.024 132.218 201.448 132.218 200.392C132.218 199.08 131.898 197.992 129.978 197.064C127.45 195.816 125.498 194.312 125.498 190.92C125.498 188.168 126.842 185.48 130.97 185.48C134.682 185.48 136.154 187.688 136.154 190.344V191.496C136.154 191.848 135.962 192.04 135.642 192.04H132.858C132.57 192.04 132.442 191.848 132.442 191.496V190.44C132.442 189.352 131.93 188.776 131.066 188.776C130.074 188.776 129.658 189.256 129.658 190.472C129.658 191.688 130.106 192.36 131.898 193.256C134.49 194.504 136.41 196.2 136.41 199.528C136.41 202.568 135.194 205.32 130.81 205.32ZM143.739 205C140.283 205 138.747 203.368 138.747 200.168V189.48H137.691C137.275 189.48 137.051 189.288 137.051 188.968V186.312C137.051 185.992 137.275 185.8 137.691 185.8H138.747V183.944C138.747 183.528 138.939 183.336 139.259 183.304L142.555 182.92C142.875 182.888 143.067 183.144 143.067 183.56V185.8H144.603C145.019 185.8 145.243 185.992 145.243 186.312V188.968C145.243 189.288 145.019 189.48 144.603 189.48H143.067V200.36C143.067 201.192 143.483 201.64 144.379 201.64H144.699C145.115 201.64 145.339 201.864 145.339 202.28V204.36C145.339 204.776 145.115 205 144.699 205H143.739ZM147.211 205C146.891 205 146.699 204.776 146.699 204.36V186.44C146.699 186.024 146.891 185.8 147.211 185.8H150.827C151.147 185.8 151.339 186.024 151.339 186.44V188.936C151.819 186.824 152.811 185.48 154.251 185.48C154.763 185.48 155.179 185.544 155.179 186.216V189.704C155.179 190.12 154.955 190.344 154.539 190.344H152.651C151.723 190.344 151.339 190.856 151.339 192.008V204.36C151.339 204.776 151.147 205 150.827 205H147.211ZM157.278 205C156.958 205 156.766 204.776 156.766 204.36V186.44C156.766 186.024 156.958 185.8 157.278 185.8H160.574C160.894 185.8 161.086 186.024 161.086 186.44V204.36C161.086 204.776 160.894 205 160.574 205H157.278ZM158.014 184.808C157.118 184.808 156.574 184.52 156.574 183.368C156.574 182.216 156.99 181.96 158.014 181.96H159.774C160.83 181.96 161.246 182.216 161.246 183.368C161.246 184.52 160.83 184.808 159.774 184.808H158.014ZM166.65 205.32C164.698 205.32 162.938 204.456 162.938 200.872V198.632C162.938 194.76 165.082 193.704 168.698 193.704H169.85V190.184C169.85 189.128 169.498 188.744 168.666 188.744C167.866 188.744 167.514 189.128 167.514 190.184V191.496C167.514 191.848 167.354 192.04 167.098 192.04H163.802C163.514 192.04 163.354 191.848 163.354 191.496V190.952C163.354 186.792 164.922 185.48 168.762 185.48C172.794 185.48 174.17 187.112 174.17 191.272V204.36C174.17 204.776 173.978 205 173.658 205H170.362C170.042 205 169.85 204.776 169.85 204.36V202.632C169.594 204.296 168.666 205.32 166.65 205.32ZM167.162 200.264C167.162 201.512 167.514 202.056 168.506 202.056C169.498 202.056 169.85 201.512 169.85 200.264V196.776H169.274C167.61 196.776 167.162 197.256 167.162 198.856V200.264ZM176.836 205C176.516 205 176.324 204.776 176.324 204.36V182.6C176.324 182.184 176.516 181.96 176.836 181.96H180.132C180.452 181.96 180.644 182.184 180.644 182.6V204.36C180.644 204.776 180.452 205 180.132 205H176.836Z" fill="white"/>
<path d="M130 58L91 73.96V105.056L130 121.016L169 105.056V73.9598L130 58ZM130 70.7791C136.673 70.7791 142.776 72.6684 147.367 75.9225C151.967 79.1833 155.132 84.0017 155.132 89.5082C155.132 95.0146 151.967 99.8333 147.367 103.094C142.776 106.348 136.673 108.237 130 108.237C123.327 108.237 117.224 106.348 112.633 103.094C108.033 99.8333 104.868 95.0144 104.868 89.508C104.868 84.0017 108.033 79.1831 112.633 75.9225C117.224 72.6687 123.327 70.7791 130 70.7791ZM130 73.8905C123.913 73.8905 118.41 75.6363 114.42 78.4647C110.743 81.0706 108.355 84.6059 108.011 88.526C109.247 86.0715 111.142 83.8908 113.49 82.1223C117.78 78.8916 123.602 76.9508 130 76.9508C136.398 76.9508 142.22 78.8915 146.51 82.1223C148.858 83.8906 150.753 86.0713 151.989 88.526C151.645 84.6057 149.257 81.0708 145.58 78.4647C141.59 75.6361 136.087 73.8905 130 73.8905ZM130 80.0622C124.23 80.0622 119.034 81.8364 115.349 84.6114C112.59 86.6898 110.691 89.2828 109.912 92.1432C110.927 90.8727 112.133 89.7128 113.49 88.6909C117.78 85.4601 123.602 83.5193 130 83.5193C136.398 83.5193 142.22 85.4599 146.51 88.6907C147.867 89.7128 149.073 90.8725 150.088 92.1432C149.309 89.2829 147.41 86.69 144.651 84.6116C140.966 81.8364 135.77 80.0622 130 80.0622ZM130 86.6307C124.23 86.6307 119.034 88.4048 115.349 91.1798C113.19 92.8059 111.56 94.7472 110.578 96.8847C110.721 97.0736 110.871 97.2594 111.024 97.4435C111.787 96.6503 112.611 95.9198 113.49 95.2592C117.78 92.0285 123.602 90.0877 130 90.0877C136.398 90.0877 142.22 92.0284 146.51 95.2592C147.389 95.9198 148.213 96.6503 148.976 97.4435C149.129 97.2594 149.279 97.0736 149.422 96.8847C148.44 94.7472 146.81 92.8059 144.651 91.1798C140.966 88.4048 135.77 86.6307 130 86.6307ZM91 108.416V120.674L128.451 136V123.742L91 108.416ZM169 108.416L131.549 123.742V136L169 120.674V108.416Z" fill="white"/>
<defs>
<linearGradient id="paint0_linear_391_5174" x1="295.455" y1="1.3496e-05" x2="-8.80523e-06" y2="260" gradientUnits="userSpaceOnUse">
<stop stop-color="#1F8BF7"/>
<stop offset="1" stop-color="#DC33FC"/>
</linearGradient>
<linearGradient id="paint1_linear_391_5174" x1="130" y1="28" x2="130" y2="232" gradientUnits="userSpaceOnUse">
<stop stop-color="#1F8BF7"/>
<stop offset="1" stop-color="#DC33FC"/>
</linearGradient>
</defs>
</svg>
