<svg width="260" height="260" viewBox="0 0 260 260" fill="none" xmlns="http://www.w3.org/2000/svg">
<circle cx="130" cy="130" r="125" stroke="url(#paint0_linear_641_3911)" stroke-width="10"/>
<circle cx="130" cy="130" r="102" fill="url(#paint1_linear_641_3911)"/>
<path d="M70.6499 172C70.3619 172 70.2019 171.84 70.2019 171.552V150.176C70.2019 149.792 70.3939 149.6 70.7139 149.6H76.1219C81.5939 149.6 81.8499 153.152 81.8499 155.648V156.256C81.8499 158.208 81.5939 159.776 79.4499 160.736C81.1779 161.024 81.8499 162.304 81.8499 164.576V167.872C81.8499 168.992 81.7539 170.24 82.0739 171.488C82.1699 171.872 81.9459 172 81.5939 172H78.3619C77.7219 172 77.5939 171.712 77.4659 171.328C77.2419 170.56 77.2419 169.888 77.2419 169.248V164.8C77.2419 163.008 76.8579 162.56 75.8019 162.56H74.8419V171.36C74.8419 171.776 74.6499 172 74.3299 172H70.6499ZM74.8419 159.04H75.8339C76.8259 159.04 77.4339 158.336 77.4339 156.992V155.424C77.4339 154.08 76.8259 153.376 75.8339 153.376H74.8419V159.04ZM89.1999 172.32C85.0079 172.32 83.5999 170.464 83.5999 166.528V158.528C83.5999 154.944 85.0399 152.48 89.2639 152.48C93.2639 152.48 94.7359 154.656 94.7359 158.528V161.856C94.7359 162.688 94.2879 163.136 93.4559 163.136H87.9199V167.424C87.9199 168.48 88.2719 169.056 89.2639 169.056C90.2239 169.056 90.5759 168.48 90.5759 167.424V165.856C90.5759 165.504 90.7359 165.312 90.9919 165.312H94.2879C94.5759 165.312 94.7359 165.504 94.7359 165.856V166.656C94.7359 170.592 93.1999 172.32 89.1999 172.32ZM87.9199 159.808H90.5759V157.376C90.5759 156.32 90.2239 155.744 89.2639 155.744C88.2719 155.744 87.9199 156.32 87.9199 157.376V159.808ZM102.107 176.16C97.8829 176.16 96.7949 174.432 96.7949 171.712V171.648C96.7949 171.296 96.9549 171.104 97.2429 171.104H100.539C100.795 171.104 100.955 171.296 100.955 171.648V171.968C100.955 172.544 101.307 173.12 102.171 173.12C103.067 173.12 103.419 172.544 103.419 171.488V167.584C102.875 169.024 101.851 169.824 100.283 169.824C97.9149 169.824 96.4749 168.416 96.4749 164.864V157.44C96.4749 153.888 97.9149 152.48 100.283 152.48C101.851 152.48 102.875 153.28 103.419 154.72V153.44C103.419 153.024 103.611 152.8 103.931 152.8H107.227C107.547 152.8 107.739 153.024 107.739 153.44V170.496C107.739 174.656 105.883 176.16 102.107 176.16ZM100.795 164.48C100.795 165.632 101.179 166.144 102.107 166.144C103.035 166.144 103.419 165.632 103.419 164.48V157.984C103.419 156.832 103.035 156.32 102.107 156.32C101.179 156.32 100.795 156.832 100.795 157.984V164.48ZM110.497 172C110.177 172 109.985 171.776 109.985 171.36V153.44C109.985 153.024 110.177 152.8 110.497 152.8H113.793C114.113 152.8 114.305 153.024 114.305 153.44V171.36C114.305 171.776 114.113 172 113.793 172H110.497ZM111.233 151.808C110.337 151.808 109.793 151.52 109.793 150.368C109.793 149.216 110.209 148.96 111.233 148.96H112.993C114.049 148.96 114.465 149.216 114.465 150.368C114.465 151.52 114.049 151.808 112.993 151.808H111.233ZM121.497 172.32C117.785 172.32 115.961 170.4 115.961 167.072V165.856C115.961 165.504 116.121 165.312 116.409 165.312H119.673C119.993 165.312 120.153 165.504 120.153 165.856V167.36C120.153 168.448 120.569 169.024 121.593 169.024C122.585 169.024 122.905 168.448 122.905 167.392C122.905 166.08 122.585 164.992 120.665 164.064C118.137 162.816 116.185 161.312 116.185 157.92C116.185 155.168 117.529 152.48 121.657 152.48C125.369 152.48 126.841 154.688 126.841 157.344V158.496C126.841 158.848 126.649 159.04 126.329 159.04H123.545C123.257 159.04 123.129 158.848 123.129 158.496V157.44C123.129 156.352 122.617 155.776 121.753 155.776C120.761 155.776 120.345 156.256 120.345 157.472C120.345 158.688 120.793 159.36 122.585 160.256C125.177 161.504 127.097 163.2 127.097 166.528C127.097 169.568 125.881 172.32 121.497 172.32ZM134.427 172C130.971 172 129.435 170.368 129.435 167.168V156.48H128.379C127.963 156.48 127.739 156.288 127.739 155.968V153.312C127.739 152.992 127.963 152.8 128.379 152.8H129.435V150.944C129.435 150.528 129.627 150.336 129.947 150.304L133.243 149.92C133.563 149.888 133.755 150.144 133.755 150.56V152.8H135.291C135.707 152.8 135.931 152.992 135.931 153.312V155.968C135.931 156.288 135.707 156.48 135.291 156.48H133.755V167.36C133.755 168.192 134.171 168.64 135.067 168.64H135.387C135.803 168.64 136.027 168.864 136.027 169.28V171.36C136.027 171.776 135.803 172 135.387 172H134.427ZM137.898 172C137.578 172 137.386 171.776 137.386 171.36V153.44C137.386 153.024 137.578 152.8 137.898 152.8H141.514C141.834 152.8 142.026 153.024 142.026 153.44V155.936C142.506 153.824 143.498 152.48 144.938 152.48C145.45 152.48 145.866 152.544 145.866 153.216V156.704C145.866 157.12 145.642 157.344 145.226 157.344H143.338C142.41 157.344 142.026 157.856 142.026 159.008V171.36C142.026 171.776 141.834 172 141.514 172H137.898ZM152.357 172.32C148.293 172.32 146.725 170.528 146.725 166.08V158.72C146.725 154.848 148.293 152.48 152.357 152.48C156.421 152.48 157.989 154.272 157.989 158.72V166.08C157.989 170.528 156.421 172.32 152.357 172.32ZM152.357 168.64C153.285 168.64 153.669 168.224 153.669 167.072V157.824C153.669 156.672 153.285 156.16 152.357 156.16C151.429 156.16 151.045 156.672 151.045 157.824V167.072C151.045 168.224 151.429 168.64 152.357 168.64ZM168.623 172.32C166.383 172.32 164.975 170.912 164.975 167.36V157.44C164.975 153.888 166.383 152.48 168.623 152.48C170.287 152.48 171.343 153.312 171.919 154.752V149.6C171.919 149.184 172.111 148.96 172.431 148.96H175.727C176.047 148.96 176.239 149.184 176.239 149.6V171.36C176.239 171.776 176.047 172 175.727 172H172.431C172.111 172 171.919 171.776 171.919 171.36V170.048C171.343 171.488 170.287 172.32 168.623 172.32ZM170.607 168.48C171.599 168.48 171.919 167.968 171.919 166.816V157.984C171.919 156.832 171.599 156.32 170.607 156.32C169.647 156.32 169.295 156.832 169.295 157.984V166.816C169.295 167.968 169.647 168.48 170.607 168.48ZM183.731 172.32C179.539 172.32 178.131 170.464 178.131 166.528V158.528C178.131 154.944 179.571 152.48 183.795 152.48C187.795 152.48 189.267 154.656 189.267 158.528V161.856C189.267 162.688 188.819 163.136 187.987 163.136H182.451V167.424C182.451 168.48 182.803 169.056 183.795 169.056C184.755 169.056 185.107 168.48 185.107 167.424V165.856C185.107 165.504 185.267 165.312 185.523 165.312H188.819C189.107 165.312 189.267 165.504 189.267 165.856V166.656C189.267 170.592 187.731 172.32 183.731 172.32ZM182.451 159.808H185.107V157.376C185.107 156.32 184.755 155.744 183.795 155.744C182.803 155.744 182.451 156.32 182.451 157.376V159.808ZM105.654 205.32C101.59 205.32 100.022 203.528 100.022 199.08V191.72C100.022 187.848 101.59 185.48 105.654 185.48C109.718 185.48 111.286 187.272 111.286 191.72V199.08C111.286 203.528 109.718 205.32 105.654 205.32ZM105.654 201.64C106.582 201.64 106.966 201.224 106.966 200.072V190.824C106.966 189.672 106.582 189.16 105.654 189.16C104.726 189.16 104.342 189.672 104.342 190.824V200.072C104.342 201.224 104.726 201.64 105.654 201.64ZM120.799 205.32C119.135 205.32 118.079 204.488 117.503 203.048V204.36C117.503 204.776 117.311 205 116.991 205H113.695C113.375 205 113.183 204.776 113.183 204.36V182.6C113.183 182.184 113.375 181.96 113.695 181.96H116.991C117.311 181.96 117.503 182.184 117.503 182.6V187.752C118.079 186.312 119.135 185.48 120.799 185.48C123.039 185.48 124.447 186.888 124.447 190.44V200.36C124.447 203.912 123.039 205.32 120.799 205.32ZM118.815 201.48C119.775 201.48 120.127 200.968 120.127 199.816V190.984C120.127 189.832 119.775 189.32 118.815 189.32C117.823 189.32 117.503 189.832 117.503 190.984V199.816C117.503 200.968 117.823 201.48 118.815 201.48ZM126.977 205C126.657 205 126.465 204.776 126.465 204.36V186.44C126.465 186.024 126.657 185.8 126.977 185.8H130.593C130.913 185.8 131.105 186.024 131.105 186.44V188.936C131.585 186.824 132.577 185.48 134.017 185.48C134.529 185.48 134.945 185.544 134.945 186.216V189.704C134.945 190.12 134.72 190.344 134.305 190.344H132.417C131.489 190.344 131.105 190.856 131.105 192.008V204.36C131.105 204.776 130.913 205 130.593 205H126.977ZM139.354 205.32C137.402 205.32 135.642 204.456 135.642 200.872V198.632C135.642 194.76 137.786 193.704 141.402 193.704H142.554V190.184C142.554 189.128 142.202 188.744 141.37 188.744C140.57 188.744 140.218 189.128 140.218 190.184V191.496C140.218 191.848 140.058 192.04 139.802 192.04H136.506C136.218 192.04 136.058 191.848 136.058 191.496V190.952C136.058 186.792 137.626 185.48 141.466 185.48C145.498 185.48 146.874 187.112 146.874 191.272V204.36C146.874 204.776 146.682 205 146.362 205H143.066C142.746 205 142.554 204.776 142.554 204.36V202.632C142.298 204.296 141.37 205.32 139.354 205.32ZM139.866 200.264C139.866 201.512 140.218 202.056 141.21 202.056C142.202 202.056 142.554 201.512 142.554 200.264V196.776H141.978C140.314 196.776 139.866 197.256 139.866 198.856V200.264ZM153.857 205.32C150.145 205.32 148.321 203.4 148.321 200.072V198.856C148.321 198.504 148.481 198.312 148.769 198.312H152.033C152.353 198.312 152.513 198.504 152.513 198.856V200.36C152.513 201.448 152.929 202.024 153.953 202.024C154.945 202.024 155.265 201.448 155.265 200.392C155.265 199.08 154.945 197.992 153.025 197.064C150.497 195.816 148.545 194.312 148.545 190.92C148.545 188.168 149.889 185.48 154.017 185.48C157.729 185.48 159.201 187.688 159.201 190.344V191.496C159.201 191.848 159.009 192.04 158.689 192.04H155.905C155.617 192.04 155.489 191.848 155.489 191.496V190.44C155.489 189.352 154.977 188.776 154.113 188.776C153.121 188.776 152.705 189.256 152.705 190.472C152.705 191.688 153.153 192.36 154.945 193.256C157.537 194.504 159.457 196.2 159.457 199.528C159.457 202.568 158.241 205.32 153.857 205.32Z" fill="white"/>
<path d="M161.491 49.0338C159.896 47.4379 158.001 46.1719 155.916 45.3082C153.831 44.4445 151.597 44 149.34 44C147.083 44 144.848 44.4445 142.764 45.3082C140.679 46.1719 138.784 47.4379 137.189 49.0338L90.6281 95.5942C90.2448 95.9796 89.9561 96.4488 89.7848 96.9647L80.9998 123.32C80.8013 123.916 80.7667 124.556 80.8996 125.171C81.0325 125.785 81.3279 126.353 81.7551 126.815C82.1823 127.277 82.7256 127.615 83.3283 127.795C83.931 127.975 84.571 127.99 85.1814 127.839L113.293 120.811C113.913 120.658 114.479 120.34 114.931 119.89L154.611 80.2029L155.215 80.8073C156.533 82.1253 157.273 83.9125 157.273 85.7761C157.273 87.6397 156.533 89.4269 155.215 90.7449L145.095 100.865C144.436 101.525 144.066 102.42 144.067 103.352C144.068 104.285 144.439 105.179 145.099 105.837C145.758 106.496 146.653 106.866 147.585 106.866C148.518 106.865 149.412 106.494 150.071 105.834L160.184 95.7137C162.819 93.0778 164.3 89.5032 164.3 85.7761C164.3 82.049 162.819 78.4744 160.184 75.8385L159.58 75.2341L161.491 73.3295C164.712 70.1072 166.522 65.7377 166.522 61.1817C166.522 56.6256 164.712 52.2561 161.491 49.0338ZM108.697 142C100.018 142 93.1793 138.022 88.6322 134.22L97.6561 131.971C101.014 133.905 104.815 134.939 108.69 134.972C111.543 134.972 114.481 133.819 117.616 131.76C120.75 129.701 123.786 126.932 126.85 124.065L127.645 123.313C130.35 120.775 133.154 118.133 135.839 116.313C138.707 114.359 142.516 112.588 146.501 114.127C149.143 115.139 150.858 117.008 152.06 119.3C153.191 121.45 153.971 124.135 154.73 127.066C155.082 128.401 155.665 129.694 156.347 130.565C156.57 130.869 156.84 131.135 157.148 131.353C157.324 131.458 157.401 131.458 157.422 131.458C158.28 131.458 159.748 130.882 161.85 129.448C163.15 128.562 164.267 127.677 165.378 126.784C166.062 126.236 166.769 125.686 167.5 125.133C169.461 123.664 171.155 122.68 172.399 122.055C173.035 121.731 173.687 121.44 174.353 121.183L174.493 121.127L174.542 121.113L174.563 121.106H174.57L175.695 124.43L174.577 121.099C175.457 120.813 176.413 120.885 177.24 121.299C178.066 121.713 178.696 122.437 178.993 123.312C179.289 124.188 179.229 125.145 178.825 125.977C178.421 126.808 177.705 127.447 176.833 127.754L176.805 127.768L176.587 127.853C176.372 127.937 176.035 128.094 175.575 128.324C174.662 128.78 173.319 129.553 171.71 130.762C171.295 131.064 170.761 131.493 170.143 131.985C168.871 132.99 167.268 134.262 165.799 135.26C163.621 136.75 160.592 138.493 157.422 138.493C154.358 138.493 152.144 136.631 150.774 134.86C149.433 133.059 148.465 131.009 147.927 128.83C147.154 125.857 146.55 123.91 145.847 122.575C145.215 121.394 144.652 120.944 143.978 120.677C143.401 120.466 142.256 120.445 139.796 122.125C137.596 123.615 135.193 125.871 132.36 128.534L131.658 129.188C128.628 132.034 125.192 135.197 121.474 137.636C117.749 140.081 113.462 142 108.697 142Z" fill="white"/>
<defs>
<linearGradient id="paint0_linear_641_3911" x1="295.455" y1="1.3496e-05" x2="-8.80523e-06" y2="260" gradientUnits="userSpaceOnUse">
<stop stop-color="#1F8BF7"/>
<stop offset="1" stop-color="#DC33FC"/>
</linearGradient>
<linearGradient id="paint1_linear_641_3911" x1="130" y1="28" x2="130" y2="232" gradientUnits="userSpaceOnUse">
<stop stop-color="#1F8BF7"/>
<stop offset="1" stop-color="#DC33FC"/>
</linearGradient>
</defs>
</svg>
