<svg width="22" height="12" viewBox="0 0 22 12" fill="none" xmlns="http://www.w3.org/2000/svg">
<path d="M6.03309 5.72176C6.96011 4.62801 8.20064 3.8453 9.58693 3.47945C10.9732 3.11361 12.4384 3.18227 13.7844 3.67617C15.1304 4.17007 16.2923 5.06538 17.113 6.24104C17.9336 7.4167 18.3735 8.816 18.3731 10.2498C18.3731 10.6476 18.5311 11.0291 18.8124 11.3104C19.0937 11.5917 19.4753 11.7498 19.8731 11.7498C20.2709 11.7498 20.6524 11.5917 20.9338 11.3104C21.2151 11.0291 21.3731 10.6476 21.3731 10.2498C21.3731 4.72676 16.8961 0.249763 11.3731 0.249763C9.9747 0.248047 8.59159 0.540524 7.3136 1.10819C6.03561 1.67586 4.89133 2.50603 3.95509 3.54476L3.60809 1.57976C3.57738 1.38267 3.50767 1.19369 3.40304 1.02387C3.29841 0.854048 3.16096 0.7068 2.99874 0.590742C2.83651 0.474685 2.65276 0.392149 2.45825 0.347963C2.26374 0.303778 2.06237 0.298831 1.86593 0.333412C1.66948 0.367992 1.4819 0.441407 1.31417 0.549358C1.14644 0.65731 1.00193 0.797631 0.889086 0.962109C0.776243 1.12659 0.697338 1.31192 0.656988 1.50726C0.616638 1.70261 0.615654 1.90404 0.654093 2.09976L1.69609 8.00976C1.76509 8.40076 1.98609 8.74976 2.31309 8.97776C2.71609 9.25976 3.24709 9.32276 3.69809 9.17976L9.34209 8.18376C9.53918 8.15305 9.72816 8.08334 9.89799 7.97871C10.0678 7.87408 10.2151 7.73663 10.3311 7.57441C10.4472 7.41218 10.5297 7.22844 10.5739 7.03392C10.6181 6.83941 10.623 6.63804 10.5884 6.4416C10.5539 6.24515 10.4804 6.05757 10.3725 5.88984C10.2645 5.72212 10.1242 5.5776 9.95975 5.46476C9.79527 5.35191 9.60993 5.27301 9.41459 5.23266C9.21925 5.19231 9.01782 5.19132 8.82209 5.22976L6.03409 5.72076L6.03309 5.72176Z" fill="white"/>
</svg>
