<svg width="260" height="260" viewBox="0 0 260 260" fill="none" xmlns="http://www.w3.org/2000/svg">
<circle cx="130" cy="130" r="125" stroke="url(#paint0_linear_294_4120)" stroke-width="10"/>
<circle cx="130" cy="130" r="102" fill="url(#paint1_linear_294_4120)"/>
<path d="M71.1839 172C70.8639 172 70.6719 171.776 70.6079 171.36L66.9279 150.24C66.8639 149.824 67.0559 149.6 67.3759 149.6H70.7039C71.0239 149.6 71.2159 149.824 71.2799 150.24L73.8399 167.328L76.3999 150.24C76.4639 149.824 76.6559 149.6 77.0079 149.6H80.6879C81.0079 149.6 81.1999 149.824 81.1359 150.24L77.4559 171.36C77.3919 171.776 77.1999 172 76.8799 172H71.1839ZM85.1191 172.32C83.1671 172.32 81.4071 171.456 81.4071 167.872V165.632C81.4071 161.76 83.5511 160.704 87.1671 160.704H88.3191V157.184C88.3191 156.128 87.9671 155.744 87.1351 155.744C86.3351 155.744 85.9831 156.128 85.9831 157.184V158.496C85.9831 158.848 85.8231 159.04 85.5671 159.04H82.2711C81.9831 159.04 81.8231 158.848 81.8231 158.496V157.952C81.8231 153.792 83.3911 152.48 87.2311 152.48C91.2631 152.48 92.6391 154.112 92.6391 158.272V171.36C92.6391 171.776 92.4471 172 92.1271 172H88.8311C88.5111 172 88.3191 171.776 88.3191 171.36V169.632C88.0631 171.296 87.1351 172.32 85.1191 172.32ZM85.6311 167.264C85.6311 168.512 85.9831 169.056 86.9751 169.056C87.9671 169.056 88.3191 168.512 88.3191 167.264V163.776H87.7431C86.0791 163.776 85.6311 164.256 85.6311 165.856V167.264ZM95.3046 172C94.9846 172 94.7926 171.776 94.7926 171.36V153.44C94.7926 153.024 94.9846 152.8 95.3046 152.8H98.9206C99.2406 152.8 99.4326 153.024 99.4326 153.44V155.936C99.9126 153.824 100.905 152.48 102.345 152.48C102.857 152.48 103.273 152.544 103.273 153.216V156.704C103.273 157.12 103.049 157.344 102.633 157.344H100.745C99.8166 157.344 99.4326 157.856 99.4326 159.008V171.36C99.4326 171.776 99.2406 172 98.9206 172H95.3046ZM105.372 172C105.052 172 104.86 171.776 104.86 171.36V153.44C104.86 153.024 105.052 152.8 105.372 152.8H108.668C108.988 152.8 109.18 153.024 109.18 153.44V171.36C109.18 171.776 108.988 172 108.668 172H105.372ZM106.108 151.808C105.212 151.808 104.668 151.52 104.668 150.368C104.668 149.216 105.084 148.96 106.108 148.96H107.868C108.924 148.96 109.34 149.216 109.34 150.368C109.34 151.52 108.924 151.808 107.868 151.808H106.108ZM116.731 172.32C112.539 172.32 111.131 170.464 111.131 166.528V158.528C111.131 154.944 112.571 152.48 116.795 152.48C120.795 152.48 122.267 154.656 122.267 158.528V161.856C122.267 162.688 121.819 163.136 120.987 163.136H115.451V167.424C115.451 168.48 115.803 169.056 116.795 169.056C117.755 169.056 118.107 168.48 118.107 167.424V165.856C118.107 165.504 118.267 165.312 118.523 165.312H121.819C122.107 165.312 122.267 165.504 122.267 165.856V166.656C122.267 170.592 120.731 172.32 116.731 172.32ZM115.451 159.808H118.107V157.376C118.107 156.32 117.755 155.744 116.795 155.744C115.803 155.744 115.451 156.32 115.451 157.376V159.808ZM127.654 172.32C125.414 172.32 124.006 170.912 124.006 167.36V157.44C124.006 153.888 125.414 152.48 127.654 152.48C129.318 152.48 130.374 153.312 130.95 154.752V149.6C130.95 149.184 131.142 148.96 131.462 148.96H134.758C135.078 148.96 135.27 149.184 135.27 149.6V171.36C135.27 171.776 135.078 172 134.758 172H131.462C131.142 172 130.95 171.776 130.95 171.36V170.048C130.374 171.488 129.318 172.32 127.654 172.32ZM129.638 168.48C130.63 168.48 130.95 167.968 130.95 166.816V157.984C130.95 156.832 130.63 156.32 129.638 156.32C128.678 156.32 128.326 156.832 128.326 157.984V166.816C128.326 167.968 128.678 168.48 129.638 168.48ZM140.775 172.32C138.823 172.32 137.063 171.456 137.063 167.872V165.632C137.063 161.76 139.207 160.704 142.823 160.704H143.975V157.184C143.975 156.128 143.623 155.744 142.791 155.744C141.991 155.744 141.639 156.128 141.639 157.184V158.496C141.639 158.848 141.479 159.04 141.223 159.04H137.927C137.639 159.04 137.479 158.848 137.479 158.496V157.952C137.479 153.792 139.047 152.48 142.887 152.48C146.919 152.48 148.295 154.112 148.295 158.272V171.36C148.295 171.776 148.103 172 147.783 172H144.487C144.167 172 143.975 171.776 143.975 171.36V169.632C143.719 171.296 142.791 172.32 140.775 172.32ZM141.287 167.264C141.287 168.512 141.639 169.056 142.631 169.056C143.623 169.056 143.975 168.512 143.975 167.264V163.776H143.399C141.735 163.776 141.287 164.256 141.287 165.856V167.264ZM153.81 172.32C151.57 172.32 150.162 170.912 150.162 167.36V157.44C150.162 153.888 151.57 152.48 153.81 152.48C155.474 152.48 156.53 153.312 157.106 154.752V149.6C157.106 149.184 157.298 148.96 157.618 148.96H160.914C161.234 148.96 161.426 149.184 161.426 149.6V171.36C161.426 171.776 161.234 172 160.914 172H157.618C157.298 172 157.106 171.776 157.106 171.36V170.048C156.53 171.488 155.474 172.32 153.81 172.32ZM155.794 168.48C156.786 168.48 157.106 167.968 157.106 166.816V157.984C157.106 156.832 156.786 156.32 155.794 156.32C154.834 156.32 154.482 156.832 154.482 157.984V166.816C154.482 167.968 154.834 168.48 155.794 168.48ZM168.919 172.32C164.727 172.32 163.319 170.464 163.319 166.528V158.528C163.319 154.944 164.759 152.48 168.983 152.48C172.983 152.48 174.455 154.656 174.455 158.528V161.856C174.455 162.688 174.007 163.136 173.175 163.136H167.639V167.424C167.639 168.48 167.991 169.056 168.983 169.056C169.943 169.056 170.295 168.48 170.295 167.424V165.856C170.295 165.504 170.455 165.312 170.711 165.312H174.007C174.295 165.312 174.455 165.504 174.455 165.856V166.656C174.455 170.592 172.919 172.32 168.919 172.32ZM167.639 159.808H170.295V157.376C170.295 156.32 169.943 155.744 168.983 155.744C167.991 155.744 167.639 156.32 167.639 157.376V159.808ZM181.154 172.32C177.442 172.32 175.618 170.4 175.618 167.072V165.856C175.618 165.504 175.778 165.312 176.066 165.312H179.33C179.65 165.312 179.81 165.504 179.81 165.856V167.36C179.81 168.448 180.226 169.024 181.25 169.024C182.242 169.024 182.562 168.448 182.562 167.392C182.562 166.08 182.242 164.992 180.322 164.064C177.794 162.816 175.842 161.312 175.842 157.92C175.842 155.168 177.186 152.48 181.314 152.48C185.026 152.48 186.498 154.688 186.498 157.344V158.496C186.498 158.848 186.306 159.04 185.986 159.04H183.202C182.914 159.04 182.786 158.848 182.786 158.496V157.44C182.786 156.352 182.274 155.776 181.41 155.776C180.418 155.776 180.002 156.256 180.002 157.472C180.002 158.688 180.45 159.36 182.242 160.256C184.834 161.504 186.754 163.2 186.754 166.528C186.754 169.568 185.538 172.32 181.154 172.32ZM81.1683 205C80.8483 205 80.6562 204.776 80.5923 204.36L76.9123 183.24C76.8483 182.824 77.0403 182.6 77.3603 182.6H80.6883C81.0083 182.6 81.2003 182.824 81.2643 183.24L83.8243 200.328L86.3843 183.24C86.4483 182.824 86.6403 182.6 86.9923 182.6H90.6723C90.9923 182.6 91.1843 182.824 91.1203 183.24L87.4403 204.36C87.3763 204.776 87.1843 205 86.8643 205H81.1683ZM97.3718 205.32C93.1798 205.32 91.7718 203.464 91.7718 199.528V191.528C91.7718 187.944 93.2118 185.48 97.4358 185.48C101.436 185.48 102.908 187.656 102.908 191.528V194.856C102.908 195.688 102.46 196.136 101.628 196.136H96.0918V200.424C96.0918 201.48 96.4438 202.056 97.4358 202.056C98.3958 202.056 98.7478 201.48 98.7478 200.424V198.856C98.7478 198.504 98.9078 198.312 99.1638 198.312H102.46C102.748 198.312 102.908 198.504 102.908 198.856V199.656C102.908 203.592 101.372 205.32 97.3718 205.32ZM96.0918 192.808H98.7478V190.376C98.7478 189.32 98.3958 188.744 97.4358 188.744C96.4438 188.744 96.0918 189.32 96.0918 190.376V192.808ZM110.279 209.16C106.055 209.16 104.967 207.432 104.967 204.712V204.648C104.967 204.296 105.127 204.104 105.415 204.104H108.711C108.967 204.104 109.127 204.296 109.127 204.648V204.968C109.127 205.544 109.479 206.12 110.343 206.12C111.239 206.12 111.591 205.544 111.591 204.488V200.584C111.047 202.024 110.023 202.824 108.455 202.824C106.087 202.824 104.647 201.416 104.647 197.864V190.44C104.647 186.888 106.087 185.48 108.455 185.48C110.023 185.48 111.047 186.28 111.591 187.72V186.44C111.591 186.024 111.783 185.8 112.103 185.8H115.399C115.719 185.8 115.911 186.024 115.911 186.44V203.496C115.911 207.656 114.055 209.16 110.279 209.16ZM108.967 197.48C108.967 198.632 109.351 199.144 110.279 199.144C111.207 199.144 111.591 198.632 111.591 197.48V190.984C111.591 189.832 111.207 189.32 110.279 189.32C109.351 189.32 108.967 189.832 108.967 190.984V197.48ZM123.372 205.32C119.18 205.32 117.772 203.464 117.772 199.528V191.528C117.772 187.944 119.212 185.48 123.436 185.48C127.436 185.48 128.908 187.656 128.908 191.528V194.856C128.908 195.688 128.46 196.136 127.628 196.136H122.092V200.424C122.092 201.48 122.444 202.056 123.436 202.056C124.396 202.056 124.748 201.48 124.748 200.424V198.856C124.748 198.504 124.908 198.312 125.164 198.312H128.46C128.748 198.312 128.908 198.504 128.908 198.856V199.656C128.908 203.592 127.372 205.32 123.372 205.32ZM122.092 192.808H124.748V190.376C124.748 189.32 124.396 188.744 123.436 188.744C122.444 188.744 122.092 189.32 122.092 190.376V192.808ZM136.349 205C132.893 205 131.357 203.368 131.357 200.168V189.48H130.301C129.885 189.48 129.661 189.288 129.661 188.968V186.312C129.661 185.992 129.885 185.8 130.301 185.8H131.357V183.944C131.357 183.528 131.549 183.336 131.869 183.304L135.165 182.92C135.485 182.888 135.677 183.144 135.677 183.56V185.8H137.213C137.629 185.8 137.853 185.992 137.853 186.312V188.968C137.853 189.288 137.629 189.48 137.213 189.48H135.677V200.36C135.677 201.192 136.093 201.64 136.989 201.64H137.309C137.725 201.64 137.949 201.864 137.949 202.28V204.36C137.949 204.776 137.725 205 137.309 205H136.349ZM142.572 205.32C140.62 205.32 138.86 204.456 138.86 200.872V198.632C138.86 194.76 141.004 193.704 144.62 193.704H145.772V190.184C145.772 189.128 145.42 188.744 144.588 188.744C143.788 188.744 143.436 189.128 143.436 190.184V191.496C143.436 191.848 143.276 192.04 143.02 192.04H139.724C139.436 192.04 139.276 191.848 139.276 191.496V190.952C139.276 186.792 140.844 185.48 144.684 185.48C148.716 185.48 150.092 187.112 150.092 191.272V204.36C150.092 204.776 149.9 205 149.58 205H146.284C145.964 205 145.772 204.776 145.772 204.36V202.632C145.516 204.296 144.588 205.32 142.572 205.32ZM143.084 200.264C143.084 201.512 143.436 202.056 144.428 202.056C145.42 202.056 145.772 201.512 145.772 200.264V196.776H145.196C143.532 196.776 143.084 197.256 143.084 198.856V200.264ZM152.758 205C152.438 205 152.246 204.776 152.246 204.36V182.6C152.246 182.184 152.438 181.96 152.758 181.96H156.054C156.374 181.96 156.566 182.184 156.566 182.6V204.36C156.566 204.776 156.374 205 156.054 205H152.758ZM164.059 205.32C159.867 205.32 158.459 203.464 158.459 199.528V191.528C158.459 187.944 159.899 185.48 164.123 185.48C168.123 185.48 169.595 187.656 169.595 191.528V194.856C169.595 195.688 169.147 196.136 168.315 196.136H162.779V200.424C162.779 201.48 163.131 202.056 164.123 202.056C165.083 202.056 165.435 201.48 165.435 200.424V198.856C165.435 198.504 165.595 198.312 165.851 198.312H169.147C169.435 198.312 169.595 198.504 169.595 198.856V199.656C169.595 203.592 168.059 205.32 164.059 205.32ZM162.779 192.808H165.435V190.376C165.435 189.32 165.083 188.744 164.123 188.744C163.131 188.744 162.779 189.32 162.779 190.376V192.808ZM176.294 205.32C172.582 205.32 170.758 203.4 170.758 200.072V198.856C170.758 198.504 170.918 198.312 171.206 198.312H174.47C174.79 198.312 174.95 198.504 174.95 198.856V200.36C174.95 201.448 175.366 202.024 176.39 202.024C177.382 202.024 177.702 201.448 177.702 200.392C177.702 199.08 177.382 197.992 175.462 197.064C172.934 195.816 170.982 194.312 170.982 190.92C170.982 188.168 172.326 185.48 176.454 185.48C180.166 185.48 181.638 187.688 181.638 190.344V191.496C181.638 191.848 181.446 192.04 181.126 192.04H178.342C178.054 192.04 177.926 191.848 177.926 191.496V190.44C177.926 189.352 177.414 188.776 176.55 188.776C175.558 188.776 175.142 189.256 175.142 190.472C175.142 191.688 175.59 192.36 177.382 193.256C179.974 194.504 181.894 196.2 181.894 199.528C181.894 202.568 180.678 205.32 176.294 205.32Z" fill="white"/>
<path d="M130.459 43.0002C127.053 44.4218 124.366 46.5416 122.737 49.0622L119.785 43.4099C117.988 53.5178 117.29 62.8877 126.162 65.8535C124.023 73.4205 122.737 80.9917 122.04 88.5532L117.942 80.6985C117.374 77.6846 116.025 74.4101 114.486 71.0707L111.023 86.2548C109.585 81.6523 107.736 77.1028 105.35 72.6386C110.224 63.7858 108.565 58.183 99.1535 56.3984C99.0508 57.0211 99.0419 58.3125 99.0419 58.3125L95.081 56.5201L94.6139 60.5846L92.7519 59.6311C91.6692 68.2867 92.7279 74.9835 102.043 74.3993C102.773 75.7602 103.458 77.1458 104.099 78.5536L83 72.0114C89.23 81.2801 95.7883 88.9645 105.425 81.6584C107.614 87.1188 109.108 92.7087 110.158 98.3985L97.2484 90.1661C99.8135 97.5545 102.869 103.949 110.587 100.908C110.834 102.433 111.047 103.965 111.241 105.504H115.002C114.453 101.008 113.701 96.5276 112.63 92.0865C114.266 91.2477 115.489 90.273 116.366 89.1802C117.102 91.4739 118.68 93.204 121.635 94.0133C121.416 97.846 121.335 101.677 121.348 105.504H125.072C125.07 104.67 125.072 103.84 125.078 103.007C133.426 101.611 132.946 94.3057 131.536 86.376L125.166 98.59C125.318 93.7351 125.663 88.8955 126.281 84.0652C136.746 85.0982 138.465 76.1206 139.259 66.0837L126.941 79.5715C127.633 75.3592 128.547 71.1543 129.731 66.9603C137.213 67.9018 145.052 59.6339 144.733 52.621L142.254 54.2024C142.044 51.7525 140.924 48.9768 138.841 45.8672C137.34 46.964 136.051 48.4428 134.887 50.0543L134.071 46.3478L131.742 49.3375C131.678 47.1928 131.309 45.0831 130.459 43.0002ZM166.771 63.3312C165.776 63.3329 164.583 63.5074 163.135 63.9265C160.477 64.6955 157.65 66.4359 158.676 71.6339C153.796 74.3229 149.627 78.0091 146.271 82.5225H146.233C146.239 82.5317 146.246 82.5389 146.252 82.5481C146.092 82.7632 145.934 82.9762 145.778 83.1946L150.374 67.5558C141.22 74.0582 133.647 80.9046 141.319 91.0619C139.388 95.4243 138.024 100.268 137.272 105.504H144.85C149.739 103.993 150.749 98.0398 151.265 91.5228L141.668 102.028C143.017 95.7697 145.34 90.3034 148.525 85.7486C155.844 94.3819 163.905 88.8004 172.046 81.6906L151.203 82.3625C153.812 79.4365 156.852 76.9959 160.282 75.0904C162.551 78.1099 165.942 77.9935 168.372 76.6907C173.421 73.9834 171.847 70.9878 176 67.287C171.837 68.3653 172.144 63.3216 166.771 63.3308V63.3312ZM107.654 109.332L112.841 141H141.456L146.719 109.332H107.654Z" fill="white"/>
<defs>
<linearGradient id="paint0_linear_294_4120" x1="295.455" y1="1.3496e-05" x2="-8.80523e-06" y2="260" gradientUnits="userSpaceOnUse">
<stop stop-color="#1F8BF7"/>
<stop offset="1" stop-color="#DC33FC"/>
</linearGradient>
<linearGradient id="paint1_linear_294_4120" x1="130" y1="28" x2="130" y2="232" gradientUnits="userSpaceOnUse">
<stop stop-color="#1F8BF7"/>
<stop offset="1" stop-color="#DC33FC"/>
</linearGradient>
</defs>
</svg>
